<svg width="95" height="32" viewBox="0 0 95 32" fill="none" xmlns="http://www.w3.org/2000/svg">
<path d="M93.8165 17.9416C93.6269 17.5546 93.3681 17.2275 93.0466 16.9689C92.7351 16.7187 92.3718 16.506 91.9657 16.3366C91.5695 16.1714 91.1565 16.0257 90.735 15.9035C90.298 15.7855 89.8919 15.661 89.5271 15.5332C89.1758 15.4104 88.8737 15.2581 88.6298 15.0811C88.3979 14.9132 88.2143 14.688 88.0844 14.4125C87.954 14.1359 87.8878 13.7532 87.8878 13.2742C87.8878 12.8512 87.9674 12.4892 88.1252 12.1978C88.2854 11.9007 88.4905 11.6588 88.7343 11.4795C88.9827 11.2966 89.2609 11.1634 89.56 11.0832C89.867 11.0015 90.1616 10.9603 90.4368 10.9603C91.0326 10.9603 91.5461 11.0783 91.9627 11.3118C92.3802 11.545 92.7605 11.9104 93.0944 12.3976L93.1964 12.5465L93.9588 12.0527L93.8399 11.8633C93.0834 10.6573 91.9388 10.0455 90.4368 10.0455C90.0213 10.0455 89.6038 10.1132 89.1972 10.2475C88.7866 10.3828 88.4148 10.5841 88.0908 10.8468C87.7624 11.113 87.4956 11.4535 87.2991 11.858C87.1 12.2661 86.9995 12.7512 86.9995 13.3002C86.9995 13.8457 87.0796 14.3103 87.2364 14.68C87.3936 15.0502 87.6121 15.3653 87.8863 15.617C88.155 15.8629 88.4711 16.0652 88.8249 16.218C89.1668 16.3662 89.5371 16.5028 89.9282 16.625C90.2796 16.728 90.6583 16.8433 91.0639 16.972C91.4551 17.096 91.8174 17.259 92.1409 17.4565C92.4519 17.6466 92.7137 17.9037 92.9182 18.2199C93.1163 18.5252 93.2163 18.9344 93.2163 19.4358C93.2163 19.8613 93.1352 20.2434 92.9749 20.5716C92.8117 20.9044 92.5972 21.1854 92.3359 21.4062C92.0712 21.6308 91.7731 21.8018 91.4506 21.9139C91.1256 22.0271 90.8001 22.0846 90.4826 22.0846C89.0927 22.0846 88.0585 21.5238 87.3229 20.3696L87.2155 20.2013L86.4844 20.7469L86.5968 20.9249C87.0288 21.6054 87.5842 22.1273 88.2486 22.4764C88.908 22.8234 89.652 23 90.4597 23C90.9544 23 91.4242 22.9177 91.8562 22.7568C92.2917 22.5944 92.6803 22.3557 93.0113 22.0482C93.3452 21.7376 93.614 21.3542 93.809 20.9082C94.0051 20.4595 94.1047 19.9467 94.1047 19.3842C94.1047 18.8185 94.0076 18.3336 93.8165 17.9416Z" fill="#6EC739"/>
<path d="M82.521 11.7353C82.1852 11.2279 81.7293 10.8153 81.1663 10.5078C80.6016 10.201 79.893 10.0455 79.0593 10.0455C78.5371 10.0455 78.0257 10.1267 77.5388 10.2874C77.0513 10.4478 76.5927 10.6876 76.1737 11.0006C75.7574 11.3123 75.3797 11.6951 75.0509 12.138C74.8933 12.351 74.752 12.5798 74.6292 12.8224C74.6227 12.5853 74.6156 12.3417 74.6086 12.0904C74.5999 11.7912 74.5917 11.5122 74.5836 11.255C74.5749 10.9951 74.5618 10.7743 74.545 10.5977L74.4999 10.0461H73.5293L73.5782 10.639C73.5945 10.809 73.6114 11.0211 73.6282 11.2755C73.6445 11.5312 73.657 11.7992 73.6652 12.0796L73.6907 12.9167C73.6988 13.1889 73.7027 13.4186 73.7027 13.6054V23H74.6716V16.5408C74.6716 15.6585 74.7901 14.8631 75.0243 14.177C75.2569 13.4932 75.5737 12.9047 75.9661 12.4288C76.3546 11.9572 76.8204 11.5907 77.3513 11.3384C77.8822 11.0873 78.4567 10.9594 79.0593 10.9594C79.7354 10.9594 80.2978 11.1002 80.7315 11.3775C81.1717 11.66 81.526 12.0147 81.7836 12.4316C82.0445 12.8528 82.2249 13.3304 82.32 13.85C82.4178 14.3849 82.4672 14.8912 82.4672 15.3569V23H83.4357V15.3049C83.4357 14.6747 83.3666 14.044 83.2297 13.4294C83.0906 12.8057 82.852 12.2362 82.521 11.7353Z" fill="#6EC739"/>
<path d="M70.068 10.0455H69.8531C69.0029 10.0455 68.2012 10.3319 67.4703 10.8966C66.9388 11.3071 66.5096 11.9103 66.1883 12.6964C66.1832 12.4994 66.1775 12.2984 66.1723 12.0929C66.164 11.7927 66.1563 11.5129 66.148 11.2551C66.1403 10.9958 66.1279 10.7744 66.1119 10.5978L66.069 10.0455H65.1465L65.193 10.639C65.2085 10.8091 65.2245 11.0218 65.24 11.2763C65.2555 11.5313 65.2674 11.7993 65.2756 12.0798L65.2994 12.9169C65.3071 13.1893 65.3113 13.4187 65.3113 13.6055V23H66.2317V16.3355C66.2317 15.7025 66.3061 15.0566 66.4528 14.4159C66.5984 13.7804 66.8267 13.1952 67.132 12.6764C67.4332 12.1648 67.8221 11.7451 68.288 11.4289C68.7467 11.1176 69.3133 10.9594 69.9724 10.9594H70.1041C70.1423 10.9594 70.1868 10.966 70.2353 10.9791L70.4807 11.044V10.109L70.3211 10.0754C70.2265 10.0553 70.1439 10.0455 70.068 10.0455Z" fill="#6EC739"/>
<path d="M60.3978 11.8539C59.8578 11.2886 59.2045 10.8407 58.456 10.5233C57.708 10.2063 56.878 10.0455 55.99 10.0455C55.1019 10.0455 54.2759 10.2063 53.5363 10.5237C52.7958 10.8411 52.1467 11.2886 51.6073 11.8539C51.0667 12.4205 50.6432 13.1058 50.3489 13.8906C50.0553 14.6733 49.9062 15.5502 49.9062 16.4971C49.9062 17.4439 50.0553 18.3251 50.3485 19.1158C50.6428 19.9099 51.0661 20.6032 51.6056 21.1779C52.1457 21.7521 52.7952 22.2045 53.5363 22.5223C54.2759 22.8392 55.1019 23 55.99 23C56.878 23 57.708 22.8396 58.456 22.5229C59.205 22.2049 59.8589 21.7525 60.3989 21.1779C60.9384 20.6038 61.3613 19.9105 61.6566 19.1158C61.9497 18.3234 62.0987 17.4422 62.0987 16.4971C62.0987 15.552 61.9497 14.6749 61.6561 13.8906C61.3608 13.1052 60.9378 12.4201 60.3978 11.8539ZM61.1538 16.4971C61.1538 17.2732 61.0341 18.0093 60.7984 18.6848C60.5638 19.3557 60.2196 19.9494 59.7743 20.449C59.3301 20.9473 58.7832 21.3497 58.1495 21.6448C57.5175 21.9396 56.7908 22.0889 55.99 22.0889C55.1899 22.0889 54.4673 21.9396 53.8438 21.6455C53.2176 21.3501 52.675 20.9477 52.2307 20.4483C51.7853 19.9501 51.4412 19.3564 51.2066 18.6848C50.9709 18.0093 50.8512 17.2732 50.8512 16.4971C50.8512 15.7381 50.9709 15.0113 51.2066 14.3357C51.4412 13.6636 51.7853 13.0705 52.2307 12.5712C52.675 12.0729 53.217 11.6747 53.8417 11.3882C54.4669 11.1022 55.1892 10.957 55.99 10.957C56.7908 10.957 57.518 11.1022 58.1517 11.3887C58.7842 11.6753 59.3301 12.0733 59.7743 12.5712C60.2196 13.0705 60.5638 13.6642 60.7984 14.3357C61.0341 15.0107 61.1538 15.7381 61.1538 16.4971Z" fill="#6EC739"/>
<path d="M46.8269 20.8131C46.4115 21.2353 45.9162 21.5563 45.3544 21.7676C44.7865 21.9806 44.2 22.089 43.6095 22.089C42.8478 22.089 42.1559 21.9399 41.5534 21.646C40.948 21.3513 40.4258 20.9491 40.0003 20.4515C39.5737 19.9522 39.2392 19.3577 39.0061 18.6846C38.772 18.0092 38.6531 17.2905 38.6531 16.5486C38.6531 15.8065 38.772 15.0877 39.0061 14.4125C39.2399 13.7388 39.575 13.1392 40.002 12.6315C40.4275 12.1253 40.9503 11.7143 41.5555 11.4113C42.158 11.1094 42.8488 10.9565 43.6095 10.9565C44.1952 10.9565 44.7659 11.0806 45.3056 11.3245C45.8457 11.5684 46.3227 11.9155 46.7243 12.355L46.8585 12.5024L47.5737 11.8356L47.4284 11.6768C46.957 11.1609 46.3808 10.7561 45.7169 10.4721C45.0542 10.1886 44.3453 10.0455 43.6095 10.0455C42.7584 10.0455 41.9655 10.2109 41.2536 10.5382C40.5438 10.8645 39.9163 11.3207 39.3894 11.8949C38.8614 12.4699 38.4458 13.1631 38.154 13.9556C37.8629 14.7464 37.7148 15.6185 37.7148 16.5486C37.7148 17.4781 37.8629 18.3508 38.154 19.1416C38.4464 19.9351 38.8624 20.6244 39.3904 21.1904C39.9173 21.7561 40.5454 22.2039 41.2557 22.5209C41.9668 22.8391 42.759 23 43.6095 23C44.3092 23 45.0065 22.8797 45.681 22.6424C46.3644 22.4023 46.9679 22.0093 47.4748 21.4737L47.6212 21.3193L46.9648 20.6727L46.8269 20.8131Z" fill="#6EC739"/>
<path d="M35.4278 22.9962C35.3763 22.6737 35.2434 21.6599 35.201 21.1658C35.1585 20.6714 35.1364 20.1978 35.1364 19.7584V14.5712C35.1364 13.0264 34.713 11.8718 33.8777 11.1395C33.049 10.4137 31.9079 10.0455 30.4854 10.0455C29.7865 10.0455 29.0637 10.1749 28.3385 10.4304C27.6118 10.6864 26.9524 11.0674 26.378 11.5622L26.2326 11.6872L26.7968 12.4748L26.9778 12.3151C27.4448 11.9047 27.9821 11.5719 28.5746 11.3252C29.1621 11.081 29.8051 10.9571 30.4854 10.9571C31.5739 10.9571 32.4653 11.2461 33.135 11.8166C33.7955 12.38 34.1307 13.2981 34.1307 14.5458V15.2842H32.2595C31.6283 15.2842 30.9218 15.3279 30.1606 15.414C29.3852 15.5017 28.6494 15.6933 27.9731 15.9817C27.2852 16.2762 26.7011 16.6974 26.2381 17.2338C25.7627 17.7842 25.5215 18.5128 25.5215 19.399C25.5215 20.0139 25.6488 20.5573 25.8996 21.0142C26.1487 21.4688 26.4815 21.8466 26.8885 22.1378C27.2887 22.4247 27.746 22.6429 28.247 22.7862C28.7427 22.9281 29.2505 23 29.7553 23C30.7651 23 31.7255 22.7255 32.6093 22.1849C33.2787 21.7741 33.8045 21.1949 34.1781 20.4566C34.1883 20.6516 34.2032 20.8501 34.2228 21.0499C34.2489 21.3133 34.2699 21.5683 34.2874 21.814C34.3049 22.0711 34.4115 22.8177 34.4481 22.9962H35.4278ZM34.1307 17.1136C34.1307 17.677 34.0621 18.2623 33.9268 18.8518C33.7943 19.4299 33.5555 19.9667 33.2164 20.4469C32.8803 20.9232 32.4264 21.3205 31.8666 21.628C31.3114 21.9337 30.6003 22.0891 29.7553 22.0891C29.4099 22.0891 29.0376 22.0392 28.6483 21.9413C28.2651 21.8449 27.9095 21.6908 27.5925 21.4823C27.283 21.2793 27.0243 21.0048 26.8251 20.6665C26.6276 20.3331 26.5279 19.9066 26.5279 19.399C26.5279 18.7013 26.7079 18.143 27.0623 17.7394C27.4289 17.3227 27.9056 16.9966 28.4789 16.771C29.0677 16.5393 29.7241 16.3845 30.4305 16.3099C31.1494 16.234 31.8433 16.1957 32.4943 16.1957H34.1307V17.1136Z" fill="#6EC739"/>
<path d="M20.6796 15.3713L1.3161 15.373C-0.391428 15.2376 -0.335825 6.77718 9.57138 6.05107C9.66632 6.00653 9.68643 5.99661 9.74127 5.81327C9.83333 5.47421 9.88563 5.14422 9.89484 4.83173C9.90528 4.44903 9.85475 4.10867 9.74258 3.79035C9.64131 3.50853 9.488 3.23929 9.28756 2.99948C9.59312 3.00078 9.89484 3.06256 10.1871 3.18483C10.5633 3.33731 10.9441 3.60046 11.2869 3.94815C11.6054 4.26699 11.8992 4.65798 12.1622 5.1085C12.2876 5.32503 12.4011 5.54357 12.5083 5.77962C12.5593 5.8936 12.6082 6.01237 12.6552 6.13671C22.3254 6.98606 22.3732 15.2363 20.6796 15.3713Z" fill="#6EC739"/>
<path d="M20.2227 16.264C20.2227 16.264 21.7537 25.9575 12.3773 27.7882C11.9521 28.1572 11.2464 29.0033 10.9891 29C10.732 29.0033 10.0255 28.1572 9.59984 27.7882C0.171055 26.1441 1.75438 16.264 1.75438 16.264H20.2227Z" fill="#6EC739"/>
</svg>
