<svg width="95" height="32" viewBox="0 0 95 32" fill="none" xmlns="http://www.w3.org/2000/svg">
<path d="M94.0432 17.9416C93.8536 17.5546 93.5948 17.2275 93.2733 16.9689C92.9618 16.7187 92.5985 16.506 92.1924 16.3366C91.7962 16.1714 91.3832 16.0257 90.9616 15.9035C90.5247 15.7855 90.1186 15.661 89.7538 15.5332C89.4024 15.4104 89.1004 15.2581 88.8565 15.0811C88.6246 14.9132 88.441 14.688 88.3111 14.4125C88.1807 14.1359 88.1145 13.7532 88.1145 13.2742C88.1145 12.8512 88.1941 12.4892 88.3519 12.1978C88.5121 11.9007 88.7172 11.6588 88.961 11.4795C89.2094 11.2966 89.4875 11.1634 89.7866 11.0832C90.0937 11.0015 90.3883 10.9603 90.6635 10.9603C91.2592 10.9603 91.7728 11.0783 92.1894 11.3118C92.6069 11.545 92.9871 11.9104 93.3211 12.3976L93.4231 12.5465L94.1855 12.0527L94.0666 11.8633C93.3101 10.6573 92.1655 10.0455 90.6635 10.0455C90.248 10.0455 89.8304 10.1132 89.4238 10.2475C89.0133 10.3828 88.6415 10.5841 88.3175 10.8468C87.9891 11.113 87.7223 11.4535 87.5257 11.858C87.3267 12.2661 87.2261 12.7512 87.2261 13.3002C87.2261 13.8457 87.3063 14.3103 87.463 14.68C87.6203 15.0502 87.8388 15.3653 88.113 15.617C88.3817 15.8629 88.6977 16.0652 89.0516 16.218C89.3935 16.3662 89.7638 16.5028 90.1549 16.625C90.5063 16.728 90.885 16.8433 91.2906 16.972C91.6818 17.096 92.0441 17.259 92.3675 17.4565C92.6786 17.6466 92.9404 17.9037 93.1449 18.2199C93.343 18.5252 93.443 18.9344 93.443 19.4358C93.443 19.8613 93.3619 20.2434 93.2016 20.5716C93.0384 20.9044 92.8239 21.1854 92.5626 21.4062C92.2979 21.6308 91.9998 21.8018 91.6773 21.9139C91.3523 22.0271 91.0268 22.0846 90.7093 22.0846C89.3193 22.0846 88.2852 21.5238 87.5496 20.3696L87.4421 20.2013L86.7111 20.7469L86.8235 20.9249C87.2555 21.6054 87.8109 22.1273 88.4753 22.4764C89.1347 22.8234 89.8787 23 90.6864 23C91.1811 23 91.6509 22.9177 92.0829 22.7568C92.5183 22.5944 92.907 22.3557 93.238 22.0482C93.5719 21.7376 93.8406 21.3542 94.0357 20.9082C94.2318 20.4595 94.3313 19.9467 94.3313 19.3842C94.3313 18.8185 94.2343 18.3336 94.0432 17.9416Z" fill="#6EC739"/>
<path d="M82.7482 11.7353C82.4124 11.2279 81.9564 10.8153 81.3934 10.5078C80.8288 10.201 80.1202 10.0455 79.2865 10.0455C78.7643 10.0455 78.2529 10.1267 77.766 10.2874C77.2785 10.4478 76.8198 10.6876 76.4008 11.0006C75.9846 11.3123 75.6069 11.6951 75.2781 12.138C75.1205 12.351 74.9792 12.5798 74.8564 12.8224C74.8499 12.5853 74.8428 12.3417 74.8357 12.0904C74.827 11.7912 74.8189 11.5122 74.8107 11.255C74.802 10.9951 74.789 10.7743 74.7722 10.5977L74.7271 10.0461H73.7565L73.8054 10.639C73.8217 10.809 73.8385 11.0211 73.8554 11.2755C73.8717 11.5312 73.8842 11.7992 73.8923 12.0796L73.9179 12.9167C73.926 13.1889 73.9298 13.4186 73.9298 13.6054V23H74.8988V16.5408C74.8988 15.6585 75.0173 14.8631 75.2515 14.177C75.4841 13.4932 75.8009 12.9047 76.1933 12.4288C76.5818 11.9572 77.0475 11.5907 77.5785 11.3384C78.1094 11.0873 78.6838 10.9594 79.2865 10.9594C79.9626 10.9594 80.525 11.1002 80.9587 11.3775C81.3989 11.66 81.7532 12.0147 82.0108 12.4316C82.2716 12.8528 82.4521 13.3304 82.5472 13.85C82.645 14.3849 82.6944 14.8912 82.6944 15.3569V23H83.6628V15.3049C83.6628 14.6747 83.5938 14.044 83.4569 13.4294C83.3177 12.8057 83.0792 12.2362 82.7482 11.7353Z" fill="#6EC739"/>
<path d="M70.296 10.0455H70.0811C69.2309 10.0455 68.4293 10.3319 67.6984 10.8966C67.1669 11.3071 66.7376 11.9103 66.4164 12.6964C66.4112 12.4994 66.4055 12.2984 66.4003 12.0929C66.3921 11.7927 66.3843 11.5129 66.3761 11.2551C66.3683 10.9958 66.3559 10.7744 66.3399 10.5978L66.297 10.0455H65.3745L65.421 10.639C65.4365 10.8091 65.4525 11.0218 65.468 11.2763C65.4835 11.5313 65.4954 11.7993 65.5036 12.0798L65.5274 12.9169C65.5352 13.1893 65.5393 13.4187 65.5393 13.6055V23H66.4597V16.3355C66.4597 15.7025 66.5341 15.0566 66.6808 14.4159C66.8265 13.7804 67.0548 13.1952 67.36 12.6764C67.6612 12.1648 68.0501 11.7451 68.516 11.4289C68.9747 11.1176 69.5414 10.9594 70.2004 10.9594H70.3322C70.3704 10.9594 70.4148 10.966 70.4634 10.9791L70.7087 11.044V10.109L70.5491 10.0754C70.4546 10.0553 70.3719 10.0455 70.296 10.0455Z" fill="#6EC739"/>
<path d="M60.6255 11.8539C60.0855 11.2886 59.4322 10.8407 58.6836 10.5233C57.9356 10.2063 57.1057 10.0455 56.2176 10.0455C55.3296 10.0455 54.5035 10.2063 53.7639 10.5237C53.0235 10.8411 52.3744 11.2886 51.8349 11.8539C51.2944 12.4205 50.8709 13.1058 50.5765 13.8906C50.2829 14.6733 50.1339 15.5502 50.1339 16.4971C50.1339 17.4439 50.2829 18.3251 50.5762 19.1158C50.8704 19.9099 51.2938 20.6032 51.8333 21.1779C52.3734 21.7521 53.0228 22.2045 53.7639 22.5223C54.5035 22.8392 55.3296 23 56.2176 23C57.1057 23 57.9356 22.8396 58.6836 22.5229C59.4327 22.2049 60.0866 21.7525 60.6266 21.1779C61.166 20.6038 61.589 19.9105 61.8842 19.1158C62.1774 18.3234 62.3264 17.4422 62.3264 16.4971C62.3264 15.552 62.1774 14.6749 61.8837 13.8906C61.5884 13.1052 61.1655 12.4201 60.6255 11.8539ZM61.3815 16.4971C61.3815 17.2732 61.2618 18.0093 61.0261 18.6848C60.7915 19.3557 60.4473 19.9494 60.002 20.449C59.5577 20.9473 59.0108 21.3497 58.3772 21.6448C57.7452 21.9396 57.0184 22.0889 56.2176 22.0889C55.4175 22.0889 54.6949 21.9396 54.0715 21.6455C53.4453 21.3501 52.9027 20.9477 52.4584 20.4483C52.013 19.9501 51.6689 19.3564 51.4343 18.6848C51.1986 18.0093 51.0789 17.2732 51.0789 16.4971C51.0789 15.7381 51.1986 15.0113 51.4343 14.3357C51.6689 13.6636 52.013 13.0705 52.4584 12.5712C52.9027 12.0729 53.4447 11.6747 54.0694 11.3882C54.6945 11.1022 55.4169 10.957 56.2176 10.957C57.0184 10.957 57.7457 11.1022 58.3793 11.3887C59.0119 11.6753 59.5577 12.0733 60.002 12.5712C60.4473 13.0705 60.7915 13.6642 61.0261 14.3357C61.2618 15.0107 61.3815 15.7381 61.3815 16.4971Z" fill="#6EC739"/>
<path d="M47.0536 20.8131C46.6382 21.2353 46.1429 21.5563 45.5811 21.7676C45.0132 21.9806 44.4267 22.089 43.8361 22.089C43.0745 22.089 42.3826 21.9399 41.7801 21.646C41.1747 21.3513 40.6525 20.9491 40.227 20.4515C39.8004 19.9522 39.4659 19.3577 39.2328 18.6846C38.9987 18.0092 38.8797 17.2905 38.8797 16.5486C38.8797 15.8065 38.9987 15.0877 39.2328 14.4125C39.4666 13.7388 39.8017 13.1392 40.2287 12.6315C40.6542 12.1253 41.177 11.7143 41.7822 11.4113C42.3846 11.1094 43.0755 10.9565 43.8361 10.9565C44.4219 10.9565 44.9926 11.0806 45.5323 11.3245C46.0724 11.5684 46.5494 11.9155 46.951 12.355L47.0852 12.5024L47.8004 11.8356L47.6551 11.6768C47.1837 11.1609 46.6074 10.7561 45.9436 10.4721C45.2808 10.1886 44.572 10.0455 43.8361 10.0455C42.985 10.0455 42.1922 10.2109 41.4803 10.5382C40.7704 10.8645 40.143 11.3207 39.616 11.8949C39.0881 12.4699 38.6724 13.1631 38.3807 13.9556C38.0896 14.7464 37.9415 15.6185 37.9415 16.5486C37.9415 17.4781 38.0896 18.3508 38.3807 19.1416C38.6731 19.9351 39.0891 20.6244 39.6171 21.1904C40.144 21.7561 40.7721 22.2039 41.4824 22.5209C42.1935 22.8391 42.9857 23 43.8361 23C44.5359 23 45.2332 22.8797 45.9077 22.6424C46.5911 22.4023 47.1946 22.0093 47.7015 21.4737L47.8479 21.3193L47.1915 20.6727L47.0536 20.8131Z" fill="#6EC739"/>
<path d="M35.655 22.9962C35.6035 22.6737 35.4706 21.6599 35.4282 21.1658C35.3857 20.6714 35.3636 20.1978 35.3636 19.7584V14.5712C35.3636 13.0264 34.9402 11.8718 34.1049 11.1395C33.2762 10.4137 32.1351 10.0455 30.7125 10.0455C30.0137 10.0455 29.2909 10.1749 28.5657 10.4304C27.8389 10.6864 27.1796 11.0674 26.6052 11.5622L26.4597 11.6872L27.0239 12.4748L27.205 12.3151C27.672 11.9047 28.2093 11.5719 28.8018 11.3252C29.3893 11.081 30.0322 10.9571 30.7125 10.9571C31.801 10.9571 32.6925 11.2461 33.3622 11.8166C34.0226 12.38 34.3578 13.2981 34.3578 14.5458V15.2842H32.4866C31.8554 15.2842 31.149 15.3279 30.3878 15.414C29.6124 15.5017 28.8766 15.6933 28.2002 15.9817C27.5124 16.2762 26.9282 16.6974 26.4652 17.2338C25.9899 17.7842 25.7487 18.5128 25.7487 19.399C25.7487 20.0139 25.876 20.5573 26.1268 21.0142C26.3759 21.4688 26.7087 21.8466 27.1157 22.1378C27.5159 22.4247 27.9731 22.6429 28.4741 22.7862C28.9698 22.9281 29.4777 23 29.9825 23C30.9923 23 31.9527 22.7255 32.8364 22.1849C33.5059 21.7741 34.0317 21.1949 34.4053 20.4566C34.4155 20.6516 34.4303 20.8501 34.45 21.0499C34.4761 21.3133 34.4971 21.5683 34.5146 21.814C34.532 22.0711 34.6386 22.8177 34.6753 22.9962H35.655ZM34.3578 17.1136C34.3578 17.677 34.2893 18.2623 34.1539 18.8518C34.0215 19.4299 33.7827 19.9667 33.4435 20.4469C33.1075 20.9232 32.6536 21.3205 32.0938 21.628C31.5386 21.9337 30.8275 22.0891 29.9825 22.0891C29.6371 22.0891 29.2648 22.0392 28.8754 21.9413C28.4923 21.8449 28.1367 21.6908 27.8197 21.4823C27.5101 21.2793 27.2515 21.0048 27.0522 20.6665C26.8548 20.3331 26.7551 19.9066 26.7551 19.399C26.7551 18.7013 26.9351 18.143 27.2895 17.7394C27.6561 17.3227 28.1328 16.9966 28.7061 16.771C29.2948 16.5393 29.9513 16.3845 30.6577 16.3099C31.3765 16.234 32.0705 16.1957 32.7214 16.1957H34.3578V17.1136Z" fill="#6EC739"/>
<path d="M20.9068 15.3718L1.54328 15.3736C-0.164255 15.2381 -0.108652 6.7777 9.79855 6.05159C9.89349 6.00705 9.9136 5.99713 9.96844 5.81379C10.0605 5.47473 10.1128 5.14474 10.122 4.83225C10.1325 4.44955 10.0819 4.10919 9.96975 3.79087C9.86848 3.50905 9.71518 3.23981 9.51473 3C9.8203 3.0013 10.122 3.06308 10.4143 3.18535C10.7905 3.33783 11.1712 3.60098 11.514 3.94867C11.8326 4.26751 12.1264 4.6585 12.3893 5.10901C12.5148 5.32555 12.6283 5.54409 12.7354 5.78014C12.7864 5.89412 12.8354 6.01289 12.8823 6.13723C22.5526 6.98658 22.6003 15.2368 20.9068 15.3718Z" fill="#6EC739"/>
<path d="M20.4505 16.264C20.4505 16.264 21.9815 25.9575 12.6051 27.7882C12.1799 28.1572 11.4742 29.0033 11.2168 29C10.9598 29.0033 10.2533 28.1572 9.82762 27.7882C0.398838 26.1441 1.98216 16.264 1.98216 16.264H20.4505Z" fill="#6EC739"/>
</svg>
