<svg width="38" height="32" viewBox="0 0 38 32" fill="none" xmlns="http://www.w3.org/2000/svg">
<g clip-path="url(#clip0_239_16473)">
<path d="M17.1437 22.32C17.1437 24.96 16.1858 27.04 14.3499 28.16C14.3499 28.16 17.1437 31.76 17.3034 32C17.7025 31.84 18.1016 31.52 18.5806 31.12C20.4165 29.44 21.9332 26.48 21.9332 23.36V6.23999H17.0639L17.1437 22.32Z" fill="#CC0033"/>
<path d="M11.1569 16.4C13.2323 15.6 14.1104 13.52 14.1104 11.6C14.1104 7.59999 11.4762 6.23999 8.44285 6.23999H0.699829V28.08H8.20337C12.5139 28.08 14.749 25.36 14.749 21.36C14.8288 18.72 12.9929 16.96 11.1569 16.4ZM5.56915 10.56H7.24547C8.52267 10.56 9.16127 11.52 9.16127 12.64C9.16127 13.76 8.68232 14.72 7.3253 14.72H5.56915V10.56ZM7.24547 23.68H5.56915V18.8H7.16565C8.84197 18.8 9.16127 20.16 9.16127 21.28C9.2411 22.64 8.6025 23.68 7.24547 23.68Z" fill="#CC0033"/>
<path d="M25.2859 13.52C25.2859 13.52 27.521 10.08 30.8736 6.4C31.7517 5.36 32.6298 4.48 33.428 3.6C35.5035 1.52 37.1798 0 37.1798 0C37.1798 0 34.3061 1.6 31.6719 3.6C31.592 3.68 31.4324 3.76 31.3526 3.84C28.3192 6.16 26.2438 8.16 26.2438 8.16L23.9288 5.76L25.3657 13.36L25.2859 13.52Z" fill="#CC0033"/>
<path d="M29.4368 18.16C29.4368 17.52 30.1552 17.28 30.9535 17.28C31.9912 17.36 32.8693 17.92 33.907 18.48L35.3439 15.12C33.907 14.32 32.55 13.76 30.3149 13.76C27.1219 13.76 25.0464 15.84 25.0464 18.64C25.0464 23.28 31.2728 21.6 31.2728 24C31.2728 24.48 30.714 24.88 29.9956 24.88C28.7184 24.88 26.9622 23.92 25.9245 23.2L24.4078 26.72C26.2438 27.84 28.1596 28.4 29.9158 28.4C33.4281 28.4 35.9026 26.48 35.9026 23.44C35.8228 18.56 29.4368 20.4 29.4368 18.16Z" fill="#CC0033"/>
<path d="M33.7473 10.32C33.1087 10.32 32.6298 10.8 32.6298 11.44C32.6298 12.08 33.1087 12.56 33.7473 12.56C34.3859 12.56 34.8649 12.08 34.8649 11.44C34.8649 10.88 34.3859 10.32 33.7473 10.32ZM33.7473 12.48C33.2684 12.48 32.8692 12.08 32.8692 11.52C32.8692 10.96 33.2684 10.56 33.7473 10.56C34.2263 10.56 34.6254 10.96 34.6254 11.52C34.6254 12 34.2263 12.48 33.7473 12.48Z" fill="#CC0033"/>
<path d="M33.907 11.52C34.0667 11.44 34.1465 11.36 34.1465 11.2C34.1465 11.04 34.0667 10.96 34.0667 10.96C33.9869 10.88 33.8272 10.88 33.6676 10.88C33.5079 10.88 33.4281 10.88 33.3483 10.88V12.16H33.5877V11.6H33.7474C33.907 11.6 33.9869 11.68 33.9869 11.84C33.9869 12 34.0667 12.16 34.0667 12.16H34.2263C34.2263 12.08 34.1465 12.08 34.1465 11.84C34.1465 11.68 34.0667 11.52 33.907 11.52ZM33.6676 11.44H33.5079V11.04C33.5079 11.04 33.5877 11.04 33.6676 11.04C33.907 11.04 33.9869 11.12 33.9869 11.28C33.9869 11.36 33.8272 11.44 33.6676 11.44Z" fill="#CC0033"/>
</g>
<defs>
<clipPath id="clip0_239_16473">
<rect width="36.48" height="32" fill="white" transform="translate(0.699829)"/>
</clipPath>
</defs>
</svg>
