<svg width="37" height="32" viewBox="0 0 37 32" fill="none" xmlns="http://www.w3.org/2000/svg">
<g clip-path="url(#clip0_314_6340)">
<path d="M16.9169 22.3202C16.9169 24.9602 15.959 27.0402 14.123 28.1602C14.123 28.1602 16.9169 31.7602 17.0766 32.0002C17.4757 31.8402 17.8748 31.5202 18.3538 31.1202C20.1897 29.4402 21.7064 26.4802 21.7064 23.3602V6.24023H16.8371L16.9169 22.3202Z" fill="#CC0033"/>
<path d="M10.9297 16.4002C13.0052 15.6002 13.8832 13.5202 13.8832 11.6002C13.8832 7.60023 11.249 6.24023 8.21568 6.24023H0.472656V28.0802H7.9762C12.2867 28.0802 14.5218 25.3602 14.5218 21.3602C14.6017 18.7202 12.7657 16.9602 10.9297 16.4002ZM5.34198 10.5602H7.0183C8.2955 10.5602 8.9341 11.5202 8.9341 12.6402C8.9341 13.7602 8.45515 14.7202 7.09813 14.7202H5.34198V10.5602ZM7.0183 23.6802H5.34198V18.8002H6.93848C8.6148 18.8002 8.9341 20.1602 8.9341 21.2802C9.01393 22.6402 8.37533 23.6802 7.0183 23.6802Z" fill="#CC0033"/>
<path d="M25.0582 13.52C25.0582 13.52 27.2933 10.08 30.6459 6.4C31.524 5.36 32.4021 4.48 33.2003 3.6C35.2758 1.52 36.9521 0 36.9521 0C36.9521 0 34.0784 1.6 31.4442 3.6C31.3644 3.68 31.2047 3.76 31.1249 3.84C28.0915 6.16 26.0161 8.16 26.0161 8.16L23.7012 5.76L25.138 13.36L25.0582 13.52Z" fill="#CC0033"/>
<path d="M29.2087 18.1598C29.2087 17.5198 29.9271 17.2798 30.7253 17.2798C31.7631 17.3598 32.6411 17.9198 33.6789 18.4798L35.1157 15.1198C33.6789 14.3198 32.3218 13.7598 30.0867 13.7598C26.8937 13.7598 24.8183 15.8398 24.8183 18.6398C24.8183 23.2798 31.0446 21.5998 31.0446 23.9998C31.0446 24.4798 30.4859 24.8798 29.7674 24.8798C28.4902 24.8798 26.7341 23.9198 25.6964 23.1998L24.1797 26.7198C26.0157 27.8398 27.9315 28.3998 29.6876 28.3998C33.1999 28.3998 35.6745 26.4798 35.6745 23.4398C35.5947 18.5598 29.2087 20.3998 29.2087 18.1598Z" fill="#CC0033"/>
<path d="M33.5199 10.3203C32.8813 10.3203 32.4023 10.8003 32.4023 11.4403C32.4023 12.0803 32.8813 12.5603 33.5199 12.5603C34.1585 12.5603 34.6374 12.0803 34.6374 11.4403C34.6374 10.8803 34.1585 10.3203 33.5199 10.3203ZM33.5199 12.4803C33.0409 12.4803 32.6418 12.0803 32.6418 11.5203C32.6418 10.9603 33.0409 10.5603 33.5199 10.5603C33.9988 10.5603 34.398 10.9603 34.398 11.5203C34.398 12.0003 33.9988 12.4803 33.5199 12.4803Z" fill="#CC0033"/>
<path d="M33.6799 11.5209C33.8395 11.4409 33.9193 11.3609 33.9193 11.2009C33.9193 11.0409 33.8395 10.9609 33.8395 10.9609C33.7597 10.8809 33.6 10.8809 33.4404 10.8809C33.2807 10.8809 33.2009 10.8809 33.1211 10.8809V12.1609H33.3606V11.6009H33.5202C33.6799 11.6009 33.7597 11.6809 33.7597 11.8409C33.7597 12.0009 33.8395 12.1609 33.8395 12.1609H33.9992C33.9992 12.0809 33.9193 12.0809 33.9193 11.8409C33.9193 11.6809 33.8395 11.5209 33.6799 11.5209ZM33.4404 11.4409H33.2807V11.0409C33.2807 11.0409 33.3606 11.0409 33.4404 11.0409C33.6799 11.0409 33.7597 11.1209 33.7597 11.2809C33.7597 11.3609 33.6 11.4409 33.4404 11.4409Z" fill="#CC0033"/>
</g>
<defs>
<clipPath id="clip0_314_6340">
<rect width="36.48" height="32" fill="white" transform="translate(0.472656)"/>
</clipPath>
</defs>
</svg>
