<svg width="33" height="32" viewBox="0 0 33 32" fill="none" xmlns="http://www.w3.org/2000/svg">
<g clip-path="url(#clip0_314_6351)">
<path d="M9.5197 0.838857C10.3422 0.216686 11.3998 0.0131652 12.4108 0.00137088C19.033 0.00191945 25.6547 0.0003657 32.277 0.00191999C32.3991 -0.0136229 32.503 0.0667442 32.5464 0.177007V0.365532C30.2138 10.229 27.8808 20.0921 25.5466 29.9556C25.2832 30.9451 24.4344 31.7499 23.4475 32H0.980411L0.980946 31.9706L0.953125 31.9625V31.7719C1.15873 31.0062 1.3408 30.234 1.53466 29.465C3.75419 20.6162 5.97216 11.7675 8.18852 2.91813C8.40645 2.11227 8.84234 1.34382 9.5197 0.838857Z" fill="#586066"/>
<path d="M10.5762 0.558121C11.3323 0.281275 12.1484 0.256042 12.9452 0.261985C19.3945 0.260339 25.8443 0.264636 32.2936 0.259791C31.778 2.53718 31.2184 4.80498 30.6904 7.08018C28.896 14.654 27.106 22.2289 25.3142 29.8038C25.0481 30.9743 23.892 31.8701 22.6914 31.8349C15.5316 31.8349 8.37222 31.8359 1.21289 31.8343C3.58878 22.3381 5.97275 12.8436 8.35082 3.34797C8.48414 2.7632 8.68278 2.18006 9.04049 1.6922C9.41799 1.1664 9.96581 0.770144 10.5762 0.558121Z" fill="black"/>
<path d="M11.1008 1.60934C11.7224 1.30845 12.4266 1.23988 13.1093 1.23074C18.9745 1.23238 24.8401 1.22863 30.7058 1.23293C29.3857 6.93899 28.0658 12.6456 26.7501 18.3532C26.5782 19.4135 25.6278 20.2729 24.567 20.3837C24.3726 20.4009 24.1771 20.3919 23.9823 20.3939C17.7766 20.3945 11.5709 20.3923 5.36523 20.3945C6.71627 14.998 8.08763 9.60623 9.4456 4.21177C9.55753 3.77748 9.65767 3.3357 9.8542 2.92985C10.1085 2.36866 10.5406 1.87869 11.1008 1.60934Z" fill="#586066"/>
<path d="M11.3169 1.78542C11.8315 1.5723 12.3921 1.49367 12.9464 1.48663C18.7601 1.48453 24.5737 1.48993 30.3874 1.48453C29.1216 7.01011 27.8353 12.5309 26.5636 18.0549C26.5015 18.306 26.4661 18.5663 26.3585 18.8035C26.0265 19.5633 25.2447 20.1208 24.411 20.1444C18.1667 20.1422 11.9225 20.1476 5.67773 20.1416C7.01698 14.8468 8.35034 9.551 9.69009 4.25674C9.81005 3.76997 9.92784 3.27361 10.1763 2.83283C10.4242 2.36855 10.8301 1.98995 11.3169 1.78542Z" fill="black"/>
<path d="M20.2949 3.63968C20.9701 2.97783 21.6234 2.29138 22.3094 1.64078C22.7254 2.56878 23.1849 3.47685 23.6058 4.40274C24.4588 4.02414 25.3049 3.62633 26.1568 3.24343C25.9094 4.31863 25.6524 5.39173 25.405 6.46757C26.4037 6.85202 27.4018 7.23803 28.3973 7.63063C27.624 8.23735 26.8497 8.84187 26.077 9.44805C26.5252 10.5142 26.9396 11.5931 27.3814 12.6614C26.5295 12.7214 25.6764 12.7669 24.8245 12.8285C24.2457 14.5935 23.6411 16.3504 23.0714 18.1179C23.0001 18.0917 22.9471 18.0366 22.8925 17.9873C21.844 16.9892 20.7902 15.9969 19.7391 15.0015C19.2485 15.273 18.7559 15.5407 18.2697 15.8192C18.2938 15.4797 18.3763 15.1472 18.3956 14.8077C16.6296 15.8197 14.8667 16.8381 13.0997 17.8491C11.9409 18.526 10.7665 19.1771 9.61423 19.8652C9.74113 19.7104 9.9082 19.5985 10.0625 19.4738C11.7112 18.1431 13.3588 16.8109 15.0076 15.4801C15.5869 15.0025 16.1846 14.5458 16.7538 14.0569C13.3524 15.9219 9.94838 17.7817 6.54863 19.6499C6.42013 19.7153 6.30177 19.8133 6.15234 19.824C6.19845 19.7999 6.24552 19.7779 6.28945 19.75C9.20567 17.6392 12.1208 15.5268 15.0354 13.4138C15.2512 13.2553 15.4772 13.1101 15.6812 12.9367C12.6622 14.5442 9.64477 16.1554 6.62573 17.7624C6.66431 17.726 6.70391 17.6901 6.74459 17.6559C9.45841 15.6226 12.1626 13.5749 14.8796 11.545C13.7428 12.1147 12.6225 12.7187 11.4917 13.3013C10.0496 14.0596 8.5963 14.798 7.16066 15.5696C7.2817 15.4315 7.43645 15.3313 7.58209 15.2227C9.18156 14.0028 10.7832 12.7867 12.3822 11.5669C13.0574 11.0475 13.7434 10.5431 14.41 10.0134C12.1733 11.2205 9.91788 12.3931 7.68277 13.6023C7.68009 13.5958 7.6742 13.5841 7.67152 13.5781C9.92962 11.8245 12.1888 10.0713 14.4399 8.30848C13.9083 8.26944 13.3786 8.19986 12.8459 8.18432C12.8534 8.16713 12.8678 8.13285 12.8753 8.11575C13.4965 7.82281 14.101 7.49623 14.7205 7.20009C14.6885 7.16096 14.6504 7.12942 14.6071 7.10482C14.0047 6.74761 13.407 6.38299 12.8084 6.01993C13.8975 5.77518 14.9915 5.553 16.0802 5.3056C16.2569 4.21321 16.4186 3.11817 16.5857 2.02359C17.7632 2.56174 18.9492 3.08068 20.1267 3.61874C20.1776 3.63108 20.2493 3.69216 20.2949 3.63968Z" fill="#F9A01B"/>
<path d="M17.8125 4.62223C18.643 4.13492 19.6149 3.91696 20.5724 3.93305C21.3746 4.29446 22.121 4.80848 22.665 5.50781C21.6 5.37826 20.6061 4.93867 19.5544 4.74585C18.9815 4.63394 18.3957 4.59005 17.8125 4.62223Z" fill="#B64B2A"/>
<path d="M22.0156 4.21746C22.1125 4.22331 22.2111 4.23455 22.3011 4.27414C22.8804 4.50125 23.4357 4.81019 23.8973 5.23058C23.7238 5.38747 23.5016 5.46619 23.2761 5.51172C22.9146 5.02651 22.4954 4.58692 22.0156 4.21746Z" fill="#B64B2A"/>
<path d="M16.9924 5.46061C18.0612 5.06811 19.2612 5.02203 20.3504 5.36315C21.2173 5.61156 22.0859 5.9034 22.9946 5.94198C23.1783 6.23053 23.3523 6.52722 23.4845 6.84374C23.258 6.82171 23.0304 6.81375 22.8029 6.81695C21.477 6.8303 20.1453 6.97649 18.8681 7.34596C17.4861 7.7487 16.1442 8.39336 15.0973 9.39844C15.0213 8.07053 15.5343 6.73549 16.4076 5.74011C16.4612 5.69558 16.4949 5.62545 16.5608 5.59711C16.7139 5.58587 16.8505 5.513 16.9924 5.46061Z" fill="#B64B2A"/>
<path d="M24.2278 5.54033L24.2358 5.53384C24.6546 5.96868 24.9999 6.47153 25.2613 7.01562C24.8467 6.93316 24.4242 6.90902 24.005 6.86349C23.8663 6.53151 23.7137 6.20429 23.5215 5.9002C23.7768 5.82523 24.0291 5.72292 24.2278 5.54033Z" fill="#B64B2A"/>
<path d="M17.4299 8.52699C19.001 7.70715 20.7772 7.33878 22.5378 7.26436C22.9111 7.24671 23.2859 7.23062 23.6586 7.26911C23.7587 7.60548 23.8541 7.94441 23.9114 8.29138C23.431 8.31871 22.9528 8.42953 22.5191 8.64C21.7598 8.99556 21.1327 9.5647 20.5143 10.1184C19.9396 10.6383 19.3421 11.138 18.6813 11.5455C17.9402 12.0205 17.1246 12.3728 16.2813 12.6213L16.2674 12.625C15.7351 11.9792 15.3662 11.1995 15.1953 10.3803C15.2896 10.2908 15.3731 10.1918 15.4513 10.0884C15.9878 9.43085 16.6834 8.92169 17.4299 8.52699Z" fill="#B64B2A"/>
<path d="M24.1523 7.28517C24.578 7.31087 25.0033 7.35804 25.4257 7.41747C25.5735 7.84216 25.7042 8.28385 25.7106 8.73633C25.3165 8.47987 24.8603 8.32133 24.3885 8.30204C24.337 7.95727 24.2546 7.61825 24.1523 7.28517Z" fill="#B64B2A"/>
<path d="M22.5208 9.12189C22.9583 8.87339 23.4515 8.73149 23.9527 8.69675C24.0651 9.66379 23.9077 10.655 23.5602 11.561C23.0601 12.8317 22.1203 13.9481 20.893 14.5661C20.8619 14.5741 20.8003 14.5912 20.7699 14.5993C19.3385 14.7064 17.8729 14.1939 16.8223 13.2177C17.2742 13.0983 17.6844 12.8482 18.0865 12.6137C19.1977 11.9605 20.1342 11.0657 21.0879 10.2094C21.5388 9.81428 21.9929 9.41263 22.5208 9.12189Z" fill="#B64B2A"/>
<path d="M24.4375 8.72192C24.928 8.76316 25.3938 8.98752 25.7414 9.33504C25.7393 9.14011 25.7344 8.94473 25.7318 8.7498C25.8474 9.08663 25.735 9.43845 25.7269 9.78112C25.6214 11.1107 24.9558 12.3637 23.9802 13.2612C23.5224 13.6687 22.9933 13.9948 22.4284 14.232C22.3657 14.2572 22.3004 14.2695 22.2324 14.2695C22.8449 13.7367 23.3494 13.0813 23.72 12.36C24.2999 11.2462 24.5296 9.97065 24.4375 8.72192Z" fill="#B64B2A"/>
<path d="M5.17504 21.3554C5.26658 21.3505 5.35869 21.3484 5.4503 21.3451C5.73676 21.3569 6.02326 21.3516 6.30969 21.3404C6.42216 21.3784 6.46287 21.5069 6.53515 21.5915C6.45322 21.834 6.43072 22.0943 6.3333 22.3315C6.04251 22.4082 5.75711 22.5055 5.47329 22.6046C5.44655 22.7438 5.41708 22.8831 5.36837 23.017C5.42137 23.0871 5.4744 23.1571 5.52526 23.229C5.30997 23.2435 5.09418 23.2375 4.87891 23.2343C5.03901 22.7144 5.13808 22.1768 5.28376 21.652C5.33836 21.5342 5.17987 21.4683 5.17504 21.3554Z" fill="white"/>
<path d="M8.45988 21.3815C8.65049 21.2818 8.87163 21.3793 9.07459 21.3332C9.04674 21.601 8.94552 21.8548 8.9011 22.1204C9.02374 22.0878 9.14688 22.0567 9.27324 22.0438C9.37284 21.8243 9.38249 21.577 9.46442 21.3536C9.60202 21.3477 9.74016 21.3504 9.87727 21.3343C9.77874 21.879 9.62453 22.4144 9.49706 22.9536C9.44727 23.0457 9.54102 23.1062 9.59506 23.1641C9.59938 23.1817 9.60795 23.2166 9.6122 23.2336C9.40499 23.2374 9.19831 23.2369 8.99159 23.2342C9.06867 22.9606 9.14046 22.6848 9.18809 22.4048C9.0596 22.4363 8.93109 22.4674 8.80255 22.4985C8.79774 22.5317 8.78756 22.597 8.78224 22.6302C8.71956 22.8289 8.67674 23.0329 8.62852 23.2353C8.48234 23.2363 8.33559 23.2363 8.18945 23.2347C8.33559 22.6779 8.47538 22.1189 8.60227 21.5576C8.5541 21.4993 8.50645 21.4403 8.45988 21.3815Z" fill="white"/>
<path d="M11.9159 21.5696C12.0101 21.4968 12.1033 21.4234 12.1965 21.3495C12.4315 21.3447 12.6667 21.3538 12.9012 21.3415C13.0222 21.3489 13.065 21.4908 13.1454 21.5621C13.0377 22.0348 12.9199 22.5061 12.8043 22.9768C12.7363 23.0866 12.6088 23.1493 12.5134 23.2349C12.2517 23.2349 11.9897 23.2397 11.7279 23.2316C11.6739 23.1535 11.6176 23.0775 11.5625 23.0009C11.6851 22.5249 11.7959 22.0461 11.9159 21.5696Z" fill="white"/>
<path d="M15.141 21.3476C15.5452 21.3439 15.9522 21.3611 16.3575 21.3353C16.3254 21.5099 16.2837 21.6829 16.2263 21.851C16.177 21.8061 16.1358 21.7541 16.1075 21.6953C15.9447 21.6711 15.7792 21.6728 15.6164 21.6947C15.5929 21.8404 15.5554 21.9839 15.5227 22.1279C15.6561 22.1289 15.7894 22.1289 15.9232 22.1284C15.8975 22.2372 15.8713 22.3453 15.8488 22.455C15.7134 22.4556 15.5774 22.4556 15.4419 22.455C15.4027 22.613 15.3578 22.7694 15.3241 22.9284C15.4831 22.9284 15.6426 22.9279 15.8017 22.9284C15.8751 22.8625 15.9425 22.7849 16.0378 22.7512C16.0234 22.9166 15.9678 23.0747 15.9324 23.2363C15.5607 23.2347 15.1886 23.2385 14.8164 23.2342C14.9685 22.6784 15.0959 22.1161 15.2282 21.5555C15.1821 21.5003 15.1361 21.4457 15.0906 21.3911L15.141 21.3476Z" fill="white"/>
<path d="M18.4407 21.3466C18.769 21.3552 19.0977 21.3439 19.426 21.3515C19.5186 21.3868 19.5593 21.4955 19.6279 21.5635C19.5331 22.0272 19.403 22.4829 19.2997 22.9446C19.2498 23.0419 19.3323 23.1067 19.3971 23.1646C19.3977 23.1823 19.3998 23.2176 19.4008 23.2353C19.1984 23.2363 18.9966 23.2374 18.7947 23.2342C18.9312 22.7201 19.0441 22.1991 19.1851 21.6861C19.049 21.6786 18.9125 21.6776 18.7764 21.6861C18.6721 22.205 18.513 22.7127 18.4161 23.2331C18.2683 23.2369 18.1205 23.2363 17.9727 23.2342C18.1435 22.6087 18.2753 21.9731 18.4407 21.3466Z" fill="white"/>
<path d="M21.627 21.3521C21.831 21.3506 22.035 21.3538 22.2385 21.3361C22.102 21.8962 21.9755 22.4596 21.8208 23.0154C21.8711 23.0861 21.9236 23.1557 21.9708 23.2296C21.7587 23.243 21.5461 23.2381 21.334 23.2333C21.4389 22.9479 21.4824 22.6427 21.56 22.3487C21.6184 22.1206 21.6725 21.8909 21.7324 21.6628C21.7946 21.5364 21.6361 21.469 21.627 21.3521Z" fill="white"/>
<path d="M24.1616 21.3678C24.3709 21.333 24.5847 21.355 24.7961 21.3533C24.8331 21.544 24.8872 21.7314 24.9369 21.9194C25.0734 21.7373 25.2063 21.5526 25.344 21.3721C25.4735 21.2956 25.6368 21.37 25.7798 21.3539C25.5265 21.6746 25.2786 21.9992 25.0274 22.321C25.1067 22.5544 25.1747 22.7917 25.2496 23.0268C25.3155 23.1092 25.4387 23.1295 25.4863 23.2307C25.2802 23.2414 25.0741 23.2361 24.8674 23.2361C24.8261 23.0551 24.7693 22.8774 24.7362 22.6947C24.5986 22.8736 24.4652 23.0561 24.3302 23.2377C24.1836 23.2339 24.0357 23.2478 23.8906 23.2233C24.1546 22.9507 24.364 22.6304 24.6018 22.3359C24.59 22.1089 24.4807 21.8969 24.4389 21.6731C24.4245 21.5173 24.2483 21.4755 24.1616 21.3678Z" fill="white"/>
<path d="M12.3178 21.6807C12.4426 21.6812 12.5668 21.6817 12.6916 21.6817C12.5866 22.0989 12.4924 22.5186 12.3799 22.9336C12.2557 22.9293 12.1315 22.9283 12.0078 22.9293C12.1175 22.5149 12.2054 22.0946 12.3178 21.6807Z" fill="black"/>
<path d="M5.70319 21.6896C5.82852 21.6896 5.95433 21.6896 6.07965 21.6901C6.03733 21.832 6.01273 21.9788 5.95755 22.1169C5.83012 22.1421 5.70747 22.1855 5.58594 22.2305C5.60362 22.0467 5.66358 21.8695 5.70319 21.6896Z" fill="black"/>
<path d="M4.3418 24.7519C4.64652 24.5019 4.93833 24.2255 5.2682 24.0124C6.33162 24.0087 7.39562 24.0146 8.45909 24.0098C8.65295 24.2529 8.83019 24.5088 9.0069 24.7642C8.84248 25.2547 8.74987 25.7693 8.61437 26.2695C8.1223 26.081 7.64677 25.8454 7.16966 25.6205C7.45937 25.5476 7.74369 25.4544 8.02805 25.3623C8.07195 25.2006 8.11373 25.0384 8.15387 24.8761C8.05644 24.7354 7.9547 24.5977 7.84759 24.4644C7.15519 24.4622 6.46226 24.4666 5.76941 24.4622C5.49362 24.4296 5.35387 24.7294 5.11987 24.8152C4.85909 24.8152 4.60312 24.7481 4.3418 24.7519Z" fill="white"/>
<path d="M9.44419 24.0455C10.1296 24.0445 10.8151 24.0439 11.4999 24.0461C11.0496 25.8207 10.6121 27.5996 10.1542 29.3725C10.1398 29.4197 10.1259 29.4668 10.1114 29.5144C10.6046 29.5422 11.1015 29.4817 11.592 29.5369C11.811 29.6536 12.0091 29.8057 12.2185 29.9385C11.3607 29.9433 10.5017 29.9471 9.64394 29.9369C9.51222 29.8288 9.42865 29.6745 9.3253 29.5407C9.74355 27.8485 10.1859 26.1623 10.5939 24.468C10.1714 24.3668 9.75423 24.2416 9.32422 24.1735C9.3644 24.1307 9.40405 24.0879 9.44419 24.0455Z" fill="white"/>
<path d="M12.9203 24.0525L12.9252 24.0541C13.1693 24.1815 13.4071 24.3212 13.639 24.4696C13.1789 26.294 12.7115 28.1167 12.2553 29.9416C12.4512 30.0718 12.6542 30.1901 12.8459 30.3277C11.5479 30.3358 10.2499 30.3273 8.95188 30.332C8.79716 30.1056 8.62523 29.8919 8.47852 29.6606C8.90263 28.014 9.31066 26.3626 9.72887 24.7139C9.59606 24.5328 9.46274 24.3518 9.32562 24.174C9.75563 24.2421 10.1728 24.3673 10.5953 24.4685C10.1873 26.1628 9.74495 27.849 9.3267 29.5412C9.43005 29.675 9.51362 29.8293 9.64534 29.9374C10.5031 29.9476 11.3621 29.9438 12.2199 29.939C12.0105 29.8062 11.8124 29.6541 11.5934 29.5374C11.1029 29.4822 10.606 29.5427 10.1128 29.5149C10.1273 29.4673 10.1412 29.4201 10.1556 29.373C10.1508 29.4025 10.1417 29.4624 10.1374 29.4919C10.6124 29.4779 11.0906 29.5192 11.5644 29.4747C12.0004 27.6637 12.4786 25.8619 12.9203 24.0525Z" fill="#B1B2B2"/>
<path d="M12.9245 24.0533C13.4658 24.0335 14.0077 24.0495 14.5491 24.0452C14.0291 26.1588 13.4792 28.2653 12.9603 30.3789C11.7067 30.3655 10.4527 30.3756 9.19914 30.374C9.11824 30.3623 9.0122 30.4003 8.95117 30.3312C10.2492 30.3264 11.5472 30.3349 12.8452 30.3269C12.6535 30.1893 12.4505 30.071 12.2546 29.9408C12.7108 28.1159 13.1782 26.2932 13.6383 24.4688C13.4064 24.3204 13.1686 24.1807 12.9245 24.0533Z" fill="white"/>
<path d="M15.2174 24.2972C15.2437 24.195 15.256 24.0852 15.3224 24C15.528 24.1816 15.7674 24.3229 16.0062 24.4567C16.8727 24.4787 17.7412 24.4504 18.6081 24.4696C18.7441 24.5751 18.8239 24.7379 18.9305 24.8718C18.5048 26.5602 18.0727 28.2469 17.6582 29.938C18.0689 30.0348 18.4753 30.1532 18.8924 30.2218C18.9021 30.2261 18.922 30.2346 18.9321 30.2389C18.8673 30.2844 18.817 30.3776 18.7269 30.3706C18.0635 30.3679 17.3995 30.3754 16.7361 30.3669C17.2036 28.5521 17.6453 26.731 18.1171 24.9178C17.6763 24.9168 17.2356 24.9184 16.795 24.9162C16.7505 24.9124 16.7109 24.9242 16.6756 24.9521C16.4748 24.7658 16.2296 24.6383 16.0019 24.4895C15.5297 26.3037 15.0804 28.1243 14.6156 29.9406C14.8501 30.0809 15.0857 30.2196 15.3149 30.3684C14.7757 30.3722 14.2364 30.37 13.6973 30.37C14.1807 28.3406 14.7162 26.323 15.2174 24.2972Z" fill="#B1B2B2"/>
<path d="M15.3223 24.0008C15.371 24.0106 15.469 24.0304 15.5183 24.0405C15.718 23.9929 15.9595 23.9946 16.1603 24.04C16.2385 23.9881 16.3391 24.0197 16.427 24.0115C16.842 24.0175 17.2581 24.0036 17.6731 24.0175L17.7132 24.0394C17.8626 23.9784 18.036 24.0266 18.1957 24.0127C18.3365 24.025 18.4923 23.9794 18.6235 24.04C18.8222 23.9746 19.0465 24.025 19.2527 24.0421C19.4278 24.2782 19.6018 24.5159 19.7657 24.7602C19.5386 25.5457 19.3662 26.3463 19.159 27.1372C18.9373 27.9875 18.7391 28.8448 18.5009 29.6904C18.631 29.8675 18.767 30.0411 18.8923 30.2227C18.4752 30.1541 18.0688 30.0357 17.6581 29.9389C18.0725 28.2478 18.5046 26.5611 18.9303 24.8726C18.8238 24.7388 18.744 24.5759 18.6079 24.4705C17.741 24.4512 16.8725 24.4796 16.0061 24.4576C15.7672 24.3238 15.5279 24.1824 15.3223 24.0008Z" fill="white"/>
<path d="M21.3011 24.0804C21.3969 23.9867 21.5619 23.9861 21.6764 24.0386C21.8971 23.9749 22.1423 24.0284 22.3731 24.0107C22.6028 24.0279 22.8481 23.9749 23.0686 24.0381C23.1463 23.9867 23.247 24.0183 23.3348 24.0102C23.7498 24.0135 24.1648 24.0075 24.5797 24.0118C24.6987 24.067 24.742 24.2052 24.8245 24.2994C24.9231 24.4557 25.0617 24.5918 25.1377 24.7588C25.0039 25.2697 24.8872 25.7848 24.7447 26.293C24.2837 26.0418 23.7862 25.8603 23.3171 25.6236C23.6031 25.532 23.9073 25.4763 24.1765 25.343C24.2323 25.1925 24.2601 25.0335 24.3008 24.8782C24.1922 24.746 24.1193 24.5596 23.9747 24.4701C23.2802 24.4525 22.5841 24.4701 21.889 24.4616C21.6202 24.4429 21.488 24.7582 21.247 24.8139C21.0119 24.7904 20.7586 24.8043 20.5391 24.7085C20.7865 24.4916 21.0478 24.2909 21.3011 24.0804Z" fill="white"/>
<path d="M5.12013 24.8154C5.35413 24.7296 5.49388 24.4298 5.76966 24.4624C6.46252 24.4668 7.15545 24.4624 7.84784 24.4646C7.95495 24.5979 8.05669 24.7356 8.15413 24.8763C8.11398 25.0386 8.0722 25.2008 8.02831 25.3626C7.74394 25.4546 7.45963 25.5478 7.16991 25.6207C7.22937 25.3862 7.28666 25.151 7.34823 24.9171C6.8722 24.9262 6.39509 24.9005 5.92013 24.9315C5.65827 24.9037 5.39855 24.8608 5.13562 24.8486C5.00016 25.4413 4.8197 26.0233 4.70512 26.6204C5.61866 27.0081 6.53484 27.3883 7.44888 27.7722C7.30649 28.3741 7.13727 28.9696 7.00073 29.573C7.25291 29.6122 7.50727 29.6347 7.76109 29.6619C7.47409 29.9046 7.18223 30.1423 6.8888 30.3773C6.28588 30.4266 5.67859 30.3848 5.07406 30.4015C4.60713 30.3837 4.14073 30.4041 3.67323 30.3993C3.58969 30.388 3.55812 30.2992 3.51098 30.2424C3.38302 30.049 3.2347 29.8708 3.10938 29.6758C3.22773 29.1762 3.34284 28.6713 3.49549 28.1824C3.71234 28.4416 3.88745 28.7335 4.06791 29.0182C4.07109 29.1945 3.99237 29.3626 3.95866 29.5346C4.05559 29.6688 4.13859 29.8178 4.26548 29.9275C5.00016 29.9367 5.73645 29.9335 6.47113 29.9292C6.66499 29.8735 6.80259 29.6988 6.96537 29.5848C6.69817 29.5635 6.43256 29.5238 6.16484 29.5024C6.29334 29.013 6.41116 28.5208 6.5402 28.0314C5.62988 27.6426 4.71263 27.2705 3.80445 26.8769C3.98595 26.169 4.17017 25.4622 4.34205 24.7521C4.60337 24.7483 4.85935 24.8154 5.12013 24.8154Z" fill="#B1B2B2"/>
<path d="M21.2472 24.8136C21.4882 24.758 21.6204 24.4426 21.8892 24.4613C22.5843 24.4699 23.2804 24.4522 23.9749 24.4699C24.1195 24.5593 24.1924 24.7457 24.301 24.8779C24.2603 25.0333 24.2325 25.1922 24.1767 25.3427C23.9075 25.476 23.6033 25.5317 23.3173 25.6233C23.3709 25.3872 23.4427 25.1564 23.493 24.9202C23.0213 24.9111 22.55 24.9197 22.0783 24.916C21.8137 24.9106 21.5524 24.8651 21.2894 24.8425C21.139 25.43 20.9934 26.019 20.8397 26.6054C21.75 27.0098 22.6748 27.3808 23.5926 27.7673C23.4549 28.3704 23.3008 28.9701 23.139 29.5671C23.3885 29.6175 23.645 29.6175 23.8936 29.6753C23.6049 29.9147 23.3168 30.1551 23.0217 30.3864C22.3947 30.4062 21.7682 30.3907 21.1406 30.4004C20.6812 30.3719 20.2201 30.4255 19.7607 30.3811C19.5899 30.1385 19.4083 29.9035 19.2461 29.6555C19.388 29.1559 19.5063 28.6499 19.6327 28.1465C19.7248 28.1663 19.811 28.2055 19.8881 28.2611C19.8309 28.2435 19.7168 28.2076 19.6594 28.1899C19.856 28.4598 20.0508 28.7339 20.218 29.0231C20.2127 29.1982 20.1436 29.3642 20.1055 29.5339C20.1981 29.6677 20.2946 29.7991 20.3942 29.9281C21.0898 29.9366 21.7859 29.9264 22.482 29.9334C22.7471 29.9661 22.9147 29.7203 23.109 29.5838C22.8444 29.5618 22.5821 29.5243 22.3182 29.5007C22.437 29.0086 22.565 28.5187 22.6839 28.0265C21.7741 27.64 20.8562 27.2715 19.9529 26.8721C20.1537 26.1497 20.3107 25.4156 20.5158 24.6948L20.5393 24.7082C20.7588 24.804 21.0121 24.7901 21.2472 24.8136Z" fill="#B1B2B2"/>
<path d="M16.0016 24.4902C16.2292 24.639 16.4744 24.7665 16.6752 24.9528C16.2313 26.7606 15.7649 28.563 15.3146 30.3691C15.0854 30.2203 14.8497 30.0816 14.6152 29.9414C15.0801 28.125 15.5293 26.3044 16.0016 24.4902Z" fill="white"/>
<path d="M5.13558 24.8488C5.39851 24.861 5.65822 24.9039 5.92008 24.9317C5.81672 25.419 5.66894 25.8966 5.56772 26.385C6.38058 26.7283 7.19236 27.0737 8.00683 27.412C8.10376 27.4517 8.20601 27.4827 8.29222 27.5448C8.11122 28.2495 7.92437 28.9536 7.76104 29.6621C7.50723 29.6349 7.25286 29.6124 7.00068 29.5732C7.13722 28.9698 7.30644 28.3743 7.44883 27.7724C6.53479 27.3885 5.61861 27.0083 4.70508 26.6206C4.81966 26.0235 5.00012 25.4415 5.13558 24.8488Z" fill="white"/>
<path d="M21.2896 24.8431C21.5525 24.8656 21.8138 24.9112 22.0784 24.9165C21.96 25.4065 21.8272 25.8932 21.7089 26.3832C22.6208 26.7676 23.5338 27.1494 24.4441 27.5366C24.2541 28.2477 24.0854 28.9647 23.8937 29.6758C23.6451 29.618 23.3887 29.618 23.1392 29.5676C23.3009 28.9706 23.4551 28.3709 23.5928 27.7678C22.6749 27.3813 21.7501 27.0103 20.8398 26.6059C20.9935 26.0196 21.1392 25.4306 21.2896 24.8431Z" fill="white"/>
<path d="M3.4707 28.1521C3.79091 28.2548 4.08277 28.4322 4.39599 28.5553C4.57381 28.6507 4.77352 28.7079 4.93631 28.83C4.84477 29.042 4.81259 29.276 4.75799 29.4999C5.22706 29.5026 5.69617 29.4961 6.16524 29.5026C6.43295 29.524 6.69856 29.5636 6.96577 29.585C6.80298 29.699 6.66538 29.8737 6.47153 29.9294C5.73684 29.9337 5.00056 29.9369 4.26588 29.9277C4.13898 29.818 4.05598 29.669 3.95906 29.5348C3.99277 29.3628 4.07149 29.1947 4.06831 29.0184C3.88785 28.7337 3.71273 28.4418 3.49588 28.1826L3.4707 28.1521Z" fill="white"/>
<path d="M19.6582 28.1911C19.7155 28.2087 19.8296 28.2447 19.8869 28.2623C20.2842 28.4261 20.6655 28.6275 21.0639 28.7887C21.0312 29.0302 20.945 29.2609 20.9016 29.5009C21.3734 29.5009 21.8451 29.4971 22.3169 29.5019C22.5809 29.5255 22.8432 29.563 23.1078 29.5849C22.9134 29.7215 22.7458 29.9673 22.4808 29.9345C21.7846 29.9276 21.0885 29.9378 20.3929 29.9292C20.2934 29.8002 20.1969 29.6689 20.1043 29.5351C20.1423 29.3654 20.2114 29.1994 20.2167 29.0243C20.0496 28.7351 19.8548 28.461 19.6582 28.1911Z" fill="white"/>
<path d="M0.953125 31.9625L0.980946 31.9706L0.980411 32H0.953125V31.9625Z" fill="#B1B2B2"/>
<mask id="mask0_314_6351" style="mask-type:luminance" maskUnits="userSpaceOnUse" x="15" y="3" width="11" height="12">
<path d="M15.0723 9.24652C15.0723 12.1976 17.4659 14.5918 20.4189 14.5918C23.3706 14.5918 25.7657 12.1976 25.7657 9.24652C25.7657 6.29346 23.3708 3.89977 20.4189 3.89977C17.4659 3.89977 15.0723 6.29337 15.0723 9.24652Z" fill="white"/>
</mask>
<g mask="url(#mask0_314_6351)">
<path d="M19.8985 13.7161C22.7704 14.3281 25.5996 12.4967 26.2115 9.62083C26.8258 6.74577 24.993 3.91972 22.1179 3.30623C19.245 2.69192 16.4177 4.52552 15.8039 7.39985C15.1904 10.2743 17.0224 13.1033 19.8985 13.7161Z" fill="#E56020"/>
</g>
<path d="M20.5539 3.92485C21.0085 3.95539 21.4642 4.00778 21.9006 4.14437C21.9419 4.16366 21.9799 4.1878 22.0152 4.21669C22.495 4.58615 22.9142 5.02574 23.2757 5.51096C23.5012 5.46542 23.7234 5.3867 23.8969 5.22981C24.0211 5.31658 24.1256 5.42684 24.2262 5.5393C24.0275 5.72188 23.7753 5.82419 23.5199 5.89916C23.7121 6.20325 23.8647 6.53047 24.0035 6.86245C24.4227 6.90798 24.8452 6.93212 25.2597 7.01459C25.3175 7.14734 25.3775 7.2801 25.424 7.41724C25.0016 7.35781 24.5764 7.31064 24.1507 7.28494C24.2529 7.61802 24.3354 7.95704 24.3869 8.30181C24.8586 8.3211 25.3149 8.47964 25.7089 8.7361L25.7299 8.74844C25.7325 8.94337 25.7373 9.13875 25.7395 9.33367C25.3919 8.98615 24.9261 8.76179 24.4356 8.72056C24.5277 9.96929 24.298 11.2448 23.7181 12.3586C23.3475 13.08 22.843 13.7353 22.2305 14.2682C21.8155 14.4571 21.3469 14.5488 20.8918 14.5664C22.1191 13.9484 23.0589 12.832 23.559 11.5613C23.9065 10.6553 24.0639 9.6641 23.9515 8.69706C23.4503 8.7318 22.9571 8.8737 22.5196 9.1222C21.9917 9.41294 21.5376 9.81459 21.0867 10.2097C20.133 11.066 19.1965 11.9608 18.0853 12.614C17.6832 12.8486 17.273 13.0986 16.8211 13.218C16.6315 13.0275 16.4371 12.8401 16.2797 12.6215C17.123 12.3731 17.9386 12.0208 18.6797 11.5458C19.3405 11.1383 19.938 10.6386 20.5127 10.1187C21.1311 9.56499 21.7582 8.99585 22.5175 8.64028C22.9512 8.42981 23.4294 8.319 23.9098 8.29166C23.8525 7.94469 23.7571 7.60577 23.657 7.2694C23.2843 7.23091 22.9095 7.247 22.5363 7.26465C20.7756 7.33907 18.9994 7.70743 17.4283 8.52727C16.6818 8.92197 15.9862 9.43114 15.4497 10.0887C15.3715 10.1921 15.288 10.2911 15.1937 10.3806C15.1418 10.055 15.0979 9.72782 15.0957 9.3974C16.1427 8.39233 17.4845 7.74766 18.8666 7.34492C20.1437 6.97546 21.4754 6.82926 22.8013 6.81592C23.0289 6.81272 23.2564 6.82067 23.483 6.8427C23.3507 6.52618 23.1767 6.22949 22.993 5.94094C22.0843 5.90236 21.2157 5.61052 20.3488 5.36211C19.2596 5.02099 18.0596 5.06707 16.9908 5.45957C16.8489 5.51196 16.7123 5.58483 16.5592 5.59607C16.918 5.20622 17.3442 4.87315 17.8111 4.62263C18.3944 4.59045 18.9801 4.63434 19.553 4.74625C20.6047 4.93907 21.5987 5.37866 22.6636 5.50821C22.1196 4.80888 21.3732 4.29486 20.571 3.93345L20.5539 3.92485Z" fill="black"/>
</g>
<defs>
<clipPath id="clip0_314_6351">
<rect width="31.5931" height="32" fill="white" transform="translate(0.953125)"/>
</clipPath>
</defs>
</svg>
