<svg width="32" height="32" viewBox="0 0 32 32" fill="none" xmlns="http://www.w3.org/2000/svg">
<g clip-path="url(#clip0_295_7244)">
<path d="M8.74638 0.838857C9.56888 0.216686 10.6264 0.0131652 11.6375 0.00137088C18.2597 0.00191945 24.8814 0.0003657 31.5037 0.00191999C31.6258 -0.0136229 31.7297 0.0667442 31.773 0.177007V0.365532C29.4405 10.229 27.1074 20.0921 24.7733 29.9556C24.5099 30.9451 23.661 31.7499 22.6742 32H0.207095L0.207631 31.9706L0.17981 31.9625V31.7719C0.385417 31.0062 0.567488 30.234 0.761346 29.465C2.98088 20.6162 5.19884 11.7675 7.4152 2.91813C7.63313 2.11227 8.06903 1.34382 8.74638 0.838857Z" fill="#586066"/>
<path d="M9.8034 0.557266C10.5595 0.280421 11.3756 0.255187 12.1724 0.26113C18.6217 0.259485 25.0715 0.263782 31.5208 0.258936C31.0051 2.53633 30.4456 4.80412 29.9176 7.07932C28.1232 14.6532 26.3331 22.228 24.5414 29.803C24.2753 30.9734 23.1191 31.8693 21.9186 31.8341C14.7587 31.8341 7.59939 31.8351 0.440063 31.8334C2.81596 22.3373 5.19992 12.8427 7.57799 3.34712C7.71132 2.76234 7.90995 2.17921 8.26767 1.69135C8.64517 1.16554 9.19299 0.769289 9.8034 0.557266Z" fill="black"/>
<path d="M10.3267 1.60995C10.9483 1.30906 11.6525 1.24049 12.3352 1.23135C18.2003 1.23299 24.0659 1.22924 29.9316 1.23354C28.6115 6.9396 27.2916 12.6462 25.9759 18.3538C25.804 19.4141 24.8536 20.2735 23.7928 20.3844C23.5984 20.4015 23.4029 20.3925 23.2081 20.3945C17.0024 20.3951 10.7968 20.3929 4.59106 20.3951C5.9421 14.9986 7.31346 9.60684 8.67143 4.21238C8.78336 3.77809 8.8835 3.33631 9.08003 2.93046C9.33438 2.36927 9.76647 1.8793 10.3267 1.60995Z" fill="#586066"/>
<path d="M10.544 1.78451C11.0587 1.57139 11.6193 1.49276 12.1736 1.48572C17.9872 1.48362 23.8009 1.48901 29.6146 1.48362C28.3487 7.00919 27.0625 12.53 25.7907 18.0539C25.7287 18.3051 25.6933 18.5654 25.5857 18.8026C25.2537 19.5624 24.4719 20.1199 23.6382 20.1435C17.3939 20.1413 11.1497 20.1467 4.90491 20.1407C6.24415 14.8459 7.57751 9.55008 8.91726 4.25582C9.03722 3.76906 9.15501 3.27269 9.40346 2.83191C9.65141 2.36764 10.0573 1.98903 10.544 1.78451Z" fill="black"/>
<path d="M19.5214 3.6405C20.1966 2.97865 20.8498 2.29221 21.5358 1.6416C21.9518 2.5696 22.4114 3.47767 22.8322 4.40357C23.6852 4.02496 24.5313 3.62716 25.3832 3.24425C25.1358 4.31945 24.8788 5.39255 24.6314 6.46839C25.6301 6.85285 26.6282 7.23886 27.6237 7.63145C26.8505 8.23817 26.0762 8.8427 25.3034 9.44887C25.7516 10.515 26.166 11.594 26.6078 12.6622C25.7559 12.7222 24.9029 12.7677 24.0509 12.8293C23.4721 14.5943 22.8676 16.3512 22.2978 18.1188C22.2266 18.0925 22.1735 18.0374 22.119 17.9881C21.0705 16.99 20.0167 15.9977 18.9655 15.0023C18.475 15.2738 17.9824 15.5415 17.4962 15.82C17.5203 15.4805 17.6028 15.148 17.622 14.8085C15.856 15.8205 14.0932 16.8389 12.3261 17.85C11.1674 18.5268 9.99297 19.178 8.84067 19.8661C8.96757 19.7113 9.13464 19.5994 9.28889 19.4747C10.9376 18.1439 12.5852 16.8117 14.2341 15.481C14.8134 15.0033 15.411 14.5467 15.9803 14.0577C12.5788 15.9227 9.17482 17.7825 5.77507 19.6507C5.64657 19.7161 5.52822 19.8141 5.37878 19.8248C5.42489 19.8007 5.47196 19.7787 5.51589 19.7509C8.43211 17.64 11.3472 15.5276 14.2619 13.4146C14.4776 13.2561 14.7036 13.111 14.9076 12.9375C11.8887 14.545 8.87121 16.1563 5.85217 17.7632C5.89075 17.7268 5.93035 17.691 5.97103 17.6567C8.68485 15.6234 11.389 13.5758 14.1061 11.5458C12.9692 12.1156 11.849 12.7195 10.7181 13.3021C9.27604 14.0604 7.82274 14.7988 6.3871 15.5705C6.50814 15.4323 6.66289 15.3321 6.80854 15.2235C8.408 14.0037 10.0096 12.7876 11.6086 11.5677C12.2838 11.0483 12.9698 10.5439 13.6364 10.0143C11.3997 11.2213 9.14432 12.394 6.90921 13.6031C6.90653 13.5966 6.90064 13.5849 6.89796 13.579C9.15606 11.8253 11.4152 10.0721 13.6664 8.30931C13.1347 8.27027 12.6051 8.20069 12.0723 8.18514C12.0798 8.16796 12.0943 8.13367 12.1018 8.11657C12.7229 7.82364 13.3275 7.49705 13.947 7.20092C13.9149 7.16178 13.8769 7.13024 13.8335 7.10565C13.2311 6.74844 12.6334 6.38382 12.0348 6.02076C13.1239 5.776 14.218 5.55383 15.3066 5.30642C15.4834 4.21403 15.645 3.119 15.8121 2.02441C16.9896 2.56256 18.1756 3.08151 19.3532 3.61957C19.4041 3.63191 19.4758 3.69298 19.5214 3.6405Z" fill="#F9A01B"/>
<path d="M17.0388 4.62318C17.8694 4.13587 18.8412 3.9179 19.7987 3.93399C20.6009 4.29541 21.3473 4.80942 21.8913 5.50876C20.8263 5.3792 19.8324 4.93961 18.7807 4.74679C18.2078 4.63488 17.622 4.591 17.0388 4.62318Z" fill="#B64B2A"/>
<path d="M21.2428 4.21724C21.3397 4.22309 21.4383 4.23434 21.5282 4.27393C22.1076 4.50104 22.6629 4.80997 23.1245 5.23036C22.951 5.38725 22.7288 5.46597 22.5033 5.51151C22.1418 5.02629 21.7226 4.5867 21.2428 4.21724Z" fill="#B64B2A"/>
<path d="M16.2185 5.46012C17.2873 5.06762 18.4873 5.02154 19.5765 5.36266C20.4434 5.61107 21.3119 5.90291 22.2207 5.94149C22.4043 6.23004 22.5783 6.52673 22.7106 6.84325C22.4841 6.82122 22.2565 6.81326 22.0289 6.81646C20.703 6.82981 19.3714 6.97601 18.0942 7.34547C16.7122 7.74821 15.3703 8.39287 14.3233 9.39795C14.2474 8.07004 14.7604 6.735 15.6337 5.73962C15.6873 5.69509 15.721 5.62497 15.7868 5.59662C15.94 5.58538 16.0766 5.51251 16.2185 5.46012Z" fill="#B64B2A"/>
<path d="M23.4538 5.53984L23.4619 5.53335C23.8806 5.96819 24.226 6.47105 24.4874 7.01514C24.0728 6.93267 23.6503 6.90853 23.2311 6.863C23.0923 6.53102 22.9397 6.2038 22.7476 5.89971C23.0029 5.82474 23.2552 5.72243 23.4538 5.53984Z" fill="#B64B2A"/>
<path d="M16.656 8.52781C18.2271 7.70797 20.0033 7.33961 21.7639 7.26518C22.1371 7.24754 22.512 7.23145 22.8847 7.26994C22.9848 7.6063 23.0801 7.94523 23.1375 8.2922C22.6571 8.31954 22.1789 8.43035 21.7452 8.64082C20.9859 8.99639 20.3588 9.56553 19.7403 10.1192C19.1657 10.6392 18.5681 11.1388 17.9074 11.5463C17.1663 12.0213 16.3507 12.3737 15.5074 12.6221L15.4935 12.6258C14.9612 11.9801 14.5923 11.2004 14.4214 10.3812C14.5156 10.2917 14.5992 10.1926 14.6774 10.0892C15.2139 9.43168 15.9095 8.92251 16.656 8.52781Z" fill="#B64B2A"/>
<path d="M23.3783 7.28548C23.804 7.31117 24.2292 7.35835 24.6516 7.41778C24.7995 7.84246 24.9301 8.28415 24.9365 8.73663C24.5425 8.48018 24.0862 8.32164 23.6145 8.30235C23.563 7.95757 23.4805 7.61855 23.3783 7.28548Z" fill="#B64B2A"/>
<path d="M21.7473 9.12274C22.1848 8.87424 22.6779 8.73234 23.1791 8.6976C23.2916 9.66464 23.1341 10.6558 22.7866 11.5619C22.2865 12.8325 21.3467 13.949 20.1195 14.5669C20.0884 14.575 20.0268 14.5921 19.9963 14.6001C18.5649 14.7073 17.0993 14.1947 16.0487 13.2186C16.5006 13.0992 16.9109 12.8491 17.313 12.6146C18.4241 11.9613 19.3606 11.0665 20.3143 10.2103C20.7652 9.81513 21.2194 9.41349 21.7473 9.12274Z" fill="#B64B2A"/>
<path d="M23.6632 8.7211C24.1537 8.76233 24.6195 8.9867 24.9671 9.33422C24.965 9.13929 24.9601 8.94391 24.9575 8.74898C25.0731 9.0858 24.9607 9.43762 24.9526 9.7803C24.8471 11.1098 24.1815 12.3629 23.2059 13.2603C22.7481 13.6678 22.219 13.994 21.6541 14.2312C21.5914 14.2564 21.5261 14.2687 21.4581 14.2687C22.0706 13.7359 22.5751 13.0805 22.9457 12.3591C23.5256 11.2453 23.7553 9.96983 23.6632 8.7211Z" fill="#B64B2A"/>
<path d="M4.40258 21.3547C4.49412 21.3498 4.58623 21.3477 4.67784 21.3444C4.9643 21.3562 5.2508 21.3509 5.53723 21.3397C5.6497 21.3777 5.69041 21.5062 5.76269 21.5908C5.68076 21.8333 5.65826 22.0936 5.56084 22.3308C5.27005 22.4075 4.98465 22.5049 4.70083 22.604C4.67409 22.7431 4.64462 22.8825 4.59591 23.0163C4.64891 23.0864 4.70194 23.1565 4.7528 23.2284C4.53751 23.2428 4.32172 23.2368 4.10645 23.2336C4.26655 22.7137 4.36562 22.1761 4.5113 21.6513C4.5659 21.5335 4.40741 21.4676 4.40258 21.3547Z" fill="white"/>
<path d="M7.6873 21.382C7.87791 21.2824 8.09905 21.3798 8.30201 21.3337C8.27416 21.6015 8.17294 21.8553 8.12851 22.1209C8.25116 22.0883 8.3743 22.0572 8.50066 22.0443C8.60026 21.8248 8.6099 21.5775 8.69183 21.3541C8.82944 21.3482 8.96758 21.3509 9.10469 21.3348C9.00615 21.8795 8.85194 22.4149 8.72447 22.9541C8.67469 23.0462 8.76844 23.1067 8.82247 23.1646C8.8268 23.1822 8.83537 23.2171 8.83962 23.2342C8.6324 23.2379 8.42573 23.2374 8.21901 23.2347C8.29608 22.9611 8.36787 22.6853 8.41551 22.4053C8.28701 22.4368 8.15851 22.4679 8.02997 22.499C8.02515 22.5322 8.01498 22.5976 8.00966 22.6308C7.94697 22.8294 7.90416 23.0334 7.85594 23.2358C7.70976 23.2368 7.56301 23.2368 7.41687 23.2353C7.56301 22.6784 7.70279 22.1194 7.82969 21.5581C7.78151 21.4998 7.73387 21.4408 7.6873 21.382Z" fill="white"/>
<path d="M11.1421 21.5705C11.2363 21.4977 11.3295 21.4243 11.4227 21.3504C11.6577 21.3456 11.8929 21.3547 12.1274 21.3424C12.2484 21.3499 12.2912 21.4918 12.3716 21.563C12.2639 22.0358 12.1461 22.507 12.0305 22.9778C11.9625 23.0875 11.835 23.1502 11.7396 23.2358C11.4779 23.2358 11.2159 23.2406 10.9541 23.2326C10.9001 23.1544 10.8438 23.0784 10.7887 23.0018C10.9113 22.5258 11.0221 22.047 11.1421 21.5705Z" fill="white"/>
<path d="M14.3684 21.3482C14.7726 21.3444 15.1796 21.3616 15.5849 21.3358C15.5529 21.5105 15.5111 21.6835 15.4537 21.8516C15.4045 21.8066 15.3632 21.7547 15.3349 21.6958C15.1721 21.6717 15.0067 21.6733 14.8438 21.6953C14.8203 21.8409 14.7828 21.9844 14.7501 22.1284C14.8835 22.1294 15.0168 22.1294 15.1507 22.129C15.125 22.2377 15.0987 22.3459 15.0762 22.4556C14.9408 22.4561 14.8048 22.4561 14.6693 22.4556C14.6302 22.6136 14.5853 22.7699 14.5515 22.9289C14.7105 22.9289 14.8701 22.9285 15.0291 22.9289C15.1025 22.8631 15.1699 22.7854 15.2652 22.7517C15.2509 22.9172 15.1952 23.0752 15.1598 23.2368C14.7881 23.2353 14.416 23.239 14.0438 23.2347C14.196 22.6789 14.3233 22.1166 14.4556 21.556C14.4095 21.5009 14.3635 21.4462 14.318 21.3916L14.3684 21.3482Z" fill="white"/>
<path d="M17.6675 21.3471C17.9958 21.3557 18.3245 21.3445 18.6528 21.3521C18.7454 21.3874 18.7861 21.4961 18.8547 21.5641C18.7599 22.0277 18.6298 22.4835 18.5265 22.9451C18.4766 23.0425 18.5591 23.1073 18.6239 23.1652C18.6245 23.1828 18.6266 23.2181 18.6276 23.2358C18.4252 23.2369 18.2234 23.2379 18.0215 23.2348C18.158 22.7207 18.2709 22.1997 18.4119 21.6867C18.2759 21.6792 18.1393 21.6782 18.0032 21.6867C17.8989 22.2055 17.7398 22.7132 17.6429 23.2337C17.4951 23.2374 17.3473 23.2369 17.1995 23.2348C17.3703 22.6093 17.5021 21.9737 17.6675 21.3471Z" fill="white"/>
<path d="M20.8531 21.3514C21.0571 21.3498 21.261 21.353 21.4646 21.3354C21.3281 21.8955 21.2016 22.4589 21.0469 23.0147C21.0972 23.0854 21.1497 23.1549 21.1969 23.2289C20.9847 23.2422 20.7722 23.2374 20.5601 23.2325C20.665 22.9472 20.7084 22.642 20.7861 22.348C20.8445 22.1199 20.8985 21.8902 20.9585 21.6621C21.0207 21.5356 20.8621 21.4682 20.8531 21.3514Z" fill="white"/>
<path d="M23.3875 21.3675C23.5967 21.3327 23.8105 21.3547 24.022 21.353C24.0589 21.5437 24.113 21.7311 24.1628 21.9191C24.2993 21.7369 24.4321 21.5523 24.5698 21.3718C24.6994 21.2953 24.8627 21.3697 25.0056 21.3536C24.7523 21.6743 24.5044 21.9989 24.2533 22.3207C24.3325 22.5541 24.4006 22.7914 24.4755 23.0265C24.5414 23.1089 24.6645 23.1292 24.7122 23.2304C24.506 23.2411 24.2999 23.2358 24.0932 23.2358C24.052 23.0548 23.9952 22.8771 23.962 22.6944C23.8244 22.8733 23.691 23.0558 23.556 23.2374C23.4094 23.2336 23.2616 23.2475 23.1165 23.223C23.3804 22.9504 23.5898 22.6301 23.8276 22.3356C23.8158 22.1086 23.7065 21.8966 23.6648 21.6728C23.6503 21.517 23.4741 21.4752 23.3875 21.3675Z" fill="white"/>
<path d="M11.5443 21.6803C11.669 21.6808 11.7932 21.6813 11.918 21.6813C11.8131 22.0985 11.7188 22.5182 11.6064 22.9332C11.4821 22.9289 11.358 22.9279 11.2343 22.9289C11.344 22.5146 11.4318 22.0942 11.5443 21.6803Z" fill="black"/>
<path d="M4.9289 21.6904C5.05422 21.6904 5.18004 21.6904 5.30536 21.691C5.26304 21.8329 5.23843 21.9796 5.18326 22.1178C5.05582 22.1429 4.93318 22.1863 4.81165 22.2313C4.82933 22.0476 4.88929 21.8704 4.9289 21.6904Z" fill="black"/>
<path d="M3.56934 24.7517C3.87406 24.5017 4.16587 24.2253 4.49574 24.0122C5.55916 24.0085 6.62316 24.0144 7.68663 24.0096C7.88049 24.2527 8.05773 24.5086 8.23444 24.7641C8.07002 25.2546 7.97741 25.7691 7.84191 26.2693C7.34984 26.0808 6.87431 25.8452 6.39719 25.6203C6.68691 25.5474 6.97123 25.4542 7.25559 25.3622C7.29948 25.2005 7.34127 25.0382 7.38141 24.876C7.28398 24.7352 7.18224 24.5976 7.07513 24.4642C6.38273 24.462 5.6898 24.4664 4.99695 24.462C4.72116 24.4294 4.58141 24.7292 4.34741 24.815C4.08663 24.815 3.83066 24.748 3.56934 24.7517Z" fill="white"/>
<path d="M8.67136 24.0454C9.3568 24.0444 10.0422 24.0438 10.727 24.046C10.2768 25.8205 9.83927 27.5995 9.3814 29.3724C9.36695 29.4195 9.35306 29.4667 9.33861 29.5143C9.83178 29.5421 10.3287 29.4816 10.8192 29.5368C11.0382 29.6535 11.2363 29.8056 11.4457 29.9384C10.5879 29.9432 9.72892 29.947 8.87111 29.9368C8.7394 29.8287 8.65582 29.6744 8.55247 29.5406C8.97072 27.8484 9.41303 26.1622 9.82108 24.4679C9.39859 24.3667 8.9814 24.2415 8.55139 24.1734C8.59157 24.1306 8.63122 24.0878 8.67136 24.0454Z" fill="white"/>
<path d="M12.1462 24.0519L12.151 24.0535C12.3951 24.1809 12.6329 24.3206 12.8648 24.469C12.4047 26.2934 11.9373 28.1161 11.4811 29.941C11.677 30.0712 11.88 30.1895 12.0717 30.3271C10.7737 30.3352 9.47572 30.3267 8.17771 30.3314C8.02299 30.105 7.85106 29.8913 7.70435 29.66C8.12846 28.0134 8.53649 26.362 8.95471 24.7132C8.82189 24.5322 8.68857 24.3512 8.55145 24.1734C8.98146 24.2415 9.39865 24.3667 9.82114 24.4679C9.41309 26.1622 8.97078 27.8484 8.55253 29.5406C8.65588 29.6744 8.73945 29.8287 8.87117 29.9368C9.72898 29.947 10.5879 29.9432 11.4457 29.9384C11.2364 29.8056 11.0382 29.6535 10.8193 29.5368C10.3287 29.4816 9.83183 29.5421 9.33867 29.5143C9.35311 29.4667 9.36701 29.4195 9.38146 29.3724C9.37661 29.4018 9.36756 29.4617 9.36326 29.4913C9.83823 29.4773 10.3164 29.5186 10.7903 29.4741C11.2262 27.6631 11.7044 25.8613 12.1462 24.0519Z" fill="#B1B2B2"/>
<path d="M12.151 24.0535C12.6924 24.0338 13.2343 24.0498 13.7756 24.0454C13.2557 26.159 12.7057 28.2655 12.1869 30.3792C10.9333 30.3657 9.67927 30.3759 8.4257 30.3742C8.3448 30.3625 8.23876 30.4005 8.17773 30.3314C9.47575 30.3267 10.7738 30.3352 12.0718 30.3271C11.88 30.1895 11.6771 30.0712 11.4811 29.941C11.9374 28.1161 12.4048 26.2934 12.8648 24.469C12.633 24.3206 12.3952 24.1809 12.151 24.0535Z" fill="white"/>
<path d="M14.4444 24.2972C14.4706 24.1949 14.483 24.0851 14.5493 23.9999C14.755 24.1815 14.9943 24.3228 15.2331 24.4567C16.0996 24.4787 16.9681 24.4503 17.835 24.4696C17.9711 24.575 18.0509 24.7378 18.1574 24.8717C17.7317 26.5601 17.2996 28.2469 16.8852 29.9379C17.2959 30.0348 17.7023 30.1532 18.1193 30.2217C18.129 30.226 18.1489 30.2345 18.159 30.2388C18.0942 30.2844 18.0439 30.3775 17.9539 30.3706C17.2905 30.3678 16.6264 30.3753 15.963 30.3668C16.4305 28.552 16.8723 26.7309 17.344 24.9178C16.9033 24.9167 16.4626 24.9183 16.0219 24.9161C15.9775 24.9124 15.9379 24.9242 15.9025 24.952C15.7017 24.7657 15.4565 24.6382 15.2288 24.4894C14.7566 26.3037 14.3073 28.1243 13.8425 29.9406C14.077 30.0808 14.3126 30.2195 14.5418 30.3684C14.0026 30.3721 13.4633 30.3699 12.9242 30.3699C13.4077 28.3406 13.9432 26.3229 14.4444 24.2972Z" fill="#B1B2B2"/>
<path d="M14.5493 23.9999C14.598 24.0096 14.6961 24.0294 14.7453 24.0396C14.945 23.992 15.1866 23.9936 15.3873 24.039C15.4655 23.9871 15.5662 24.0187 15.654 24.0106C16.069 24.0165 16.4851 24.0026 16.9001 24.0165L16.9403 24.0385C17.0897 23.9774 17.2631 24.0257 17.4227 24.0118C17.5635 24.024 17.7193 23.9785 17.8505 24.039C18.0492 23.9737 18.2736 24.024 18.4797 24.0411C18.6548 24.2773 18.8288 24.515 18.9927 24.7592C18.7656 25.5448 18.5933 26.3453 18.386 27.1363C18.1643 27.9866 17.9662 28.8439 17.7279 29.6894C17.858 29.8666 17.9941 30.0401 18.1193 30.2217C17.7022 30.1531 17.2958 30.0347 16.8851 29.9379C17.2996 28.2469 17.7317 26.5601 18.1574 24.8717C18.0508 24.7378 17.971 24.575 17.835 24.4696C16.9681 24.4503 16.0996 24.4786 15.2331 24.4567C14.9943 24.3228 14.7549 24.1815 14.5493 23.9999Z" fill="white"/>
<path d="M20.5276 24.0808C20.6234 23.9871 20.7883 23.9866 20.9029 24.039C21.1235 23.9753 21.3687 24.0288 21.5996 24.0111C21.8292 24.0284 22.0745 23.9753 22.2951 24.0385C22.3728 23.9871 22.4734 24.0188 22.5612 24.0106C22.9762 24.0139 23.3912 24.008 23.8062 24.0123C23.9251 24.0674 23.9685 24.2056 24.0509 24.2998C24.1495 24.4561 24.2881 24.5922 24.3642 24.7592C24.2303 25.2701 24.1137 25.7853 23.9711 26.2934C23.5101 26.0423 23.0127 25.8607 22.5436 25.624C22.8295 25.5324 23.1337 25.4768 23.403 25.3435C23.4588 25.193 23.4866 25.034 23.5272 24.8786C23.4186 24.7464 23.3458 24.56 23.2011 24.4706C22.5066 24.4529 21.8106 24.4706 21.1154 24.462C20.8466 24.4433 20.7144 24.7587 20.4734 24.8144C20.2384 24.7909 19.985 24.8048 19.7655 24.7089C20.0129 24.4921 20.2742 24.2913 20.5276 24.0808Z" fill="white"/>
<path d="M4.34742 24.815C4.58142 24.7293 4.72117 24.4294 4.99696 24.462C5.68981 24.4664 6.38274 24.462 7.07514 24.4642C7.18225 24.5976 7.28399 24.7352 7.38142 24.876C7.34128 25.0383 7.2995 25.2005 7.2556 25.3622C6.97124 25.4543 6.68692 25.5474 6.3972 25.6203C6.45667 25.3858 6.51396 25.1507 6.57553 24.9167C6.09949 24.9258 5.62238 24.9001 5.14742 24.9311C4.88556 24.9033 4.62585 24.8604 4.36292 24.8482C4.22746 25.4409 4.047 26.023 3.93242 26.6201C4.84595 27.0077 5.76213 27.388 6.67617 27.7718C6.53378 28.3738 6.36456 28.9693 6.22803 29.5727C6.4802 29.6118 6.73457 29.6343 6.98838 29.6615C6.70139 29.9042 6.40953 30.1419 6.1161 30.377C5.51317 30.4263 4.90589 30.3845 4.30135 30.4011C3.83443 30.3834 3.36803 30.4038 2.90053 30.3989C2.81699 30.3877 2.78542 30.2988 2.73828 30.242C2.61032 30.0487 2.46199 29.8704 2.33667 29.6754C2.45502 29.1759 2.57013 28.6709 2.72278 28.182C2.93963 28.4412 3.11475 28.7331 3.29521 29.0179C3.29839 29.1941 3.21967 29.3622 3.18596 29.5342C3.28288 29.6685 3.36588 29.8174 3.49278 29.9272C4.22746 29.9363 4.96374 29.9331 5.69843 29.9288C5.89228 29.8731 6.02988 29.6985 6.19267 29.5845C5.92546 29.5631 5.65985 29.5234 5.39214 29.502C5.52063 29.0126 5.63846 28.5204 5.76749 28.031C4.85717 27.6423 3.93992 27.2701 3.03175 26.8765C3.21324 26.1686 3.39746 25.4619 3.56935 24.7517C3.83067 24.748 4.08664 24.815 4.34742 24.815Z" fill="#B1B2B2"/>
<path d="M20.4734 24.8143C20.7144 24.7587 20.8466 24.4433 21.1154 24.462C21.8105 24.4706 22.5066 24.4529 23.2011 24.4706C23.3457 24.56 23.4186 24.7464 23.5272 24.8786C23.4865 25.034 23.4587 25.1929 23.4029 25.3434C23.1337 25.4767 22.8295 25.5324 22.5435 25.624C22.5971 25.3879 22.6689 25.1571 22.7191 24.9209C22.2475 24.9118 21.7762 24.9204 21.3045 24.9167C21.0399 24.9113 20.7786 24.8658 20.5156 24.8432C20.3652 25.4307 20.2196 26.0197 20.0659 26.6061C20.9762 27.0105 21.901 27.3815 22.8188 27.768C22.6811 28.3711 22.527 28.9708 22.3652 29.5678C22.6147 29.6182 22.8712 29.6182 23.1198 29.676C22.8311 29.9154 22.543 30.1558 22.2479 30.3871C21.6209 30.4069 20.9943 30.3914 20.3668 30.4011C19.9074 30.3726 19.4463 30.4262 18.9869 30.3818C18.8161 30.1392 18.6345 29.9042 18.4723 29.6562C18.6142 29.1566 18.7325 28.6506 18.8589 28.1472C18.951 28.167 19.0372 28.2062 19.1143 28.2618C19.0571 28.2442 18.943 28.2083 18.8856 28.1906C19.0822 28.4605 19.277 28.7346 19.4442 29.0238C19.4389 29.1989 19.3698 29.3649 19.3317 29.5346C19.4243 29.6684 19.5208 29.7998 19.6204 29.9288C20.3159 29.9373 21.0121 29.9271 21.7082 29.9341C21.9733 29.9668 22.1409 29.721 22.3352 29.5845C22.0706 29.5625 21.8083 29.525 21.5444 29.5014C21.6632 29.0093 21.7911 28.5194 21.9101 28.0272C21.0003 27.6407 20.0824 27.2722 19.1791 26.8728C19.3799 26.1504 19.5369 25.4163 19.742 24.6955L19.7655 24.7089C19.985 24.8047 20.2383 24.7908 20.4734 24.8143Z" fill="#B1B2B2"/>
<path d="M15.2289 24.4894C15.4565 24.6382 15.7017 24.7657 15.9025 24.952C15.4586 26.7598 14.9922 28.5622 14.5419 30.3683C14.3127 30.2195 14.077 30.0808 13.8425 29.9406C14.3074 28.1242 14.7566 26.3036 15.2289 24.4894Z" fill="white"/>
<path d="M4.363 24.8482C4.62593 24.8604 4.88564 24.9033 5.1475 24.9311C5.04414 25.4184 4.89635 25.896 4.79514 26.3845C5.608 26.7277 6.41978 27.0731 7.23425 27.4115C7.33118 27.4511 7.43342 27.4821 7.51964 27.5442C7.33864 28.249 7.15179 28.953 6.98846 29.6615C6.73464 29.6343 6.48028 29.6118 6.2281 29.5726C6.36464 28.9693 6.53386 28.3737 6.67625 27.7718C5.76221 27.388 4.84603 27.0077 3.9325 26.6201C4.04707 26.023 4.22754 25.4409 4.363 24.8482Z" fill="white"/>
<path d="M20.5157 24.8432C20.7786 24.8658 21.0399 24.9114 21.3045 24.9167C21.1861 25.4066 21.0533 25.8934 20.9349 26.3834C21.8469 26.7678 22.7599 27.1496 23.6702 27.5368C23.4801 28.2478 23.3114 28.9649 23.1198 29.676C22.8712 29.6182 22.6148 29.6182 22.3653 29.5678C22.527 28.9708 22.6811 28.3711 22.8188 27.768C21.901 27.3815 20.9762 27.0105 20.0659 26.6061C20.2196 26.0197 20.3653 25.4307 20.5157 24.8432Z" fill="white"/>
<path d="M2.69763 28.1515C3.01784 28.2543 3.3097 28.4316 3.62292 28.5547C3.80074 28.6501 4.00045 28.7073 4.16324 28.8294C4.0717 29.0415 4.03952 29.2754 3.98492 29.4993C4.45398 29.502 4.92309 29.4956 5.39217 29.502C5.65988 29.5234 5.92549 29.5631 6.1927 29.5845C6.02991 29.6985 5.89231 29.8731 5.69845 29.9288C4.96377 29.9331 4.22749 29.9363 3.4928 29.9271C3.36591 29.8174 3.28291 29.6685 3.18599 29.5342C3.2197 29.3622 3.29842 29.1941 3.29524 29.0179C3.11477 28.7331 2.93966 28.4412 2.72281 28.182L2.69763 28.1515Z" fill="white"/>
<path d="M18.8856 28.1906C18.9429 28.2083 19.057 28.2442 19.1143 28.2619C19.5116 28.4257 19.8929 28.627 20.2913 28.7882C20.2586 29.0298 20.1724 29.2604 20.129 29.5004C20.6008 29.5004 21.0725 29.4967 21.5444 29.5014C21.8083 29.525 22.0706 29.5625 22.3352 29.5845C22.1408 29.721 21.9733 29.9668 21.7082 29.9341C21.0121 29.9271 20.3159 29.9374 19.6203 29.9288C19.5208 29.7998 19.4243 29.6685 19.3317 29.5346C19.3697 29.3649 19.4389 29.1989 19.4442 29.0238C19.277 28.7346 19.0822 28.4605 18.8856 28.1906Z" fill="white"/>
<path d="M0.17981 31.9625L0.207631 31.9706L0.207095 32H0.17981V31.9625Z" fill="#B1B2B2"/>
<mask id="mask0_295_7244" style="mask-type:luminance" maskUnits="userSpaceOnUse" x="14" y="3" width="11" height="12">
<path d="M14.2986 9.24691C14.2986 12.198 16.6922 14.5922 19.6452 14.5922C22.5969 14.5922 24.992 12.198 24.992 9.24691C24.992 6.29386 22.5971 3.90017 19.6452 3.90017C16.6922 3.90017 14.2986 6.29377 14.2986 9.24691Z" fill="white"/>
</mask>
<g mask="url(#mask0_295_7244)">
<path d="M19.125 13.716C21.997 14.328 24.8261 12.4966 25.4381 9.62068C26.0524 6.74562 24.2195 3.91956 21.3445 3.30608C18.4716 2.69177 15.6443 4.52537 15.0305 7.3997C14.4169 10.2741 16.249 13.1031 19.125 13.716Z" fill="#E56020"/>
</g>
<path d="M19.7816 3.9254C20.2361 3.95594 20.6918 4.00833 21.1283 4.14492C21.1695 4.16421 21.2076 4.18835 21.2429 4.21724C21.7227 4.5867 22.1419 5.02629 22.5034 5.5115C22.7288 5.46597 22.951 5.38725 23.1246 5.23036C23.2487 5.31713 23.3532 5.42739 23.4539 5.53985C23.2552 5.72243 23.003 5.82474 22.7476 5.89971C22.9398 6.2038 23.0924 6.53102 23.2312 6.863C23.6504 6.90853 24.0728 6.93267 24.4874 7.01514C24.5452 7.14789 24.6051 7.28065 24.6517 7.41779C24.2293 7.35836 23.8041 7.31119 23.3784 7.28549C23.4806 7.61857 23.563 7.95758 23.6145 8.30236C24.0863 8.32165 24.5425 8.48019 24.9366 8.73665L24.9575 8.74899C24.9602 8.94391 24.965 9.1393 24.9671 9.33422C24.6196 8.9867 24.1538 8.76234 23.6632 8.72111C23.7553 9.96984 23.5256 11.2454 22.9457 12.3591C22.5752 13.0805 22.0707 13.7359 21.4582 14.2687C21.0432 14.4577 20.5746 14.5493 20.1195 14.567C21.3467 13.949 22.2865 12.8326 22.7866 11.5619C23.1342 10.6558 23.2916 9.66465 23.1791 8.69761C22.6779 8.73235 22.1848 8.87425 21.7473 9.12275C21.2194 9.41349 20.7652 9.81514 20.3143 10.2103C19.3606 11.0665 18.4241 11.9613 17.313 12.6146C16.9109 12.8491 16.5006 13.0992 16.0487 13.2186C15.8592 13.028 15.6648 12.8406 15.5074 12.6221C16.3507 12.3737 17.1662 12.0213 17.9074 11.5463C18.5681 11.1388 19.1657 10.6392 19.7403 10.1192C20.3587 9.56554 20.9859 8.9964 21.7452 8.64083C22.1789 8.43036 22.6571 8.31955 23.1374 8.29221C23.0801 7.94524 22.9848 7.60631 22.8846 7.26995C22.512 7.23146 22.1371 7.24755 21.7639 7.26519C20.0033 7.33962 18.2271 7.70798 16.656 8.52782C15.9095 8.92252 15.2139 9.43169 14.6774 10.0892C14.5992 10.1926 14.5156 10.2917 14.4214 10.3812C14.3694 10.0555 14.3256 9.72837 14.3234 9.39795C15.3703 8.39287 16.7122 7.74821 18.0942 7.34547C19.3714 6.97601 20.7031 6.82981 22.029 6.81646C22.2565 6.81326 22.4841 6.82122 22.7107 6.84325C22.5784 6.52673 22.4044 6.23004 22.2207 5.94149C21.312 5.90291 20.4434 5.61107 19.5765 5.36266C18.4873 5.02154 17.2873 5.06762 16.2185 5.46012C16.0766 5.51251 15.94 5.58538 15.7869 5.59662C16.1456 5.20677 16.5719 4.8737 17.0388 4.62318C17.622 4.591 18.2078 4.63489 18.7807 4.74679C19.8324 4.93962 20.8263 5.37921 21.8913 5.50876C21.3473 4.80942 20.6009 4.29541 19.7987 3.934L19.7816 3.9254Z" fill="black"/>
</g>
<defs>
<clipPath id="clip0_295_7244">
<rect width="31.5931" height="32" fill="white" transform="translate(0.17981)"/>
</clipPath>
</defs>
</svg>
