<svg width="89" height="32" viewBox="0 0 89 32" fill="none" xmlns="http://www.w3.org/2000/svg">
<g clip-path="url(#clip0_295_5711)">
<path d="M15.8742 11.4706C15.8742 11.4706 16.6389 11.5294 17.2859 12.3529L16.933 12.4118L16.7565 12.3529C16.7565 12.3529 16.2271 11.7059 15.8742 11.4706ZM14.6977 15.1177L14.3448 14.2353H14.2271L13.6389 14.9412C14.0506 15.2941 14.6977 15.1177 14.6977 15.1177ZM20.1095 9.94118L19.8153 10.0588L20.1683 10.7059L21.3448 11.1176C20.8742 10.1176 20.1095 9.94118 20.1095 9.94118ZM16.7565 11.1765C17.1095 11.5882 17.4624 12.1765 17.4624 12.1765C18.0506 11.5882 19.2859 11.3529 20.8742 11.4118C18.6389 10.9412 16.7565 11.1765 16.7565 11.1765ZM14.58 10.2941C14.58 10.2941 15.2271 10.2941 16.1095 10.4706C15.5212 10.0588 14.58 9.82353 14.58 9.82353V10.2941ZM19.9918 13.5294L18.9918 14.4118L19.7565 14.6471L20.5212 13.8235L20.1095 13.6471L19.9918 13.5294ZM13.3448 8.88236C13.3448 8.88236 13.7565 9.11765 13.8153 9.11765C13.8742 9.11765 14.6977 9.41177 15.0506 9.52942C15.3448 9.64706 15.5212 9.52942 15.5801 9.52942C15.6389 9.52942 16.6389 8.94118 16.6389 8.94118C15.7565 8.58824 14.933 8.35294 14.933 8.35294C14.8742 8.35294 13.3448 8.88236 13.3448 8.88236ZM19.3448 9.41177C19.2859 9.29412 19.1683 9.29412 18.4624 9.17647C17.8153 9.11765 17.2271 9.05883 17.1095 9.05883C16.9918 9.05883 16.933 9.11765 16.933 9.11765C16.933 9.11765 16.58 9.35294 16.2859 9.52942C15.9918 9.70589 15.933 9.76471 15.8742 9.88236C15.8153 9.94118 15.9918 10.1765 15.9918 10.1765L16.4624 10.7647C16.5212 10.7647 16.6977 10.8824 16.6977 10.8824C16.6977 10.8824 17.6389 10.8235 18.2271 10.7647H19.7565C19.8153 10.7647 19.7565 10.5294 19.6389 10.2353C19.5212 10 19.3448 9.41177 19.3448 9.41177ZM13.7565 10.0588C13.7565 10.0588 13.8153 10.0588 13.933 10.1177C14.0506 10.1177 14.1095 10 14.1095 9.88236C14.1095 9.70589 13.933 9.64706 13.933 9.64706H13.8153L13.6389 9.70589L13.58 10.1177H13.6389L13.7565 10.0588C13.6977 9.94118 13.6977 9.88236 13.6977 9.76471C13.6977 9.70588 13.8153 9.58824 13.8742 9.58824C13.8742 9.58824 13.9918 9.58824 13.933 9.82353C13.933 10.0588 13.7565 10.0588 13.7565 10.0588ZM23.6977 14.7059L23.2271 15.3529V15.4118H23.8742C23.9918 15 23.6977 14.7059 23.6977 14.7059ZM11.933 11.6471H11.8153L11.5212 11.5882C11.2271 11.5294 11.3448 11 11.3448 11L10.9918 11.1176C10.8742 10.8824 10.3448 10.2353 10.3448 10.2353L10.2271 10.7059C10.2859 10.7647 10.58 11.2353 10.6389 11.3529L10.4624 11.5294C10.4624 11.5294 10.4036 11.6471 10.4036 11.7059C10.4036 11.7647 10.3448 11.8235 10.3448 11.8235L10.1095 11.9412H10.0506L9.22711 11.2941V11.7647H9.28593C9.34475 11.8824 9.4624 12.1176 9.75652 12.2353C9.99181 12.3529 10.2859 12.3529 10.4036 12.2941C10.5212 12.3529 10.58 12.3529 10.6389 12.4118C10.8742 12.5294 10.933 12.4706 10.933 12.4706L11.2859 12.3529H11.3448L11.4036 12.2941L11.5212 12.0588C11.5212 12.0588 12.1095 12.1176 12.3448 12.1176C12.5801 11.7647 13.3448 11.2353 13.8742 11.1765C14.4036 11.1765 15.2859 11.2941 15.9918 12C16.6389 12.7059 16.4624 13.6471 16.4624 13.6471L17.7565 14.0588L17.1683 13.6471C16.6977 12.4706 15.5801 11.4118 15.5801 11.4118C15.5801 11.4118 15.2859 11.3529 15.1095 11.3529C14.933 11.2941 14.8153 11.1765 14.8153 11.1765C14.8153 11.1765 14.7565 11.1176 14.6389 10.9412L14.5212 10.7059C14.5212 10.7059 14.4036 10.5882 14.2271 10.4706C14.0506 10.3529 13.4036 10.2941 13.0506 10.2353C12.6977 10.1765 12.6977 10.2353 12.6977 10.2353C13.6977 10.4706 13.9918 10.5294 14.0506 10.5882C14.0506 10.5882 14.1095 10.7059 14.1683 10.7647C13.3448 10.5882 12.58 10.7059 12.4036 10.7647C12.5212 10.9412 12.5212 11.1765 12.4036 11.3529C12.2859 11.4706 11.933 11.6471 11.933 11.6471ZM23.1095 15.8824L23.2859 16.6471C23.2859 16.6471 23.4624 16.4706 23.6389 16.2353C23.8153 16 23.8742 15.7647 23.8742 15.7647L23.1683 15.8235L23.1095 15.8824ZM8.93299 10.5294L8.87417 11.1765H9.22711L9.28593 10.7647V11H9.34475V10.6471H9.28593V10.4118L9.81534 10.7059L9.87417 10.8235L9.99182 10.9412H10.1095L10.1683 10.8824V10.8235C9.81534 10.8235 9.81534 10.6471 9.81534 10.6471C9.81534 10.6471 9.87416 10.2353 9.93299 10.1177C9.99181 10 10.2271 10.0588 10.2271 10.0588L10.1683 10H10.0506C9.93299 9.94118 9.58005 9.70588 9.4624 9.64706V9.58824L9.52123 9.52942V9.29412H9.58005C9.58005 9.2353 9.63887 9.2353 9.63887 9.17647C9.75652 9.17647 10.6389 9 10.6389 9L9.81534 8.82353V8.76471C9.58005 8.70588 9.40358 8.64706 9.28593 8.58824C8.99181 8.94118 8.87417 9.41177 8.87417 9.41177C8.87417 9.41177 8.81534 10.2353 8.81534 10.3529C8.75652 10.4706 8.93299 10.5294 8.93299 10.5294ZM22.7565 15.1765L22.8742 15.3529L22.933 15.2941L23.4036 14.7059V14.6471C23.1683 14.6471 22.7565 15.1765 22.7565 15.1765ZM21.3448 14.1176L20.9918 14L20.1683 14.9412L20.7565 15.1177C20.8742 14.6471 21.3448 14.1176 21.3448 14.1176ZM22.58 15.4706C22.2859 16.0588 22.3448 16.4706 22.3448 16.4706L22.6389 15.8235V15.7059C22.6977 15.7059 22.6389 15.5882 22.58 15.4706ZM22.2859 11.6471C22.2859 11.6471 22.1683 11.8824 22.1095 11.9412C22.0506 12 21.6389 12.0588 21.4036 12.1176C21.1683 12.2353 20.7565 12.4118 20.6389 12.5294C20.58 12.5882 20.5801 12.7647 20.5801 12.8235C20.5801 12.8235 20.6977 12.8824 20.7565 12.8824L20.2271 13.3529L20.3448 13.4706L21.6389 13.8824C21.933 13.6471 22.3448 13.5882 22.3448 13.5882C22.1095 13.4706 21.1095 13.0588 20.8153 12.9412C20.8153 12.9412 20.6389 12.8824 20.6389 12.8235V12.6471C20.6389 12.6471 21.4036 12.0588 22.58 12.0588L22.7565 11.7059L22.2859 11.6471ZM23.0506 16.8235L22.8153 16.1176H22.7565L22.4036 16.7647L22.4624 16.8235C22.7565 16.9412 23.0506 16.8235 23.0506 16.8235ZM14.1683 10.1177L14.3448 10.1765C14.3448 10.1765 14.4624 10.1765 14.4624 10.0588V9.82353L14.2859 9.70589L14.0506 9.64706C14.1095 9.70588 14.1095 9.76471 14.1095 9.76471H14.1683C14.1683 9.70588 14.2271 9.70588 14.2271 9.76471C14.2271 9.76471 14.3448 9.82353 14.2859 10C14.3448 10.0588 14.2271 10.1177 14.1683 10.1177ZM13.6389 13.3529C13.2271 14.1177 13.5212 14.6471 13.5212 14.6471L14.0506 13.8824V13.7647L13.6389 13.3529ZM9.81534 8.82353L10.5212 9C10.58 9 10.9918 8.94118 10.9918 8.94118L9.87417 8.64706L9.81534 8.82353ZM10.2271 8.64706C11.1683 8.76471 11.3448 8.94118 11.3448 8.94118C11.3448 8.94118 11.6977 8.88236 11.8742 8.88236C11.58 8.64706 10.2859 8.2353 10.2859 8.2353C10.2859 8.2353 10.2271 8.41177 10.2271 8.64706ZM11.6389 10.4706C11.4624 10.5882 11.2859 10.9412 11.3448 11.2353C11.4036 11.5294 11.4624 11.5294 11.6389 11.5294C11.3448 11.4118 11.4036 10.9412 11.6389 10.6471C11.8153 10.4118 11.9918 10.5882 11.9918 10.5882C11.9918 10.5882 11.8153 10.3529 11.6389 10.4706ZM7.4624 19.1765C6.6977 19.1765 5.81534 19.4706 6.34475 20.2941C10.6977 27.7647 15.2859 29.5294 17.2271 30.4706C18.1095 30.0588 19.5212 29.4118 21.2271 28.2353C22.2271 27.5882 22.1095 26.5882 21.8742 25.9412C20.6389 22.8824 13.8742 19.4118 7.4624 19.1765ZM31.9918 5.2353C30.2271 4 25.8742 1.76471 17.2271 1.76471C14.2271 1.76471 11.6977 2.05883 9.6977 2.47059C10.1683 3.2353 10.4036 4.11765 10.4036 5.05883C10.4036 6.35294 9.93299 7.52941 9.16829 8.41177C9.34476 8.47059 9.58005 8.52941 9.87417 8.58824L9.99182 8.29412C9.99182 8.29412 10.1095 8.29412 10.1683 8.35294C10.1683 8.05883 10.3448 8.05883 10.3448 8.05883C10.3448 8.05883 10.3448 8 10.4036 8C10.6977 8.05883 11.5212 8.47059 11.8742 8.64706C12.2271 8.82353 12.2271 8.88236 12.2271 8.88236C12.2271 8.88236 13.0506 8.88236 13.2859 8.82353C13.5212 8.82353 13.933 8.64706 14.5212 8.47059C15.1095 8.29412 15.2271 8.2353 15.3448 8.2353C15.4624 8.2353 16.5212 8.29412 17.4624 8.41177C18.4036 8.52941 19.2859 8.88236 19.4624 9L19.7565 9.05883L19.8153 8.88236L19.3448 8.70589C19.3448 8.70589 19.4036 8.41177 19.4036 8.35294C19.4036 8.29412 19.4624 8.2353 19.5212 8.2353C19.58 8.2353 20.1095 8.35294 20.2859 8.41177C20.4624 8.47059 21.0506 8.88236 21.1095 8.88236C21.1683 8.88236 21.1683 8.94118 21.1683 8.94118C21.1683 9.05883 21.0506 9.29412 21.0506 9.29412C21.0506 9.29412 21.2271 9.35294 21.2859 9.41177C21.3448 9.47059 21.5212 9.58824 21.6977 9.76471C21.8742 9.88236 21.8153 10.0588 21.8153 10.0588L22.2271 10.4706V10.6471L23.2271 11.6471V11.7059L22.7565 12C22.7565 12 23.4036 11.9412 23.8742 12.1765C24.3448 12.4118 24.4036 12.5294 24.4036 12.6471C24.2859 12.7059 24.1095 12.7647 24.1095 12.7647C23.7565 12.8824 22.8742 13.4706 22.8742 13.4706V13.5294L23.3448 13.6471C23.8742 13.1765 24.8153 13 25.5212 13.1176C27.933 13.5882 29.58 15.1765 29.933 16.5294C29.933 16.5882 29.9918 16.7059 29.9918 16.7647C32.4036 11.1176 32.1683 7.05883 31.9918 5.2353ZM23.5212 13.8235C23.58 13.8824 23.6389 13.8824 23.6977 13.9412C24.0506 14.1765 24.2271 14.2941 24.2859 14.8235C24.3448 15.2353 24.2271 15.8235 23.933 16.3529C25.58 17.4706 27.8742 16.5882 28.7565 17.4706C28.58 15.2353 25.2859 13 23.5212 13.8235ZM9.99182 10.9412L9.87417 11V11.4706L9.99182 11.4118V10.9412ZM26.9918 18.2353C25.7565 18.2353 24.5212 17.8235 23.6389 16.7647V16.8235C23.1095 17.5294 22.5212 17.5294 22.2859 17.5294C22.0506 17.5294 21.2859 17.1765 20.9918 16.8235C20.6977 16.4706 20.6977 15.8235 20.6977 15.8235L19.5212 15.4118L18.0506 14.5882L17.8153 14.5294C17.3448 14.7647 16.7565 14.5882 16.2271 14.1765C16.1683 14.4118 15.8742 15 15.5212 15.2941C15.1683 15.5882 14.4624 16 13.933 16C13.4036 16 12.2271 15.4118 11.8742 14.5882C11.5212 13.7647 11.8742 12.8824 11.8742 12.8824L11.2859 12.7647L11.0506 12.4706C11.0506 12.4706 10.3448 13.0588 9.58005 12.8235C8.81534 12.5882 8.16829 11.9412 7.99181 11.3529C7.87417 10.7647 8.05064 10.2353 8.10946 10.1765C7.99181 9.76471 7.99181 9.52942 7.99181 9.52942H7.93299V9.35294C7.16829 9.88235 6.28593 10.1177 5.34476 10.1177C4.28593 10.1177 3.28593 9.76471 2.4624 9.2353C2.58005 10.5294 2.93299 12.0588 3.40358 13.7647C4.05064 16.1176 6.16828 16.8824 9.34475 17.4118C16.3448 18.5294 23.0506 23.8824 22.58 27.1765C24.3448 25.7059 26.2271 23.5294 28.1095 20.2941C28.8742 19.0588 28.1683 18.2353 26.9918 18.2353ZM8.28593 10.1177L8.22711 10.7647H8.63887V10.7059H8.58005V10.6471H8.52123L8.58005 10.5294L8.63887 10.2353L8.58005 10.1765V10.0588L8.63887 10L8.6977 9.29412L8.40358 9.11765C8.52122 8.64706 8.81534 8.2353 8.81534 8.2353H8.63887C8.34475 8.58824 8.22711 9.05883 8.22711 9.05883C8.22711 9.05883 8.16828 9.82353 8.16828 9.94118C8.16828 10.1176 8.28593 10.1177 8.28593 10.1177ZM14.7565 14.0588L15.0506 15C15.6389 14.5882 15.7565 13.9412 15.7565 13.9412L14.8153 14L14.7565 14.0588ZM15.2859 12.5882L14.8153 13.4118L14.8742 13.4706L15.8153 13.5294C15.8153 12.8824 15.2859 12.5882 15.2859 12.5882ZM9.40358 10.7647L9.34475 11.1176H9.40358V10.7647ZM13.8742 13L14.3448 13.3529L14.4624 13.2941L14.9918 12.4706C14.3448 12.4118 13.8742 13 13.8742 13ZM9.52123 10.8235L9.4624 10.7647V11.1765H9.52123V10.8235ZM9.6977 10.9412L9.63887 11.3529H9.6977V10.9412ZM9.81534 11L9.75652 11.4118H9.81534V11ZM9.58005 10.8824L9.52123 11.2941H9.58005V10.8824Z" fill="white"/>
<path d="M33.4035 5.11765L33.3447 4.47059L32.7565 4.05882C30.2859 2.35294 25.58 0.35294 17.1682 0.35294C13.9918 0.35294 11.1094 0.647058 8.57999 1.23529C7.69764 0.470587 6.52117 0 5.28588 0C2.52117 0 0.227051 2.23529 0.227051 5.05882C0.227051 5.94118 0.462348 6.76471 0.874113 7.52941C0.99176 11.8824 2.3447 16.4118 4.99176 21C9.3447 28.3529 13.9918 30.5294 16.2271 31.5294C16.4035 31.5882 16.5212 31.6471 16.6388 31.7059L17.2271 32L17.8153 31.7059C17.9329 31.6471 18.1094 31.5882 18.2271 31.5294C20.5212 30.5294 25.1094 28.3529 29.3447 21C33.9918 12.9412 33.58 7.05882 33.4035 5.11765Z" fill="white"/>
<path d="M15.8742 11.4706C15.8742 11.4706 16.6389 11.5294 17.2859 12.3529L16.933 12.4118L16.7565 12.3529C16.7565 12.3529 16.2271 11.7059 15.8742 11.4706ZM14.6977 15.1177L14.3448 14.2353H14.2271L13.6389 14.9412C14.0506 15.2941 14.6977 15.1177 14.6977 15.1177ZM20.1095 9.94118L19.8153 10.0588L20.1683 10.7059L21.3448 11.1176C20.8742 10.1176 20.1095 9.94118 20.1095 9.94118ZM16.7565 11.1765C17.1095 11.5882 17.4624 12.1765 17.4624 12.1765C18.0506 11.5882 19.2859 11.3529 20.8742 11.4118C18.6389 10.9412 16.7565 11.1765 16.7565 11.1765ZM14.58 10.2941C14.58 10.2941 15.2271 10.2941 16.1095 10.4706C15.5212 10.0588 14.58 9.82353 14.58 9.82353V10.2941ZM19.9918 13.5294L18.9918 14.4118L19.7565 14.6471L20.5212 13.8235L20.1095 13.6471L19.9918 13.5294ZM13.3448 8.88236C13.3448 8.88236 13.7565 9.11765 13.8153 9.11765C13.8742 9.11765 14.6977 9.41177 15.0506 9.52942C15.3448 9.64706 15.5212 9.52942 15.5801 9.52942C15.6389 9.52942 16.6389 8.94118 16.6389 8.94118C15.7565 8.58824 14.933 8.35294 14.933 8.35294C14.8742 8.35294 13.3448 8.88236 13.3448 8.88236ZM19.3448 9.41177C19.2859 9.29412 19.1683 9.29412 18.4624 9.17647C17.8153 9.11765 17.2271 9.05883 17.1095 9.05883C16.9918 9.05883 16.933 9.11765 16.933 9.11765C16.933 9.11765 16.58 9.35294 16.2859 9.52942C15.9918 9.70589 15.933 9.76471 15.8742 9.88236C15.8153 9.94118 15.9918 10.1765 15.9918 10.1765L16.4624 10.7647C16.5212 10.7647 16.6977 10.8824 16.6977 10.8824C16.6977 10.8824 17.6389 10.8235 18.2271 10.7647H19.7565C19.8153 10.7647 19.7565 10.5294 19.6389 10.2353C19.5212 10 19.3448 9.41177 19.3448 9.41177ZM13.7565 10.0588C13.7565 10.0588 13.8153 10.0588 13.933 10.1177C14.0506 10.1177 14.1095 10 14.1095 9.88236C14.1095 9.70589 13.933 9.64706 13.933 9.64706H13.8153L13.6389 9.70589L13.58 10.1177H13.6389L13.7565 10.0588C13.6977 9.94118 13.6977 9.88236 13.6977 9.76471C13.6977 9.70588 13.8153 9.58824 13.8742 9.58824C13.8742 9.58824 13.9918 9.58824 13.933 9.82353C13.933 10.0588 13.7565 10.0588 13.7565 10.0588ZM23.6977 14.7059L23.2271 15.3529V15.4118H23.8742C23.9918 15 23.6977 14.7059 23.6977 14.7059ZM11.933 11.6471H11.8153L11.5212 11.5882C11.2271 11.5294 11.3448 11 11.3448 11L10.9918 11.1176C10.8742 10.8824 10.3448 10.2353 10.3448 10.2353L10.2271 10.7059C10.2859 10.7647 10.58 11.2353 10.6389 11.3529L10.4624 11.5294C10.4624 11.5294 10.4036 11.6471 10.4036 11.7059C10.4036 11.7647 10.3448 11.8235 10.3448 11.8235L10.1095 11.9412H10.0506L9.22711 11.2941V11.7647H9.28593C9.34475 11.8824 9.4624 12.1176 9.75652 12.2353C9.99181 12.3529 10.2859 12.3529 10.4036 12.2941C10.5212 12.3529 10.58 12.3529 10.6389 12.4118C10.8742 12.5294 10.933 12.4706 10.933 12.4706L11.2859 12.3529H11.3448L11.4036 12.2941L11.5212 12.0588C11.5212 12.0588 12.1095 12.1176 12.3448 12.1176C12.5801 11.7647 13.3448 11.2353 13.8742 11.1765C14.4036 11.1765 15.2859 11.2941 15.9918 12C16.6389 12.7059 16.4624 13.6471 16.4624 13.6471L17.7565 14.0588L17.1683 13.6471C16.6977 12.4706 15.5801 11.4118 15.5801 11.4118C15.5801 11.4118 15.2859 11.3529 15.1095 11.3529C14.933 11.2941 14.8153 11.1765 14.8153 11.1765C14.8153 11.1765 14.7565 11.1176 14.6389 10.9412L14.5212 10.7059C14.5212 10.7059 14.4036 10.5882 14.2271 10.4706C14.0506 10.3529 13.4036 10.2941 13.0506 10.2353C12.6977 10.1765 12.6977 10.2353 12.6977 10.2353C13.6977 10.4706 13.9918 10.5294 14.0506 10.5882C14.0506 10.5882 14.1095 10.7059 14.1683 10.7647C13.3448 10.5882 12.58 10.7059 12.4036 10.7647C12.5212 10.9412 12.5212 11.1765 12.4036 11.3529C12.2859 11.4706 11.933 11.6471 11.933 11.6471ZM23.1095 15.8824L23.2859 16.6471C23.2859 16.6471 23.4624 16.4706 23.6389 16.2353C23.8153 16 23.8742 15.7647 23.8742 15.7647L23.1683 15.8235L23.1095 15.8824ZM8.93299 10.5294L8.87417 11.1765H9.22711L9.28593 10.7647V11H9.34475V10.6471H9.28593V10.4118L9.81534 10.7059L9.87417 10.8235L9.99182 10.9412H10.1095L10.1683 10.8824V10.8235C9.81534 10.8235 9.81534 10.6471 9.81534 10.6471C9.81534 10.6471 9.87416 10.2353 9.93299 10.1177C9.99181 10 10.2271 10.0588 10.2271 10.0588L10.1683 10H10.0506C9.93299 9.94118 9.58005 9.70588 9.4624 9.64706V9.58824L9.52123 9.52942V9.29412H9.58005C9.58005 9.2353 9.63887 9.2353 9.63887 9.17647C9.75652 9.17647 10.6389 9 10.6389 9L9.81534 8.82353V8.76471C9.58005 8.70588 9.40358 8.64706 9.28593 8.58824C8.99181 8.94118 8.87417 9.41177 8.87417 9.41177C8.87417 9.41177 8.81534 10.2353 8.81534 10.3529C8.75652 10.4706 8.93299 10.5294 8.93299 10.5294ZM22.7565 15.1765L22.8742 15.3529L22.933 15.2941L23.4036 14.7059V14.6471C23.1683 14.6471 22.7565 15.1765 22.7565 15.1765ZM21.3448 14.1176L20.9918 14L20.1683 14.9412L20.7565 15.1177C20.8742 14.6471 21.3448 14.1176 21.3448 14.1176ZM22.58 15.4706C22.2859 16.0588 22.3448 16.4706 22.3448 16.4706L22.6389 15.8235V15.7059C22.6977 15.7059 22.6389 15.5882 22.58 15.4706ZM22.2859 11.6471C22.2859 11.6471 22.1683 11.8824 22.1095 11.9412C22.0506 12 21.6389 12.0588 21.4036 12.1176C21.1683 12.2353 20.7565 12.4118 20.6389 12.5294C20.58 12.5882 20.5801 12.7647 20.5801 12.8235C20.5801 12.8235 20.6977 12.8824 20.7565 12.8824L20.2271 13.3529L20.3448 13.4706L21.6389 13.8824C21.933 13.6471 22.3448 13.5882 22.3448 13.5882C22.1095 13.4706 21.1095 13.0588 20.8153 12.9412C20.8153 12.9412 20.6389 12.8824 20.6389 12.8235V12.6471C20.6389 12.6471 21.4036 12.0588 22.58 12.0588L22.7565 11.7059L22.2859 11.6471ZM23.0506 16.8235L22.8153 16.1176H22.7565L22.4036 16.7647L22.4624 16.8235C22.7565 16.9412 23.0506 16.8235 23.0506 16.8235ZM14.1683 10.1177L14.3448 10.1765C14.3448 10.1765 14.4624 10.1765 14.4624 10.0588V9.82353L14.2859 9.70589L14.0506 9.64706C14.1095 9.70588 14.1095 9.76471 14.1095 9.76471H14.1683C14.1683 9.70588 14.2271 9.70588 14.2271 9.76471C14.2271 9.76471 14.3448 9.82353 14.2859 10C14.3448 10.0588 14.2271 10.1177 14.1683 10.1177ZM13.6389 13.3529C13.2271 14.1177 13.5212 14.6471 13.5212 14.6471L14.0506 13.8824V13.7647L13.6389 13.3529ZM9.81534 8.82353L10.5212 9C10.58 9 10.9918 8.94118 10.9918 8.94118L9.87417 8.64706L9.81534 8.82353ZM10.2271 8.64706C11.1683 8.76471 11.3448 8.94118 11.3448 8.94118C11.3448 8.94118 11.6977 8.88236 11.8742 8.88236C11.58 8.64706 10.2859 8.2353 10.2859 8.2353C10.2859 8.2353 10.2271 8.41177 10.2271 8.64706ZM11.6389 10.4706C11.4624 10.5882 11.2859 10.9412 11.3448 11.2353C11.4036 11.5294 11.4624 11.5294 11.6389 11.5294C11.3448 11.4118 11.4036 10.9412 11.6389 10.6471C11.8153 10.4118 11.9918 10.5882 11.9918 10.5882C11.9918 10.5882 11.8153 10.3529 11.6389 10.4706ZM7.4624 19.1765C6.6977 19.1765 5.81534 19.4706 6.34475 20.2941C10.6977 27.7647 15.2859 29.5294 17.2271 30.4706C18.1095 30.0588 19.5212 29.4118 21.2271 28.2353C22.2271 27.5882 22.1095 26.5882 21.8742 25.9412C20.6389 22.8824 13.8742 19.4118 7.4624 19.1765ZM31.9918 5.2353C30.2271 4 25.8742 1.76471 17.2271 1.76471C14.2271 1.76471 11.6977 2.05883 9.6977 2.47059C10.1683 3.2353 10.4036 4.11765 10.4036 5.05883C10.4036 6.35294 9.93299 7.52941 9.16829 8.41177C9.34476 8.47059 9.58005 8.52941 9.87417 8.58824L9.99182 8.29412C9.99182 8.29412 10.1095 8.29412 10.1683 8.35294C10.1683 8.05883 10.3448 8.05883 10.3448 8.05883C10.3448 8.05883 10.3448 8 10.4036 8C10.6977 8.05883 11.5212 8.47059 11.8742 8.64706C12.2271 8.82353 12.2271 8.88236 12.2271 8.88236C12.2271 8.88236 13.0506 8.88236 13.2859 8.82353C13.5212 8.82353 13.933 8.64706 14.5212 8.47059C15.1095 8.29412 15.2271 8.2353 15.3448 8.2353C15.4624 8.2353 16.5212 8.29412 17.4624 8.41177C18.4036 8.52941 19.2859 8.88236 19.4624 9L19.7565 9.05883L19.8153 8.88236L19.3448 8.70589C19.3448 8.70589 19.4036 8.41177 19.4036 8.35294C19.4036 8.29412 19.4624 8.2353 19.5212 8.2353C19.58 8.2353 20.1095 8.35294 20.2859 8.41177C20.4624 8.47059 21.0506 8.88236 21.1095 8.88236C21.1683 8.88236 21.1683 8.94118 21.1683 8.94118C21.1683 9.05883 21.0506 9.29412 21.0506 9.29412C21.0506 9.29412 21.2271 9.35294 21.2859 9.41177C21.3448 9.47059 21.5212 9.58824 21.6977 9.76471C21.8742 9.88236 21.8153 10.0588 21.8153 10.0588L22.2271 10.4706V10.6471L23.2271 11.6471V11.7059L22.7565 12C22.7565 12 23.4036 11.9412 23.8742 12.1765C24.3448 12.4118 24.4036 12.5294 24.4036 12.6471C24.2859 12.7059 24.1095 12.7647 24.1095 12.7647C23.7565 12.8824 22.8742 13.4706 22.8742 13.4706V13.5294L23.3448 13.6471C23.8742 13.1765 24.8153 13 25.5212 13.1176C27.933 13.5882 29.58 15.1765 29.933 16.5294C29.933 16.5882 29.9918 16.7059 29.9918 16.7647C32.4036 11.1176 32.1683 7.05883 31.9918 5.2353ZM23.5212 13.8235C23.58 13.8824 23.6389 13.8824 23.6977 13.9412C24.0506 14.1765 24.2271 14.2941 24.2859 14.8235C24.3448 15.2353 24.2271 15.8235 23.933 16.3529C25.58 17.4706 27.8742 16.5882 28.7565 17.4706C28.58 15.2353 25.2859 13 23.5212 13.8235ZM9.99182 10.9412L9.87417 11V11.4706L9.99182 11.4118V10.9412ZM26.9918 18.2353C25.7565 18.2353 24.5212 17.8235 23.6389 16.7647V16.8235C23.1095 17.5294 22.5212 17.5294 22.2859 17.5294C22.0506 17.5294 21.2859 17.1765 20.9918 16.8235C20.6977 16.4706 20.6977 15.8235 20.6977 15.8235L19.5212 15.4118L18.0506 14.5882L17.8153 14.5294C17.3448 14.7647 16.7565 14.5882 16.2271 14.1765C16.1683 14.4118 15.8742 15 15.5212 15.2941C15.1683 15.5882 14.4624 16 13.933 16C13.4036 16 12.2271 15.4118 11.8742 14.5882C11.5212 13.7647 11.8742 12.8824 11.8742 12.8824L11.2859 12.7647L11.0506 12.4706C11.0506 12.4706 10.3448 13.0588 9.58005 12.8235C8.81534 12.5882 8.16829 11.9412 7.99181 11.3529C7.87417 10.7647 8.05064 10.2353 8.10946 10.1765C7.99181 9.76471 7.99181 9.52942 7.99181 9.52942H7.93299V9.35294C7.16829 9.88235 6.28593 10.1177 5.34476 10.1177C4.28593 10.1177 3.28593 9.76471 2.4624 9.2353C2.58005 10.5294 2.93299 12.0588 3.40358 13.7647C4.05064 16.1176 6.16828 16.8824 9.34475 17.4118C16.3448 18.5294 23.0506 23.8824 22.58 27.1765C24.3448 25.7059 26.2271 23.5294 28.1095 20.2941C28.8742 19.0588 28.1683 18.2353 26.9918 18.2353ZM8.28593 10.1177L8.22711 10.7647H8.63887V10.7059H8.58005V10.6471H8.52123L8.58005 10.5294L8.63887 10.2353L8.58005 10.1765V10.0588L8.63887 10L8.6977 9.29412L8.40358 9.11765C8.52122 8.64706 8.81534 8.2353 8.81534 8.2353H8.63887C8.34475 8.58824 8.22711 9.05883 8.22711 9.05883C8.22711 9.05883 8.16828 9.82353 8.16828 9.94118C8.16828 10.1176 8.28593 10.1177 8.28593 10.1177ZM14.7565 14.0588L15.0506 15C15.6389 14.5882 15.7565 13.9412 15.7565 13.9412L14.8153 14L14.7565 14.0588ZM15.2859 12.5882L14.8153 13.4118L14.8742 13.4706L15.8153 13.5294C15.8153 12.8824 15.2859 12.5882 15.2859 12.5882ZM9.40358 10.7647L9.34475 11.1176H9.40358V10.7647ZM13.8742 13L14.3448 13.3529L14.4624 13.2941L14.9918 12.4706C14.3448 12.4118 13.8742 13 13.8742 13ZM9.52123 10.8235L9.4624 10.7647V11.1765H9.52123V10.8235ZM9.6977 10.9412L9.63887 11.3529H9.6977V10.9412ZM9.81534 11L9.75652 11.4118H9.81534V11ZM9.58005 10.8824L9.52123 11.2941H9.58005V10.8824Z" fill="url(#paint0_radial_295_5711)"/>
<path opacity="0.4" d="M31.9918 5.23529C32.1682 7.41176 32.4623 12.7647 28.1094 20.2941C23.8153 27.7647 19.1682 29.5294 17.2271 30.4706V29.3529C20.8153 27.4118 23.9329 24.2941 26.4035 19.3529C29.2859 13.6471 29.6388 9 29.4035 6.64706L31.9918 5.23529Z" fill="white"/>
<path opacity="0.4" d="M31.9917 5.2353C30.227 4 25.8741 1.76471 17.227 1.76471C14.227 1.76471 11.6976 2.05883 9.69763 2.47059C10.1094 3.11765 10.3447 3.88236 10.4035 4.70589C12.6388 4.29412 15.0506 4.05883 17.6388 4.11765C23.1682 4.17647 27.6388 5.41177 29.4623 6.64706L31.9917 5.2353Z" fill="url(#paint1_linear_295_5711)"/>
<path d="M5.34469 8.70589C7.35891 8.70589 8.99175 7.07305 8.99175 5.05883C8.99175 3.04462 7.35891 1.41177 5.34469 1.41177C3.33048 1.41177 1.69763 3.04462 1.69763 5.05883C1.69763 7.07305 3.33048 8.70589 5.34469 8.70589Z" fill="url(#paint2_radial_295_5711)"/>
<path d="M66.7564 15.4706H63.2858V5.05881H66.7564V8.5294L68.8741 5.05881H72.7564L69.2859 10.2941L72.7564 15.5294H68.8741L66.7564 12.0588V15.4706ZM86.6388 7.76469H88.58V5.05881H81.227V7.76469H83.1682V15.4706H86.6388V7.76469ZM80.4623 12.7647H76.58V11.5882H79.6388V8.94116H76.58V7.76469H80.4623V5.05881H73.1094V15.4706H80.4623V12.7647ZM41.9917 24H38.1094V16.2353H34.6388V26.647H41.9917V24ZM50.1094 24H46.227V22.8235H49.2859V20.1176H46.227V18.9412H50.1094V16.2353H42.7564V26.647H50.1094V24ZM88.58 24H84.6976V22.8235H87.7564V20.1176H84.6976V18.9412H88.58V16.2353H81.227V26.647H88.58V24ZM54.7564 10.2941C54.7564 13.2941 52.3447 15.7059 49.3447 15.7059C46.3447 15.7059 43.9329 13.2941 43.9329 10.2941C43.9329 7.29411 46.3447 4.88234 49.3447 4.88234C52.3447 4.88234 54.7564 7.29411 54.7564 10.2941ZM51.2859 10.2941C51.2859 9.23528 50.4035 8.35293 49.3447 8.35293C48.2859 8.35293 47.4035 9.23528 47.4035 10.2941C47.4035 11.3529 48.2859 12.2353 49.3447 12.2353C50.4035 12.2353 51.2859 11.3529 51.2859 10.2941ZM76.9917 22.2353C76.9917 22.8823 76.4623 23.4118 75.8153 23.4118C75.1682 23.4118 74.6388 22.8823 74.6388 22.2353V16.2353H71.1682V22.2353C71.1682 24.7647 73.227 26.8823 75.8153 26.8823C78.3447 26.8823 80.4623 24.8235 80.4623 22.2353V16.2353H76.9917V22.2353ZM62.5212 11.4118C62.1682 11.8823 61.227 12.1765 60.58 12.1765C59.5211 12.1765 58.6388 11.2941 58.6388 10.2353C58.6388 9.17646 59.5211 8.2941 60.58 8.2941C61.227 8.2941 62.1682 8.58822 62.5212 9.05881V5.05881C62.0506 4.94116 61.1094 4.82352 60.58 4.82352C57.58 4.82352 55.1682 7.23528 55.1682 10.2353C55.1682 13.2353 57.58 15.647 60.58 15.647C61.1094 15.647 61.9917 15.5882 62.5212 15.4118V11.4118ZM43.5211 8.35293C43.5211 9.82352 42.7564 11.1176 41.4623 11.3529L44.1094 15.4706H40.227L38.1094 12V15.4706H34.6388V5.05881H40.0506C41.9917 5.05881 43.5211 6.41175 43.5211 8.35293ZM40.0506 8.94116C40.0506 8.29411 39.5211 7.76469 38.8741 7.76469H38.1094V10.0588H38.8741C39.5211 10.0588 40.0506 9.58822 40.0506 8.94116ZM57.0506 25.1176H54.3447L53.9917 26.647H50.5211L53.9917 16.2353H57.4623L60.9329 26.647H57.4623L57.0506 25.1176ZM56.4035 22.4118L55.6976 19.4706L54.9917 22.4118H56.4035ZM70.5211 20.5294H65.5211V23.0588H67.1094C66.9329 23.4118 66.58 24 65.5211 24C64.3447 24 63.4035 23 63.4035 21.7059C63.4035 20.2941 64.4623 19.4706 65.5211 19.4118C66.6976 19.3529 67.1682 19.8235 67.5212 20.1765L69.9329 17.8823C68.7564 16.7059 67.4035 16.1176 65.5211 16.1176C62.5211 16.1176 60.1094 18.5294 60.1094 21.5294C60.1094 24.5294 62.5211 26.9412 65.5211 26.9412C68.6388 26.9412 70.5211 24.7059 70.5211 21.9412V20.5294Z" fill="white"/>
</g>
<defs>
<radialGradient id="paint0_radial_295_5711" cx="0" cy="0" r="1" gradientUnits="userSpaceOnUse" gradientTransform="translate(5.24299 4.96353) scale(28.1035 28.1035)">
<stop stop-color="#00AEFF"/>
<stop offset="0.131" stop-color="#00A5F7"/>
<stop offset="0.345" stop-color="#008DE0"/>
<stop offset="0.616" stop-color="#0065BA"/>
<stop offset="0.928" stop-color="#002F87"/>
<stop offset="1" stop-color="#00217A"/>
</radialGradient>
<linearGradient id="paint1_linear_295_5711" x1="9.69763" y1="4.20589" x2="32.0288" y2="4.20589" gradientUnits="userSpaceOnUse">
<stop stop-color="white"/>
<stop offset="1" stop-color="white" stop-opacity="0"/>
</linearGradient>
<radialGradient id="paint2_radial_295_5711" cx="0" cy="0" r="1" gradientUnits="userSpaceOnUse" gradientTransform="translate(4.36175 3.58883) scale(4.87412)">
<stop stop-color="white"/>
<stop offset="0.679" stop-color="#7A7A7A"/>
<stop offset="1" stop-color="#404040"/>
</radialGradient>
<clipPath id="clip0_295_5711">
<rect width="88.3529" height="32" fill="white" transform="translate(0.227051)"/>
</clipPath>
</defs>
</svg>
