<svg width="89" height="32" viewBox="0 0 89 32" fill="none" xmlns="http://www.w3.org/2000/svg">
<g clip-path="url(#clip0_314_6290)">
<path d="M15.6461 11.4715C15.6461 11.4715 16.4108 11.5303 17.0579 12.3539L16.705 12.4127L16.5285 12.3539C16.5285 12.3539 15.9991 11.7068 15.6461 11.4715ZM14.4697 15.1186L14.1167 14.2362H13.9991L13.4108 14.9421C13.8226 15.295 14.4697 15.1186 14.4697 15.1186ZM19.8814 9.94209L19.5873 10.0597L19.9403 10.7068L21.1167 11.1186C20.6461 10.1186 19.8814 9.94209 19.8814 9.94209ZM16.5285 11.1774C16.8814 11.5892 17.2344 12.1774 17.2344 12.1774C17.8226 11.5892 19.0579 11.3539 20.6461 11.4127C18.4108 10.9421 16.5285 11.1774 16.5285 11.1774ZM14.352 10.295C14.352 10.295 14.9991 10.295 15.8814 10.4715C15.2932 10.0597 14.352 9.82445 14.352 9.82445V10.295ZM19.7638 13.5303L18.7638 14.4127L19.5285 14.648L20.2932 13.8244L19.8814 13.648L19.7638 13.5303ZM13.1167 8.88327C13.1167 8.88327 13.5285 9.11857 13.5873 9.11857C13.6461 9.11857 14.4697 9.41268 14.8226 9.53033C15.1167 9.64798 15.2932 9.53033 15.352 9.53033C15.4108 9.53033 16.4108 8.9421 16.4108 8.9421C15.5285 8.58915 14.705 8.35386 14.705 8.35386C14.6461 8.35386 13.1167 8.88327 13.1167 8.88327ZM19.1167 9.41268C19.0579 9.29504 18.9403 9.29504 18.2344 9.17739C17.5873 9.11856 16.9991 9.05974 16.8814 9.05974C16.7638 9.05974 16.705 9.11857 16.705 9.11857C16.705 9.11857 16.352 9.35386 16.0579 9.53033C15.7638 9.7068 15.705 9.76562 15.6461 9.88327C15.5873 9.94209 15.7638 10.1774 15.7638 10.1774L16.2344 10.7656C16.2932 10.7656 16.4697 10.8833 16.4697 10.8833C16.4697 10.8833 17.4108 10.8244 17.9991 10.7656H19.5285C19.5873 10.7656 19.5285 10.5303 19.4108 10.2362C19.2932 10.0009 19.1167 9.41268 19.1167 9.41268ZM13.5285 10.0597C13.5285 10.0597 13.5873 10.0597 13.705 10.1186C13.8226 10.1186 13.8814 10.0009 13.8814 9.88327C13.8814 9.7068 13.705 9.64798 13.705 9.64798H13.5873L13.4108 9.7068L13.352 10.1186H13.4108L13.5285 10.0597C13.4697 9.94209 13.4697 9.88327 13.4697 9.76562C13.4697 9.7068 13.5873 9.58915 13.6461 9.58915C13.6461 9.58915 13.7638 9.58915 13.705 9.82445C13.705 10.0597 13.5285 10.0597 13.5285 10.0597ZM23.4697 14.7068L22.9991 15.3539V15.4127H23.6461C23.7638 15.0009 23.4697 14.7068 23.4697 14.7068ZM11.705 11.648H11.5873L11.2932 11.5892C10.9991 11.5303 11.1167 11.0009 11.1167 11.0009L10.7638 11.1186C10.6461 10.8833 10.1167 10.2362 10.1167 10.2362L9.99908 10.7068C10.0579 10.7656 10.352 11.2362 10.4108 11.3539L10.2344 11.5303C10.2344 11.5303 10.1756 11.648 10.1756 11.7068C10.1756 11.7656 10.1167 11.8244 10.1167 11.8244L9.88143 11.9421H9.82261L8.99908 11.295V11.7656H9.0579C9.11673 11.8833 9.23438 12.1186 9.52849 12.2362C9.76379 12.3539 10.0579 12.3539 10.1756 12.295C10.2932 12.3539 10.352 12.3539 10.4108 12.4127C10.6461 12.5303 10.705 12.4715 10.705 12.4715L11.0579 12.3539H11.1167L11.1755 12.295L11.2932 12.0597C11.2932 12.0597 11.8814 12.1186 12.1167 12.1186C12.352 11.7656 13.1167 11.2362 13.6461 11.1774C14.1756 11.1774 15.0579 11.295 15.7638 12.0009C16.4108 12.7068 16.2344 13.648 16.2344 13.648L17.5285 14.0597L16.9403 13.648C16.4697 12.4715 15.352 11.4127 15.352 11.4127C15.352 11.4127 15.0579 11.3539 14.8814 11.3539C14.705 11.295 14.5873 11.1774 14.5873 11.1774C14.5873 11.1774 14.5285 11.1186 14.4108 10.9421L14.2932 10.7068C14.2932 10.7068 14.1756 10.5892 13.9991 10.4715C13.8226 10.3539 13.1756 10.295 12.8226 10.2362C12.4697 10.1774 12.4697 10.2362 12.4697 10.2362C13.4697 10.4715 13.7638 10.5303 13.8226 10.5892C13.8226 10.5892 13.8814 10.7068 13.9403 10.7656C13.1167 10.5892 12.352 10.7068 12.1756 10.7656C12.2932 10.9421 12.2932 11.1774 12.1756 11.3539C12.0579 11.4715 11.705 11.648 11.705 11.648ZM22.8814 15.8833L23.0579 16.648C23.0579 16.648 23.2344 16.4715 23.4108 16.2362C23.5873 16.0009 23.6461 15.7656 23.6461 15.7656L22.9403 15.8244L22.8814 15.8833ZM8.70496 10.5303L8.64614 11.1774H8.99908L9.0579 10.7656V11.0009H9.11673V10.648H9.0579V10.4127L9.58732 10.7068L9.64614 10.8244L9.76379 10.9421H9.88143L9.94026 10.8833V10.8244C9.58731 10.8244 9.58732 10.648 9.58732 10.648C9.58732 10.648 9.64614 10.2362 9.70496 10.1186C9.76378 10.0009 9.99908 10.0597 9.99908 10.0597L9.94026 10.0009H9.82261C9.70496 9.9421 9.35202 9.7068 9.23438 9.64798V9.58915L9.2932 9.53033V9.29504H9.35202C9.35202 9.23621 9.41084 9.23621 9.41084 9.17739C9.52849 9.17739 10.4108 9.00092 10.4108 9.00092L9.58732 8.82445V8.76562C9.35202 8.7068 9.17555 8.64798 9.0579 8.58915C8.76379 8.94209 8.64614 9.41268 8.64614 9.41268C8.64614 9.41268 8.58732 10.2362 8.58732 10.3539C8.52849 10.4715 8.70496 10.5303 8.70496 10.5303ZM22.5285 15.1774L22.6461 15.3539L22.705 15.295L23.1755 14.7068V14.648C22.9403 14.648 22.5285 15.1774 22.5285 15.1774ZM21.1167 14.1186L20.7638 14.0009L19.9403 14.9421L20.5285 15.1186C20.6461 14.648 21.1167 14.1186 21.1167 14.1186ZM22.352 15.4715C22.0579 16.0597 22.1167 16.4715 22.1167 16.4715L22.4108 15.8244V15.7068C22.4697 15.7068 22.4108 15.5892 22.352 15.4715ZM22.0579 11.648C22.0579 11.648 21.9403 11.8833 21.8814 11.9421C21.8226 12.0009 21.4108 12.0597 21.1755 12.1186C20.9403 12.2362 20.5285 12.4127 20.4108 12.5303C20.352 12.5892 20.352 12.7656 20.352 12.8244C20.352 12.8244 20.4697 12.8833 20.5285 12.8833L19.9991 13.3539L20.1167 13.4715L21.4108 13.8833C21.705 13.648 22.1167 13.5892 22.1167 13.5892C21.8814 13.4715 20.8814 13.0597 20.5873 12.9421C20.5873 12.9421 20.4108 12.8833 20.4108 12.8244V12.648C20.4108 12.648 21.1755 12.0597 22.352 12.0597L22.5285 11.7068L22.0579 11.648ZM22.8226 16.8244L22.5873 16.1186H22.5285L22.1756 16.7656L22.2344 16.8244C22.5285 16.9421 22.8226 16.8244 22.8226 16.8244ZM13.9403 10.1186L14.1167 10.1774C14.1167 10.1774 14.2344 10.1774 14.2344 10.0597V9.82445L14.0579 9.7068L13.8226 9.64798C13.8814 9.7068 13.8814 9.76562 13.8814 9.76562H13.9403C13.9403 9.7068 13.9991 9.7068 13.9991 9.76562C13.9991 9.76562 14.1167 9.82445 14.0579 10.0009C14.1167 10.0597 13.9991 10.1186 13.9403 10.1186ZM13.4108 13.3539C12.9991 14.1186 13.2932 14.648 13.2932 14.648L13.8226 13.8833V13.7656L13.4108 13.3539ZM9.58732 8.82445L10.2932 9.00092C10.352 9.00092 10.7638 8.9421 10.7638 8.9421L9.64614 8.64798L9.58732 8.82445ZM9.99908 8.64798C10.9403 8.76563 11.1167 8.9421 11.1167 8.9421C11.1167 8.9421 11.4697 8.88327 11.6461 8.88327C11.352 8.64798 10.0579 8.23621 10.0579 8.23621C10.0579 8.23621 9.99908 8.41268 9.99908 8.64798ZM11.4108 10.4715C11.2344 10.5892 11.0579 10.9421 11.1167 11.2362C11.1756 11.5303 11.2344 11.5303 11.4108 11.5303C11.1167 11.4127 11.1756 10.9421 11.4108 10.648C11.5873 10.4127 11.7638 10.5892 11.7638 10.5892C11.7638 10.5892 11.5873 10.3539 11.4108 10.4715ZM7.23437 19.1774C6.46967 19.1774 5.58732 19.4715 6.11673 20.295C10.4697 27.7656 15.0579 29.5303 16.9991 30.4715C17.8814 30.0597 19.2932 29.4127 20.9991 28.2362C21.9991 27.5892 21.8814 26.5892 21.6461 25.9421C20.4108 22.8833 13.6461 19.4127 7.23437 19.1774ZM31.7638 5.23621C29.9991 4.00092 25.6461 1.76562 16.9991 1.76562C13.9991 1.76562 11.4697 2.05974 9.46967 2.47151C9.94026 3.23621 10.1756 4.11857 10.1756 5.05974C10.1756 6.35386 9.70496 7.53033 8.94026 8.41268C9.11673 8.47151 9.35202 8.53033 9.64614 8.58915L9.76379 8.29504C9.76379 8.29504 9.88143 8.29504 9.94026 8.35386C9.94026 8.05974 10.1167 8.05974 10.1167 8.05974C10.1167 8.05974 10.1167 8.00092 10.1756 8.00092C10.4697 8.05974 11.2932 8.47151 11.6461 8.64798C11.9991 8.82445 11.9991 8.88327 11.9991 8.88327C11.9991 8.88327 12.8226 8.88327 13.0579 8.82445C13.2932 8.82445 13.705 8.64798 14.2932 8.47151C14.8814 8.29504 14.9991 8.23621 15.1167 8.23621C15.2344 8.23621 16.2932 8.29504 17.2344 8.41268C18.1756 8.53033 19.0579 8.88327 19.2344 9.00092L19.5285 9.05974L19.5873 8.88327L19.1167 8.7068C19.1167 8.7068 19.1756 8.41268 19.1756 8.35386C19.1756 8.29504 19.2344 8.23621 19.2932 8.23621C19.352 8.23621 19.8814 8.35386 20.0579 8.41268C20.2344 8.47151 20.8226 8.88327 20.8814 8.88327C20.9403 8.88327 20.9403 8.9421 20.9403 8.9421C20.9403 9.05974 20.8226 9.29504 20.8226 9.29504C20.8226 9.29504 20.9991 9.35386 21.0579 9.41268C21.1167 9.47151 21.2932 9.58915 21.4697 9.76562C21.6461 9.88327 21.5873 10.0597 21.5873 10.0597L21.9991 10.4715V10.648L22.9991 11.648V11.7068L22.5285 12.0009C22.5285 12.0009 23.1756 11.9421 23.6461 12.1774C24.1167 12.4127 24.1756 12.5303 24.1756 12.648C24.0579 12.7068 23.8814 12.7656 23.8814 12.7656C23.5285 12.8833 22.6461 13.4715 22.6461 13.4715V13.5303L23.1167 13.648C23.6461 13.1774 24.5873 13.0009 25.2932 13.1186C27.705 13.5892 29.352 15.1774 29.705 16.5303C29.705 16.5892 29.7638 16.7068 29.7638 16.7656C32.1756 11.1186 31.9403 7.05974 31.7638 5.23621ZM23.2932 13.8244C23.352 13.8833 23.4108 13.8833 23.4697 13.9421C23.8226 14.1774 23.9991 14.295 24.0579 14.8244C24.1167 15.2362 23.9991 15.8244 23.705 16.3539C25.352 17.4715 27.6461 16.5892 28.5285 17.4715C28.352 15.2362 25.0579 13.0009 23.2932 13.8244ZM9.76379 10.9421L9.64614 11.0009V11.4715L9.76379 11.4127V10.9421ZM26.7638 18.2362C25.5285 18.2362 24.2932 17.8244 23.4108 16.7656V16.8244C22.8814 17.5303 22.2932 17.5303 22.0579 17.5303C21.8226 17.5303 21.0579 17.1774 20.7638 16.8244C20.4697 16.4715 20.4697 15.8244 20.4697 15.8244L19.2932 15.4127L17.8226 14.5892L17.5873 14.5303C17.1167 14.7656 16.5285 14.5892 15.9991 14.1774C15.9403 14.4127 15.6461 15.0009 15.2932 15.295C14.9403 15.5892 14.2344 16.0009 13.705 16.0009C13.1756 16.0009 11.9991 15.4127 11.6461 14.5892C11.2932 13.7656 11.6461 12.8833 11.6461 12.8833L11.0579 12.7656L10.8226 12.4715C10.8226 12.4715 10.1167 13.0597 9.35202 12.8244C8.58731 12.5892 7.94026 11.9421 7.76379 11.3539C7.64614 10.7656 7.82261 10.2362 7.88143 10.1774C7.76379 9.76562 7.76379 9.53033 7.76379 9.53033H7.70496V9.35386C6.94026 9.88327 6.05791 10.1186 5.11673 10.1186C4.05791 10.1186 3.0579 9.76562 2.23438 9.23621C2.35202 10.5303 2.70496 12.0597 3.17555 13.7656C3.82261 16.1186 5.94026 16.8833 9.11673 17.4127C16.1167 18.5303 22.8226 23.8833 22.352 27.1774C24.1167 25.7068 25.9991 23.5303 27.8814 20.295C28.6461 19.0597 27.9403 18.2362 26.7638 18.2362ZM8.0579 10.1186L7.99908 10.7656H8.41085V10.7068H8.35202V10.648H8.2932L8.35202 10.5303L8.41085 10.2362L8.35202 10.1774V10.0597L8.41085 10.0009L8.46967 9.29504L8.17555 9.11857C8.2932 8.64798 8.58732 8.23621 8.58732 8.23621H8.41085C8.11673 8.58915 7.99908 9.05974 7.99908 9.05974C7.99908 9.05974 7.94026 9.82445 7.94026 9.94209C7.94026 10.1186 8.0579 10.1186 8.0579 10.1186ZM14.5285 14.0597L14.8226 15.0009C15.4108 14.5892 15.5285 13.9421 15.5285 13.9421L14.5873 14.0009L14.5285 14.0597ZM15.0579 12.5892L14.5873 13.4127L14.6461 13.4715L15.5873 13.5303C15.5873 12.8833 15.0579 12.5892 15.0579 12.5892ZM9.17555 10.7656L9.11673 11.1186H9.17555V10.7656ZM13.6461 13.0009L14.1167 13.3539L14.2344 13.295L14.7638 12.4715C14.1167 12.4127 13.6461 13.0009 13.6461 13.0009ZM9.2932 10.8244L9.23438 10.7656V11.1774H9.2932V10.8244ZM9.46967 10.9421L9.41084 11.3539H9.46967V10.9421ZM9.58732 11.0009L9.52849 11.4127H9.58732V11.0009ZM9.35202 10.8833L9.2932 11.295H9.35202V10.8833Z" fill="white"/>
<path d="M33.1765 5.11765L33.1176 4.47059L32.5294 4.05882C30.0588 2.35294 25.3529 0.35294 16.9412 0.35294C13.7647 0.35294 10.8824 0.647058 8.35294 1.23529C7.47059 0.470587 6.29412 0 5.05883 0C2.29412 0 0 2.23529 0 5.05882C0 5.94118 0.235298 6.76471 0.647062 7.52941C0.764709 11.8824 2.11765 16.4118 4.76471 21C9.11765 28.3529 13.7647 30.5294 16 31.5294C16.1765 31.5882 16.2941 31.6471 16.4118 31.7059L17 32L17.5882 31.7059C17.7059 31.6471 17.8824 31.5882 18 31.5294C20.2941 30.5294 24.8824 28.3529 29.1176 21C33.7647 12.9412 33.3529 7.05882 33.1765 5.11765Z" fill="white"/>
<path d="M15.6461 11.4715C15.6461 11.4715 16.4108 11.5303 17.0579 12.3539L16.705 12.4127L16.5285 12.3539C16.5285 12.3539 15.9991 11.7068 15.6461 11.4715ZM14.4697 15.1186L14.1167 14.2362H13.9991L13.4108 14.9421C13.8226 15.295 14.4697 15.1186 14.4697 15.1186ZM19.8814 9.94209L19.5873 10.0597L19.9403 10.7068L21.1167 11.1186C20.6461 10.1186 19.8814 9.94209 19.8814 9.94209ZM16.5285 11.1774C16.8814 11.5892 17.2344 12.1774 17.2344 12.1774C17.8226 11.5892 19.0579 11.3539 20.6461 11.4127C18.4108 10.9421 16.5285 11.1774 16.5285 11.1774ZM14.352 10.295C14.352 10.295 14.9991 10.295 15.8814 10.4715C15.2932 10.0597 14.352 9.82445 14.352 9.82445V10.295ZM19.7638 13.5303L18.7638 14.4127L19.5285 14.648L20.2932 13.8244L19.8814 13.648L19.7638 13.5303ZM13.1167 8.88327C13.1167 8.88327 13.5285 9.11857 13.5873 9.11857C13.6461 9.11857 14.4697 9.41268 14.8226 9.53033C15.1167 9.64798 15.2932 9.53033 15.352 9.53033C15.4108 9.53033 16.4108 8.9421 16.4108 8.9421C15.5285 8.58915 14.705 8.35386 14.705 8.35386C14.6461 8.35386 13.1167 8.88327 13.1167 8.88327ZM19.1167 9.41268C19.0579 9.29504 18.9403 9.29504 18.2344 9.17739C17.5873 9.11856 16.9991 9.05974 16.8814 9.05974C16.7638 9.05974 16.705 9.11857 16.705 9.11857C16.705 9.11857 16.352 9.35386 16.0579 9.53033C15.7638 9.7068 15.705 9.76562 15.6461 9.88327C15.5873 9.94209 15.7638 10.1774 15.7638 10.1774L16.2344 10.7656C16.2932 10.7656 16.4697 10.8833 16.4697 10.8833C16.4697 10.8833 17.4108 10.8244 17.9991 10.7656H19.5285C19.5873 10.7656 19.5285 10.5303 19.4108 10.2362C19.2932 10.0009 19.1167 9.41268 19.1167 9.41268ZM13.5285 10.0597C13.5285 10.0597 13.5873 10.0597 13.705 10.1186C13.8226 10.1186 13.8814 10.0009 13.8814 9.88327C13.8814 9.7068 13.705 9.64798 13.705 9.64798H13.5873L13.4108 9.7068L13.352 10.1186H13.4108L13.5285 10.0597C13.4697 9.94209 13.4697 9.88327 13.4697 9.76562C13.4697 9.7068 13.5873 9.58915 13.6461 9.58915C13.6461 9.58915 13.7638 9.58915 13.705 9.82445C13.705 10.0597 13.5285 10.0597 13.5285 10.0597ZM23.4697 14.7068L22.9991 15.3539V15.4127H23.6461C23.7638 15.0009 23.4697 14.7068 23.4697 14.7068ZM11.705 11.648H11.5873L11.2932 11.5892C10.9991 11.5303 11.1167 11.0009 11.1167 11.0009L10.7638 11.1186C10.6461 10.8833 10.1167 10.2362 10.1167 10.2362L9.99908 10.7068C10.0579 10.7656 10.352 11.2362 10.4108 11.3539L10.2344 11.5303C10.2344 11.5303 10.1756 11.648 10.1756 11.7068C10.1756 11.7656 10.1167 11.8244 10.1167 11.8244L9.88143 11.9421H9.82261L8.99908 11.295V11.7656H9.0579C9.11673 11.8833 9.23438 12.1186 9.52849 12.2362C9.76379 12.3539 10.0579 12.3539 10.1756 12.295C10.2932 12.3539 10.352 12.3539 10.4108 12.4127C10.6461 12.5303 10.705 12.4715 10.705 12.4715L11.0579 12.3539H11.1167L11.1755 12.295L11.2932 12.0597C11.2932 12.0597 11.8814 12.1186 12.1167 12.1186C12.352 11.7656 13.1167 11.2362 13.6461 11.1774C14.1756 11.1774 15.0579 11.295 15.7638 12.0009C16.4108 12.7068 16.2344 13.648 16.2344 13.648L17.5285 14.0597L16.9403 13.648C16.4697 12.4715 15.352 11.4127 15.352 11.4127C15.352 11.4127 15.0579 11.3539 14.8814 11.3539C14.705 11.295 14.5873 11.1774 14.5873 11.1774C14.5873 11.1774 14.5285 11.1186 14.4108 10.9421L14.2932 10.7068C14.2932 10.7068 14.1756 10.5892 13.9991 10.4715C13.8226 10.3539 13.1756 10.295 12.8226 10.2362C12.4697 10.1774 12.4697 10.2362 12.4697 10.2362C13.4697 10.4715 13.7638 10.5303 13.8226 10.5892C13.8226 10.5892 13.8814 10.7068 13.9403 10.7656C13.1167 10.5892 12.352 10.7068 12.1756 10.7656C12.2932 10.9421 12.2932 11.1774 12.1756 11.3539C12.0579 11.4715 11.705 11.648 11.705 11.648ZM22.8814 15.8833L23.0579 16.648C23.0579 16.648 23.2344 16.4715 23.4108 16.2362C23.5873 16.0009 23.6461 15.7656 23.6461 15.7656L22.9403 15.8244L22.8814 15.8833ZM8.70496 10.5303L8.64614 11.1774H8.99908L9.0579 10.7656V11.0009H9.11673V10.648H9.0579V10.4127L9.58732 10.7068L9.64614 10.8244L9.76379 10.9421H9.88143L9.94026 10.8833V10.8244C9.58731 10.8244 9.58732 10.648 9.58732 10.648C9.58732 10.648 9.64614 10.2362 9.70496 10.1186C9.76378 10.0009 9.99908 10.0597 9.99908 10.0597L9.94026 10.0009H9.82261C9.70496 9.9421 9.35202 9.7068 9.23438 9.64798V9.58915L9.2932 9.53033V9.29504H9.35202C9.35202 9.23621 9.41084 9.23621 9.41084 9.17739C9.52849 9.17739 10.4108 9.00092 10.4108 9.00092L9.58732 8.82445V8.76562C9.35202 8.7068 9.17555 8.64798 9.0579 8.58915C8.76379 8.94209 8.64614 9.41268 8.64614 9.41268C8.64614 9.41268 8.58732 10.2362 8.58732 10.3539C8.52849 10.4715 8.70496 10.5303 8.70496 10.5303ZM22.5285 15.1774L22.6461 15.3539L22.705 15.295L23.1755 14.7068V14.648C22.9403 14.648 22.5285 15.1774 22.5285 15.1774ZM21.1167 14.1186L20.7638 14.0009L19.9403 14.9421L20.5285 15.1186C20.6461 14.648 21.1167 14.1186 21.1167 14.1186ZM22.352 15.4715C22.0579 16.0597 22.1167 16.4715 22.1167 16.4715L22.4108 15.8244V15.7068C22.4697 15.7068 22.4108 15.5892 22.352 15.4715ZM22.0579 11.648C22.0579 11.648 21.9403 11.8833 21.8814 11.9421C21.8226 12.0009 21.4108 12.0597 21.1755 12.1186C20.9403 12.2362 20.5285 12.4127 20.4108 12.5303C20.352 12.5892 20.352 12.7656 20.352 12.8244C20.352 12.8244 20.4697 12.8833 20.5285 12.8833L19.9991 13.3539L20.1167 13.4715L21.4108 13.8833C21.705 13.648 22.1167 13.5892 22.1167 13.5892C21.8814 13.4715 20.8814 13.0597 20.5873 12.9421C20.5873 12.9421 20.4108 12.8833 20.4108 12.8244V12.648C20.4108 12.648 21.1755 12.0597 22.352 12.0597L22.5285 11.7068L22.0579 11.648ZM22.8226 16.8244L22.5873 16.1186H22.5285L22.1756 16.7656L22.2344 16.8244C22.5285 16.9421 22.8226 16.8244 22.8226 16.8244ZM13.9403 10.1186L14.1167 10.1774C14.1167 10.1774 14.2344 10.1774 14.2344 10.0597V9.82445L14.0579 9.7068L13.8226 9.64798C13.8814 9.7068 13.8814 9.76562 13.8814 9.76562H13.9403C13.9403 9.7068 13.9991 9.7068 13.9991 9.76562C13.9991 9.76562 14.1167 9.82445 14.0579 10.0009C14.1167 10.0597 13.9991 10.1186 13.9403 10.1186ZM13.4108 13.3539C12.9991 14.1186 13.2932 14.648 13.2932 14.648L13.8226 13.8833V13.7656L13.4108 13.3539ZM9.58732 8.82445L10.2932 9.00092C10.352 9.00092 10.7638 8.9421 10.7638 8.9421L9.64614 8.64798L9.58732 8.82445ZM9.99908 8.64798C10.9403 8.76563 11.1167 8.9421 11.1167 8.9421C11.1167 8.9421 11.4697 8.88327 11.6461 8.88327C11.352 8.64798 10.0579 8.23621 10.0579 8.23621C10.0579 8.23621 9.99908 8.41268 9.99908 8.64798ZM11.4108 10.4715C11.2344 10.5892 11.0579 10.9421 11.1167 11.2362C11.1756 11.5303 11.2344 11.5303 11.4108 11.5303C11.1167 11.4127 11.1756 10.9421 11.4108 10.648C11.5873 10.4127 11.7638 10.5892 11.7638 10.5892C11.7638 10.5892 11.5873 10.3539 11.4108 10.4715ZM7.23437 19.1774C6.46967 19.1774 5.58732 19.4715 6.11673 20.295C10.4697 27.7656 15.0579 29.5303 16.9991 30.4715C17.8814 30.0597 19.2932 29.4127 20.9991 28.2362C21.9991 27.5892 21.8814 26.5892 21.6461 25.9421C20.4108 22.8833 13.6461 19.4127 7.23437 19.1774ZM31.7638 5.23621C29.9991 4.00092 25.6461 1.76562 16.9991 1.76562C13.9991 1.76562 11.4697 2.05974 9.46967 2.47151C9.94026 3.23621 10.1756 4.11857 10.1756 5.05974C10.1756 6.35386 9.70496 7.53033 8.94026 8.41268C9.11673 8.47151 9.35202 8.53033 9.64614 8.58915L9.76379 8.29504C9.76379 8.29504 9.88143 8.29504 9.94026 8.35386C9.94026 8.05974 10.1167 8.05974 10.1167 8.05974C10.1167 8.05974 10.1167 8.00092 10.1756 8.00092C10.4697 8.05974 11.2932 8.47151 11.6461 8.64798C11.9991 8.82445 11.9991 8.88327 11.9991 8.88327C11.9991 8.88327 12.8226 8.88327 13.0579 8.82445C13.2932 8.82445 13.705 8.64798 14.2932 8.47151C14.8814 8.29504 14.9991 8.23621 15.1167 8.23621C15.2344 8.23621 16.2932 8.29504 17.2344 8.41268C18.1756 8.53033 19.0579 8.88327 19.2344 9.00092L19.5285 9.05974L19.5873 8.88327L19.1167 8.7068C19.1167 8.7068 19.1756 8.41268 19.1756 8.35386C19.1756 8.29504 19.2344 8.23621 19.2932 8.23621C19.352 8.23621 19.8814 8.35386 20.0579 8.41268C20.2344 8.47151 20.8226 8.88327 20.8814 8.88327C20.9403 8.88327 20.9403 8.9421 20.9403 8.9421C20.9403 9.05974 20.8226 9.29504 20.8226 9.29504C20.8226 9.29504 20.9991 9.35386 21.0579 9.41268C21.1167 9.47151 21.2932 9.58915 21.4697 9.76562C21.6461 9.88327 21.5873 10.0597 21.5873 10.0597L21.9991 10.4715V10.648L22.9991 11.648V11.7068L22.5285 12.0009C22.5285 12.0009 23.1756 11.9421 23.6461 12.1774C24.1167 12.4127 24.1756 12.5303 24.1756 12.648C24.0579 12.7068 23.8814 12.7656 23.8814 12.7656C23.5285 12.8833 22.6461 13.4715 22.6461 13.4715V13.5303L23.1167 13.648C23.6461 13.1774 24.5873 13.0009 25.2932 13.1186C27.705 13.5892 29.352 15.1774 29.705 16.5303C29.705 16.5892 29.7638 16.7068 29.7638 16.7656C32.1756 11.1186 31.9403 7.05974 31.7638 5.23621ZM23.2932 13.8244C23.352 13.8833 23.4108 13.8833 23.4697 13.9421C23.8226 14.1774 23.9991 14.295 24.0579 14.8244C24.1167 15.2362 23.9991 15.8244 23.705 16.3539C25.352 17.4715 27.6461 16.5892 28.5285 17.4715C28.352 15.2362 25.0579 13.0009 23.2932 13.8244ZM9.76379 10.9421L9.64614 11.0009V11.4715L9.76379 11.4127V10.9421ZM26.7638 18.2362C25.5285 18.2362 24.2932 17.8244 23.4108 16.7656V16.8244C22.8814 17.5303 22.2932 17.5303 22.0579 17.5303C21.8226 17.5303 21.0579 17.1774 20.7638 16.8244C20.4697 16.4715 20.4697 15.8244 20.4697 15.8244L19.2932 15.4127L17.8226 14.5892L17.5873 14.5303C17.1167 14.7656 16.5285 14.5892 15.9991 14.1774C15.9403 14.4127 15.6461 15.0009 15.2932 15.295C14.9403 15.5892 14.2344 16.0009 13.705 16.0009C13.1756 16.0009 11.9991 15.4127 11.6461 14.5892C11.2932 13.7656 11.6461 12.8833 11.6461 12.8833L11.0579 12.7656L10.8226 12.4715C10.8226 12.4715 10.1167 13.0597 9.35202 12.8244C8.58731 12.5892 7.94026 11.9421 7.76379 11.3539C7.64614 10.7656 7.82261 10.2362 7.88143 10.1774C7.76379 9.76562 7.76379 9.53033 7.76379 9.53033H7.70496V9.35386C6.94026 9.88327 6.05791 10.1186 5.11673 10.1186C4.05791 10.1186 3.0579 9.76562 2.23438 9.23621C2.35202 10.5303 2.70496 12.0597 3.17555 13.7656C3.82261 16.1186 5.94026 16.8833 9.11673 17.4127C16.1167 18.5303 22.8226 23.8833 22.352 27.1774C24.1167 25.7068 25.9991 23.5303 27.8814 20.295C28.6461 19.0597 27.9403 18.2362 26.7638 18.2362ZM8.0579 10.1186L7.99908 10.7656H8.41085V10.7068H8.35202V10.648H8.2932L8.35202 10.5303L8.41085 10.2362L8.35202 10.1774V10.0597L8.41085 10.0009L8.46967 9.29504L8.17555 9.11857C8.2932 8.64798 8.58732 8.23621 8.58732 8.23621H8.41085C8.11673 8.58915 7.99908 9.05974 7.99908 9.05974C7.99908 9.05974 7.94026 9.82445 7.94026 9.94209C7.94026 10.1186 8.0579 10.1186 8.0579 10.1186ZM14.5285 14.0597L14.8226 15.0009C15.4108 14.5892 15.5285 13.9421 15.5285 13.9421L14.5873 14.0009L14.5285 14.0597ZM15.0579 12.5892L14.5873 13.4127L14.6461 13.4715L15.5873 13.5303C15.5873 12.8833 15.0579 12.5892 15.0579 12.5892ZM9.17555 10.7656L9.11673 11.1186H9.17555V10.7656ZM13.6461 13.0009L14.1167 13.3539L14.2344 13.295L14.7638 12.4715C14.1167 12.4127 13.6461 13.0009 13.6461 13.0009ZM9.2932 10.8244L9.23438 10.7656V11.1774H9.2932V10.8244ZM9.46967 10.9421L9.41084 11.3539H9.46967V10.9421ZM9.58732 11.0009L9.52849 11.4127H9.58732V11.0009ZM9.35202 10.8833L9.2932 11.295H9.35202V10.8833Z" fill="url(#paint0_radial_314_6290)"/>
<path opacity="0.4" d="M31.7647 5.23438C31.9412 7.41085 32.2353 12.7638 27.8824 20.2932C23.5882 27.7638 18.9412 29.5285 17 30.4697V29.352C20.5882 27.4108 23.7059 24.2932 26.1765 19.352C29.0588 13.6461 29.4118 8.99908 29.1765 6.64614L31.7647 5.23438Z" fill="white"/>
<path opacity="0.4" d="M31.7648 5.23621C30.0001 4.00092 25.6472 1.76562 17.0001 1.76562C14.0001 1.76562 11.4707 2.05974 9.4707 2.47151C9.88247 3.11857 10.1178 3.88327 10.1766 4.7068C12.4119 4.29504 14.8236 4.05974 17.4119 4.11857C22.9413 4.17739 27.4119 5.41268 29.2354 6.64798L31.7648 5.23621Z" fill="url(#paint1_linear_314_6290)"/>
<path d="M5.11776 8.70623C7.13198 8.70623 8.76482 7.07338 8.76482 5.05917C8.76482 3.04495 7.13198 1.41211 5.11776 1.41211C3.10355 1.41211 1.4707 3.04495 1.4707 5.05917C1.4707 7.07338 3.10355 8.70623 5.11776 8.70623Z" fill="url(#paint2_radial_314_6290)"/>
<path d="M66.5298 15.4713H63.0592V5.05951H66.5298V8.5301L68.6474 5.05951H72.5298L69.0592 10.2948L72.5298 15.5301H68.6474L66.5298 12.0595V15.4713ZM86.4121 7.7654H88.3533V5.05951H81.0003V7.7654H82.9415V15.4713H86.4121V7.7654ZM80.2356 12.7654H76.3533V11.5889H79.4121V8.94187H76.3533V7.7654H80.2356V5.05951H72.8827V15.4713H80.2356V12.7654ZM41.7651 24.0007H37.8827V16.236H34.4121V26.6477H41.7651V24.0007ZM49.8827 24.0007H46.0003V22.8242H49.0592V20.1183H46.0003V18.9419H49.8827V16.236H42.5298V26.6477H49.8827V24.0007ZM88.3533 24.0007H84.4709V22.8242H87.5298V20.1183H84.4709V18.9419H88.3533V16.236H81.0003V26.6477H88.3533V24.0007ZM54.5298 10.2948C54.5298 13.2948 52.118 15.7066 49.118 15.7066C46.118 15.7066 43.7062 13.2948 43.7062 10.2948C43.7062 7.29481 46.118 4.88304 49.118 4.88304C52.118 4.88304 54.5298 7.29481 54.5298 10.2948ZM51.0592 10.2948C51.0592 9.23598 50.1768 8.35363 49.118 8.35363C48.0592 8.35363 47.1768 9.23598 47.1768 10.2948C47.1768 11.3536 48.0592 12.236 49.118 12.236C50.1768 12.236 51.0592 11.3536 51.0592 10.2948ZM76.765 22.236C76.765 22.883 76.2356 23.4125 75.5886 23.4125C74.9415 23.4125 74.4121 22.883 74.4121 22.236V16.236H70.9415V22.236C70.9415 24.7654 73.0003 26.883 75.5886 26.883C78.118 26.883 80.2356 24.8242 80.2356 22.236V16.236H76.765V22.236ZM62.2945 11.4125C61.9415 11.883 61.0003 12.1772 60.3533 12.1772C59.2945 12.1772 58.4121 11.2948 58.4121 10.236C58.4121 9.17716 59.2945 8.29481 60.3533 8.29481C61.0003 8.29481 61.9415 8.58892 62.2945 9.05951V5.05951C61.8239 4.94187 60.8827 4.82422 60.3533 4.82422C57.3533 4.82422 54.9415 7.23598 54.9415 10.236C54.9415 13.236 57.3533 15.6477 60.3533 15.6477C60.8827 15.6477 61.7651 15.5889 62.2945 15.4125V11.4125ZM43.2945 8.35363C43.2945 9.82422 42.5298 11.1183 41.2356 11.3536L43.8827 15.4713H40.0003L37.8827 12.0007V15.4713H34.4121V5.05951H39.8239C41.765 5.05951 43.2945 6.41246 43.2945 8.35363ZM39.8239 8.94187C39.8239 8.29481 39.2945 7.7654 38.6474 7.7654H37.8827V10.0595H38.6474C39.2945 10.0595 39.8239 9.58893 39.8239 8.94187ZM56.8239 25.1183H54.118L53.7651 26.6477H50.2945L53.7651 16.236H57.2356L60.7062 26.6477H57.2356L56.8239 25.1183ZM56.1768 22.4125L55.4709 19.4713L54.7651 22.4125H56.1768ZM70.2945 20.5301H65.2945V23.0595H66.8827C66.7062 23.4125 66.3533 24.0007 65.2945 24.0007C64.118 24.0007 63.1768 23.0007 63.1768 21.7066C63.1768 20.2948 64.2356 19.4713 65.2945 19.4125C66.4709 19.3536 66.9415 19.8242 67.2945 20.1772L69.7062 17.883C68.5298 16.7066 67.1768 16.1183 65.2945 16.1183C62.2945 16.1183 59.8827 18.5301 59.8827 21.5301C59.8827 24.5301 62.2945 26.9419 65.2945 26.9419C68.4121 26.9419 70.2945 24.7066 70.2945 21.9419V20.5301Z" fill="black"/>
</g>
<defs>
<radialGradient id="paint0_radial_314_6290" cx="0" cy="0" r="1" gradientUnits="userSpaceOnUse" gradientTransform="translate(5.01496 4.96445) scale(28.1035 28.1035)">
<stop stop-color="#00AEFF"/>
<stop offset="0.131" stop-color="#00A5F7"/>
<stop offset="0.345" stop-color="#008DE0"/>
<stop offset="0.616" stop-color="#0065BA"/>
<stop offset="0.928" stop-color="#002F87"/>
<stop offset="1" stop-color="#00217A"/>
</radialGradient>
<linearGradient id="paint1_linear_314_6290" x1="9.4707" y1="4.2068" x2="31.8019" y2="4.2068" gradientUnits="userSpaceOnUse">
<stop stop-color="white"/>
<stop offset="1" stop-color="white" stop-opacity="0"/>
</linearGradient>
<radialGradient id="paint2_radial_314_6290" cx="0" cy="0" r="1" gradientUnits="userSpaceOnUse" gradientTransform="translate(4.13482 3.58917) scale(4.87412)">
<stop stop-color="white"/>
<stop offset="0.679" stop-color="#7A7A7A"/>
<stop offset="1" stop-color="#404040"/>
</radialGradient>
<clipPath id="clip0_314_6290">
<rect width="88.3529" height="32" fill="white"/>
</clipPath>
</defs>
</svg>
