<svg width="103" height="32" viewBox="0 0 103 32" fill="none" xmlns="http://www.w3.org/2000/svg">
<g clip-path="url(#clip0_295_5804)">
<path d="M46.2316 14.7797C44.4546 14.1862 42.8178 13.6959 42.8178 12.1991C42.8178 10.9936 43.839 10.0608 45.3984 10.0608C46.0177 10.0356 46.6326 10.176 47.1796 10.4676C47.7265 10.7592 48.1858 11.1915 48.5099 11.7198L50.3975 10.3263C49.8017 9.57984 49.039 8.98379 48.1707 8.58613C47.3023 8.18848 46.3528 8.00034 45.3984 8.03687C42.545 8.03687 40.4362 9.90232 40.4362 12.2581C40.4362 15.1005 42.6998 15.9447 44.7975 16.6304C46.5745 17.2055 48.2703 17.7143 48.2703 19.2996C48.2703 20.6784 47.1901 21.7843 45.4758 21.7843C43.909 21.7843 42.6814 21.0028 41.7892 19.5318L39.7505 21.1097C40.4087 22.0125 41.2772 22.7412 42.2806 23.2326C43.2841 23.7241 44.3922 23.9634 45.509 23.93C48.7016 23.93 50.6703 21.6627 50.6703 19.2848C50.6519 16.4203 48.3514 15.5023 46.2316 14.7797Z" fill="#FF0008"/>
<path d="M60.5468 12.9843C56.6243 12.9364 55.5478 16.1364 55.6252 17.917C55.6252 18.1088 55.6252 23.5871 55.6252 23.5871H57.9072V18.1899C57.9072 16.3465 58.9542 15.1336 60.6021 15.1336C62.4454 15.1336 63.1828 16.7226 63.1828 18.1899V23.5834H65.4685V17.5852C65.4279 14.7207 63.2123 13.0175 60.5468 12.9843Z" fill="#FF0008"/>
<path d="M78.4564 8.46082H80.6684V23.5945H78.4564V8.46082Z" fill="#FF0008"/>
<path d="M84.4067 10.8866C84.4067 10.5635 84.2783 10.2536 84.0498 10.0251C83.8213 9.79657 83.5114 9.66821 83.1882 9.66821C82.8651 9.66821 82.5552 9.79657 82.3267 10.0251C82.0982 10.2536 81.9698 10.5635 81.9698 10.8866C81.9614 11.0491 81.9871 11.2116 82.0451 11.3636C82.1032 11.5155 82.1923 11.6537 82.3068 11.7693C82.4214 11.8849 82.5587 11.9752 82.7102 12.0346C82.8617 12.0941 83.0239 12.1212 83.1864 12.1143C83.3488 12.12 83.5107 12.0921 83.6618 12.0323C83.8129 11.9726 83.9501 11.8822 84.0647 11.767C84.1792 11.6517 84.2688 11.514 84.3276 11.3625C84.3865 11.211 84.4134 11.049 84.4067 10.8866ZM84.3108 13.224H82.0988V23.5834H84.3108V13.224Z" fill="#FF0008"/>
<path d="M54.3163 10.8866C54.3163 10.5635 54.188 10.2536 53.9595 10.0251C53.731 9.79657 53.4211 9.66821 53.0979 9.66821C52.7748 9.66821 52.4648 9.79657 52.2363 10.0251C52.0078 10.2536 51.8795 10.5635 51.8795 10.8866C51.8711 11.0491 51.8968 11.2116 51.9548 11.3636C52.0128 11.5155 52.102 11.6537 52.2165 11.7693C52.331 11.8849 52.4684 11.9752 52.6199 12.0346C52.7713 12.0941 52.9335 12.1212 53.0961 12.1143C53.2585 12.12 53.4203 12.0921 53.5715 12.0323C53.7226 11.9726 53.8598 11.8822 53.9743 11.767C54.0889 11.6517 54.1784 11.514 54.2373 11.3625C54.2961 11.211 54.323 11.049 54.3163 10.8866ZM54.2094 13.224H51.9974V23.5834H54.2094V13.224Z" fill="#FF0008"/>
<path d="M85.5901 13.224H87.3375V12.682C87.3375 9.44885 88.3256 8.44977 91.5588 8.44977H91.7468V10.4995C89.7892 10.4995 89.5643 10.8313 89.5643 12.7115V13.2313H91.7468V15.2221H89.5643V23.5945H87.3523V15.2147H85.6048L85.5901 13.224Z" fill="#FF0008"/>
<path d="M97.4095 13.0212C96.699 13.0161 95.9948 13.1536 95.3384 13.4255C94.682 13.6974 94.0868 14.0981 93.588 14.6041C93.0893 15.1101 92.6971 15.711 92.4347 16.3712C92.1722 17.0314 92.0449 17.7376 92.0602 18.4479C92.0602 21.4562 94.2427 23.7936 97.4943 23.8046C98.4824 23.8411 99.4605 23.5952 100.314 23.0957C101.167 22.5962 101.861 21.8638 102.313 20.9843L100.495 19.9705C100.23 20.5403 99.8051 21.0203 99.2713 21.3517C98.7376 21.6831 98.1187 21.8514 97.4906 21.8359C95.7026 21.8359 94.4639 20.7779 94.1726 19.1816H102.7V18.3078C102.722 17.6073 102.6 16.9097 102.342 16.2581C102.084 15.6065 101.695 15.0147 101.199 14.5193C100.703 14.0239 100.111 13.6353 99.4595 13.3777C98.8077 13.12 98.11 12.9987 97.4095 13.0212ZM100.469 17.283H94.2869C94.4802 16.6046 94.8923 16.0091 95.459 15.589C96.0257 15.169 96.7153 14.948 97.4206 14.9604C99.0095 14.9641 100.141 15.7899 100.469 17.283Z" fill="#FF0008"/>
<path d="M66.556 18.459C66.5392 17.0196 67.0943 15.6325 68.0992 14.6019C69.1042 13.5714 70.477 12.9817 71.9163 12.9622C74.803 12.9622 77.0555 15.3327 77.1108 18.3742L77.0776 23.9594C77.0776 27.388 74.932 29.1834 71.8352 29.1834C69.2103 29.1834 67.4371 27.9189 66.6371 26.2083L68.7126 25.2166C69.2398 26.3705 70.2352 27.1152 71.8352 27.1152C73.579 27.1152 74.9467 25.9355 74.9467 24.1401V22.9456C74.0721 23.609 73.003 23.9654 71.9053 23.9594C70.4672 23.9371 69.0967 23.3456 68.094 22.3146C67.0913 21.2836 66.5382 19.8971 66.556 18.459ZM68.7016 18.459C68.6907 19.3245 69.0226 20.1591 69.6249 20.7807C70.2272 21.4023 71.0509 21.7605 71.9163 21.777C73.6564 21.777 74.9578 20.3392 74.9578 18.459C74.9578 16.5788 73.6527 15.141 71.9163 15.141C71.0516 15.1594 70.229 15.5182 69.6271 16.1394C69.0252 16.7606 68.6926 17.5941 68.7016 18.459Z" fill="#FF0008"/>
<path d="M8.75694 4.09216H7.82422V2.51059H8.75694C10.7182 2.51171 12.6547 2.9497 14.4255 3.79273C16.1964 4.63576 17.7573 5.86267 18.9947 7.38432L17.7745 8.38709C16.6854 7.04561 15.3108 5.96397 13.7509 5.22098C12.1909 4.47798 10.4848 4.09235 8.75694 4.09216Z" fill="#FF0008"/>
<path d="M24.403 27.9115H25.332V29.5005H24.3956C22.4343 29.4993 20.4979 29.0613 18.727 28.2183C16.9561 27.3753 15.3953 26.1484 14.1578 24.6267L15.3781 23.624C16.4701 24.9635 17.8464 26.0432 19.4074 26.7848C20.9684 27.5263 22.6748 27.9112 24.403 27.9115Z" fill="#FF0008"/>
<path d="M13.1993 2.13088L12.3256 1.81383L12.8601 0.339172L13.7339 0.656229C15.5837 1.32506 17.2618 2.39673 18.6467 3.79371C20.0315 5.19068 21.0885 6.87802 21.7412 8.73365L20.2666 9.26453C19.6942 7.62421 18.7626 6.13246 17.5399 4.89827C16.3172 3.66407 14.8342 2.71859 13.1993 2.13088Z" fill="#FF0008"/>
<path d="M19.9532 29.8728L20.8269 30.1899L20.2924 31.6645L19.4186 31.3475C17.5688 30.6786 15.8907 29.607 14.5058 28.21C13.121 26.813 12.0639 25.1257 11.4113 23.27L12.8859 22.7392C13.4599 24.3786 14.3921 25.8695 15.6146 27.1035C16.8371 28.3374 18.3192 29.2835 19.9532 29.8728Z" fill="#FF0008"/>
<path d="M18.2205 1.81382L17.5127 1.21291L18.5265 0L19.2344 0.600923C20.7367 1.874 21.9378 3.4645 22.7513 5.2578C23.5647 7.05109 23.9702 9.00251 23.9385 10.9714L22.3606 10.9493C22.3898 9.21506 22.0335 7.49598 21.3176 5.91615C20.6016 4.33632 19.5438 2.93515 18.2205 1.81382Z" fill="#FF0008"/>
<path d="M14.9394 30.1862L15.6473 30.7871L14.6334 32L13.9256 31.3991C12.4233 30.126 11.2221 28.5355 10.4087 26.7422C9.59524 24.9489 9.18975 22.9975 9.22145 21.0286L10.7993 21.0507C10.7696 22.785 11.1257 24.5043 11.8417 26.0842C12.5577 27.6641 13.6157 29.0652 14.9394 30.1862Z" fill="#FF0008"/>
<path d="M22.7329 3.12627L22.2573 2.32628L23.6214 1.51154L24.097 2.31153C25.1065 4.00444 25.7292 5.89966 25.9204 7.86144C26.1116 9.82322 25.8666 11.803 25.203 13.659L23.7283 13.1171C24.3075 11.4811 24.5185 9.73743 24.3465 8.01049C24.1744 6.28355 23.6235 4.61584 22.7329 3.12627Z" fill="#FF0008"/>
<path d="M10.4269 28.8738L10.9025 29.6737L9.54583 30.4885L9.07025 29.6885C8.0625 27.9932 7.44267 26.0958 7.25526 24.1326C7.06786 22.1693 7.31754 20.1889 7.98638 18.3336L9.46104 18.8756C8.87405 20.5101 8.65624 22.2543 8.82324 23.9829C8.99024 25.7116 9.53791 27.3818 10.4269 28.8738Z" fill="#FF0008"/>
<path d="M26.803 6.08663L26.6334 5.16866L28.1854 4.87741L28.355 5.79539C28.7127 7.73324 28.6371 9.72625 28.1336 11.6314C27.63 13.5366 26.7111 15.3067 25.4426 16.8147L24.2371 15.7899C25.3546 14.4622 26.1642 12.9036 26.6079 11.2259C27.0515 9.54824 27.1181 7.79312 26.803 6.08663Z" fill="#FF0008"/>
<path d="M6.35694 25.9134L6.52652 26.8313L4.97445 27.1226L4.80486 26.2046C4.44714 24.2667 4.52277 22.2737 5.02631 20.3686C5.52985 18.4634 6.44882 16.6933 7.7173 15.1852L8.92284 16.2101C7.8042 17.5371 6.99383 19.0957 6.55013 20.7736C6.10643 22.4515 6.04046 24.2069 6.35694 25.9134Z" fill="#FF0008"/>
<path d="M29.5716 10.2157L29.7265 9.2977L31.2859 9.55945L31.1311 10.4774C30.8064 12.4185 30.0555 14.2634 28.9323 15.8794C27.809 17.4954 26.3415 18.8423 24.6352 19.823L23.85 18.4442C25.3529 17.5812 26.6457 16.3956 27.6351 14.9726C28.6245 13.5497 29.2859 11.925 29.5716 10.2157Z" fill="#FF0008"/>
<path d="M3.58828 21.7843L3.43345 22.7023L1.87769 22.4406L2.03252 21.5226C2.35674 19.5804 3.10834 17.7346 4.233 16.1183C5.35767 14.5021 6.82731 13.1559 8.53574 12.177L9.31363 13.5558C7.81 14.4184 6.51653 15.6039 5.52647 17.0268C4.53641 18.4497 3.87444 20.0746 3.58828 21.7843Z" fill="#FF0008"/>
<path d="M30.7514 14.9825L31.2049 14.1714L32.58 14.9493L32.1265 15.7604C31.17 17.4736 29.8445 18.9528 28.246 20.091C26.6476 21.2291 24.8161 21.9976 22.8841 22.341L22.6113 20.7816C24.3125 20.477 25.925 19.7989 27.3326 18.7961C28.7402 17.7933 29.9078 16.4908 30.7514 14.9825Z" fill="#FF0008"/>
<path d="M2.40853 17.0138L1.95507 17.8249L0.579956 17.0544L1.03341 16.2433C1.99124 14.5263 3.3198 13.0444 4.92242 11.9054C6.52504 10.7664 8.36141 9.99898 10.2979 9.659L10.5707 11.2184C8.86565 11.5188 7.24871 12.1947 5.83702 13.197C4.42533 14.1993 3.25423 15.5031 2.40853 17.0138Z" fill="#FF0008"/>
<path d="M30.1911 20.0885L30.8989 19.4949L31.9127 20.7115L31.2049 21.3051C29.7026 22.5678 27.9375 23.4795 26.0382 23.9738C24.1389 24.4681 22.1534 24.5324 20.2261 24.1622L20.5247 22.6065C22.2218 22.9316 23.97 22.8743 25.6421 22.4387C27.3143 22.0032 28.8683 21.2003 30.1911 20.0885Z" fill="#FF0008"/>
<path d="M2.97625 11.9115L2.23892 12.5051L1.2251 11.2885L1.93293 10.6949C3.4357 9.42658 5.20366 8.51121 7.10679 8.01613C9.00993 7.52104 10.9998 7.45885 12.9302 7.8341L12.6315 9.38986C10.9359 9.06745 9.18974 9.12646 7.51973 9.56262C5.84971 9.99877 4.2977 10.8011 2.97625 11.9115Z" fill="#FF0008"/>
<path d="M27.9938 24.5014L28.8638 24.1843L29.4021 25.659L28.532 25.976C26.6895 26.6516 24.7191 26.9065 22.7653 26.7222C20.8115 26.5378 18.9236 25.9189 17.2399 24.9106L18.0436 23.5502C19.5268 24.4391 21.1898 24.9858 22.9112 25.1503C24.6326 25.3149 26.369 25.0932 27.9938 24.5014Z" fill="#FF0008"/>
<path d="M5.16244 7.49492L4.2924 7.81198L3.75415 6.33732L4.6242 6.02026C6.46677 5.34472 8.43711 5.08979 10.3909 5.27414C12.3448 5.45849 14.2327 6.07745 15.9164 7.08571L15.1127 8.44608C13.6299 7.55593 11.9669 7.00854 10.2452 6.84397C8.52364 6.6794 6.78701 6.90181 5.16244 7.49492Z" fill="#FF0008"/>
<path d="M8.75694 4.09216H7.82422V2.51059H8.75694C10.7182 2.51171 12.6547 2.9497 14.4255 3.79273C16.1964 4.63576 17.7573 5.86267 18.9947 7.38432L17.7745 8.38709C16.6854 7.04561 15.3108 5.96397 13.7509 5.22098C12.1909 4.47798 10.4848 4.09235 8.75694 4.09216Z" fill="#FF0008"/>
<path d="M24.403 27.9115H25.332V29.5005H24.3956C22.4343 29.4993 20.4979 29.0613 18.727 28.2183C16.9561 27.3753 15.3953 26.1484 14.1578 24.6267L15.3781 23.624C16.4701 24.9635 17.8464 26.0432 19.4074 26.7848C20.9684 27.5263 22.6748 27.9112 24.403 27.9115Z" fill="#FF0008"/>
</g>
<defs>
<clipPath id="clip0_295_5804">
<rect width="102.12" height="32" fill="white" transform="translate(0.579956)"/>
</clipPath>
</defs>
</svg>
