<svg width="103" height="32" viewBox="0 0 103 32" fill="none" xmlns="http://www.w3.org/2000/svg">
<g clip-path="url(#clip0_314_6299)">
<path d="M46.0045 14.7805C44.2276 14.187 42.5907 13.6967 42.5907 12.1999C42.5907 10.9944 43.6119 10.0616 45.1714 10.0616C45.7907 10.0364 46.4056 10.1768 46.9525 10.4684C47.4995 10.76 47.9587 11.1923 48.2829 11.7206L50.1704 10.3271C49.5747 9.58063 48.8119 8.98458 47.9436 8.58693C47.0753 8.18927 46.1257 8.00113 45.1714 8.03767C42.3179 8.03767 40.2091 9.90311 40.2091 12.2589C40.2091 15.1013 42.4727 15.9455 44.5704 16.6312C46.3474 17.2063 48.0432 17.7151 48.0432 19.3003C48.0432 20.6791 46.9631 21.7851 45.2488 21.7851C43.682 21.7851 42.4543 21.0036 41.5621 19.5326L39.5234 21.1105C40.1817 22.0133 41.0502 22.742 42.0536 23.2334C43.057 23.7249 44.1652 23.9642 45.282 23.9308C48.4746 23.9308 50.4433 21.6635 50.4433 19.2856C50.4248 16.4211 48.1244 15.5031 46.0045 14.7805Z" fill="#FF0008"/>
<path d="M60.32 12.9849C56.3974 12.937 55.3209 16.137 55.3984 17.9176C55.3984 18.1093 55.3984 23.5877 55.3984 23.5877H57.6804V18.1904C57.6804 16.3471 58.7274 15.1342 60.3753 15.1342C62.2186 15.1342 62.956 16.7232 62.956 18.1904V23.584H65.2417V17.5858C65.2011 14.7213 62.9855 13.0181 60.32 12.9849Z" fill="#FF0008"/>
<path d="M78.2305 8.46094H80.4425V23.5946H78.2305V8.46094Z" fill="#FF0008"/>
<path d="M84.1806 10.8864C84.1806 10.5633 84.0522 10.2533 83.8237 10.0248C83.5952 9.79633 83.2853 9.66797 82.9622 9.66797C82.639 9.66797 82.3291 9.79633 82.1006 10.0248C81.8721 10.2533 81.7437 10.5633 81.7437 10.8864C81.7354 11.0489 81.761 11.2113 81.8191 11.3633C81.8771 11.5153 81.9662 11.6535 82.0808 11.7691C82.1953 11.8846 82.3327 11.975 82.4841 12.0344C82.6356 12.0938 82.7978 12.1209 82.9603 12.114C83.1227 12.1198 83.2846 12.0919 83.4357 12.0321C83.5869 11.9723 83.724 11.882 83.8386 11.7667C83.9532 11.6515 84.0427 11.5138 84.1015 11.3623C84.1604 11.2108 84.1873 11.0488 84.1806 10.8864ZM84.0847 13.2237H81.8728V23.5832H84.0847V13.2237Z" fill="#FF0008"/>
<path d="M54.0908 10.8864C54.0908 10.5633 53.9624 10.2533 53.7339 10.0248C53.5054 9.79633 53.1955 9.66797 52.8723 9.66797C52.5492 9.66797 52.2393 9.79633 52.0108 10.0248C51.7823 10.2533 51.6539 10.5633 51.6539 10.8864C51.6455 11.0489 51.6712 11.2113 51.7292 11.3633C51.7873 11.5153 51.8764 11.6535 51.9909 11.7691C52.1054 11.8846 52.2428 11.975 52.3943 12.0344C52.5457 12.0938 52.7079 12.1209 52.8705 12.114C53.0329 12.1198 53.1948 12.0919 53.3459 12.0321C53.497 11.9723 53.6342 11.882 53.7487 11.7667C53.8633 11.6515 53.9528 11.5138 54.0117 11.3623C54.0705 11.2108 54.0975 11.0488 54.0908 10.8864ZM53.9838 13.2237H51.7719V23.5832H53.9838V13.2237Z" fill="#FF0008"/>
<path d="M85.3633 13.2234H87.1107V12.6815C87.1107 9.4483 88.0988 8.44922 91.3319 8.44922H91.52V10.499C89.5624 10.499 89.3375 10.8308 89.3375 12.711V13.2308H91.52V15.2216H89.3375V23.5939H87.1255V15.2142H85.378L85.3633 13.2234Z" fill="#FF0008"/>
<path d="M97.1826 13.0222C96.4721 13.0171 95.7678 13.1545 95.1115 13.4264C94.4551 13.6983 93.8599 14.0991 93.3611 14.6051C92.8624 15.1111 92.4702 15.712 92.2077 16.3722C91.9453 17.0324 91.818 17.7386 91.8333 18.4489C91.8333 21.4572 94.0157 23.7945 97.2674 23.8056C98.2555 23.8421 99.2336 23.5962 100.087 23.0967C100.94 22.5972 101.634 21.8648 102.086 20.9853L100.268 19.9715C100.004 20.5412 99.5782 21.0213 99.0444 21.3527C98.5107 21.684 97.8917 21.8523 97.2637 21.8369C95.4757 21.8369 94.2369 20.7789 93.9457 19.1825H102.473V18.3088C102.495 17.6083 102.373 16.9107 102.115 16.2591C101.857 15.6075 101.468 15.0157 100.972 14.5203C100.476 14.0248 99.8844 13.6363 99.2326 13.3786C98.5808 13.121 97.8831 12.9997 97.1826 13.0222ZM100.242 17.2839H94.06C94.2533 16.6055 94.6653 16.01 95.232 15.59C95.7987 15.17 96.4883 14.949 97.1936 14.9613C98.7826 14.965 99.9144 15.7908 100.242 17.2839Z" fill="#FF0008"/>
<path d="M66.3305 18.4597C66.3138 17.0203 66.8688 15.6331 67.8738 14.6026C68.8788 13.572 70.2515 12.9823 71.6909 12.9629C74.5775 12.9629 76.83 15.3334 76.8853 18.3749L76.8522 23.9601C76.8522 27.3887 74.7065 29.1841 71.6098 29.1841C68.9849 29.1841 67.2116 27.9196 66.4116 26.209L68.4872 25.2173C69.0144 26.3712 70.0098 27.1159 71.6098 27.1159C73.3535 27.1159 74.7213 25.9362 74.7213 24.1408V22.9463C73.8466 23.6097 72.7776 23.9661 71.6798 23.9601C70.2418 23.9378 68.8712 23.3463 67.8685 22.3153C66.8658 21.2842 66.3128 19.8978 66.3305 18.4597ZM68.4761 18.4597C68.4653 19.3251 68.7972 20.1598 69.3995 20.7814C70.0017 21.403 70.8255 21.7612 71.6909 21.7776C73.431 21.7776 74.7323 20.3399 74.7323 18.4597C74.7323 16.5795 73.4273 15.1417 71.6909 15.1417C70.8261 15.1601 70.0035 15.5188 69.4016 16.14C68.7997 16.7612 68.4672 17.5948 68.4761 18.4597Z" fill="#FF0008"/>
<path d="M8.53037 4.09134H7.59766V2.50977H8.53037C10.4917 2.51089 12.4281 2.94888 14.199 3.79191C15.9699 4.63494 17.5307 5.86185 18.7682 7.3835L17.5479 8.38626C16.4589 7.04479 15.0843 5.96315 13.5243 5.22015C11.9643 4.47716 10.2583 4.09152 8.53037 4.09134Z" fill="#FF0008"/>
<path d="M24.1768 27.9106H25.1058V29.4995H24.1694C22.2081 29.4984 20.2717 29.0604 18.5008 28.2174C16.73 27.3744 15.1691 26.1475 13.9316 24.6258L15.1519 23.623C16.2439 24.9625 17.6202 26.0422 19.1812 26.7838C20.7422 27.5254 22.4486 27.9103 24.1768 27.9106Z" fill="#FF0008"/>
<path d="M12.9734 2.13155L12.0996 1.8145L12.6342 0.339844L13.5079 0.6569C15.3578 1.32573 17.0359 2.3974 18.4207 3.79438C19.8056 5.19135 20.8626 6.87869 21.5153 8.73432L20.0406 9.2652C19.4682 7.62488 18.5366 6.13314 17.3139 4.89894C16.0912 3.66474 14.6082 2.71926 12.9734 2.13155Z" fill="#FF0008"/>
<path d="M19.7275 29.8719L20.6012 30.189L20.0667 31.6636L19.1929 31.3466C17.343 30.6777 15.665 29.6061 14.2801 28.2091C12.8953 26.8121 11.8382 25.1248 11.1855 23.2692L12.6602 22.7383C13.2342 24.3777 14.1664 25.8686 15.3889 27.1026C16.6114 28.3366 18.0935 29.2826 19.7275 29.8719Z" fill="#FF0008"/>
<path d="M17.9949 1.81382L17.2871 1.21291L18.3009 0L19.0088 0.600923C20.5111 1.874 21.7122 3.4645 22.5257 5.2578C23.3391 7.05109 23.7446 9.00251 23.7129 10.9714L22.135 10.9493C22.1642 9.21506 21.808 7.49598 21.092 5.91615C20.376 4.33632 19.3182 2.93515 17.9949 1.81382Z" fill="#FF0008"/>
<path d="M14.7138 30.1869L15.4217 30.7878L14.4078 32.0007L13.7 31.3998C12.1977 30.1267 10.9966 28.5362 10.1831 26.7429C9.36966 24.9496 8.96416 22.9982 8.99587 21.0293L10.5737 21.0514C10.5441 22.7857 10.9001 24.505 11.6161 26.0849C12.3321 27.6648 13.3902 29.0659 14.7138 30.1869Z" fill="#FF0008"/>
<path d="M22.5068 3.12646L22.0312 2.32646L23.3953 1.51172L23.8709 2.31171C24.8804 4.00463 25.5031 5.89985 25.6943 7.86162C25.8855 9.8234 25.6405 11.8032 24.9769 13.6592L23.5022 13.1172C24.0814 11.4812 24.2925 9.73761 24.1204 8.01067C23.9484 6.28373 23.3974 4.61602 22.5068 3.12646Z" fill="#FF0008"/>
<path d="M10.2009 28.8741L10.6764 29.6741L9.31976 30.4888L8.84418 29.6888C7.83642 27.9936 7.21659 26.0962 7.02919 24.1329C6.84179 22.1697 7.09147 20.1893 7.76031 18.334L9.23496 18.8759C8.64797 20.5104 8.43017 22.2546 8.59717 23.9833C8.76417 25.7119 9.31184 27.3822 10.2009 28.8741Z" fill="#FF0008"/>
<path d="M26.5757 6.08617L26.4061 5.1682L27.9581 4.87695L28.1277 5.79493C28.4855 7.73279 28.4098 9.72579 27.9063 11.631C27.4028 13.5361 26.4838 15.3062 25.2153 16.8143L24.0098 15.7894C25.1273 14.4618 25.9369 12.9031 26.3806 11.2255C26.8242 9.54778 26.8908 7.79266 26.5757 6.08617Z" fill="#FF0008"/>
<path d="M6.13136 25.9137L6.30094 26.8316L4.74887 27.1229L4.57927 26.2049C4.22155 24.267 4.29718 22.274 4.80072 20.3689C5.30426 18.4637 6.22323 16.6936 7.49171 15.1855L8.69725 16.2104C7.57861 17.5374 6.76824 19.096 6.32454 20.7739C5.88084 22.4518 5.81487 24.2072 6.13136 25.9137Z" fill="#FF0008"/>
<path d="M29.3447 10.2148L29.4995 9.29688L31.059 9.55862L30.9042 10.4766C30.5795 12.4177 29.8286 14.2626 28.7053 15.8786C27.5821 17.4946 26.1145 18.8415 24.4083 19.8222L23.623 18.4434C25.126 17.5804 26.4187 16.3947 27.4081 14.9718C28.3976 13.5489 29.059 11.9242 29.3447 10.2148Z" fill="#FF0008"/>
<path d="M3.36099 21.7851L3.20615 22.7031L1.65039 22.4413L1.80523 21.5234C2.12945 19.5812 2.88104 17.7353 4.00571 16.1191C5.13037 14.5029 6.60001 13.1567 8.30845 12.1777L9.08633 13.5565C7.58271 14.4191 6.28923 15.6046 5.29917 17.0276C4.30911 18.4505 3.64714 20.0754 3.36099 21.7851Z" fill="#FF0008"/>
<path d="M30.5249 14.9829L30.9783 14.1719L32.3534 14.9497L31.9 15.7608C30.9434 17.4741 29.6179 18.9533 28.0195 20.0914C26.421 21.2295 24.5895 21.9981 22.6576 22.3415L22.3848 20.782C24.086 20.4774 25.6984 19.7993 27.106 18.7966C28.5136 17.7938 29.6812 16.4913 30.5249 14.9829Z" fill="#FF0008"/>
<path d="M2.18209 17.013L1.72863 17.8241L0.353516 17.0536L0.80697 16.2425C1.7648 14.5255 3.09336 13.0436 4.69598 11.9046C6.2986 10.7656 8.13497 9.99819 10.0715 9.6582L10.3443 11.2177C8.63921 11.518 7.02227 12.1939 5.61058 13.1962C4.19889 14.1986 3.02779 15.5023 2.18209 17.013Z" fill="#FF0008"/>
<path d="M29.965 20.0877L30.6728 19.4941L31.6866 20.7107L30.9788 21.3043C29.4765 22.567 27.7114 23.4787 25.8121 23.973C23.9129 24.4673 21.9273 24.5316 20 24.1614L20.2986 22.6057C21.9957 22.9308 23.7439 22.8735 25.4161 22.4379C27.0882 22.0024 28.6422 21.1995 29.965 20.0877Z" fill="#FF0008"/>
<path d="M2.7492 11.911L2.01187 12.5045L0.998047 11.288L1.70588 10.6944C3.20865 9.42606 4.97661 8.51069 6.87974 8.01561C8.78288 7.52053 10.7728 7.45833 12.7031 7.83358L12.4045 9.38934C10.7088 9.06693 8.96269 9.12594 7.29268 9.5621C5.62266 9.99825 4.07065 10.8006 2.7492 11.911Z" fill="#FF0008"/>
<path d="M27.7676 24.5019L28.6376 24.1849L29.1759 25.6595L28.3058 25.9766C26.4633 26.6521 24.4929 26.9071 22.5391 26.7227C20.5853 26.5384 18.6974 25.9194 17.0137 24.9112L17.8174 23.5508C19.3006 24.4397 20.9636 24.9863 22.685 25.1509C24.4064 25.3154 26.1428 25.0937 27.7676 24.5019Z" fill="#FF0008"/>
<path d="M4.93564 7.49577L4.0656 7.81283L3.52734 6.33818L4.39739 6.02112C6.23997 5.34557 8.2103 5.09065 10.1641 5.27499C12.118 5.45934 14.0058 6.0783 15.6896 7.08656L14.8859 8.44693C13.4031 7.55679 11.74 7.0094 10.0184 6.84483C8.29683 6.68026 6.56021 6.90266 4.93564 7.49577Z" fill="#FF0008"/>
<path d="M8.53037 4.09134H7.59766V2.50977H8.53037C10.4917 2.51089 12.4281 2.94888 14.199 3.79191C15.9699 4.63494 17.5307 5.86185 18.7682 7.3835L17.5479 8.38626C16.4589 7.04479 15.0843 5.96315 13.5243 5.22015C11.9643 4.47716 10.2583 4.09152 8.53037 4.09134Z" fill="#FF0008"/>
<path d="M24.1768 27.9106H25.1058V29.4995H24.1694C22.2081 29.4984 20.2717 29.0604 18.5008 28.2174C16.73 27.3744 15.1691 26.1475 13.9316 24.6258L15.1519 23.623C16.2439 24.9625 17.6202 26.0422 19.1812 26.7838C20.7422 27.5254 22.4486 27.9103 24.1768 27.9106Z" fill="#FF0008"/>
</g>
<defs>
<clipPath id="clip0_314_6299">
<rect width="102.12" height="32" fill="white" transform="translate(0.353516)"/>
</clipPath>
</defs>
</svg>
