<svg width="91" height="32" viewBox="0 0 91 32" fill="none" xmlns="http://www.w3.org/2000/svg">
<path d="M32.3288 24C29.0438 24 25.9997 23.0182 23.9703 21.1873C23.2446 20.533 22.6664 19.7308 22.2743 18.8344C21.8821 17.938 21.6851 16.968 21.6963 15.9891C21.6941 15.0142 21.8952 14.0497 22.2869 13.1575C22.6785 12.2654 23.252 11.4654 23.9703 10.8091C25.8547 9.09091 29.1887 8 32.3288 8C35.8023 8 38.5836 8.87818 40.709 10.8127C41.4245 11.4688 41.9941 12.269 42.3806 13.1609C42.7672 14.0528 42.9619 15.0165 42.9522 15.9891C42.9474 16.9626 42.7461 17.9251 42.3606 18.8185C41.9751 19.7118 41.4132 20.5176 40.709 21.1873C38.7286 23.0291 35.6193 24 32.3288 24V21.8945C34.0701 21.8945 35.6863 21.2909 36.8152 20.1636C37.944 19.0364 38.4568 17.6691 38.4568 15.9818C38.4568 14.3709 37.8933 12.8655 36.8152 11.8C35.7008 10.7 34.0465 10.08 32.3288 10.08C30.6111 10.08 28.9495 10.6945 27.8352 11.8C26.7607 12.8673 26.2044 14.3782 26.2044 15.9818C26.1883 16.7523 26.3241 17.5184 26.604 18.236C26.8838 18.9537 27.3022 19.6088 27.8352 20.1636C28.9495 21.2782 30.6002 21.8945 32.3288 21.8945V24ZM8.34236 8C6.58659 8 4.59165 8.33091 2.90655 9.09091C1.33379 9.79636 0.0527455 10.9291 0.0527455 12.8073C0.0503827 13.7908 0.423158 14.738 1.09461 15.4545C1.54941 15.8764 2.28324 16.5927 4.20027 17.0145C5.05732 17.1964 6.88919 17.4891 8.71381 17.6818C10.5384 17.8745 12.3069 18.0455 13.0317 18.24C13.6079 18.3873 14.5772 18.5873 14.5772 19.6782C14.5772 20.7691 13.5571 21.0964 13.3796 21.1673C13.202 21.2382 11.9771 21.8018 9.77742 21.8018C8.31999 21.7612 6.8758 21.512 5.48856 21.0618C4.66775 20.7673 3.80708 20.38 3.00439 19.3964C2.68045 18.9332 2.50074 18.3839 2.48799 17.8182H0.494858V23.4182H2.70905V22.66C2.7087 22.6038 2.72329 22.5484 2.75133 22.4998C2.77937 22.4511 2.81984 22.4107 2.86857 22.383C2.9173 22.3552 2.97253 22.3409 3.02857 22.3417C3.08461 22.3424 3.13943 22.3582 3.1874 22.3873C4.23057 22.8428 5.31566 23.1947 6.42714 23.4382C7.59041 23.6818 8.34236 23.8582 9.78829 23.8582C11.3141 23.8873 12.8347 23.6719 14.2928 23.22C15.261 22.9537 16.1694 22.5038 16.969 21.8945C17.4187 21.5479 17.7822 21.1014 18.0309 20.59C18.2796 20.0786 18.4067 19.5163 18.4022 18.9473C18.4098 17.8663 17.994 16.8255 17.2444 16.0491C16.8276 15.6432 16.3447 15.3117 15.8166 15.0691C15.2489 14.8117 14.6595 14.6054 14.0554 14.4527C12.9066 14.1709 10.3264 13.8182 9.0925 13.6945C7.79878 13.56 5.55379 13.3727 4.65688 13.0945C4.38509 13.0091 3.83064 12.7455 3.83064 12.1C3.83064 11.64 4.08431 11.2509 4.5844 10.9364C5.37984 10.4364 6.98522 10.1255 8.65945 10.1255C10.28 10.1058 11.8873 10.4208 13.3814 11.0509C13.7828 11.2264 14.1603 11.4524 14.5048 11.7236C15.0663 12.2049 15.4552 12.8576 15.6119 13.5818H17.4002V8.70727H15.4071V9.27273C15.4071 9.45455 15.2259 9.69455 14.8635 9.49636C13.9648 9.02727 11.439 8.01273 8.34236 8ZM52.0989 8.89455L61.8398 17.7145L61.7402 11.7764C61.7293 10.9964 61.588 10.6709 60.7472 10.6709H58.9172V8.89455H67.2521V10.6709H65.4637C64.6085 10.6709 64.5577 10.9473 64.5433 11.7764L64.6936 23.1236H61.8398L50.6185 13.0764V20.2055C50.6276 20.9818 50.6638 21.3473 51.4592 21.3473H53.4524V23.1236H45.2823V21.3473H47.1958C47.9097 21.3473 47.8807 20.6636 47.8807 20.1655V11.8436C47.8807 11.2982 47.8046 10.6727 46.6848 10.6727H45.1338V8.89455H52.0989ZM76.7611 21.3436C76.9259 21.3436 77.0905 21.3333 77.254 21.3127C77.3389 21.2872 77.4173 21.2433 77.4836 21.1843C77.5499 21.1253 77.6027 21.0525 77.6381 20.9709C77.6632 20.8446 77.6759 20.7161 77.6762 20.5873V17.7782C77.6762 17.6836 77.6762 17.6818 77.5566 17.5327C77.437 17.3836 72.4542 11.7145 72.2277 11.46C71.945 11.1509 71.4485 10.6727 70.693 10.6727H68.9626V8.89455H78.7289V10.6691H77.5511C77.2794 10.6691 77.0982 10.9291 77.3301 11.2145C77.3301 11.2145 80.6169 15.16 80.6478 15.2018C80.6786 15.2436 80.7057 15.2527 80.7474 15.2145C80.7891 15.1764 84.1158 11.2509 84.1412 11.2145C84.1805 11.1628 84.2042 11.1007 84.2094 11.0358C84.2146 10.971 84.2012 10.9059 84.1706 10.8485C84.1401 10.791 84.0938 10.7436 84.0372 10.7118C83.9805 10.68 83.916 10.6652 83.8513 10.6691H82.6427V8.89455H90.6497V10.6727H88.8613C88.2126 10.6727 87.9553 10.7927 87.4606 11.3455L82.0701 17.5164C82.0173 17.5928 81.9942 17.6859 82.0049 17.7782V20.5855C82.0058 20.7143 82.0192 20.8428 82.0448 20.9691C82.0796 21.0507 82.1319 21.1236 82.198 21.1827C82.2641 21.2418 82.3423 21.2856 82.4271 21.3109C82.5893 21.3324 82.7527 21.3427 82.9163 21.3418H84.7445V23.12H75.0289V21.3418L76.7611 21.3436Z" fill="black"/>
</svg>
