<svg width="92" height="32" viewBox="0 0 92 32" fill="none" xmlns="http://www.w3.org/2000/svg">
<g clip-path="url(#clip0_245_10511)">
<path d="M33.0286 24C29.7436 24 26.6995 23.0182 24.6702 21.1873C23.9445 20.533 23.3662 19.7308 22.9741 18.8344C22.582 17.938 22.3849 16.968 22.3962 15.9891C22.3939 15.0142 22.5951 14.0497 22.9867 13.1575C23.3784 12.2654 23.9518 11.4654 24.6702 10.8091C26.5546 9.09091 29.8885 8 33.0286 8C36.5021 8 39.2834 8.87818 41.4088 10.8127C42.1244 11.4688 42.694 12.269 43.0805 13.1609C43.467 14.0528 43.6617 15.0165 43.652 15.9891C43.6472 16.9626 43.4459 17.9251 43.0604 18.8185C42.6749 19.7118 42.1131 20.5176 41.4088 21.1873C39.4284 23.0291 36.3191 24 33.0286 24V21.8945C34.7699 21.8945 36.3862 21.2909 37.515 20.1636C38.6438 19.0364 39.1566 17.6691 39.1566 15.9818C39.1566 14.3709 38.5931 12.8655 37.515 11.8C36.4006 10.7 34.7463 10.08 33.0286 10.08C31.3109 10.08 29.6494 10.6945 28.535 11.8C27.4605 12.8673 26.9043 14.3782 26.9043 15.9818C26.8882 16.7523 27.0239 17.5184 27.3038 18.236C27.5836 18.9537 28.0021 19.6088 28.535 20.1636C29.6494 21.2782 31.3 21.8945 33.0286 21.8945V24ZM9.04219 8C7.28642 8 5.29148 8.33091 3.60638 9.09091C2.03361 9.79636 0.752575 10.9291 0.752575 12.8073C0.750212 13.7908 1.12299 14.738 1.79444 15.4545C2.24924 15.8764 2.98307 16.5927 4.9001 17.0145C5.75715 17.1964 7.58902 17.4891 9.41364 17.6818C11.2383 17.8745 13.0067 18.0455 13.7315 18.24C14.3077 18.3873 15.2771 18.5873 15.2771 19.6782C15.2771 20.7691 14.257 21.0964 14.0794 21.1673C13.9018 21.2382 12.6769 21.8018 10.4772 21.8018C9.01982 21.7612 7.57563 21.512 6.18839 21.0618C5.36758 20.7673 4.50691 20.38 3.70422 19.3964C3.38028 18.9332 3.20057 18.3839 3.18782 17.8182H1.19469V23.4182H3.40888V22.66C3.40853 22.6038 3.42312 22.5484 3.45116 22.4998C3.4792 22.4511 3.51967 22.4107 3.5684 22.383C3.61713 22.3552 3.67236 22.3409 3.7284 22.3417C3.78444 22.3424 3.83926 22.3582 3.88723 22.3873C4.9304 22.8428 6.01549 23.1947 7.12697 23.4382C8.29024 23.6818 9.04219 23.8582 10.4881 23.8582C12.0139 23.8873 13.5345 23.6719 14.9926 23.22C15.9608 22.9537 16.8693 22.5038 17.6688 21.8945C18.1185 21.5479 18.482 21.1014 18.7307 20.59C18.9794 20.0786 19.1065 19.5163 19.1021 18.9473C19.1096 17.8663 18.6938 16.8255 17.9442 16.0491C17.5274 15.6432 17.0445 15.3117 16.5164 15.0691C15.9487 14.8117 15.3593 14.6054 14.7552 14.4527C13.6065 14.1709 11.0263 13.8182 9.79233 13.6945C8.49861 13.56 6.25362 13.3727 5.35671 13.0945C5.08492 13.0091 4.53047 12.7455 4.53047 12.1C4.53047 11.64 4.78414 11.2509 5.28423 10.9364C6.07967 10.4364 7.68505 10.1255 9.35928 10.1255C10.9798 10.1058 12.5871 10.4208 14.0812 11.0509C14.4826 11.2264 14.8601 11.4524 15.2046 11.7236C15.7662 12.2049 16.155 12.8576 16.3117 13.5818H18.1001V8.70727H16.1069V9.27273C16.1069 9.45455 15.9257 9.69455 15.5634 9.49636C14.6646 9.02727 12.1388 8.01273 9.04219 8ZM52.7987 8.89455L62.5397 17.7145L62.44 11.7764C62.4291 10.9964 62.2878 10.6709 61.4471 10.6709H59.617V8.89455H67.9519V10.6709H66.1635C65.3083 10.6709 65.2576 10.9473 65.2431 11.7764L65.3935 23.1236H62.5397L51.3183 13.0764V20.2055C51.3274 20.9818 51.3636 21.3473 52.1591 21.3473H54.1522V23.1236H45.9822V21.3473H47.8956C48.6095 21.3473 48.5805 20.6636 48.5805 20.1655V11.8436C48.5805 11.2982 48.5044 10.6727 47.3846 10.6727H45.8336V8.89455H52.7987ZM77.461 21.3436C77.6257 21.3436 77.7903 21.3333 77.9538 21.3127C78.0387 21.2872 78.1171 21.2433 78.1834 21.1843C78.2498 21.1253 78.3025 21.0525 78.338 20.9709C78.363 20.8446 78.3757 20.7161 78.376 20.5873V17.7782C78.376 17.6836 78.376 17.6818 78.2564 17.5327C78.1368 17.3836 73.154 11.7145 72.9275 11.46C72.6448 11.1509 72.1484 10.6727 71.3928 10.6727H69.6624V8.89455H79.4287V10.6691H78.251C77.9792 10.6691 77.798 10.9291 78.0299 11.2145C78.0299 11.2145 81.3168 15.16 81.3476 15.2018C81.3784 15.2436 81.4056 15.2527 81.4472 15.2145C81.4889 15.1764 84.8156 11.2509 84.841 11.2145C84.8803 11.1628 84.904 11.1007 84.9092 11.0358C84.9145 10.971 84.901 10.9059 84.8705 10.8485C84.8399 10.791 84.7936 10.7436 84.737 10.7118C84.6804 10.68 84.6159 10.6652 84.5511 10.6691H83.3425V8.89455H91.3495V10.6727H89.5611C88.9124 10.6727 88.6551 10.7927 88.1605 11.3455L82.77 17.5164C82.7172 17.5928 82.694 17.6859 82.7047 17.7782V20.5855C82.7057 20.7143 82.719 20.8428 82.7446 20.9691C82.7794 21.0507 82.8317 21.1236 82.8978 21.1827C82.9639 21.2418 83.0421 21.2856 83.1269 21.3109C83.2891 21.3324 83.4525 21.3427 83.6161 21.3418H85.4444V23.12H75.7288V21.3418L77.461 21.3436Z" fill="white"/>
</g>
<defs>
<clipPath id="clip0_245_10511">
<rect width="91" height="32" fill="white" transform="translate(0.699829)"/>
</clipPath>
</defs>
</svg>
