<svg width="48" height="49" viewBox="0 0 48 49" fill="none" xmlns="http://www.w3.org/2000/svg">
<rect y="0.339355" width="48" height="48" rx="6" fill="#FFF6ED"/>
<path d="M20.7 28.2393L16.8 24.3393L20.7 20.4393C21.09 20.0493 21.09 19.4293 20.7 19.0393C20.31 18.6493 19.69 18.6493 19.3 19.0393L14.71 23.6293C14.32 24.0193 14.32 24.6493 14.71 25.0393L19.3 29.6393C19.69 30.0293 20.31 30.0293 20.7 29.6393C21.09 29.2493 21.09 28.6293 20.7 28.2393ZM27.3 28.2393L31.2 24.3393L27.3 20.4393C26.91 20.0493 26.91 19.4293 27.3 19.0393C27.69 18.6493 28.31 18.6493 28.7 19.0393L33.29 23.6293C33.68 24.0193 33.68 24.6493 33.29 25.0393L28.7 29.6393C28.31 30.0293 27.69 30.0293 27.3 29.6393C26.91 29.2493 26.91 28.6293 27.3 28.2393Z" fill="#FF5D0A"/>
</svg>
