<svg width="48" height="49" viewBox="0 0 48 49" fill="none" xmlns="http://www.w3.org/2000/svg">
<rect y="0.339355" width="48" height="48" rx="6" fill="#FFF6ED"/>
<path d="M25 25.3393C24.44 25.8993 23.55 25.8993 23 25.3493V25.3393C22.45 24.7893 22.45 23.8993 23 23.3493V23.3393C23.55 22.7893 24.44 22.7893 24.99 23.3393H25C25.55 23.8893 25.55 24.7893 25 25.3393ZM24 18.3393L26.12 20.4593L28.62 17.9593L25.42 14.7593C24.64 13.9793 23.37 13.9793 22.59 14.7593L19.39 17.9593L21.89 20.4593L24 18.3393ZM18 24.3393L20.12 22.2193L17.62 19.7193L14.42 22.9193C13.64 23.6993 13.64 24.9693 14.42 25.7493L17.62 28.9493L20.12 26.4493L18 24.3393ZM30 24.3393L27.88 26.4593L30.38 28.9593L33.58 25.7593C34.36 24.9793 34.36 23.7093 33.58 22.9293L30.38 19.7293L27.88 22.2293L30 24.3393ZM24 30.3393L21.88 28.2193L19.38 30.7193L22.58 33.9193C23.36 34.6993 24.63 34.6993 25.41 33.9193L28.61 30.7193L26.11 28.2193L24 30.3393Z" fill="#FF5D0A"/>
</svg>
