<svg width="133" height="48" viewBox="0 0 133 48" fill="none" xmlns="http://www.w3.org/2000/svg">
<g clip-path="url(#clip0_376_6749)">
<path d="M23.7059 17.2058C23.7059 17.2058 24.853 17.294 25.8235 18.5293L25.2941 18.6176L25.0294 18.5293C25.0294 18.5293 24.2353 17.5587 23.7059 17.2058ZM21.9412 22.6764L21.4118 21.3529H21.2353L20.353 22.4117C20.9706 22.9411 21.9412 22.6764 21.9412 22.6764ZM30.0588 14.9117L29.6177 15.0881L30.1471 16.0587L31.9118 16.6764C31.2059 15.1764 30.0588 14.9117 30.0588 14.9117ZM25.0294 16.7646C25.5588 17.3823 26.0883 18.2646 26.0883 18.2646C26.9706 17.3823 28.8236 17.0293 31.2059 17.1176C27.853 16.4117 25.0294 16.7646 25.0294 16.7646ZM21.7647 15.4411C21.7647 15.4411 22.7353 15.4411 24.0588 15.7058C23.1765 15.0881 21.7647 14.7352 21.7647 14.7352V15.4411ZM29.8824 20.294L28.3824 21.6176L29.5294 21.9705L30.6765 20.7352L30.0588 20.4705L29.8824 20.294ZM19.9118 13.3234C19.9118 13.3234 20.5294 13.6764 20.6177 13.6764C20.7059 13.6764 21.9412 14.1176 22.4706 14.294C22.9118 14.4705 23.1765 14.294 23.2647 14.294C23.353 14.294 24.853 13.4117 24.853 13.4117C23.5294 12.8823 22.2941 12.5293 22.2941 12.5293C22.2059 12.5293 19.9118 13.3234 19.9118 13.3234ZM28.9118 14.1176C28.8235 13.9411 28.6471 13.9411 27.5883 13.7646C26.6177 13.6764 25.7353 13.5881 25.5588 13.5881C25.3824 13.5881 25.2941 13.6764 25.2941 13.6764C25.2941 13.6764 24.7647 14.0293 24.3236 14.294C23.8824 14.5587 23.7941 14.647 23.7059 14.8234C23.6177 14.9117 23.8824 15.2646 23.8824 15.2646L24.5883 16.147C24.6765 16.147 24.9412 16.3234 24.9412 16.3234C24.9412 16.3234 26.353 16.2352 27.2353 16.147H29.5294C29.6177 16.147 29.5294 15.794 29.353 15.3529C29.1765 14.9999 28.9118 14.1176 28.9118 14.1176ZM20.5294 15.0881C20.5294 15.0881 20.6177 15.0882 20.7941 15.1764C20.9706 15.1764 21.0588 14.9999 21.0588 14.8234C21.0588 14.5587 20.7941 14.4705 20.7941 14.4705H20.6177L20.353 14.5587L20.2647 15.1764H20.353L20.5294 15.0881C20.4412 14.9117 20.4412 14.8234 20.4412 14.647C20.4412 14.5587 20.6177 14.3823 20.7059 14.3823C20.7059 14.3823 20.8824 14.3823 20.7941 14.7352C20.7941 15.0882 20.5294 15.0881 20.5294 15.0881ZM35.4412 22.0587L34.7353 23.0293V23.1176H35.7059C35.8824 22.4999 35.4412 22.0587 35.4412 22.0587ZM17.7941 17.4705H17.6177L17.1765 17.3823C16.7353 17.294 16.9118 16.4999 16.9118 16.4999L16.3824 16.6764C16.2059 16.3234 15.4118 15.3529 15.4118 15.3529L15.2353 16.0587C15.3235 16.147 15.7647 16.8529 15.853 17.0293L15.5883 17.294C15.5883 17.294 15.5 17.4705 15.5 17.5587C15.5 17.647 15.4118 17.7352 15.4118 17.7352L15.0588 17.9117H14.9706L13.7353 16.9411V17.647H13.8235C13.9118 17.8234 14.0883 18.1764 14.5294 18.3529C14.8824 18.5293 15.3236 18.5293 15.5 18.4411C15.6765 18.5293 15.7647 18.5293 15.853 18.6176C16.2059 18.794 16.2941 18.7058 16.2941 18.7058L16.8236 18.5293H16.9118L17 18.4411L17.1765 18.0881C17.1765 18.0881 18.0588 18.1764 18.4118 18.1764C18.7647 17.647 19.9118 16.8529 20.7059 16.7646C21.5 16.7646 22.8236 16.9411 23.8824 17.9999C24.853 19.0587 24.5883 20.4705 24.5883 20.4705L26.5294 21.0881L25.6471 20.4705C24.9412 18.7058 23.2647 17.1176 23.2647 17.1176C23.2647 17.1176 22.8236 17.0293 22.5588 17.0293C22.2941 16.9411 22.1177 16.7646 22.1177 16.7646C22.1177 16.7646 22.0294 16.6764 21.853 16.4117L21.6765 16.0587C21.6765 16.0587 21.5 15.8823 21.2353 15.7058C20.9706 15.5293 20 15.4411 19.4706 15.3529C18.9412 15.2646 18.9412 15.3529 18.9412 15.3529C20.4412 15.7058 20.8824 15.794 20.9706 15.8823C20.9706 15.8823 21.0588 16.0587 21.1471 16.147C19.9118 15.8823 18.7647 16.0587 18.5 16.147C18.6765 16.4117 18.6765 16.7646 18.5 17.0293C18.3236 17.2058 17.7941 17.4705 17.7941 17.4705ZM34.5588 23.8234L34.8236 24.9705C34.8236 24.9705 35.0883 24.7058 35.353 24.3529C35.6177 23.9999 35.7059 23.647 35.7059 23.647L34.6471 23.7352L34.5588 23.8234ZM13.2941 15.794L13.2059 16.7646H13.7353L13.8235 16.147V16.4999H13.9118V15.9705H13.8235V15.6176L14.6177 16.0587L14.7059 16.2352L14.8824 16.4117H15.0588L15.1471 16.3234V16.2352C14.6177 16.2352 14.6177 15.9705 14.6177 15.9705C14.6177 15.9705 14.7059 15.3529 14.7941 15.1764C14.8824 14.9999 15.2353 15.0881 15.2353 15.0881L15.1471 14.9999H14.9706C14.7941 14.9117 14.2647 14.5587 14.0883 14.4705V14.3823L14.1765 14.294V13.9411H14.2647C14.2647 13.8529 14.353 13.8529 14.353 13.7646C14.5294 13.7646 15.853 13.4999 15.853 13.4999L14.6177 13.2352V13.147C14.2647 13.0587 14 12.9705 13.8235 12.8823C13.3824 13.4117 13.2059 14.1176 13.2059 14.1176C13.2059 14.1176 13.1177 15.3529 13.1177 15.5293C13.0294 15.7058 13.2941 15.794 13.2941 15.794ZM34.0294 22.7646L34.2059 23.0293L34.2941 22.9411L35 22.0587V21.9705C34.6471 21.9705 34.0294 22.7646 34.0294 22.7646ZM31.9118 21.1764L31.3824 20.9999L30.1471 22.4117L31.0294 22.6764C31.2059 21.9705 31.9118 21.1764 31.9118 21.1764ZM33.7647 23.2058C33.3235 24.0881 33.4118 24.7058 33.4118 24.7058L33.853 23.7352V23.5587C33.9412 23.5587 33.853 23.3823 33.7647 23.2058ZM33.3235 17.4705C33.3235 17.4705 33.1471 17.8234 33.0588 17.9117C32.9706 17.9999 32.353 18.0881 32 18.1764C31.6471 18.3529 31.0294 18.6176 30.853 18.794C30.7647 18.8823 30.7647 19.147 30.7647 19.2352C30.7647 19.2352 30.9412 19.3234 31.0294 19.3234L30.2353 20.0293L30.4118 20.2058L32.353 20.8234C32.7941 20.4705 33.4118 20.3823 33.4118 20.3823C33.0588 20.2058 31.5588 19.5882 31.1177 19.4117C31.1177 19.4117 30.853 19.3234 30.853 19.2352V18.9705C30.853 18.9705 32 18.0881 33.7647 18.0881L34.0294 17.5587L33.3235 17.4705ZM34.4706 25.2352L34.1177 24.1764H34.0294L33.5 25.147L33.5883 25.2352C34.0294 25.4117 34.4706 25.2352 34.4706 25.2352ZM21.1471 15.1764L21.4118 15.2646C21.4118 15.2646 21.5883 15.2646 21.5883 15.0881V14.7352L21.3235 14.5587L20.9706 14.4705C21.0588 14.5587 21.0588 14.647 21.0588 14.647H21.1471C21.1471 14.5587 21.2353 14.5587 21.2353 14.647C21.2353 14.647 21.4118 14.7352 21.3235 14.9999C21.4118 15.0881 21.2353 15.1764 21.1471 15.1764ZM20.353 20.0293C19.7353 21.1764 20.1765 21.9705 20.1765 21.9705L20.9706 20.8234V20.647L20.353 20.0293ZM14.6177 13.2352L15.6765 13.4999C15.7647 13.4999 16.3824 13.4117 16.3824 13.4117L14.7059 12.9705L14.6177 13.2352ZM15.2353 12.9705C16.6471 13.147 16.9118 13.4117 16.9118 13.4117C16.9118 13.4117 17.4412 13.3234 17.7059 13.3234C17.2647 12.9705 15.3236 12.3529 15.3236 12.3529C15.3236 12.3529 15.2353 12.6176 15.2353 12.9705ZM17.353 15.7058C17.0883 15.8823 16.8235 16.4117 16.9118 16.8529C17 17.294 17.0883 17.294 17.353 17.294C16.9118 17.1176 17 16.4117 17.353 15.9705C17.6177 15.6176 17.8824 15.8823 17.8824 15.8823C17.8824 15.8823 17.6177 15.5293 17.353 15.7058ZM11.0883 28.7646C9.9412 28.7646 8.61767 29.2058 9.41179 30.4411C15.9412 41.647 22.8235 44.294 25.7353 45.7058C27.0588 45.0882 29.1765 44.1176 31.7353 42.3529C33.2353 41.3823 33.0588 39.8823 32.7059 38.9117C30.853 34.3234 20.7059 29.1176 11.0883 28.7646ZM47.8824 7.85285C45.2353 5.99991 38.7059 2.64697 25.7353 2.64697C21.2353 2.64697 17.4412 3.08815 14.4412 3.7058C15.1471 4.85285 15.5 6.17638 15.5 7.58815C15.5 9.52932 14.7941 11.294 13.6471 12.6176C13.9118 12.7058 14.2647 12.794 14.7059 12.8823L14.8824 12.4411C14.8824 12.4411 15.0588 12.4411 15.1471 12.5293C15.1471 12.0882 15.4118 12.0882 15.4118 12.0882C15.4118 12.0882 15.4118 11.9999 15.5 11.9999C15.9412 12.0881 17.1765 12.7058 17.7059 12.9705C18.2353 13.2352 18.2353 13.3234 18.2353 13.3234C18.2353 13.3234 19.4706 13.3234 19.8236 13.2352C20.1765 13.2352 20.7941 12.9705 21.6765 12.7058C22.5588 12.4411 22.7353 12.3529 22.9118 12.3529C23.0883 12.3529 24.6765 12.4411 26.0883 12.6176C27.5 12.794 28.8236 13.3234 29.0883 13.4999L29.5294 13.5881L29.6177 13.3234L28.9118 13.0587C28.9118 13.0587 29 12.6176 29 12.5293C29 12.4411 29.0883 12.3529 29.1765 12.3529C29.2647 12.3529 30.0588 12.5293 30.3236 12.6176C30.5883 12.7058 31.4706 13.3234 31.5588 13.3234C31.6471 13.3234 31.6471 13.4117 31.6471 13.4117C31.6471 13.5882 31.4706 13.9411 31.4706 13.9411C31.4706 13.9411 31.7353 14.0293 31.8236 14.1176C31.9118 14.2058 32.1765 14.3823 32.4412 14.647C32.7059 14.8234 32.6177 15.0881 32.6177 15.0881L33.2353 15.7058V15.9705L34.7353 17.4705V17.5587L34.0294 17.9999C34.0294 17.9999 35 17.9117 35.7059 18.2646C36.4118 18.6176 36.5 18.794 36.5 18.9705C36.3236 19.0587 36.0588 19.147 36.0588 19.147C35.5294 19.3234 34.2059 20.2058 34.2059 20.2058V20.294L34.9118 20.4705C35.7059 19.7646 37.1177 19.4999 38.1765 19.6764C41.7941 20.3823 44.2647 22.7646 44.7941 24.794C44.7941 24.8823 44.8824 25.0587 44.8824 25.147C48.5 16.6764 48.1471 10.5881 47.8824 7.85285ZM35.1765 20.7352C35.2647 20.8234 35.353 20.8234 35.4412 20.9117C35.9706 21.2646 36.2353 21.4411 36.3236 22.2352C36.4118 22.8529 36.2353 23.7352 35.7941 24.5293C38.2647 26.2058 41.7059 24.8823 43.0294 26.2058C42.7647 22.8529 37.8236 19.4999 35.1765 20.7352ZM14.8824 16.4117L14.7059 16.4999V17.2058L14.8824 17.1176V16.4117ZM40.3824 27.3529C38.5294 27.3529 36.6765 26.7352 35.353 25.147V25.2352C34.5588 26.294 33.6765 26.294 33.3235 26.294C32.9706 26.294 31.8236 25.7646 31.3824 25.2352C30.9412 24.7058 30.9412 23.7352 30.9412 23.7352L29.1765 23.1176L26.9706 21.8823L26.6177 21.794C25.9118 22.147 25.0294 21.8823 24.2353 21.2646C24.1471 21.6176 23.7059 22.4999 23.1765 22.9411C22.6471 23.3823 21.5883 23.9999 20.7941 23.9999C20 23.9999 18.2353 23.1176 17.7059 21.8823C17.1765 20.647 17.7059 19.3234 17.7059 19.3234L16.8236 19.147L16.4706 18.7058C16.4706 18.7058 15.4118 19.5881 14.2647 19.2352C13.1177 18.8823 12.1471 17.9117 11.8824 17.0293C11.7059 16.147 11.9706 15.3529 12.0588 15.2646C11.8824 14.647 11.8824 14.294 11.8824 14.294H11.7941V14.0293C10.6471 14.8234 9.32355 15.1764 7.91179 15.1764C6.32355 15.1764 4.82355 14.647 3.58826 13.8529C3.76473 15.794 4.29414 18.0881 5.00002 20.647C5.97061 24.1764 9.14708 25.3234 13.9118 26.1176C24.4118 27.794 34.4706 35.8234 33.7647 40.7646C36.4118 38.5587 39.2353 35.294 42.0588 30.4411C43.2059 28.5882 42.1471 27.3529 40.3824 27.3529ZM12.3236 15.1764L12.2353 16.147H12.853V16.0587H12.7647V15.9705H12.6765L12.7647 15.794L12.853 15.3529L12.7647 15.2646V15.0881L12.853 14.9999L12.9412 13.9411L12.5 13.6764C12.6765 12.9705 13.1177 12.3529 13.1177 12.3529H12.853C12.4118 12.8823 12.2353 13.5881 12.2353 13.5881C12.2353 13.5881 12.1471 14.7352 12.1471 14.9117C12.1471 15.1764 12.3236 15.1764 12.3236 15.1764ZM22.0294 21.0881L22.4706 22.4999C23.353 21.8823 23.5294 20.9117 23.5294 20.9117L22.1177 20.9999L22.0294 21.0881ZM22.8236 18.8823L22.1177 20.1176L22.2059 20.2058L23.6177 20.294C23.6177 19.3234 22.8236 18.8823 22.8236 18.8823ZM14 16.147L13.9118 16.6764H14V16.147ZM20.7059 19.4999L21.4118 20.0293L21.5883 19.9411L22.3824 18.7058C21.4118 18.6176 20.7059 19.4999 20.7059 19.4999ZM14.1765 16.2352L14.0883 16.147V16.7646H14.1765V16.2352ZM14.4412 16.4117L14.353 17.0293H14.4412V16.4117ZM14.6177 16.4999L14.5294 17.1176H14.6177V16.4999ZM14.2647 16.3234L14.1765 16.9411H14.2647V16.3234Z" fill="white"/>
<path d="M50.0001 7.67647L49.9118 6.70588L49.0295 6.08823C45.3236 3.52941 38.2648 0.52941 25.6471 0.52941C20.8824 0.52941 16.5589 0.970587 12.7648 1.85294C11.4412 0.705881 9.67653 0 7.82359 0C3.67653 0 0.235352 3.35294 0.235352 7.58823C0.235352 8.91176 0.588298 10.1471 1.20595 11.2941C1.38242 17.8235 3.41183 24.6176 7.38242 31.5C13.9118 42.5294 20.8824 45.7941 24.2354 47.2941C24.5001 47.3824 24.6765 47.4706 24.853 47.5588L25.7354 48L26.6177 47.5588C26.7942 47.4706 27.0589 47.3824 27.2354 47.2941C30.6765 45.7941 37.5589 42.5294 43.9118 31.5C50.8824 19.4118 50.2648 10.5882 50.0001 7.67647Z" fill="white"/>
<path d="M23.7059 17.2058C23.7059 17.2058 24.853 17.294 25.8235 18.5293L25.2941 18.6176L25.0294 18.5293C25.0294 18.5293 24.2353 17.5587 23.7059 17.2058ZM21.9412 22.6764L21.4118 21.3529H21.2353L20.353 22.4117C20.9706 22.9411 21.9412 22.6764 21.9412 22.6764ZM30.0588 14.9117L29.6177 15.0881L30.1471 16.0587L31.9118 16.6764C31.2059 15.1764 30.0588 14.9117 30.0588 14.9117ZM25.0294 16.7646C25.5588 17.3823 26.0883 18.2646 26.0883 18.2646C26.9706 17.3823 28.8236 17.0293 31.2059 17.1176C27.853 16.4117 25.0294 16.7646 25.0294 16.7646ZM21.7647 15.4411C21.7647 15.4411 22.7353 15.4411 24.0588 15.7058C23.1765 15.0881 21.7647 14.7352 21.7647 14.7352V15.4411ZM29.8824 20.294L28.3824 21.6176L29.5294 21.9705L30.6765 20.7352L30.0588 20.4705L29.8824 20.294ZM19.9118 13.3234C19.9118 13.3234 20.5294 13.6764 20.6177 13.6764C20.7059 13.6764 21.9412 14.1176 22.4706 14.294C22.9118 14.4705 23.1765 14.294 23.2647 14.294C23.353 14.294 24.853 13.4117 24.853 13.4117C23.5294 12.8823 22.2941 12.5293 22.2941 12.5293C22.2059 12.5293 19.9118 13.3234 19.9118 13.3234ZM28.9118 14.1176C28.8235 13.9411 28.6471 13.9411 27.5883 13.7646C26.6177 13.6764 25.7353 13.5881 25.5588 13.5881C25.3824 13.5881 25.2941 13.6764 25.2941 13.6764C25.2941 13.6764 24.7647 14.0293 24.3236 14.294C23.8824 14.5587 23.7941 14.647 23.7059 14.8234C23.6177 14.9117 23.8824 15.2646 23.8824 15.2646L24.5883 16.147C24.6765 16.147 24.9412 16.3234 24.9412 16.3234C24.9412 16.3234 26.353 16.2352 27.2353 16.147H29.5294C29.6177 16.147 29.5294 15.794 29.353 15.3529C29.1765 14.9999 28.9118 14.1176 28.9118 14.1176ZM20.5294 15.0881C20.5294 15.0881 20.6177 15.0882 20.7941 15.1764C20.9706 15.1764 21.0588 14.9999 21.0588 14.8234C21.0588 14.5587 20.7941 14.4705 20.7941 14.4705H20.6177L20.353 14.5587L20.2647 15.1764H20.353L20.5294 15.0881C20.4412 14.9117 20.4412 14.8234 20.4412 14.647C20.4412 14.5587 20.6177 14.3823 20.7059 14.3823C20.7059 14.3823 20.8824 14.3823 20.7941 14.7352C20.7941 15.0882 20.5294 15.0881 20.5294 15.0881ZM35.4412 22.0587L34.7353 23.0293V23.1176H35.7059C35.8824 22.4999 35.4412 22.0587 35.4412 22.0587ZM17.7941 17.4705H17.6177L17.1765 17.3823C16.7353 17.294 16.9118 16.4999 16.9118 16.4999L16.3824 16.6764C16.2059 16.3234 15.4118 15.3529 15.4118 15.3529L15.2353 16.0587C15.3235 16.147 15.7647 16.8529 15.853 17.0293L15.5883 17.294C15.5883 17.294 15.5 17.4705 15.5 17.5587C15.5 17.647 15.4118 17.7352 15.4118 17.7352L15.0588 17.9117H14.9706L13.7353 16.9411V17.647H13.8235C13.9118 17.8234 14.0883 18.1764 14.5294 18.3529C14.8824 18.5293 15.3236 18.5293 15.5 18.4411C15.6765 18.5293 15.7647 18.5293 15.853 18.6176C16.2059 18.794 16.2941 18.7058 16.2941 18.7058L16.8236 18.5293H16.9118L17 18.4411L17.1765 18.0881C17.1765 18.0881 18.0588 18.1764 18.4118 18.1764C18.7647 17.647 19.9118 16.8529 20.7059 16.7646C21.5 16.7646 22.8236 16.9411 23.8824 17.9999C24.853 19.0587 24.5883 20.4705 24.5883 20.4705L26.5294 21.0881L25.6471 20.4705C24.9412 18.7058 23.2647 17.1176 23.2647 17.1176C23.2647 17.1176 22.8236 17.0293 22.5588 17.0293C22.2941 16.9411 22.1177 16.7646 22.1177 16.7646C22.1177 16.7646 22.0294 16.6764 21.853 16.4117L21.6765 16.0587C21.6765 16.0587 21.5 15.8823 21.2353 15.7058C20.9706 15.5293 20 15.4411 19.4706 15.3529C18.9412 15.2646 18.9412 15.3529 18.9412 15.3529C20.4412 15.7058 20.8824 15.794 20.9706 15.8823C20.9706 15.8823 21.0588 16.0587 21.1471 16.147C19.9118 15.8823 18.7647 16.0587 18.5 16.147C18.6765 16.4117 18.6765 16.7646 18.5 17.0293C18.3236 17.2058 17.7941 17.4705 17.7941 17.4705ZM34.5588 23.8234L34.8236 24.9705C34.8236 24.9705 35.0883 24.7058 35.353 24.3529C35.6177 23.9999 35.7059 23.647 35.7059 23.647L34.6471 23.7352L34.5588 23.8234ZM13.2941 15.794L13.2059 16.7646H13.7353L13.8235 16.147V16.4999H13.9118V15.9705H13.8235V15.6176L14.6177 16.0587L14.7059 16.2352L14.8824 16.4117H15.0588L15.1471 16.3234V16.2352C14.6177 16.2352 14.6177 15.9705 14.6177 15.9705C14.6177 15.9705 14.7059 15.3529 14.7941 15.1764C14.8824 14.9999 15.2353 15.0881 15.2353 15.0881L15.1471 14.9999H14.9706C14.7941 14.9117 14.2647 14.5587 14.0883 14.4705V14.3823L14.1765 14.294V13.9411H14.2647C14.2647 13.8529 14.353 13.8529 14.353 13.7646C14.5294 13.7646 15.853 13.4999 15.853 13.4999L14.6177 13.2352V13.147C14.2647 13.0587 14 12.9705 13.8235 12.8823C13.3824 13.4117 13.2059 14.1176 13.2059 14.1176C13.2059 14.1176 13.1177 15.3529 13.1177 15.5293C13.0294 15.7058 13.2941 15.794 13.2941 15.794ZM34.0294 22.7646L34.2059 23.0293L34.2941 22.9411L35 22.0587V21.9705C34.6471 21.9705 34.0294 22.7646 34.0294 22.7646ZM31.9118 21.1764L31.3824 20.9999L30.1471 22.4117L31.0294 22.6764C31.2059 21.9705 31.9118 21.1764 31.9118 21.1764ZM33.7647 23.2058C33.3235 24.0881 33.4118 24.7058 33.4118 24.7058L33.853 23.7352V23.5587C33.9412 23.5587 33.853 23.3823 33.7647 23.2058ZM33.3235 17.4705C33.3235 17.4705 33.1471 17.8234 33.0588 17.9117C32.9706 17.9999 32.353 18.0881 32 18.1764C31.6471 18.3529 31.0294 18.6176 30.853 18.794C30.7647 18.8823 30.7647 19.147 30.7647 19.2352C30.7647 19.2352 30.9412 19.3234 31.0294 19.3234L30.2353 20.0293L30.4118 20.2058L32.353 20.8234C32.7941 20.4705 33.4118 20.3823 33.4118 20.3823C33.0588 20.2058 31.5588 19.5882 31.1177 19.4117C31.1177 19.4117 30.853 19.3234 30.853 19.2352V18.9705C30.853 18.9705 32 18.0881 33.7647 18.0881L34.0294 17.5587L33.3235 17.4705ZM34.4706 25.2352L34.1177 24.1764H34.0294L33.5 25.147L33.5883 25.2352C34.0294 25.4117 34.4706 25.2352 34.4706 25.2352ZM21.1471 15.1764L21.4118 15.2646C21.4118 15.2646 21.5883 15.2646 21.5883 15.0881V14.7352L21.3235 14.5587L20.9706 14.4705C21.0588 14.5587 21.0588 14.647 21.0588 14.647H21.1471C21.1471 14.5587 21.2353 14.5587 21.2353 14.647C21.2353 14.647 21.4118 14.7352 21.3235 14.9999C21.4118 15.0881 21.2353 15.1764 21.1471 15.1764ZM20.353 20.0293C19.7353 21.1764 20.1765 21.9705 20.1765 21.9705L20.9706 20.8234V20.647L20.353 20.0293ZM14.6177 13.2352L15.6765 13.4999C15.7647 13.4999 16.3824 13.4117 16.3824 13.4117L14.7059 12.9705L14.6177 13.2352ZM15.2353 12.9705C16.6471 13.147 16.9118 13.4117 16.9118 13.4117C16.9118 13.4117 17.4412 13.3234 17.7059 13.3234C17.2647 12.9705 15.3236 12.3529 15.3236 12.3529C15.3236 12.3529 15.2353 12.6176 15.2353 12.9705ZM17.353 15.7058C17.0883 15.8823 16.8235 16.4117 16.9118 16.8529C17 17.294 17.0883 17.294 17.353 17.294C16.9118 17.1176 17 16.4117 17.353 15.9705C17.6177 15.6176 17.8824 15.8823 17.8824 15.8823C17.8824 15.8823 17.6177 15.5293 17.353 15.7058ZM11.0883 28.7646C9.9412 28.7646 8.61767 29.2058 9.41179 30.4411C15.9412 41.647 22.8235 44.294 25.7353 45.7058C27.0588 45.0882 29.1765 44.1176 31.7353 42.3529C33.2353 41.3823 33.0588 39.8823 32.7059 38.9117C30.853 34.3234 20.7059 29.1176 11.0883 28.7646ZM47.8824 7.85285C45.2353 5.99991 38.7059 2.64697 25.7353 2.64697C21.2353 2.64697 17.4412 3.08815 14.4412 3.7058C15.1471 4.85285 15.5 6.17638 15.5 7.58815C15.5 9.52932 14.7941 11.294 13.6471 12.6176C13.9118 12.7058 14.2647 12.794 14.7059 12.8823L14.8824 12.4411C14.8824 12.4411 15.0588 12.4411 15.1471 12.5293C15.1471 12.0882 15.4118 12.0882 15.4118 12.0882C15.4118 12.0882 15.4118 11.9999 15.5 11.9999C15.9412 12.0881 17.1765 12.7058 17.7059 12.9705C18.2353 13.2352 18.2353 13.3234 18.2353 13.3234C18.2353 13.3234 19.4706 13.3234 19.8236 13.2352C20.1765 13.2352 20.7941 12.9705 21.6765 12.7058C22.5588 12.4411 22.7353 12.3529 22.9118 12.3529C23.0883 12.3529 24.6765 12.4411 26.0883 12.6176C27.5 12.794 28.8236 13.3234 29.0883 13.4999L29.5294 13.5881L29.6177 13.3234L28.9118 13.0587C28.9118 13.0587 29 12.6176 29 12.5293C29 12.4411 29.0883 12.3529 29.1765 12.3529C29.2647 12.3529 30.0588 12.5293 30.3236 12.6176C30.5883 12.7058 31.4706 13.3234 31.5588 13.3234C31.6471 13.3234 31.6471 13.4117 31.6471 13.4117C31.6471 13.5882 31.4706 13.9411 31.4706 13.9411C31.4706 13.9411 31.7353 14.0293 31.8236 14.1176C31.9118 14.2058 32.1765 14.3823 32.4412 14.647C32.7059 14.8234 32.6177 15.0881 32.6177 15.0881L33.2353 15.7058V15.9705L34.7353 17.4705V17.5587L34.0294 17.9999C34.0294 17.9999 35 17.9117 35.7059 18.2646C36.4118 18.6176 36.5 18.794 36.5 18.9705C36.3236 19.0587 36.0588 19.147 36.0588 19.147C35.5294 19.3234 34.2059 20.2058 34.2059 20.2058V20.294L34.9118 20.4705C35.7059 19.7646 37.1177 19.4999 38.1765 19.6764C41.7941 20.3823 44.2647 22.7646 44.7941 24.794C44.7941 24.8823 44.8824 25.0587 44.8824 25.147C48.5 16.6764 48.1471 10.5881 47.8824 7.85285ZM35.1765 20.7352C35.2647 20.8234 35.353 20.8234 35.4412 20.9117C35.9706 21.2646 36.2353 21.4411 36.3236 22.2352C36.4118 22.8529 36.2353 23.7352 35.7941 24.5293C38.2647 26.2058 41.7059 24.8823 43.0294 26.2058C42.7647 22.8529 37.8236 19.4999 35.1765 20.7352ZM14.8824 16.4117L14.7059 16.4999V17.2058L14.8824 17.1176V16.4117ZM40.3824 27.3529C38.5294 27.3529 36.6765 26.7352 35.353 25.147V25.2352C34.5588 26.294 33.6765 26.294 33.3235 26.294C32.9706 26.294 31.8236 25.7646 31.3824 25.2352C30.9412 24.7058 30.9412 23.7352 30.9412 23.7352L29.1765 23.1176L26.9706 21.8823L26.6177 21.794C25.9118 22.147 25.0294 21.8823 24.2353 21.2646C24.1471 21.6176 23.7059 22.4999 23.1765 22.9411C22.6471 23.3823 21.5883 23.9999 20.7941 23.9999C20 23.9999 18.2353 23.1176 17.7059 21.8823C17.1765 20.647 17.7059 19.3234 17.7059 19.3234L16.8236 19.147L16.4706 18.7058C16.4706 18.7058 15.4118 19.5881 14.2647 19.2352C13.1177 18.8823 12.1471 17.9117 11.8824 17.0293C11.7059 16.147 11.9706 15.3529 12.0588 15.2646C11.8824 14.647 11.8824 14.294 11.8824 14.294H11.7941V14.0293C10.6471 14.8234 9.32355 15.1764 7.91179 15.1764C6.32355 15.1764 4.82355 14.647 3.58826 13.8529C3.76473 15.794 4.29414 18.0881 5.00002 20.647C5.97061 24.1764 9.14708 25.3234 13.9118 26.1176C24.4118 27.794 34.4706 35.8234 33.7647 40.7646C36.4118 38.5587 39.2353 35.294 42.0588 30.4411C43.2059 28.5882 42.1471 27.3529 40.3824 27.3529ZM12.3236 15.1764L12.2353 16.147H12.853V16.0587H12.7647V15.9705H12.6765L12.7647 15.794L12.853 15.3529L12.7647 15.2646V15.0881L12.853 14.9999L12.9412 13.9411L12.5 13.6764C12.6765 12.9705 13.1177 12.3529 13.1177 12.3529H12.853C12.4118 12.8823 12.2353 13.5881 12.2353 13.5881C12.2353 13.5881 12.1471 14.7352 12.1471 14.9117C12.1471 15.1764 12.3236 15.1764 12.3236 15.1764ZM22.0294 21.0881L22.4706 22.4999C23.353 21.8823 23.5294 20.9117 23.5294 20.9117L22.1177 20.9999L22.0294 21.0881ZM22.8236 18.8823L22.1177 20.1176L22.2059 20.2058L23.6177 20.294C23.6177 19.3234 22.8236 18.8823 22.8236 18.8823ZM14 16.147L13.9118 16.6764H14V16.147ZM20.7059 19.4999L21.4118 20.0293L21.5883 19.9411L22.3824 18.7058C21.4118 18.6176 20.7059 19.4999 20.7059 19.4999ZM14.1765 16.2352L14.0883 16.147V16.7646H14.1765V16.2352ZM14.4412 16.4117L14.353 17.0293H14.4412V16.4117ZM14.6177 16.4999L14.5294 17.1176H14.6177V16.4999ZM14.2647 16.3234L14.1765 16.9411H14.2647V16.3234Z" fill="url(#paint0_radial_376_6749)"/>
<path opacity="0.4" d="M47.8824 7.85303C48.1471 11.1177 48.5883 19.1471 42.0589 30.4413C35.6177 41.6471 28.6471 44.2942 25.7354 45.706V44.0295C31.1177 41.1177 35.7942 36.4413 39.5001 29.0295C43.8236 20.4707 44.353 13.5001 44.0001 9.97068L47.8824 7.85303Z" fill="white"/>
<path opacity="0.4" d="M47.8825 7.85285C45.2354 5.99991 38.706 2.64697 25.7354 2.64697C21.2354 2.64697 17.4413 3.08815 14.4413 3.7058C15.0589 4.67638 15.4119 5.82344 15.5001 7.05874C18.853 6.44109 22.4707 6.08815 26.353 6.17638C34.6472 6.26462 41.353 8.11756 44.0883 9.9705L47.8825 7.85285Z" fill="url(#paint1_linear_376_6749)"/>
<path d="M7.91188 13.0589C10.9332 13.0589 13.3825 10.6096 13.3825 7.58826C13.3825 4.56694 10.9332 2.11768 7.91188 2.11768C4.89055 2.11768 2.44128 4.56694 2.44128 7.58826C2.44128 10.6096 4.89055 13.0589 7.91188 13.0589Z" fill="url(#paint2_radial_376_6749)"/>
<path d="M100.029 23.2059H94.8236V7.58829H100.029V12.7942L103.206 7.58829H109.029L103.824 15.4412L109.029 23.2942H103.206L100.029 18.0883V23.2059ZM129.853 11.6471H132.765V7.58829H121.735V11.6471H124.647V23.2059H129.853V11.6471ZM120.588 19.1471H114.765V17.3824H119.353V13.4118H114.765V11.6471H120.588V7.58829H109.559V23.2059H120.588V19.1471ZM62.8824 36.0001H57.0589V24.353H51.853V39.9706H62.8824V36.0001ZM75.0589 36.0001H69.2354V34.2353H73.8236V30.1765H69.2354V28.4118H75.0589V24.353H64.0295V39.9706H75.0589V36.0001ZM132.765 36.0001H126.941V34.2353H131.529V30.1765H126.941V28.4118H132.765V24.353H121.735V39.9706H132.765V36.0001ZM82.0295 15.4412C82.0295 19.9412 78.4118 23.5589 73.9118 23.5589C69.4118 23.5589 65.7942 19.9412 65.7942 15.4412C65.7942 10.9412 69.4118 7.32359 73.9118 7.32359C78.4118 7.32359 82.0295 10.9412 82.0295 15.4412ZM76.8236 15.4412C76.8236 13.853 75.5001 12.5295 73.9118 12.5295C72.3236 12.5295 71.0001 13.853 71.0001 15.4412C71.0001 17.0295 72.3236 18.353 73.9118 18.353C75.5001 18.353 76.8236 17.0295 76.8236 15.4412ZM115.382 33.353C115.382 34.3236 114.588 35.1177 113.618 35.1177C112.647 35.1177 111.853 34.3236 111.853 33.353V24.353H106.647V33.353C106.647 37.1471 109.735 40.3236 113.618 40.3236C117.412 40.3236 120.588 37.2353 120.588 33.353V24.353H115.382V33.353ZM93.6766 17.1177C93.1472 17.8236 91.7354 18.2648 90.7648 18.2648C89.1766 18.2648 87.853 16.9412 87.853 15.353C87.853 13.7648 89.1766 12.4412 90.7648 12.4412C91.7354 12.4412 93.1472 12.8824 93.6766 13.5883V7.58829C92.9707 7.41182 91.5589 7.23535 90.7648 7.23535C86.2648 7.23535 82.6472 10.853 82.6472 15.353C82.6472 19.853 86.2648 23.4706 90.7648 23.4706C91.5589 23.4706 92.8824 23.3824 93.6766 23.1177V17.1177ZM65.1766 12.5295C65.1766 14.7354 64.0295 16.6765 62.0883 17.0295L66.0589 23.2059H60.2354L57.0589 18.0001V23.2059H51.853V7.58829H59.9707C62.8824 7.58829 65.1766 9.61771 65.1766 12.5295ZM59.9707 13.4118C59.9707 12.4412 59.1766 11.6471 58.206 11.6471H57.0589V15.0883H58.206C59.1766 15.0883 59.9707 14.3824 59.9707 13.4118ZM85.4707 37.6765H81.4118L80.8824 39.9706H75.6766L80.8824 24.353H86.0883L91.2942 39.9706H86.0883L85.4707 37.6765ZM84.5001 33.6177L83.4413 29.2059L82.3824 33.6177H84.5001ZM105.677 30.7942H98.1766V34.5883H100.559C100.294 35.1177 99.7648 36.0001 98.1766 36.0001C96.4118 36.0001 95.0001 34.5001 95.0001 32.5589C95.0001 30.4412 96.5883 29.2059 98.1766 29.1177C99.9413 29.0295 100.647 29.7353 101.177 30.2648L104.794 26.8236C103.029 25.0589 101 24.1765 98.1766 24.1765C93.6766 24.1765 90.0589 27.7942 90.0589 32.2942C90.0589 36.7942 93.6766 40.4118 98.1766 40.4118C102.853 40.4118 105.677 37.0589 105.677 32.9118V30.7942Z" fill="white"/>
</g>
<defs>
<radialGradient id="paint0_radial_376_6749" cx="0" cy="0" r="1" gradientUnits="userSpaceOnUse" gradientTransform="translate(7.75914 7.44521) scale(42.1553 42.1553)">
<stop stop-color="#00AEFF"/>
<stop offset="0.131" stop-color="#00A5F7"/>
<stop offset="0.345" stop-color="#008DE0"/>
<stop offset="0.616" stop-color="#0065BA"/>
<stop offset="0.928" stop-color="#002F87"/>
<stop offset="1" stop-color="#00217A"/>
</radialGradient>
<linearGradient id="paint1_linear_376_6749" x1="14.4413" y1="6.30874" x2="47.938" y2="6.30874" gradientUnits="userSpaceOnUse">
<stop stop-color="white"/>
<stop offset="1" stop-color="white" stop-opacity="0"/>
</linearGradient>
<radialGradient id="paint2_radial_376_6749" cx="0" cy="0" r="1" gradientUnits="userSpaceOnUse" gradientTransform="translate(6.43746 5.38326) scale(7.31118)">
<stop stop-color="white"/>
<stop offset="0.679" stop-color="#7A7A7A"/>
<stop offset="1" stop-color="#404040"/>
</radialGradient>
<clipPath id="clip0_376_6749">
<rect width="132.529" height="48" fill="white" transform="translate(0.235352)"/>
</clipPath>
</defs>
</svg>
