<svg width="75" height="71" viewBox="0 0 75 71" fill="none" xmlns="http://www.w3.org/2000/svg">
<path d="M37.5 66.5716C58.2094 66.5716 75 51.6691 75 33.2858C75 14.9025 58.2094 0 37.5 0C16.7906 0 0 14.9025 0 33.2858C0 41.6548 3.48281 49.3106 9.23438 55.1594C8.77969 59.9906 7.27969 65.2878 5.62031 69.263C5.25 70.1475 5.96719 71.1366 6.9 70.9844C17.475 69.225 23.7609 66.5241 26.4937 65.1166C30.084 66.0879 33.7843 66.5771 37.5 66.5716V66.5716ZM37.5 23.7423C45.3 15.6063 64.8047 29.8431 37.5 48.1456C10.1953 29.8384 29.7 15.6063 37.5 23.7423Z" fill="#06BBCF"/>
</svg>
