<svg width="23" height="21" viewBox="0 0 23 21" fill="none" xmlns="http://www.w3.org/2000/svg">
<path d="M21.6508 9.35654C21.8932 9.17598 22.073 8.9241 22.165 8.6362C22.257 8.34831 22.2566 8.03884 22.1638 7.7512C22.071 7.46355 21.8906 7.21215 21.6477 7.03225C21.4049 6.85234 21.1118 6.75295 20.8096 6.74802L14.9404 6.52629C14.9116 6.5243 14.8839 6.51401 14.8608 6.49665C14.8376 6.4793 14.82 6.45562 14.81 6.42847L12.7819 0.950579C12.68 0.671884 12.4949 0.431234 12.2517 0.261209C12.0085 0.091185 11.7189 0 11.4222 0C11.1254 0 10.8359 0.091185 10.5927 0.261209C10.3495 0.431234 10.1644 0.671884 10.0625 0.950579L8.04088 6.44804C8.03088 6.47518 8.01326 6.49886 7.99011 6.51621C7.96697 6.53357 7.93931 6.54386 7.91045 6.54586L2.04128 6.76758C1.73908 6.77252 1.44601 6.8719 1.20315 7.05181C0.960297 7.23171 0.779834 7.48312 0.687068 7.77076C0.594302 8.05841 0.593886 8.36787 0.685878 8.65576C0.777869 8.94366 0.957655 9.19554 1.20003 9.3761L5.80407 12.9954C5.82711 13.0136 5.84433 13.038 5.85361 13.0659C5.86288 13.0937 5.86379 13.1236 5.85624 13.1519L4.27156 18.7668C4.18944 19.0527 4.1974 19.357 4.29435 19.6382C4.39129 19.9195 4.57252 20.164 4.81338 20.3386C5.05424 20.5132 5.34304 20.6093 5.64048 20.614C5.93793 20.6186 6.22958 20.5315 6.47576 20.3645L11.3407 17.1038C11.3646 17.0873 11.3931 17.0784 11.4222 17.0784C11.4513 17.0784 11.4797 17.0873 11.5037 17.1038L16.3686 20.3645C16.6114 20.5372 16.902 20.63 17.2001 20.63C17.4981 20.63 17.7887 20.5372 18.0315 20.3645C18.2724 20.1916 18.4538 19.9482 18.5508 19.6679C18.6477 19.3876 18.6554 19.0842 18.5728 18.7994L16.9751 13.165C16.9666 13.1367 16.9671 13.1065 16.9764 13.0785C16.9857 13.0505 17.0035 13.026 17.0272 13.0085L21.6508 9.35654Z" fill="#F7951D"/>
</svg>
