<svg width="102" height="80" viewBox="0 0 102 80" fill="none" xmlns="http://www.w3.org/2000/svg">
<rect width="84.5714" height="54.8571" rx="5" fill="#F1F1F1"/>
<rect x="10.2852" y="18.2856" width="65.1429" height="26.2857" fill="#06BBCF"/>
<path d="M0 5C0 2.23858 2.23858 0 5 0H79.5714C82.3329 0 84.5714 2.23858 84.5714 5V10.2857H0V5Z" fill="#C3CDDF"/>
<circle cx="7.42941" cy="5.14279" r="2.85714" fill="#1AE8FF"/>
<circle cx="14.2849" cy="5.14279" r="2.85714" fill="#1AE8FF"/>
<circle cx="21.1423" cy="5.14279" r="2.85714" fill="#1AE8FF"/>
<rect x="17.1426" y="25.1426" width="84.5714" height="54.8571" rx="5" fill="#EFF5FF"/>
<path d="M17.1426 30.1426C17.1426 27.3812 19.3812 25.1426 22.1426 25.1426H96.714C99.4754 25.1426 101.714 27.3812 101.714 30.1426V35.4283H17.1426V30.1426Z" fill="#C3CDDF"/>
<path d="M44.6374 61.3426C43.6641 61.3426 42.7308 61.2026 41.8374 60.9226C40.9441 60.6292 40.2108 60.2292 39.6374 59.7226L40.4774 57.7826C41.1041 58.2626 41.7508 58.6159 42.4174 58.8426C43.0974 59.0692 43.8108 59.1826 44.5574 59.1826C45.4641 59.1826 46.1508 59.0026 46.6174 58.6426C47.0841 58.2826 47.3174 57.7559 47.3174 57.0626C47.3174 56.3959 47.0841 55.8959 46.6174 55.5626C46.1641 55.2159 45.4974 55.0426 44.6174 55.0426H42.3374V52.9826H44.3974C45.1574 52.9826 45.7641 52.7959 46.2174 52.4226C46.6708 52.0492 46.8974 51.5359 46.8974 50.8826C46.8974 50.2692 46.6841 49.8026 46.2574 49.4826C45.8441 49.1626 45.2441 49.0026 44.4574 49.0026C43.0441 49.0026 41.7974 49.4826 40.7174 50.4426L39.8774 48.5226C40.4508 47.9892 41.1574 47.5759 41.9974 47.2826C42.8508 46.9892 43.7441 46.8426 44.6774 46.8426C46.1441 46.8426 47.2908 47.1759 48.1174 47.8426C48.9574 48.4959 49.3774 49.4092 49.3774 50.5826C49.3774 51.4226 49.1374 52.1492 48.6574 52.7626C48.1908 53.3626 47.5441 53.7626 46.7174 53.9626V53.7226C47.6908 53.8826 48.4441 54.2826 48.9774 54.9226C49.5241 55.5492 49.7974 56.3359 49.7974 57.2826C49.7974 58.5359 49.3374 59.5292 48.4174 60.2626C47.4974 60.9826 46.2374 61.3426 44.6374 61.3426ZM57.0496 61.3426C55.3963 61.3426 54.1229 60.7159 53.2296 59.4626C52.3363 58.1959 51.8896 56.3959 51.8896 54.0626C51.8896 51.7026 52.3363 49.9092 53.2296 48.6826C54.1229 47.4559 55.3963 46.8426 57.0496 46.8426C58.7163 46.8426 59.9896 47.4559 60.8696 48.6826C61.7629 49.9092 62.2096 51.6959 62.2096 54.0426C62.2096 56.3892 61.7629 58.1959 60.8696 59.4626C59.9896 60.7159 58.7163 61.3426 57.0496 61.3426ZM57.0496 59.2226C57.9563 59.2226 58.6296 58.8092 59.0696 57.9826C59.5096 57.1426 59.7296 55.8292 59.7296 54.0426C59.7296 52.2559 59.5096 50.9626 59.0696 50.1626C58.6296 49.3492 57.9563 48.9426 57.0496 48.9426C56.1563 48.9426 55.4829 49.3492 55.0296 50.1626C54.5896 50.9626 54.3696 52.2559 54.3696 54.0426C54.3696 55.8292 54.5896 57.1426 55.0296 57.9826C55.4829 58.8092 56.1563 59.2226 57.0496 59.2226ZM65.4618 61.1426V59.0026H68.7018V49.2026H69.9418L65.7818 51.6826V49.2426L69.4418 47.0426H71.2818V59.0026H74.3218V61.1426H65.4618Z" fill="#1AE8FF"/>
<circle cx="24.572" cy="30.2854" r="2.85714" fill="#1AE8FF"/>
<circle cx="31.4275" cy="30.2854" r="2.85714" fill="#1AE8FF"/>
<circle cx="38.2849" cy="30.2854" r="2.85714" fill="#1AE8FF"/>
</svg>
