<svg width="116" height="35" viewBox="0 0 116 35" fill="none" xmlns="http://www.w3.org/2000/svg">
<path d="M70.8682 25.8018C63.3476 28.9836 55.1328 30.5456 47.67 30.5456C36.6205 30.5456 25.9181 27.5374 17.2405 22.5043C16.4884 22.0415 15.9099 22.8514 16.5463 23.4299C24.5875 30.6613 35.1742 35.0001 46.918 35.0001C55.3063 35.0001 65.0831 32.339 71.7938 27.4217C72.9508 26.496 72.0252 25.2812 70.8682 25.8018Z" fill="#D7D7D7"/>
<path d="M66.6444 22.9668C66.0659 23.3718 66.1238 23.9503 66.818 23.8924C68.9585 23.661 73.8179 23.0825 74.6857 24.1817C75.5535 25.2808 73.7022 29.8511 72.8923 31.8758C72.6609 32.5122 73.1816 32.7436 73.7022 32.2808C77.289 29.2725 78.2724 22.909 77.5204 22.0412C76.8262 21.0577 70.4626 20.2478 66.6444 22.9668Z" fill="#D7D7D7"/>
<path d="M79.8347 15.3301C77.7521 14.1731 75.3802 13.826 73.124 13.8838L79.2562 5.14834C79.8347 4.33843 80.124 3.87562 80.124 3.47067V1.21448C80.124 0.809528 79.8347 0.578125 79.4298 0.578125H67.6282C67.2811 0.578125 66.9918 0.867379 66.9918 1.21448V3.81777C66.9918 4.22273 67.2811 4.45413 67.686 4.45413H73.8182L66.7604 14.578C66.3555 15.2144 66.3555 15.9665 66.3555 16.3714V19.0326C66.3555 19.4375 66.7604 19.8425 67.1654 19.6111C71.1571 17.4706 75.9587 17.702 79.6033 19.6111C80.0661 19.8425 80.4711 19.3797 80.4711 19.0326V16.1979C80.4132 15.9665 80.2975 15.5615 79.8347 15.3301Z" fill="#D7D7D7"/>
<path d="M20.4208 20.3057H24.0075C24.4125 20.3057 24.7017 20.0164 24.7017 19.6693V9.89254C24.7017 7.75206 24.586 4.80166 27.1893 4.80166C29.7348 4.80166 29.3877 7.80991 29.3877 9.89254V19.6693C29.3877 20.0164 29.6769 20.3057 30.024 20.3057H33.6108C34.0157 20.3057 34.305 20.0164 34.305 19.6693V9.89254C34.305 8.85122 34.2471 7.28925 34.6521 6.36364C34.9992 5.43802 35.9248 4.85951 36.7926 4.85951C37.8339 4.85951 38.6438 5.20662 38.8752 6.42149C39.0488 7.17355 38.9909 9.08263 38.9909 9.89254V19.6693C38.9909 20.0164 39.2802 20.3057 39.6273 20.3057H43.214C43.619 20.3057 43.9082 20.0164 43.9082 19.6693V8.04131C43.9082 6.07438 44.1396 3.8182 42.9826 2.25623C41.9991 0.867805 40.3215 0.231445 38.8174 0.231445C36.6769 0.231445 34.7099 1.33061 33.8422 3.64465C32.8587 1.33061 31.4124 0.231445 29.2141 0.231445C27.0158 0.231445 25.3959 1.33061 24.4703 3.64465H24.4125V1.21491C24.4125 0.867805 24.1232 0.636401 23.7761 0.57855H20.4208C20.0158 0.57855 19.7266 0.867805 19.7266 1.21491V19.6693C19.7844 20.0164 20.0737 20.2478 20.4208 20.3057Z" fill="#D7D7D7"/>
<path d="M90.2483 0.231445C85.0417 0.231445 82.207 4.68596 82.207 10.4132C82.207 16.0826 85.0417 20.6528 90.2483 20.6528C95.2813 20.6528 98.4631 16.1983 98.4631 10.5867C98.4053 4.80166 95.5706 0.231445 90.2483 0.231445ZM90.2483 16.8925C87.4136 16.8925 87.4715 12.0909 87.4715 9.83469C87.4715 7.57851 87.645 3.99175 90.3062 3.99175C91.4632 3.99175 92.2731 4.51241 92.678 5.78513C93.1408 7.2314 93.1987 9.14048 93.1987 10.6446C93.1408 13.0165 93.0251 16.8925 90.2483 16.8925Z" fill="#D7D7D7"/>
<path d="M110.726 0.231445C108.239 0.231445 106.85 1.44631 105.867 3.9339H105.751V1.15706C105.693 0.867805 105.404 0.636401 105.115 0.636401H101.817C101.47 0.636401 101.181 0.925656 101.123 1.21491V19.6115C101.123 19.9586 101.412 20.2478 101.759 20.2478H105.346C105.751 20.2478 106.04 19.9586 106.04 19.6115V9.71899C106.04 8.50412 106.098 7.3471 106.619 6.24794C107.024 5.38017 107.834 4.80166 108.702 4.80166C111.189 4.80166 110.958 7.75206 110.958 9.77684V19.785C111.016 20.0743 111.247 20.3635 111.594 20.3635H115.181C115.528 20.3635 115.817 20.1321 115.875 19.785V8.21487C115.875 6.42149 115.875 3.9339 114.949 2.48763C113.85 0.809954 112.288 0.231445 110.726 0.231445Z" fill="#D7D7D7"/>
<path d="M57.5621 7.86823C55.4794 8.09963 52.7604 8.27318 50.8514 9.14095C48.5952 10.1244 47.0332 12.0913 47.0332 14.9839C47.0332 18.6863 49.4051 20.5954 52.4133 20.5954C54.9588 20.5954 56.3472 20.0169 58.3141 17.9921C58.9505 18.9177 59.1819 19.3805 60.3967 20.364C60.686 20.4797 61.0331 20.4797 61.2645 20.3062C61.9587 19.6698 63.2893 18.5128 63.9835 17.9343C64.2728 17.7029 64.2149 17.2979 63.9835 17.0087C63.3471 16.083 62.6529 15.3888 62.6529 13.7112V8.09963C62.6529 5.72774 62.8265 3.58726 61.091 1.90959C59.7025 0.579018 57.4464 0.116211 55.7108 0.116211C52.2976 0.116211 48.4795 1.38893 47.6696 5.61204C47.6117 6.07485 47.901 6.30625 48.1902 6.3641L51.6613 6.71121C52.0084 6.71121 52.2398 6.3641 52.2976 6.07485C52.5869 4.62858 53.8018 3.93437 55.1902 3.93437C55.9422 3.93437 56.7521 4.22362 57.215 4.85998C57.7356 5.61204 57.6778 6.59551 57.6778 7.46327L57.5621 7.86823ZM56.9257 15.331C56.3472 16.3145 55.4216 16.9508 54.4381 16.9508C53.0497 16.9508 52.2398 15.9095 52.2398 14.3475C52.2398 11.2814 54.9588 10.7608 57.5621 10.7608V11.5128C57.5621 12.9013 57.6199 14.0583 56.9257 15.331Z" fill="#D7D7D7"/>
<path d="M16.9503 16.8925C16.3139 15.9668 15.6197 15.2726 15.6197 13.595V7.98342C15.6197 5.61153 15.7933 3.47105 14.0578 1.79338C12.6693 0.462807 10.4132 0 8.67763 0C5.26443 0 1.44627 1.27272 0.63636 5.49583C0.578509 5.95864 0.867763 6.19004 1.15702 6.24789L4.62807 6.595C4.97517 6.595 5.20658 6.24789 5.26443 5.95864C5.55368 4.51237 6.76855 3.81816 8.15697 3.81816C8.90903 3.81816 9.71894 4.10741 10.1818 4.74377C10.7024 5.49583 10.5867 6.4793 10.5867 7.34706V7.80987C8.50408 8.04127 5.78509 8.21482 3.87601 9.08259C1.61982 10.0661 0 12.033 0 14.9834C0 18.6858 2.37189 20.5949 5.38013 20.5949C7.92557 20.5949 9.31399 20.0164 11.2809 17.9916C11.9173 18.9172 12.1487 19.38 13.3635 20.3635C13.6528 20.4792 13.9999 20.4792 14.2313 20.3057C14.9255 19.6693 16.2561 18.5123 16.9503 17.9338C17.2396 17.6445 17.1817 17.2396 16.9503 16.8925ZM9.8925 15.3305C9.31399 16.3139 8.44623 16.9503 7.40491 16.9503C6.01649 16.9503 5.20658 15.909 5.20658 14.347C5.20658 11.2809 7.92557 10.7603 10.5289 10.7603V11.5123C10.5867 12.9007 10.6446 14.0578 9.8925 15.3305Z" fill="#D7D7D7"/>
</svg>
