<svg width="98" height="80" viewBox="0 0 98 80" fill="none" xmlns="http://www.w3.org/2000/svg">
<rect width="97.1613" height="63.0235" rx="5" fill="#EFF5FF"/>
<path d="M0 5C0 2.23857 2.23858 0 5 0H92.1613C94.9227 0 97.1613 2.23858 97.1613 5V11.8169H0V5Z" fill="#C3CDDF"/>
<circle cx="8.53443" cy="5.90845" r="3.28248" fill="#1AE8FF"/>
<circle cx="16.4124" cy="5.90845" r="3.28248" fill="#1AE8FF"/>
<circle cx="24.2903" cy="5.90845" r="3.28248" fill="#1AE8FF"/>
<path d="M52.1367 22.9711C52.8691 22.4743 53.7087 22.2055 54.518 21.8823C59.1116 20.0461 63.8818 18.9514 68.809 18.527C68.9706 18.5134 69.179 18.6071 69.2907 18.3911C70.5893 18.3911 71.8895 18.4017 73.1881 18.3821C73.472 18.3775 73.5309 18.4364 73.5263 18.7203C73.5067 20.0159 73.5173 21.313 73.5173 22.6102C73.2711 22.9771 73.3406 23.4075 73.3029 23.8076C72.7985 29.2588 71.3685 34.4624 69.1321 39.4546C69.0868 39.5558 69.0687 39.6932 68.9283 39.7309C66.0336 36.8347 63.1433 33.9354 60.2456 31.0422C57.5472 28.3483 54.8397 25.6619 52.1367 22.9726V22.9711Z" fill="#1AE8FF"/>
<path d="M52.136 22.9722C54.839 25.6615 57.5465 28.3479 60.2449 31.0418C63.1427 33.935 66.0344 36.8343 68.9276 39.7305C68.7358 40.629 68.2224 41.3855 67.8041 42.1783C66.3711 44.8918 64.6859 47.4483 62.7667 49.8432C61.0603 51.9724 59.1879 53.9475 57.169 55.7882C54.6623 58.0729 51.9005 60.0178 49.1084 61.925C49.0329 61.9446 48.9453 61.9446 48.8819 61.9854C46.1065 63.7552 43.1785 65.235 40.163 66.5427C39.1029 67.0017 38.058 67.5106 36.933 67.8096C36.6521 67.8096 36.5223 67.5801 36.3562 67.4155C34.9352 66.0036 33.5188 64.5857 32.0979 63.1723C31.9423 63.0183 31.7687 62.8824 31.6041 62.7389C32.5207 62.1666 33.4327 61.5837 34.3569 61.0235C36.5857 59.6735 38.8205 58.3326 41.0554 56.9902C41.3423 56.8181 41.5356 56.6384 41.5311 56.2427C41.5054 54.4367 41.5099 52.6307 41.528 50.8263C41.5326 50.4201 41.3846 50.3189 41.0025 50.3219C38.9323 50.337 36.862 50.3355 34.7918 50.3219C34.4701 50.3204 34.2935 50.4185 34.1334 50.7085C32.9103 52.9388 31.6811 55.1676 30.4202 57.3783C29.9461 58.2088 29.5746 59.0997 28.9691 59.8532C28.7637 59.8623 28.6444 59.7188 28.5176 59.592C27.1012 58.1786 25.6863 56.7667 24.2714 55.3533C24.1445 55.2265 23.9996 55.1102 24.0071 54.9049C24.0856 54.319 24.4012 53.8222 24.6142 53.2876C25.6727 50.6284 26.9351 48.0659 28.3092 45.5547C28.8256 44.611 29.5006 43.7578 29.9038 42.7536C30.834 41.4278 31.7385 40.0839 32.7004 38.7822C34.6091 36.2001 36.7231 33.787 39.0939 31.6201C42.2045 28.7737 45.5719 26.2671 49.3289 24.3116C50.25 23.8314 51.1213 23.2485 52.139 22.9737L52.136 22.9722ZM59.2936 40.7136C59.3208 36.2031 55.7495 32.6032 51.2074 32.5654C46.7935 32.5277 43.1166 36.1457 43.0788 40.5626C43.0411 45.07 46.638 48.7424 51.1152 48.7696C55.6378 48.7968 59.2634 45.224 59.2921 40.7136H59.2936Z" fill="#06BBCF"/>
<path d="M27.9947 64.9118C30.2869 67.8957 28.9596 72.2823 25.4865 73.8422C21.2373 75.7509 17.0032 77.6882 12.7615 79.6135C12.4715 79.7449 12.1786 79.8748 11.8962 80.0001C11.7286 79.831 11.869 79.7132 11.9204 79.6014C13.9363 75.1665 15.931 70.7209 17.9817 66.3026C19.3377 63.3822 22.5646 61.9869 25.4095 63.0077C25.9048 63.1859 26.3472 63.4607 26.7972 63.7265C26.5345 64.6144 25.8746 65.315 25.5243 66.3132C26.4227 65.8043 27.208 65.3588 27.9932 64.9134L27.9947 64.9118Z" fill="#EABA21"/>
<path d="M29.903 42.7524C29.4983 43.7581 28.8248 44.6097 28.3084 45.5535C26.9342 48.0647 25.6718 50.6257 24.6133 53.2864C24.4004 53.8209 24.0848 54.3193 24.0063 54.9036C22.9281 54.9414 21.9164 54.5624 20.873 54.3887C20.4728 54.3223 20.1949 54.3706 19.8809 54.6092C18.2848 55.8217 16.6735 57.0177 15.0684 58.2182C14.9778 58.2861 14.9068 58.4054 14.6924 58.3073C15.0019 57.4994 15.307 56.6855 15.6241 55.8746C17.3319 51.5106 19.0503 47.1496 20.7431 42.7796C20.9288 42.3024 21.1463 42.0774 21.6929 42.1288C24.0063 42.3432 26.3227 42.5244 28.6375 42.7101C29.0573 42.7433 29.4817 42.7388 29.903 42.7524Z" fill="#5B667D"/>
<path d="M27.9943 64.9137C27.2091 65.3592 26.4239 65.8032 25.5254 66.3135C25.8757 65.3154 26.5356 64.6163 26.7983 63.7269C27.3797 62.993 27.7451 62.1307 28.2042 61.3259C28.476 60.8487 28.8278 60.4033 28.9668 59.8551C29.5723 59.1016 29.9453 58.2107 30.4179 57.3802C31.6788 55.1695 32.9079 52.9422 34.1311 50.7104C34.2896 50.4204 34.4678 50.3223 34.7894 50.3238C36.8597 50.3359 38.93 50.3374 41.0002 50.3238C41.3823 50.3208 41.5302 50.4219 41.5257 50.8281C41.5076 52.6341 41.5031 54.4401 41.5287 56.2446C41.5348 56.6403 41.34 56.82 41.0531 56.9921C38.8197 58.3345 36.5834 59.6754 34.3546 61.0254C33.4304 61.5856 32.5199 62.1685 31.6018 62.7408C30.3575 63.3977 29.1767 64.1587 27.9928 64.9153L27.9943 64.9137Z" fill="#5B667D"/>
<path d="M36.9326 67.8079C38.0576 67.509 39.104 67.0001 40.1626 66.541C43.1781 65.2333 46.1076 63.7535 48.8815 61.9837C48.9449 61.9445 49.031 61.943 49.108 61.9233C49.2484 64.5191 49.4523 67.1103 49.712 69.697C49.8192 70.7601 49.8117 70.7661 48.7939 71.1632C44.1385 72.9723 39.4906 74.7979 34.8382 76.6145C34.4003 76.7851 33.9548 76.9421 33.4248 76.9889C33.9684 76.2611 34.5105 75.5333 35.0556 74.8069C35.8016 73.8133 36.5491 72.8213 37.2996 71.8307C37.4792 71.5936 37.5291 71.3641 37.4762 71.0515C37.2935 69.9703 36.91 68.9223 36.9311 67.8079H36.9326Z" fill="#5B667D"/>
<circle cx="51.4549" cy="40.807" r="8.38069" fill="white"/>
<path d="M50.9075 47.414C49.7186 47.7451 48.6885 47.5431 48.9767 46.3973C49.2615 45.2514 49.9537 41.9694 50.1392 41.1712C50.1557 41.0951 50.2319 41.0454 50.3114 41.0586L52.2754 41.3037C52.3549 41.317 52.4079 41.3965 52.3913 41.4759L51.6825 44.7082L59.5219 38.8166C58.7502 35.6803 56.1967 33.1369 52.8086 32.5507C49.4437 31.9678 46.198 33.478 44.4128 36.144C46.1516 35.6008 50.4174 34.5709 51.8415 34.1999C53.1299 33.8654 54.0108 34.1403 53.7724 35.1802C53.5107 36.3327 52.7954 39.6081 52.6099 40.4062C52.5933 40.4824 52.5171 40.5321 52.4377 40.5188L50.4737 40.3102C50.3942 40.2969 50.3412 40.2175 50.3578 40.138L51.0665 36.9057L43.2305 42.7973C43.9988 45.9336 46.5557 48.4771 49.9405 49.0632C53.3054 49.6461 56.5478 48.1359 58.3362 45.4733C56.6504 46.0065 52.3416 47.0166 50.9075 47.4173V47.414Z" fill="#FF5D0A"/>
</svg>
