<svg width="80" height="80" viewBox="0 0 80 80" fill="none" xmlns="http://www.w3.org/2000/svg">
<path d="M36.6787 79.9999C35.7275 79.6591 34.7075 79.756 33.7344 79.5341C33.2056 79.4121 32.658 79.3559 32.1293 79.2308C31.1906 79.0089 30.6618 78.2461 30.837 77.4176C31.0373 76.4766 31.8383 75.9608 32.8301 76.1546C35.3614 76.6517 37.9209 76.9018 40.4991 76.8611C57.0918 76.611 71.682 65.1472 75.637 49.0378C78.4061 37.7646 76.2314 27.3731 69.4636 17.9381C69.135 17.4817 68.8722 17.416 68.3466 17.638C65.7057 18.7478 62.7489 18.0069 60.8528 15.8217C59.063 13.7584 58.7877 10.6321 60.1863 8.2562C61.6538 5.76148 64.4542 4.54539 67.3265 5.15813C69.983 5.72085 72.0888 8.05301 72.3954 10.8135C72.5424 12.1327 72.3453 13.4176 71.6789 14.5774C71.3879 15.0839 71.4598 15.3996 71.804 15.8529C75.1269 20.1953 77.4142 25.044 78.744 30.343C79.2509 32.3594 79.6044 34.4039 79.7671 36.4797C79.7765 36.6204 79.7139 36.8017 79.9173 36.8736V43.2793C79.7546 43.3293 79.7703 43.4669 79.7609 43.5919C79.5356 46.5806 79.0099 49.5223 77.9962 52.3328C72.5268 67.4981 61.9135 76.6454 46.006 79.5559C45.0298 79.7341 44.0223 79.6622 43.0742 79.9999H36.6725H36.6787ZM65.8653 14.9995C67.727 14.9995 69.2977 13.4332 69.2977 11.5669C69.2977 9.71303 67.7145 8.12803 65.8591 8.13116C63.9974 8.13116 62.436 9.70677 62.436 11.5731C62.436 13.4489 63.988 14.9995 65.8622 14.9995H65.8653Z" fill="#C3CDDF"/>
<path d="M43.0805 0C44.0849 0.325127 45.1518 0.231337 46.1687 0.465804C46.6975 0.587727 47.242 0.647122 47.7739 0.765919C48.8064 0.997259 49.3446 1.76006 49.1475 2.66979C48.9566 3.54825 48.093 4.05158 47.0855 3.84525C44.9672 3.4107 42.8239 3.15748 40.6681 3.15436C28.628 3.1356 18.75 7.78741 11.1404 17.1192C6.87883 22.3431 4.32563 28.3798 3.47144 35.0606C2.20109 45.0145 4.6041 54.0617 10.5334 62.1649C10.7775 62.4963 10.9464 62.6182 11.4033 62.4306C13.9283 61.3896 16.3125 61.6929 18.3745 63.5061C20.4365 65.3193 21.1029 67.6608 20.3363 70.29C19.5572 72.9535 17.6736 74.5541 14.9452 74.9418C12.4108 75.3013 10.2737 74.3822 8.75932 72.2907C7.20737 70.1493 7.04779 67.8171 8.23053 65.46C8.51526 64.891 8.43078 64.5752 8.0866 64.1188C3.43389 57.932 0.771173 50.9793 0.136001 43.2575C-1.43472 24.1719 10.7462 6.59945 29.1098 1.46932C31.4847 0.80656 33.9034 0.337628 36.3689 0.16256C36.4941 0.153181 36.6318 0.168816 36.685 0.00937828H43.0868L43.0805 0ZM17.4765 68.4236C17.4765 66.5416 15.9433 65.0066 14.0628 65.0004C12.1886 64.9941 10.6304 66.526 10.6116 68.3955C10.5897 70.2775 12.1949 71.8875 14.0754 71.8718C15.9402 71.8562 17.4765 70.2962 17.4765 68.4236Z" fill="#C3CDDF"/>
<path d="M27.2231 75.6638C27.2324 76.536 26.5128 77.2551 25.643 77.2488C24.7794 77.2426 24.0441 76.4985 24.0629 75.6482C24.0816 74.8385 24.8107 74.1101 25.6179 74.0851C26.4659 74.0601 27.2137 74.7979 27.2231 75.6607V75.6638Z" fill="#C3CDDF"/>
<path d="M54.3008 2.78875C55.2113 2.77624 55.8841 3.43275 55.8872 4.3331C55.8872 5.23033 55.2051 5.9306 54.3259 5.92435C53.4998 5.92122 52.7896 5.22721 52.7645 4.39563C52.7364 3.50466 53.406 2.80125 54.3008 2.78875Z" fill="#C3CDDF"/>
<path d="M65.8656 14.9997C63.9914 14.9997 62.4426 13.4491 62.4395 11.5733C62.4395 9.70697 64.0008 8.13447 65.8625 8.13135C67.7148 8.13135 69.3012 9.71322 69.3012 11.5671C69.3012 13.4303 67.7305 14.9997 65.8688 14.9997H65.8656Z" fill="#FF5D0A"/>
<path d="M17.4764 68.4237C17.4764 70.2963 15.9401 71.8563 14.0752 71.8719C12.1947 71.8876 10.5927 70.2776 10.6115 68.3956C10.6303 66.5261 12.1885 64.9974 14.0627 65.0005C15.9401 65.0067 17.4732 66.5417 17.4764 68.4237Z" fill="#FF5D0A"/>
<path d="M65.2489 40.0221C65.2489 40.8818 65.202 41.7446 65.2645 42.5981C65.3115 43.2202 65.0768 43.3421 64.523 43.3015C63.9035 43.2546 63.2745 43.2765 62.6519 43.2952C61.782 43.3202 61.2376 43.736 61.0374 44.5926C60.4554 47.0873 59.5073 49.4258 58.14 51.5954C57.6519 52.3707 57.7489 53.0584 58.3778 53.7149C58.8283 54.187 59.2789 54.6559 59.7608 55.0936C60.0893 55.3906 60.1769 55.5875 59.7983 55.9502C58.4685 57.2319 57.17 58.5481 55.8809 59.8705C55.6055 60.1518 55.4303 60.1987 55.1456 59.883C54.6919 59.3796 54.2069 58.9076 53.7157 58.4449C52.996 57.7665 52.3546 57.6758 51.5348 58.1979C49.3915 59.5641 47.073 60.4801 44.6136 61.0803C43.6749 61.3085 43.2807 61.8306 43.2588 62.806C43.2432 63.4812 43.2369 64.1596 43.2619 64.838C43.2776 65.2132 43.1555 65.3226 42.7801 65.3195C40.9058 65.3007 39.0347 65.2976 37.1605 65.3195C36.7256 65.3257 36.6411 65.1663 36.6568 64.7786C36.6849 64.1034 36.6787 63.425 36.6568 62.7466C36.6317 61.8525 36.2406 61.2929 35.4021 61.0928C32.8614 60.4895 30.4803 59.5235 28.2681 58.126C27.5704 57.6852 26.8726 57.7978 26.275 58.3667C25.7681 58.8513 25.2644 59.3453 24.7856 59.8611C24.5197 60.1487 24.3476 60.1862 24.0503 59.8798C22.7424 58.5356 21.4189 57.2132 20.0829 55.9002C19.7919 55.6126 19.7856 55.4344 20.086 55.1561C20.6023 54.6809 21.0966 54.1776 21.5754 53.6649C22.1417 53.0647 22.2543 52.3644 21.8194 51.6704C20.427 49.4539 19.4446 47.078 18.8657 44.5238C18.6874 43.7329 18.1054 43.3109 17.2793 43.2859C16.5503 43.264 15.8213 43.264 15.0953 43.2859C14.748 43.2984 14.6542 43.1764 14.6573 42.8419C14.6729 40.9412 14.6761 39.0404 14.6573 37.1397C14.6542 36.7395 14.8075 36.6645 15.1579 36.677C15.8338 36.6989 16.5096 36.702 17.1855 36.677C18.1492 36.6426 18.6623 36.23 18.8907 35.2859C19.4821 32.8224 20.4177 30.509 21.7756 28.3644C22.2543 27.6079 22.1605 26.9045 21.5378 26.2386C21.0591 25.7259 20.5584 25.2288 20.0484 24.7474C19.8075 24.5191 19.7887 24.3691 20.039 24.1252C21.4126 22.7747 22.7737 21.4117 24.1254 20.0424C24.3695 19.7954 24.5259 19.8142 24.7543 20.0549C25.2174 20.5488 25.6993 21.024 26.1843 21.493C26.8695 22.1589 27.5704 22.2745 28.362 21.7743C30.5084 20.4238 32.8144 19.4828 35.28 18.9013C36.2062 18.6825 36.6317 18.1323 36.6536 17.1788C36.6724 16.5035 36.6787 15.8251 36.6505 15.1499C36.6349 14.7653 36.7725 14.6716 37.1386 14.6747C39.0128 14.6903 40.8839 14.6966 42.7582 14.6715C43.2025 14.6653 43.2682 14.8404 43.2557 15.2186C43.2306 15.8939 43.2306 16.5723 43.2557 17.2507C43.287 18.1479 43.7438 18.7044 44.6168 18.9013C47.0604 19.4609 49.3446 20.3988 51.4722 21.7306C52.3608 22.287 53.0085 22.1932 53.772 21.4492C54.2006 21.0303 54.6387 20.6207 55.0361 20.1768C55.3333 19.8423 55.5304 19.7642 55.8903 20.1393C57.1731 21.4711 58.4873 22.7685 59.8077 24.0627C60.0924 24.341 60.1362 24.516 59.8202 24.8005C59.3352 25.235 58.8878 25.7071 58.4372 26.176C57.7301 26.9107 57.6331 27.5703 58.165 28.4207C59.5011 30.5465 60.4241 32.8412 61.0154 35.2765C61.2532 36.255 61.7727 36.6614 62.7833 36.6864C63.4591 36.7052 64.135 36.7052 64.8108 36.6864C65.155 36.6739 65.2551 36.7927 65.2489 37.1303C65.2301 38.0932 65.2426 39.0561 65.2426 40.019L65.2489 40.0221ZM39.9453 52.9334C47.001 52.9459 52.8302 47.1436 52.8834 40.0533C52.9366 32.9787 47.0698 27.0795 39.9766 27.067C32.9177 27.0545 27.0854 32.8599 27.0385 39.9439C26.9915 47.0217 32.852 52.9177 39.9453 52.9303V52.9334Z" fill="#1AE8FF"/>
</svg>
