<svg width="81" height="80" viewBox="0 0 81 80" fill="none" xmlns="http://www.w3.org/2000/svg">
<path d="M31.8483 29.3472C31.9209 33.8184 35.709 36.651 39.5455 36.6172C52.1193 36.5108 64.698 36.5882 77.2719 36.5543C78.0847 36.5543 78.2346 36.767 78.2346 37.5356C78.2104 51.365 78.2104 65.1945 78.2346 79.0239C78.2346 79.807 78.0653 80.0003 77.267 80.0003C51.8436 79.9761 26.425 79.9761 1.00152 79.9955C0.275825 79.9955 -0.00477655 79.9133 6.14025e-05 79.0577C0.0339271 62.7582 0.0242513 46.4588 0.0242513 30.1593C0.0242513 29.8886 0.0436031 29.6179 0.053279 29.3472C10.6532 29.3472 21.2532 29.3472 31.8483 29.3472ZM45.6413 48.1747C44.148 48.1199 43.4288 48.8386 43.4836 50.3306C43.4836 52.7378 43.4836 55.145 43.4836 57.5523C43.4836 59.2441 43.4884 60.9359 43.4933 62.6229C43.4836 65.5763 43.4594 68.5249 43.4739 71.4784C43.4739 72.3678 43.0724 73.6294 43.6432 74.0548C44.2432 74.4995 45.4285 74.1611 46.3622 74.1659C48.0555 74.1659 49.7487 74.1708 51.442 74.1756C52.8837 74.1756 54.3206 74.1756 55.7623 74.1756C57.4556 74.1756 59.1537 74.1708 60.847 74.1659C61.8098 74.1659 62.7725 74.1659 63.7401 74.1659C65.4334 74.1659 67.1267 74.1708 68.82 74.1756C70.2617 74.1756 71.6985 74.1756 73.1403 74.1756C74.64 74.2304 75.3609 73.5102 75.3028 72.0149C75.3028 69.6125 75.3028 67.2053 75.3028 64.8029V59.7275C75.3028 56.774 75.327 53.8254 75.3173 50.872C75.3173 49.9826 75.7189 48.7209 75.148 48.2956C74.5481 47.8509 73.3628 48.1892 72.4291 48.1844C70.7358 48.1844 69.0425 48.1796 67.3492 48.1747H63.0144L57.9394 48.1844C56.9767 48.1844 56.0139 48.1844 55.0463 48.1844C53.353 48.1844 51.6597 48.1796 49.9665 48.1747H45.6316H45.6413ZM37.1507 61.1679C36.9814 61.3661 36.8508 61.5208 36.7105 61.6755C33.769 64.9818 30.8227 68.2881 27.886 71.5992C27.4119 72.1309 26.5653 72.7255 26.6088 73.2234C26.6572 73.7551 27.5861 74.1853 28.0795 74.7122C28.4956 75.1569 28.7375 75.0892 29.1245 74.6493C32.932 70.3376 36.754 66.0404 40.5953 61.7577C41.0114 61.2936 40.9921 61.0326 40.5857 60.583C37.0636 56.6629 33.5755 52.7137 30.0534 48.7935C29.5793 48.2666 29.1971 47.3095 28.573 47.353C27.9925 47.3965 27.4942 48.2327 26.9233 48.6629C26.483 48.9965 26.4927 49.2043 26.8701 49.62C30.1308 53.2502 33.3626 56.8997 36.604 60.5492C36.7782 60.7474 36.9572 60.9456 37.1556 61.1728L37.1507 61.1679ZM17.0587 49.1173C16.4588 48.5856 15.854 48.0877 15.3025 47.5367C14.9445 47.1741 14.751 47.2757 14.451 47.6092C10.6 51.9596 6.73933 56.3003 2.85929 60.6265C2.45774 61.0761 2.52064 61.3323 2.88832 61.7383C6.42487 65.6827 9.93722 69.6512 13.4738 73.5956C13.9285 74.1031 14.3252 75.036 14.8816 74.9877C15.467 74.9345 15.9653 74.1224 16.541 73.7019C17.0393 73.3394 16.9619 73.0977 16.5846 72.6771C13.348 69.0711 10.1501 65.4265 6.89415 61.835C6.38616 61.2743 6.44422 60.9987 6.91834 60.4767C10.3049 56.7208 13.6528 52.9312 17.0539 49.1125L17.0587 49.1173ZM24.6204 46.1059C24.8284 45.4388 24.4317 45.2841 23.8125 45.2745C23.3335 45.2696 22.8449 45.2358 22.3756 45.1488C21.9112 45.0618 21.7515 45.173 21.708 45.666C21.5048 48.1216 21.2532 50.5771 21.0258 53.0327C20.7017 56.5952 20.3872 60.1577 20.0582 63.725C19.7196 67.4373 19.3567 71.1497 19.0423 74.862C18.9842 75.5436 18.5585 76.3798 18.9552 76.8777C19.3567 77.3756 20.2759 76.984 20.9387 77.1967C21.5532 77.3901 21.7854 77.1581 21.8386 76.5345C22.0273 74.2288 22.245 71.9231 22.453 69.6173C22.7772 66.0549 23.0965 62.4924 23.4206 58.925C23.8125 54.6713 24.2092 50.4225 24.6107 46.1107L24.6204 46.1059ZM10.2517 33.6879H5.09443C2.89316 33.6879 2.91735 33.6879 2.90283 35.8583C2.90283 36.448 3.05281 36.6027 3.64304 36.5978C7.50373 36.5688 11.3644 36.5833 15.2251 36.5833C17.4602 36.5833 17.4409 36.5834 17.4119 34.326C17.407 33.8184 17.2764 33.6734 16.7636 33.6782C14.5913 33.7072 12.4191 33.6879 10.2517 33.6879ZM21.8289 33.6879C20.8097 33.6879 20.3001 34.2035 20.3001 35.2347C20.3001 36.1338 20.7549 36.5833 21.6644 36.5833C22.6836 36.5833 23.1932 36.0677 23.1932 35.0365C23.1932 34.1374 22.7384 33.6879 21.8289 33.6879ZM27.4506 36.5833C28.473 36.5833 28.9842 36.0694 28.9842 35.0414C28.9842 34.1391 28.5311 33.6879 27.6248 33.6879C26.6024 33.6879 26.0912 34.2019 26.0912 35.2299C26.0912 36.1322 26.5443 36.5833 27.4506 36.5833Z" fill="#FEFEFE"/>
<path d="M56.236 0C62.7817 0 69.3275 0 75.8732 0C79.0276 0 80.7838 1.75949 80.7838 4.92562C80.7838 14.1775 80.7838 23.4293 80.7838 32.6811C80.7838 35.8424 79.0227 37.6116 75.8732 37.6116C62.7188 37.6116 49.5693 37.6116 36.4149 37.6116C33.3283 37.6116 31.5527 35.828 31.5527 32.7295C31.5527 23.4487 31.5527 14.1629 31.5527 4.8821C31.5527 1.78365 33.3283 0 36.4149 0C43.0235 0 49.6273 0 56.236 0ZM60.8562 30.8636C61.4319 31.376 62.027 31.8449 62.5447 32.3863C62.9607 32.8165 63.1736 32.7005 63.5219 32.3041C67.3294 27.9972 71.1514 23.6952 74.9976 19.4173C75.4572 18.9097 75.3894 18.6342 74.9685 18.1701C71.4659 14.2741 67.9922 10.3491 64.4992 6.44343C64.0251 5.91172 63.6284 4.96429 63.0236 4.98846C62.4576 5.01263 61.9448 5.85369 61.3691 6.27423C60.8707 6.63676 60.9578 6.87845 61.3303 7.29415C64.5669 10.9001 67.7648 14.5448 71.0208 18.1411C71.5336 18.7067 71.4562 18.9774 70.9917 19.4994C67.6052 23.2553 64.2573 27.045 60.8611 30.8636H60.8562ZM51.4803 30.8636C48.0453 27.0015 44.6491 23.1731 41.2383 19.3641C40.8803 18.9677 40.7884 18.7406 41.1996 18.2813C44.1459 15.0185 47.0584 11.7267 49.9757 8.43978C50.4691 7.8839 51.3448 7.26034 51.2916 6.74796C51.2335 6.18724 50.2756 5.74253 49.758 5.20115C49.3758 4.80478 49.1629 4.92078 48.8436 5.28331C45.0119 9.60954 41.1658 13.9309 37.3196 18.2427C37.0148 18.581 36.8116 18.8276 37.218 19.2819C41.1367 23.6517 45.0361 28.0456 48.9307 32.4346C49.1677 32.7005 49.3371 32.8165 49.6467 32.512C50.2272 31.9464 50.8513 31.4244 51.4754 30.8636H51.4803ZM53.2945 34.054C53.0913 34.5325 53.43 34.6485 53.8896 34.6823C54.4605 34.721 55.0362 34.7403 55.5974 34.837C56.0425 34.9144 56.1683 34.7742 56.2021 34.3488C56.3521 32.5796 56.5359 30.8153 56.6956 29.051C57.0246 25.4256 57.3342 21.8003 57.6632 18.1798C58.0599 13.8391 58.4663 9.49836 58.8582 5.15279C58.921 4.4664 59.2258 3.59632 58.9259 3.13712C58.5582 2.58607 57.5761 3.00178 56.8843 2.7891C56.3376 2.61992 56.0812 2.82293 56.0328 3.41748C55.7909 6.35642 55.5248 9.29051 55.2635 12.2246C54.9297 15.9079 54.5911 19.5913 54.2573 23.2746C53.9331 26.8371 53.6186 30.4045 53.2897 34.0588L53.2945 34.054ZM77.8858 4.30204C77.8665 3.49964 77.2521 2.90027 76.4441 2.90027C75.5975 2.90027 74.9734 3.53833 74.9927 4.38424C75.0121 5.19148 75.6265 5.78602 76.4344 5.79085C77.2762 5.79085 77.9052 5.14795 77.8858 4.30204ZM37.3389 4.30688C37.3244 3.49964 36.71 2.90026 35.9021 2.89543C35.0506 2.89059 34.4265 3.52382 34.4458 4.37456C34.4652 5.21564 35.1231 5.82469 35.9698 5.78602C36.768 5.74734 37.3534 5.11412 37.3389 4.30688ZM76.4296 31.8304C75.6168 31.8304 75.0072 32.4298 74.9879 33.237C74.9685 34.0878 75.5926 34.7258 76.4393 34.7258C77.2472 34.7258 77.8616 34.1216 77.881 33.3192C77.9003 32.4733 77.2714 31.8304 76.4296 31.8352V31.8304ZM35.8537 31.8304C35.0457 31.8497 34.4507 32.4588 34.4458 33.2709C34.4458 34.1168 35.0844 34.7452 35.9311 34.7258C36.7342 34.7065 37.3389 34.0926 37.3389 33.2854C37.3389 32.4395 36.7003 31.8159 35.8537 31.8352V31.8304Z" fill="#D6E8F5"/>
<path d="M31.8485 29.3468C21.2486 29.3468 10.6486 29.3468 0.0534939 29.3468C0.043818 26.1565 0.0534941 22.9614 0.00995246 19.7711C0.000276552 19.1282 0.367961 19.2152 0.754998 19.22C3.37717 19.22 5.99934 19.22 8.62151 19.22C16.0671 19.22 23.5127 19.2345 30.9584 19.2007C31.7131 19.2007 31.9066 19.3795 31.8921 20.1336C31.834 23.203 31.8534 26.2773 31.8437 29.3468H31.8485ZM15.8978 25.0061C16.8976 25.0061 17.3976 24.5114 17.3976 23.5221C17.3976 22.5811 16.9331 22.1106 16.0042 22.1106C15.0044 22.1106 14.5045 22.6053 14.5045 23.5946C14.5045 24.5356 14.9689 25.0061 15.8978 25.0061ZM5.8155 23.5946C5.8155 22.6053 5.31558 22.1106 4.31573 22.1106C3.38684 22.1106 2.9224 22.5811 2.9224 23.5221C2.9224 24.5114 3.42232 25.0061 4.42217 25.0061C5.35105 25.0061 5.8155 24.5356 5.8155 23.5946ZM11.6065 23.6284C11.6065 22.6166 11.1179 22.1106 10.1406 22.1106C9.16336 22.1106 8.68602 22.5988 8.70859 23.5752C8.73117 24.5517 9.21981 25.0286 10.1745 25.0061C11.1292 24.9835 11.6065 24.5259 11.6065 23.6333V23.6284Z" fill="#1AE8FF"/>
<path d="M67.349 48.1743C69.0423 48.1743 70.7356 48.1792 72.4289 48.184C72.4289 51.7513 72.4531 55.3187 72.4047 58.886C72.395 59.6352 72.6514 59.7899 73.3142 59.7415C73.9722 59.6884 74.635 59.727 75.2929 59.727C75.2929 61.4189 75.293 63.1107 75.2978 64.8025C74.664 63.2122 73.5126 62.4823 71.7903 62.6128C71.0743 62.6708 70.3486 62.6128 69.6277 62.6225C67.857 62.637 66.6427 63.8503 66.633 65.6243C66.6233 67.3064 66.6959 68.9886 66.6137 70.6659C66.5314 72.3915 67.2281 73.5371 68.8149 74.1704C67.1216 74.1704 65.4284 74.1655 63.7351 74.1607C63.7351 71.0284 63.7351 67.8913 63.7351 64.759C63.7351 62.5935 63.7351 62.6225 61.6064 62.5983C60.9581 62.5886 60.8178 62.782 60.8226 63.4055C60.8517 66.9922 60.8371 70.5789 60.842 74.1655C59.1487 74.1655 57.4506 74.1704 55.7573 74.1752C57.3538 73.542 58.0408 72.3867 57.9586 70.661C57.8763 68.9789 57.9489 67.2919 57.9392 65.6049C57.9295 63.8696 56.72 62.6467 54.9977 62.6273C54.064 62.6176 53.1303 62.6176 52.1966 62.6273C50.4791 62.6467 49.2648 63.8744 49.2551 65.6049C49.2454 67.3209 49.3131 69.0417 49.2357 70.7529C49.1583 72.4592 49.8888 73.5565 51.437 74.18C49.7437 74.18 48.0504 74.1752 46.3571 74.1704C46.3571 70.603 46.333 67.0357 46.3813 63.4684C46.391 62.7192 46.1346 62.5645 45.4718 62.6128C44.8138 62.666 44.151 62.6273 43.4931 62.6273C43.4931 60.9355 43.4882 59.2437 43.4834 57.5567C44.1172 59.1422 45.2686 59.8769 46.9958 59.7415C47.7118 59.6884 48.4375 59.7416 49.1583 59.7319C50.929 59.7174 52.1433 58.5041 52.153 56.7301C52.1627 55.048 52.0901 53.3658 52.1724 51.6885C52.2546 49.9628 51.5628 48.8172 49.9759 48.184C51.6692 48.184 53.3625 48.1888 55.0558 48.1937C55.0558 51.326 55.0558 54.4631 55.0558 57.5953C55.0558 59.7609 55.0558 59.7319 57.1845 59.7561C57.8328 59.7657 57.9731 59.5724 57.9682 58.9488C57.9392 55.3622 57.9537 51.7755 57.9489 48.1888C59.6422 48.1888 61.3306 48.184 63.0239 48.1792C61.4225 48.8124 60.7452 49.9725 60.8275 51.6982C60.9097 53.3803 60.8371 55.0673 60.8468 56.7543C60.8565 58.4896 62.0708 59.7077 63.7883 59.7319C64.722 59.7416 65.6557 59.7416 66.5895 59.7319C68.3069 59.7126 69.5213 58.4896 69.531 56.7543C69.5406 55.0383 69.4729 53.3223 69.5503 51.6063C69.6229 49.9048 68.8972 48.8027 67.3539 48.1792L67.349 48.1743Z" fill="#1AE8FF"/>
<path d="M37.15 61.1677C36.9516 60.9405 36.7774 60.7423 36.5984 60.5442C33.357 56.8995 30.1253 53.2452 26.8645 49.615C26.492 49.1993 26.4823 48.9914 26.9177 48.6579C27.4934 48.2228 27.9917 47.3915 28.5674 47.348C29.1915 47.2996 29.5737 48.2567 30.0479 48.7884C33.565 52.7134 37.0581 56.6578 40.5801 60.578C40.9816 61.0275 41.0058 61.2886 40.5898 61.7526C36.7484 66.0305 32.9264 70.3325 29.119 74.6443C28.7319 75.0841 28.49 75.1518 28.074 74.7071C27.5853 74.1802 26.6516 73.7548 26.6032 73.2183C26.5597 72.7156 27.4063 72.1259 27.8804 71.5942C30.8219 68.283 33.7634 64.9816 36.7049 61.6704C36.8403 61.5158 36.9758 61.3562 37.1451 61.1629L37.15 61.1677Z" fill="#C3CDDF"/>
<path d="M17.0594 49.1166C13.6631 52.9353 10.3104 56.725 6.92386 60.4808C6.44974 61.0077 6.39169 61.2784 6.89967 61.8391C10.1508 65.4306 13.3487 69.0753 16.5901 72.6813C16.9675 73.097 17.0449 73.3435 16.5466 73.706C15.966 74.1266 15.4677 74.9387 14.8871 74.9918C14.3308 75.0402 13.9341 74.1072 13.4793 73.5997C9.94275 69.6553 6.43039 65.6868 2.89385 61.7424C2.52616 61.3364 2.46327 61.0802 2.86482 60.6307C6.74486 56.3044 10.6055 51.9637 14.4566 47.6133C14.7565 47.2798 14.9452 47.1783 15.308 47.5408C15.8596 48.0919 16.4643 48.5849 17.0642 49.1215L17.0594 49.1166Z" fill="#C3CDDF"/>
<path d="M24.6209 46.1051C24.2193 50.4168 23.8226 54.6657 23.4308 58.9194C23.1018 62.4819 22.7825 66.0444 22.4632 69.6117C22.2551 71.9174 22.0326 74.2232 21.8488 76.5289C21.8004 77.1524 21.5633 77.3844 20.9489 77.1911C20.2861 76.9832 19.3669 77.3699 18.9653 76.872C18.5638 76.379 18.9944 75.5428 19.0524 74.8564C19.3669 71.144 19.7297 67.4317 20.0684 63.7194C20.3925 60.1569 20.707 56.5944 21.036 53.0271C21.2634 50.5715 21.5149 48.1207 21.7181 45.6604C21.7617 45.1673 21.9213 45.0562 22.3858 45.1432C22.855 45.2302 23.3437 45.264 23.8226 45.2688C24.4419 45.2737 24.8386 45.4284 24.6306 46.1002L24.6209 46.1051Z" fill="#C3CDDF"/>
<path d="M67.3495 48.1743C68.8928 48.7979 69.6185 49.9 69.5459 51.6015C69.4733 53.3126 69.5362 55.0334 69.5265 56.7494C69.5169 58.4799 68.3025 59.7077 66.5851 59.7271C65.6513 59.7367 64.7176 59.7367 63.7839 59.7271C62.0664 59.7077 60.8521 58.4848 60.8424 56.7494C60.8327 55.0624 60.9053 53.3755 60.8231 51.6933C60.7408 49.9677 61.4181 48.8075 63.0195 48.1743C64.466 48.1743 65.9078 48.1743 67.3543 48.1743H67.3495ZM63.7355 53.8492V54.6613C63.7355 56.1565 64.4886 56.8816 65.9948 56.8365C66.0529 56.8365 66.1158 56.8316 66.1738 56.8365C66.527 56.8751 66.6383 56.7156 66.6383 56.3724C66.6238 54.7531 66.6286 53.1338 66.6383 51.5145C66.6383 51.2534 66.6238 51.0408 66.2706 51.0504C65.4627 51.0746 64.5241 50.8426 63.8952 51.1858C63.4307 51.4371 63.7936 52.4619 63.7452 53.1386C63.7258 53.3755 63.7452 53.6172 63.7452 53.8588L63.7355 53.8492Z" fill="#EFF5FF"/>
<path d="M51.4367 74.1708C49.8933 73.5473 49.1628 72.45 49.2354 70.7437C49.3128 69.0325 49.2451 67.3117 49.2547 65.5957C49.2644 63.8652 50.4787 62.6374 52.1962 62.6181C53.1299 62.6084 54.0637 62.6084 54.9974 62.6181C56.7197 62.6374 57.9292 63.8604 57.9389 65.5957C57.9485 67.2827 57.876 68.9697 57.9582 70.6518C58.0405 72.3775 57.3535 73.5376 55.7569 74.166C54.3152 74.166 52.8784 74.166 51.4367 74.166V74.1708ZM52.1478 68.4041V69.1244C52.1478 70.6196 52.9009 71.3447 54.4072 71.2996C54.4652 71.2996 54.5281 71.2947 54.5862 71.2996C54.9393 71.3382 55.0506 71.1787 55.0458 70.8355C55.0313 69.2162 55.0361 67.5969 55.0458 65.9776C55.0458 65.7165 55.0313 65.5038 54.6781 65.5135C53.8701 65.5377 52.9316 65.3057 52.3026 65.6489C51.8382 65.9002 52.2011 66.925 52.1527 67.6017C52.1333 67.8724 52.1527 68.1431 52.1527 68.4089L52.1478 68.4041Z" fill="#EFF5FF"/>
<path d="M68.8152 74.1705C67.2283 73.5373 66.5317 72.3917 66.6139 70.6661C66.6962 68.9887 66.6236 67.3017 66.6333 65.6244C66.643 63.8504 67.8573 62.6371 69.628 62.6226C70.3488 62.6178 71.0745 62.6661 71.7905 62.613C73.5177 62.4776 74.6691 63.2124 75.2981 64.8027C75.2981 67.2051 75.2981 69.6123 75.2981 72.0147C74.9062 73.0636 74.1853 73.7838 73.1355 74.1754C71.6938 74.1754 70.2569 74.1754 68.8152 74.1754V74.1705ZM72.4243 68.4087V67.6884C72.4243 66.19 71.6728 65.4649 70.1698 65.5132C70.1118 65.5132 70.0489 65.5181 69.9908 65.5132C69.6425 65.4746 69.5215 65.6293 69.5264 65.9773C69.5409 67.5966 69.5409 69.2159 69.5264 70.8352C69.5264 71.1784 69.6376 71.2751 69.986 71.3089C72.4291 71.5458 72.4291 71.5555 72.4291 69.1289V68.4087H72.4243Z" fill="#EFF5FF"/>
<path d="M49.971 48.1743C51.5579 48.8075 52.2497 49.9579 52.1675 51.6788C52.0852 53.3561 52.1578 55.0382 52.1481 56.7204C52.1385 58.4992 50.929 59.7077 49.1534 59.7222C48.4326 59.727 47.7069 59.6787 46.9909 59.7318C45.2686 59.8672 44.1171 59.1324 43.4785 57.547C43.4785 55.1397 43.4785 52.7325 43.4785 50.3253C43.8704 49.2812 44.5864 48.561 45.6362 48.1694H49.971V48.1743ZM46.3571 53.941V54.6612C46.3571 56.1565 47.1102 56.8815 48.6164 56.8364C48.6745 56.8364 48.7374 56.8316 48.7954 56.8364C49.1486 56.8751 49.2599 56.7156 49.255 56.3724C49.2405 54.7531 49.2454 53.1337 49.255 51.5144C49.255 51.2534 49.2405 51.0407 48.8873 51.0504C48.0794 51.0745 47.1408 50.8425 46.5119 51.1857C46.0475 51.4371 46.4103 52.4618 46.3619 53.1386C46.3426 53.4093 46.3619 53.6799 46.3619 53.9458L46.3571 53.941Z" fill="#EFF5FF"/>
<path d="M10.2464 33.6875C12.4187 33.6875 14.5909 33.702 16.7583 33.6779C17.2711 33.673 17.4018 33.8132 17.4066 34.3256C17.4308 36.583 17.4501 36.583 15.2198 36.583C11.3592 36.583 7.49847 36.5684 3.63778 36.5974C3.04755 36.5974 2.89273 36.4476 2.89757 35.8579C2.91208 33.6875 2.88789 33.6875 5.08916 33.6875C6.80664 33.6875 8.52895 33.6875 10.2464 33.6875Z" fill="#C3CDDF"/>
<path d="M57.939 48.1792C57.939 51.7659 57.9245 55.3525 57.9583 58.9392C57.9632 59.5579 57.8229 59.7513 57.1746 59.7464C55.0459 59.7222 55.0459 59.7513 55.0459 57.5857C55.0459 54.4534 55.0459 51.3163 55.0459 48.184C56.0087 48.184 56.9714 48.184 57.939 48.184V48.1792Z" fill="#EFF5FF"/>
<path d="M75.2889 59.7222C74.631 59.7222 73.9633 59.6836 73.3102 59.7367C72.6474 59.7899 72.391 59.6352 72.4007 58.8811C72.449 55.3138 72.4248 51.7465 72.4248 48.1792C73.3537 48.1792 74.539 47.8456 75.1438 48.2903C75.7147 48.7157 75.3083 49.9725 75.3131 50.8667C75.3276 53.8202 75.3034 56.7688 75.2937 59.7222H75.2889Z" fill="#EFF5FF"/>
<path d="M43.489 62.6227C44.147 62.6227 44.8146 62.6613 45.4677 62.6081C46.1305 62.555 46.387 62.7097 46.3773 63.4637C46.3289 67.031 46.3531 70.5984 46.3531 74.1657C45.4242 74.1657 44.2389 74.4992 43.6342 74.0545C43.0633 73.6292 43.4697 72.3724 43.4648 71.4781C43.4503 68.5247 43.4745 65.5761 43.4842 62.6227H43.489Z" fill="#EFF5FF"/>
<path d="M60.8427 74.1659C60.8427 70.5793 60.8572 66.9926 60.8234 63.406C60.8185 62.7872 60.9588 62.5939 61.6071 62.5987C63.7358 62.6229 63.7358 62.5939 63.7358 64.7594C63.7358 67.8917 63.7358 71.0288 63.7358 74.1611C62.7731 74.1611 61.8103 74.1611 60.8427 74.1611V74.1659Z" fill="#EFF5FF"/>
<path d="M21.8237 33.6875C22.7333 33.6875 23.188 34.137 23.188 35.0361C23.188 36.0673 22.6784 36.5829 21.6592 36.5829C20.7497 36.5829 20.2949 36.1334 20.2949 35.2343C20.2949 34.2031 20.8045 33.6875 21.8237 33.6875Z" fill="#C3CDDF"/>
<path d="M27.4464 36.578C26.5401 36.578 26.0869 36.1269 26.0869 35.2246C26.0869 34.1966 26.5981 33.6826 27.6205 33.6826C28.5269 33.6826 28.98 34.1338 28.98 35.0361C28.98 36.0641 28.4688 36.578 27.4464 36.578Z" fill="#C3CDDF"/>
<path d="M45.6421 48.1745C44.5971 48.566 43.8811 49.2862 43.4844 50.3303C43.4295 48.8415 44.1488 48.1229 45.6421 48.1745Z" fill="#1AE8FF"/>
<path d="M73.1348 74.1705C74.1846 73.7789 74.9055 73.0587 75.2973 72.0098C75.3522 73.505 74.6313 74.2253 73.1348 74.1705Z" fill="#1AE8FF"/>
<path d="M60.8564 30.8639C64.2526 27.0452 67.6005 23.2555 70.9871 19.4997C71.4564 18.9777 71.5338 18.707 71.0161 18.1414C67.7602 14.5499 64.5623 10.9053 61.3257 7.29443C60.9532 6.87872 60.8661 6.63704 61.3644 6.27451C61.9449 5.85397 62.4529 5.0129 63.019 4.98873C63.6237 4.96457 64.0204 5.91199 64.4945 6.44371C67.9924 10.3446 71.4612 14.2696 74.9639 18.1704C75.3799 18.6345 75.4525 18.91 74.9929 19.4175C71.1467 23.6954 67.3248 27.9927 63.5173 32.3044C63.1689 32.7008 62.9512 32.8216 62.54 32.3866C62.0224 31.8452 61.4273 31.3811 60.8516 30.8639H60.8564Z" fill="#C3CDDF"/>
<path d="M51.4803 30.8634C50.8513 31.4241 50.2321 31.9462 49.6515 32.5117C49.3371 32.8163 49.1677 32.7003 48.9355 32.4344C45.0361 28.0453 41.1416 23.6514 37.2228 19.2817C36.8116 18.8273 37.0196 18.5808 37.3244 18.2424C41.1706 13.9307 45.0168 9.61415 48.8484 5.28309C49.1677 4.92055 49.3806 4.80455 49.7628 5.20092C50.2805 5.7423 51.2384 6.18702 51.2964 6.74774C51.3497 7.26495 50.474 7.88851 49.9805 8.43956C47.0632 11.7265 44.1508 15.0183 41.2045 18.2811C40.7932 18.7403 40.8852 18.9675 41.2432 19.3639C44.6588 23.1729 48.0502 27.0012 51.4851 30.8634H51.4803Z" fill="#C3CDDF"/>
<path d="M53.2947 34.0538C53.6237 30.3995 53.9381 26.8321 54.2623 23.2696C54.5961 19.5863 54.9348 15.9029 55.2686 12.2196C55.5347 9.28551 55.8008 6.35142 56.0378 3.41249C56.0862 2.8131 56.3426 2.61492 56.8893 2.7841C57.5811 2.99679 58.5632 2.58107 58.9309 3.13212C59.2357 3.5865 58.9309 4.4614 58.8632 5.1478C58.4665 9.48853 58.0601 13.8293 57.6682 18.1748C57.3392 21.8002 57.0248 25.4255 56.7006 29.046C56.541 30.8151 56.3571 32.5795 56.2071 34.3438C56.1733 34.7692 56.0475 34.9094 55.6024 34.832C55.0412 34.7354 54.4655 34.7208 53.8946 34.6773C53.435 34.6435 53.0963 34.5275 53.2995 34.049L53.2947 34.0538Z" fill="#C3CDDF"/>
<path d="M77.8867 4.30171C77.906 5.14762 77.2771 5.79052 76.4353 5.79052C75.6274 5.79052 75.013 5.19114 74.9936 4.3839C74.9743 3.53316 75.5983 2.8951 76.445 2.89993C77.2529 2.89993 77.8673 3.4993 77.8867 4.30171Z" fill="#C3CDDF"/>
<path d="M37.3437 4.30699C37.3582 5.11906 36.7777 5.74745 35.9746 5.78612C35.1279 5.82479 34.4651 5.21575 34.4506 4.37467C34.4313 3.52392 35.0602 2.8907 35.9069 2.89554C36.7148 2.90037 37.3292 3.49975 37.3437 4.30699Z" fill="#C3CDDF"/>
<path d="M76.4353 31.8305C77.282 31.8305 77.906 32.4686 77.8867 33.3145C77.8673 34.1169 77.2529 34.7163 76.445 34.7211C75.5983 34.7211 74.9743 34.0831 74.9936 33.2323C75.013 32.4251 75.6225 31.8305 76.4353 31.8257V31.8305Z" fill="#C3CDDF"/>
<path d="M35.859 31.8305C36.7057 31.8112 37.3491 32.4396 37.3443 33.2807C37.3443 34.0879 36.7396 34.7018 35.9365 34.7211C35.0898 34.7405 34.4464 34.1121 34.4512 33.2662C34.4512 32.4541 35.0511 31.845 35.859 31.8257V31.8305Z" fill="#C3CDDF"/>
<path d="M15.8972 25.0063C14.9683 25.0063 14.5039 24.5358 14.5039 23.5948C14.5039 22.6055 15.0038 22.1108 16.0037 22.1108C16.9326 22.1108 17.397 22.5813 17.397 23.5223C17.397 24.5116 16.8971 25.0063 15.8972 25.0063Z" fill="#C3CDDF"/>
<path d="M5.81595 23.5948C5.81595 24.5358 5.35151 25.0063 4.42262 25.0063C3.42277 25.0063 2.92285 24.5116 2.92285 23.5223C2.92285 22.5813 3.3873 22.1108 4.31618 22.1108C5.31603 22.1108 5.81595 22.6055 5.81595 23.5948Z" fill="#C3CDDF"/>
<path d="M11.6057 23.6332C11.6057 24.5484 11.1284 25.006 10.1737 25.006C9.21901 25.006 8.73037 24.5291 8.7078 23.5752C8.68522 22.6213 9.16256 22.1331 10.1398 22.1106C11.1171 22.088 11.6057 22.594 11.6057 23.6284V23.6332Z" fill="#C3CDDF"/>
<path d="M63.7349 53.8496C63.7349 53.6079 63.7204 53.3662 63.7349 53.1293C63.7833 52.4526 63.4253 51.4327 63.8849 51.1765C64.5138 50.8333 65.4524 51.0702 66.2603 51.0412C66.6135 51.0315 66.628 51.2442 66.628 51.5052C66.628 53.1245 66.6183 54.7438 66.628 56.3631C66.628 56.7063 66.5167 56.8659 66.1636 56.8272C66.1055 56.8224 66.0426 56.8272 65.9846 56.8272C64.4783 56.8755 63.7252 56.1505 63.7252 54.652V53.8399L63.7349 53.8496Z" fill="#1AE8FF"/>
<path d="M52.149 68.4087C52.149 68.1381 52.1344 67.8674 52.149 67.6015C52.1973 66.9248 51.8393 65.9049 52.2989 65.6487C52.9279 65.3055 53.8664 65.5423 54.6744 65.5133C55.0275 65.5037 55.0421 65.7164 55.0421 65.9774C55.0421 67.5967 55.0324 69.216 55.0421 70.8353C55.0421 71.1785 54.9308 71.338 54.5825 71.2994C54.5244 71.2945 54.4615 71.2994 54.4034 71.2994C52.8972 71.3477 52.1441 70.6226 52.1441 69.1242V68.4039L52.149 68.4087Z" fill="#1AE8FF"/>
<path d="M72.4243 68.4086V69.1288C72.4243 71.5554 72.4243 71.5457 69.9811 71.3088C69.6328 71.275 69.5215 71.1735 69.5215 70.8351C69.536 69.2158 69.536 67.5965 69.5215 65.9772C69.5215 65.6291 69.6376 65.4745 69.9859 65.5131C70.044 65.518 70.1069 65.5131 70.1649 65.5131C71.6679 65.4648 72.4194 66.1899 72.4194 67.6883V68.4086H72.4243Z" fill="#1AE8FF"/>
<path d="M46.3579 53.941C46.3579 53.6703 46.3434 53.3996 46.3579 53.1337C46.4063 52.457 46.0483 51.4371 46.5079 51.1809C47.1369 50.8377 48.0754 51.0746 48.8834 51.0455C49.2365 51.0359 49.251 51.2486 49.251 51.5096C49.251 53.1289 49.2414 54.7482 49.251 56.3675C49.251 56.7107 49.1398 56.8703 48.7914 56.8316C48.7334 56.8268 48.6705 56.8316 48.6124 56.8316C47.1062 56.8799 46.3531 56.1549 46.3531 54.6564V53.9362L46.3579 53.941Z" fill="#1AE8FF"/>
</svg>
