<svg width="109" height="80" viewBox="0 0 109 80" fill="none" xmlns="http://www.w3.org/2000/svg">
<rect width="97.7811" height="63.4256" rx="5" fill="#EFF5FF"/>
<path d="M0 5C0 2.23857 2.23858 0 5 0H92.7811C95.5425 0 97.7811 2.23858 97.7811 5V11.8923H0V5Z" fill="#C3CDDF"/>
<circle cx="8.58857" cy="5.94599" r="3.30342" fill="#1AE8FF"/>
<circle cx="16.5163" cy="5.94599" r="3.30342" fill="#1AE8FF"/>
<circle cx="24.446" cy="5.94599" r="3.30342" fill="#1AE8FF"/>
<path d="M35.6901 46.8672C34.4675 47.478 33.2298 48.0812 32.0147 48.7147C31.4713 48.9937 30.9279 49.1973 30.3015 49.1218C30.3015 47.8249 30.6109 46.4299 29.5166 45.4043C28.8147 44.7483 28.8298 44.0621 29.0185 43.2402C29.9091 39.4171 30.7694 35.5865 31.66 31.7635C31.9015 30.7078 31.9241 29.6823 30.6411 29.4108C29.4562 29.162 29.0487 30.0141 28.8147 31.0471C27.9468 34.923 27.0412 38.7913 26.1355 42.6596C26.0374 43.0819 26.1657 43.6549 25.5318 43.8057C25.3129 42.6445 24.2789 42.3278 23.4337 41.9131C20.8677 40.6613 19.4714 38.6103 19.3431 35.8278C19.2073 32.8946 20.5884 30.7002 23.1771 29.2977C23.8563 28.9282 24.4072 28.4682 24.7846 27.7745C25.8185 25.8818 25.1016 24.3511 23.8412 22.9184C27.8864 22.0512 31.5317 22.9712 34.6335 25.6255C40.4523 30.5947 40.9353 38.4444 35.8788 44.2883C35.1316 45.1555 34.8298 45.9397 35.6977 46.8672H35.6901Z" fill="#EFF5FF"/>
<path d="M35.6904 46.8679C34.83 45.9405 35.1244 45.1562 35.8716 44.2891C40.9357 38.4376 40.4451 30.5879 34.6263 25.6262C31.5244 22.9794 27.8716 22.0519 23.834 22.9191C22.8076 23.0473 21.8264 23.364 20.8981 23.8089C13.0039 27.5792 10.9511 37.6006 16.7548 44.1684C17.5095 45.028 18.0227 45.8198 17.0793 46.8378C16.2567 47.3279 15.6227 47.0715 14.9812 46.4306C13.9246 45.3749 13.1624 44.1081 12.3322 42.879C10.0756 38.1133 9.93977 33.3326 12.1963 28.5293C15.4491 22.6778 20.3925 19.5259 27.1245 19.8426C33.7357 20.1517 38.513 23.5827 40.9734 29.6905C43.4111 35.7456 42.2337 41.3633 37.8942 46.2798C37.2753 46.981 36.6036 47.3732 35.6829 46.8679H35.6904Z" fill="#06BBCF"/>
<path d="M17.0778 46.8298C18.0288 45.8118 17.508 45.0201 16.7533 44.1604C10.9572 37.6001 13.0024 27.5787 20.8967 23.8009C21.8325 23.356 22.8061 23.0393 23.8325 22.9111C25.0929 24.3438 25.8174 25.8746 24.7759 27.7673C24.3985 28.461 23.8476 28.921 23.1683 29.2905C20.5872 30.7005 19.1986 32.8873 19.3344 35.8206C19.4627 38.603 20.8589 40.6541 23.4249 41.9058C24.2702 42.3205 25.3117 42.6372 25.523 43.7985C22.9872 44.6958 22.074 46.5357 22.4363 49.1146C21.0854 49.1221 19.9759 48.4661 18.8741 47.8025C18.2929 47.4481 17.7948 46.9203 17.0628 46.8298H17.0778Z" fill="#1AE8FF"/>
<path d="M22.4512 49.1145C22.0889 46.5356 23.0021 44.7033 25.538 43.7984C26.1719 43.6476 26.0436 43.0745 26.1417 42.6522C27.0474 38.7839 27.953 34.9156 28.8209 31.0398C29.0549 30.0067 29.4549 29.1546 30.6473 29.4035C31.9379 29.6749 31.9077 30.7005 31.6662 31.7561C30.7832 35.5792 29.9153 39.4098 29.0247 43.2329C28.836 44.0473 28.8209 44.741 29.5228 45.397C30.6171 46.4225 30.3077 47.8175 30.3077 49.1145C28.1039 52.8622 24.6247 52.8622 22.4587 49.1145H22.4512Z" fill="#06BBCF"/>
<path d="M79.3561 46.8672C78.1335 47.478 76.8958 48.0812 75.6807 48.7147C75.1373 48.9937 74.5939 49.1973 73.9675 49.1218C73.9675 47.8249 74.277 46.4299 73.1826 45.4043C72.4807 44.7483 72.4958 44.0621 72.6845 43.2402C73.5751 39.4171 74.4354 35.5865 75.326 31.7635C75.5675 30.7078 75.5901 29.6823 74.3071 29.4108C73.1222 29.162 72.7147 30.0141 72.4808 31.0471C71.6128 34.923 70.7072 38.7913 69.8015 42.6596C69.7034 43.0819 69.8317 43.6549 69.1978 43.8057C68.9789 42.6445 67.945 42.3278 67.0997 41.9131C64.5337 40.6613 63.1375 38.6103 63.0092 35.8278C62.8733 32.8946 64.2544 30.7002 66.8431 29.2977C67.5223 28.9282 68.0733 28.4682 68.4506 27.7745C69.4846 25.8818 68.7676 24.3511 67.5072 22.9184C71.5525 22.0512 75.1977 22.9712 78.2995 25.6255C84.1183 30.5947 84.6014 38.4444 79.5448 44.2883C78.7977 45.1555 78.4958 45.9397 79.3637 46.8672H79.3561Z" fill="#EFF5FF"/>
<path d="M79.3564 46.8675C78.4961 45.94 78.7904 45.1557 79.5376 44.2886C84.6017 38.4371 84.1111 30.5874 78.2923 25.6257C75.1904 22.9789 71.5377 22.0515 67.5 22.9186C66.4736 23.0468 65.4924 23.3635 64.5641 23.8084C56.6699 27.5787 54.6171 37.6001 60.4208 44.1679C61.1755 45.0276 61.6887 45.8193 60.7453 46.8373C59.9227 47.3274 59.2887 47.071 58.6472 46.4301C57.5906 45.3744 56.8284 44.1076 55.9982 42.8785C53.7416 38.1129 53.6058 33.3321 55.8624 28.5288C59.1152 22.6773 64.0585 19.5254 70.7905 19.8421C77.4017 20.1512 82.179 23.5822 84.6394 29.69C87.0771 35.7451 85.8998 41.3628 81.5602 46.2793C80.9413 46.9806 80.2696 47.3727 79.3489 46.8675H79.3564Z" fill="#06BBCF"/>
<path d="M60.7439 46.8298C61.6948 45.8118 61.1741 45.0201 60.4193 44.1604C54.6232 37.6001 56.6684 27.5787 64.5627 23.8009C65.4985 23.356 66.4721 23.0393 67.4985 22.9111C68.7589 24.3438 69.4834 25.8746 68.4419 27.7673C68.0645 28.461 67.5136 28.921 66.8344 29.2905C64.2533 30.7005 62.8646 32.8873 63.0005 35.8206C63.1288 38.603 64.525 40.6541 67.091 41.9058C67.9362 42.3205 68.9777 42.6372 69.1891 43.7985C66.6532 44.6958 65.74 46.5357 66.1023 49.1146C64.7514 49.1221 63.6419 48.4661 62.5401 47.8025C61.9589 47.4481 61.4608 46.9203 60.7288 46.8298H60.7439Z" fill="#1AE8FF"/>
<path d="M66.1172 49.1145C65.755 46.5356 66.6682 44.7033 69.204 43.7984C69.8379 43.6476 69.7096 43.0745 69.8077 42.6522C70.7134 38.7839 71.619 34.9156 72.4869 31.0398C72.7209 30.0067 73.1209 29.1546 74.3133 29.4035C75.6039 29.6749 75.5737 30.7005 75.3322 31.7561C74.4492 35.5792 73.5813 39.4098 72.6907 43.2329C72.502 44.0473 72.487 44.741 73.1888 45.397C74.2832 46.4225 73.9737 47.8175 73.9737 49.1145C71.77 52.8622 68.2908 52.8622 66.1247 49.1145H66.1172Z" fill="#06BBCF"/>
<path d="M76.6446 64.8571C77.1375 57.524 81.4782 52.1725 88.3663 50.6122C93.2593 49.5027 97.6356 50.7249 101.454 53.9643C101.786 54.2491 102.113 54.5516 102.44 54.8424C102.493 54.9432 102.546 55.0441 102.6 55.1449C102.505 55.2992 102.428 55.4772 102.309 55.6136C98.6866 59.7608 95.0466 63.896 91.4363 68.055C90.9078 68.6661 90.5931 68.4881 90.124 68.0134C87.915 65.7767 85.6883 63.5578 83.4556 61.3448C82.5649 60.4549 81.6563 60.3659 80.9259 61.0541C80.1599 61.772 80.2431 62.7213 81.1754 63.6587C83.9425 66.4353 86.7155 69.206 89.4946 71.9707C90.5278 72.9971 91.4541 72.9793 92.422 71.8758C94.6963 69.295 96.9171 66.6785 99.2092 64.1155C101.026 62.0805 102.713 59.9269 104.672 58.0165C107.309 63.1306 107.202 68.233 104.15 73.0683C101.062 77.957 96.4183 80.1997 90.6347 79.9861C88.2713 79.8971 86.0921 79.0783 84.0137 77.9926C82.1017 76.6162 80.3321 75.1092 79.0376 73.092C77.4225 70.5765 76.7515 67.8058 76.6387 64.8571H76.6446Z" fill="#06BBCF"/>
<path d="M104.671 58.0226C102.711 59.933 101.025 62.0866 99.2078 64.1216C96.9157 66.6846 94.6949 69.3011 92.4206 71.8819C91.4467 72.9854 90.5263 73.0032 89.4931 71.9768C86.7141 69.2121 83.941 66.4414 81.1739 63.6648C80.2416 62.7274 80.1585 61.7781 80.9245 61.0602C81.6549 60.372 82.5634 60.4669 83.4541 61.3509C85.6868 63.5639 87.9136 65.7828 90.1225 68.0195C90.5917 68.4942 90.9064 68.6722 91.4349 68.0611C95.0452 63.9021 98.6793 59.7668 102.307 55.6197C102.426 55.4833 102.503 55.3112 102.598 55.151C103.335 54.3323 104.107 53.5432 104.807 52.6948C105.36 52.0185 106.013 51.6447 106.88 51.6328C108.4 52.677 108.495 53.5254 107.278 54.9315C106.393 55.952 105.544 56.9962 104.677 58.0344L104.671 58.0226Z" fill="#1AE8FF"/>
</svg>
