<svg width="135" height="35" viewBox="0 0 135 35" fill="none" xmlns="http://www.w3.org/2000/svg">
<path d="M19.4444 2.61494C19.4444 4.02299 18.2375 5.22989 16.8295 5.22989C15.4215 5.22989 14.2146 4.02299 14.2146 2.61494C14.2146 1.2069 15.4215 0 16.8295 0C18.2375 0 19.4444 1.2069 19.4444 2.61494ZM16.8295 7.37548C15.2874 7.37548 14.0805 8.58238 14.0805 10.1245C14.0805 11.6667 15.2874 12.8736 16.8295 12.8736C18.3716 12.8736 19.5785 11.6667 19.5785 10.1245C19.5785 8.51533 18.3716 7.37548 16.8295 7.37548ZM16.8295 14.6839C15.2874 14.6839 14.0134 15.9579 14.0134 17.5C14.0134 19.0421 15.2874 20.3161 16.8295 20.3161C18.3716 20.3161 19.6456 19.0421 19.6456 17.5C19.7126 16.0249 18.3716 14.6839 16.8295 14.6839ZM16.8295 22.1935C15.2874 22.1935 14.0805 23.4004 14.0805 24.9425C14.0805 26.4847 15.2874 27.6916 16.8295 27.6916C18.3716 27.6916 19.5785 26.4847 19.5785 24.9425C19.5785 23.4674 18.3716 22.1935 16.8295 22.1935ZM16.8295 29.7701C15.4215 29.7701 14.2146 30.977 14.2146 32.3851C14.2146 33.7931 15.4215 35 16.8295 35C18.2375 35 19.4444 33.7931 19.4444 32.3851C19.4444 30.977 18.2375 29.7701 16.8295 29.7701ZM24.0709 6.97318C22.3946 6.97318 20.9866 8.38123 20.9866 10.0575C20.9866 11.7337 22.3946 13.1418 24.0709 13.1418C25.7471 13.1418 27.1552 11.7337 27.1552 10.0575C27.1552 8.38123 25.7471 6.97318 24.0709 6.97318ZM24.0709 14.3487C22.2605 14.3487 20.8525 15.7567 20.8525 17.5671C20.8525 19.3774 22.2605 20.7854 24.0709 20.7854C25.8812 20.7854 27.2893 19.3774 27.2893 17.5671C27.2893 15.7567 25.8812 14.3487 24.0709 14.3487ZM24.0709 21.7912C22.3946 21.7912 20.9866 23.1992 20.9866 24.8755C20.9866 26.5517 22.3946 27.9598 24.0709 27.9598C25.7471 27.9598 27.1552 26.5517 27.1552 24.8755C27.1552 23.2663 25.7471 21.7912 24.0709 21.7912ZM31.5805 14.0134C29.7031 14.0134 28.0268 15.5556 28.0268 17.5671C28.0268 19.4444 29.569 21.1207 31.5805 21.1207C33.592 21.1207 35.1341 19.5785 35.1341 17.5671C35 15.5556 33.4579 14.0134 31.5805 14.0134ZM9.52107 7.71073C8.24713 7.71073 7.17433 8.78352 7.17433 10.0575C7.17433 11.3314 8.24713 12.4042 9.52107 12.4042C10.795 12.4042 11.8678 11.3314 11.8678 10.0575C11.8678 8.78352 10.795 7.71073 9.52107 7.71073ZM9.52107 15.0862C8.11303 15.0862 7.04023 16.159 7.04023 17.5671C7.04023 18.9751 8.11303 20.0479 9.52107 20.0479C10.9291 20.0479 12.0019 18.9751 12.0019 17.5671C12.0019 16.159 10.9291 15.0862 9.52107 15.0862ZM9.52107 22.5287C8.24713 22.5287 7.17433 23.6015 7.17433 24.8755C7.17433 26.1494 8.24713 27.2222 9.52107 27.2222C10.795 27.2222 11.8678 26.1494 11.8678 24.8755C11.8678 23.6015 10.795 22.5287 9.52107 22.5287ZM2.14559 15.4215C0.938697 15.4215 0 16.3602 0 17.5671C0 18.7739 0.938697 19.7126 2.14559 19.7126C3.35249 19.7126 4.29119 18.7739 4.29119 17.5671C4.29119 16.3602 3.35249 15.4215 2.14559 15.4215Z" fill="#D7D7D7"/>
<path d="M61.8873 12.9395C61.6191 12.9395 61.418 13.2077 61.418 13.4088V32.0486C61.418 32.3168 61.6862 32.518 61.8873 32.518H64.167C64.4352 32.518 64.6364 32.2498 64.6364 32.0486V13.4088C64.6364 13.1406 64.3682 12.9395 64.167 12.9395H61.8873Z" fill="#D7D7D7"/>
<path d="M63.0938 5.09473C61.8869 5.09473 60.9482 6.03342 60.9482 7.24032C60.9482 8.44722 61.8869 9.38591 63.0938 9.38591C64.3007 9.38591 65.2394 8.44722 65.2394 7.24032C65.2394 6.03342 64.3007 5.09473 63.0938 5.09473Z" fill="#D7D7D7"/>
<path d="M109.694 12.9395C109.426 12.9395 109.225 13.2077 109.225 13.4088V32.0486C109.225 32.3168 109.493 32.518 109.694 32.518H111.974C112.242 32.518 112.443 32.2498 112.443 32.0486V13.4088C112.443 13.1406 112.175 12.9395 111.974 12.9395H109.694Z" fill="#D7D7D7"/>
<path d="M110.767 5.09473C109.56 5.09473 108.621 6.03342 108.621 7.24032C108.621 8.44722 109.56 9.38591 110.767 9.38591C111.974 9.38591 112.912 8.44722 112.912 7.24032C112.912 6.03342 111.974 5.09473 110.767 5.09473Z" fill="#D7D7D7"/>
<path d="M133.295 30.7082C133.429 30.5742 133.429 30.4401 133.429 30.373C133.429 30.2389 133.429 30.2389 133.429 30.2389C133.429 30.2389 133.429 30.1048 133.295 30.1048C133.295 30.1048 133.161 29.9707 133.027 29.9707C132.893 29.9707 132.893 29.9707 132.759 29.9707H132.155V31.6469H132.423V31.0435H132.759L133.228 31.6469H133.496L132.893 30.9094C133.161 30.9764 133.295 30.8423 133.295 30.7082ZM132.491 30.8424V30.2389H132.96C133.094 30.2389 133.228 30.2389 133.295 30.373C133.429 30.373 133.429 30.5071 133.429 30.6412C133.429 30.7753 133.429 30.9094 133.295 30.9094C133.161 30.9094 133.027 31.0435 132.96 31.0435H132.491V30.8424Z" fill="#D7D7D7"/>
<path d="M132.825 29.3008C132.021 29.3008 131.283 30.0383 131.283 30.8429C131.283 31.6475 132.021 32.3851 132.825 32.3851C133.63 32.3851 134.367 31.6475 134.367 30.8429C134.367 30.0383 133.63 29.3008 132.825 29.3008ZM132.825 32.251C132.021 32.251 131.417 31.6475 131.417 30.8429C131.417 30.0383 132.021 29.4349 132.825 29.4349C133.63 29.4349 134.233 30.0383 134.233 30.8429C134.233 31.6475 133.563 32.251 132.825 32.251Z" fill="#D7D7D7"/>
<path d="M80.3927 16.0245C80.6609 16.0245 80.862 15.7563 80.862 15.5552V13.2755C80.862 13.0073 80.5938 12.8061 80.3927 12.8061H75.6321V5.69884C75.6321 5.43064 75.3639 5.22949 75.1628 5.22949H72.8831C72.6149 5.22949 72.4137 5.49769 72.4137 5.69884V12.8061H70.067C69.7988 12.8061 69.5977 13.0743 69.5977 13.2755V15.5552C69.5977 15.8234 69.8659 16.0245 70.067 16.0245H72.4137V26.8195C72.4137 30.172 74.6934 32.2506 77.8448 32.2506H80.1915C80.4597 32.2506 80.6609 31.9824 80.6609 31.7812V29.5015C80.6609 29.2333 80.3927 29.0322 80.1915 29.0322H78.18C76.6379 29.0322 75.5651 27.9594 75.5651 26.2831V15.8904H80.3256L80.3927 16.0245Z" fill="#D7D7D7"/>
<path d="M127.596 16.0245C127.864 16.0245 128.065 15.7563 128.065 15.5552V13.2755C128.065 13.0073 127.797 12.8061 127.596 12.8061H122.835V5.69884C122.835 5.43064 122.567 5.22949 122.366 5.22949H120.086C119.818 5.22949 119.617 5.49769 119.617 5.69884V12.8061H117.27C117.002 12.8061 116.801 13.0743 116.801 13.2755V15.5552C116.801 15.8234 117.069 16.0245 117.27 16.0245H119.617V26.8195C119.617 30.172 121.897 32.2506 125.048 32.2506H127.395C127.663 32.2506 127.864 31.9824 127.864 31.7812V29.5015C127.864 29.2333 127.596 29.0322 127.395 29.0322H125.383C123.841 29.0322 122.768 27.9594 122.768 26.2831V15.8904H127.663L127.596 16.0245Z" fill="#D7D7D7"/>
<path d="M47.8067 16.0242V31.915C47.8067 32.1832 48.0749 32.3844 48.276 32.3844H50.5557C50.8239 32.3844 51.0251 32.1162 51.0251 31.915V16.0242H56.2549C56.5231 16.0242 56.7243 15.756 56.7243 15.5549V13.2752C56.7243 13.007 56.4561 12.8058 56.2549 12.8058H51.0251V8.64874C51.0251 6.9725 52.2319 5.83265 53.64 5.83265H56.2549C56.5231 5.83265 56.7243 5.56445 56.7243 5.3633V3.08361C56.7243 2.81541 56.4561 2.61426 56.2549 2.61426H53.7741C50.4216 2.61426 47.8737 5.3633 47.8737 8.51464V12.8058H45.527C45.2588 12.8058 45.0576 13.074 45.0576 13.2752V15.5549C45.0576 15.8231 45.3258 16.0242 45.527 16.0242H47.8067Z" fill="#D7D7D7"/>
<path d="M102.117 15.1529C100.306 13.2755 97.8254 12.2027 95.2105 12.2027C92.7297 12.2027 90.2488 13.2755 88.7067 14.8176V2.94982C88.7067 2.68162 88.4385 2.48047 88.2373 2.48047H85.9576C85.6894 2.48047 85.4883 2.74867 85.4883 2.94982V22.5284C85.4883 29.7697 90.3829 32.9881 95.0764 32.9881C99.8369 32.9881 104.665 29.7697 104.665 22.5284C104.866 19.6452 103.927 17.0973 102.117 15.1529ZM95.2105 29.9709C90.45 29.9709 88.7067 26.1491 88.7067 22.5954C88.7067 18.2372 91.3216 15.354 95.2105 15.354C99.0994 15.354 101.714 18.3042 101.714 22.5954C101.647 26.2161 99.971 29.9709 95.2105 29.9709Z" fill="#D7D7D7"/>
</svg>
