<svg width="68" height="60" viewBox="0 0 68 60" fill="none" xmlns="http://www.w3.org/2000/svg">
<path d="M63.4851 49.7383C64.3071 49.7514 65.1292 49.7733 65.9513 49.7645C66.3711 49.7601 66.7646 49.817 67.1407 50.005V59.0522C66.9308 59.2053 66.7296 59.3277 66.441 59.3233C65.3216 59.2971 64.2022 59.3015 63.0784 59.2971C63.0784 56.5335 63.0784 53.77 63.074 51.0107C63.074 50.2645 62.7111 49.8884 61.9852 49.8826C61.8103 49.8826 61.6354 49.8738 61.4648 49.8695C61.4736 49.8257 61.4955 49.7864 61.5217 49.7558L63.4851 49.7427V49.7383Z" fill="#1AE8FF"/>
<path d="M67.1374 12.5179C65.9174 12.531 64.7018 12.5485 63.4818 12.5616C63.3419 12.5441 63.2063 12.5266 63.0664 12.5048C63.0664 9.36077 63.0664 6.21676 63.0664 3.07275H67.1331V12.5179H67.1374Z" fill="#1AE8FF"/>
<path d="M63.0713 12.5044C63.2112 12.5219 63.3468 12.5394 63.4867 12.5612C63.4867 24.9536 63.4867 37.346 63.4867 49.7427C62.8308 49.7427 62.1792 49.7515 61.5233 49.7558C61.5233 45.3831 61.5233 41.0103 61.5233 36.6376C58.117 44.5085 52.533 50.1406 44.6751 53.582H57.6666C57.6666 54.2379 57.6666 54.8894 57.6666 55.5453C41.6098 55.5453 25.5575 55.5453 9.50075 55.5453C9.50075 54.8938 9.50075 54.2423 9.50075 53.5864H22.4791C14.6169 50.1406 9.02849 44.5042 5.63087 36.6595V49.7515L3.67188 49.769C3.67188 37.3635 3.67188 24.9624 3.67188 12.5569C4.2447 12.5437 4.81754 12.5306 5.39037 12.5175L5.63961 12.57C5.63961 16.8946 5.55216 21.2237 5.66148 25.5483C5.9457 36.9962 11.2149 45.4399 21.3378 50.7397C26.3052 53.3415 31.6793 54.0411 37.2458 53.3459C48.6062 51.9335 58.4711 43.2055 60.9505 31.2591C61.3615 29.287 61.5321 27.2887 61.5277 25.2728C61.5146 21.0356 61.5277 16.7984 61.5277 12.5569C62.0437 12.5437 62.564 12.5306 63.08 12.5175L63.0713 12.5044Z" fill="#5E5D77"/>
<path d="M27.5613 36.3755C27.5438 36.0957 27.5176 35.8115 27.5176 35.5316C27.5176 27.6913 27.5176 19.8466 27.5176 12.0062C28.9781 12.0062 30.4386 11.9931 31.8991 11.9975C34.4921 12.0018 37.0852 12.015 39.6738 12.0237C39.6651 12.2861 39.6476 12.5441 39.6476 12.8064C39.6476 20.38 39.6476 27.9536 39.6476 35.5229C39.6476 35.8071 39.6345 36.0913 39.6257 36.3712C35.6072 36.3712 31.5842 36.3712 27.5657 36.3755H27.5613Z" fill="#F7951D"/>
<path d="M39.6663 12.019C37.0733 12.0103 34.4803 11.9972 31.8916 11.9928C30.4311 11.9928 28.9706 12.0016 27.5101 12.0016C26.9635 12.0147 26.793 11.678 26.793 11.2013C26.793 9.65339 26.793 8.10543 26.793 6.55748C26.793 5.96716 27.0859 5.6873 27.6938 5.70917C28.0829 5.72229 28.4765 5.7835 28.8613 5.64795C30.2299 5.65669 31.5986 5.66981 32.9673 5.67419C34.747 5.67419 36.5311 5.75727 38.3108 5.65669C38.7481 5.66544 39.181 5.67856 39.6182 5.68293C40.1255 5.6873 40.3922 5.9453 40.3922 6.44816C40.3966 8.06171 40.401 9.67962 40.3922 11.2932C40.3922 11.7479 40.1736 12.0409 39.6663 12.0147V12.019ZM33.6145 7.89117C32.9367 7.89117 32.2589 7.88242 31.5855 7.89117C30.9996 7.89991 30.6279 8.21475 30.5754 8.79196C30.5229 9.38665 30.8859 9.79769 31.4368 9.83704C32.8711 9.93761 34.3141 9.94636 35.7484 9.83267C36.2818 9.78894 36.6098 9.36479 36.5661 8.81819C36.5223 8.25848 36.1856 7.89991 35.5778 7.89554C34.9219 7.89117 34.266 7.89554 33.6145 7.89554V7.89117Z" fill="#FF5D0A"/>
<path d="M5.38285 12.5043C4.81002 12.5174 4.23719 12.5305 3.66436 12.5436C2.70236 12.5349 1.74473 12.513 0.782722 12.5261C0.22301 12.5349 0 12.2988 0 11.7434C0.0131182 9.10229 0.0131182 6.46115 0 3.82438C0 3.25593 0.249247 3.05478 0.79584 3.05915C2.32193 3.07664 3.85239 3.07227 5.37848 3.07664C5.37848 6.22065 5.37848 9.36465 5.37848 12.5043H5.38285Z" fill="#1AE8FF"/>
<path d="M63.0664 12.5043C62.5505 12.5174 62.0301 12.5305 61.5141 12.5436C60.4909 12.5349 59.4677 12.5174 58.4401 12.5262C57.9197 12.5262 57.6836 12.3206 57.6836 11.7872C57.6923 9.12853 57.6923 6.4699 57.6836 3.81127C57.6836 3.23407 57.9547 3.05479 58.4926 3.05916C60.0186 3.07665 61.5447 3.07228 63.0708 3.07228C63.0708 6.21628 63.0708 9.36029 63.0708 12.5043H63.0664Z" fill="#1AE8FF"/>
<path d="M5.3902 59.2973C3.82476 59.306 2.25494 59.3104 0.689495 59.3192C0.230356 59.3192 0.0117188 59.1005 0.0117188 58.6414C0.0117188 55.9434 0.0117188 53.241 0.0117188 50.543C0.0117188 50.0358 0.269711 49.8521 0.746341 49.8565C1.70397 49.8696 2.6616 49.8653 3.61924 49.8696C3.99092 49.874 4.3626 49.9134 4.72992 49.8784C5.24153 49.8303 5.40332 50.0096 5.39895 50.5343C5.37708 53.4553 5.3902 56.3807 5.3902 59.3017V59.2973Z" fill="#1AE8FF"/>
<path d="M57.668 55.5366C57.668 54.8807 57.668 54.2292 57.668 53.5733C57.6767 52.5938 57.703 51.6143 57.6898 50.6348C57.6811 50.0795 57.9041 49.839 58.4638 49.8521C59.4652 49.8739 60.4665 49.8608 61.4679 49.8652C61.6428 49.8696 61.8177 49.8783 61.9882 49.8783C62.7141 49.8841 63.0771 50.2602 63.0771 51.0065C63.0771 53.7701 63.0771 56.5336 63.0814 59.2928C61.5204 59.3016 59.9549 59.3016 58.3938 59.3147C57.8954 59.3147 57.6942 59.0786 57.6942 58.5932C57.6942 57.5743 57.6811 56.5511 57.6723 55.5323L57.668 55.5366Z" fill="#1AE8FF"/>
<path d="M38.3117 5.66125C36.5319 5.76183 34.7522 5.67874 32.9682 5.67874C31.5995 5.67874 30.2308 5.66125 28.8621 5.65251C28.8621 4.79982 28.849 3.95151 28.8665 3.1032C28.8971 1.51152 29.9991 0.374601 31.5776 0.343992C32.9725 0.317755 34.3674 0.317755 35.7623 0.339619C37.0873 0.361483 38.2461 1.52026 38.2854 2.85395C38.316 3.78972 38.3029 4.72986 38.3073 5.66563L38.3117 5.66125Z" fill="#F7951D"/>
<path d="M27.5547 36.3755C31.5732 36.3755 35.5962 36.3755 39.6147 36.3711C39.2299 37.2063 38.6134 37.8884 38.1061 38.6405C37.542 39.467 36.9517 40.276 36.3702 41.0937C36.2958 41.0543 36.2259 40.9843 36.1515 40.9843C34.3587 40.9887 32.5615 41.0018 30.7687 41.015C29.6886 39.4714 28.5429 37.9759 27.5547 36.3711V36.3755Z" fill="#FF5D0A"/>
<path d="M5.39206 59.2971C5.39206 56.3761 5.37457 53.4507 5.4008 50.5297C5.4008 50.005 5.24776 49.8257 4.73177 49.8738C4.36446 49.9088 3.99278 49.8738 3.62109 49.8651C3.62984 49.8257 3.64733 49.7864 3.66919 49.7558C4.32073 49.7514 4.97665 49.7427 5.62819 49.7383C6.56395 49.7514 7.49972 49.7601 8.43112 49.7689C9.34065 49.7776 9.45434 49.887 9.46309 50.7703C9.47183 51.706 9.48495 52.6418 9.49807 53.5732C9.49807 54.2247 9.49807 54.8763 9.49807 55.5322C9.48495 56.5073 9.4762 57.4868 9.46309 58.4619C9.45434 59.2228 9.36251 59.3146 8.58416 59.3146C7.52159 59.3146 6.45464 59.3015 5.39206 59.2971Z" fill="#1AE8FF"/>
<path d="M5.37891 12.5044C5.37891 9.36038 5.37891 6.21637 5.37891 3.07674C6.51145 3.068 7.64399 3.06362 8.77653 3.04613C9.2794 3.03739 9.46305 3.27352 9.46305 3.76764C9.44994 6.42627 9.44994 9.0849 9.46305 11.7435C9.46305 12.347 9.20506 12.5481 8.63223 12.535C7.63087 12.5175 6.62951 12.5481 5.62815 12.5569C5.54507 12.5394 5.46199 12.5219 5.37891 12.5044Z" fill="#1AE8FF"/>
<path d="M30.7715 41.0194C32.5643 41.0063 34.3615 40.9931 36.1543 40.9888C36.2287 40.9888 36.2986 41.0587 36.373 41.0981C35.599 42.2044 34.8207 43.3063 34.0554 44.4214C33.7537 44.8587 33.4564 44.9155 33.1415 44.4651C32.3457 43.3238 31.5586 42.1694 30.7715 41.0238V41.0194Z" fill="#5E5D77"/>
<path d="M33.6054 7.89106C34.2613 7.89106 34.9172 7.88669 35.5688 7.89106C36.1766 7.89543 36.5133 8.25837 36.557 8.81371C36.6007 9.36031 36.2728 9.78446 35.7393 9.82819C34.305 9.94625 32.862 9.93314 31.4278 9.83256C30.8768 9.79321 30.5095 9.38217 30.5663 8.78748C30.6188 8.21027 30.9905 7.89544 31.5764 7.88669C32.2542 7.87357 32.9276 7.88669 33.6054 7.88669V7.89106Z" fill="#1AE8FF"/>
</svg>
