<svg width="57" height="59" viewBox="0 0 57 59" fill="none" xmlns="http://www.w3.org/2000/svg">
<path d="M51.6622 0H4.71587C2.11137 0 0 2.11137 0 4.71587V38.0514C0 40.6559 2.11137 42.7673 4.71587 42.7673H51.6622C54.2668 42.7673 56.3781 40.6559 56.3781 38.0514V4.71587C56.3781 2.11137 54.2668 0 51.6622 0Z" fill="#06BBCF"/>
<path d="M51.8681 42.7671C51.9891 44.0619 52.0982 45.3566 52.2309 46.6484C52.576 50.0194 52.9328 53.3904 53.2838 56.7584C53.3605 57.5046 53.4312 58.2537 53.505 58.9999H39.0536C39.0418 58.7787 39.0418 58.5604 39.0182 58.3422C38.7026 55.4254 38.3841 52.5086 38.0685 49.5917C37.7412 46.5658 37.4049 43.5399 37.11 40.511C37.0599 40.0066 36.9036 39.8916 36.4258 39.8946C33.1403 39.9064 29.8519 39.8916 26.5664 39.8828L26.7964 37.3287C27.0884 35.1492 27.286 32.9608 27.4925 30.7725C28.8698 30.7636 30.2471 30.7636 31.6244 30.746C31.8957 30.743 31.9695 30.8462 31.9636 31.0999C31.9518 31.8519 31.9488 32.6069 31.9636 33.359C31.9754 33.9872 32.3086 34.3735 32.8129 34.3765C33.3173 34.3794 33.6623 33.9931 33.6741 33.3708C33.6889 32.6364 33.6977 31.9021 33.6712 31.1677C33.6594 30.8167 33.7833 30.7401 34.1106 30.743C37.3991 30.7548 40.6875 30.7548 43.9759 30.743C44.3269 30.743 44.4065 30.8551 44.4006 31.1824C44.38 31.9345 44.3682 32.6895 44.4065 33.4416C44.4478 34.2084 45.1084 34.6006 45.7012 34.2467C46.0168 34.058 46.1289 33.766 46.1259 33.4091C46.12 32.6571 46.1377 31.9021 46.1171 31.15C46.1082 30.8374 46.2026 30.7401 46.5182 30.746C47.7126 30.7636 48.9071 30.7725 50.0986 30.746C50.5233 30.7342 50.6059 30.8905 50.6412 31.2739C50.8153 33.1938 51.0187 35.1079 51.2164 37.0249C51.2281 37.1341 51.2694 37.2373 51.296 37.3435C51.4257 39.1572 51.6116 40.9681 51.8622 42.7701L51.8681 42.7671Z" fill="#1AE8FF"/>
<path d="M26.5641 39.8828C29.8495 39.8887 33.138 39.9064 36.4234 39.8946C36.9012 39.8946 37.0605 40.0067 37.1077 40.511C37.3997 43.5399 37.7388 46.5658 38.0662 49.5918C38.3818 52.5086 38.7003 55.4254 39.0158 58.3422C39.0394 58.5605 39.0394 58.7817 39.0512 58.9999H18.9727C19.1083 57.7376 19.244 56.4754 19.3767 55.2101C19.4003 54.9948 19.3915 54.7766 19.3974 54.5583C19.6126 53.4966 19.6598 52.4113 19.7778 51.3377C20.173 47.6895 20.5741 44.0442 20.9428 40.396C20.9841 39.9831 21.102 39.8828 21.5002 39.8887C23.1901 39.9064 24.8771 39.8887 26.567 39.8828H26.5641ZM24.4583 45.5159H24.4848C24.4848 46.1588 24.4553 46.8047 24.4907 47.4447C24.5999 49.5004 26.3016 51.3672 28.2599 51.6032C30.6134 51.8893 32.6867 50.6712 33.3267 48.5625C33.8546 46.8224 33.5981 45.0293 33.5568 43.2538C33.545 42.7642 33.1675 42.5254 32.672 42.5489C32.1765 42.5696 31.8845 42.9353 31.8786 43.5517C31.8698 44.7108 31.8845 45.8698 31.8727 47.0259C31.8609 48.0936 31.4303 48.9518 30.5072 49.5181C28.5578 50.7125 26.2101 49.3352 26.16 46.9699C26.1364 45.8108 26.16 44.6547 26.1512 43.4957C26.1453 42.9029 25.8179 42.5489 25.3136 42.543C24.8004 42.5401 24.473 42.8793 24.4612 43.475C24.4465 44.1563 24.4583 44.8346 24.4583 45.5159Z" fill="#F7951D"/>
<path d="M18.5849 13.316C21.0829 13.319 23.5839 13.3249 26.0819 13.3278C27.1761 13.3278 27.6598 13.8056 27.6745 14.8998C27.6775 15.1947 27.6893 15.4896 27.6716 15.7816C27.6274 16.5366 27.3295 16.9377 26.6217 17.1442C26.368 17.2179 26.2825 17.3182 26.25 17.5807C25.8932 20.468 25.5157 23.3524 25.147 26.2397C25.0173 27.2513 24.7489 28.1774 23.8022 28.7613C23.2624 29.0916 22.6696 29.189 22.065 29.1919C19.6024 29.2067 17.1398 29.2362 14.6771 29.1831C13.465 29.1565 12.2528 29.1565 11.0436 29.1388C9.36847 29.1152 8.35982 28.1715 8.15337 26.5169C7.77882 23.5323 7.36002 20.5565 6.97662 17.5718C6.93828 17.2828 6.82915 17.1707 6.56077 17.0999C5.92078 16.9318 5.6465 16.5809 5.61701 15.9202C5.60226 15.5545 5.60816 15.1859 5.61111 14.8172C5.61996 13.7997 6.07414 13.3367 7.09459 13.3337C9.35372 13.3278 11.6158 13.3308 13.8749 13.3278C14.1315 13.3278 14.3881 13.3249 14.6476 13.3219C14.6535 13.5225 14.6653 13.726 14.6653 13.9265C14.6653 15.6902 14.6476 17.4539 14.6594 19.2175C14.6653 20.0463 15.0694 20.6686 15.8215 21.0077C16.547 21.3351 17.2607 21.2348 17.883 20.7157C18.4168 20.2704 18.5849 19.6688 18.582 18.9934C18.5761 17.1029 18.5849 15.2095 18.5879 13.319L18.5849 13.316Z" fill="#1AE8FF"/>
<path d="M26.5676 39.8828C24.8777 39.8887 23.1907 39.9064 21.5008 39.8887C21.1026 39.8857 20.9846 39.986 20.9434 40.396C20.5717 44.0442 20.1736 47.6924 19.7784 51.3377C19.6634 52.4113 19.6132 53.4936 19.3979 54.5583C16.661 54.5583 13.9212 54.5583 11.1842 54.5583C10.0281 54.5583 10.037 54.5583 10.0252 53.3757C10.0193 52.6885 10.0753 52.019 10.3968 51.3967C11.1282 49.9781 12.3374 49.3558 13.8917 49.3322C14.7175 49.3204 15.5462 49.3234 16.372 49.3322C16.6256 49.3352 16.7525 49.2821 16.8173 48.996C17.2656 47.0495 17.7316 45.1089 18.2153 43.1712C18.3215 42.7436 18.0914 42.7908 17.826 42.7908C13.5614 42.7908 9.29967 42.7908 5.03503 42.7908C2.93811 42.7908 1.3809 41.8912 0.389947 40.0184C-0.0553919 39.1779 -0.011153 38.2843 0.0153904 37.3877C0.0507815 37.37 0.0832234 37.3494 0.118615 37.3317C5.44793 37.3346 10.7743 37.3405 16.1036 37.3405C19.0794 37.3405 22.0552 37.3346 25.034 37.3317C25.093 37.3671 25.1431 37.3553 25.1873 37.3051L25.3702 37.2756C25.8421 37.4113 26.3199 37.314 26.7976 37.3317L26.5676 39.8857V39.8828Z" fill="#697A91"/>
<path d="M18.5847 13.3159C18.5818 15.2064 18.5729 17.0998 18.5788 18.9903C18.5788 19.6656 18.4137 20.2673 17.8799 20.7126C17.2576 21.2346 16.5439 21.332 15.8183 21.0046C15.0692 20.6684 14.6622 20.0431 14.6563 19.2144C14.6445 17.4507 14.6593 15.6871 14.6622 13.9234C14.6622 13.7229 14.6504 13.5194 14.6445 13.3188C14.6504 12.2188 14.6534 11.1187 14.6652 10.0186C14.677 8.81235 15.4998 7.93347 16.6117 7.93347C17.7177 7.93347 18.5376 8.80055 18.5582 10.0157C18.5759 11.1157 18.5759 12.2158 18.5847 13.3159Z" fill="#D6E8F5"/>
<path d="M46.0622 16.3064C44.1895 16.3064 42.3137 16.3064 40.4409 16.3064C40.2227 16.3064 40.0015 16.3212 39.7921 16.2268C39.4382 16.0646 39.2524 15.7932 39.273 15.401C39.2937 15.0117 39.4972 14.7433 39.8776 14.646C40.087 14.5929 40.3112 14.5781 40.5294 14.5781C44.2396 14.5752 47.9498 14.5752 51.6599 14.5781C52.5211 14.5781 52.9458 14.8642 52.9547 15.4364C52.9606 16.0203 52.5418 16.3094 51.6835 16.3094C49.8108 16.3094 47.935 16.3094 46.0622 16.3094V16.3064Z" fill="#D6E8F5"/>
<path d="M46.125 12.26C44.2699 12.26 42.4148 12.26 40.5597 12.26C40.3592 12.26 40.1527 12.2659 39.9551 12.2276C39.5186 12.148 39.2856 11.8589 39.2738 11.4254C39.262 10.983 39.5068 10.7058 39.9227 10.5849C40.0259 10.5554 40.1409 10.5613 40.2501 10.5613C44.1431 10.5613 48.0361 10.5613 51.9291 10.5613C51.9852 10.5613 52.0383 10.5613 52.0943 10.5642C52.5986 10.6026 52.9437 10.9388 52.9525 11.3959C52.9614 11.8472 52.6193 12.2217 52.1238 12.2453C51.5546 12.2718 50.9854 12.26 50.4162 12.26C48.9828 12.26 47.5524 12.26 46.1191 12.26H46.125Z" fill="#D6E8F5"/>
<path d="M51.867 42.7674C51.6164 40.9654 51.4305 39.1546 51.3008 37.3408C52.8256 37.3408 54.3503 37.3614 55.8751 37.3319C56.3116 37.3231 56.3824 37.4705 56.3735 37.8598C56.3057 40.4965 54.4948 42.4784 51.867 42.7674Z" fill="#697A91"/>
<path d="M26.7946 37.3288C26.3198 37.314 25.8391 37.4084 25.3672 37.2727C25.4822 35.5091 25.6769 33.7543 25.901 32.0024C25.9511 31.6101 25.7535 31.0881 26.0957 30.8551C26.482 30.5956 27.0188 30.7843 27.4877 30.7696C27.2813 32.958 27.0837 35.1463 26.7917 37.3258L26.7946 37.3288Z" fill="#91A5B3"/>
<path d="M34.4502 16.3066C33.8633 16.3066 33.2734 16.3184 32.6865 16.3036C32.132 16.2889 31.784 15.9615 31.7663 15.4808C31.7486 14.9971 32.0613 14.6107 32.6187 14.596C33.8485 14.5606 35.0813 14.5606 36.3112 14.596C36.842 14.6107 37.193 15.0413 37.1635 15.4926C37.131 15.9615 36.7653 16.2889 36.2168 16.3036C35.6299 16.3184 35.04 16.3066 34.4531 16.3066H34.4502Z" fill="#F7951D"/>
<path d="M34.4448 12.2572C33.8579 12.2572 33.2681 12.2719 32.6812 12.2542C32.0972 12.2365 31.7522 11.8885 31.764 11.3812C31.7787 10.8976 32.1267 10.5672 32.6782 10.5613C33.8727 10.5495 35.0671 10.5495 36.2616 10.5613C36.8013 10.5672 37.1641 10.93 37.1641 11.4048C37.1641 11.8708 36.8043 12.2306 36.2645 12.2483C35.6599 12.269 35.0524 12.2542 34.4448 12.2542V12.2572Z" fill="#F7951D"/>
<path d="M0.116896 37.3318C0.0815049 37.3495 0.049063 37.3702 0.0136719 37.3879C0.0136719 37.3082 0.037266 37.267 0.116896 37.3318Z" fill="#91A5B3"/>
<path d="M25.1827 37.3052C25.1384 37.3553 25.0883 37.3671 25.0293 37.3317L25.1827 37.3052Z" fill="#91A5B3"/>
<path d="M24.4674 45.5159C24.4674 44.8346 24.4556 44.1563 24.4703 43.475C24.4851 42.8793 24.8095 42.5371 25.3226 42.543C25.827 42.546 26.1543 42.8999 26.1602 43.4957C26.172 44.6547 26.1455 45.8138 26.1691 46.9699C26.2192 49.3352 28.5698 50.7125 30.5163 49.518C31.4394 48.9547 31.87 48.0936 31.8818 47.0259C31.8936 45.8669 31.8818 44.7108 31.8877 43.5517C31.8936 42.9353 32.1856 42.5725 32.6811 42.5489C33.1765 42.5283 33.554 42.7672 33.5658 43.2538C33.6042 45.0263 33.8637 46.8224 33.3358 48.5625C32.6958 50.6712 30.6195 51.8893 28.269 51.6032C26.3106 51.3672 24.6089 49.5004 24.4998 47.4447C24.4644 46.8047 24.4939 46.1588 24.4939 45.5159H24.4674Z" fill="#697A91"/>
<path d="M32.104 30.5572C32.104 31.619 32.0863 32.6777 32.1099 33.7395C32.1306 34.6685 32.6408 35.2023 33.44 35.1935C34.2275 35.1876 34.7377 34.6361 34.7466 33.71C34.7643 31.905 34.723 30.0971 34.7613 28.2922C34.838 24.6027 38.501 22.4585 41.5387 24.3195C42.975 25.1984 43.6474 26.5403 43.6681 28.2037C43.6887 30.0087 43.6651 31.8136 43.6769 33.6215C43.6828 34.58 44.14 35.1492 44.9127 35.1846C45.6824 35.22 46.2752 34.8455 46.29 34.0845C46.349 31.3211 46.753 28.5222 45.9302 25.8119C44.9304 22.5234 41.698 20.6271 38.0291 21.0694C34.9766 21.4381 32.3252 24.3461 32.1512 27.5519C32.0981 28.5517 32.1424 29.5574 32.1424 30.5602H32.104V30.5572Z" fill="#697A91"/>
</svg>
