<svg width="68" height="67" viewBox="0 0 68 67" fill="none" xmlns="http://www.w3.org/2000/svg">
<path d="M65.0782 60.1505C65.958 60.1505 66.8424 60.1505 67.7222 60.1505V63.5895C67.2706 65.0903 66.4002 66.2006 64.8571 66.6805C64.4149 66.8169 63.9679 66.8969 63.4975 66.8969C43.7568 66.8875 24.0161 66.8828 4.27547 66.8875C1.69263 66.8875 -0.109248 64.841 0.00836803 62.5922C0.0365959 62.0229 0.0365959 61.4442 0.00836803 60.875C-0.0151552 60.428 0.116575 60.2398 0.596448 60.2634C1.27862 60.2963 1.96079 60.2634 2.64296 60.2634C3.83794 60.2681 5.02822 60.2775 6.22319 60.2822C6.41138 60.2822 6.61838 60.3339 6.76423 60.1458C7.05121 60.1458 7.33819 60.1552 7.62518 60.1552C19.6785 60.1552 31.7364 60.1552 43.7897 60.1552C49.52 60.1552 55.2502 60.1552 60.9805 60.1552C62.0672 60.4327 63.1728 60.2069 64.269 60.2634C64.5372 60.2775 64.8383 60.3716 65.0782 60.1458V60.1505ZM33.8676 60.2822C32.8326 60.2822 31.7976 60.2822 30.7626 60.2822C29.9126 60.2822 29.4923 60.6978 29.5017 61.5289C29.5159 62.658 30.4286 63.5848 31.553 63.5895C33.0961 63.599 34.6392 63.5801 36.1776 63.599C36.6951 63.6037 37.0997 63.3967 37.4902 63.0814C38.243 62.4792 38.2571 61.6606 38.243 60.8044C38.2335 60.3951 38.0924 60.2728 37.6972 60.2775C36.4176 60.2963 35.1426 60.2822 33.8629 60.2822H33.8676Z" fill="#06BBCF"/>
<path d="M52.2227 19.8034C52.2369 21.5723 52.251 23.3413 52.2651 25.1102C52.2651 26.6063 52.2651 28.1024 52.2651 29.5984C52.2604 31.5132 52.2698 33.4327 52.2369 35.3475C52.2086 36.8812 51.6535 38.222 50.6279 39.3653C49.2541 40.899 47.4852 41.4729 45.481 41.4729C40.5882 41.4729 35.6953 41.4823 30.8025 41.4635C30.2568 41.4635 29.8663 41.6047 29.4711 41.9999C26.9635 44.5451 24.4324 47.0573 21.9061 49.5837C21.7461 49.7437 21.572 49.8942 21.3791 50.0683C21.3415 49.9507 21.3133 49.9131 21.3133 49.8707C21.3133 47.5137 21.3133 45.1567 21.3133 42.7949C21.3133 41.9826 20.9118 41.4965 20.1089 41.3365C20.0665 41.3271 20.0242 41.3083 19.9819 41.2989C17.065 40.6073 15.122 38.2126 15.0749 35.2111C15.0467 33.3386 15.0514 31.4662 15.042 29.5937C15.0984 28.0977 15.0937 26.6016 15.042 25.1055C15.0514 23.6094 15.0561 22.1134 15.0749 20.6173C15.1126 17.1359 17.733 14.393 21.1768 14.3789C29.9604 14.346 38.744 14.3695 47.5322 14.3742C47.4711 14.4918 47.424 14.6189 47.3487 14.7224C44.8412 18.1991 42.3336 21.6758 39.8213 25.1526C39.6896 25.3313 39.5532 25.4913 39.5579 25.7359C39.5861 27.4719 39.5343 29.2127 39.4261 30.944C39.3932 31.4474 39.572 31.4944 40.0048 31.3344C41.6138 30.7464 43.2275 30.1771 44.8459 29.6172C45.067 29.542 45.2269 29.4197 45.3587 29.2315C46.5772 27.5331 47.7863 25.8347 49.0236 24.1505C50.0868 22.7014 51.0748 21.1865 52.2227 19.7987V19.8034ZM28.6196 25.2702C30.4262 25.2702 32.2327 25.2702 34.0393 25.2702C34.8909 25.2702 35.2155 24.9879 35.2155 24.2869C35.2155 23.5812 34.872 23.2613 34.0628 23.2613C30.4262 23.2613 26.7942 23.2613 23.1575 23.2613C22.4047 23.2613 21.9625 23.6612 21.9813 24.2963C21.9954 24.922 22.3906 25.2655 23.134 25.2655C24.9641 25.2702 26.7895 25.2655 28.6196 25.2655V25.2702ZM28.6243 32.5153C30.4309 32.5153 32.2374 32.5153 34.044 32.5153C34.8626 32.5153 35.2061 32.2095 35.2155 31.5132C35.2249 30.8122 34.8956 30.5158 34.0581 30.5158C30.445 30.5158 26.8318 30.5158 23.2234 30.5158C22.4142 30.5158 21.9625 30.8922 21.9813 31.5367C21.9954 32.1672 22.4283 32.52 23.2092 32.52C25.0158 32.5247 26.8224 32.52 28.629 32.52L28.6243 32.5153Z" fill="#C3CDDF"/>
<path d="M52.2214 19.8033C51.0687 21.1912 50.0855 22.7014 49.0222 24.1551C47.7849 25.8394 46.5758 27.5378 45.3573 29.2361C45.2256 29.4196 45.0656 29.5419 44.8445 29.6219C43.2261 30.1818 41.6124 30.751 40.0034 31.3391C39.5753 31.4944 39.3965 31.452 39.4247 30.9486C39.533 29.2126 39.5847 27.4766 39.5565 25.7406C39.5565 25.496 39.6929 25.336 39.8199 25.1572C42.3322 21.6852 44.8398 18.2085 47.3474 14.727C47.4226 14.6235 47.4697 14.4965 47.5308 14.3789C48.9563 12.6147 50.1984 10.7187 51.5533 8.90269C52.1978 8.03704 52.8094 7.14786 53.4493 6.28221C53.6233 6.04698 53.6657 5.88232 53.5292 5.58592C53.167 4.81436 53.6563 4.04751 54.4937 4.09926C54.9312 4.12749 55.1241 3.94401 55.3358 3.6382C55.8533 2.89958 56.385 2.17036 56.926 1.45055C57.8575 0.213227 59.2971 -0.276055 60.7179 0.152067C62.0917 0.566075 63.1126 1.85044 63.1832 3.34181C63.2208 4.05692 63.0185 4.73909 62.5998 5.33187C62.0211 6.15989 61.4471 6.99731 60.8355 7.80181C60.605 8.10761 60.5768 8.25345 60.8826 8.54044C62.8585 10.3799 63.0938 12.7887 61.5224 15.0093C60.1628 16.9335 58.7749 18.8342 57.3917 20.7396C56.9589 21.3371 56.3426 21.4876 55.858 21.1442C55.3217 20.7584 55.2417 20.1421 55.6887 19.5211C57.0765 17.5922 58.4691 15.668 59.8617 13.7391C60.5109 12.8405 60.6332 11.8854 60.1298 10.8833C60.0122 10.6528 59.8288 10.4552 59.6641 10.2482C59.4242 9.94712 59.236 9.98006 59.0101 10.3C58.0974 11.5937 57.1612 12.8734 56.2297 14.1578C55.0018 15.8514 53.7739 17.5451 52.5507 19.2388C52.4237 19.4176 52.3249 19.6152 52.2119 19.8033H52.2214Z" fill="#1AE8FF"/>
<path d="M52.2715 29.5985C52.2715 28.1024 52.2715 26.6063 52.2715 25.1103C55.0237 25.1103 57.7759 25.1432 60.5234 25.1009C63.0169 25.0585 65.0822 27.1474 65.0775 29.6502C65.0775 38.2315 65.0775 46.8175 65.0775 55.3987C65.0775 56.9842 65.0775 58.5697 65.0775 60.1504C64.8376 60.3762 64.5365 60.2821 64.2683 60.268C63.1721 60.2116 62.0665 60.4327 60.9798 60.1598C60.9798 50.186 60.9798 40.2122 60.9986 30.2383C60.9986 29.7161 60.8527 29.5656 60.3305 29.5703C57.6442 29.5985 54.9578 29.5938 52.2715 29.5985V29.5985Z" fill="#1AE8FF"/>
<path d="M15.044 25.1102C15.0958 26.6063 15.1005 28.1024 15.044 29.5985C12.4894 29.5985 9.93477 29.6126 7.38015 29.589C6.88616 29.589 6.74502 29.7255 6.74502 30.2195C6.75914 40.1933 6.75914 50.1718 6.76384 60.1457C6.618 60.3339 6.41099 60.2821 6.22281 60.2821C5.02783 60.2821 3.83756 60.2727 2.64258 60.2633C2.64728 59.0307 2.65669 57.7981 2.6614 56.5654C2.6614 47.6031 2.6614 38.6408 2.6614 29.6784C2.6614 27.0674 4.62793 25.1102 7.25312 25.1102C9.85008 25.1102 12.4517 25.1102 15.0487 25.1102H15.044Z" fill="#1AE8FF"/>
<path d="M6.76589 60.1458C6.76589 50.172 6.76589 40.1934 6.74707 30.2196C6.74707 29.7256 6.88821 29.5845 7.3822 29.5892C9.93682 29.6127 12.4914 29.5986 15.0461 29.5986C15.0555 31.471 15.0508 33.3435 15.079 35.2159C15.126 38.2175 17.069 40.6121 19.9859 41.3037C20.0283 41.3131 20.0706 41.3319 20.1129 41.3414C20.9159 41.5013 21.3173 41.9875 21.3173 42.7998C21.3173 45.1568 21.3173 47.5138 21.3173 49.8756C21.3173 49.9132 21.3409 49.9508 21.3832 50.0732C21.5761 49.8991 21.7502 49.7485 21.9101 49.5886C24.4365 47.0669 26.9676 44.5499 29.4752 42.0047C29.8657 41.6048 30.2562 41.4637 30.8066 41.4684C35.6994 41.4872 40.5922 41.4778 45.4851 41.4778C47.4892 41.4778 49.2582 40.8991 50.6319 39.3701C51.6576 38.2269 52.2127 36.8861 52.2409 35.3524C52.2739 33.4376 52.2597 31.5181 52.2692 29.6033C54.9555 29.5986 57.6418 29.6033 60.3282 29.5751C60.8504 29.5704 60.9963 29.7162 60.9963 30.2431C60.9774 40.2169 60.9821 50.1908 60.9774 60.1646C55.2472 60.1646 49.5169 60.1646 43.7867 60.1646C31.7334 60.1646 19.6754 60.1646 7.62213 60.1646C7.33515 60.1646 7.04817 60.1599 6.76118 60.1552L6.76589 60.1458Z" fill="white"/>
<path d="M33.8722 60.2822C35.1519 60.2822 36.4268 60.2916 37.7065 60.2775C38.1017 60.2728 38.2428 60.3951 38.2522 60.8044C38.271 61.6606 38.2522 62.4792 37.4995 63.0814C37.109 63.3966 36.7044 63.6037 36.1869 63.5989C34.6438 63.5848 33.1007 63.5989 31.5622 63.5895C30.4378 63.5848 29.5251 62.658 29.511 61.5289C29.4985 60.6977 29.9187 60.2822 30.7719 60.2822C31.8069 60.2822 32.8419 60.2822 33.8769 60.2822H33.8722Z" fill="#1AE8FF"/>
<path d="M28.6173 25.2701C26.7872 25.2701 24.9618 25.2701 23.1317 25.2701C22.3884 25.2701 21.9932 24.9266 21.9791 24.3009C21.9603 23.6705 22.4025 23.2706 23.1553 23.2659C26.7919 23.2612 30.4239 23.2659 34.0606 23.2659C34.8698 23.2659 35.2132 23.5811 35.2132 24.2915C35.2132 24.9925 34.8886 25.2701 34.0371 25.2748C32.2305 25.2795 30.4239 25.2748 28.6173 25.2748V25.2701Z" fill="#FFFFFE"/>
<path d="M28.6226 32.5152C26.816 32.5152 25.0094 32.5152 23.2028 32.5152C22.4219 32.5152 21.9938 32.1576 21.9749 31.5319C21.9608 30.8874 22.4078 30.511 23.217 30.511C26.8301 30.511 30.4433 30.511 34.0517 30.511C34.8845 30.511 35.2138 30.8074 35.2091 31.5084C35.1997 32.2094 34.8562 32.5105 34.0376 32.5105C32.231 32.5105 30.4245 32.5105 28.6179 32.5105L28.6226 32.5152Z" fill="#FFFFFE"/>
</svg>
