<svg width="68" height="60" viewBox="0 0 68 60" fill="none" xmlns="http://www.w3.org/2000/svg">
<path d="M63.4851 49.7384C64.3071 49.7515 65.1292 49.7734 65.9513 49.7646C66.3711 49.7603 66.7646 49.8171 67.1407 50.0051V59.0524C66.9308 59.2054 66.7296 59.3278 66.441 59.3235C65.3216 59.2972 64.2022 59.3016 63.0784 59.2972C63.0784 56.5337 63.0784 53.7701 63.074 51.0109C63.074 50.2646 62.7111 49.8885 61.9852 49.8827C61.8103 49.8827 61.6354 49.874 61.4648 49.8696C61.4736 49.8259 61.4955 49.7865 61.5217 49.7559L63.4851 49.7428V49.7384Z" fill="#1AE8FF"/>
<path d="M67.1374 12.5178C65.9174 12.5309 64.7018 12.5484 63.4818 12.5615C63.3419 12.544 63.2063 12.5265 63.0664 12.5047C63.0664 9.36065 63.0664 6.21664 63.0664 3.07263H67.1331V12.5178H67.1374Z" fill="#1AE8FF"/>
<path d="M63.0713 12.5045C63.2112 12.522 63.3468 12.5395 63.4867 12.5614C63.4867 24.9537 63.4867 37.3461 63.4867 49.7428C62.8308 49.7428 62.1792 49.7516 61.5233 49.756C61.5233 45.3832 61.5233 41.0105 61.5233 36.6377C58.117 44.5087 52.533 50.1408 44.6751 53.5821H57.6666C57.6666 54.238 57.6666 54.8896 57.6666 55.5455C41.6098 55.5455 25.5575 55.5455 9.50075 55.5455C9.50075 54.8939 9.50075 54.2424 9.50075 53.5865H22.4791C14.6169 50.1408 9.02849 44.5043 5.63087 36.6596V49.7516L3.67188 49.7691C3.67188 37.3636 3.67188 24.9625 3.67188 12.557C4.2447 12.5439 4.81754 12.5308 5.39037 12.5176L5.63961 12.5701C5.63961 16.8948 5.55216 21.2238 5.66148 25.5484C5.9457 36.9963 11.2149 45.4401 21.3378 50.7398C26.3052 53.3416 31.6793 54.0412 37.2458 53.346C48.6062 51.9336 58.4711 43.2056 60.9505 31.2592C61.3615 29.2871 61.5321 27.2888 61.5277 25.2729C61.5146 21.0357 61.5277 16.7986 61.5277 12.557C62.0437 12.5439 62.564 12.5308 63.08 12.5176L63.0713 12.5045Z" fill="#5E5D77"/>
<path d="M27.5613 36.3754C27.5438 36.0956 27.5176 35.8113 27.5176 35.5315C27.5176 27.6911 27.5176 19.8464 27.5176 12.0061C28.9781 12.0061 30.4386 11.993 31.8991 11.9974C34.4921 12.0017 37.0852 12.0148 39.6738 12.0236C39.6651 12.286 39.6476 12.5439 39.6476 12.8063C39.6476 20.3799 39.6476 27.9535 39.6476 35.5227C39.6476 35.807 39.6345 36.0912 39.6257 36.3711C35.6072 36.3711 31.5842 36.371 27.5657 36.3754H27.5613Z" fill="#F7951D"/>
<path d="M39.6663 12.0192C37.0733 12.0104 34.4803 11.9973 31.8916 11.9929C30.4311 11.9929 28.9706 12.0017 27.5101 12.0017C26.9635 12.0148 26.793 11.6781 26.793 11.2015C26.793 9.65351 26.793 8.10556 26.793 6.5576C26.793 5.96728 27.0859 5.68743 27.6938 5.70929C28.0829 5.72241 28.4765 5.78363 28.8613 5.64807C30.2299 5.65682 31.5986 5.66993 32.9673 5.67431C34.747 5.67431 36.5311 5.75739 38.3108 5.65682C38.7481 5.66556 39.181 5.67868 39.6182 5.68305C40.1255 5.68743 40.3922 5.94542 40.3922 6.44828C40.3966 8.06183 40.401 9.67975 40.3922 11.2933C40.3922 11.7481 40.1736 12.041 39.6663 12.0148V12.0192ZM33.6145 7.89129C32.9367 7.89129 32.2589 7.88255 31.5855 7.89129C30.9996 7.90004 30.6279 8.21487 30.5754 8.79208C30.5229 9.38677 30.8859 9.79781 31.4368 9.83716C32.8711 9.93774 34.3141 9.94648 35.7484 9.83279C36.2818 9.78906 36.6098 9.36491 36.5661 8.81831C36.5223 8.2586 36.1856 7.90004 35.5778 7.89566C34.9219 7.89129 34.266 7.89566 33.6145 7.89566V7.89129Z" fill="#FF5D0A"/>
<path d="M5.38285 12.5045C4.81002 12.5176 4.23719 12.5308 3.66436 12.5439C2.70236 12.5351 1.74473 12.5133 0.782722 12.5264C0.22301 12.5351 0 12.299 0 11.7437C0.0131182 9.10253 0.0131182 6.46139 0 3.82463C0 3.25617 0.249247 3.05502 0.79584 3.0594C2.32193 3.07689 3.85239 3.07251 5.37848 3.07689C5.37848 6.22089 5.37848 9.3649 5.37848 12.5045H5.38285Z" fill="#1AE8FF"/>
<path d="M63.0664 12.5045C62.5505 12.5177 62.0301 12.5308 61.5141 12.5439C60.4909 12.5351 59.4677 12.5177 58.4401 12.5264C57.9197 12.5264 57.6836 12.3209 57.6836 11.7874C57.6923 9.12878 57.6923 6.47015 57.6836 3.81152C57.6836 3.23431 57.9547 3.05503 58.4926 3.0594C60.0186 3.07689 61.5447 3.07252 63.0708 3.07252C63.0708 6.21653 63.0708 9.36053 63.0708 12.5045H63.0664Z" fill="#1AE8FF"/>
<path d="M5.3902 59.2974C3.82476 59.3062 2.25494 59.3105 0.689495 59.3193C0.230356 59.3193 0.0117188 59.1006 0.0117188 58.6415C0.0117188 55.9435 0.0117188 53.2412 0.0117188 50.5432C0.0117188 50.0359 0.269711 49.8523 0.746341 49.8566C1.70397 49.8698 2.6616 49.8654 3.61924 49.8698C3.99092 49.8741 4.3626 49.9135 4.72992 49.8785C5.24153 49.8304 5.40332 50.0097 5.39895 50.5344C5.37708 53.4554 5.3902 56.3808 5.3902 59.3018V59.2974Z" fill="#1AE8FF"/>
<path d="M57.668 55.5368C57.668 54.8809 57.668 54.2293 57.668 53.5734C57.6767 52.5939 57.703 51.6144 57.6898 50.6349C57.6811 50.0796 57.9041 49.8391 58.4638 49.8522C59.4652 49.8741 60.4665 49.8609 61.4679 49.8653C61.6428 49.8697 61.8177 49.8784 61.9882 49.8784C62.7141 49.8843 63.0771 50.2603 63.0771 51.0066C63.0771 53.7702 63.0771 56.5337 63.0814 59.293C61.5204 59.3017 59.9549 59.3017 58.3938 59.3148C57.8954 59.3148 57.6942 59.0787 57.6942 58.5933C57.6942 57.5745 57.6811 56.5512 57.6723 55.5324L57.668 55.5368Z" fill="#1AE8FF"/>
<path d="M38.3117 5.66125C36.5319 5.76183 34.7522 5.67874 32.9682 5.67874C31.5995 5.67874 30.2308 5.66125 28.8621 5.65251C28.8621 4.79982 28.849 3.95151 28.8665 3.1032C28.8971 1.51152 29.9991 0.374601 31.5776 0.343992C32.9725 0.317755 34.3674 0.317755 35.7623 0.339619C37.0873 0.361483 38.2461 1.52026 38.2854 2.85395C38.316 3.78972 38.3029 4.72986 38.3073 5.66563L38.3117 5.66125Z" fill="#F7951D"/>
<path d="M27.5547 36.3753C31.5732 36.3753 35.5962 36.3753 39.6147 36.371C39.2299 37.2062 38.6134 37.8883 38.1061 38.6404C37.542 39.4669 36.9517 40.2758 36.3702 41.0935C36.2958 41.0542 36.2259 40.9842 36.1515 40.9842C34.3587 40.9886 32.5615 41.0017 30.7687 41.0148C29.6886 39.4712 28.5429 37.9758 27.5547 36.371V36.3753Z" fill="#FF5D0A"/>
<path d="M5.39206 59.2972C5.39206 56.3762 5.37457 53.4509 5.4008 50.5299C5.4008 50.0051 5.24776 49.8259 4.73177 49.874C4.36446 49.9089 3.99278 49.874 3.62109 49.8652C3.62984 49.8259 3.64733 49.7865 3.66919 49.7559C4.32073 49.7515 4.97665 49.7428 5.62819 49.7384C6.56395 49.7515 7.49972 49.7603 8.43112 49.769C9.34065 49.7778 9.45434 49.8871 9.46309 50.7704C9.47183 51.7061 9.48495 52.6419 9.49807 53.5733C9.49807 54.2248 9.49807 54.8764 9.49807 55.5323C9.48495 56.5074 9.4762 57.4869 9.46309 58.462C9.45434 59.2229 9.36251 59.3147 8.58416 59.3147C7.52159 59.3147 6.45464 59.3016 5.39206 59.2972Z" fill="#1AE8FF"/>
<path d="M5.37891 12.5046C5.37891 9.36062 5.37891 6.21662 5.37891 3.07699C6.51145 3.06824 7.64399 3.06387 8.77653 3.04638C9.2794 3.03763 9.46305 3.27376 9.46305 3.76788C9.44994 6.42651 9.44994 9.08514 9.46305 11.7438C9.46305 12.3472 9.20506 12.5484 8.63223 12.5352C7.63087 12.5177 6.62951 12.5484 5.62815 12.5571C5.54507 12.5396 5.46199 12.5221 5.37891 12.5046Z" fill="#1AE8FF"/>
<path d="M30.7715 41.0194C32.5643 41.0063 34.3615 40.9931 36.1543 40.9888C36.2287 40.9888 36.2986 41.0587 36.373 41.0981C35.599 42.2044 34.8207 43.3063 34.0554 44.4214C33.7537 44.8587 33.4564 44.9155 33.1415 44.4651C32.3457 43.3238 31.5586 42.1694 30.7715 41.0238V41.0194Z" fill="#5E5D77"/>
<path d="M33.6054 7.89131C34.2613 7.89131 34.9172 7.88693 35.5688 7.89131C36.1766 7.89568 36.5133 8.25862 36.557 8.81396C36.6007 9.36055 36.2728 9.78471 35.7393 9.82843C34.305 9.9465 32.862 9.93338 31.4278 9.83281C30.8768 9.79345 30.5095 9.38241 30.5663 8.78772C30.6188 8.21052 30.9905 7.89568 31.5764 7.88693C32.2542 7.87382 32.9276 7.88693 33.6054 7.88693V7.89131Z" fill="#1AE8FF"/>
</svg>
