<svg width="59" height="60" viewBox="0 0 59 60" fill="none" xmlns="http://www.w3.org/2000/svg">
<path d="M19.5783 29.2192C20.2747 29.2283 20.9756 29.2735 21.672 29.2328C22.911 29.165 23.9466 29.4273 24.435 30.8969C24.946 29.4815 25.9272 29.165 27.1572 29.2418C27.7451 29.278 28.342 29.2373 28.9344 29.2328C29.3278 29.2328 29.7257 29.2328 30.1192 29.2328C30.7296 29.2373 31.3446 29.278 31.9551 29.2418C33.1625 29.1695 34.1212 29.5041 34.596 30.8879C35.107 29.4634 36.1154 29.1469 37.3589 29.2328C37.9242 29.2735 38.4985 29.2283 39.0683 29.2192C39.4843 29.2192 39.9048 29.2192 40.3209 29.2192C41.1213 29.2283 41.9262 29.2283 42.7266 29.2418C43.9068 29.2645 44.766 30.1101 44.7705 31.2948C44.7796 33.999 44.7705 36.7032 44.766 39.4074C34.605 39.4074 24.444 39.4074 14.283 39.4074C14.283 36.6987 14.2649 33.9855 14.2785 31.2768C14.283 30.1236 15.1422 29.278 16.2863 29.2464C16.942 29.2283 17.5977 29.2283 18.2533 29.2192C18.6965 29.2192 19.1397 29.2192 19.5783 29.2192Z" fill="#F7951D"/>
<path d="M14.2784 39.4028C24.4394 39.4028 34.6004 39.4028 44.7614 39.4028C46.222 39.4028 47.6826 39.4254 49.1433 39.3937C49.6814 39.3801 49.8984 39.4977 49.8668 40.0856C49.7311 42.5003 49.2834 44.8428 48.361 47.0902C47.2711 49.7446 45.693 52.078 43.6309 54.0632C40.6464 56.9347 37.092 58.7661 33.0132 59.458C28.5137 60.2177 24.1862 59.5665 20.1254 57.4457C16.6208 55.6142 13.8669 52.9779 11.8862 49.5321C10.715 47.4972 9.91914 45.3311 9.49859 43.0339C9.31771 42.0436 9.20918 41.0352 9.173 40.0223C9.15491 39.4887 9.35388 39.3892 9.83322 39.3937C11.3164 39.4163 12.7997 39.4028 14.2784 39.3982V39.4028ZM29.5583 40.4202C26.5512 40.4202 23.544 40.4293 20.5369 40.4112C20.0937 40.4112 19.9581 40.5287 19.9761 40.9809C20.0485 42.844 20.2882 44.6845 20.6228 46.5159C20.6906 46.8867 20.876 46.9545 21.1971 46.9093C22.6848 46.7058 24.1771 46.5566 25.6784 46.4707C28.2379 46.326 30.7974 46.3305 33.3568 46.4707C34.8582 46.5521 36.3504 46.7104 37.8382 46.9138C38.1999 46.9636 38.3627 46.8551 38.4306 46.4662C38.7561 44.6981 38.9687 42.9164 39.0682 41.1211C39.0998 40.574 38.9732 40.4021 38.3899 40.4066C35.446 40.4383 32.5022 40.4202 29.5583 40.4202ZM29.5493 48.4106C26.922 48.3699 24.3082 48.5553 21.7036 48.9126C21.3825 48.9578 21.1971 48.9669 21.3282 49.3919C21.8618 51.1193 22.5673 52.7654 23.4943 54.3164C23.6073 54.5063 23.7068 54.6601 23.9827 54.6194C24.3987 54.5561 24.8238 54.5425 25.2443 54.4973C28.4776 54.1627 31.7108 54.2486 34.935 54.5968C35.2877 54.633 35.4234 54.5154 35.5772 54.2576C36.468 52.7337 37.1644 51.1329 37.6889 49.4462C37.8156 49.0392 37.7251 48.9533 37.3272 48.899C34.7451 48.5553 32.154 48.3745 29.5448 48.4106H29.5493ZM14.1246 40.4202C12.9806 40.4202 11.8365 40.4202 10.6924 40.4202C10.4844 40.4202 10.2085 40.3252 10.2402 40.7413C10.4708 43.5178 11.2034 46.1406 12.5419 48.5915C12.7318 48.9397 12.9172 48.9533 13.2519 48.8267C14.8527 48.2026 16.5032 47.7504 18.1854 47.4294C18.6421 47.3434 18.6874 47.1671 18.606 46.7511C18.2261 44.8201 17.9638 42.8712 17.9548 40.8995C17.9548 40.488 17.792 40.4112 17.4257 40.4157C16.3269 40.4338 15.2235 40.4202 14.1201 40.4202H14.1246ZM44.992 40.4202C43.848 40.4202 42.7039 40.4338 41.5598 40.4112C41.198 40.4066 41.085 40.5287 41.085 40.8815C41.0714 42.8983 40.7956 44.8835 40.4157 46.8596C40.3434 47.2349 40.4474 47.3434 40.782 47.4068C42.5094 47.7278 44.1962 48.2026 45.8377 48.8312C46.1678 48.9578 46.3215 48.9035 46.4888 48.596C47.8319 46.1496 48.5599 43.5223 48.7996 40.7503C48.8358 40.3433 48.578 40.4202 48.361 40.4202C47.2395 40.4157 46.118 40.4202 44.992 40.4202ZM45.1322 50.7485C43.4907 50.1154 41.8537 49.7039 40.2032 49.3422C39.9319 49.2834 39.8279 49.3919 39.7555 49.6361C39.2536 51.3454 38.5888 52.9915 37.7523 54.5651C37.6121 54.8274 37.5985 54.9766 37.9603 55.0399C38.5843 55.1485 39.2038 55.2796 39.8188 55.4424C40.0766 55.5102 40.262 55.4605 40.4655 55.3158C42.2426 54.0632 43.7982 52.5845 45.1413 50.7485H45.1322ZM21.785 56.9754C25.3981 59.1957 35.1295 59.164 37.1825 56.9528C32.0681 56.1252 26.9808 56.1343 21.785 56.9754ZM13.9121 50.744C14.9974 52.2498 16.2771 53.4708 17.6337 54.6284C18.4386 55.3158 19.23 55.6595 20.252 55.1937C20.4962 55.0852 20.7856 55.0671 21.0569 55.0354C21.3825 54.9992 21.4594 54.8771 21.3011 54.5832C20.4464 52.996 19.7817 51.3274 19.2707 49.5999C19.2029 49.3738 19.1124 49.306 18.8637 49.3512C17.2041 49.6768 15.5762 50.12 13.9121 50.744Z" fill="#D7DFE5"/>
<path d="M24.8128 13.9935C24.5279 14.0025 24.2928 14.1563 24.0486 14.2784C23.4517 14.5768 23.0944 14.5 22.7508 13.9618C22.3302 13.3016 21.9278 12.6324 21.5343 11.9541C21.2494 11.4657 21.3535 11.018 21.869 10.7919C22.5518 10.4934 22.7553 10.0186 22.6468 9.32224C22.6061 9.05544 22.6061 8.76603 22.6468 8.49923C22.7553 7.80736 22.5518 7.33255 21.878 7.02053C21.3308 6.77182 21.254 6.34222 21.566 5.8041C21.9368 5.16197 22.3166 4.52889 22.7101 3.90033C23.0763 3.31698 23.4472 3.18132 24.0395 3.53404C24.6365 3.88676 25.1384 3.86415 25.6675 3.43456C25.8438 3.28985 26.0564 3.16323 26.2689 3.08636C27.015 2.81956 27.4899 2.4171 27.4085 1.51269C27.3678 1.06953 27.7295 0.784646 28.1998 0.775602C29.068 0.762036 29.9363 0.757514 30.8045 0.775602C31.4059 0.784646 31.6999 1.15093 31.6637 1.72523C31.623 2.35379 31.8898 2.72008 32.4596 2.93261C32.6947 3.01853 32.9389 3.12706 33.1333 3.28533C33.7936 3.81441 34.4357 3.98172 35.2044 3.45717C35.6205 3.17228 36.0275 3.42099 36.2807 3.81893C36.7103 4.49723 37.1263 5.18458 37.5288 5.88098C37.8137 6.3784 37.669 6.80799 37.1625 7.03862C36.5249 7.33255 36.2943 7.78023 36.4028 8.45853C36.448 8.72533 36.448 9.01474 36.4028 9.28154C36.2897 10.0005 36.4887 10.4934 37.1987 10.8055C37.7142 11.0316 37.7865 11.4973 37.5016 11.9812C37.1263 12.6188 36.7465 13.2564 36.3576 13.885C35.9777 14.4909 35.6024 14.6221 34.9783 14.2603C34.404 13.9257 33.9157 13.9528 33.4092 14.3598C33.2147 14.5181 32.9886 14.6537 32.7535 14.7396C32.03 15.0019 31.5778 15.3863 31.6411 16.2681C31.6773 16.7655 31.2793 17.0459 30.7457 17.0459C29.9408 17.0459 29.1359 17.0549 28.3309 17.0459C27.6888 17.0368 27.3678 16.7565 27.3904 16.1189C27.4175 15.4632 27.1462 15.1014 26.5583 14.8663C26.1694 14.7125 25.8212 14.4593 25.4549 14.2467C25.256 14.1292 25.0615 13.9935 24.8128 13.998V13.9935ZM29.5429 5.85384C27.8561 5.8448 26.4679 7.2195 26.4679 8.90169C26.4679 10.5568 27.829 11.945 29.4705 11.9631C31.1708 11.9812 32.5636 10.6246 32.5771 8.94691C32.5907 7.24663 31.2296 5.86289 29.5474 5.85837L29.5429 5.85384Z" fill="#06BBCF"/>
<path d="M0 41.5101C0.0678305 38.2497 0.981281 34.9984 2.41476 31.8737C4.36828 27.6184 7.09055 23.9013 10.3148 20.5188C12.7476 17.9684 15.4201 15.7074 18.269 13.6408C18.6669 13.3514 18.8659 13.3559 19.1463 13.7901C19.915 14.9794 19.9331 14.9522 18.8026 15.7843C13.8284 19.4426 9.56862 23.7792 6.2811 29.0293C4.10148 32.5113 2.50973 36.2374 2.10727 40.3525C1.75455 43.9565 2.64539 47.2621 5.2139 49.9392C6.75139 51.54 8.65969 52.5981 10.8303 53.1137C11.3367 53.2358 11.5086 53.4166 11.3232 53.9005C11.2915 53.9774 11.2644 54.0588 11.2463 54.1402C10.9614 55.3114 10.9569 55.3249 9.76759 54.9406C4.3095 53.1724 1.0672 49.487 0.140183 43.7938C0.0271322 43.0974 0.0587864 42.401 0 41.5056V41.5101Z" fill="#C3CDDF"/>
<path d="M42.8531 4.72327C45.9235 4.75944 48.9262 5.18904 51.6982 6.60443C55.9805 8.78857 58.3817 12.2931 58.8927 17.091C59.3223 21.1292 58.2958 24.887 56.6815 28.5227C55.3882 31.4349 53.6969 34.1165 51.7117 36.6126C51.454 36.9382 51.3093 36.9563 50.9837 36.6805C49.8306 35.7037 49.8351 35.7308 50.7214 34.537C53.3894 30.9375 55.5329 27.0802 56.5232 22.6576C57.1427 19.8856 57.2241 17.1227 56.2247 14.4185C54.85 10.7059 52.0509 8.56699 48.3428 7.50884C46.0909 6.86671 43.7891 6.64513 41.4512 6.84862C40.6147 6.92097 40.6102 6.89384 40.583 6.04822C40.5589 5.19205 40.9764 4.75191 41.8356 4.72779C42.1748 4.71874 42.5139 4.72779 42.8531 4.72779V4.72327Z" fill="#C3CDDF"/>
<path d="M19.5771 29.2193C19.134 29.2193 18.6908 29.2193 18.2522 29.2193C17.0719 28.7988 16.1811 28.1069 15.9007 26.8045C15.5616 25.2399 16.5067 23.707 18.112 23.2502C19.645 22.8116 21.3045 23.6798 21.8381 25.1947C22.3627 26.6915 21.6211 28.3646 20.1605 28.9842C19.966 29.0656 19.7716 29.1424 19.5771 29.2193Z" fill="#F7951D"/>
<path d="M40.3193 29.2191C39.9033 29.2191 39.4827 29.2191 39.0667 29.2191C37.4659 28.6176 36.661 27.6273 36.6429 26.2481C36.6203 24.6789 37.8051 23.3223 39.3471 23.1505C40.9117 22.9741 42.309 23.9871 42.6753 25.5562C43.019 27.0259 42.1326 28.586 40.672 29.0879C40.5545 29.1286 40.4369 29.1738 40.3238 29.2191H40.3193Z" fill="#F7951D"/>
<path d="M30.1123 29.2284C29.7189 29.2284 29.321 29.2284 28.9275 29.2284C27.7111 28.8214 26.8248 28.0979 26.5354 26.7865C26.2369 25.4434 26.9966 23.9738 28.2899 23.404C29.642 22.8071 31.1614 23.2457 32.0478 24.4893C32.8255 25.5791 32.7034 27.1754 31.8126 28.1883C31.3468 28.7219 30.7409 28.9797 30.1168 29.2329L30.1123 29.2284Z" fill="#F7951D"/>
<path d="M29.5623 40.4248C32.5061 40.4248 35.45 40.4429 38.3938 40.4112C38.9771 40.4067 39.0992 40.5785 39.0721 41.1257C38.9726 42.9209 38.7601 44.7026 38.4345 46.4707C38.3621 46.8551 38.2039 46.9682 37.8421 46.9184C36.3544 46.7149 34.8621 46.5567 33.3608 46.4753C30.8013 46.3351 28.2418 46.3306 25.6824 46.4753C24.181 46.5612 22.6888 46.7149 21.201 46.9139C20.88 46.9591 20.6946 46.8913 20.6267 46.5205C20.2921 44.6891 20.0524 42.8486 19.9801 40.9855C19.962 40.5333 20.0977 40.4157 20.5408 40.4157C23.548 40.4338 26.5551 40.4248 29.5623 40.4248Z" fill="#1AE8FF"/>
<path d="M29.5545 48.4108C32.1592 48.3746 34.7548 48.5555 37.3369 48.8992C37.7348 48.9535 37.8253 49.0394 37.6987 49.4464C37.1741 51.1285 36.4777 52.7339 35.5869 54.2578C35.4331 54.5201 35.2975 54.6376 34.9448 54.5969C31.7205 54.2488 28.4873 54.1628 25.254 54.4975C24.8335 54.5427 24.4084 54.5563 23.9924 54.6196C23.7211 54.6603 23.6171 54.5065 23.504 54.3166C22.577 52.7655 21.8716 51.1195 21.338 49.3921C21.2068 48.967 21.3877 48.958 21.7133 48.9128C24.318 48.5555 26.9317 48.3701 29.559 48.4108H29.5545Z" fill="#1AE8FF"/>
<path d="M14.1273 40.4248C15.2306 40.4248 16.3295 40.4383 17.4329 40.4202C17.7992 40.4157 17.9574 40.4926 17.962 40.9041C17.971 42.8757 18.2333 44.8247 18.6131 46.7556C18.6945 47.1716 18.6493 47.348 18.1926 47.4339C16.5104 47.755 14.8598 48.2117 13.259 48.8312C12.9244 48.9624 12.739 48.9443 12.5491 48.5961C11.2106 46.1451 10.478 43.5224 10.2474 40.7458C10.2112 40.3343 10.487 40.4293 10.6996 40.4248C11.8436 40.4202 12.9877 40.4248 14.1318 40.4248H14.1273Z" fill="#1AE8FF"/>
<path d="M44.9926 40.4248C46.1141 40.4248 47.2356 40.4248 48.3616 40.4248C48.5786 40.4248 48.8364 40.3479 48.8002 40.7549C48.565 43.5269 47.837 46.1542 46.4894 48.6006C46.3221 48.9036 46.1684 48.9624 45.8383 48.8358C44.1968 48.2072 42.51 47.7324 40.7826 47.4113C40.448 47.348 40.344 47.2395 40.4163 46.8642C40.8007 44.8926 41.0766 42.9029 41.0856 40.886C41.0856 40.5288 41.1987 40.4067 41.5604 40.4157C42.7045 40.4338 43.8486 40.4248 44.9926 40.4248Z" fill="#1AE8FF"/>
<path d="M45.1368 50.7531C43.7983 52.589 42.2427 54.0677 40.461 55.3203C40.2575 55.465 40.0721 55.5148 39.8143 55.4469C39.2039 55.2842 38.5798 55.153 37.9558 55.0445C37.594 54.9812 37.6121 54.8274 37.7478 54.5697C38.5889 52.996 39.2536 51.3545 39.751 49.6407C39.8234 49.3965 39.9274 49.2879 40.1987 49.3467C41.8493 49.704 43.4862 50.12 45.1277 50.7531H45.1368Z" fill="#1AE8FF"/>
<path d="M21.7871 56.98C26.9829 56.1389 32.0702 56.1299 37.1846 56.9574C35.1316 59.1732 25.4002 59.2048 21.7871 56.98Z" fill="#1AE8FF"/>
<path d="M13.9102 50.7485C15.5743 50.1245 17.2022 49.6859 18.8618 49.3558C19.106 49.306 19.2009 49.3784 19.2688 49.6045C19.7798 51.3319 20.449 53.0005 21.2992 54.5878C21.4574 54.8862 21.3806 55.0083 21.055 55.04C20.7836 55.0716 20.4897 55.0852 20.25 55.1982C19.2235 55.664 18.4367 55.3203 17.6318 54.633C16.2752 53.4753 14.9954 52.2544 13.9102 50.7485Z" fill="#1AE8FF"/>
<path d="M29.5404 5.84929C31.2272 5.85834 32.5838 7.24208 32.5702 8.93784C32.5566 10.6155 31.1639 11.9721 29.4636 11.954C27.8221 11.9359 26.4609 10.5522 26.4609 8.89262C26.4609 7.21042 27.8492 5.83573 29.5359 5.84477L29.5404 5.84929Z" fill="#D7DFE5"/>
</svg>
