<svg width="79" height="80" viewBox="0 0 79 80" fill="none" xmlns="http://www.w3.org/2000/svg">
<path d="M68.2945 10.5398C72.1034 10.9018 74.5977 13.8766 74.2214 17.6822C73.8545 21.3995 73.4318 25.1123 73.0323 28.825C72.6561 28.8343 72.2799 28.8575 71.9036 28.8575C64.8434 28.8575 57.7831 28.9178 50.7228 28.8296C48.1077 28.7971 47.4203 30.078 47.4388 32.0922C47.4946 37.2482 47.4574 42.4043 47.4574 47.5603C47.4574 48.2286 47.4574 48.8922 47.4574 49.5605C47.4621 51.6814 48.2935 52.5261 50.3837 52.5261C54.7825 52.5261 59.1812 52.5261 63.5799 52.5261C65.8652 52.5261 68.1505 52.5493 70.4358 52.5586C69.9342 56.2666 67.4677 58.4479 63.7239 58.4618C59.0883 58.4757 54.4573 58.485 49.8217 58.4479C49.0228 58.4432 48.902 58.717 49.0181 59.3993C49.4129 61.7197 50.5649 63.6132 52.2324 65.2282C52.4414 65.4278 52.6644 65.6134 52.8641 65.8269C53.3286 66.3235 53.4401 66.9036 53.1196 67.5069C52.7851 68.1334 52.2231 68.4212 51.5217 68.2866C46.4866 67.3445 41.8464 65.5438 38.07 61.9332C37.2107 61.1117 36.3979 60.2393 35.7615 59.2275C35.3992 58.6567 34.9858 58.4432 34.2937 58.4432C27.0244 58.4711 19.7551 58.4711 12.4858 58.4572C9.18794 58.4525 6.71685 56.5637 5.99689 53.5239C5.85289 52.9066 5.81573 52.2662 5.72748 51.635C6.03404 51.389 6.39635 51.5004 6.73078 51.5004C14.1116 51.4911 21.4923 51.5004 28.8778 51.4958C30.7078 51.4958 31.4464 50.7533 31.4464 48.9108C31.4557 44.5948 31.4557 40.2741 31.465 35.958C32.603 34.8071 33.7456 33.6608 34.8697 32.4959C35.6129 31.7255 35.9473 30.8206 35.7197 29.73C35.311 27.7993 33.1139 26.667 30.9865 27.9525C30.3595 27.312 29.5838 27.1218 28.7012 27.1218C20.1499 27.131 11.5987 27.1218 3.04736 27.1218C2.71293 24.017 2.3274 20.9122 2.06264 17.7982C1.70963 13.6631 4.18537 10.8136 8.2729 10.512C9.56728 10.4191 10.2238 11.0132 10.2423 12.2941C10.2423 12.3822 10.2516 12.4658 10.2609 12.554C10.2516 14.2061 10.2423 15.8583 10.2377 17.5058C10.2377 19.4086 11.1388 20.2996 13.0711 20.3043C16.513 20.3043 19.9595 20.3043 23.4014 20.3043C26.6157 20.3043 29.8253 20.3089 33.0396 20.3043C34.8465 20.2996 35.7801 19.3668 35.7801 17.5847C35.7801 15.9047 35.7662 14.2247 35.7569 12.5447C35.8358 11.8949 35.4921 11.0317 35.9055 10.6326C36.3561 10.1964 37.22 10.5073 37.8982 10.4934C39.5053 10.4656 41.1125 10.4748 42.7196 10.4702C42.7196 13.7188 42.7243 16.9628 42.7289 20.2115C42.7289 21.9007 43.6021 22.7732 45.2929 22.7779C52.0698 22.7779 58.8468 22.7779 65.6237 22.7779C67.4213 22.7779 68.2667 21.9193 68.2713 20.1047C68.2806 16.9164 68.2852 13.7281 68.2945 10.5398Z" fill="#1AE8FF"/>
<path d="M70.4311 52.5627C68.1458 52.5534 65.8605 52.5302 63.5752 52.5302C59.1765 52.5256 54.7778 52.5302 50.379 52.5302C48.2935 52.5302 47.462 51.6856 47.4527 49.5647C47.4527 48.8964 47.4527 48.2327 47.4527 47.5644C47.4527 42.4084 47.4899 37.2523 47.4342 32.0963C47.4109 30.0821 48.103 28.8012 50.7181 28.8337C57.7784 28.9219 64.8387 28.8616 71.8989 28.8616C72.2752 28.8616 72.6514 28.8384 73.0277 28.8291C74.1564 28.8384 75.2804 28.843 76.4092 28.8662C77.8723 28.8941 78.8292 29.7805 78.8384 31.2377C78.8617 37.5447 78.8617 43.8517 78.8384 50.1587C78.8338 51.6159 77.8769 52.5116 76.4138 52.5348C74.4211 52.5627 72.4285 52.5627 70.4358 52.572L70.4311 52.5627ZM57.1374 40.7237C57.1374 42.0278 57.1374 43.3273 57.1374 44.6314C57.1374 44.6871 57.1374 44.7474 57.1374 44.8031C57.1792 46.6409 58.856 47.7037 60.4678 46.8497C62.9946 45.5131 65.4982 44.1348 67.974 42.7054C69.6462 41.7447 69.6229 39.6517 67.9461 38.691C65.489 37.2848 63.0132 35.9204 60.5142 34.5931C58.8374 33.702 57.1653 34.7416 57.1374 36.6397C57.1188 37.9995 57.1374 39.3593 57.1374 40.7237Z" fill="#FF5D0A"/>
<path d="M3.03778 27.1265C11.5891 27.1265 20.1404 27.1357 28.6917 27.1265C29.5695 27.1265 30.3452 27.3121 30.977 27.9572C29.2537 29.7579 27.5211 31.5446 25.6817 33.2246C25.4356 32.858 25.05 32.8719 24.6738 32.8719C20.9161 32.8719 17.1537 32.8719 13.3959 32.8719C13.1405 32.8719 12.8804 32.8394 12.6435 33.0019C12.2068 33.2989 12.0257 33.7119 12.1697 34.2038C12.3369 34.7747 12.7782 34.9696 13.3727 34.9696C16.8982 34.9557 20.4283 34.9603 23.9538 34.965C22.7926 36.2458 21.5756 37.471 20.289 38.6266C19.9824 38.2043 19.5319 38.2786 19.1045 38.2786C14.9938 38.2786 10.8877 38.2786 6.77694 38.2786C6.57256 38.2786 6.36354 38.2507 6.1731 38.2971C5.59248 38.4271 5.14657 38.6916 5.18837 39.4017C5.23018 40.0885 5.6157 40.3716 6.26599 40.3716C10.5765 40.3623 14.887 40.353 19.1974 40.3438C18.9234 41.5226 18.654 42.7013 18.3799 43.8801C16.6195 43.8662 14.8591 43.8476 13.0987 43.8476C12.5645 43.8476 12.2301 44.1261 12.1465 44.6644C12.0582 45.2214 12.2626 45.639 12.8153 45.82C13.0569 45.8989 13.3216 45.9268 13.5771 45.9268C17.3023 45.9314 21.0275 45.9314 24.7528 45.9268C24.9804 45.9268 25.2219 45.9361 25.4356 45.8664C25.9744 45.6947 26.3971 45.3235 26.3367 44.7433C26.2763 44.1354 25.8629 43.8105 25.1894 43.8244C24.6506 43.8384 24.0932 43.959 23.5683 43.7131C23.9678 43.3418 24.3765 42.9798 24.7667 42.5946C27.0009 40.3902 29.2258 38.1857 31.4554 35.9767C31.4507 40.2927 31.4461 44.6134 31.4368 48.9294C31.4368 50.7719 30.6936 51.5144 28.8682 51.5144C21.4874 51.5144 14.1066 51.5144 6.7212 51.5191C6.38676 51.5191 6.02446 51.4077 5.71789 51.6537C4.7053 51.6397 3.69271 51.6351 2.68476 51.6072C0.84073 51.5562 0 50.693 0 48.8459C0 42.6456 0 36.45 0 30.2498C0 27.934 0.715317 27.2054 3.04242 27.1357L3.03778 27.1265ZM7.45509 34.9557C7.88707 34.9557 8.31905 34.9742 8.75103 34.9557C9.37344 34.9232 9.87045 34.603 9.824 33.9625C9.77755 33.3685 9.39202 32.8858 8.69064 32.8766C7.85456 32.8673 7.01847 32.8487 6.18239 32.8812C5.53674 32.909 5.18373 33.2942 5.19766 33.9486C5.20695 34.5658 5.56461 34.9046 6.16381 34.951C6.59578 34.9882 7.02776 34.9557 7.45974 34.9557H7.45509ZM7.54799 43.8291C7.08814 43.8291 6.62365 43.8244 6.16381 43.8291C5.62964 43.8384 5.29056 44.0983 5.20231 44.632C5.1187 45.1378 5.24876 45.6205 5.77363 45.7504C6.8977 46.0289 8.05429 46.0567 9.17371 45.7272C9.62891 45.5926 9.93548 45.1471 9.81936 44.632C9.70323 44.1168 9.36415 43.778 8.76031 43.8152C8.35621 43.843 7.9521 43.8198 7.54799 43.8198V43.8291Z" fill="#C3CDDF"/>
<path d="M68.2937 10.5395C68.2844 13.7278 68.2797 16.9161 68.2704 20.1044C68.2658 21.919 67.4204 22.7776 65.6228 22.7776C58.8459 22.7776 52.069 22.7776 45.292 22.7776C43.6013 22.7776 42.7327 21.9004 42.728 20.2111C42.7234 16.9625 42.7188 13.7185 42.7188 10.4699C42.7188 7.89419 42.7187 5.31384 42.7234 2.7335C42.7234 0.877138 43.5827 0 45.4082 0C52.1201 0 58.8366 0 65.5485 0C67.374 0 68.2612 0.891057 68.2658 2.71493C68.2751 5.32312 68.2844 7.92667 68.2937 10.5349V10.5395ZM55.5062 19.1391C58.3721 19.1391 61.238 19.1391 64.0993 19.1391C64.7542 19.1391 65.2466 18.9581 65.3163 18.2109C65.3859 17.473 64.9354 17.0878 64.299 17.0785C63.6162 17.0646 63.5791 16.7444 63.5837 16.2107C63.6023 13.8624 63.593 11.5187 63.5884 9.17043C63.5884 8.88734 63.6395 8.58568 63.4583 8.32578C63.1889 7.93595 62.8312 7.70855 62.3482 7.84314C61.7257 8.01485 61.4981 8.4743 61.5028 9.09618C61.5074 11.2124 61.5028 13.324 61.5028 15.4403C61.5028 17.0646 61.5028 17.0228 59.9049 17.0646C59.1896 17.0832 59.0317 16.8326 59.0456 16.1689C59.0874 14.4889 59.0596 12.8089 59.0596 11.1289C59.0596 10.4142 58.7251 9.9269 57.9912 9.92226C57.2295 9.91762 56.9694 10.4328 56.974 11.1428C56.9833 12.679 56.9833 14.2151 56.974 15.7512C56.9647 17.2224 57.1598 17.0368 55.6827 17.046C54.5261 17.0553 54.5261 17.046 54.5215 15.8719C54.5215 14.54 54.5401 13.208 54.5122 11.8761C54.4983 11.1846 54.1174 10.6648 53.416 10.6509C52.8075 10.6416 52.5009 11.0686 52.408 11.7276C52.2362 12.9156 52.3337 14.0991 52.3151 15.2825C52.2873 17.1806 52.3105 17.1621 50.434 17.06C49.9741 17.0368 49.8348 16.8697 49.8441 16.4334C49.8626 15.2175 49.858 14.0016 49.8441 12.7857C49.8348 11.9596 49.3981 11.4259 48.7664 11.5002C48.0372 11.5837 47.7538 12.0756 47.7631 12.7811C47.7724 13.9413 47.7399 15.1015 47.7771 16.2571C47.7956 16.8418 47.647 17.0785 47.0106 17.0646C46.0677 17.0461 45.645 17.4405 45.6683 18.1506C45.6915 18.8792 46.0538 19.1345 47.085 19.1345C49.8905 19.1345 52.7007 19.1345 55.5062 19.1345V19.1391ZM55.5852 8.00556C57.4896 8.33042 59.171 7.75032 60.7828 6.78502C61.4749 6.37197 62.2413 6.07495 62.9474 5.68048C63.5187 5.36025 63.7974 4.86832 63.4397 4.22787C63.096 3.61527 62.5804 3.51317 61.9626 3.83339C61.4749 4.08864 60.9547 4.28821 60.4948 4.58059C58.8041 5.65263 56.9833 6.19562 54.9813 5.8986C52.2362 5.49484 50.0345 7.01706 47.6609 7.9174C47.1128 8.12624 46.9224 8.6785 47.1407 9.23077C47.359 9.77839 47.8282 10.0012 48.4134 9.86192C48.6364 9.81087 48.8408 9.68558 49.0544 9.5974C51.1586 8.76204 53.1512 7.46722 55.5898 7.99628L55.5852 8.00556Z" fill="#C3CDDF"/>
<path d="M35.7516 12.5492C35.7609 14.2292 35.7748 15.9092 35.7748 17.5892C35.7748 19.3667 34.8366 20.3042 33.0343 20.3088C29.82 20.3181 26.6104 20.3088 23.3961 20.3088C19.9542 20.3088 16.5077 20.3088 13.0658 20.3088C11.1335 20.3088 10.2324 19.4131 10.2324 17.5103C10.2324 15.8582 10.2464 14.206 10.2556 12.5585C12.8429 10.7625 15.444 8.98964 18.008 7.16113C18.5329 6.78985 18.858 6.83626 19.3457 7.18433C21.6729 8.85505 24.0418 10.4608 26.3549 12.1455C26.9448 12.5724 27.3071 12.5307 27.8367 12.0898C28.8539 11.2358 29.9687 10.4933 30.9813 9.63472C31.4969 9.19848 31.8081 9.28202 32.2726 9.68578C33.4059 10.6697 34.5857 11.6025 35.747 12.5539L35.7516 12.5492Z" fill="#EFF5FF"/>
<path d="M61.7266 77.9392V63.9654C61.8102 63.9654 61.8845 63.9422 61.9124 63.9654C64.9223 66.5968 68.5314 67.3672 72.3959 67.3625C73.6408 67.3625 74.8856 67.344 76.1305 67.3625C77.863 67.3811 78.8291 68.3325 78.8431 70.0543C78.8477 70.7458 78.9267 71.4419 78.7595 72.1334C78.4715 73.3261 77.6493 74.1522 76.437 74.2728C75.8703 74.3285 75.7171 74.607 75.6056 75.0572C75.2897 76.3195 74.9692 77.5818 74.6348 78.8395C74.4072 79.6981 73.887 80.1157 73.2692 79.9719C72.6282 79.8234 72.3913 79.2479 72.6189 78.3522C72.9022 77.2291 73.1902 76.1106 73.4968 74.9922C73.6315 74.5002 73.4968 74.3192 72.9673 74.3239C69.098 74.3564 65.3496 74.7694 61.7266 77.9438V77.9392Z" fill="#FF5D0A"/>
<path d="M31.4563 35.9671C29.2267 38.1715 26.9972 40.3806 24.7676 42.585C24.3774 42.9702 23.9687 43.3322 23.5692 43.7035C22.4312 44.0144 21.2886 44.3114 20.1552 44.6316C19.3377 44.8637 18.7385 44.6641 18.3809 43.8659C18.6549 42.6871 18.9243 41.5083 19.1984 40.3295C19.347 39.6241 19.8487 39.1415 20.2853 38.617C21.5719 37.4661 22.7935 36.2409 23.9501 34.9553C24.5772 34.4263 25.1578 33.8555 25.678 33.2197C27.5221 31.5443 29.2546 29.7529 30.9732 27.9522C33.1006 26.6713 35.3023 27.7991 35.7064 29.7297C35.934 30.8203 35.5996 31.7253 34.8564 32.4957C33.7323 33.6605 32.5897 34.8068 31.4517 35.9578L31.4563 35.9671Z" fill="#FF5D0A"/>
<path d="M57.141 40.7286C57.141 39.3688 57.127 38.009 57.141 36.6446C57.1642 34.7465 58.841 33.7069 60.5178 34.598C63.0168 35.9253 65.4972 37.2943 67.9497 38.6959C69.6311 39.6566 69.6497 41.7496 67.9776 42.7103C65.5018 44.135 62.9936 45.5134 60.4714 46.8546C58.8549 47.7085 57.1828 46.6458 57.141 44.808C57.141 44.7523 57.141 44.6919 57.141 44.6363C57.141 43.3322 57.141 42.0327 57.141 40.7286Z" fill="#FFFFFE"/>
<path d="M20.2888 38.617C19.8521 39.1414 19.3458 39.6194 19.2018 40.3294C14.8914 40.3387 10.5809 40.3434 6.2704 40.3573C5.61547 40.3573 5.23458 40.0742 5.19278 39.3873C5.14633 38.6819 5.59224 38.4128 6.1775 38.2828C6.37259 38.241 6.58161 38.2642 6.78134 38.2642C10.8921 38.2642 14.9982 38.2642 19.109 38.2642C19.5363 38.2642 19.9915 38.1946 20.2934 38.6123L20.2888 38.617Z" fill="white"/>
<path d="M25.6779 33.2243C25.1623 33.8601 24.577 34.4309 23.95 34.96C20.4245 34.96 16.8943 34.9507 13.3688 34.9646C12.7743 34.9646 12.3377 34.7743 12.1658 34.1988C12.0218 33.7069 12.203 33.2939 12.6396 32.9969C12.8765 32.8344 13.1366 32.8669 13.3921 32.8669C17.1498 32.8669 20.9122 32.8669 24.6699 32.8669C25.0462 32.8669 25.427 32.853 25.6779 33.2196V33.2243Z" fill="white"/>
<path d="M18.3787 43.8612C18.7364 44.664 19.3356 44.8636 20.1531 44.6269C21.2864 44.302 22.4291 44.005 23.5671 43.6987C24.092 43.9401 24.6494 43.8194 25.1882 43.8101C25.8663 43.7962 26.2751 44.1211 26.3355 44.729C26.3958 45.3091 25.9685 45.6804 25.4343 45.8521C25.2207 45.9217 24.9791 45.9125 24.7515 45.9125C21.0263 45.9125 17.3011 45.9125 13.5759 45.9125C13.3204 45.9125 13.0556 45.8846 12.8141 45.8057C12.2614 45.6247 12.0616 45.2117 12.1452 44.6501C12.2288 44.1118 12.5633 43.8333 13.0974 43.8333C14.8579 43.8333 16.6183 43.8565 18.3787 43.8658V43.8612Z" fill="white"/>
<path d="M7.45562 34.9552C7.02364 34.9552 6.58701 34.9831 6.15968 34.9506C5.56513 34.8995 5.20283 34.5654 5.19354 33.9481C5.18425 33.2938 5.53262 32.9086 6.17826 32.8807C7.01435 32.8482 7.85043 32.8622 8.68652 32.8761C9.39255 32.8854 9.77807 33.368 9.81988 33.9621C9.87097 34.6025 9.37397 34.9227 8.7469 34.9552C8.31492 34.9784 7.88295 34.9552 7.45097 34.9552H7.45562Z" fill="white"/>
<path d="M7.54712 43.824C7.95123 43.824 8.35534 43.8426 8.75945 43.8193C9.36329 43.7776 9.70237 44.121 9.81849 44.6362C9.93461 45.1467 9.62805 45.5968 9.17285 45.7314C8.05807 46.0563 6.90148 46.0284 5.77277 45.7546C5.24325 45.6247 5.11783 45.142 5.20144 44.6362C5.28969 44.0978 5.62877 43.8379 6.16294 43.8333C6.62279 43.824 7.08728 43.8333 7.54712 43.8333V43.824Z" fill="white"/>
<path d="M55.5068 19.1388C52.7013 19.1388 49.8911 19.1388 47.0856 19.1388C46.0544 19.1388 45.6921 18.879 45.6689 18.155C45.6457 17.4449 46.0683 17.0504 47.0113 17.069C47.643 17.0783 47.7963 16.8462 47.7777 16.2615C47.7405 15.1059 47.7777 13.9457 47.7637 12.7854C47.7591 12.08 48.0378 11.5881 48.767 11.5045C49.3987 11.4303 49.8354 11.964 49.8447 12.7901C49.8586 14.006 49.8586 15.2219 49.8447 16.4378C49.84 16.8741 49.9747 17.0365 50.4346 17.0644C52.3065 17.1665 52.2879 17.185 52.3158 15.2869C52.3343 14.1035 52.2321 12.92 52.4087 11.7319C52.5062 11.0729 52.8081 10.646 53.4166 10.6553C54.118 10.6692 54.4989 11.189 54.5128 11.8805C54.5407 13.2124 54.5221 14.5443 54.5221 15.8763C54.5221 17.0504 54.5221 17.0597 55.6833 17.0504C57.1604 17.0365 56.9653 17.2221 56.9746 15.7556C56.9839 14.2195 56.9839 12.6833 56.9746 11.1472C56.97 10.4371 57.2347 9.922 57.9918 9.92664C58.7257 9.93129 59.0602 10.4232 59.0602 11.1333C59.0602 12.8133 59.088 14.4933 59.0462 16.1733C59.0323 16.8323 59.1902 17.0876 59.9056 17.069C61.4988 17.0272 61.5034 17.069 61.5034 15.4447C61.5034 13.3284 61.508 11.2168 61.5034 9.10056C61.5034 8.47868 61.731 8.02387 62.3488 7.84751C62.8318 7.71293 63.1895 7.94034 63.4589 8.33017C63.6401 8.59006 63.589 8.88708 63.589 9.17482C63.589 11.5231 63.6029 13.8668 63.5843 16.2151C63.5843 16.7441 63.6168 17.069 64.2996 17.0829C64.936 17.0922 65.3866 17.4774 65.3169 18.2153C65.2472 18.9578 64.7595 19.1435 64.0999 19.1435C61.234 19.1342 58.3681 19.1435 55.5068 19.1435V19.1388Z" fill="#1AE8FF"/>
<path d="M55.5864 8.0057C53.1478 7.47664 51.1551 8.77146 49.051 9.60682C48.8373 9.69035 48.6329 9.81566 48.41 9.87135C47.8247 10.0106 47.3509 9.78781 47.1373 9.24018C46.919 8.68327 47.1094 8.13565 47.6575 7.92681C50.0311 7.02184 52.2374 5.50426 54.9779 5.90802C56.9799 6.20039 58.8007 5.65741 60.4914 4.59C60.9559 4.29762 61.4715 4.09806 61.9592 3.84281C62.577 3.52259 63.0926 3.62005 63.4363 4.23729C63.7939 4.87773 63.5153 5.36967 62.9439 5.68989C62.2379 6.08437 61.4715 6.38139 60.7794 6.79443C59.1676 7.75974 57.4861 8.33985 55.5817 8.01499L55.5864 8.0057Z" fill="#1AE8FF"/>
</svg>
