<svg width="71" height="81" viewBox="0 0 71 81" fill="none" xmlns="http://www.w3.org/2000/svg">
<path d="M13.5177 40.2945C13.5177 29.1829 13.5177 18.0713 13.5177 6.95974C13.5177 3.71254 15.2637 1.35654 18.2053 0.579109C18.8696 0.403713 19.548 0.370528 20.2265 0.370528C31.0203 0.361047 41.8142 0.351562 52.6127 0.351562C56.0857 0.351562 58.5387 2.18612 59.2409 5.31008C59.3642 5.85049 59.3642 6.42408 59.3642 6.98345C59.369 29.2351 59.3358 51.4915 59.3974 73.7431C59.4069 77.507 56.4321 80.3845 52.7646 80.3513C41.8806 80.247 30.9966 80.3134 20.1126 80.3086C16.094 80.3086 13.5177 77.7393 13.5177 73.7194C13.513 62.5794 13.5177 51.4346 13.5177 40.2945ZM57.566 71.7711C57.5708 71.6241 57.585 71.4772 57.585 71.3302C57.585 50.7377 57.585 30.1405 57.585 9.54802C57.585 9.311 57.5613 9.07872 57.5471 8.8417C57.5566 8.07375 57.585 7.3058 57.5708 6.53785C57.5281 4.11074 55.6398 2.23352 53.2058 2.23352C42.0324 2.22404 30.859 2.22404 19.6856 2.23352C17.5933 2.23352 15.9612 3.55137 15.463 5.58502C15.1973 6.66584 15.3491 7.75614 15.3491 8.84644C15.3349 9.20198 15.3112 9.55276 15.3112 9.9083C15.3112 30.2069 15.3112 50.5054 15.3112 70.804C15.3112 71.1311 15.3207 71.4535 15.3302 71.7806C15.3302 72.5201 15.3207 73.2596 15.3302 73.9943C15.3444 76.6206 17.2232 78.512 19.8707 78.5167C30.9586 78.5262 42.0467 78.5262 53.1347 78.5167C55.2839 78.5167 56.973 77.1515 57.4664 75.0467C57.7179 73.9706 57.5376 72.8709 57.5803 71.7806L57.566 71.7711Z" fill="#06BBCF"/>
<path d="M65.8746 20.1426C67.2695 20.1521 68.4034 21.2898 68.3987 22.6692C68.394 24.0487 67.2315 25.2243 65.8699 25.2196C64.5034 25.2149 63.2888 24.0392 63.2794 22.7119C63.2699 21.2898 64.437 20.1378 65.8746 20.1473V20.1426ZM66.6148 22.6218C66.5246 22.271 66.3443 21.9629 65.8746 21.944C65.4002 21.9297 65.1392 22.2094 65.125 22.6361C65.1107 23.058 65.348 23.3661 65.8272 23.3661C66.2826 23.3661 66.5246 23.1148 66.61 22.6218H66.6148Z" fill="#D6E8F5"/>
<path d="M70.0063 30.2779C69.9969 31.7143 68.8961 32.7903 67.4585 32.7666C66.0684 32.7429 65.0009 31.6621 64.9961 30.2779C64.9914 28.851 66.0921 27.7275 67.5012 27.7275C68.9151 27.7275 70.0111 28.8463 70.0063 30.2779ZM67.4348 29.5242C67.0552 29.5668 66.7658 29.7612 66.7753 30.2352C66.7801 30.6808 67.0173 30.9653 67.468 30.9795C67.9614 30.9937 68.2271 30.7045 68.2271 30.2163C68.2271 29.747 67.9377 29.5479 67.4348 29.5242Z" fill="#06BBCF"/>
<path d="M2.8994 14.5211C2.8994 14.0565 3.03699 13.6962 3.51144 13.6583C4.32276 13.5872 4.70232 13.0847 4.8494 12.3689C4.9443 11.9138 5.18152 11.6958 5.62277 11.6815C6.13992 11.6626 6.51473 11.9565 6.59064 12.4163C6.70926 13.1748 7.06984 13.5635 7.83846 13.6536C8.28919 13.7057 8.56439 14.0423 8.56914 14.5211C8.57388 14.9998 8.31767 15.3127 7.85271 15.3933C7.12205 15.5166 6.6808 15.8626 6.60014 16.6448C6.55744 17.0714 6.24906 17.3227 5.81256 17.3464C5.35234 17.3748 5.00124 17.1899 4.8589 16.7301C4.65963 16.0759 4.51728 15.4597 3.56837 15.4786C3.24574 15.4881 2.82349 15.0188 2.89466 14.5163L2.8994 14.5211Z" fill="#D6E8F5"/>
<path d="M3.76339 55.3501C4.2331 55.4117 4.60316 55.6298 4.66958 56.1465C4.75498 56.8244 5.09183 57.1989 5.78454 57.3032C6.2495 57.3743 6.61959 57.6445 6.62433 58.1801C6.62433 58.7443 6.27323 59.0713 5.76082 59.1282C5.08235 59.2041 4.76448 59.5738 4.67908 60.2043C4.60791 60.7115 4.30901 61.0481 3.82032 61.0671C3.27944 61.086 2.96154 60.7352 2.88563 60.1948C2.79548 59.5596 2.46811 59.2041 1.79439 59.1282C1.31519 59.0761 0.973595 58.7727 0.945127 58.256C0.91666 57.725 1.23454 57.4074 1.71374 57.3316C2.42542 57.2131 2.81922 56.867 2.89988 56.1323C2.95207 55.6582 3.30317 55.4402 3.76339 55.3501Z" fill="#D6E8F5"/>
<path d="M6.55346 69.5809C6.06477 69.4766 5.77061 69.2111 5.6947 68.6992C5.60455 68.0782 5.28665 67.6942 4.60818 67.6231C4.13372 67.571 3.78736 67.2865 3.76838 66.7509C3.74941 66.2104 4.0673 65.9118 4.55124 65.8407C5.2392 65.7411 5.61876 65.3856 5.70416 64.7077C5.77059 64.1863 6.09322 63.9018 6.59139 63.8876C7.10855 63.8734 7.4122 64.2242 7.47862 64.7077C7.56402 65.3619 7.89142 65.7127 8.54142 65.8028C9.06807 65.8786 9.42865 66.1915 9.42865 66.7414C9.42865 67.2628 9.05856 67.5473 8.58411 67.6136C7.8914 67.7132 7.54979 68.064 7.47862 68.7655C7.42643 69.2728 7.04687 69.505 6.56293 69.5762L6.55346 69.5809Z" fill="#D6E8F5"/>
<path d="M57.5431 8.842C57.5573 9.07902 57.5811 9.31129 57.5811 9.54832C57.5811 30.1408 57.5811 50.738 57.5811 71.3305C57.5811 71.4775 57.5716 71.6244 57.5621 71.7714C56.1767 71.7809 54.7913 71.7856 53.4011 71.7951C53.4201 69.6998 53.4486 67.6045 53.4581 65.5093C53.4676 63.5752 52.7986 62.9115 50.858 62.9162C43.6795 62.9257 36.4963 62.9352 29.3178 62.9447C26.7463 62.9447 24.1747 62.9352 21.6032 62.9447C20.3032 62.9494 19.4634 63.6842 19.4492 64.9025C19.4207 67.2063 19.4587 69.5055 19.4729 71.8093C18.0875 71.7951 16.7021 71.7809 15.3119 71.7666C15.3072 71.4395 15.293 71.1172 15.293 70.7901C15.293 50.4915 15.293 30.193 15.293 9.89437C15.293 9.53884 15.3167 9.18805 15.3309 8.83252C29.3985 8.83252 43.466 8.83252 57.5336 8.83252L57.5431 8.842ZM36.4157 31.6672V31.7004C41.3263 31.7004 46.2369 31.7004 51.1427 31.7004C52.7843 31.7004 53.4391 31.0557 53.4391 29.3823C53.4438 24.5423 53.4818 19.6976 53.3015 14.8576C53.2683 13.9569 52.8365 13.445 51.9872 13.2079C51.6029 13.0989 51.2281 13.1131 50.8438 13.1131C42.7971 13.1131 34.7551 13.1131 26.7083 13.1131C25.024 13.1131 23.3349 13.0989 21.6506 13.1131C20.1941 13.1274 19.5868 13.7389 19.582 15.1515C19.582 19.9963 19.582 24.8457 19.582 29.6905C19.582 31.0842 20.1798 31.6625 21.5937 31.6625C26.5328 31.6625 31.4719 31.6625 36.4109 31.6625L36.4157 31.6672ZM45.5347 35.9241C43.2858 35.9241 41.0416 35.9384 38.7927 35.9194C38.0193 35.9147 37.6398 36.2086 37.6445 37.0097C37.6587 39.2235 37.654 41.442 37.6445 43.6558C37.6445 44.4427 38.0478 44.7793 38.7974 44.7793C43.262 44.7793 47.7267 44.784 52.1913 44.7746C53.0738 44.7746 53.4201 44.419 53.4296 43.5231C53.4486 41.3946 53.4486 39.2662 53.4296 37.1424C53.4201 36.2323 53.0927 35.9289 52.1865 35.9289C49.9708 35.9194 47.7504 35.9289 45.5347 35.9289V35.9241ZM27.4769 35.9384C25.2328 35.9384 22.9839 35.9384 20.7397 35.9384C19.7766 35.9384 19.4682 36.2323 19.4587 37.2041C19.4397 39.2709 19.4397 41.3377 19.4587 43.4046C19.4682 44.438 19.7671 44.7556 20.7777 44.7603C25.1806 44.7745 29.5835 44.7745 33.9864 44.7603C34.9021 44.7603 35.2105 44.4285 35.2105 43.5278C35.22 41.4041 35.22 39.2756 35.2105 37.1519C35.2105 36.109 35.0255 35.9384 33.9438 35.9336C31.785 35.9289 29.631 35.9336 27.4722 35.9336L27.4769 35.9384ZM27.401 46.7892C25.2138 46.7892 23.0266 46.7845 20.8393 46.7892C19.7623 46.7892 19.5536 47.0073 19.5536 48.0976C19.5536 50.1644 19.5536 52.2313 19.5536 54.3028C19.5536 55.3979 19.7671 55.6254 20.8251 55.6254C25.1996 55.6302 29.574 55.6302 33.9485 55.6254C34.9401 55.6254 35.2058 55.3552 35.2058 54.3597C35.2105 52.3213 35.2058 50.2829 35.2058 48.2446C35.2058 46.9978 35.0018 46.7892 33.7824 46.7892C31.6521 46.7892 29.5266 46.7892 27.3963 46.7892H27.401ZM24.0893 61.1338C25.2423 61.1338 26.3952 61.1291 27.5434 61.1338C28.1507 61.1338 28.6299 60.9679 28.6204 60.2711C28.6109 59.5979 28.1554 59.3751 27.5481 59.3751C25.2423 59.3751 22.9412 59.3704 20.6353 59.3751C20.0517 59.3751 19.5583 59.5505 19.5631 60.2616C19.5678 60.9632 20.0185 61.1433 20.6306 61.1338C21.7835 61.1243 22.9364 61.1338 24.0846 61.1338H24.0893Z" fill="#FCF5F9"/>
<path d="M53.4056 71.7947C54.791 71.7852 56.1764 71.7805 57.5665 71.771C57.5286 72.8613 57.7041 73.9563 57.4527 75.0372C56.9593 77.1467 55.2702 78.5072 53.1209 78.5072C42.0329 78.5119 30.9449 78.5166 19.8569 78.5072C17.2095 78.5072 15.3306 76.611 15.3164 73.9848C15.3164 73.2453 15.3164 72.5058 15.3164 71.771C16.7018 71.7852 18.0872 71.7994 19.4774 71.8137C19.7526 71.9796 20.0562 71.9085 20.3456 71.9085C31.1062 71.9085 41.8669 71.8942 52.6275 71.8848C52.8884 71.8848 53.1636 71.9464 53.4103 71.7994L53.4056 71.7947Z" fill="#06BBCF"/>
<path d="M57.5428 8.84202C43.4752 8.84202 29.4076 8.84202 15.3401 8.84202C15.3401 7.75645 15.1882 6.66141 15.4539 5.58059C15.9568 3.54694 17.5842 2.23385 19.6766 2.22911C30.85 2.22437 42.0234 2.21963 53.1968 2.22911C55.6307 2.22911 57.519 4.11106 57.5617 6.53342C57.576 7.30137 57.5475 8.06932 57.538 8.83727L57.5428 8.84202ZM36.4058 6.16367C37.3785 6.16367 38.3511 6.16841 39.3237 6.16367C39.9168 6.15893 40.4434 5.90768 40.4529 5.28668C40.4624 4.64198 39.9927 4.34333 39.3142 4.35282C37.4259 4.37652 35.5376 4.38126 33.654 4.35282C32.9898 4.34333 32.4679 4.57088 32.4394 5.21558C32.4109 5.94561 33.004 6.16841 33.6635 6.16841C34.5792 6.16841 35.4901 6.16841 36.4058 6.16841V6.16367ZM43.7124 4.36231C43.1051 4.37653 42.8157 4.68938 42.8157 5.29616C42.8157 5.90768 43.219 6.14471 43.7219 6.13523C44.2438 6.12575 44.6092 5.76073 44.5949 5.2298C44.5807 4.72257 44.3197 4.33386 43.7124 4.36231Z" fill="#06BBCF"/>
<path d="M36.415 31.6667C31.4759 31.6667 26.5368 31.6667 21.5978 31.6667C20.1839 31.6667 19.5861 31.0883 19.5861 29.6946C19.5813 24.8499 19.5861 20.0004 19.5861 15.1557C19.5861 13.7431 20.1981 13.1315 21.6547 13.1173C23.339 13.0984 25.0281 13.1173 26.7124 13.1173C34.7591 13.1173 42.8011 13.1173 50.8479 13.1173C51.2322 13.1173 51.607 13.1078 51.9913 13.2121C52.8406 13.4492 53.2723 13.9564 53.3056 14.8618C53.4859 19.7018 53.4479 24.5465 53.4431 29.3865C53.4431 31.0552 52.7884 31.6999 51.1468 31.7046C46.2362 31.7046 41.3256 31.7046 36.4197 31.7046V31.6714L36.415 31.6667ZM29.7869 21.9345V21.9061C31.5898 21.9061 33.3974 21.8966 35.2004 21.9061C35.8836 21.9061 36.5384 21.7686 36.5573 20.9817C36.5811 20.1664 35.8931 20.0242 35.2336 20.0194C31.623 20.0005 28.0171 19.9862 24.4065 19.9862C23.7376 19.9862 23.0923 20.1711 23.1255 20.9912C23.1587 21.7876 23.766 21.9393 24.4587 21.9345C26.2332 21.9203 28.0077 21.9345 29.7821 21.9345H29.7869ZM29.7869 25.324V25.3003C31.6515 25.3003 33.5113 25.286 35.3759 25.3097C36.0354 25.3192 36.5478 25.0869 36.5431 24.4091C36.5431 23.7264 36.0307 23.5131 35.3712 23.5178C31.7037 23.5273 28.0361 23.5179 24.3733 23.4989C23.7139 23.4989 23.1303 23.6364 23.135 24.4138C23.135 25.1912 23.7186 25.3334 24.3781 25.3287C26.181 25.3192 27.9839 25.3287 29.7916 25.3287L29.7869 25.324ZM25.0139 17.6871C25.3365 17.6871 25.6591 17.6871 25.9817 17.6871C26.5321 17.6966 26.9259 17.4027 26.9781 16.8954C27.035 16.3693 26.6507 15.99 26.1383 15.9426C25.4124 15.8763 24.6722 15.8668 23.9463 15.9331C23.4861 15.9758 23.1255 16.3171 23.1492 16.8291C23.173 17.3553 23.4576 17.7013 24.0507 17.6871C24.3733 17.6776 24.696 17.6871 25.0186 17.6871H25.0139Z" fill="#1AE8FF"/>
<path d="M53.4058 71.7949C53.1591 71.9418 52.8839 71.8802 52.6229 71.8802C41.8623 71.8944 31.1017 71.8992 20.3411 71.9039C20.0516 71.9039 19.748 71.9797 19.4728 71.8091C19.4633 69.5052 19.4254 67.2061 19.4491 64.9023C19.4633 63.684 20.3031 62.9492 21.6031 62.9445C24.1746 62.9302 26.7462 62.9445 29.3177 62.9445C36.4962 62.935 43.6794 62.9255 50.8579 62.916C52.7984 62.916 53.4674 63.5749 53.458 65.509C53.4485 67.6043 53.42 69.6996 53.401 71.7949H53.4058Z" fill="#D6E8F5"/>
<path d="M45.5347 35.9241C47.7504 35.9241 49.9709 35.9193 52.1866 35.9241C53.0928 35.9241 53.4202 36.2322 53.4297 37.1376C53.4487 39.2661 53.4487 41.3945 53.4297 43.5183C53.4202 44.4142 53.0738 44.7698 52.1914 44.7698C47.7267 44.7792 43.2621 44.7745 38.7975 44.7745C38.0479 44.7745 37.6398 44.4379 37.6446 43.651C37.6541 41.4372 37.6541 39.2187 37.6446 37.0049C37.6446 36.2038 38.0241 35.9099 38.7927 35.9146C41.0417 35.9336 43.2858 35.9193 45.5347 35.9193V35.9241Z" fill="#D6E8F5"/>
<path d="M27.4809 35.9331C29.6397 35.9331 31.7937 35.9331 33.9525 35.9331C35.0295 35.9331 35.2145 36.1085 35.2192 37.1514C35.2287 39.2751 35.2287 41.4036 35.2192 43.5273C35.2192 44.428 34.9108 44.7551 33.9951 44.7598C29.5922 44.774 25.1893 44.774 20.7864 44.7598C19.7758 44.7598 19.4768 44.4375 19.4674 43.404C19.4484 41.3372 19.4484 39.2704 19.4674 37.2036C19.4768 36.2318 19.7852 35.9379 20.7484 35.9379C22.9926 35.9331 25.2415 35.9379 27.4856 35.9379L27.4809 35.9331Z" fill="#D6E8F5"/>
<path d="M27.4052 46.7889C29.5355 46.7889 31.6611 46.7889 33.7914 46.7889C35.0107 46.7889 35.2147 46.9975 35.2147 48.2442C35.2147 50.2826 35.2195 52.321 35.2147 54.3594C35.2147 55.3501 34.949 55.6203 33.9574 55.6251C29.583 55.6298 25.2085 55.6298 20.834 55.6251C19.776 55.6251 19.5625 55.3975 19.5625 54.3025C19.5625 52.2356 19.5625 50.1688 19.5625 48.0972C19.5625 47.0069 19.7712 46.7936 20.8483 46.7889C23.0355 46.7794 25.2227 46.7889 27.41 46.7889H27.4052Z" fill="#1AE8FF"/>
<path d="M24.0938 61.1335C22.9409 61.1335 21.788 61.124 20.6398 61.1335C20.0278 61.1383 19.577 60.9581 19.5723 60.2613C19.5676 59.5502 20.061 59.3796 20.6445 59.3748C22.9504 59.3653 25.2515 59.3748 27.5573 59.3748C28.1646 59.3748 28.6249 59.6024 28.6296 60.2708C28.6391 60.9723 28.1599 61.1383 27.5526 61.1335C26.3997 61.124 25.2468 61.1335 24.0986 61.1335H24.0938Z" fill="#1AE8FF"/>
<path d="M36.4053 6.16305C35.4896 6.16305 34.5786 6.16305 33.6629 6.16305C33.0034 6.16305 32.4056 5.94024 32.4388 5.21022C32.4673 4.56551 32.9892 4.33797 33.6534 4.34745C35.5418 4.37589 37.4253 4.37115 39.3137 4.34745C39.9921 4.33797 40.4618 4.63662 40.4523 5.28132C40.4476 5.90232 39.9209 6.15356 39.3231 6.1583C38.3505 6.16778 37.3779 6.1583 36.4053 6.1583V6.16305Z" fill="#1AE8FF"/>
<path d="M43.7073 4.35699C44.3146 4.33328 44.5755 4.72199 44.5898 5.22448C44.604 5.75541 44.2386 6.12043 43.7167 6.12991C43.2186 6.13939 42.8153 5.90237 42.8105 5.29085C42.8105 4.67934 43.1 4.37121 43.7073 4.35699Z" fill="#1AE8FF"/>
<path d="M29.7867 21.9351C28.0123 21.9351 26.2378 21.9257 24.4634 21.9351C23.7706 21.9399 23.1633 21.7834 23.1301 20.9918C23.0969 20.167 23.7422 19.9868 24.4111 19.9868C28.0217 19.9868 31.6276 20.001 35.2382 20.02C35.8977 20.02 36.5857 20.167 36.5619 20.9823C36.5382 21.7692 35.8882 21.9114 35.205 21.9067C33.402 21.8972 31.5944 21.9067 29.7915 21.9067V21.9351H29.7867Z" fill="#FCF5F9"/>
<path d="M29.7874 25.3289C27.9845 25.3289 26.1816 25.3195 24.3739 25.3289C23.7144 25.3289 23.1309 25.1915 23.1309 24.414C23.1309 23.6366 23.7097 23.4944 24.3692 23.4991C28.0367 23.5134 31.7042 23.5276 35.367 23.5181C36.0265 23.5181 36.5389 23.7314 36.5389 24.4093C36.5389 25.0872 36.0313 25.3195 35.3718 25.31C33.5072 25.291 31.6473 25.3005 29.7827 25.3005V25.3242L29.7874 25.3289Z" fill="#FCF5F9"/>
<path d="M25.015 17.6874C24.6924 17.6874 24.3697 17.678 24.0471 17.6874C23.454 17.7017 23.1741 17.3556 23.1456 16.8294C23.1219 16.3174 23.4825 15.9761 23.9427 15.9335C24.6686 15.8671 25.4088 15.8766 26.1347 15.943C26.6471 15.9904 27.0362 16.3696 26.9745 16.8958C26.9176 17.403 26.5285 17.6969 25.9781 17.6874C25.6555 17.6874 25.3329 17.6874 25.0102 17.6874H25.015Z" fill="#FCF5F9"/>
</svg>
