<svg width="263" height="83" viewBox="0 0 263 83" fill="none" xmlns="http://www.w3.org/2000/svg">
<path d="M20.9775 10.4989H18.5853V6.43197H20.9775C26.0067 6.43507 30.972 7.55894 35.5124 9.72187C40.0528 11.8848 44.054 15.0324 47.2253 18.9358L44.0947 21.5112C41.3017 18.0734 37.7776 15.3013 33.7788 13.3964C29.78 11.4914 25.4069 10.5016 20.9775 10.4989ZM61.0858 71.5775C56.6564 71.5747 52.2833 70.5849 48.2845 68.68C44.2856 66.7751 40.7616 64.003 37.9685 60.5652L34.8376 63.1407C38.0089 67.0441 42.0102 70.1916 46.5507 72.3546C51.0911 74.5175 56.0564 75.6414 61.0857 75.6445H63.4779V71.5776H61.0858V71.5775ZM32.3705 5.45326C36.5486 6.9625 40.3388 9.38184 43.4668 12.5361C46.5948 15.6904 48.9823 19.5008 50.4565 23.6913L54.269 22.3315C52.5953 17.5737 49.8846 13.2475 46.3332 9.66622C42.7818 6.08491 38.4785 3.33807 33.7348 1.62456L31.4973 0.818761L30.133 4.64743L32.3705 5.45321V5.45326ZM49.6902 76.6072C45.5122 75.098 41.722 72.6787 38.594 69.5244C35.466 66.3701 33.0784 62.5598 31.6042 58.3692L27.7917 59.729C29.4654 64.4869 32.1761 68.813 35.7275 72.3944C39.279 75.9757 43.5823 78.7225 48.3259 80.436L50.5634 81.2418L51.9277 77.4131L49.6902 76.6074V76.6072ZM45.2409 4.64993C48.6341 7.52736 51.3474 11.1209 53.1859 15.1722C55.0243 19.2235 55.9422 23.6319 55.8735 28.0803L59.9186 28.1412C59.9966 23.0906 58.9545 18.0854 56.8671 13.4857C54.7797 8.88593 51.699 4.80587 47.8465 1.53893L46.0287 0L43.4231 3.11099L45.2409 4.64993ZM36.8204 77.4124C33.4273 74.535 30.7139 70.9414 28.8755 66.8901C27.037 62.8388 26.1191 58.4305 26.1878 53.9821L22.1428 53.9215C22.0648 58.9721 23.1069 63.9772 25.1943 68.5768C27.2817 73.1765 30.3624 77.2565 34.2149 80.5234L36.0327 82.0623L38.6383 78.9513L36.8205 77.4124L36.8204 77.4124ZM56.8073 8.01693C59.0817 11.8443 60.4812 16.1275 60.9055 20.5594C61.3298 24.9913 60.7684 29.4622 59.2615 33.6516L63.0658 35.0351C64.7766 30.2785 65.4139 25.2022 64.9322 20.1703C64.4504 15.1383 62.8615 10.2753 60.2792 5.92963L59.0594 3.87922L55.5875 5.96609L56.8073 8.01681V8.01693ZM25.2545 74.0441C22.9801 70.2167 21.5806 65.9334 21.1563 61.5015C20.732 57.0695 21.2934 52.5986 22.8003 48.4091L18.996 47.026C17.2852 51.7826 16.6478 56.8588 17.1296 61.8908C17.6114 66.9227 19.2003 71.7858 21.7826 76.1314L23.0024 78.1819L26.4743 76.095L25.2545 74.0443V74.0441ZM67.253 15.6039C68.0618 19.9809 67.8917 24.4827 66.7548 28.7861C65.618 33.0896 63.5426 37.0881 60.6776 40.4946L63.7652 43.1223C67.018 39.2546 69.3743 34.7149 70.6649 29.8288C71.9556 24.9428 72.1487 19.8316 71.2303 14.8621L70.7972 12.5129L66.8194 13.2547L67.253 15.6039ZM14.8096 66.4587C14.0009 62.0817 14.171 57.5799 15.3079 53.2765C16.4447 48.973 18.5201 44.9746 21.385 41.5681L18.2973 38.9403C15.0447 42.808 12.6884 47.3478 11.3978 52.2338C10.1071 57.1199 9.91397 62.231 10.8323 67.2005L11.2654 69.5497L15.2432 68.8079L14.8096 66.4587H14.8096ZM74.3434 26.2029C73.6113 30.5879 71.9149 34.7558 69.3767 38.4058C66.8385 42.0558 63.5217 45.0969 59.6657 47.3096L61.668 50.8436C66.0459 48.3312 69.8116 44.8784 72.6933 40.7344C75.5751 36.5903 77.5012 31.8582 78.3325 26.8796L78.7281 24.5236L74.739 23.8469L74.3434 26.2029V26.2029ZM7.71846 55.8595C8.45065 51.4744 10.147 47.3066 12.6852 43.6566C15.2235 40.0066 18.5402 36.9656 22.3961 34.7528L20.3939 31.2188C16.0161 33.7313 12.2505 37.1841 9.36873 41.3281C6.48697 45.4722 4.56088 50.2042 3.72941 55.1828L3.33385 57.5388L7.32289 58.2155L7.71846 55.8595ZM77.3707 38.4195C75.2062 42.2949 72.2057 45.6396 68.5871 48.2105C64.9685 50.7814 60.8227 52.5141 56.4508 53.2826L57.1441 57.289C62.1078 56.4165 66.8149 54.4494 70.9234 51.5305C75.0319 48.6116 78.4386 44.8142 80.8962 40.4142L82.0618 38.3322L78.5364 36.3375L77.3708 38.4195H77.3707ZM4.69096 43.6424C6.85548 39.767 9.85602 36.4224 13.4746 33.8515C17.0933 31.2807 21.2391 29.5481 25.611 28.7796L24.9177 24.7729C19.954 25.6453 15.2469 27.6125 11.1384 30.5314C7.02989 33.4503 3.62313 37.2477 1.16559 41.6477L0 43.7298L3.52539 45.7248L4.69096 43.6424ZM75.9388 51.5111C72.5476 54.3669 68.5613 56.429 64.2711 57.5471C59.9809 58.6651 55.4952 58.8107 51.1415 57.9732L50.3801 61.9676C55.3232 62.9184 60.4162 62.7531 65.2871 61.4837C70.1581 60.2143 74.684 57.8728 78.5342 54.6304L80.3573 53.0975L77.7619 49.9782L75.9388 51.5111L75.9388 51.5111ZM6.12315 30.5493C9.51437 27.6936 13.5007 25.6314 17.7908 24.5134C22.081 23.3954 26.5668 23.2498 30.9204 24.0872L31.6818 20.0929C26.7388 19.1421 21.6458 19.3074 16.7749 20.5767C11.9039 21.846 7.37801 24.1874 3.5277 27.4297L1.70461 28.9629L4.30001 32.0822L6.12315 30.5493ZM70.3042 62.8337C66.142 64.3576 61.6918 64.932 57.2791 64.515C52.8664 64.0979 48.6027 62.6999 44.7997 60.4232L42.7316 63.9184C47.0494 66.5033 51.8903 68.0905 56.9003 68.564C61.9103 69.0375 66.9628 68.3854 71.6884 66.6553L73.9214 65.8379L72.5375 62.0163L70.3042 62.8337ZM11.7545 19.2289C15.9167 17.705 20.3669 17.1306 24.7796 17.5477C29.1923 17.9647 33.456 19.3628 37.259 21.6395L39.3271 18.1446C35.0094 15.5596 30.1685 13.9723 25.1585 13.4987C20.1484 13.0251 15.0959 13.6772 10.3703 15.4073L8.13697 16.2248L9.5213 20.0464L11.7546 19.2289H11.7545ZM61.0858 71.5775C56.6564 71.5748 52.2834 70.5849 48.2845 68.68C44.2857 66.7751 40.7616 64.003 37.9685 60.5652L34.8376 63.1407C38.0089 67.0441 42.0102 70.1916 46.5507 72.3546C51.0911 74.5175 56.0564 75.6414 61.0857 75.6445H63.4779V71.5776H61.0858" fill="#FF0008"/>
<path d="M199.421 22.0587H205.094V61.0507H199.421V22.0587ZM114.839 37.9548C110.239 36.4155 106.049 35.1843 106.049 31.3365C106.049 28.2067 108.655 25.8469 112.743 25.8469C114.339 25.7796 115.923 26.1386 117.333 26.887C118.744 27.6355 119.929 28.7463 120.767 30.105L125.622 26.5138C124.076 24.5908 122.102 23.0558 119.857 22.0313C117.612 21.0069 115.158 20.5214 112.692 20.6136C105.333 20.6136 99.9154 25.4363 99.9154 31.4904C99.9154 38.8272 105.793 40.9819 111.159 42.7263C115.759 44.214 120.154 45.4967 120.154 49.6009C120.154 53.1413 117.343 56.0141 112.948 56.0141C110.979 56.0039 109.05 55.4592 107.367 54.4381C105.684 53.417 104.309 51.9579 103.391 50.2166L98.127 54.3212C99.8279 56.652 102.071 58.5333 104.662 59.8027C107.253 61.072 110.115 61.6911 112.999 61.6064C121.278 61.6064 126.287 55.7578 126.287 49.6525C126.287 42.1617 120.359 39.802 114.839 37.9548H114.839ZM152.654 33.3351C159.502 33.3863 165.226 37.7987 165.277 45.1867V61.0913H159.349V46.7256C159.349 42.9804 157.509 38.8759 152.756 38.8759C148.514 38.8759 145.805 41.9545 145.805 46.7256V61.0913H139.928V46.0587C139.775 41.4411 142.535 33.1811 152.654 33.3351H152.654ZM212.651 25.1964C213.27 25.194 213.877 25.3754 214.393 25.7178C214.909 26.0602 215.312 26.5482 215.551 27.1198C215.79 27.6915 215.853 28.3211 215.734 28.929C215.615 29.5369 215.318 30.0957 214.88 30.5346C214.443 30.9735 213.886 31.2728 213.278 31.3946C212.671 31.5164 212.041 31.4551 211.468 31.2187C210.896 30.9822 210.406 30.5811 210.062 30.0662C209.717 29.5513 209.533 28.9457 209.533 28.3262C209.508 27.9097 209.572 27.4926 209.719 27.1023C209.867 26.712 210.095 26.3574 210.39 26.0618C210.684 25.7661 211.038 25.5362 211.428 25.387C211.817 25.2379 212.234 25.1729 212.651 25.1964ZM209.789 34.3803H215.513V61.059H209.789V34.3803ZM133.131 25.3232C133.751 25.3208 134.357 25.5023 134.873 25.8448C135.39 26.1872 135.793 26.6751 136.031 27.2467C136.27 27.8183 136.334 28.4479 136.214 29.0558C136.095 29.6636 135.798 30.2224 135.361 30.6612C134.923 31.1001 134.366 31.3994 133.758 31.5211C133.151 31.6428 132.521 31.5816 131.949 31.345C131.376 31.1085 130.887 30.7074 130.542 30.1925C130.198 29.6776 130.014 29.0721 130.014 28.4527C129.989 28.0362 130.052 27.6191 130.2 27.2289C130.348 26.8386 130.576 26.484 130.871 26.1885C131.165 25.8929 131.519 25.6629 131.908 25.5138C132.298 25.3647 132.715 25.2997 133.131 25.3232ZM130.218 34.5068H135.942V61.1855H130.218V34.5068ZM218.892 34.4271H223.389V33.0421C223.389 24.7306 225.945 22.1653 234.275 22.1653H234.735V27.4499C229.675 27.4499 229.113 28.3219 229.113 33.0934V34.4272H234.735V39.5578H229.113V61.1059H223.389V39.5577H218.892V34.4271ZM235.549 47.3956C235.513 45.564 235.844 43.7437 236.522 42.0419C237.201 40.3401 238.212 38.7912 239.498 37.4861C240.784 36.1811 242.318 35.1464 244.009 34.4428C245.701 33.7393 247.516 33.3811 249.348 33.3894C251.153 33.3249 252.952 33.632 254.633 34.2918C256.315 34.9515 257.843 35.9498 259.122 37.2247C260.402 38.4995 261.405 40.0238 262.071 41.7028C262.737 43.3818 263.051 45.1797 262.993 46.985V49.2424H240.966C241.292 51.2345 242.345 53.035 243.921 54.2955C245.498 55.5559 247.486 56.1868 249.501 56.0659C251.126 56.1143 252.73 55.6828 254.112 54.8251C255.493 53.9675 256.591 52.7217 257.269 51.2436L261.971 53.86C260.466 56.557 258.118 58.6858 255.287 59.9196C252.456 61.1535 249.298 61.4242 246.298 60.6902C243.298 59.9563 240.622 58.2582 238.68 55.8567C236.738 53.4551 235.638 50.4827 235.549 47.3956H235.549ZM241.324 44.4198H257.269C256.919 42.6295 255.924 41.0297 254.474 39.9235C253.023 38.8172 251.218 38.2813 249.399 38.4172C247.578 38.383 245.798 38.9538 244.337 40.0401C242.875 41.1263 241.816 42.6667 241.324 44.4198H241.324ZM182.245 33.2875C178.544 33.37 175.023 34.8981 172.434 37.5447C169.846 40.1913 168.397 43.746 168.397 47.4479C168.397 51.1497 169.846 54.7044 172.434 57.351C175.023 59.9976 178.544 61.5257 182.245 61.6082C185.083 61.6134 187.846 60.6949 190.116 58.9914V62.07C190.129 63.1101 189.928 64.1418 189.524 65.1006C189.121 66.0593 188.524 66.9245 187.771 67.642C187.018 68.3595 186.125 68.9139 185.147 69.2704C184.17 69.627 183.13 69.7781 182.092 69.7142C180.407 69.8345 178.727 69.4306 177.281 68.558C175.835 67.6854 174.695 66.3868 174.017 64.8403L168.651 67.4056C170.695 71.8176 175.294 75.0498 182.092 75.0498C190.064 75.0498 195.635 70.4326 195.635 61.6081L195.686 47.2424C195.533 39.3415 189.707 33.2873 182.245 33.2873L182.245 33.2875ZM182.245 56.0158C180.014 55.953 177.896 55.0227 176.341 53.4228C174.785 51.8228 173.915 49.6792 173.915 47.4477C173.915 45.2162 174.785 43.0726 176.341 41.4727C177.896 39.8727 180.014 38.9425 182.245 38.8797C183.332 38.903 184.402 39.1459 185.392 39.5936C186.383 40.0414 187.272 40.6848 188.007 41.4851C188.743 42.2855 189.308 43.2263 189.671 44.2509C190.033 45.2756 190.184 46.3629 190.116 47.4475C190.184 48.5322 190.033 49.6195 189.671 50.6442C189.309 51.6689 188.743 52.6097 188.008 53.4101C187.272 54.2105 186.383 54.854 185.393 55.3018C184.402 55.7495 183.332 55.9924 182.245 56.0158Z" fill="#FF0008"/>
</svg>
