<svg width="81" height="80" viewBox="0 0 81 80" fill="none" xmlns="http://www.w3.org/2000/svg">
<path d="M0 55.7573C0.401813 54.7243 0.43113 53.612 0.724119 52.5456C1.73284 48.8529 3.54935 45.6328 6.21973 42.8978C10.3216 38.6992 14.4318 34.513 18.5462 30.3269C18.6969 30.1722 18.7932 29.9129 19.1657 29.9464C19.082 30.6364 18.9899 31.3139 18.9229 31.9913C18.5169 35.9976 18.8183 39.9412 19.9986 43.8053C20.1953 44.4452 20.0572 44.9428 19.58 45.4279C17.5291 47.5063 15.4656 49.5764 13.4775 51.7175C10.0495 55.406 9.84862 61.0642 12.9334 65.0496C16.6376 69.8337 23.82 70.5363 28.1395 66.2958C33.1078 61.4196 38.0467 56.5017 42.7052 51.3244C44.6264 49.1875 45.7984 46.7285 45.6226 43.7468C45.4133 40.1754 43.7181 37.4948 40.8092 35.5209C39.5786 34.6887 39.52 34.5381 40.2441 33.2041C41.5793 30.7368 43.4377 28.7127 45.5975 26.9479C46.1667 26.4795 46.7359 26.5339 47.3052 26.9479C52.2148 30.5402 55.2954 35.2741 56.2288 41.3296C56.9947 46.3061 56.2204 51.015 53.7467 55.4186C52.5246 57.5973 50.7834 59.3747 49.1008 61.1896C45.1245 65.472 40.9222 69.5368 36.8036 73.6811C33.024 77.4825 28.3781 79.5024 23.0206 79.8495C22.895 79.8578 22.7527 79.8285 22.7108 80H20.2037C19.7056 79.6655 19.1154 79.7909 18.5713 79.7198C10.037 78.574 3.00106 72.4056 0.770154 64.1128C0.468794 63.0004 0.41856 61.8378 0.00418964 60.7589V55.7531L0 55.7573Z" fill="#1AE8FF"/>
<path d="M60.8748 50.0531C60.9836 48.9115 61.2054 47.7949 61.2891 46.6657C61.5486 43.1487 61.2222 39.6987 60.1674 36.3322C59.9079 35.4958 60.0502 34.9271 60.6655 34.3165C62.5867 32.4053 64.4744 30.4524 66.3537 28.4952C71.9916 22.6154 69.225 13.0095 61.3017 11.1067C57.7021 10.2411 54.429 11.1151 51.8047 13.7372C47.0624 18.4753 42.3495 23.2385 37.7621 28.1272C35.7824 30.2349 34.3844 32.6228 34.4555 35.638C34.5476 39.4603 36.226 42.4169 39.4071 44.5204C40.4576 45.2146 40.533 45.4572 39.8591 46.511C38.3314 48.8947 36.4562 50.9899 34.4555 52.9763C33.9365 53.4907 33.4594 53.4949 32.8692 53.0767C27.8758 49.5304 24.9041 44.7128 23.9707 38.695C22.8071 31.1842 25.0087 24.7398 30.383 19.3451C34.7443 14.9666 38.9801 10.4585 43.3959 6.13439C47.9456 1.68062 53.4998 -0.351793 59.8744 0.0496731C69.8695 0.685328 78.0439 7.81971 79.8018 17.5929C81.1328 24.9908 79.1615 31.5188 73.9212 36.9637C69.7984 41.246 65.6003 45.4614 61.4314 49.7018C61.2933 49.8398 61.1971 50.0531 60.879 50.0531H60.8748Z" fill="#FF5D0A"/>
</svg>
