<svg width="463" height="288" viewBox="0 0 463 288" fill="none" xmlns="http://www.w3.org/2000/svg">
<rect width="463" height="288" fill="#101828"/>
<path d="M273.611 125.545C268.974 125.545 265.222 129.205 265.222 133.723V162.709C265.222 164.88 266.106 166.961 267.679 168.496C269.252 170.031 271.386 170.893 273.611 170.893C275.836 170.893 277.97 170.031 279.543 168.496C281.116 166.961 282 164.88 282 162.709V133.723C282 129.205 278.248 125.545 273.611 125.545ZM190.389 125.545C185.752 125.545 182 129.205 182 133.723V162.709C182 164.88 182.884 166.961 184.457 168.496C186.03 170.031 188.164 170.893 190.389 170.893C192.614 170.893 194.748 170.031 196.321 168.496C197.894 166.961 198.778 164.88 198.778 162.709V133.723C198.779 132.648 198.563 131.584 198.141 130.591C197.72 129.598 197.102 128.696 196.323 127.936C195.543 127.177 194.618 126.575 193.6 126.164C192.582 125.754 191.491 125.544 190.389 125.545ZM248.693 101.173L253.73 92.2912C253.878 92.0384 253.972 91.7595 254.008 91.4708C254.043 91.1821 254.02 90.8893 253.939 90.6095C253.858 90.3297 253.72 90.0684 253.535 89.8408C253.349 89.6132 253.119 89.4239 252.858 89.2838C252.597 89.1405 252.31 89.0492 252.013 89.0151C251.716 88.981 251.415 89.0048 251.128 89.0852C250.841 89.1656 250.572 89.3009 250.339 89.4833C250.106 89.6657 249.912 89.8915 249.769 90.1476L244.593 99.2338C240.737 97.7301 236.486 96.8791 232 96.8791C227.514 96.8791 223.263 97.7237 219.407 99.2274L214.231 90.154C214.088 89.8979 213.894 89.6721 213.661 89.4897C213.428 89.3073 213.159 89.172 212.872 89.0916C212.585 89.0112 212.284 88.9874 211.987 89.0215C211.69 89.0556 211.403 89.1469 211.142 89.2902C210.882 89.4316 210.653 89.6215 210.469 89.8493C210.284 90.077 210.147 90.338 210.066 90.6174C209.985 90.8967 209.962 91.1889 209.997 91.4772C210.031 91.7656 210.124 92.0443 210.27 92.2976L215.307 101.179C206.236 106.221 200.175 115.237 200.175 125.545C200.175 125.616 200.175 125.68 200.188 125.763C200.175 125.801 200.175 125.846 200.175 125.884V125.891H263.818V125.545C263.825 115.237 257.764 106.228 248.693 101.173ZM217.308 113.765C217.009 113.763 216.714 113.704 216.439 113.59C216.164 113.477 215.915 113.312 215.705 113.105C215.282 112.686 215.047 112.12 215.051 111.532C215.056 110.944 215.299 110.382 215.729 109.969C216.158 109.556 216.738 109.327 217.34 109.331C217.943 109.335 218.52 109.573 218.943 109.992C219.366 110.41 219.601 110.976 219.597 111.564C219.592 112.152 219.349 112.714 218.919 113.127C218.49 113.54 217.91 113.77 217.308 113.765ZM246.692 113.765C246.12 113.723 245.586 113.471 245.196 113.061C244.806 112.65 244.589 112.111 244.589 111.551C244.589 110.992 244.806 110.453 245.196 110.042C245.586 109.632 246.12 109.38 246.692 109.337C247.294 109.337 247.872 109.571 248.297 109.986C248.723 110.401 248.962 110.964 248.962 111.551C248.962 112.139 248.723 112.702 248.297 113.117C247.872 113.532 247.294 113.765 246.692 113.765ZM200.175 172.96C200.175 177.093 203.619 180.453 207.876 180.453H211.719V195.816C211.719 197.987 212.603 200.068 214.176 201.603C215.75 203.138 217.883 204 220.108 204C222.333 204 224.467 203.138 226.04 201.603C227.614 200.068 228.497 197.987 228.497 195.816V180.453H235.489V195.816C235.489 200.34 239.241 203.994 243.865 203.994C248.516 203.994 252.268 200.34 252.268 195.816V180.453H256.111C260.362 180.453 263.812 177.1 263.812 172.96V127.58H200.175V172.96Z" fill="#AABF59"/>
</svg>
