<svg width="463" height="288" viewBox="0 0 463 288" fill="none" xmlns="http://www.w3.org/2000/svg">
<rect width="463" height="288" fill="#101828"/>
<path d="M273.25 144H247V151.5H265C263.713 157.063 261.046 162.211 257.245 166.471C253.443 170.731 248.63 173.965 243.25 175.875L200.125 132.75C202.455 126.161 206.772 120.458 212.482 116.427C218.191 112.397 225.011 110.239 232 110.25C237.418 110.288 242.751 111.598 247.571 114.073C252.391 116.548 256.562 120.119 259.75 124.5L265.375 119.625C260.696 113.233 254.274 108.324 246.878 105.486C239.481 102.648 231.424 102.001 223.67 103.623C215.915 105.245 208.793 109.067 203.154 114.632C197.515 120.197 193.599 127.268 191.875 135L241.375 184.5C250.417 182.221 258.448 177.01 264.215 169.683C269.982 162.356 273.159 153.324 273.25 144ZM190.75 144.375C190.762 149.684 191.829 154.937 193.889 159.83C195.949 164.722 198.961 169.157 202.75 172.875C210.302 180.468 220.541 184.78 231.25 184.875L190.75 144.375Z" fill="white"/>
<path d="M232 91.5C221.617 91.5 211.466 94.5791 202.833 100.348C194.199 106.117 187.47 114.316 183.496 123.909C179.523 133.502 178.483 144.058 180.509 154.242C182.535 164.426 187.535 173.781 194.877 181.123C202.219 188.465 211.574 193.465 221.758 195.491C231.942 197.517 242.498 196.477 252.091 192.504C261.684 188.53 269.883 181.801 275.652 173.167C281.421 164.534 284.5 154.384 284.5 144C284.459 130.089 278.915 116.759 269.078 106.922C259.241 97.0848 245.911 91.5406 232 91.5ZM202.75 173.25C195.157 165.698 190.845 155.459 190.75 144.75L231.625 185.25C220.826 185.058 210.504 180.768 202.75 173.25ZM241 184.125L191.875 135C193.599 127.268 197.515 120.196 203.154 114.632C208.793 109.067 215.915 105.245 223.67 103.623C231.424 102.001 239.481 102.648 246.878 105.486C254.274 108.323 260.696 113.232 265.375 119.625L259.75 124.5C256.562 120.119 252.391 116.547 247.571 114.072C242.751 111.597 237.418 110.288 232 110.25C225.024 110.293 218.229 112.472 212.53 116.495C206.831 120.518 202.501 126.191 200.125 132.75L243.25 175.875C248.63 173.965 253.443 170.731 257.245 166.471C261.046 162.211 263.713 157.062 265 151.5H247V144H273.25C273.199 153.348 269.984 162.404 264.127 169.69C258.271 176.977 250.119 182.065 241 184.125Z" fill="#663399"/>
</svg>
