<svg width="463" height="288" viewBox="0 0 463 288" fill="none" xmlns="http://www.w3.org/2000/svg">
<rect width="463" height="288" fill="#101828"/>
<g clip-path="url(#clip0_446_7790)">
<path d="M220.758 201.377L187.575 182.72C181.053 179.053 177.001 172.208 177 164.856V124.724C176.999 117.308 180.855 110.554 187.315 106.656L219.938 86.9853C223.09 85.0807 226.712 84.0494 230.418 84.0017C234.124 83.954 237.774 84.8918 240.976 86.7146L277.282 107.34C282.88 110.52 286.413 116.425 286.412 122.749V165.039C286.411 171.912 282.546 178.276 276.415 181.648L240.382 201.468C233.854 204.881 227.313 204.837 220.758 201.377ZM223.634 197.892C228.021 200.239 232.631 200.498 237.54 197.957L274.821 177.45C279.134 175.078 281.813 170.602 281.813 165.767V122.013C281.814 117.71 279.449 113.693 275.64 111.529L237.954 90.1238C232.812 87.5789 227.785 87.6544 223.014 90.3488L189.202 110.736C184.44 113.609 181.598 118.588 181.598 124.055V165.579C181.599 170.933 184.55 175.918 189.3 178.589L223.634 197.892ZM225.445 94.3906L191.723 114.724C188.388 116.737 186.397 120.225 186.397 124.055V165.579C186.397 169.261 188.427 172.689 191.694 174.526L226.027 193.83C228.844 195.413 232.353 195.429 235.186 193.872L272.467 173.366C273.846 172.606 274.993 171.502 275.792 170.167C276.591 168.832 277.013 167.314 277.015 165.767V122.013C277.015 119.373 275.564 116.908 273.228 115.581L235.726 94.276C232.105 92.5027 228.741 92.5402 225.445 94.3906ZM206.518 176.116V111.884H220.274V135.28H243.096V111.884H256.894V176.116H243.096V148.03H220.274V176.116H206.518Z" fill="#EB4DB1"/>
</g>
<defs>
<clipPath id="clip0_446_7790">
<rect width="109.412" height="120" fill="white" transform="translate(177 84)"/>
</clipPath>
</defs>
</svg>
