<svg width="463" height="288" viewBox="0 0 463 288" fill="none" xmlns="http://www.w3.org/2000/svg">
<rect width="463" height="288" fill="#101828"/>
<g clip-path="url(#clip0_466_8005)">
<path d="M263.875 84H200.125C184.592 84 172 96.592 172 112.125V175.875C172 191.408 184.592 204 200.125 204H263.875C279.408 204 292 191.408 292 175.875V112.125C292 96.592 279.408 84 263.875 84Z" fill="#F0DB4F"/>
<path d="M203.553 184.281L212.736 178.723C214.507 181.864 216.119 184.522 219.985 184.522C223.69 184.522 226.026 183.073 226.026 177.435V139.092H237.304V177.594C237.304 189.274 230.457 194.59 220.468 194.59C211.447 194.59 206.211 189.918 203.552 184.28M243.429 183.072L252.611 177.756C255.028 181.703 258.17 184.603 263.727 184.603C268.4 184.603 271.379 182.267 271.379 179.045C271.379 175.178 268.318 173.809 263.163 171.554L260.345 170.345C252.208 166.882 246.811 162.532 246.811 153.349C246.811 144.891 253.256 138.447 263.325 138.447C270.494 138.447 275.649 140.944 279.354 147.469L270.574 153.107C268.641 149.644 266.547 148.275 263.325 148.275C260.022 148.275 257.928 150.369 257.928 153.107C257.928 156.49 260.022 157.86 264.855 159.955L267.674 161.163C277.259 165.271 282.657 169.459 282.657 178.883C282.657 189.034 274.682 194.591 263.969 194.591C253.498 194.591 246.731 189.597 243.429 183.072Z" fill="#101828"/>
</g>
<defs>
<clipPath id="clip0_466_8005">
<rect width="120" height="120" fill="white" transform="translate(172 84)"/>
</clipPath>
</defs>
</svg>
