<svg width="463" height="288" viewBox="0 0 463 288" fill="none" xmlns="http://www.w3.org/2000/svg">
<rect width="463" height="288" fill="#101828"/>
<g clip-path="url(#clip0_466_8020)">
<path d="M263.875 84H200.125C184.592 84 172 96.592 172 112.125V175.875C172 191.408 184.592 204 200.125 204H263.875C279.408 204 292 191.408 292 175.875V112.125C292 96.592 279.408 84 263.875 84Z" fill="white"/>
<path d="M219.641 169.602C219.641 169.602 216.041 171.793 222.146 172.42C229.519 173.36 233.417 173.202 241.556 171.638C241.556 171.638 243.747 173.049 246.722 174.143C228.405 181.97 205.239 173.674 219.641 169.602ZM217.293 159.428C217.293 159.428 213.379 162.403 219.484 163.028C227.466 163.81 233.73 163.967 244.531 161.778C244.531 161.778 245.941 163.344 248.288 164.126C226.218 170.7 201.483 164.751 217.293 159.43V159.428ZM260.498 177.274C260.498 177.274 263.158 179.465 257.523 181.188C247.034 184.318 213.536 185.259 204.144 181.188C200.858 179.777 207.119 177.741 209.153 177.431C211.188 176.961 212.283 176.961 212.283 176.961C208.683 174.456 188.332 182.127 201.951 184.334C239.364 190.44 270.203 181.673 260.496 177.29L260.498 177.274ZM221.363 148.782C221.363 148.782 204.299 152.854 215.256 154.261C219.952 154.886 229.188 154.73 237.798 154.104C244.842 153.478 251.902 152.225 251.902 152.225C251.902 152.225 249.397 153.321 247.676 154.416C230.285 158.96 196.943 156.925 206.492 152.228C214.634 148.314 221.363 148.782 221.363 148.782ZM251.886 165.845C269.42 156.766 261.278 148 255.643 149.097C254.232 149.409 253.608 149.722 253.608 149.722C253.608 149.722 254.077 148.782 255.173 148.472C266.287 144.558 275.054 160.212 251.574 166.317C251.574 166.317 251.731 166.16 251.886 165.847V165.845ZM223.084 190.577C239.99 191.673 265.819 189.951 266.446 181.966C266.446 181.966 265.196 185.097 252.514 187.445C238.113 190.106 220.266 189.793 209.779 188.07C209.779 188.07 211.97 189.948 223.085 190.575L223.084 190.577Z" fill="#4E7896"/>
<path d="M241.227 97.125C241.227 97.125 250.932 106.987 231.992 121.856C216.807 133.909 228.546 140.797 231.992 148.622C223.069 140.64 216.654 133.595 221.034 127.02C227.468 117.32 245.154 112.624 241.227 97.125ZM236.219 142.051C240.758 147.217 234.969 151.913 234.969 151.913C234.969 151.913 246.552 145.966 241.231 138.607C236.377 131.562 232.621 128.118 252.971 116.376C252.971 116.376 220.88 124.358 236.222 142.048L236.219 142.051Z" fill="#F58219"/>
</g>
<defs>
<clipPath id="clip0_466_8020">
<rect width="120" height="120" fill="white" transform="translate(172 84)"/>
</clipPath>
</defs>
</svg>
