<svg width="463" height="288" viewBox="0 0 463 288" fill="none" xmlns="http://www.w3.org/2000/svg">
<rect width="463" height="288" fill="#101828"/>
<g clip-path="url(#clip0_446_7557)">
<path d="M229.86 84.0002C228.98 84.0002 228.31 84.0052 228.07 84.0352C227.464 84.0958 226.857 84.1508 226.25 84.2002C209.215 85.7302 193.25 94.9252 183.14 109.06C177.549 116.818 173.914 125.811 172.545 135.275C172.065 138.57 172.005 139.545 172.005 144.01C172.005 148.475 172.065 149.455 172.545 152.75C175.805 175.28 191.845 194.21 213.59 201.225C217.485 202.475 221.59 203.335 226.26 203.85C228.075 204.05 235.935 204.05 237.755 203.85C245.81 202.96 252.64 200.965 259.37 197.53C260.405 197 260.605 196.86 260.465 196.74C260.365 196.675 255.965 190.775 250.69 183.64L241.095 170.68L229.075 152.89C225.076 146.938 221.039 141.011 216.965 135.11C216.92 135.1 216.875 143.005 216.85 152.66C216.815 169.56 216.8 170.235 216.59 170.635C216.386 171.104 216.02 171.484 215.56 171.705C215.185 171.89 214.86 171.925 213.085 171.925H211.05L210.51 171.585C210.176 171.376 209.905 171.081 209.725 170.73L209.475 170.2L209.505 146.685L209.54 123.16L209.9 122.7C210.146 122.413 210.44 122.171 210.77 121.985C211.25 121.75 211.44 121.73 213.47 121.73C215.86 121.73 216.26 121.82 216.88 122.5C221.746 129.741 226.571 137.01 231.355 144.305C239.242 156.258 247.133 168.208 255.03 180.155L264.53 194.55L265.01 194.235C269.584 191.196 273.73 187.559 277.34 183.42C284.899 174.768 289.801 164.119 291.46 152.75C291.94 149.45 292 148.48 292 144.01C292 139.545 291.94 138.57 291.46 135.275C288.2 112.745 272.165 93.8152 250.42 86.8002C246.354 85.5076 242.168 84.6314 237.925 84.1852C235.24 84.0581 232.553 83.9964 229.865 84.0002H229.86ZM250.205 120.085C251.94 120.085 252.245 120.11 252.635 120.32C252.914 120.461 253.163 120.656 253.366 120.894C253.57 121.132 253.724 121.407 253.82 121.705C253.91 122.005 253.935 128.53 253.91 143.225L253.88 164.315L250.16 158.615L246.43 152.915V137.585C246.43 127.675 246.48 122.1 246.545 121.835C246.629 121.522 246.775 121.23 246.975 120.976C247.176 120.721 247.426 120.51 247.71 120.355C248.19 120.105 248.36 120.085 250.21 120.085H250.205Z" fill="white"/>
</g>
<defs>
<clipPath id="clip0_446_7557">
<rect width="120" height="120" fill="white" transform="translate(172 84)"/>
</clipPath>
</defs>
</svg>
