<svg width="463" height="288" viewBox="0 0 463 288" fill="none" xmlns="http://www.w3.org/2000/svg">
<rect width="463" height="288" fill="#101828"/>
<path fill-rule="evenodd" clip-rule="evenodd" d="M232 91.5C242.384 91.5 252.534 94.5791 261.167 100.348C269.801 106.117 276.53 114.316 280.504 123.909C284.477 133.502 285.517 144.058 283.491 154.242C281.466 164.426 276.465 173.781 269.123 181.123C261.781 188.465 252.426 193.466 242.242 195.491C232.058 197.517 221.502 196.477 211.909 192.504C202.316 188.53 194.117 181.801 188.348 173.167C182.579 164.534 179.5 154.384 179.5 144C179.5 130.076 185.031 116.723 194.877 106.877C204.723 97.0312 218.076 91.5 232 91.5Z" fill="#83CD29"/>
<path d="M232 196.5C230.583 196.501 229.192 196.128 227.965 195.42L215.125 187.819C213.209 186.746 214.142 186.368 214.776 186.146C216.814 185.517 218.766 184.635 220.585 183.521C220.737 183.451 220.905 183.42 221.072 183.433C221.24 183.445 221.401 183.5 221.541 183.593L231.407 189.454C231.591 189.551 231.796 189.602 232.004 189.602C232.211 189.602 232.416 189.551 232.6 189.454L271.075 167.246C271.255 167.138 271.404 166.986 271.507 166.803C271.61 166.62 271.664 166.414 271.664 166.204V121.781C271.664 121.568 271.609 121.358 271.505 121.173C271.4 120.987 271.25 120.831 271.067 120.72L232.592 98.5313C232.411 98.4291 232.206 98.3754 231.998 98.3754C231.79 98.3754 231.585 98.4291 231.404 98.5313L192.951 120.728C192.768 120.836 192.615 120.99 192.509 121.175C192.403 121.359 192.346 121.568 192.344 121.781V166.185C192.344 166.394 192.4 166.6 192.506 166.78C192.613 166.961 192.765 167.11 192.947 167.213L203.5 173.303C209.219 176.16 212.721 172.793 212.721 169.41V125.569C212.721 125.27 212.84 124.984 213.051 124.773C213.262 124.562 213.548 124.444 213.846 124.444H218.721C219.019 124.444 219.306 124.562 219.517 124.773C219.728 124.984 219.846 125.27 219.846 125.569V169.414C219.846 177.045 215.691 181.414 208.454 181.414C205.331 181.468 202.258 180.633 199.592 179.006L189.479 173.205C188.251 172.49 187.232 171.465 186.524 170.234C185.816 169.002 185.443 167.606 185.444 166.185V121.781C185.44 120.358 185.811 118.959 186.519 117.725C187.228 116.491 188.248 115.465 189.479 114.75L227.957 92.535C229.197 91.8569 230.587 91.5015 232 91.5015C233.413 91.5015 234.803 91.8569 236.042 92.535L274.517 114.75C275.745 115.464 276.764 116.487 277.473 117.717C278.181 118.948 278.555 120.343 278.556 121.763V166.185C278.554 167.606 278.18 169.001 277.472 170.233C276.763 171.464 275.745 172.489 274.517 173.205L236.042 195.42C234.813 196.129 233.419 196.502 232 196.5ZM245.08 165.536C257.271 165.536 264.261 160.736 264.261 152.351C264.261 144.041 258.636 141.825 246.82 140.265C234.872 138.683 233.657 137.869 233.657 135.071C233.657 132.761 234.685 129.679 243.535 129.679C251.44 129.679 254.354 131.381 255.535 136.71C255.592 136.955 255.729 137.174 255.925 137.331C256.121 137.489 256.364 137.576 256.615 137.58H261.625C261.779 137.578 261.93 137.544 262.07 137.481C262.211 137.418 262.336 137.327 262.44 137.214C262.544 137.1 262.623 136.967 262.673 136.821C262.723 136.676 262.743 136.522 262.731 136.369C261.959 127.189 255.861 122.91 243.531 122.91C232.562 122.91 226.019 127.541 226.019 135.304C226.019 143.726 232.529 146.051 243.059 147.094C255.655 148.328 256.634 150.169 256.634 152.648C256.634 156.949 253.184 158.783 245.076 158.783C234.895 158.783 232.652 156.225 231.902 151.163C231.859 150.9 231.724 150.662 231.522 150.489C231.319 150.317 231.062 150.222 230.796 150.221H225.816C225.518 150.221 225.232 150.34 225.021 150.551C224.81 150.762 224.691 151.048 224.691 151.346C224.702 157.808 228.231 165.536 245.069 165.536H245.08Z" fill="white"/>
</svg>
