<svg width="463" height="288" viewBox="0 0 463 288" fill="none" xmlns="http://www.w3.org/2000/svg">
<rect width="463" height="288" fill="#101828"/>
<path d="M238.405 177.75H277.439C278.681 177.745 279.9 177.412 280.973 176.787C282.047 176.162 282.937 175.265 283.555 174.188C284.176 173.103 284.502 171.875 284.502 170.625C284.502 169.375 284.176 168.147 283.555 167.063L257.335 121.26C256.725 120.175 255.838 119.271 254.763 118.642C253.688 118.013 252.466 117.681 251.221 117.681C249.975 117.681 248.753 118.013 247.678 118.642C246.604 119.271 245.716 120.175 245.106 121.26L238.401 132.979L225.299 110.063C224.689 108.977 223.8 108.074 222.726 107.445C221.651 106.816 220.428 106.484 219.182 106.484C217.937 106.484 216.714 106.816 215.639 107.445C214.565 108.074 213.676 108.977 213.066 110.063L180.441 167.063C179.507 168.699 179.255 170.638 179.739 172.459C180.224 174.28 181.405 175.837 183.029 176.794C184.101 177.42 185.316 177.75 186.557 177.75H211.06C220.769 177.75 227.927 173.449 232.851 165.056L244.814 144.161L251.219 132.979L270.445 166.568H244.814L238.405 177.75ZM210.662 166.556L193.562 166.553L219.197 121.77L231.985 144.158L223.424 159.128C220.15 164.573 216.434 166.556 210.662 166.556Z" fill="#00DC82"/>
</svg>
