<svg width="463" height="288" viewBox="0 0 463 288" fill="none" xmlns="http://www.w3.org/2000/svg">
<rect width="463" height="288" fill="#101828"/>
<g clip-path="url(#clip0_466_8013)">
<path d="M263.875 84H200.125C184.592 84 172 96.592 172 112.125V175.875C172 191.408 184.592 204 200.125 204H263.875C279.408 204 292 191.408 292 175.875V112.125C292 96.592 279.408 84 263.875 84Z" fill="#242938"/>
<path d="M195.043 130.99H208.359C212.268 131.023 215.1 132.15 216.856 134.369C218.612 136.588 219.191 139.619 218.595 143.462C218.363 145.218 217.849 146.94 217.054 148.629C216.292 150.319 215.233 151.842 213.874 153.201C212.218 154.923 210.446 156.016 208.558 156.48C206.67 156.944 204.715 157.176 202.695 157.176H196.732L194.844 166.616H187.938L195.043 130.99ZM200.856 136.655L197.875 151.561C198.074 151.594 198.273 151.611 198.471 151.611H199.167C202.347 151.643 204.997 151.329 207.117 150.667C209.237 149.971 210.662 147.553 211.39 143.412C211.986 139.934 211.39 137.93 209.601 137.4C207.845 136.87 205.643 136.622 202.993 136.655C202.595 136.688 202.215 136.704 201.85 136.704H200.807L200.856 136.655ZM226.462 121.5H233.319L231.381 130.99H237.543C240.921 131.057 243.438 131.752 245.095 133.077C246.784 134.402 247.281 136.92 246.586 140.63L243.257 157.176H236.3L239.48 141.375C239.811 139.718 239.712 138.543 239.182 137.847C238.653 137.152 237.51 136.804 235.754 136.804L230.238 136.754L226.164 157.176H219.307L226.462 121.5ZM253.949 130.99H267.265C271.173 131.023 274.006 132.15 275.762 134.369C277.518 136.588 278.097 139.619 277.501 143.462C277.269 145.218 276.755 146.94 275.96 148.629C275.198 150.319 274.139 151.842 272.78 153.201C271.124 154.923 269.352 156.016 267.464 156.48C265.576 156.944 263.621 157.176 261.601 157.176H255.638L253.75 166.616H246.843L253.949 130.99ZM259.762 136.655L256.781 151.561C256.98 151.594 257.178 151.611 257.377 151.611H258.073C261.253 151.643 263.903 151.329 266.023 150.667C268.143 149.971 269.567 147.553 270.296 143.412C270.892 139.934 270.296 137.93 268.507 137.4C266.751 136.87 264.549 136.622 261.899 136.655C261.501 136.688 261.121 136.704 260.756 136.704H259.712L259.762 136.655Z" fill="white"/>
</g>
<defs>
<clipPath id="clip0_466_8013">
<rect width="120" height="120" fill="white" transform="translate(172 84)"/>
</clipPath>
</defs>
</svg>
