<svg width="463" height="288" viewBox="0 0 463 288" fill="none" xmlns="http://www.w3.org/2000/svg">
<rect width="463" height="288" fill="#101828"/>
<g clip-path="url(#clip0_446_7734)">
<path d="M270.664 123.734C269.387 123.294 268.099 122.886 266.801 122.512C267.019 121.618 267.22 120.735 267.398 119.867C270.322 105.62 268.411 94.1424 261.881 90.3634C255.621 86.7406 245.383 90.5182 235.044 99.5503C234.025 100.442 233.028 101.359 232.055 102.302C231.404 101.675 230.741 101.061 230.067 100.459C219.231 90.8014 208.369 86.7312 201.847 90.521C195.592 94.1551 193.74 104.945 196.373 118.447C196.635 119.784 196.93 121.115 197.26 122.437C195.722 122.876 194.238 123.342 192.819 123.839C180.114 128.285 172 135.253 172 142.48C172 149.944 180.71 157.431 193.943 161.971C195.016 162.338 196.098 162.677 197.187 162.99C196.833 164.414 196.519 165.848 196.245 167.289C193.735 180.557 195.695 191.092 201.933 194.703C208.375 198.432 219.189 194.6 229.717 185.361C230.571 184.61 231.406 183.838 232.221 183.045C233.275 184.065 234.356 185.056 235.465 186.016C245.664 194.824 255.737 198.381 261.968 194.76C268.405 191.021 270.497 179.703 267.781 165.934C267.567 164.856 267.327 163.782 267.061 162.715C267.82 162.489 268.566 162.257 269.292 162.015C283.049 157.44 292 150.044 292 142.48C292 135.226 283.624 128.212 270.664 123.734ZM267.68 157.131C267.024 157.349 266.351 157.559 265.665 157.764C264.146 152.938 262.097 147.807 259.588 142.505C261.982 137.33 263.952 132.264 265.428 127.469C266.656 127.826 267.847 128.202 268.996 128.599C280.1 132.436 286.874 138.109 286.874 142.48C286.874 147.136 279.558 153.181 267.68 157.131ZM262.752 166.934C263.953 173.022 264.124 178.527 263.328 182.83C262.614 186.697 261.177 189.275 259.399 190.308C255.618 192.505 247.531 189.649 238.809 182.115C237.778 181.223 236.771 180.302 235.791 179.354C239.173 175.642 242.552 171.327 245.85 166.535C251.651 166.018 257.132 165.173 262.102 164.02C262.342 164.986 262.558 165.957 262.752 166.934ZM212.911 189.928C209.216 191.237 206.273 191.275 204.494 190.246C200.709 188.055 199.135 179.596 201.282 168.249C201.537 166.908 201.829 165.575 202.158 164.25C207.073 165.342 212.514 166.127 218.329 166.6C221.65 171.289 225.126 175.6 228.63 179.374C227.886 180.097 227.123 180.802 226.344 181.487C221.688 185.572 217.022 188.47 212.911 189.928ZM195.602 157.103C189.75 155.095 184.918 152.486 181.606 149.639C178.629 147.081 177.127 144.541 177.127 142.48C177.127 138.094 183.641 132.5 194.506 128.698C195.825 128.237 197.205 127.802 198.637 127.393C200.139 132.296 202.108 137.422 204.485 142.605C202.077 147.865 200.08 153.073 198.563 158.034C197.568 157.748 196.581 157.437 195.602 157.103ZM201.404 117.459C199.149 105.891 200.646 97.1644 204.415 94.9743C208.43 92.6415 217.307 95.9675 226.664 104.307C227.274 104.852 227.874 105.408 228.464 105.974C224.978 109.732 221.533 114.01 218.242 118.672C212.598 119.197 207.196 120.04 202.229 121.17C201.923 119.94 201.648 118.702 201.404 117.459ZM253.166 130.288C251.993 128.254 250.777 126.246 249.517 124.264C253.346 124.75 257.014 125.395 260.459 126.184C259.425 129.511 258.136 132.99 256.619 136.556C255.51 134.444 254.359 132.354 253.166 130.288ZM232.058 109.652C234.422 112.223 236.79 115.094 239.119 118.208C234.394 117.984 229.661 117.983 224.936 118.205C227.268 115.119 229.656 112.253 232.058 109.652ZM210.813 130.323C209.636 132.373 208.507 134.45 207.426 136.552C205.933 132.998 204.656 129.504 203.613 126.129C207.037 125.361 210.688 124.732 214.492 124.255C213.219 126.248 211.992 128.272 210.813 130.323ZM214.601 161.071C210.671 160.631 206.965 160.035 203.542 159.287C204.602 155.852 205.907 152.283 207.432 148.653C208.517 150.757 209.651 152.835 210.834 154.886C212.05 156.993 213.309 159.058 214.601 161.071ZM232.199 175.671C229.769 173.04 227.346 170.129 224.979 166.998C227.277 167.088 229.619 167.134 232 167.134C234.446 167.134 236.864 167.079 239.244 166.973C236.907 170.16 234.548 173.075 232.199 175.671ZM256.667 148.468C258.271 152.138 259.623 155.688 260.696 159.064C257.217 159.861 253.461 160.502 249.503 160.979C250.771 158.961 251.999 156.918 253.187 154.85C254.394 152.749 255.554 150.621 256.667 148.468ZM248.746 152.28C246.928 155.449 245.008 158.558 242.989 161.602C239.332 161.862 235.667 161.992 232 161.99C228.265 161.99 224.633 161.873 221.135 161.645C219.064 158.608 217.107 155.493 215.27 152.308C213.441 149.139 211.734 145.902 210.15 142.603C211.73 139.303 213.433 136.064 215.255 132.893L215.254 132.894C217.076 129.722 219.017 126.62 221.073 123.596C224.642 123.325 228.301 123.184 232 123.184C235.715 123.184 239.38 123.327 242.947 123.6C244.983 126.619 246.911 129.71 248.729 132.866C250.558 136.03 252.283 139.253 253.902 142.53C252.299 145.84 250.58 149.092 248.746 152.28ZM259.321 94.8209C263.339 97.147 264.902 106.527 262.377 118.828C262.216 119.613 262.035 120.412 261.838 121.223C256.859 120.069 251.453 119.212 245.793 118.679C242.496 113.966 239.079 109.681 235.649 105.972C236.548 105.102 237.468 104.255 238.409 103.431C247.269 95.6927 255.549 92.6373 259.321 94.8209ZM232 131.725C237.918 131.725 242.716 136.54 242.716 142.48C242.716 148.42 237.918 153.236 232 153.236C226.082 153.236 221.284 148.42 221.284 142.48C221.284 136.54 226.082 131.725 232 131.725Z" fill="#00D8FF"/>
</g>
<defs>
<clipPath id="clip0_446_7734">
<rect width="120" height="107.273" fill="white" transform="translate(172 89)"/>
</clipPath>
</defs>
</svg>
