<svg width="463" height="288" viewBox="0 0 463 288" fill="none" xmlns="http://www.w3.org/2000/svg">
<rect width="463" height="288" fill="#101828"/>
<path d="M273.276 184.635C273.277 186.193 272.97 187.736 272.374 189.175C271.778 190.615 270.905 191.923 269.803 193.025C268.702 194.126 267.394 195 265.955 195.597C264.516 196.193 262.973 196.5 261.415 196.5H190.724V103.365C190.724 100.219 191.973 97.2015 194.197 94.9765C196.422 92.7515 199.439 91.501 202.585 91.5H273.276V184.635Z" fill="#80152A"/>
<path d="M271.375 183.521C271.411 184.981 271.149 186.433 270.607 187.789C270.064 189.145 269.252 190.377 268.219 191.409C267.187 192.442 265.955 193.254 264.599 193.797C263.243 194.339 261.791 194.601 260.331 194.565H192.625V104.479C192.59 103.019 192.852 101.567 193.395 100.211C193.938 98.8555 194.751 97.6241 195.784 96.5918C196.817 95.5595 198.048 94.7477 199.405 94.2058C200.761 93.6638 202.213 93.4029 203.673 93.4388H271.375V183.521Z" fill="url(#paint0_linear_466_7977)"/>
<path d="M209.871 93.5288L210.126 116.479L193.071 122.19L209.871 93.5288Z" fill="#8A2034"/>
<path d="M209.871 93.5288L210.126 116.479L232.634 107.096L209.871 93.5288Z" fill="url(#paint1_linear_466_7977)"/>
<path d="M200.553 139.117L210.126 116.479L193.071 122.19L200.553 139.117Z" fill="#AE2338"/>
<path d="M200.552 139.118L209.999 162.135L192.88 156.619L200.552 139.118Z" fill="url(#paint2_linear_466_7977)"/>
<path d="M209.905 194.407L209.999 162.135L192.88 156.619L209.905 194.407Z" fill="#8A2034"/>
<path d="M209.905 194.407L192.88 194.411V156.619L209.905 194.407Z" fill="#8C2033"/>
<path d="M209.905 194.407L209.999 162.135L232.592 171.431L209.905 194.407Z" fill="url(#paint3_linear_466_7977)"/>
<path d="M255.205 93.6562L255.46 116.61L232.634 107.096L255.205 93.6562Z" fill="url(#paint4_linear_466_7977)"/>
<path d="M255.205 93.6562L255.46 116.61L271.315 122.254L255.205 93.6562Z" fill="url(#paint5_linear_466_7977)"/>
<path d="M264.764 139.387L255.46 116.61L271.315 122.254L264.764 139.387Z" fill="url(#paint6_linear_466_7977)"/>
<path d="M264.764 139.388L255.396 162.038L271.281 156.364L264.764 139.388Z" fill="url(#paint7_linear_466_7977)"/>
<path d="M255.588 194.348L255.396 162.038L271.281 156.364L255.588 194.348Z" fill="url(#paint8_linear_466_7977)"/>
<path d="M255.587 194.348L255.396 162.038L232.607 171.424L255.587 194.348Z" fill="url(#paint9_linear_466_7977)"/>
<path d="M255.587 194.348L209.909 194.411L232.607 171.424L255.587 194.348Z" fill="url(#paint10_linear_466_7977)"/>
<path d="M234.947 146.164L240.085 148.519L239.564 144.859L234.88 142.339L234.947 146.164ZM196 158.426L202.69 159.176L204.149 152.959L197.744 151.834L196 158.426ZM219.794 115.376L215.406 112.125L212.361 116.25L217.165 119.25L219.794 115.376ZM233.204 104.501L230.399 100.841L226.454 103.17L229.735 106.74L233.204 104.501ZM247.66 101.933L246.756 98.9326L242.001 98.5576L243.381 101.839L247.66 101.933ZM263.736 105.683L259.743 102.829V104.681L263.594 107.063L263.736 105.683ZM209.744 132.255L204.276 129.878L202.42 135.296L208.045 137.389L209.744 132.255ZM236.969 129.803L235.994 133.155L239.515 136.391L240.396 133.275L236.969 129.803ZM259.439 114.803L262.364 114.945L262.39 113.588L259.345 112.969L259.439 114.803ZM247.281 103.5C233.215 102.803 208.034 116.134 204.419 169.616H238.919C231.186 149.58 232.083 134.464 237.4 124.219C245.133 109.32 256.645 108.334 267.4 114.615C267.775 113.711 268.304 112.571 268.304 112.571C265.587 109.727 262.326 107.458 258.714 105.9C255.103 104.341 251.215 103.525 247.281 103.5ZM248.313 114.6L249.595 117.668L251.973 116.385L251.091 113.554L248.313 114.6ZM240.513 121.568L243.137 125.16L244.754 122.805L242.463 119.25L240.513 121.568ZM244.506 163.369L242.875 159.431L236.905 158.306L238.476 162.806L244.506 163.369Z" fill="#F7DEE1"/>
<path d="M213.134 115.234L217.259 113.509L215.406 112.136L213.134 115.234ZM229.72 106.721L230.815 106.012L226.953 103.71L229.72 106.721Z" fill="white"/>
<path d="M197.732 151.834L196.184 157.684L199.851 158.865L202.675 159.188L204.134 152.97L197.732 151.834ZM206.369 153.293C205.956 155.63 205.591 158.07 205.274 160.613L209.999 162.135L206.369 153.293Z" fill="#D7C4C9"/>
<path d="M196.184 157.684L195.989 158.426L199.851 158.865L196.184 157.684ZM209.999 162.135L205.274 160.612C204.907 163.604 204.622 166.605 204.419 169.612H209.976L209.999 162.135Z" fill="#C2C3C6"/>
<path d="M209.976 169.616H228.179L209.999 162.135L209.976 169.616Z" fill="#DDC3C8"/>
<path d="M260.8 103.586L259.727 102.836V104.689L262.311 106.286L260.8 103.586ZM263.687 108.716C261.157 106.901 258.328 105.544 255.329 104.708L255.396 110.966C259.431 111.087 263.367 112.236 266.834 114.304L263.687 108.716ZM259.439 114.803L262.364 114.945L262.39 113.588L259.345 112.969L259.439 114.803Z" fill="url(#paint11_linear_466_7977)"/>
<path d="M255.329 104.708C252.701 104 250.001 103.595 247.281 103.5C242.216 103.381 237.216 104.659 232.829 107.194L247.15 113.149C249.659 111.707 252.506 110.956 255.4 110.97L255.329 104.708ZM247.641 101.914L246.737 98.9138L246.411 98.8838L242.987 100.92L243.362 101.809L247.641 101.914ZM249.516 114.131L251.534 114.975L251.087 113.543L249.516 114.131Z" fill="url(#paint12_linear_466_7977)"/>
<path d="M210.318 181.665V179.122C210.257 178.132 209.834 177.198 209.131 176.497C208.427 175.797 207.491 175.38 206.5 175.324H198.426V190.575H202.551V186.135L205.881 190.575H210.828L206.958 185.437C207.857 185.27 208.674 184.808 209.283 184.126C209.891 183.443 210.255 182.577 210.318 181.665ZM206.26 182.415H202.51V179.34H206.26V182.415ZM222.269 175.249H218.519C217.495 175.297 216.528 175.734 215.816 176.471C215.103 177.207 214.698 178.188 214.683 179.212V190.5H218.74V187.522H222.385V190.5H226.51V179.19C226.46 178.109 225.988 177.091 225.194 176.355C224.401 175.619 223.35 175.224 222.269 175.256V175.249ZM222.393 183.427H218.748V179.34H222.393V183.427ZM260.125 180.75H256.158V179.085H263.125V175.316H256.135C255.073 175.296 254.046 175.693 253.275 176.422C252.503 177.152 252.049 178.155 252.01 179.216V180.832C252.044 181.898 252.489 182.908 253.252 183.653C254.014 184.397 255.035 184.818 256.101 184.826H259.788V186.679H252.288V190.53H259.675C260.715 190.574 261.733 190.216 262.517 189.53C263.301 188.845 263.791 187.884 263.886 186.847V184.826C263.918 183.789 263.542 182.782 262.838 182.019C262.135 181.257 261.161 180.801 260.125 180.75ZM243.501 175.282H239.414V190.549H249.625V186.465H243.513L243.501 175.282ZM230.901 190.549H235V175.29H230.909L230.901 190.549Z" fill="white"/>
<defs>
<linearGradient id="paint0_linear_466_7977" x1="192.629" y1="144" x2="271.375" y2="144" gradientUnits="userSpaceOnUse">
<stop offset="0.08" stop-color="#AA2237"/>
<stop offset="0.982" stop-color="#B4313D"/>
</linearGradient>
<linearGradient id="paint1_linear_466_7977" x1="209.871" y1="105.004" x2="232.634" y2="105.004" gradientUnits="userSpaceOnUse">
<stop offset="0.037" stop-color="#B83A41"/>
<stop offset="0.896" stop-color="#BF4A50"/>
</linearGradient>
<linearGradient id="paint2_linear_466_7977" x1="201.441" y1="162.135" x2="201.441" y2="139.118" gradientUnits="userSpaceOnUse">
<stop offset="0.037" stop-color="#A92237"/>
<stop offset="0.939" stop-color="#972235"/>
</linearGradient>
<linearGradient id="paint3_linear_466_7977" x1="221.249" y1="194.407" x2="221.249" y2="162.135" gradientUnits="userSpaceOnUse">
<stop offset="0.037" stop-color="#BC4245"/>
<stop offset="0.939" stop-color="#A42136"/>
</linearGradient>
<linearGradient id="paint4_linear_466_7977" x1="244.045" y1="116.61" x2="244.045" y2="93.6562" gradientUnits="userSpaceOnUse">
<stop offset="0.037" stop-color="#CC5057"/>
<stop offset="0.896" stop-color="#B73840"/>
</linearGradient>
<linearGradient id="paint5_linear_466_7977" x1="253.66" y1="113.498" x2="263.41" y2="107.869" gradientUnits="userSpaceOnUse">
<stop offset="0.08" stop-color="#D4575F"/>
<stop offset="0.945" stop-color="#B63540"/>
</linearGradient>
<linearGradient id="paint6_linear_466_7977" x1="255.46" y1="127.999" x2="271.315" y2="127.999" gradientUnits="userSpaceOnUse">
<stop stop-color="#C04B51"/>
<stop offset="1" stop-color="#B83A41"/>
</linearGradient>
<linearGradient id="paint7_linear_466_7977" x1="255.396" y1="150.713" x2="271.281" y2="150.713" gradientUnits="userSpaceOnUse">
<stop stop-color="#BA4044"/>
<stop offset="1" stop-color="#B4303C"/>
</linearGradient>
<linearGradient id="paint8_linear_466_7977" x1="252.059" y1="171.214" x2="264.261" y2="175.658" gradientUnits="userSpaceOnUse">
<stop stop-color="#972136"/>
<stop offset="1" stop-color="#9F2236"/>
</linearGradient>
<linearGradient id="paint9_linear_466_7977" x1="241.607" y1="163.875" x2="262.386" y2="188.64" gradientUnits="userSpaceOnUse">
<stop offset="0.037" stop-color="#B22C3A"/>
<stop offset="0.939" stop-color="#C04D53"/>
</linearGradient>
<linearGradient id="paint10_linear_466_7977" x1="232.746" y1="194.411" x2="232.746" y2="171.424" gradientUnits="userSpaceOnUse">
<stop offset="0.037" stop-color="#B22C3A"/>
<stop offset="0.939" stop-color="#9B2135"/>
</linearGradient>
<linearGradient id="paint11_linear_466_7977" x1="255.329" y1="108.881" x2="266.837" y2="108.881" gradientUnits="userSpaceOnUse">
<stop offset="0.037" stop-color="white"/>
<stop offset="0.742" stop-color="#F4E6D9"/>
</linearGradient>
<linearGradient id="paint12_linear_466_7977" x1="236.357" y1="101.07" x2="254.924" y2="111.791" gradientUnits="userSpaceOnUse">
<stop offset="0.037" stop-color="white"/>
<stop offset="0.896" stop-color="#F4E6D9"/>
</linearGradient>
</defs>
</svg>
