<svg width="463" height="288" viewBox="0 0 463 288" fill="none" xmlns="http://www.w3.org/2000/svg">
<rect width="463" height="288" fill="#101828"/>
<g clip-path="url(#clip0_446_7727)">
<path d="M198.672 84H265.141C268.375 84 271.516 84.5156 274.562 85.5938C278.969 87.1875 282.953 90 285.953 93.6562C289 97.3125 291.016 101.812 291.719 106.5C292 108.234 292.047 109.969 292.047 111.703V176.531C292.047 178.594 291.953 180.703 291.531 182.719C290.594 187.359 288.391 191.719 285.203 195.234C282.062 198.75 277.937 201.375 273.484 202.781C270.766 203.625 267.953 204 265.094 204C263.828 204 198.484 204 197.5 203.953C192.719 203.719 187.984 202.172 184 199.5C180.109 196.875 176.922 193.219 174.859 189C173.078 185.391 172.187 181.359 172.187 177.328V110.672C172.094 106.688 172.937 102.75 174.672 99.1875C176.687 94.9688 179.828 91.2656 183.719 88.6406C187.703 85.9219 192.391 84.3281 197.172 84.0938C197.641 84 198.156 84 198.672 84Z" fill="url(#paint0_linear_446_7727)"/>
<path d="M273.25 182.156C272.828 181.5 272.359 180.844 271.844 180.234C270.672 178.828 269.312 177.609 267.812 176.578C265.938 175.313 263.734 174.516 261.484 174.422C259.891 174.328 258.297 174.609 256.797 175.172C255.297 175.688 253.844 176.438 252.438 177.188C250.797 178.031 249.156 178.875 247.422 179.578C245.359 180.422 243.203 181.078 241 181.547C238.234 182.063 235.422 182.25 232.656 182.203C227.641 182.109 222.625 181.359 217.844 179.953C213.625 178.688 209.594 176.953 205.797 174.75C202.469 172.828 199.375 170.625 196.469 168.141C194.078 166.078 191.875 163.875 189.812 161.531C188.406 159.891 187.047 158.156 185.781 156.375C185.266 155.672 184.797 154.922 184.375 154.172L172 140.813V110.578C172 95.9063 183.859 84 198.531 84H222.203L239.734 101.813C279.297 128.719 266.5 158.391 266.5 158.391C266.5 158.391 277.75 171.047 273.25 182.156Z" fill="url(#paint1_linear_446_7727)"/>
<path d="M239.828 101.812C279.391 128.719 266.594 158.391 266.594 158.391C266.594 158.391 277.844 171.094 273.297 182.203C273.297 182.203 268.656 174.422 260.875 174.422C253.375 174.422 248.969 182.203 233.875 182.203C200.266 182.203 184.375 154.125 184.375 154.125C214.656 174.047 235.328 159.938 235.328 159.938C221.688 152.016 192.672 114.141 192.672 114.141C217.938 135.656 228.859 141.328 228.859 141.328C222.344 135.938 204.063 109.594 204.063 109.594C218.688 124.406 247.75 145.078 247.75 145.078C256 122.203 239.828 101.812 239.828 101.812Z" fill="white"/>
</g>
<defs>
<linearGradient id="paint0_linear_446_7727" x1="243.386" y1="79.718" x2="220.714" y2="208.297" gradientUnits="userSpaceOnUse">
<stop stop-color="#FAAE42"/>
<stop offset="1" stop-color="#EF3E31"/>
</linearGradient>
<linearGradient id="paint1_linear_446_7727" x1="233.224" y1="85.9388" x2="216.631" y2="180.044" gradientUnits="userSpaceOnUse">
<stop stop-color="#E39F3A"/>
<stop offset="1" stop-color="#D33929"/>
</linearGradient>
<clipPath id="clip0_446_7727">
<rect width="120" height="120" fill="white" transform="translate(172 84)"/>
</clipPath>
</defs>
</svg>
