<svg width="162" height="120" viewBox="0 0 162 120" fill="none" xmlns="http://www.w3.org/2000/svg">
<path d="M161.524 105.454H0.476074V105.535H161.524V105.454Z" fill="#EBEBEB"/>
<path d="M145.387 110.637H134.719V110.717H145.387V110.637Z" fill="#EBEBEB"/>
<path d="M107.161 111.513H104.362V111.593H107.161V111.513Z" fill="#EBEBEB"/>
<path d="M134.397 107.648H128.216V107.728H134.397V107.648Z" fill="#EBEBEB"/>
<path d="M31.2844 108.189H17.373V108.269H31.2844V108.189Z" fill="#EBEBEB"/>
<path d="M36.1932 108.189H34.1543V108.269H36.1932V108.189Z" fill="#EBEBEB"/>
<path d="M72.996 109.548H42.822V109.628H72.996V109.548Z" fill="#EBEBEB"/>
<path d="M76.8126 91.0887H14.6191C14.1319 91.0878 13.665 90.8937 13.3207 90.5489C12.9765 90.2041 12.7832 89.7367 12.7832 89.2495V1.82306C12.7874 1.33864 12.9826 0.875449 13.3264 0.534105C13.6702 0.192761 14.1347 0.000829844 14.6191 0H76.8126C77.3004 0 77.7682 0.193769 78.1131 0.53868C78.458 0.88359 78.6518 1.35139 78.6518 1.83917V89.2495C78.6518 89.7373 78.458 90.2051 78.1131 90.55C77.7682 90.8949 77.3004 91.0887 76.8126 91.0887ZM14.6191 0.0644194C14.1533 0.0652726 13.7068 0.250934 13.3777 0.580651C13.0486 0.910368 12.8637 1.3572 12.8637 1.82306V89.2495C12.8637 89.7154 13.0486 90.1622 13.3777 90.4919C13.7068 90.8216 14.1533 91.0073 14.6191 91.0082H76.8126C77.2788 91.0073 77.7256 90.8218 78.0552 90.4921C78.3849 90.1625 78.5704 89.7157 78.5713 89.2495V1.82306C78.5704 1.3569 78.3849 0.910079 78.0552 0.580454C77.7256 0.250829 77.2788 0.0652708 76.8126 0.0644194H14.6191Z" fill="#EBEBEB"/>
<path d="M146.485 91.0887H84.2886C83.8011 91.0878 83.3338 90.8938 82.9891 90.5491C82.6444 90.2043 82.4503 89.737 82.4495 89.2495V1.82306C82.4545 1.33834 82.6505 0.875159 82.9947 0.533904C83.339 0.192648 83.8039 0.000820793 84.2886 0H146.485C146.969 0.00167635 147.433 0.193982 147.776 0.535236C148.119 0.876489 148.314 1.33919 148.318 1.82306V89.2495C148.318 89.7362 148.125 90.203 147.782 90.5477C147.438 90.8925 146.972 91.087 146.485 91.0887ZM84.2886 0.0644194C83.8225 0.0652708 83.3756 0.250829 83.046 0.580454C82.7164 0.910079 82.5308 1.3569 82.53 1.82306V89.2495C82.5308 89.7157 82.7164 90.1625 83.046 90.4921C83.3756 90.8218 83.8225 91.0073 84.2886 91.0082H146.485C146.951 91.0073 147.398 90.8218 147.728 90.4921C148.058 90.1625 148.243 89.7157 148.244 89.2495V1.82306C148.243 1.3569 148.058 0.910079 147.728 0.580454C147.398 0.250829 146.951 0.0652708 146.485 0.0644194H84.2886Z" fill="#EBEBEB"/>
<path d="M71.0473 105.454H77.0447V64.2678H71.0473V105.454Z" fill="#E6E6E6"/>
<path d="M73.1603 105.454H71.0474V97.6272H75.3731L73.1603 105.454Z" fill="#F0F0F0"/>
<path d="M134.478 105.454H140.475V64.2678H134.478V105.454Z" fill="#E6E6E6"/>
<path d="M71.0503 103.315L136.32 103.315V64.2645H71.0503V103.315Z" fill="#F0F0F0"/>
<path d="M134.207 105.454H136.32V97.6272H131.994L134.207 105.454Z" fill="#F0F0F0"/>
<path d="M114.801 67.4984V99.8014H134.149V67.4984H114.801Z" fill="#E6E6E6"/>
<path d="M122.55 68.6354H126.377C127.999 68.6588 129.571 68.0739 130.783 66.9959H118.163C119.371 68.0688 120.935 68.6533 122.55 68.6354Z" fill="#F0F0F0"/>
<path d="M94.0093 67.4984V99.8014H113.358V67.4984H94.0093Z" fill="#E6E6E6"/>
<path d="M101.572 68.6354H105.402C107.02 68.6557 108.588 68.0711 109.798 66.9959H97.1787C98.3875 68.0711 99.9544 68.6558 101.572 68.6354Z" fill="#F0F0F0"/>
<path d="M73.2183 67.5016V99.8046H92.5666V67.5016H73.2183Z" fill="#E6E6E6"/>
<path d="M80.7843 68.6354H84.6108C86.2294 68.6557 87.7973 68.0711 89.0074 66.9959H76.3877C77.5975 68.0716 79.1656 68.6563 80.7843 68.6354Z" fill="#F0F0F0"/>
<path d="M24.5044 105.454H65.4299L65.4299 13.4572H24.5044L24.5044 105.454Z" fill="#F0F0F0"/>
<path d="M24.5044 105.454H64.5667L64.5667 13.4572H24.5044L24.5044 105.454Z" fill="#F5F5F5"/>
<path d="M62.125 103.367L62.125 15.5443L26.9457 15.5443L26.9457 103.367H62.125Z" fill="#F0F0F0"/>
<path d="M58.6692 31.8875C58.6696 30.628 58.4219 29.3808 57.9402 28.217C57.4585 27.0533 56.7523 25.9958 55.8618 25.1051C54.9714 24.2144 53.9142 23.5078 52.7506 23.0257C51.587 22.5436 50.3399 22.2955 49.0804 22.2955H39.9973C37.4533 22.2955 35.0136 23.3061 33.2147 25.1049C31.4159 26.9038 30.4053 29.3435 30.4053 31.8875H58.6692Z" fill="#FAFAFA"/>
<path d="M58.6724 97.9075V76.9261H30.4085V97.9075H58.6724Z" fill="#F5F5F5"/>
<path d="M58.6724 37.7915H46.2041V74.2173H58.6724V37.7915Z" fill="#F5F5F5"/>
<path d="M42.8736 37.7915H30.4053V74.2173H42.8736V37.7915Z" fill="#F5F5F5"/>
<path d="M34.9403 55.8417H29.819C29.6088 55.8417 29.4073 55.7582 29.2587 55.6097C29.1101 55.4611 29.0266 55.2595 29.0266 55.0494C29.0275 54.8395 29.1112 54.6384 29.2596 54.49C29.408 54.3416 29.6091 54.2579 29.819 54.257H34.9403C35.1502 54.2579 35.3512 54.3416 35.4996 54.49C35.648 54.6384 35.7318 54.8395 35.7326 55.0494C35.7326 55.2595 35.6492 55.4611 35.5006 55.6097C35.352 55.7582 35.1504 55.8417 34.9403 55.8417Z" fill="#E0E0E0"/>
<path d="M27.5806 103.367L27.5806 15.5443H26.946L26.946 103.367H27.5806Z" fill="#F0F0F0"/>
<path d="M91.3201 54.17L134.719 54.17V8.80286L91.3201 8.80286V54.17Z" fill="#E6E6E6"/>
<path d="M90.2248 54.17L133.624 54.17V8.80286L90.2248 8.80286V54.17Z" fill="#F5F5F5"/>
<path d="M87.69 56.5278L134.719 56.5278V54.1701L87.69 54.1701V56.5278Z" fill="#E6E6E6"/>
<path d="M86.4564 56.5278L131.063 56.5278V54.1701L86.4564 54.1701V56.5278Z" fill="#F5F5F5"/>
<path d="M131.663 52.0539V10.9222L92.1898 10.9222V52.0539H131.663Z" fill="white"/>
<path d="M113.02 52.0539V10.9222H110.833V52.0539H113.02Z" fill="#F5F5F5"/>
<path d="M93.0142 52.0539V10.9222H92.1864V52.0539H93.0142Z" fill="#E6E6E6"/>
<path d="M113.847 52.0539V10.9222H113.019V52.0539H113.847Z" fill="#E6E6E6"/>
<path d="M97.1532 55.2491C96.3544 46.9777 95.7972 33.5592 96.2288 29.0691C96.2377 28.9926 96.2623 28.9188 96.3011 28.8523C96.3399 28.7857 96.392 28.728 96.4543 28.6826C96.5375 28.6217 96.6362 28.5853 96.739 28.5776C96.8419 28.57 96.9449 28.5914 97.0362 28.6394C97.1275 28.6874 97.2035 28.7601 97.2555 28.8491C97.3075 28.9382 97.3335 29.0401 97.3304 29.1432C97.2563 31.3689 97.1694 36.9283 97.6525 46.5171C97.8876 51.2905 98.2258 54.5695 97.9939 55.2491H97.1532Z" fill="#E6E6E6"/>
<path d="M94.1769 36.1875C91.9029 33.6623 87.2615 31.8682 82.5332 31.8778C80.6747 31.8778 88.1827 34.8121 91.3038 38.0492C93.7292 40.5616 96.4574 44.7907 97.3947 47.1387C96.7827 42.1946 96.4606 38.7095 94.1769 36.1875Z" fill="#E6E6E6"/>
<path d="M98.683 36.9572C100.571 34.3289 104.925 32.3062 109.634 32.0775C111.483 31.9873 104.442 35.2984 101.814 38.6676C99.7749 41.2926 97.6813 45.6442 97.1048 48.0277C96.9727 43.0771 96.7827 39.5855 98.683 36.9572Z" fill="#E6E6E6"/>
<path d="M94.0771 26.9723C92.1446 24.8336 88.2214 23.3133 84.2146 23.3229C82.6428 23.3229 88.9977 25.8095 91.6421 28.5473C93.6971 30.6764 96.0129 34.2581 96.7956 36.2454C96.2899 32.0646 96.0001 29.1078 94.0771 26.9723Z" fill="#E6E6E6"/>
<path d="M97.8908 30.132C99.5013 27.9064 103.176 26.1928 107.17 25.9995C108.736 25.9255 102.774 28.718 100.548 31.5815C98.8217 33.8039 97.047 37.4887 96.5606 39.5082C96.4607 35.3146 96.2932 32.3577 97.8908 30.132Z" fill="#E6E6E6"/>
<path d="M97.4719 64.2678C96.2725 64.2681 95.1184 63.8094 94.2464 62.9859C93.3744 62.1624 92.8505 61.0364 92.7822 59.839L92.3667 52.6498H102.58L102.165 59.839C102.097 61.037 101.572 62.1634 100.699 62.987C99.8268 63.8106 98.6719 64.2689 97.4719 64.2678Z" fill="#E6E6E6"/>
<path d="M103.241 54.2828H91.7065L91.3748 51.2905H103.569L103.241 54.2828Z" fill="#E6E6E6"/>
<path d="M81 120C115.491 120 143.451 118.368 143.451 116.354C143.451 114.34 115.491 112.708 81 112.708C46.5092 112.708 18.5488 114.34 18.5488 116.354C18.5488 118.368 46.5092 120 81 120Z" fill="#F5F5F5"/>
<path d="M17.3218 18.8522C17.3235 18.3163 17.5371 17.8028 17.9161 17.4238C18.2951 17.0448 18.8086 16.8312 19.3445 16.8295H109.602C110.138 16.8312 110.652 17.0448 111.031 17.4238C111.41 17.8028 111.623 18.3163 111.625 18.8522V25.3618H17.3218V18.8522Z" fill="#263238"/>
<path d="M33.6744 22.8011C33.3368 22.8011 33.0067 22.701 32.726 22.5134C32.4452 22.3258 32.2264 22.0592 32.0972 21.7473C31.968 21.4354 31.9342 21.0921 32.0001 20.761C32.066 20.4298 32.2285 20.1256 32.4673 19.8869C32.706 19.6482 33.0102 19.4856 33.3414 19.4197C33.6725 19.3538 34.0157 19.3876 34.3277 19.5168C34.6396 19.6461 34.9062 19.8649 35.0938 20.1456C35.2814 20.4263 35.3815 20.7564 35.3815 21.094C35.3815 21.5468 35.2016 21.981 34.8815 22.3011C34.5614 22.6213 34.1271 22.8011 33.6744 22.8011ZM33.6744 19.7444C33.4075 19.7444 33.1465 19.8236 32.9246 19.9719C32.7027 20.1202 32.5297 20.3309 32.4275 20.5775C32.3254 20.8242 32.2987 21.0955 32.3507 21.3573C32.4028 21.6191 32.5314 21.8596 32.7201 22.0483C32.9088 22.237 33.1493 22.3656 33.4111 22.4177C33.6729 22.4697 33.9443 22.443 34.1909 22.3409C34.4375 22.2387 34.6482 22.0657 34.7965 21.8438C34.9448 21.6219 35.024 21.3609 35.024 21.094C35.0231 20.7363 34.8807 20.3936 34.6278 20.1407C34.3748 19.8877 34.0321 19.7453 33.6744 19.7444Z" fill="#F0F0F0"/>
<path d="M28.2537 22.8011C27.9162 22.8005 27.5865 22.6998 27.3062 22.5119C27.0258 22.3239 26.8075 22.057 26.6788 21.7451C26.5501 21.4331 26.5168 21.0899 26.583 20.759C26.6492 20.4281 26.8121 20.1242 27.0509 19.8858C27.2898 19.6473 27.594 19.4851 27.9251 19.4195C28.2561 19.3539 28.5992 19.3879 28.9109 19.5172C29.2227 19.6465 29.4891 19.8653 29.6765 20.1459C29.864 20.4266 29.964 20.7565 29.964 21.094C29.964 21.3185 29.9198 21.5407 29.8338 21.748C29.7478 21.9554 29.6217 22.1437 29.4629 22.3023C29.304 22.4608 29.1155 22.5865 28.908 22.6721C28.7005 22.7577 28.4781 22.8015 28.2537 22.8011ZM28.2537 19.7444C27.9869 19.7451 27.7263 19.8248 27.5048 19.9734C27.2833 20.1221 27.1108 20.3331 27.0091 20.5798C26.9075 20.8264 26.8812 21.0977 26.9337 21.3593C26.9861 21.6208 27.1149 21.861 27.3038 22.0494C27.4926 22.2379 27.7331 22.3661 27.9948 22.4179C28.2565 22.4697 28.5277 22.4428 28.7741 22.3405C29.0205 22.2383 29.2311 22.0653 29.3793 21.8435C29.5274 21.6216 29.6065 21.3608 29.6065 21.094C29.6056 20.7358 29.4627 20.3925 29.2091 20.1395C28.9555 19.8865 28.6119 19.7444 28.2537 19.7444Z" fill="#F0F0F0"/>
<path d="M22.836 22.8011C22.4985 22.8005 22.1687 22.6998 21.8884 22.5119C21.6081 22.3239 21.3898 22.057 21.2611 21.7451C21.1324 21.4331 21.099 21.0899 21.1653 20.759C21.2315 20.4281 21.3943 20.1242 21.6332 19.8858C21.8721 19.6473 22.1763 19.4851 22.5073 19.4195C22.8384 19.3539 23.1815 19.3879 23.4932 19.5172C23.805 19.6465 24.0714 19.8653 24.2588 20.1459C24.4463 20.4266 24.5463 20.7565 24.5463 21.094C24.5463 21.3185 24.502 21.5407 24.416 21.748C24.3301 21.9554 24.204 22.1437 24.0452 22.3023C23.8863 22.4608 23.6977 22.5865 23.4902 22.6721C23.2828 22.7577 23.0604 22.8015 22.836 22.8011ZM22.836 19.7444C22.569 19.7444 22.3081 19.8236 22.0862 19.9719C21.8642 20.1202 21.6913 20.3309 21.5891 20.5775C21.487 20.8241 21.4602 21.0955 21.5123 21.3573C21.5644 21.6191 21.6929 21.8596 21.8817 22.0483C22.0704 22.237 22.3109 22.3656 22.5727 22.4177C22.8345 22.4697 23.1058 22.443 23.3524 22.3409C23.599 22.2387 23.8098 22.0657 23.9581 21.8438C24.1064 21.6219 24.1855 21.3609 24.1855 21.094C24.1847 20.7363 24.0422 20.3936 23.7893 20.1406C23.5364 19.8877 23.1936 19.7453 22.836 19.7444Z" fill="#F0F0F0"/>
<path d="M109.602 87.4715H19.3445C18.8086 87.4698 18.2951 87.2562 17.9161 86.8772C17.5371 86.4982 17.3235 85.9847 17.3218 85.4488V25.3618H111.625V85.4488C111.623 85.9847 111.41 86.4982 111.031 86.8772C110.652 87.2562 110.138 87.4698 109.602 87.4715Z" fill="#FF5D0A"/>
<path d="M111.052 27.0914H17.895V80.3435H111.052V27.0914Z" fill="white"/>
<path d="M59.1715 31.6555H23.6862C23.0084 31.6555 22.459 32.2049 22.459 32.8827V37.6207C22.459 38.2985 23.0084 38.8479 23.6862 38.8479H59.1715C59.8492 38.8479 60.3986 38.2985 60.3986 37.6207V32.8827C60.3986 32.2049 59.8492 31.6555 59.1715 31.6555Z" fill="#FF5D0A"/>
<path d="M105.26 31.9776C105.5 31.9776 105.731 32.073 105.9 32.2427C106.07 32.4124 106.165 32.6427 106.165 32.8827V37.6207C106.165 37.8608 106.07 38.091 105.9 38.2607C105.731 38.4305 105.5 38.5258 105.26 38.5258H69.775C69.535 38.5258 69.3048 38.4305 69.135 38.2607C68.9653 38.091 68.8699 37.8608 68.8699 37.6207V32.8827C68.8699 32.6427 68.9653 32.4124 69.135 32.2427C69.3048 32.073 69.535 31.9776 69.775 31.9776H105.26ZM105.26 31.6555H69.775C69.4498 31.6564 69.1382 31.7859 68.9082 32.0159C68.6783 32.2458 68.5487 32.5575 68.5479 32.8827V37.6207C68.5479 37.9462 68.6771 38.2583 68.9073 38.4885C69.1374 38.7186 69.4496 38.8479 69.775 38.8479H105.26C105.586 38.8479 105.898 38.7186 106.128 38.4885C106.358 38.2583 106.488 37.9462 106.488 37.6207V32.8827C106.487 32.5575 106.357 32.2458 106.127 32.0159C105.897 31.7859 105.586 31.6564 105.26 31.6555Z" fill="#FF5D0A"/>
<path d="M28.7656 42.0689C29.9493 42.0689 31.1063 42.4199 32.0905 43.0775C33.0746 43.7351 33.8417 44.6697 34.2946 45.7633C34.7476 46.8568 34.8661 48.0601 34.6352 49.221C34.4043 50.3819 33.8343 51.4482 32.9973 52.2852C32.1604 53.1221 31.094 53.6921 29.9331 53.923C28.7723 54.1539 27.569 54.0354 26.4754 53.5825C25.3819 53.1295 24.4472 52.3624 23.7897 51.3783C23.1321 50.3941 22.7811 49.2371 22.7811 48.0535C22.7828 46.4668 23.4138 44.9456 24.5358 43.8236C25.6577 42.7017 27.1789 42.0706 28.7656 42.0689ZM28.7656 41.7468C27.5183 41.7468 26.299 42.1167 25.2618 42.8097C24.2247 43.5027 23.4164 44.4876 22.9391 45.64C22.4617 46.7924 22.3368 48.0605 22.5802 49.2838C22.8235 50.5072 23.4242 51.6309 24.3062 52.5129C25.1882 53.3949 26.3119 53.9956 27.5353 54.2389C28.7586 54.4823 30.0267 54.3574 31.1791 53.88C32.3315 53.4027 33.3164 52.5944 34.0094 51.5572C34.7024 50.5201 35.0723 49.3008 35.0723 48.0535C35.0723 46.3808 34.4078 44.7767 33.2251 43.594C32.0424 42.4113 30.4382 41.7468 28.7656 41.7468Z" fill="#FF5D0A"/>
<path opacity="0.4" d="M33.3299 50.5335C32.8831 51.3573 32.2222 52.0452 31.4168 52.5246C30.6115 53.0039 29.6917 53.2569 28.7546 53.2569C27.8174 53.2569 26.8976 53.0039 26.0923 52.5246C25.287 52.0452 24.626 51.3573 24.1792 50.5335C25.5334 49.6283 27.1257 49.1451 28.7546 49.1451C30.3835 49.1451 31.9758 49.6283 33.3299 50.5335Z" fill="#FF5D0A"/>
<path opacity="0.4" d="M28.7659 48.5913C30.0467 48.5913 31.085 47.553 31.085 46.2722C31.085 44.9914 30.0467 43.9531 28.7659 43.9531C27.4851 43.9531 26.4468 44.9914 26.4468 46.2722C26.4468 47.553 27.4851 48.5913 28.7659 48.5913Z" fill="#FF5D0A"/>
<path opacity="0.4" d="M103.244 51.297H41.859C40.9987 51.297 40.1738 50.9552 39.5655 50.347C38.9572 49.7387 38.6155 48.9137 38.6155 48.0535C38.6155 47.6277 38.6994 47.206 38.8624 46.8127C39.0255 46.4194 39.2644 46.062 39.5657 45.7611C39.8669 45.4602 40.2245 45.2215 40.618 45.0589C41.0115 44.8962 41.4332 44.8127 41.859 44.8132H103.244C103.67 44.8127 104.091 44.8962 104.485 45.0589C104.878 45.2215 105.236 45.4602 105.537 45.7611C105.839 46.062 106.077 46.4194 106.241 46.8127C106.404 47.206 106.487 47.6277 106.487 48.0535C106.487 48.9137 106.146 49.7387 105.537 50.347C104.929 50.9552 104.104 51.297 103.244 51.297Z" fill="#FF5D0A"/>
<path d="M28.7656 59.2656C29.9493 59.2656 31.1063 59.6166 32.0905 60.2742C33.0746 60.9317 33.8417 61.8664 34.2946 62.9599C34.7476 64.0535 34.8661 65.2568 34.6352 66.4176C34.4043 67.5785 33.8343 68.6449 32.9973 69.4818C32.1604 70.3188 31.094 70.8887 29.9331 71.1197C28.7723 71.3506 27.569 71.2321 26.4754 70.7791C25.3819 70.3261 24.4472 69.5591 23.7897 68.5749C23.1321 67.5908 22.7811 66.4337 22.7811 65.2501C22.7819 63.6632 23.4127 62.1415 24.5349 61.0194C25.657 59.8972 27.1787 59.2664 28.7656 59.2656ZM28.7656 58.9435C27.5183 58.9435 26.299 59.3134 25.2618 60.0063C24.2247 60.6993 23.4164 61.6843 22.9391 62.8367C22.4617 63.9891 22.3368 65.2571 22.5802 66.4805C22.8235 67.7038 23.4242 68.8276 24.3062 69.7096C25.1882 70.5916 26.3119 71.1922 27.5353 71.4356C28.7586 71.6789 30.0267 71.554 31.1791 71.0767C32.3315 70.5994 33.3164 69.791 34.0094 68.7539C34.7024 67.7168 35.0723 66.4974 35.0723 65.2501C35.0723 63.5775 34.4078 61.9734 33.2251 60.7907C32.0424 59.6079 30.4382 58.9435 28.7656 58.9435Z" fill="#FF5D0A"/>
<path opacity="0.4" d="M33.3299 67.7109C32.8831 68.5347 32.2222 69.2226 31.4168 69.702C30.6115 70.1813 29.6917 70.4343 28.7546 70.4343C27.8174 70.4343 26.8976 70.1813 26.0923 69.702C25.287 69.2226 24.626 68.5347 24.1792 67.7109C25.5342 66.8077 27.1262 66.3257 28.7546 66.3257C30.383 66.3257 31.975 66.8077 33.3299 67.7109Z" fill="#FF5D0A"/>
<path opacity="0.4" d="M28.7659 65.772C30.0467 65.772 31.085 64.7337 31.085 63.4529C31.085 62.1721 30.0467 61.1338 28.7659 61.1338C27.4851 61.1338 26.4468 62.1721 26.4468 63.4529C26.4468 64.7337 27.4851 65.772 28.7659 65.772Z" fill="#FF5D0A"/>
<path opacity="0.4" d="M41.859 61.9905H103.244C104.104 61.9905 104.929 62.3322 105.537 62.9405C106.146 63.5488 106.487 64.3737 106.487 65.234C106.487 66.0942 106.146 66.9192 105.537 67.5275C104.929 68.1358 104.104 68.4775 103.244 68.4775H41.859C40.9987 68.4775 40.1738 68.1358 39.5655 67.5275C38.9572 66.9192 38.6155 66.0942 38.6155 65.234C38.6155 64.3746 38.9569 63.5504 39.5645 62.9428C40.1722 62.3351 40.9964 61.9937 41.8558 61.9937L41.859 61.9905Z" fill="#FF5D0A"/>
<path opacity="0.1" d="M88.1249 68.3809C88.1246 70.3513 88.3177 72.3169 88.7014 74.2495C86.9002 75.3193 85.4074 76.8384 84.3691 78.658C83.3308 80.4777 82.7826 82.5357 82.7781 84.6307C82.7716 85.5871 82.8797 86.5409 83.1002 87.4716H109.602C110.138 87.4699 110.652 87.2562 111.031 86.8772C111.41 86.4983 111.623 85.9848 111.625 85.4488V39.067C104.961 40.5575 99.0027 44.2725 94.7314 49.6005C90.46 54.9286 88.13 61.5521 88.1249 68.3809Z" fill="black"/>
<path d="M137.088 88.5946C147.552 78.1305 147.552 61.1647 137.088 50.7005C126.624 40.2364 109.658 40.2364 99.1936 50.7006C88.7295 61.1647 88.7295 78.1305 99.1936 88.5946C109.658 99.0588 126.624 99.0588 137.088 88.5946Z" fill="#FF5D0A"/>
<path d="M135.539 86.8873C145.078 77.3476 145.078 61.8809 135.539 52.3412C125.999 42.8016 110.532 42.8016 100.993 52.3412C91.4529 61.8809 91.4529 77.3477 100.993 86.8873C110.532 96.4269 125.999 96.4269 135.539 86.8873Z" fill="white"/>
<path d="M110.024 53.2263L108.465 55.2233C108.465 55.2233 107.096 56.2605 106.577 57.1559C105.972 57.755 105.418 58.3702 104.87 59.0176C104.243 59.7579 103.658 60.5332 103.118 61.3399C102.527 62.2026 102.039 63.1311 101.662 64.1067C101.424 64.7242 101.292 65.3777 101.273 66.0393C101.264 66.5072 101.347 66.9722 101.517 67.4082C101.731 67.9422 102.083 68.4093 102.538 68.761L102.88 69.0187L103.392 69.1153C104.403 69.3074 105.429 69.4088 106.458 69.4181L106.864 69.3826L106.445 65.2985C106.101 65.2985 105.36 65.3661 105.022 65.3597C105.022 65.2953 105.048 65.2308 105.064 65.1664C105.268 64.3891 105.548 63.6338 105.901 62.9117C106.262 62.129 106.677 61.3464 107.109 60.5669C107.489 59.8776 107.898 59.1851 108.294 58.5087L110.227 57.2912L111.357 55.2845L110.024 53.2263ZM104.996 65.9491C104.993 65.918 104.993 65.8868 104.996 65.8557C105.01 65.8786 105.019 65.9037 105.025 65.9298C105.035 66.0071 105.012 66.0103 104.996 65.9491Z" fill="#7F3E3B"/>
<path d="M121.001 57.5424C121.049 57.2944 119.355 56.4441 118.189 57.1366C117.181 57.7357 117.052 58.5538 117.419 59.5298C117.419 59.5974 117.445 59.665 117.455 59.7327C117.477 59.8905 117.497 60.0548 117.506 60.2029C117.58 61.2304 117.31 62.1871 116.153 62.7314C116.153 62.7958 115.996 62.8635 115.944 62.9086C115.516 63.2853 115.243 63.8075 115.177 64.3741C115.177 64.7928 115.574 65.1246 116.034 65.524L116.678 65.9588L117.561 65.8751C120.27 65.0795 121.536 62.6058 121.478 62.4222C120.782 61.2755 120.792 59.2656 121.001 57.5424Z" fill="#7F3E3B"/>
<path d="M126.857 63.411L126.367 63.3273C125.723 63.2242 122.85 62.5736 121.462 62.4512C121.139 63.1372 120.083 64.8121 117.374 65.6077L116.704 65.7655L116.06 65.4434C115.861 65.2999 115.695 65.1151 115.574 64.9016C115.453 64.6882 115.379 64.4511 115.358 64.2066C115.38 63.9551 115.454 63.7108 115.574 63.4891C115.695 63.2674 115.861 63.073 116.06 62.9182C116.083 62.8978 116.102 62.8725 116.115 62.8441C116.115 62.7668 116.115 62.7153 116.115 62.7088C115.912 62.7346 113.342 63.1244 113.126 63.1598C110.703 63.6075 108.324 64.2682 106.017 65.1342L106.043 65.3661L106.51 69.4213L106.684 70.9577C106.684 70.9577 107.972 70.8128 109.663 70.5164C109.203 74.6199 109.112 80.5658 110.52 88.2092L116.018 88.1061L125.572 87.9289C125.61 87.2848 125.539 85.9513 125.472 84.1282L125.385 81.3131C125.333 78.8265 125.343 75.8375 125.565 72.6423C125.601 72.1366 125.642 71.6277 125.687 71.1123C127.639 73.2221 129.594 75.2384 129.594 75.2384L130.519 74.3494C131.701 73.7793 132.632 72.7582 133.444 71.531L134.529 70.4842C134.529 70.4842 129.498 63.8555 126.857 63.411Z" fill="#FF5D0A"/>
<path opacity="0.3" d="M124.212 69.4568C124.286 70.1273 124.5 70.7748 124.84 71.3572L125.581 72.6262C125.617 72.1205 125.659 71.6116 125.704 71.0963C125.195 70.539 124.686 69.9882 124.212 69.4568Z" fill="black"/>
<path opacity="0.3" d="M125.707 71.0995C125.662 71.6148 125.62 72.1238 125.584 72.6294C125.617 72.1238 125.662 71.6116 125.707 71.0995Z" fill="black"/>
<path d="M117.419 59.5298C117.419 59.5974 117.442 59.6651 117.455 59.7327C117.455 59.6651 117.432 59.5974 117.419 59.5298Z" fill="#7F3E3B"/>
<path opacity="0.2" d="M117.506 60.2029C117.506 60.0483 117.477 59.8808 117.455 59.7327C117.477 59.8905 117.497 60.0483 117.506 60.2029Z" fill="black"/>
<path d="M119.51 58.7664C119.445 58.8115 119.384 58.8598 119.317 58.9049C118.753 59.2823 118.097 59.4984 117.419 59.5297C117.419 59.5974 117.442 59.665 117.455 59.7326C117.477 59.8905 117.497 60.0547 117.506 60.2029C117.506 60.2029 117.506 60.2222 117.506 60.2319C118.342 60.028 119.062 59.5009 119.51 58.7664Z" fill="#7F3E3B"/>
<path d="M123.127 62.9408C123.098 62.8084 123.033 62.6868 122.939 62.5899C122.844 62.493 122.724 62.4248 122.592 62.3933L121.922 62.2322C121.839 62.2125 121.751 62.2203 121.672 62.2546C121.593 62.2888 121.527 62.3476 121.484 62.4222L121.462 62.4512C121.14 63.1373 120.083 64.8122 117.374 65.6078L117.165 65.6561L116.704 65.7656L116.06 65.4435C115.861 65.2999 115.695 65.1151 115.574 64.9017C115.453 64.6882 115.379 64.4512 115.358 64.2066C115.38 63.9551 115.454 63.7108 115.574 63.4891C115.695 63.2674 115.861 63.0731 116.06 62.9183C116.096 62.8821 116.127 62.8421 116.154 62.7991C116.183 62.725 116.176 62.6896 116.125 62.6574C115.413 62.1452 113.822 62.9344 113.757 63.0696C113.69 63.1373 113.622 63.2082 113.554 63.2887C113.356 63.5225 113.207 63.7948 113.119 64.0885C113.03 64.3822 113.003 64.6911 113.039 64.9958C113.106 65.5083 113.288 65.999 113.57 66.4317C113.853 66.8644 114.23 67.2279 114.672 67.4952C114.687 67.4999 114.702 67.4999 114.717 67.4952C114.734 67.5001 114.752 67.5001 114.769 67.4952C114.782 67.4854 114.794 67.4724 114.802 67.4573C114.81 67.4421 114.814 67.4253 114.814 67.4083C114.815 67.0275 114.929 66.6556 115.141 66.3392C115.353 66.0229 115.654 65.7763 116.005 65.6303L116.569 65.9331C114.147 75.873 115.79 87.7873 115.835 88.1094H116.021C116.021 87.987 114.314 75.9696 116.756 65.9749L117.345 65.8332C118.031 66.6707 117.706 67.914 117.703 67.9269C117.698 67.9441 117.699 67.9622 117.704 67.9793C117.709 67.9963 117.719 68.0116 117.732 68.0235C117.75 68.0383 117.773 68.0463 117.796 68.046C117.808 68.0493 117.82 68.0493 117.832 68.046C117.961 67.9881 121.008 66.6546 122.074 65.3823C122.577 64.7743 122.932 64.0575 123.111 63.2887C123.146 63.1761 123.152 63.0562 123.127 62.9408Z" fill="white"/>
<path opacity="0.2" d="M119.51 58.7664C119.445 58.8115 119.384 58.8598 119.317 58.9049C118.753 59.2823 118.097 59.4984 117.419 59.5297C117.419 59.5974 117.442 59.665 117.455 59.7326C117.477 59.8905 117.497 60.0547 117.506 60.2029C117.506 60.2029 117.506 60.2222 117.506 60.2319C118.342 60.028 119.062 59.5009 119.51 58.7664Z" fill="black"/>
<path d="M115.532 51.6545C116.791 50.044 115.992 49.0777 115.458 49.1679C114.952 49.4063 114.472 50.0795 114.224 51.5869C114.165 51.9424 114.156 52.3046 114.198 52.6627C114.717 52.6369 115.532 51.6545 115.532 51.6545Z" fill="#263238"/>
<path d="M120.811 55.2073C124.3 49.0713 117.41 48.3563 116.006 49.7316C115.532 50.1711 115.133 50.6846 114.823 51.2519L114.53 51.8285C114.409 52.1009 114.301 52.3794 114.208 52.6627C113.854 53.6811 113.669 54.7507 113.661 55.8289C113.658 56.3213 113.755 56.8091 113.944 57.2636C114.134 57.7181 114.412 58.13 114.764 58.475C115.115 58.82 115.532 59.0911 115.99 59.2722C116.447 59.4534 116.937 59.541 117.429 59.5298C118.107 59.4985 118.763 59.2824 119.326 58.9049C119.394 58.8598 119.455 58.8115 119.52 58.7664C119.98 58.4386 120.372 58.0252 120.676 57.5489C121.391 56.3926 121.204 55.8096 120.811 55.2073Z" fill="#7F3E3B"/>
<path d="M114.353 51.6384C114.332 51.6664 114.322 51.7015 114.327 51.7364C114.331 51.7713 114.348 51.8031 114.376 51.8252C114.4 51.8438 114.429 51.854 114.459 51.8542C114.485 51.8535 114.51 51.8445 114.53 51.8285C114.543 51.8228 114.554 51.8139 114.563 51.8027C114.666 51.6668 114.798 51.5563 114.951 51.4798C115.103 51.4033 115.271 51.3628 115.442 51.3614C115.477 51.3632 115.512 51.351 115.538 51.3275C115.565 51.3041 115.581 51.2711 115.584 51.2358C115.585 51.2185 115.583 51.201 115.577 51.1845C115.572 51.168 115.563 51.1527 115.552 51.1395C115.54 51.1263 115.527 51.1155 115.511 51.1077C115.495 51.0999 115.479 51.0953 115.461 51.0941C115.237 51.0927 115.015 51.1469 114.817 51.2519C114.637 51.3474 114.479 51.479 114.353 51.6384Z" fill="#263238"/>
<path d="M117.838 55.4971C117.826 55.4851 117.809 55.4784 117.791 55.4784C117.774 55.4784 117.757 55.4851 117.745 55.4971C117.524 55.6818 117.265 55.8137 116.986 55.8829C116.707 55.9521 116.415 55.9568 116.134 55.8965C116.117 55.8936 116.1 55.8973 116.085 55.9069C116.071 55.9165 116.061 55.9312 116.057 55.948C116.054 55.9655 116.058 55.9834 116.067 55.9983C116.077 56.0132 116.091 56.024 116.108 56.0286C116.262 56.0591 116.419 56.0731 116.576 56.0704C117.037 56.0661 117.481 55.897 117.828 55.5937C117.836 55.5881 117.841 55.5811 117.846 55.5732C117.85 55.5652 117.853 55.5565 117.854 55.5475C117.855 55.5385 117.854 55.5294 117.851 55.5207C117.848 55.5121 117.844 55.504 117.838 55.4971Z" fill="#263238"/>
<path d="M116.109 53.1974C115.682 53.8216 115.174 54.386 114.598 54.8755C114.92 55.32 115.616 55.2878 115.616 55.2878L116.109 53.1974Z" fill="#630F0F"/>
<path d="M114.968 53.2747C115.113 53.3037 115.29 53.1491 115.326 52.9268C115.361 52.7046 115.303 52.5049 115.158 52.4759C115.013 52.4469 114.852 52.6015 114.801 52.8238C114.749 53.046 114.82 53.2457 114.968 53.2747Z" fill="#263238"/>
<path d="M117.487 53.79C117.632 53.819 117.79 53.6644 117.844 53.4422C117.899 53.2199 117.819 53.0202 117.674 52.9912C117.529 52.9622 117.368 53.1168 117.316 53.3391C117.265 53.5613 117.339 53.7481 117.487 53.79Z" fill="#263238"/>
<path d="M123.017 50.2791C124.38 49.1132 121.275 46.7361 121.275 46.7361C121.275 46.7361 121.623 47.5864 120.901 47.8215C120.18 48.0567 115.103 46.1628 115.178 48.3111C115.191 48.6139 115.288 48.907 115.458 49.1582C115.609 49.3744 115.794 49.5647 116.005 49.7219C117.184 50.6173 119.329 50.8911 120.489 50.8911C120.305 51.3398 120.176 51.8092 120.106 52.289C120.017 52.7947 120.034 53.3134 120.155 53.8123C120.276 54.3112 120.5 54.7795 120.811 55.1879C121.455 56.3088 122.315 56.2766 123.05 55.423C124.228 54.3086 125.365 52.0507 123.017 50.2791Z" fill="#263238"/>
<path d="M122.425 54.7789C121.89 54.5599 121.288 54.8175 120.814 55.2073C120.554 55.4139 120.329 55.6607 120.147 55.9384C119.693 56.6503 119.854 57.4781 120.669 57.5489H120.811H121.004C121.646 57.4836 122.245 57.1992 122.702 56.7437C122.871 56.5805 122.993 56.3746 123.055 56.1478C123.116 55.921 123.116 55.6817 123.053 55.4553C123.007 55.302 122.926 55.1614 122.817 55.0441C122.708 54.9269 122.574 54.8361 122.425 54.7789Z" fill="#7F3E3B"/>
<path d="M110.536 88.1931C110.536 88.1931 110.449 88.9468 110.314 90.2126C115.247 91.8806 120.583 91.9302 125.546 90.3543C125.578 88.8244 125.601 87.9096 125.601 87.9096L116.034 88.09H115.848L110.536 88.1931Z" fill="#263238"/>
<path d="M135.434 75.2223C135.407 74.948 135.344 74.6784 135.247 74.4202C135.201 74.2921 135.146 74.1673 135.083 74.0466L134.99 73.8727L134.938 73.7825C134.478 72.9901 133.972 72.2397 133.457 71.5278L130.532 74.3462C130.918 74.8293 131.295 75.3125 131.643 75.8085C131.579 75.9731 131.495 76.1299 131.395 76.2755C130.927 76.9259 130.387 77.5213 129.785 78.0503C128.523 79.1864 127.202 80.2541 125.826 81.2487L125.378 81.3067L123.581 81.5515L121.813 82.7464L122.976 85.1106L124.438 84.3634C124.787 84.3153 125.131 84.2344 125.465 84.1218C125.982 83.9871 126.432 83.6688 126.731 83.2264C127.587 82.8874 128.424 82.5047 129.24 82.0797C130.118 81.627 130.967 81.1226 131.785 80.5691C132.199 80.2856 132.609 79.9753 133.015 79.6382C133.446 79.2844 133.845 78.8932 134.207 78.469C134.67 77.945 135.027 77.3356 135.257 76.6749C135.419 76.2089 135.48 75.7136 135.434 75.2223ZM131.669 75.7312C131.669 75.7151 131.669 75.6957 131.669 75.6829C131.669 75.6056 131.698 75.5766 131.698 75.6217C131.696 75.6592 131.689 75.6961 131.675 75.7312H131.669Z" fill="#7F3E3B"/>
<path d="M103.574 84.7449C104.356 79.9249 101.083 75.3833 96.2632 74.601C91.4433 73.8186 86.9017 77.0917 86.1193 81.9116C85.3369 86.7316 88.61 91.2732 93.4299 92.0556C98.2499 92.8379 102.791 89.5648 103.574 84.7449Z" fill="#263238"/>
<path d="M99.701 82.4952H95.6683V78.4626C95.6683 78.243 95.5811 78.0325 95.4259 77.8772C95.2706 77.722 95.0601 77.6348 94.8406 77.6348C94.621 77.6348 94.4105 77.722 94.2552 77.8772C94.1 78.0325 94.0128 78.243 94.0128 78.4626V82.4952H89.9801C89.7606 82.4952 89.55 82.5824 89.3948 82.7376C89.2396 82.8929 89.1523 83.1034 89.1523 83.323C89.1523 83.5425 89.2396 83.7531 89.3948 83.9083C89.55 84.0635 89.7606 84.1508 89.9801 84.1508H94.0128V88.1834C94.0128 88.2921 94.0342 88.3997 94.0758 88.5002C94.1174 88.6006 94.1784 88.6919 94.2552 88.7687C94.3321 88.8456 94.4233 88.9066 94.5238 88.9482C94.6242 88.9898 94.7318 89.0112 94.8406 89.0112C94.9493 89.0112 95.0569 88.9898 95.1573 88.9482C95.2578 88.9066 95.349 88.8456 95.4259 88.7687C95.5028 88.6919 95.5637 88.6006 95.6053 88.5002C95.6469 88.3997 95.6683 88.2921 95.6683 88.1834V84.1508H99.701C99.9205 84.1508 100.131 84.0635 100.286 83.9083C100.442 83.7531 100.529 83.5425 100.529 83.323C100.529 83.1034 100.442 82.8929 100.286 82.7376C100.131 82.5824 99.9205 82.4952 99.701 82.4952Z" fill="white"/>
<path d="M117.967 52.1023C118.129 52.1351 118.28 52.2068 118.408 52.3111C118.536 52.4155 118.637 52.5494 118.701 52.7014C118.712 52.7245 118.73 52.7441 118.751 52.7578C118.773 52.7715 118.798 52.7787 118.824 52.7787C118.842 52.7832 118.861 52.7832 118.879 52.7787C118.895 52.7714 118.909 52.761 118.921 52.7481C118.933 52.7352 118.942 52.7201 118.948 52.7036C118.954 52.6871 118.957 52.6696 118.956 52.6521C118.955 52.6345 118.951 52.6174 118.943 52.6015C118.859 52.4093 118.73 52.2405 118.566 52.1097C118.402 51.979 118.209 51.8902 118.003 51.851C117.967 51.8463 117.932 51.8557 117.904 51.8772C117.876 51.8986 117.857 51.9304 117.853 51.9654C117.848 52.0004 117.857 52.0359 117.879 52.064C117.9 52.092 117.932 52.1105 117.967 52.1152V52.1023Z" fill="#263238"/>
</svg>
