<svg width="146" height="120" viewBox="0 0 146 120" fill="none" xmlns="http://www.w3.org/2000/svg">
<path d="M145.74 105.454H0.259521V105.535H145.74V105.454Z" fill="#EBEBEB"/>
<path d="M131.163 110.637H121.527V110.717H131.163V110.637Z" fill="#EBEBEB"/>
<path d="M96.6317 111.513H94.1032V111.593H96.6317V111.513Z" fill="#EBEBEB"/>
<path d="M121.235 107.647H115.652V107.728H121.235V107.647Z" fill="#EBEBEB"/>
<path d="M28.0899 108.188H15.5233V108.269H28.0899V108.188Z" fill="#EBEBEB"/>
<path d="M32.5242 108.188H30.6824V108.269H32.5242V108.188Z" fill="#EBEBEB"/>
<path d="M65.7698 109.548H38.5125V109.628H65.7698V109.548Z" fill="#EBEBEB"/>
<path d="M69.2173 91.0887H13.0355C12.5954 91.0878 12.1735 90.8937 11.8626 90.5489C11.5517 90.2041 11.377 89.7367 11.377 89.2495V1.82306C11.3808 1.33864 11.5572 0.875449 11.8677 0.534105C12.1782 0.192761 12.5979 0.000829844 13.0355 0H69.2173C69.658 0 70.0805 0.193769 70.3921 0.53868C70.7037 0.88359 70.8787 1.35139 70.8787 1.83917V89.2495C70.8787 89.7373 70.7037 90.2051 70.3921 90.55C70.0805 90.8949 69.658 91.0887 69.2173 91.0887ZM13.0355 0.0644194C12.6147 0.0652726 12.2113 0.250934 11.914 0.580651C11.6167 0.910368 11.4498 1.3572 11.4498 1.82306V89.2495C11.4498 89.7154 11.6167 90.1622 11.914 90.4919C12.2113 90.8216 12.6147 91.0073 13.0355 91.0082H69.2173C69.6384 91.0073 70.0421 90.8218 70.3398 90.4921C70.6376 90.1625 70.8052 89.7157 70.806 89.2495V1.82306C70.8052 1.3569 70.6376 0.910079 70.3398 0.580454C70.0421 0.250829 69.6384 0.0652708 69.2173 0.0644194H13.0355Z" fill="#EBEBEB"/>
<path d="M64.0095 105.454H69.4272V64.2677H64.0095V105.454Z" fill="#E6E6E6"/>
<path d="M65.9181 105.454H64.0094V97.627H67.917L65.9181 105.454Z" fill="#F0F0F0"/>
<path d="M121.308 105.454H126.726V64.2677H121.308V105.454Z" fill="#E6E6E6"/>
<path d="M64.0121 103.315L122.973 103.315V64.2645H64.0121V103.315Z" fill="#F0F0F0"/>
<path d="M121.064 105.454H122.973V97.627H119.065L121.064 105.454Z" fill="#F0F0F0"/>
<path d="M103.533 67V99.303H121.012V67H103.533Z" fill="#E6E6E6"/>
<path d="M110.534 68.6356H113.99C115.456 68.6589 116.876 68.074 117.971 66.9961H106.571C107.662 68.069 109.075 68.6535 110.534 68.6356Z" fill="#F0F0F0"/>
<path d="M84.7518 67.4988V99.8018H102.23V67.4988H84.7518Z" fill="#E6E6E6"/>
<path d="M91.5836 68.6356H95.0431C96.5053 68.6559 97.9216 68.0712 99.0148 66.9961H87.6149C88.7068 68.0713 90.1223 68.656 91.5836 68.6356Z" fill="#F0F0F0"/>
<path d="M65.9705 67.5017V99.8047H83.4485V67.5017H65.9705Z" fill="#E6E6E6"/>
<path d="M72.8051 68.6356H76.2618C77.7239 68.6559 79.1402 68.0712 80.2334 66.9961H68.8335C69.9263 68.0718 71.3429 68.6565 72.8051 68.6356Z" fill="#F0F0F0"/>
<path d="M21.9651 105.454H58.9347L58.9347 13.4571H21.9651L21.9651 105.454Z" fill="#F0F0F0"/>
<path d="M21.965 105.454H58.1548L58.1548 13.4571H21.965L21.965 105.454Z" fill="#F5F5F5"/>
<path d="M55.9495 103.367L55.9495 15.5439L24.1706 15.5439L24.1706 103.367H55.9495Z" fill="#F0F0F0"/>
<path d="M52.8277 31.8879C52.8281 30.6284 52.6043 29.3812 52.1692 28.2175C51.734 27.0537 51.0961 25.9963 50.2917 25.1055C49.4873 24.2148 48.5323 23.5082 47.4812 23.0261C46.4301 22.544 45.3035 22.2959 44.1657 22.2959H35.9606C33.6626 22.2959 31.4586 23.3065 29.8337 25.1053C28.2087 26.9042 27.2958 29.3439 27.2958 31.8879H52.8277Z" fill="#FAFAFA"/>
<path d="M52.8306 97.9071V76.9258H27.2987V97.9071H52.8306Z" fill="#F5F5F5"/>
<path d="M52.8306 37.791H41.5674V74.2168H52.8306V37.791Z" fill="#F5F5F5"/>
<path d="M38.5589 37.791H27.2958V74.2168H38.5589V37.791Z" fill="#F5F5F5"/>
<path d="M31.3922 55.8415H26.7659C26.576 55.8415 26.394 55.7581 26.2598 55.6095C26.1255 55.4609 26.0501 55.2593 26.0501 55.0492C26.0509 54.8393 26.1265 54.6383 26.2606 54.4899C26.3947 54.3414 26.5763 54.2577 26.7659 54.2568H31.3922C31.5818 54.2577 31.7634 54.3414 31.8974 54.4899C32.0315 54.6383 32.1072 54.8393 32.1079 55.0492C32.1079 55.2593 32.0325 55.4609 31.8983 55.6095C31.7641 55.7581 31.582 55.8415 31.3922 55.8415Z" fill="#E0E0E0"/>
<path d="M24.7441 103.367L24.7441 15.5439H24.1709L24.1709 103.367H24.7441Z" fill="#F0F0F0"/>
<path d="M118.766 52.0535V10.9219L83.1081 10.9219V52.0535H118.766Z" fill="white"/>
<path d="M87.5921 55.2491C86.8705 46.9777 86.3671 33.5592 86.757 29.0692C86.765 28.9927 86.7872 28.9188 86.8223 28.8523C86.8573 28.7858 86.9045 28.728 86.9607 28.6827C87.0359 28.6217 87.125 28.5853 87.2179 28.5777C87.3109 28.57 87.4039 28.5914 87.4863 28.6394C87.5688 28.6874 87.6375 28.7601 87.6845 28.8492C87.7314 28.9383 87.7549 29.0402 87.7521 29.1433C87.6852 31.369 87.6066 36.9283 88.0431 46.5171C88.2555 51.2906 88.561 54.5695 88.3515 55.2491H87.5921Z" fill="#E6E6E6"/>
<path d="M84.903 36.1876C82.8488 33.6624 78.6561 31.8683 74.3847 31.878C72.7059 31.878 79.4882 34.8123 82.3076 38.0493C84.4986 40.5617 86.963 44.7908 87.8097 47.1389C87.2569 42.1947 86.9659 38.7096 84.903 36.1876Z" fill="#E6E6E6"/>
<path d="M88.9738 36.9577C90.6788 34.3294 94.6126 32.3067 98.8665 32.078C100.537 31.9878 94.1762 35.2989 91.802 38.6681C89.9602 41.2931 88.0689 45.6446 87.5481 48.0282C87.4288 43.0775 87.2571 39.586 88.9738 36.9577Z" fill="#E6E6E6"/>
<path d="M84.8129 26.9726C83.0671 24.8339 79.5232 23.3136 75.9036 23.3233C74.4837 23.3233 80.2244 25.8099 82.6132 28.5477C84.4696 30.6767 86.5616 34.2584 87.2686 36.2458C86.8118 32.065 86.5499 29.1081 84.8129 26.9726Z" fill="#E6E6E6"/>
<path d="M88.2581 30.132C89.713 27.9063 93.0328 26.1927 96.6408 25.9995C98.0548 25.9254 92.6691 28.718 90.6586 31.5814C89.099 33.8039 87.4958 37.4886 87.0565 39.5082C86.9663 35.3145 86.815 32.3577 88.2581 30.132Z" fill="#E6E6E6"/>
<path d="M87.8797 64.2674C86.7962 64.2677 85.7537 63.8091 84.9659 62.9855C84.1782 62.162 83.705 61.0361 83.6433 59.8386L83.2679 52.6494H92.4943L92.119 59.8386C92.0573 61.0366 91.5836 62.1631 90.7953 62.9867C90.0069 63.8103 88.9637 64.2685 87.8797 64.2674Z" fill="#E6E6E6"/>
<path d="M93.0912 54.2833H82.6718L82.3721 51.291H93.388L93.0912 54.2833Z" fill="#E6E6E6"/>
<path d="M80.7834 120C115.274 120 143.235 118.368 143.235 116.354C143.235 114.34 115.274 112.708 80.7834 112.708C46.2926 112.708 18.3323 114.34 18.3323 116.354C18.3323 118.368 46.2926 120 80.7834 120Z" fill="#F5F5F5"/>
<path d="M33.9319 13.0228C33.9336 12.4868 34.1472 11.9733 34.5262 11.5943C34.9052 11.2154 35.4187 11.0017 35.9546 11H126.212C126.748 11.0017 127.262 11.2154 127.641 11.5943C128.02 11.9733 128.233 12.4868 128.235 13.0228V19.5323H33.9319V13.0228Z" fill="#263238"/>
<path d="M50.2846 16.9716C49.947 16.9716 49.6169 16.8715 49.3362 16.684C49.0555 16.4964 48.8367 16.2298 48.7075 15.9178C48.5783 15.6059 48.5444 15.2626 48.6103 14.9315C48.6762 14.6004 48.8388 14.2962 49.0775 14.0574C49.3163 13.8187 49.6204 13.6561 49.9516 13.5902C50.2827 13.5244 50.626 13.5582 50.9379 13.6874C51.2498 13.8166 51.5165 14.0354 51.704 14.3161C51.8916 14.5969 51.9917 14.9269 51.9917 15.2645C51.9917 15.7173 51.8119 16.1515 51.4917 16.4716C51.1716 16.7918 50.7374 16.9716 50.2846 16.9716ZM50.2846 13.915C50.0177 13.915 49.7568 13.9941 49.5348 14.1424C49.3129 14.2907 49.1399 14.5015 49.0378 14.7481C48.9356 14.9947 48.9089 15.266 48.961 15.5278C49.013 15.7896 49.1416 16.0301 49.3303 16.2188C49.5191 16.4076 49.7595 16.5361 50.0213 16.5882C50.2831 16.6403 50.5545 16.6135 50.8011 16.5114C51.0477 16.4092 51.2585 16.2363 51.4068 16.0143C51.5551 15.7924 51.6342 15.5315 51.6342 15.2645C51.6334 14.9069 51.4909 14.5641 51.238 14.3112C50.9851 14.0583 50.6423 13.9158 50.2846 13.915Z" fill="#F0F0F0"/>
<path d="M44.8637 16.9716C44.5262 16.971 44.1964 16.8703 43.9161 16.6824C43.6358 16.4944 43.4175 16.2276 43.2888 15.9156C43.1601 15.6036 43.1268 15.2605 43.193 14.9295C43.2592 14.5986 43.4221 14.2947 43.6609 14.0563C43.8998 13.8179 44.204 13.6556 44.535 13.59C44.8661 13.5244 45.2092 13.5584 45.5209 13.6877C45.8327 13.817 46.0991 14.0358 46.2865 14.3165C46.474 14.5971 46.574 14.927 46.574 15.2645C46.574 15.489 46.5297 15.7112 46.4438 15.9186C46.3578 16.1259 46.2317 16.3142 46.0729 16.4728C45.914 16.6313 45.7254 16.757 45.5179 16.8426C45.3105 16.9282 45.0881 16.9721 44.8637 16.9716ZM44.8637 13.915C44.5969 13.9156 44.3363 13.9953 44.1148 14.144C43.8933 14.2926 43.7208 14.5036 43.6191 14.7503C43.5175 14.997 43.4912 15.2682 43.5436 15.5298C43.5961 15.7914 43.7249 16.0315 43.9137 16.22C44.1026 16.4084 44.3431 16.5366 44.6048 16.5884C44.8665 16.6402 45.1377 16.6133 45.3841 16.5111C45.6305 16.4088 45.8411 16.2359 45.9893 16.014C46.1374 15.7921 46.2165 15.5313 46.2165 15.2645C46.2156 14.9063 46.0727 14.563 45.8191 14.31C45.5655 14.057 45.2219 13.915 44.8637 13.915Z" fill="#F0F0F0"/>
<path d="M39.4458 16.9718C39.1083 16.9712 38.7786 16.8705 38.4983 16.6826C38.218 16.4946 37.9997 16.2278 37.871 15.9158C37.7423 15.6038 37.7089 15.2606 37.7751 14.9297C37.8414 14.5988 38.0042 14.2949 38.2431 14.0565C38.482 13.8181 38.7861 13.6558 39.1172 13.5902C39.4483 13.5246 39.7913 13.5586 40.1031 13.6879C40.4148 13.8172 40.6812 14.036 40.8687 14.3166C41.0561 14.5973 41.1562 14.9272 41.1562 15.2647C41.1562 15.4892 41.1119 15.7114 41.0259 15.9188C40.9399 16.1261 40.8139 16.3144 40.655 16.473C40.4962 16.6315 40.3076 16.7572 40.1001 16.8428C39.8926 16.9284 39.6703 16.9723 39.4458 16.9718ZM39.4458 13.9151C39.1789 13.9151 38.918 13.9943 38.696 14.1426C38.4741 14.2909 38.3011 14.5017 38.199 14.7483C38.0968 14.9949 38.0701 15.2662 38.1222 15.528C38.1743 15.7898 38.3028 16.0303 38.4915 16.219C38.6803 16.4078 38.9207 16.5363 39.1825 16.5884C39.4443 16.6404 39.7157 16.6137 39.9623 16.5116C40.2089 16.4094 40.4197 16.2364 40.568 16.0145C40.7163 15.7926 40.7954 15.5316 40.7954 15.2647C40.7946 14.9071 40.6521 14.5643 40.3992 14.3114C40.1463 14.0585 39.8035 13.916 39.4458 13.9151Z" fill="#F0F0F0"/>
<path d="M126.212 81.6421H35.9545C35.4186 81.6404 34.9051 81.4267 34.5261 81.0477C34.1471 80.6688 33.9335 80.1553 33.9318 79.6193V19.5323H128.235V79.6193C128.233 80.1553 128.02 80.6688 127.641 81.0477C127.262 81.4267 126.748 81.6404 126.212 81.6421Z" fill="#FF5D0A"/>
<path d="M127.662 21.2617H34.5051V74.5138H127.662V21.2617Z" fill="white"/>
<path d="M75.7817 25.826H40.2964C39.6186 25.826 39.0692 26.3755 39.0692 27.0532V31.7913C39.0692 32.469 39.6186 33.0184 40.2964 33.0184H75.7817C76.4594 33.0184 77.0089 32.469 77.0089 31.7913V27.0532C77.0089 26.3755 76.4594 25.826 75.7817 25.826Z" fill="#FF5D0A"/>
<path d="M121.87 26.1481C122.11 26.1481 122.341 26.2435 122.51 26.4132C122.68 26.583 122.776 26.8132 122.776 27.0532V31.7913C122.776 32.0313 122.68 32.2615 122.51 32.4313C122.341 32.601 122.11 32.6964 121.87 32.6964H86.3851C86.1451 32.6964 85.9149 32.601 85.7451 32.4313C85.5754 32.2615 85.4801 32.0313 85.4801 31.7913V27.0532C85.4801 26.8132 85.5754 26.583 85.7451 26.4132C85.9149 26.2435 86.1451 26.1481 86.3851 26.1481H121.87ZM121.87 25.826H86.3851C86.0599 25.8269 85.7483 25.9565 85.5183 26.1864C85.2884 26.4164 85.1588 26.728 85.158 27.0532V31.7913C85.158 32.1167 85.2873 32.4289 85.5174 32.659C85.7475 32.8892 86.0597 33.0184 86.3851 33.0184H121.87C122.196 33.0184 122.508 32.8892 122.738 32.659C122.968 32.4289 123.098 32.1167 123.098 31.7913V27.0532C123.097 26.728 122.967 26.4164 122.737 26.1864C122.507 25.9565 122.196 25.8269 121.87 25.826Z" fill="#FF5D0A"/>
<path d="M45.3757 36.2391C46.5594 36.2391 47.7164 36.5901 48.7006 37.2477C49.6847 37.9053 50.4518 38.8399 50.9047 39.9334C51.3577 41.027 51.4762 42.2303 51.2453 43.3912C51.0144 44.552 50.4444 45.6184 49.6074 46.4553C48.7705 47.2923 47.7041 47.8623 46.5433 48.0932C45.3824 48.3241 44.1791 48.2056 43.0855 47.7526C41.992 47.2997 41.0574 46.5326 40.3998 45.5485C39.7422 44.5643 39.3912 43.4073 39.3912 42.2236C39.3929 40.637 40.024 39.1158 41.1459 37.9938C42.2679 36.8719 43.7891 36.2408 45.3757 36.2391ZM45.3757 35.917C44.1284 35.917 42.9091 36.2869 41.872 36.9799C40.8348 37.6728 40.0265 38.6578 39.5492 39.8102C39.0718 40.9626 38.9469 42.2306 39.1903 43.454C39.4336 44.6774 40.0343 45.8011 40.9163 46.6831C41.7983 47.5651 42.922 48.1657 44.1454 48.4091C45.3687 48.6524 46.6368 48.5275 47.7892 48.0502C48.9416 47.5729 49.9265 46.7645 50.6195 45.7274C51.3125 44.6903 51.6824 43.471 51.6824 42.2236C51.6824 40.551 51.0179 38.9469 49.8352 37.7642C48.6525 36.5814 47.0484 35.917 45.3757 35.917Z" fill="#FF5D0A"/>
<path opacity="0.4" d="M119.854 45.4672H58.4688C57.6086 45.4672 56.7836 45.1255 56.1753 44.5172C55.5671 43.9089 55.2253 43.0839 55.2253 42.2237C55.2253 41.7979 55.3093 41.3763 55.4723 40.9829C55.6353 40.5896 55.8743 40.2322 56.1755 39.9313C56.4768 39.6304 56.8344 39.3918 57.2279 39.2291C57.6214 39.0665 58.0431 38.983 58.4688 38.9834H119.854C120.28 38.983 120.701 39.0665 121.095 39.2291C121.488 39.3918 121.846 39.6304 122.147 39.9313C122.448 40.2322 122.687 40.5896 122.85 40.9829C123.013 41.3763 123.097 41.7979 123.097 42.2237C123.097 43.0839 122.756 43.9089 122.147 44.5172C121.539 45.1255 120.714 45.4672 119.854 45.4672Z" fill="#FF5D0A"/>
<path d="M45.3759 53.4361C46.5595 53.4361 47.7165 53.7871 48.7007 54.4447C49.6848 55.1023 50.4519 56.0369 50.9048 57.1305C51.3578 58.224 51.4763 59.4273 51.2454 60.5882C51.0145 61.7491 50.4445 62.8154 49.6076 63.6524C48.7706 64.4893 47.7043 65.0593 46.5434 65.2902C45.3825 65.5211 44.1792 65.4026 43.0857 64.9496C41.9921 64.4967 41.0575 63.7296 40.3999 62.7455C39.7423 61.7613 39.3913 60.6043 39.3913 59.4206C39.3922 57.8337 40.023 56.312 41.1451 55.1899C42.2672 54.0678 43.7889 53.437 45.3759 53.4361ZM45.3759 53.114C44.1285 53.114 42.9092 53.4839 41.8721 54.1769C40.835 54.8699 40.0266 55.8548 39.5493 57.0072C39.0719 58.1596 38.9471 59.4276 39.1904 60.651C39.4337 61.8744 40.0344 62.9981 40.9164 63.8801C41.7984 64.7621 42.9221 65.3628 44.1455 65.6061C45.3689 65.8494 46.6369 65.7246 47.7893 65.2472C48.9417 64.7699 49.9266 63.9615 50.6196 62.9244C51.3126 61.8873 51.6825 60.668 51.6825 59.4206C51.6825 57.748 51.018 56.1439 49.8353 54.9612C48.6526 53.7785 47.0485 53.114 45.3759 53.114Z" fill="#FF5D0A"/>
<path opacity="0.4" d="M58.4688 56.1611H119.854C120.714 56.1611 121.539 56.5029 122.147 57.1111C122.756 57.7194 123.097 58.5444 123.097 59.4046C123.097 60.2649 122.756 61.0899 122.147 61.6981C121.539 62.3064 120.714 62.6481 119.854 62.6481H58.4688C57.6086 62.6481 56.7836 62.3064 56.1753 61.6981C55.5671 61.0899 55.2253 60.2649 55.2253 59.4046C55.2253 58.5453 55.5667 57.7211 56.1744 57.1134C56.7821 56.5057 57.6062 56.1644 58.4656 56.1644L58.4688 56.1611Z" fill="#FF5D0A"/>
<path d="M16.9998 27.1937C17.0015 26.6577 17.2151 26.1442 17.5941 25.7652C17.9731 25.3863 18.4866 25.1726 19.0225 25.1709H109.28C109.816 25.1726 110.33 25.3863 110.709 25.7652C111.088 26.1442 111.301 26.6577 111.303 27.1937V33.7032H16.9998V27.1937Z" fill="#263238"/>
<path d="M33.3525 31.1425C33.0149 31.1425 32.6848 31.0424 32.4041 30.8548C32.1233 30.6673 31.9045 30.4007 31.7753 30.0887C31.6461 29.7768 31.6123 29.4335 31.6782 29.1024C31.7441 28.7713 31.9066 28.4671 32.1454 28.2283C32.3841 27.9896 32.6883 27.827 33.0195 27.7611C33.3506 27.6953 33.6938 27.7291 34.0058 27.8583C34.3177 27.9875 34.5843 28.2063 34.7719 28.487C34.9595 28.7678 35.0596 29.0978 35.0596 29.4354C35.0596 29.8882 34.8797 30.3224 34.5596 30.6425C34.2395 30.9627 33.8052 31.1425 33.3525 31.1425ZM33.3525 28.0859C33.0856 28.0859 32.8246 28.165 32.6027 28.3133C32.3808 28.4616 32.2078 28.6724 32.1056 28.919C32.0035 29.1656 31.9768 29.4369 32.0288 29.6987C32.0809 29.9605 32.2095 30.201 32.3982 30.3897C32.5869 30.5785 32.8274 30.707 33.0892 30.7591C33.351 30.8112 33.6224 30.7844 33.869 30.6823C34.1156 30.5801 34.3263 30.4072 34.4746 30.1852C34.6229 29.9633 34.7021 29.7024 34.7021 29.4354C34.7012 29.0778 34.5588 28.735 34.3059 28.4821C34.0529 28.2292 33.7102 28.0867 33.3525 28.0859Z" fill="#F0F0F0"/>
<path d="M27.9315 31.1425C27.5941 31.1419 27.2643 31.0412 26.984 30.8533C26.7037 30.6653 26.4854 30.3985 26.3567 30.0865C26.228 29.7745 26.1946 29.4314 26.2609 29.1004C26.3271 28.7695 26.4899 28.4656 26.7288 28.2272C26.9677 27.9888 27.2719 27.8265 27.6029 27.7609C27.934 27.6953 28.277 27.7293 28.5888 27.8586C28.9005 27.9879 29.167 28.2067 29.3544 28.4874C29.5418 28.768 29.6419 29.0979 29.6419 29.4354C29.6419 29.6599 29.5976 29.8821 29.5116 30.0895C29.4256 30.2968 29.2996 30.4851 29.1407 30.6437C28.9819 30.8022 28.7933 30.9279 28.5858 31.0135C28.3783 31.0991 28.156 31.143 27.9315 31.1425ZM27.9315 28.0859C27.6648 28.0865 27.4042 28.1662 27.1826 28.3149C26.9611 28.4635 26.7886 28.6745 26.687 28.9212C26.5853 29.1679 26.5591 29.4391 26.6115 29.7007C26.664 29.9623 26.7927 30.2024 26.9816 30.3909C27.1705 30.5793 27.411 30.7075 27.6727 30.7593C27.9344 30.8111 28.2056 30.7842 28.452 30.682C28.6984 30.5797 28.909 30.4068 29.0571 30.1849C29.2053 29.963 29.2844 29.7022 29.2844 29.4354C29.2835 29.0772 29.1406 28.7339 28.887 28.4809C28.6334 28.2279 28.2898 28.0859 27.9315 28.0859Z" fill="#F0F0F0"/>
<path d="M22.5142 31.1427C22.1767 31.1421 21.847 31.0414 21.5667 30.8535C21.2863 30.6655 21.068 30.3987 20.9393 30.0867C20.8106 29.7747 20.7773 29.4315 20.8435 29.1006C20.9097 28.7697 21.0726 28.4658 21.3114 28.2274C21.5503 27.989 21.8545 27.8267 22.1856 27.7611C22.5166 27.6955 22.8597 27.7295 23.1714 27.8588C23.4832 27.9881 23.7496 28.2069 23.937 28.4875C24.1245 28.7682 24.2245 29.0981 24.2245 29.4356C24.2245 29.6601 24.1803 29.8823 24.0943 30.0896C24.0083 30.297 23.8822 30.4853 23.7234 30.6439C23.5645 30.8024 23.3759 30.9281 23.1685 31.0137C22.961 31.0993 22.7386 31.1432 22.5142 31.1427ZM22.5142 28.086C22.2473 28.086 21.9863 28.1652 21.7644 28.3135C21.5425 28.4618 21.3695 28.6726 21.2673 28.9192C21.1652 29.1658 21.1385 29.4371 21.1905 29.6989C21.2426 29.9607 21.3711 30.2012 21.5599 30.3899C21.7486 30.5787 21.9891 30.7072 22.2509 30.7593C22.5127 30.8113 22.784 30.7846 23.0307 30.6825C23.2773 30.5803 23.488 30.4073 23.6363 30.1854C23.7846 29.9635 23.8638 29.7025 23.8638 29.4356C23.8629 29.078 23.7205 28.7352 23.4675 28.4823C23.2146 28.2294 22.8719 28.0869 22.5142 28.086Z" fill="#F0F0F0"/>
<path d="M109.28 95.813H19.0224C18.4864 95.8113 17.9729 95.5976 17.594 95.2186C17.215 94.8397 17.0013 94.3262 16.9996 93.7902V33.7032H111.303V93.7902C111.301 94.3262 111.087 94.8397 110.709 95.2186C110.33 95.5976 109.816 95.8113 109.28 95.813Z" fill="#FF5D0A"/>
<path d="M110.73 35.4326H17.573V88.6847H110.73V35.4326Z" fill="white"/>
<path d="M58.8496 39.9969H23.3643C22.6865 39.9969 22.1371 40.5464 22.1371 41.2241V45.9622C22.1371 46.6399 22.6865 47.1893 23.3643 47.1893H58.8496C59.5273 47.1893 60.0767 46.6399 60.0767 45.9622V41.2241C60.0767 40.5464 59.5273 39.9969 58.8496 39.9969Z" fill="#FF5D0A"/>
<path d="M104.938 40.319C105.178 40.319 105.409 40.4144 105.578 40.5841C105.748 40.7539 105.843 40.9841 105.843 41.2241V45.9622C105.843 46.2022 105.748 46.4324 105.578 46.6022C105.409 46.7719 105.178 46.8673 104.938 46.8673H69.453C69.213 46.8673 68.9828 46.7719 68.813 46.6022C68.6433 46.4324 68.5479 46.2022 68.5479 45.9622V41.2241C68.5479 40.9841 68.6433 40.7539 68.813 40.5841C68.9828 40.4144 69.213 40.319 69.453 40.319H104.938ZM104.938 39.9969H69.453C69.1278 39.9978 68.8162 40.1274 68.5862 40.3573C68.3562 40.5873 68.2267 40.8989 68.2258 41.2241V45.9622C68.2258 46.2876 68.3551 46.5998 68.5853 46.8299C68.8154 47.0601 69.1275 47.1893 69.453 47.1893H104.938C105.264 47.1893 105.576 47.0601 105.806 46.8299C106.036 46.5998 106.165 46.2876 106.165 45.9622V41.2241C106.165 40.8989 106.035 40.5873 105.805 40.3573C105.575 40.1274 105.264 39.9978 104.938 39.9969Z" fill="#FF5D0A"/>
<path d="M28.4436 50.41C29.6272 50.41 30.7843 50.761 31.7684 51.4186C32.7526 52.0762 33.5196 53.0108 33.9726 54.1043C34.4256 55.1979 34.5441 56.4012 34.3132 57.562C34.0822 58.7229 33.5123 59.7893 32.6753 60.6262C31.8384 61.4632 30.772 62.0332 29.6111 62.2641C28.4502 62.495 27.2469 62.3765 26.1534 61.9235C25.0599 61.4706 24.1252 60.7035 23.4676 59.7194C22.81 58.7352 22.4591 57.5782 22.4591 56.3945C22.4608 54.8079 23.0918 53.2866 24.2138 52.1647C25.3357 51.0428 26.8569 50.4117 28.4436 50.41ZM28.4436 50.0879C27.1963 50.0879 25.9769 50.4578 24.9398 51.1507C23.9027 51.8437 23.0944 52.8287 22.617 53.9811C22.1397 55.1335 22.0148 56.4015 22.2581 57.6249C22.5015 58.8483 23.1021 59.972 23.9841 60.854C24.8661 61.736 25.9899 62.3366 27.2132 62.58C28.4366 62.8233 29.7047 62.6984 30.857 62.2211C32.0094 61.7438 32.9944 60.9354 33.6874 59.8983C34.3804 58.8612 34.7502 57.6419 34.7502 56.3945C34.7502 54.7219 34.0858 53.1178 32.9031 51.9351C31.7203 50.7523 30.1162 50.0879 28.4436 50.0879Z" fill="#FF5D0A"/>
<path opacity="0.4" d="M102.922 59.6381H41.5372C40.677 59.6381 39.852 59.2964 39.2437 58.6881C38.6354 58.0798 38.2937 57.2548 38.2937 56.3946C38.2937 55.9688 38.3776 55.5472 38.5407 55.1538C38.7037 54.7605 38.9427 54.4031 39.2439 54.1022C39.5451 53.8013 39.9027 53.5627 40.2962 53.4C40.6897 53.2374 41.1114 53.1539 41.5372 53.1543H102.922C103.348 53.1539 103.77 53.2374 104.163 53.4C104.557 53.5627 104.914 53.8013 105.216 54.1022C105.517 54.4031 105.756 54.7605 105.919 55.1538C106.082 55.5472 106.166 55.9688 106.166 56.3946C106.166 57.2548 105.824 58.0798 105.216 58.6881C104.607 59.2964 103.782 59.6381 102.922 59.6381Z" fill="#FF5D0A"/>
<path d="M28.4437 67.607C29.6274 67.607 30.7844 67.958 31.7686 68.6156C32.7527 69.2732 33.5198 70.2078 33.9727 71.3014C34.4257 72.3949 34.5442 73.5982 34.3133 74.7591C34.0824 75.92 33.5124 76.9863 32.6754 77.8233C31.8385 78.6602 30.7721 79.2302 29.6112 79.4611C28.4504 79.692 27.2471 79.5735 26.1535 79.1205C25.06 78.6676 24.1254 77.9005 23.4678 76.9164C22.8102 75.9322 22.4592 74.7752 22.4592 73.5915C22.46 72.0046 23.0908 70.4829 24.213 69.3608C25.3351 68.2386 26.8568 67.6079 28.4437 67.607ZM28.4437 67.2849C27.1964 67.2849 25.9771 67.6548 24.9399 68.3478C23.9028 69.0408 23.0945 70.0257 22.6172 71.1781C22.1398 72.3305 22.0149 73.5985 22.2583 74.8219C22.5016 76.0453 23.1023 77.169 23.9843 78.051C24.8663 78.933 25.99 79.5337 27.2134 79.777C28.4367 80.0203 29.7048 79.8955 30.8572 79.4181C32.0096 78.9408 32.9945 78.1324 33.6875 77.0953C34.3805 76.0582 34.7504 74.8389 34.7504 73.5915C34.7504 71.9189 34.0859 70.3148 32.9032 69.1321C31.7205 67.9494 30.1163 67.2849 28.4437 67.2849Z" fill="#FF5D0A"/>
<path opacity="0.4" d="M41.5372 70.332H102.922C103.782 70.332 104.607 70.6738 105.216 71.282C105.824 71.8903 106.166 72.7153 106.166 73.5755C106.166 74.4358 105.824 75.2608 105.216 75.869C104.607 76.4773 103.782 76.819 102.922 76.819H41.5372C40.677 76.819 39.852 76.4773 39.2437 75.869C38.6354 75.2608 38.2937 74.4358 38.2937 73.5755C38.2937 72.7162 38.6351 71.892 39.2428 71.2843C39.8504 70.6766 40.6746 70.3353 41.534 70.3353L41.5372 70.332Z" fill="#FF5D0A"/>
</svg>
