<svg width="386" height="386" viewBox="0 0 386 386" fill="none" xmlns="http://www.w3.org/2000/svg">
<g opacity="0.1">
<path fill-rule="evenodd" clip-rule="evenodd" d="M192.999 257.333H257.333V321.666L192.999 257.333ZM128.666 321.667H128.666L193 386H257.333L193 321.666H192.999H192.999L128.666 257.333V321.667Z" fill="#F7951D"/>
<path fill-rule="evenodd" clip-rule="evenodd" d="M257.333 193H321.667V257.333L257.333 193ZM257.333 257.333L193 193V257.333L257.333 321.667H321.667L257.333 257.333H257.333Z" fill="#FF5D0A"/>
<path fill-rule="evenodd" clip-rule="evenodd" d="M96.5008 64.333H85.7786V193H96.5008V64.333ZM75.0562 64.3332H64.334V193H75.0562V64.3332ZM107.223 64.333H117.945V193H107.223V64.333ZM139.39 64.333H128.667V193H139.39V64.333ZM150.112 64.333H160.834V193H150.112V64.333ZM182.278 64.333H171.556V193H182.278V64.333Z" fill="#F7951D"/>
<path fill-rule="evenodd" clip-rule="evenodd" d="M320.595 191.928V128.667H322.74V191.928H386.001V194.073H322.74V257.334H320.595V194.073H257.334V191.928H320.595Z" fill="#FF5D0A"/>
<path fill-rule="evenodd" clip-rule="evenodd" d="M128.667 193H193.001V257.333L128.667 193ZM128.667 257.333V321.667L64.334 257.333V193L128.667 257.333H128.667ZM193.001 321.667H128.667V257.333L193.001 321.667Z" fill="#FF5D0A"/>
<path fill-rule="evenodd" clip-rule="evenodd" d="M128.666 64.3333H128.666L193 128.667H257.333L193 64.3333H192.999L128.666 0V64.3333ZM192.999 0H257.333V64.3333L192.999 0Z" fill="#FF5D0A"/>
<path fill-rule="evenodd" clip-rule="evenodd" d="M10.7222 128.667H0V257.334H10.7222V128.667ZM32.1668 128.667H21.4446V257.334H32.1668V128.667ZM42.8888 128.667H53.6111V257.334H42.8888V128.667ZM75.0554 128.667H64.3332V257.334H75.0554V128.667ZM85.778 128.667H96.5002V257.334H85.778V128.667ZM117.944 128.667H107.222V257.334H117.944V128.667Z" fill="#F7951D"/>
<path fill-rule="evenodd" clip-rule="evenodd" d="M256.261 127.594V64.333H258.406V127.594H321.667V129.739H258.406V193H256.261V129.739H193V127.594H256.261Z" fill="#FF5D0A"/>
<path fill-rule="evenodd" clip-rule="evenodd" d="M192.999 257.333H257.333V321.666L192.999 257.333ZM128.666 321.667H128.666L193 386H257.333L193 321.666H192.999H192.999L128.666 257.333V321.667Z" fill="#FF5D0A"/>
<path fill-rule="evenodd" clip-rule="evenodd" d="M75.0562 193H64.334V321.667H75.0562V193ZM96.5008 193H85.7786V321.667H96.5008V193ZM107.223 193H117.945V321.667H107.223V193ZM139.39 193H128.667V321.667H139.39V193ZM150.112 193H160.834V321.667H150.112V193ZM182.278 193H171.556V321.667H182.278V193Z" fill="#F7951D"/>
<path fill-rule="evenodd" clip-rule="evenodd" d="M63.2611 191.928V128.667H65.4056V191.928H128.667V194.073H65.4056V257.334H63.2611V194.073H0V191.928H63.2611Z" fill="#FF5D0A"/>
<path fill-rule="evenodd" clip-rule="evenodd" d="M257.333 64.333H321.667V128.666L257.333 64.333ZM193 64.3332L257.333 128.666H257.333V128.667L321.667 193H257.333L193 128.667V128.666V64.3332Z" fill="#F7951D"/>
</g>
</svg>
