<svg width="220" height="200" viewBox="0 0 220 200" fill="none" xmlns="http://www.w3.org/2000/svg">
<path d="M126.388 118.288V136.864C126.388 144.853 120.375 150.856 112.357 150.856C104.925 150.856 98.3265 144.853 98.3265 136.864V107.145C98.3265 106.866 98.6314 106.866 98.6314 106.577C98.4281 106.39 98.3265 106.201 98.3265 106.008C98.3265 98.5729 104.92 92.0014 112.357 92.0014C130.392 92.0014 144.983 77.7207 144.983 60.002C144.983 42.2833 130.397 28.0026 112.357 28.0026C100.636 28.0026 90.3337 34.2947 84.8803 43.7154C80.8715 50.5763 72.2939 52.8566 65.4209 48.8548C58.8478 44.863 56.5434 36.57 60.5523 29.7191C70.8543 12.0054 90.3337 0 112.357 0C145.563 0 172.76 26.8549 172.76 59.992C172.76 88.279 153.001 111.995 126.388 118.278V118.288ZM126.388 180.854V185.994C126.388 193.997 120.375 200 112.357 200C104.925 200 98.3265 193.997 98.3265 185.994V180.854C98.3265 173.145 104.92 166.863 112.357 166.863C120.375 166.863 126.388 173.145 126.388 180.854Z" fill="#FF5D0A"/>
<path d="M181.394 146.151L176.861 154.394C174.912 157.939 170.785 159.14 167.229 157.187C163.937 155.375 162.482 151.112 164.43 147.562L171.684 134.373C171.752 134.251 171.879 134.319 171.952 134.192C171.913 134.062 171.916 133.954 171.962 133.87C173.774 130.569 178.297 129.26 181.589 131.067C189.58 135.457 199.539 132.673 203.856 124.811C208.247 116.827 205.195 107.056 197.204 102.661C192.007 99.8045 185.907 100.088 181.193 102.944C177.75 105.015 173.388 103.936 171.317 100.488C169.373 97.1139 170.384 92.8802 173.833 90.8146C182.717 85.4626 194.269 84.8717 204.032 90.2384C218.749 98.3249 224.238 116.862 216.155 131.57C209.253 144.124 194.713 149.838 181.389 146.146L181.394 146.151ZM166.125 173.917L164.87 176.197C162.916 179.747 158.789 180.949 155.238 178.995C151.946 177.184 150.491 172.921 152.444 169.366L153.7 167.085C155.58 163.662 160.03 162.48 163.327 164.287C166.877 166.24 168.011 170.489 166.13 173.912L166.125 173.917Z" fill="#F1F1F1"/>
<g opacity="0.6">
<path d="M181.394 146.151L176.861 154.394C174.912 157.939 170.785 159.14 167.229 157.187C163.937 155.375 162.482 151.112 164.431 147.562L171.684 134.373C171.752 134.251 171.879 134.319 171.952 134.192C171.913 134.062 171.917 133.954 171.962 133.87C173.774 130.569 178.297 129.26 181.589 131.067C189.58 135.457 199.539 132.673 203.856 124.811C208.247 116.827 205.195 107.056 197.204 102.661C192.007 99.8045 185.907 100.088 181.193 102.944C177.75 105.015 173.388 103.936 171.317 100.488C169.373 97.1139 170.385 92.8802 173.833 90.8146C182.717 85.4626 194.269 84.8717 204.032 90.2384C218.749 98.3249 224.239 116.862 216.155 131.57C209.254 144.124 194.713 149.838 181.389 146.146L181.394 146.151ZM166.125 173.917L164.87 176.197C162.916 179.747 158.789 180.949 155.238 178.995C151.946 177.184 150.491 172.921 152.445 169.366L153.7 167.085C155.58 163.662 160.03 162.48 163.327 164.287C166.878 166.24 168.011 170.489 166.13 173.912L166.125 173.917Z" fill="#F1F1F1"/>
</g>
<path d="M33.743 120.855L30.6199 111.487C29.276 107.457 31.2946 103.426 35.3317 102.082C39.0751 100.836 43.3951 102.757 44.739 106.787L49.7338 121.768C49.7828 121.91 49.6359 121.959 49.6848 122.106C49.8154 122.167 49.897 122.247 49.9297 122.345C51.1811 126.093 48.9721 130.51 45.2287 131.756C36.1479 134.78 31.2021 144.43 34.1782 153.362C37.2034 162.436 46.9045 167.043 55.9854 164.019C61.8942 162.049 66.0185 157.148 67.1774 151.485C68.037 147.357 71.9763 144.767 76.1059 145.627C80.0887 146.535 82.635 150.332 81.7699 154.461C79.5609 165.117 71.7858 174.436 60.6918 178.129C43.9773 183.699 25.7775 174.718 20.206 158.013C15.4506 143.75 21.4084 128.481 33.7484 120.849L33.743 120.855ZM23.2257 89.3097L22.3606 86.715C21.0167 82.6787 23.0353 78.6479 27.067 77.2989C30.8103 76.0532 35.1304 77.9734 36.4743 82.0097L37.3394 84.5989C38.6343 88.4883 36.3764 92.7585 32.633 94.0042C28.5959 95.3478 24.5152 93.1882 23.2202 89.3043L23.2257 89.3097Z" fill="#F1F1F1"/>
<g opacity="0.6">
<path d="M33.743 120.855L30.6199 111.487C29.276 107.457 31.2946 103.426 35.3317 102.082C39.0751 100.836 43.3951 102.757 44.739 106.787L49.7338 121.768C49.7828 121.91 49.6359 121.959 49.6848 122.106C49.8154 122.167 49.897 122.247 49.9297 122.345C51.1811 126.093 48.9721 130.51 45.2287 131.756C36.1479 134.78 31.2021 144.43 34.1782 153.362C37.2034 162.436 46.9045 167.043 55.9854 164.019C61.8942 162.049 66.0185 157.148 67.1774 151.485C68.037 147.357 71.9763 144.767 76.1059 145.627C80.0887 146.535 82.635 150.332 81.7699 154.461C79.5609 165.117 71.7858 174.436 60.6918 178.129C43.9773 183.699 25.7775 174.718 20.206 158.013C15.4506 143.75 21.4084 128.481 33.7484 120.849L33.743 120.855ZM23.2257 89.3097L22.3606 86.715C21.0167 82.6787 23.0353 78.6479 27.067 77.2989C30.8103 76.0532 35.1304 77.9734 36.4743 82.0097L37.3394 84.5989C38.6343 88.4883 36.3764 92.7585 32.633 94.0042C28.5959 95.3478 24.5152 93.1882 23.2202 89.3043L23.2257 89.3097Z" fill="#F1F1F1"/>
</g>
<path d="M24.8123 138.095L30.5872 144.227L75.9862 101.484L70.2113 95.3531L24.8123 138.095Z" fill="#D0D5DD"/>
<path d="M7.29004 151.641L16.0187 160.91L41.0035 137.383L32.2748 128.114L7.29004 151.641Z" fill="#475467"/>
<g opacity="0.4">
<path d="M64.1185 55.6423C68.4586 30.6728 92.3196 13.9021 117.285 18.2413C129.361 20.3479 139.911 27.0358 146.988 37.0895C154.06 47.1432 156.797 59.3277 154.694 71.4057C152.597 83.4788 145.898 94.0216 135.842 101.102C125.786 108.172 113.599 110.904 101.523 108.807C89.4472 106.7 78.8972 100.007 71.83 89.9585C64.7579 79.9048 62.0211 67.7203 64.1233 55.6472L64.1185 55.6423Z" fill="white"/>
</g>
<path d="M56.4746 54.3202C61.5558 25.1422 89.4373 5.53367 118.622 10.6138C147.811 15.6939 167.419 43.5643 162.338 72.7471C157.257 101.925 129.38 121.534 100.191 116.453C71.0062 111.373 51.3933 83.4981 56.4746 54.3202ZM62.544 55.3759C58.044 81.2123 75.4093 105.891 101.252 110.385C127.094 114.884 151.778 97.5229 156.273 71.6865C160.773 45.8501 143.408 21.176 117.566 16.677C91.7236 12.178 67.0391 29.5395 62.544 55.3759Z" fill="#475467"/>
<path d="M122.206 111.005C127.67 109.523 132.901 107.078 137.677 103.721C148.436 96.1521 155.59 84.8732 157.843 71.9574C160.085 59.0465 157.16 46.0096 149.598 35.2634C142.037 24.5075 130.756 17.345 117.837 15.1028C104.913 12.8509 91.8736 15.7856 81.125 23.3453C75.7483 27.1275 71.2774 31.8299 67.8527 37.2102C64.4426 42.5906 62.0885 48.6393 60.9599 55.0996C56.3194 81.8077 74.2563 107.315 100.975 111.959C108.149 113.213 115.366 112.865 122.206 111.005ZM101.518 108.806C76.5427 104.467 59.7683 80.6115 64.1084 55.6517C66.2155 43.5785 72.9098 33.0357 82.9608 25.9555C93.0168 18.885 105.204 16.1488 117.28 18.2506C129.356 20.3476 139.901 27.05 146.983 37.0989C154.055 47.1525 156.787 59.3371 154.689 71.4102C152.582 83.4833 145.893 94.0261 135.837 101.097C125.781 108.167 113.594 110.903 101.518 108.802V108.806ZM122.206 111.005C127.67 109.523 132.901 107.078 137.677 103.721C148.436 96.1521 155.59 84.8732 157.843 71.9574C160.085 59.0465 157.16 46.0096 149.598 35.2634C142.037 24.5075 130.756 17.345 117.837 15.1028C104.913 12.8509 91.8736 15.7856 81.125 23.3453C75.7483 27.1275 71.2774 31.8299 67.8527 37.2102C64.4426 42.5906 62.0885 48.6393 60.9599 55.0996C56.3194 81.8077 74.2563 107.315 100.975 111.959C108.149 113.213 115.366 112.865 122.206 111.005ZM101.518 108.806C76.5427 104.467 59.7683 80.6115 64.1084 55.6517C66.2155 43.5785 72.9098 33.0357 82.9608 25.9555C93.0168 18.885 105.204 16.1488 117.28 18.2506C129.356 20.3476 139.901 27.05 146.983 37.0989C154.055 47.1525 156.787 59.3371 154.689 71.4102C152.582 83.4833 145.893 94.0261 135.837 101.097C125.781 108.167 113.594 110.903 101.518 108.802V108.806ZM123.805 116.952C129.961 115.291 135.846 112.535 141.223 108.753C153.318 100.244 161.379 87.5513 163.917 73.018C169.143 42.9635 148.949 14.2698 118.898 9.03475C104.351 6.50681 89.689 9.79992 77.5841 18.3087C65.4889 26.8273 57.4287 39.5106 54.9002 54.0439C52.362 68.5771 55.6655 83.246 64.1762 95.3385C72.6869 107.441 85.3828 115.499 99.9193 118.027C107.999 119.432 116.112 119.039 123.809 116.952H123.805ZM100.462 114.879C86.773 112.497 74.8134 104.903 66.7822 93.5031C58.7656 82.1031 55.6558 68.2866 58.0487 54.5959C60.4319 40.9005 68.0174 28.9436 79.4296 20.9239C84.4867 17.3596 90.0378 14.7686 95.8359 13.1996C103.087 11.2285 110.731 10.8557 118.341 12.1826C146.658 17.1077 165.69 44.1597 160.763 72.4708C157.179 93.0479 141.921 108.719 122.967 113.848C115.841 115.775 108.202 116.226 100.462 114.874V114.879ZM137.677 103.726C148.436 96.157 155.59 84.8781 157.843 71.9623C160.085 59.0513 157.16 46.0145 149.598 35.2683C142.037 24.5124 130.756 17.3499 117.837 15.1076C104.913 12.8557 91.8736 15.7905 81.125 23.3501C75.7483 27.1323 71.2774 31.8347 67.8527 37.2151C64.4426 42.5955 62.0885 48.6441 60.9599 55.1044C56.3194 81.8126 74.2563 107.32 100.975 111.964C108.149 113.218 115.366 112.87 122.206 111.01C127.67 109.528 132.901 107.082 137.677 103.726ZM101.518 108.811C76.5427 104.472 59.7683 80.6164 64.1084 55.6565C66.2155 43.5834 72.9098 33.0406 82.9608 25.9604C93.0168 18.8899 105.204 16.1537 117.28 18.2555C129.356 20.3524 139.901 27.0549 146.983 37.1037C154.055 47.1574 156.787 59.3419 154.689 71.415C152.582 83.4882 145.893 94.031 135.837 101.101C125.781 108.172 113.594 110.908 101.518 108.806V108.811Z" fill="#475467"/>
<path opacity="0.3" d="M89.2241 31.3311C93.2348 28.5998 97.9576 26.9048 102.835 26.0234C105.282 25.5634 107.791 25.4181 110.31 25.452C112.828 25.5198 115.352 25.8636 117.832 26.406C122.783 27.5876 127.505 29.825 131.535 32.9051C135.566 35.9802 138.981 39.7722 141.562 43.9999C137.968 40.5761 134.224 37.4573 130.179 34.9197C128.121 33.7138 126.072 32.5128 123.868 31.6605C121.698 30.75 119.479 29.9606 117.188 29.4715C112.635 28.377 107.912 28.101 103.208 28.4497C98.505 28.8419 93.8161 29.7814 89.2192 31.3263L89.2241 31.3311Z" fill="#E4E7EC"/>
<path opacity="0.3" d="M117.987 98.9609C113.381 100.491 108.377 100.835 103.441 100.351C100.966 100.123 98.5098 99.576 96.0975 98.8592C93.6901 98.1086 91.3602 97.0868 89.1223 95.8857C84.6853 93.3965 80.7521 89.9533 77.7149 85.8902C74.6778 81.8271 72.4303 77.2506 71.103 72.4756C73.6267 76.7518 76.3732 80.7713 79.575 84.3211C81.2219 86.0452 82.8688 87.7595 84.7531 89.1833C86.589 90.6507 88.512 92.0163 90.5803 93.1108C94.6589 95.4063 99.1298 96.9657 103.746 97.91C108.377 98.8156 113.148 99.1934 117.987 98.9658V98.9609Z" fill="#D0D5DD"/>
<path d="M57.6675 63.1644L44.9411 59.9201L44.7104 59.8613L44.5193 60.0033C39.9349 63.4109 34.2653 65.4232 28.126 65.4232C13.1806 65.4232 1.02053 53.5042 0.620745 38.6682V37.9242C0.620745 22.73 12.9383 10.415 28.1362 10.415C43.3339 10.415 55.6516 22.74 55.6516 37.9242C55.6516 42.6076 54.4756 47.0305 52.3934 50.8953L52.2766 51.1119L52.3771 51.3366L57.6675 63.1644Z" fill="white" stroke="#D0D5DD"/>
<path d="M32.4201 43.0185L22.8303 33.4287M32.4201 33.4287L22.8303 43.0185" stroke="#FF5D0A" stroke-width="8" stroke-linecap="round"/>
<path d="M27.6255 54.207C36.4526 54.207 43.6084 47.0512 43.6084 38.2241C43.6084 29.397 36.4526 22.2412 27.6255 22.2412C18.7984 22.2412 11.6426 29.397 11.6426 38.2241C11.6426 47.0512 18.7984 54.207 27.6255 54.207Z" stroke="#FF5D0A" stroke-width="8"/>
</svg>
