<svg width="320" height="386" viewBox="0 0 320 386" fill="none" xmlns="http://www.w3.org/2000/svg">
<path d="M257.011 73.9739L159.35 38.9195L62.6688 73.5411C50.3204 79.3113 39.5877 82.8601 39.5877 94.3429V151.584C39.3756 191.782 50.3651 231.244 71.3242 265.547C92.2687 300.21 123.318 327.634 160.302 344.138C199.828 331.299 229.343 297.052 247.375 267.797C268.385 233.51 279.424 194.046 279.256 153.834V102.335C279.256 85.9183 270.543 77.9265 257.011 73.9739Z" fill="#FF5D0A"/>
<g opacity="0.3">
<path d="M160.302 310.901C131.002 297.669 106.441 275.806 89.9044 248.236C73.3032 221.092 64.5822 189.864 64.7172 158.047V117.886C64.7172 108.797 70.1989 100.257 81.1047 95.1796L159.378 65.9243V38.9195L62.6976 73.5411C52.5419 77.9553 39.6165 82.8601 39.6165 94.3429V151.584C39.4044 191.782 50.3939 231.244 71.353 265.547C92.2975 300.21 123.346 327.634 160.33 344.138L160.302 310.901Z" fill="black"/>
</g>
<g opacity="0.4">
<path d="M160.302 344.138C166.927 341.967 173.347 339.216 179.488 335.915C194.55 327.374 208.236 316.607 220.081 303.977C230.846 292.393 240.318 279.672 248.327 266.037C269.616 231.512 280.365 191.524 279.255 150.978V103.691C279.255 80.148 267.109 78.417 256.953 73.9739L159.349 38.9195V65.9243L238.575 95.6124C249.481 100.719 254.963 109.23 254.963 118.347V158.508C255.097 190.321 246.365 221.542 229.747 248.669C213.59 276.087 189.327 297.82 160.302 310.872V344.138Z" fill="black"/>
</g>
<path opacity="0.5" d="M185.258 155.479V147.747C185.036 141.173 182.269 134.942 177.54 130.37C172.811 125.797 166.49 123.242 159.912 123.242C153.334 123.242 147.014 125.797 142.285 130.37C137.556 134.942 134.788 141.173 134.566 147.747V155.623C131.202 156.121 128.128 157.81 125.904 160.384C123.68 162.957 122.454 166.244 122.449 169.645V215.23C122.456 218.99 123.955 222.593 126.616 225.249C129.278 227.904 132.884 229.396 136.644 229.396H183.96C185.822 229.4 187.668 229.036 189.39 228.326C191.112 227.616 192.677 226.573 193.995 225.257C195.314 223.941 196.36 222.378 197.074 220.658C197.787 218.937 198.155 217.093 198.155 215.23V169.645C198.162 166.1 196.843 162.68 194.456 160.058C192.07 157.437 188.788 155.803 185.258 155.479ZM166.793 203.834H154.416L156.349 194.919C154.983 194.037 153.939 192.737 153.373 191.213C152.806 189.689 152.749 188.023 153.208 186.463C153.668 184.904 154.619 183.535 155.921 182.561C157.223 181.587 158.806 181.061 160.431 181.061C162.057 181.061 163.639 181.587 164.941 182.561C166.243 183.535 167.195 184.904 167.655 186.463C168.114 188.023 168.057 189.689 167.49 191.213C166.924 192.737 165.88 194.037 164.514 194.919L166.793 203.834ZM179.805 155.421H140.019V147.747C140.215 142.602 142.397 137.733 146.106 134.162C149.815 130.592 154.764 128.597 159.912 128.597C165.061 128.597 170.009 130.592 173.718 134.162C177.428 137.733 179.609 142.602 179.805 147.747V155.421Z" fill="white"/>
<path d="M80.5277 154.931C79.7036 152.36 79.2187 149.693 79.0851 146.997C78.338 140.543 78.068 134.044 78.2773 127.551C78.2773 123.742 78.6524 120.136 78.9986 116.847C79.1295 113.846 79.8655 110.901 81.1624 108.192C82.1013 106.347 83.5946 104.844 85.4324 103.893C86.7596 103.258 87.5963 103.287 87.5963 103.402C85.2414 104.493 83.3501 106.385 82.2588 108.74C81.1965 111.354 80.6197 114.141 80.5566 116.962C80.2969 120.223 80.0949 123.8 79.9795 127.58C79.7776 135.11 79.9795 142.005 80.2681 146.852C80.5844 149.533 80.6713 152.235 80.5277 154.931Z" fill="white"/>
<path d="M82.028 179.858C81.5663 179.858 81.1336 177.521 81.0759 174.607C81.0182 171.693 81.3644 169.327 81.826 169.299C82.2876 169.27 82.7204 171.664 82.7781 174.578C82.8358 177.492 82.4319 179.858 82.028 179.858Z" fill="white"/>
<path d="M290.161 45.0071C292.801 45.6382 295.387 46.4775 297.894 47.5172C300.958 48.7405 303.865 50.3292 306.549 52.2488C310.344 54.8397 313.484 58.2768 315.724 62.2891C318.422 67.3863 319.866 73.0537 319.936 78.8209C319.936 85.1105 319.936 91.9194 319.936 99.2764C319.936 113.962 320.08 130.753 319.936 149.478C319.666 170.055 317.013 190.532 312.031 210.498C306.18 233.75 297.141 256.081 285.17 276.856C271.775 300.114 255.177 321.374 235.863 340.012C215.667 359.313 190.74 376.393 161.629 385.453H161.369H161.109C150.914 381.096 140.964 376.184 131.306 370.739C121.431 365.016 111.92 358.685 102.83 351.783C84.07 337.431 67.3723 320.568 53.2054 301.668C22.5566 261.275 4.32207 212.836 0.724921 162.259C-0.198321 150.286 0.0613252 138.457 0.0324739 126.829V92.4098C0.0324739 86.6396 0.0324739 81.2155 0.0324739 75.7049C-0.0572845 72.9222 0.0390751 70.1367 0.320961 67.3669C0.741917 64.5501 1.8961 61.8936 3.66772 59.6636C7.29945 55.5625 11.8052 52.3287 16.8528 50.2004C21.671 47.9211 26.518 45.9304 31.2785 43.8242L159.926 0.547241H160.071H160.244L255.684 33.1781L281.16 41.8335L287.709 44.1127L289.931 44.9494C289.931 44.9494 289.152 44.7474 287.68 44.257L281.073 42.0931L255.511 33.4377L160.157 1.38391H160.475L31.942 45.036C27.2104 47.1421 22.3345 49.1329 17.5164 51.4121C12.6486 53.4645 8.30132 56.5795 4.79292 60.5291C3.16294 62.5823 2.10756 65.0317 1.73469 67.6266C1.47201 70.3204 1.38528 73.0286 1.47504 75.7338V92.4387C1.47504 103.662 1.47504 115.116 1.47504 126.714C1.47504 138.312 1.27308 150.141 2.19632 162.028C5.78907 212.325 23.9329 260.491 54.4172 300.659C68.5131 319.449 85.1232 336.215 103.782 350.485C112.812 357.352 122.265 363.644 132.085 369.325C141.729 374.804 151.669 379.745 161.86 384.126H161.369C190.22 375.182 214.888 358.159 235.084 339.06C254.334 320.534 270.892 299.402 284.276 276.279C296.188 255.649 305.225 233.489 311.136 210.412C316.151 190.536 318.852 170.147 319.186 149.651C319.186 130.955 319.186 114.135 319.359 99.4496C319.359 92.0925 319.359 85.2547 319.359 79.0228C319.351 73.3367 317.975 67.736 315.349 62.693C313.171 58.7332 310.123 55.3198 306.433 52.7104C303.738 50.7922 300.835 49.1856 297.778 47.9211C295.892 47.1299 293.966 46.4366 292.008 45.8438L290.161 45.0071Z" fill="#FF5D0A"/>
</svg>
