<svg width="315" height="284" viewBox="0 0 315 284" fill="none" xmlns="http://www.w3.org/2000/svg">
<g filter="url(#filter0_d_486_27)">
<path d="M248.46 101.039V101.162C248.46 103.468 246.56 105.363 244.259 105.363H21.1614C18.9005 105.363 17 103.463 17 101.162V101.039L39.7521 83.1395L132.73 10.001L225.708 83.1395L248.46 101.039Z" fill="#D6E8F5"/>
<path d="M248.46 101.686H17V214.345H248.46V101.686Z" fill="#C3CDDF"/>
<path d="M212.172 39.2539H53.2871V243.84H212.172V39.2539Z" fill="white"/>
<path d="M199.12 56.0625H66.3398V59.5378H199.12V56.0625Z" fill="#06BBCF"/>
<path d="M199.12 69.1152H66.3398V72.63H199.12V69.1152Z" fill="#06BBCF"/>
<path d="M199.12 82.3691H66.3398V85.8444H199.12V82.3691Z" fill="#06BBCF"/>
<path d="M199.12 95.4209H66.3398V98.8962H199.12V95.4209Z" fill="#06BBCF"/>
<path d="M199.12 107.624H66.3398V111.099H199.12V107.624Z" fill="#06BBCF"/>
<path d="M199.12 120.676H66.3398V124.151H199.12V120.676Z" fill="#06BBCF"/>
<path d="M199.12 133.891H66.3398V137.366H199.12V133.891Z" fill="#06BBCF"/>
<path d="M199.12 146.943H66.3398V150.458H199.12V146.943Z" fill="#06BBCF"/>
<path d="M199.12 158.943H66.3398V162.419H199.12V158.943Z" fill="#06BBCF"/>
<path d="M199.12 171.995H66.3398V175.51H199.12V171.995Z" fill="#06BBCF"/>
<path d="M199.12 185.25H66.3398V188.725H199.12V185.25Z" fill="#06BBCF"/>
<path d="M199.12 198.302H66.3398V201.777H199.12V198.302Z" fill="#06BBCF"/>
<path d="M199.12 210.505H66.3398V213.98H199.12V210.505Z" fill="#06BBCF"/>
<path d="M199.12 223.557H66.3398V227.032H199.12V223.557Z" fill="#06BBCF"/>
<path d="M248.46 101.849V257.826C248.46 260.131 246.56 261.987 244.259 261.987H21.1614C18.9005 261.987 17 260.126 17 257.826V101.849L38.2169 118.252L132.73 191.351L227.243 118.252L248.46 101.849Z" fill="#D6E8F5"/>
<path d="M248.46 257.702V257.826C248.46 260.131 246.56 261.987 244.259 261.987H21.1614C18.9005 261.987 17 260.126 17 257.826V257.702L39.7521 239.803L132.73 166.664L225.708 239.803L248.46 257.702Z" fill="#C3CDDF"/>
</g>
<g filter="url(#filter1_d_486_27)">
<path d="M202.605 220.52L217.746 211.654C222.746 208.682 229.267 210.923 231.933 215.973C234.643 221.112 232.664 227.495 227.525 230.205L214.246 237.314L202.61 220.515L202.605 220.52Z" fill="#5B667D"/>
<path d="M208.577 209.028L187.459 222.386C200.699 233.997 212.615 251.536 217.621 261.251C223.263 265.625 230.574 263.443 235.431 259.992L208.577 209.033V209.028Z" fill="#B0B0B0"/>
<path d="M231.246 262.189L199.061 215.263L208.573 209.028L235.427 259.987C234.213 260.851 232.732 261.631 231.246 262.189Z" fill="#5B667D"/>
<path d="M217.311 211.881C220.811 212.819 223.857 215.223 225.649 218.619C227.806 222.711 227.643 227.475 225.52 231.261L214.241 237.318L202.605 220.52L217.306 211.881H217.311Z" fill="#C3CDDF"/>
<path d="M202.819 178.896L184.525 188.537C175.294 193.404 171.749 204.842 176.612 214.073C181.43 223.22 192.917 226.849 202.148 221.986L220.443 212.345C229.674 207.478 233.174 195.951 228.356 186.809C223.488 177.578 212.051 174.034 202.819 178.896Z" fill="#5B667D"/>
<path d="M233.107 114.075C227.548 136.26 215.592 166.377 197.155 181.438C184.665 190.689 197.609 217.148 214.965 215.238C272.964 198.365 319.564 233.572 233.107 114.08V114.075Z" fill="#C3CDDF"/>
<path d="M290.052 210.943C305.296 202.912 305.632 173.347 290.852 145.303C276.023 117.166 251.494 100.821 236.25 108.858C221.006 116.894 220.621 146.365 235.45 174.498C250.23 202.546 274.809 218.98 290.052 210.943Z" fill="#5B667D"/>
<path d="M287.391 205.893C300.458 199.007 300.206 172.765 286.848 147.416C273.49 122.067 251.982 107.026 238.915 113.907C225.849 120.794 226.1 147.036 239.458 172.384C252.816 197.733 274.325 212.774 287.391 205.893Z" fill="#C3CDDF"/>
<path d="M235.826 167.177L250.897 159.234L259.067 174.74L243.996 182.683C242.402 180.293 240.94 177.726 239.563 175.115C238.186 172.504 236.897 169.843 235.826 167.177Z" fill="#5B667D"/>
<path d="M258.633 174.972C261.244 173.594 261.501 169.008 259.25 164.738C256.999 160.468 253.074 158.089 250.463 159.466C247.851 160.844 247.684 165.385 249.93 169.65C252.181 173.92 256.105 176.3 258.633 174.972Z" fill="#BDCDE9"/>
<path d="M257.253 172.36C258.995 171.442 259.148 168.357 257.682 165.568C256.211 162.779 253.58 161.164 251.837 162.083C250.095 163.001 250.026 166.042 251.497 168.831C252.968 171.62 255.599 173.234 257.253 172.365V172.36Z" fill="#5B667D"/>
</g>
<defs>
<filter id="filter0_d_486_27" x="0" y="0.000976562" width="261.461" height="281.986" filterUnits="userSpaceOnUse" color-interpolation-filters="sRGB">
<feFlood flood-opacity="0" result="BackgroundImageFix"/>
<feColorMatrix in="SourceAlpha" type="matrix" values="0 0 0 0 0 0 0 0 0 0 0 0 0 0 0 0 0 0 127 0" result="hardAlpha"/>
<feOffset dx="-2" dy="5"/>
<feGaussianBlur stdDeviation="7.5"/>
<feComposite in2="hardAlpha" operator="out"/>
<feColorMatrix type="matrix" values="0 0 0 0 0.220898 0 0 0 0 0.220898 0 0 0 0 0.220898 0 0 0 0.09 0"/>
<feBlend mode="normal" in2="BackgroundImageFix" result="effect1_dropShadow_486_27"/>
<feBlend mode="normal" in="SourceGraphic" in2="effect1_dropShadow_486_27" result="shape"/>
</filter>
<filter id="filter1_d_486_27" x="157.432" y="96.8105" width="157.283" height="186.881" filterUnits="userSpaceOnUse" color-interpolation-filters="sRGB">
<feFlood flood-opacity="0" result="BackgroundImageFix"/>
<feColorMatrix in="SourceAlpha" type="matrix" values="0 0 0 0 0 0 0 0 0 0 0 0 0 0 0 0 0 0 127 0" result="hardAlpha"/>
<feOffset dx="-2" dy="5"/>
<feGaussianBlur stdDeviation="7.5"/>
<feComposite in2="hardAlpha" operator="out"/>
<feColorMatrix type="matrix" values="0 0 0 0 0.220898 0 0 0 0 0.220898 0 0 0 0 0.220898 0 0 0 0.09 0"/>
<feBlend mode="normal" in2="BackgroundImageFix" result="effect1_dropShadow_486_27"/>
<feBlend mode="normal" in="SourceGraphic" in2="effect1_dropShadow_486_27" result="shape"/>
</filter>
</defs>
</svg>
