<svg width="119" height="40" viewBox="0 0 119 40" fill="none" xmlns="http://www.w3.org/2000/svg">
<path d="M117.329 22.427C117.092 21.9432 116.769 21.5343 116.367 21.2111C115.977 20.8984 115.523 20.6324 115.016 20.4207C114.521 20.2143 114.004 20.0322 113.477 19.8794C112.931 19.7318 112.423 19.5762 111.967 19.4165C111.528 19.263 111.151 19.0726 110.846 18.8514C110.556 18.6415 110.326 18.36 110.164 18.0156C110.001 17.6699 109.918 17.1914 109.918 16.5927C109.918 16.064 110.018 15.6115 110.215 15.2473C110.415 14.8759 110.672 14.5735 110.977 14.3494C111.287 14.1207 111.635 13.9542 112.009 13.854C112.392 13.7519 112.761 13.7004 113.105 13.7004C113.849 13.7004 114.491 13.8479 115.012 14.1397C115.534 14.4313 116.009 14.888 116.427 15.497L116.554 15.6831L117.507 15.0659L117.358 14.8291C116.413 13.3216 114.982 12.5569 113.105 12.5569C112.585 12.5569 112.063 12.6415 111.555 12.8094C111.042 12.9786 110.577 13.2301 110.172 13.5585C109.762 13.8913 109.428 14.3168 109.182 14.8225C108.934 15.3327 108.808 15.939 108.808 16.6252C108.808 17.3072 108.908 17.8879 109.104 18.35C109.301 18.8128 109.574 19.2067 109.916 19.5212C110.252 19.8286 110.647 20.0816 111.09 20.2724C111.517 20.4577 111.98 20.6285 112.469 20.7812C112.908 20.91 113.381 21.0541 113.888 21.215C114.377 21.37 114.83 21.5737 115.235 21.8206C115.623 22.0582 115.951 22.3796 116.206 22.7748C116.454 23.1565 116.579 23.668 116.579 24.2947C116.579 24.8266 116.478 25.3042 116.277 25.7145C116.073 26.1305 115.805 26.4818 115.479 26.7578C115.148 27.0385 114.775 27.2523 114.372 27.3924C113.966 27.5338 113.559 27.6057 113.162 27.6057C111.424 27.6057 110.132 26.9047 109.212 25.462L109.078 25.2516L108.164 25.9336L108.305 26.1561C108.845 27.0067 109.539 27.6591 110.369 28.0955C111.194 28.5293 112.124 28.75 113.133 28.75C113.752 28.75 114.339 28.6472 114.879 28.446C115.423 28.243 115.909 27.9446 116.323 27.5603C116.74 27.172 117.076 26.6927 117.32 26.1352C117.565 25.5743 117.689 24.9334 117.689 24.2302C117.689 23.5232 117.568 22.9171 117.329 22.427Z" fill="#98A2B3"/>
<path d="M103.21 14.6692C102.791 14.0349 102.221 13.5191 101.517 13.1348C100.811 12.7512 99.9253 12.5569 98.8833 12.5569C98.2305 12.5569 97.5912 12.6584 96.9826 12.8593C96.3732 13.0597 95.7999 13.3595 95.2762 13.7507C94.7558 14.1404 94.2837 14.6189 93.8727 15.1725C93.6757 15.4387 93.4991 15.7247 93.3456 16.028C93.3375 15.7317 93.3286 15.4271 93.3198 15.113C93.3089 14.739 93.2987 14.3902 93.2885 14.0688C93.2777 13.7439 93.2614 13.4679 93.2403 13.2472L93.1839 12.5577H91.9707L92.0318 13.2987C92.0522 13.5112 92.0733 13.7764 92.0943 14.0944C92.1147 14.414 92.1303 14.749 92.1405 15.0995L92.1725 16.1459C92.1826 16.4861 92.1874 16.7732 92.1874 17.0067V28.75H93.3986V20.676C93.3986 19.5731 93.5467 18.5788 93.8395 17.7212C94.1302 16.8665 94.5262 16.1308 95.0167 15.536C95.5024 14.9465 96.0845 14.4884 96.7482 14.173C97.4119 13.8592 98.1299 13.6992 98.8833 13.6992C99.7283 13.6992 100.431 13.8753 100.973 14.2218C101.524 14.575 101.967 15.0184 102.289 15.5394C102.615 16.066 102.84 16.663 102.959 17.3125C103.081 17.9811 103.143 18.614 103.143 19.1961V28.75H104.354V19.1311C104.354 18.3433 104.267 17.5549 104.096 16.7867C103.922 16.0071 103.624 15.2952 103.21 14.6692Z" fill="#98A2B3"/>
<path d="M87.645 12.5569H87.3764C86.3137 12.5569 85.3116 12.9149 84.398 13.6208C83.7336 14.1339 83.1971 14.8879 82.7955 15.8706C82.789 15.6242 82.7819 15.373 82.7754 15.1161C82.7651 14.7409 82.7554 14.3912 82.7451 14.0689C82.7354 13.7448 82.7199 13.4679 82.6999 13.2472L82.6463 12.5569H81.4932L81.5513 13.2987C81.5706 13.5113 81.5907 13.7773 81.61 14.0953C81.6294 14.4142 81.6442 14.7491 81.6546 15.0997L81.6843 16.1461C81.694 16.4866 81.6991 16.7734 81.6991 17.0068V28.75H82.8497V20.4193C82.8497 19.6281 82.9427 18.8207 83.126 18.0199C83.3081 17.2255 83.5935 16.494 83.9751 15.8454C84.3515 15.2059 84.8377 14.6814 85.4201 14.2862C85.9934 13.897 86.7017 13.6993 87.5256 13.6993H87.6902C87.738 13.6993 87.7935 13.7075 87.8542 13.7239L88.1609 13.8051V12.6362L87.9614 12.5942C87.8432 12.5691 87.7399 12.5569 87.645 12.5569Z" fill="#98A2B3"/>
<path d="M75.5569 14.8174C74.8819 14.1108 74.0652 13.5508 73.1295 13.1541C72.1945 12.7579 71.1571 12.5569 70.047 12.5569C68.937 12.5569 67.9044 12.7579 66.9799 13.1546C66.0543 13.5514 65.243 14.1108 64.5687 14.8174C63.893 15.5257 63.3636 16.3823 62.9957 17.3633C62.6287 18.3416 62.4424 19.4378 62.4424 20.6214C62.4424 21.8049 62.6287 22.9064 62.9952 23.8947C63.363 24.8874 63.8922 25.754 64.5666 26.4724C65.2417 27.1901 66.0535 27.7556 66.9799 28.1528C67.9044 28.549 68.937 28.75 70.047 28.75C71.1571 28.75 72.1945 28.5495 73.1295 28.1536C74.0659 27.7561 74.8832 27.1907 75.5582 26.4724C76.2325 25.7548 76.7612 24.8881 77.1303 23.8947C77.4967 22.9043 77.6829 21.8028 77.6829 20.6214C77.6829 19.44 77.4967 18.3437 77.1296 17.3633C76.7605 16.3815 76.2319 15.5251 75.5569 14.8174ZM76.5019 20.6214C76.5019 21.5914 76.3522 22.5116 76.0576 23.356C75.7643 24.1947 75.3341 24.9368 74.7775 25.5612C74.2222 26.1841 73.5385 26.6871 72.7465 27.056C71.9564 27.4244 71.048 27.6112 70.047 27.6112C69.0469 27.6112 68.1437 27.4244 67.3643 27.0568C66.5816 26.6876 65.9034 26.1846 65.348 25.5604C64.7912 24.9376 64.3611 24.1955 64.0678 23.356C63.7732 22.5116 63.6236 21.5914 63.6236 20.6214C63.6236 19.6727 63.7732 18.7642 64.0678 17.9197C64.3611 17.0795 64.7912 16.3381 65.348 15.714C65.9034 15.0911 66.5809 14.5934 67.3617 14.2353C68.1431 13.8777 69.0461 13.6963 70.047 13.6963C71.048 13.6963 71.9571 13.8777 72.7491 14.2358C73.5399 14.5942 74.2222 15.0917 74.7775 15.714C75.3341 16.3381 75.7643 17.0803 76.0576 17.9197C76.3522 18.7634 76.5019 19.6727 76.5019 20.6214Z" fill="#98A2B3"/>
<path d="M58.5922 26.0164C58.073 26.5441 57.4538 26.9453 56.7516 27.2094C56.0418 27.4757 55.3086 27.6112 54.5704 27.6112C53.6183 27.6112 52.7535 27.4249 52.0003 27.0575C51.2436 26.6891 50.5909 26.1863 50.059 25.5644C49.5257 24.9403 49.1076 24.1971 48.8163 23.3558C48.5236 22.5115 48.3749 21.6131 48.3749 20.6857C48.3749 19.7581 48.5236 18.8596 48.8163 18.0156C49.1084 17.1735 49.5273 16.424 50.0611 15.7894C50.593 15.1566 51.2464 14.6429 52.003 14.2642C52.756 13.8868 53.6196 13.6957 54.5704 13.6957C55.3026 13.6957 56.016 13.8508 56.6906 14.1556C57.3658 14.4605 57.962 14.8943 58.464 15.4437L58.6318 15.6279L59.5258 14.7945L59.3441 14.596C58.7548 13.9511 58.0345 13.4451 57.2048 13.0902C56.3763 12.7358 55.4903 12.5569 54.5704 12.5569C53.5065 12.5569 52.5155 12.7636 51.6256 13.1728C50.7383 13.5806 49.954 14.1509 49.2953 14.8687C48.6354 15.5874 48.1158 16.4539 47.7511 17.4445C47.3872 18.433 47.2021 19.5231 47.2021 20.6857C47.2021 21.8476 47.3872 22.9385 47.7511 23.9269C48.1166 24.9189 48.6366 25.7806 49.2966 26.488C49.9552 27.1952 50.7403 27.7549 51.6282 28.1511C52.5171 28.5489 53.5073 28.75 54.5704 28.75C55.4451 28.75 56.3167 28.5997 57.1598 28.303C58.0141 28.0029 58.7685 27.5117 59.4021 26.8421L59.5851 26.6492L58.7646 25.8409L58.5922 26.0164Z" fill="#98A2B3"/>
<path d="M44.3439 28.7452C44.2794 28.3422 44.1134 27.0749 44.0603 26.4572C44.0073 25.8393 43.9796 25.2472 43.9796 24.698V18.214C43.9796 16.283 43.4504 14.8397 42.4062 13.9244C41.3703 13.0171 39.944 12.5569 38.1658 12.5569C37.2922 12.5569 36.3887 12.7187 35.4822 13.038C34.5738 13.358 33.7496 13.8343 33.0316 14.4528L32.8498 14.609L33.555 15.5934L33.7814 15.3939C34.3651 14.8809 35.0367 14.4649 35.7774 14.1565C36.5117 13.8512 37.3154 13.6963 38.1658 13.6963C39.5264 13.6963 40.6407 14.0576 41.4779 14.7707C42.3034 15.475 42.7224 16.6226 42.7224 18.1823V19.1052H40.3834C39.5944 19.1052 38.7113 19.1599 37.7598 19.2675C36.7906 19.3772 35.8708 19.6166 35.0254 19.9771C34.1656 20.3453 33.4354 20.8718 32.8567 21.5423C32.2625 22.2303 31.9609 23.141 31.9609 24.2487C31.9609 25.0173 32.1201 25.6966 32.4336 26.2677C32.745 26.8359 33.161 27.3082 33.6697 27.6722C34.17 28.0308 34.7415 28.3036 35.3678 28.4828C35.9874 28.6601 36.6223 28.75 37.2532 28.75C38.5154 28.75 39.716 28.4069 40.8207 27.7311C41.6575 27.2176 42.3147 26.4937 42.7818 25.5707C42.7945 25.8144 42.813 26.0626 42.8376 26.3124C42.8702 26.6417 42.8965 26.9604 42.9183 27.2675C42.9402 27.5889 43.0734 28.5222 43.1192 28.7452H44.3439ZM42.7224 21.3919C42.7224 22.0963 42.6367 22.8278 42.4676 23.5647C42.302 24.2873 42.0035 24.9583 41.5795 25.5586C41.1595 26.154 40.5921 26.6507 39.8923 27.035C39.1983 27.4171 38.3095 27.6114 37.2532 27.6114C36.8215 27.6114 36.3561 27.549 35.8694 27.4267C35.3905 27.3061 34.946 27.1135 34.5497 26.8529C34.1628 26.5991 33.8395 26.2561 33.5904 25.8332C33.3436 25.4164 33.219 24.8833 33.219 24.2487C33.219 23.3766 33.444 22.6788 33.887 22.1742C34.3452 21.6533 34.9411 21.2457 35.6577 20.9637C36.3937 20.6741 37.2142 20.4806 38.0972 20.3873C38.9958 20.2925 39.8633 20.2446 40.6769 20.2446H42.7224V21.3919Z" fill="#98A2B3"/>
<path d="M25.9086 19.2146L1.70421 19.2168C-0.430203 19.0475 -0.360699 8.47196 12.0233 7.56433C12.142 7.50866 12.1671 7.49626 12.2357 7.26708C12.3507 6.84325 12.4161 6.43076 12.4276 6.04015C12.4407 5.56178 12.3775 5.13633 12.2373 4.73843C12.1107 4.38615 11.9191 4.0496 11.6685 3.74984C12.0505 3.75146 12.4276 3.82869 12.7929 3.98153C13.2632 4.17213 13.7392 4.50107 14.1677 4.93568C14.5658 5.33422 14.9331 5.82297 15.2618 6.38611C15.4186 6.65678 15.5605 6.92996 15.6944 7.22502C15.7582 7.36748 15.8194 7.51595 15.878 7.67138C27.9659 8.73307 28.0256 19.0459 25.9086 19.2146Z" fill="#98A2B3"/>
<path d="M25.3385 20.33C25.3385 20.33 27.2522 32.4469 15.5317 34.7353C15.0002 35.1965 14.1181 36.2541 13.7964 36.25C13.4751 36.2541 12.5919 35.1965 12.0599 34.7353C0.273877 32.6802 2.25303 20.33 2.25303 20.33H25.3385Z" fill="#98A2B3"/>
</svg>
