<svg width="46" height="40" viewBox="0 0 46 40" fill="none" xmlns="http://www.w3.org/2000/svg">
<g clip-path="url(#clip0_539_9858)">
<path d="M20.7047 27.8998C20.7047 31.1998 19.5074 33.7998 17.2124 35.1998C17.2124 35.1998 20.7047 39.6998 20.9043 39.9998C21.4032 39.7998 21.9021 39.3998 22.5008 38.8998C24.7958 36.7998 26.6916 33.0998 26.6916 29.1998V7.7998H20.605L20.7047 27.8998Z" fill="#98A2B3"/>
<path d="M13.2212 20.4998C15.8155 19.4998 16.9131 16.8998 16.9131 14.4998C16.9131 9.4998 13.6204 7.7998 9.82868 7.7998H0.149902V35.0998H9.52933C14.9175 35.0998 17.7114 31.6998 17.7114 26.6998C17.8112 23.3998 15.5162 21.1998 13.2212 20.4998ZM6.23655 13.1998H8.33196C9.92846 13.1998 10.7267 14.3998 10.7267 15.7998C10.7267 17.1998 10.128 18.3998 8.43174 18.3998H6.23655V13.1998ZM8.33196 29.5998H6.23655V23.4998H8.23218C10.3276 23.4998 10.7267 25.1998 10.7267 26.5998C10.8265 28.2998 10.0282 29.5998 8.33196 29.5998Z" fill="#98A2B3"/>
<path d="M30.8823 16.9C30.8823 16.9 33.6762 12.6 37.867 8C38.9646 6.7 40.0622 5.6 41.06 4.5C43.6543 1.9 45.7497 0 45.7497 0C45.7497 0 42.1576 2 38.8648 4.5C38.765 4.6 38.5655 4.7 38.4657 4.8C34.674 7.7 32.0797 10.2 32.0797 10.2L29.186 7.2L30.9821 16.7L30.8823 16.9Z" fill="#98A2B3"/>
<path d="M36.0714 22.7002C36.0714 21.9002 36.9694 21.6002 37.9672 21.6002C39.2644 21.7002 40.362 22.4002 41.6591 23.1002L43.4552 18.9002C41.6591 17.9002 39.9628 17.2002 37.169 17.2002C33.1777 17.2002 30.5834 19.8002 30.5834 23.3002C30.5834 29.1002 38.3663 27.0002 38.3663 30.0002C38.3663 30.6002 37.6679 31.1002 36.7698 31.1002C35.1733 31.1002 32.9782 29.9002 31.681 29.0002L29.7852 33.4002C32.0801 34.8002 34.4749 35.5002 36.6701 35.5002C41.0604 35.5002 44.1536 33.1002 44.1536 29.3002C44.0539 23.2002 36.0714 25.5002 36.0714 22.7002Z" fill="#98A2B3"/>
<path d="M41.4594 12.9004C40.6612 12.9004 40.0625 13.5004 40.0625 14.3004C40.0625 15.1004 40.6612 15.7004 41.4594 15.7004C42.2577 15.7004 42.8564 15.1004 42.8564 14.3004C42.8564 13.6004 42.2577 12.9004 41.4594 12.9004ZM41.4594 15.6004C40.8608 15.6004 40.3618 15.1004 40.3618 14.4004C40.3618 13.7004 40.8608 13.2004 41.4594 13.2004C42.0581 13.2004 42.557 13.7004 42.557 14.4004C42.557 15.0004 42.0581 15.6004 41.4594 15.6004Z" fill="#98A2B3"/>
<path d="M41.6589 14.3996C41.8585 14.2996 41.9583 14.1996 41.9583 13.9996C41.9583 13.7996 41.8585 13.6996 41.8585 13.6996C41.7587 13.5996 41.5591 13.5996 41.3596 13.5996C41.16 13.5996 41.0602 13.5996 40.9604 13.5996V15.1996H41.2598V14.4996H41.4594C41.6589 14.4996 41.7587 14.5996 41.7587 14.7996C41.7587 14.9996 41.8585 15.1996 41.8585 15.1996H42.058C42.058 15.0996 41.9583 15.0996 41.9583 14.7996C41.9583 14.5996 41.8585 14.3996 41.6589 14.3996ZM41.3596 14.2996H41.16V13.7996C41.16 13.7996 41.2598 13.7996 41.3596 13.7996C41.6589 13.7996 41.7587 13.8996 41.7587 14.0996C41.7587 14.1996 41.5591 14.2996 41.3596 14.2996Z" fill="#98A2B3"/>
</g>
<defs>
<clipPath id="clip0_539_9858">
<rect width="45.6" height="40" fill="white" transform="translate(0.149902)"/>
</clipPath>
</defs>
</svg>
