<svg width="227" height="40" viewBox="0 0 227 40" fill="none" xmlns="http://www.w3.org/2000/svg">
<g clip-path="url(#clip0_539_9916)">
<path d="M198.217 22.6964C198.217 21.9831 198.701 21.8785 199.418 21.9831L202.42 22.3255C203.474 22.4586 203.959 22.8676 203.811 23.9517C203.358 27.5087 200.313 30.6091 194.423 30.6091C186.795 30.6091 183.834 26.5101 183.834 18.0648C183.834 9.82874 186.764 5.52051 194.371 5.52051C201.978 5.52051 203.685 9.76217 203.99 17.4561V18.236C203.99 18.8161 203.769 19.0539 202.937 19.0539H190.441C190.557 23.1909 191.494 25.3593 194.571 25.3593C197.194 25.3403 198.174 23.9517 198.217 22.6964ZM194.339 10.2187C191.863 10.2187 190.883 11.9496 190.546 15.2021H198.174C198.027 12.2254 196.973 10.2187 194.339 10.2187Z" fill="#98A2B3"/>
<path d="M183.434 29.1446C183.542 29.252 183.612 29.3866 183.633 29.5304C183.654 29.6743 183.626 29.8206 183.553 29.9498C183.48 30.0791 183.365 30.185 183.223 30.2535C183.081 30.3221 182.92 30.3499 182.76 30.3334H178.324C177.814 30.3421 177.309 30.2352 176.856 30.0225C176.404 29.8099 176.017 29.4982 175.732 29.1161L170.812 22.7726L169.231 24.6747V28.8783C169.258 29.0803 169.234 29.2852 169.161 29.4776C169.087 29.6699 168.966 29.8446 168.807 29.9885C168.647 30.1324 168.454 30.2416 168.241 30.308C168.028 30.3743 167.801 30.396 167.577 30.3715H164.342C164.119 30.396 163.892 30.3743 163.678 30.308C163.465 30.2416 163.272 30.1324 163.112 29.9885C162.953 29.8446 162.832 29.6699 162.758 29.4776C162.685 29.2852 162.661 29.0803 162.688 28.8783V7.2706C162.654 7.06748 162.674 6.86002 162.745 6.66491C162.816 6.4698 162.937 6.29249 163.098 6.14725C163.259 6.002 163.455 5.89288 163.671 5.82865C163.887 5.76442 164.117 5.74689 164.342 5.77746H167.577C167.8 5.75475 168.026 5.77776 168.239 5.84477C168.451 5.91178 168.643 6.02107 168.802 6.16452C168.961 6.30797 169.082 6.4819 169.157 6.67339C169.231 6.86487 169.256 7.069 169.231 7.2706V15.9156L176.29 6.99479C176.572 6.60948 176.958 6.29542 177.411 6.08239C177.865 5.86935 178.371 5.76439 178.882 5.77746H183.318C184.256 5.77746 184.372 6.49074 183.961 6.96626L174.647 18.1601L183.434 29.1446ZM61.308 21.7835C61.308 20.8325 62.1298 20.6993 63.1097 20.8325L65.8913 21.2414C66.8711 21.3746 67.4296 21.6789 67.3137 22.9723C66.8606 27.4137 64.5321 30.5807 57.5044 30.5807C49.8761 30.5807 46.9681 26.6434 46.9681 18.2171C46.9681 10.0096 49.8972 5.5397 57.5044 5.5397C65.3961 5.5397 67.0819 9.78135 67.3453 13.2717C67.419 14.4605 66.8606 14.8694 65.8807 15.0026L63.1413 15.4401C61.8243 15.6398 61.3396 15.5066 61.3396 14.898C61.3396 12.7581 60.0963 10.799 57.5044 10.799C54.3435 10.799 53.5638 13.5475 53.5638 18.2266C53.5638 22.9058 54.3856 25.3785 57.5044 25.3785C60.0647 25.3404 61.2658 23.7142 61.308 21.7835ZM126.696 30.5997C119.321 30.5997 116.023 26.9002 116.023 18.2361C116.023 9.57212 119.384 5.51116 126.696 5.51116C134.008 5.51116 137.369 9.47702 137.369 18.1886C137.369 26.9002 134.072 30.5997 126.696 30.5997ZM126.696 25.3404C129.509 25.3404 130.753 23.2386 130.753 18.1886C130.753 13.1385 129.562 10.7609 126.696 10.7609C123.83 10.7609 122.64 12.9959 122.64 18.1886C122.64 23.3813 123.894 25.3404 126.696 25.3404ZM100.303 33.0439C100.324 33.2447 100.296 33.4473 100.22 33.6372C100.144 33.827 100.023 33.9994 99.8652 34.1421C99.7072 34.2847 99.5161 34.3941 99.3058 34.4624C99.0955 34.5307 98.8711 34.5562 98.6486 34.537H95.4877C95.2631 34.5589 95.0359 34.5356 94.8225 34.4687C94.6092 34.4019 94.4148 34.2931 94.2536 34.1503C94.0924 34.0075 93.9682 33.8342 93.8901 33.6429C93.812 33.4516 93.7819 33.247 93.8019 33.0439V6.93773C93.8019 6.15787 94.139 5.78697 95.3402 5.78697H98.5011C99.6706 5.78697 100.008 6.12934 100.008 6.9092V7.75563H100.197C100.345 7.41325 101.472 5.4541 105.381 5.4541C110.649 5.4541 114.063 9.458 114.063 17.8177C114.063 26.1774 110.776 29.9245 104.886 29.9245C101.725 29.9245 100.672 28.4028 100.524 28.0224H100.303V33.0439ZM103.832 24.6367C106.277 24.6367 107.625 22.7346 107.625 17.8177C107.625 12.9008 106.277 10.6944 103.832 10.6944C100.903 10.6944 99.7338 12.9959 99.7338 17.8177C99.7338 22.6395 100.935 24.6367 103.832 24.6367ZM90.8728 29.1446C90.981 29.252 91.0504 29.3866 91.0717 29.5304C91.093 29.6743 91.0651 29.8206 90.9918 29.9498C90.9185 30.0791 90.8033 30.185 90.6616 30.2535C90.5198 30.3221 90.3582 30.3499 90.1985 30.3334H85.7943C85.284 30.3421 84.7794 30.2352 84.3267 30.0225C83.8739 29.8099 83.4874 29.4982 83.2024 29.1161L78.2819 22.7726L76.7015 24.6747V28.8783C76.7197 29.0748 76.6897 29.2725 76.6136 29.4573C76.5375 29.6421 76.4172 29.8094 76.2612 29.9475C76.1053 30.0855 75.9175 30.1908 75.7113 30.2559C75.5052 30.3209 75.2856 30.3442 75.0684 30.3239H71.8232C71.5994 30.3485 71.3724 30.3268 71.1593 30.2604C70.9462 30.1941 70.7526 30.0848 70.5932 29.941C70.4338 29.7971 70.3128 29.6224 70.2393 29.43C70.1658 29.2377 70.1418 29.0328 70.169 28.8308V7.2706C70.1351 7.06748 70.1546 6.86002 70.2257 6.66491C70.2969 6.4698 70.4178 6.29249 70.5787 6.14725C70.7396 6.002 70.936 5.89288 71.1522 5.82865C71.3683 5.76442 71.5982 5.74689 71.8232 5.77746H75.0684C75.2917 5.75475 75.5178 5.77776 75.73 5.84477C75.9421 5.91178 76.1348 6.02107 76.2937 6.16452C76.4527 6.30797 76.5737 6.4819 76.648 6.67339C76.7222 6.86487 76.7477 7.069 76.7226 7.2706V15.9156L83.7819 6.99479C84.0633 6.60948 84.4492 6.29542 84.9027 6.08239C85.3563 5.86935 85.8627 5.76439 86.3738 5.77746H90.8096C91.7473 5.77746 91.8632 6.49074 91.4523 6.96626L82.1171 18.1505L90.8728 29.1446ZM153.827 21.7835C153.827 20.8325 154.649 20.6993 155.629 20.8325L158.41 21.2414C159.39 21.3746 159.949 21.6789 159.833 22.9723C159.38 27.4137 157.051 30.5807 150.023 30.5807C142.395 30.5807 139.487 26.6434 139.487 18.2171C139.487 10.0096 142.416 5.5397 150.023 5.5397C157.915 5.5397 159.601 9.78135 159.864 13.2717C159.938 14.4605 159.38 14.8694 158.4 15.0026L155.66 15.4401C154.343 15.6398 153.859 15.5066 153.859 14.898C153.859 12.7581 152.615 10.799 150.023 10.799C146.863 10.799 146.083 13.5475 146.083 18.2266C146.083 22.9058 146.905 25.3785 150.023 25.3785C152.594 25.3404 153.795 23.7142 153.827 21.7835ZM43.3541 24.1611C43.3541 25.0456 43.7651 25.4165 44.7449 25.4165C44.9339 25.4231 45.1228 25.4006 45.3034 25.35C45.5668 25.35 45.788 25.3499 45.788 25.7209V28.8022C45.8243 29.0051 45.8118 29.2126 45.7516 29.4107C45.6914 29.6088 45.5848 29.793 45.439 29.9508C45.2932 30.1085 45.1115 30.2362 44.9064 30.3252C44.7012 30.4142 44.4773 30.4624 44.2497 30.4666C43.5925 30.5709 42.9254 30.6155 42.2584 30.5997C39.0237 30.5997 37.8647 28.6025 37.8647 28.0224V27.9558H37.6435C37.6435 27.9558 36.063 30.6663 31.1426 30.6663C25.6216 30.6663 22.7136 26.9382 22.7136 22.9343C22.7136 18.9304 25.8745 15.3259 31.7326 15.3259C32.6441 15.2734 33.5579 15.3906 34.4171 15.6704C35.2762 15.9502 36.0624 16.3865 36.7268 16.9522H36.8006V14.5746C36.8006 12.197 35.747 10.7704 33.0391 10.7704C30.11 10.7704 29.2777 12.197 29.2461 13.1481C29.2461 13.7282 28.7614 13.8613 27.7078 13.6521L24.8103 13.2146C23.567 13.0149 23.4616 12.8057 23.4933 12.2636C23.4933 9.51506 25.6743 5.51116 33.1866 5.51116C41.0046 5.51116 43.3331 9.17268 43.3331 13.7472L43.3541 24.1611ZM33.2393 26.263C36.0525 26.263 37.3379 24.6652 37.3379 22.9723C37.3379 21.2795 36.0841 19.7198 33.2393 19.7198C32.7401 19.6854 32.2384 19.7445 31.7657 19.8933C31.2929 20.0421 30.8594 20.2775 30.4921 20.5846C30.1249 20.8918 29.8319 21.2641 29.6315 21.6783C29.4312 22.0924 29.3277 22.5394 29.3277 22.9914C29.3277 23.4433 29.4312 23.8903 29.6315 24.3045C29.8319 24.7186 30.1249 25.0909 30.4921 25.3981C30.8594 25.7052 31.2929 25.9406 31.7657 26.0894C32.2384 26.2383 32.7401 26.2973 33.2393 26.263ZM0.260743 21.8026C0.482005 26.4817 2.15727 30.5997 10.5863 30.5997C17.8353 30.5997 20.3534 26.7385 20.3534 21.6504V7.30864C20.3765 7.10368 20.3487 6.89665 20.2722 6.70257C20.1956 6.5085 20.0721 6.33223 19.9107 6.18656C19.7494 6.04088 19.5541 5.92945 19.3391 5.86033C19.1241 5.79122 18.8947 5.76616 18.6676 5.78697H9.18498C8.96422 5.77315 8.74274 5.80191 8.53524 5.87132C8.32775 5.94073 8.139 6.0492 7.98153 6.18954C7.82407 6.32987 7.70149 6.49885 7.62196 6.68524C7.54243 6.87164 7.50775 7.07117 7.52024 7.2706V9.49604C7.5079 9.69461 7.54232 9.89328 7.62124 10.079C7.70015 10.2647 7.82176 10.4331 7.97805 10.5733C8.13435 10.7135 8.32178 10.8222 8.528 10.8922C8.73422 10.9623 8.95454 10.9921 9.17444 10.9797H13.8209V21.5077C13.8209 24.028 12.5355 25.3119 9.91198 25.3119C7.28844 25.3119 6.26643 23.4098 6.26643 20.9751C6.26751 20.84 6.23669 20.7063 6.17601 20.5828C6.11534 20.4593 6.02621 20.3488 5.91456 20.2589C5.80291 20.1689 5.67129 20.1014 5.52849 20.0609C5.38568 20.0204 5.23496 20.0079 5.08636 20.0241L1.31437 20.6518C1.01773 20.7028 0.750113 20.8456 0.557744 21.0557C0.365374 21.2658 0.260327 21.53 0.260743 21.8026ZM213.199 21.5077C213.199 24.028 214.484 25.3119 217.108 25.3119C219.479 25.3119 220.269 23.4098 220.269 20.9751C220.268 20.84 220.299 20.7063 220.359 20.5828C220.42 20.4593 220.509 20.3488 220.621 20.2589C220.732 20.1689 220.864 20.1014 221.007 20.0609C221.15 20.0204 221.3 20.0079 221.449 20.0241L225.189 20.5757C225.486 20.6267 225.754 20.7695 225.946 20.9797C226.138 21.1898 226.243 21.4539 226.243 21.7265C226.022 26.4056 224.526 30.5236 216.381 30.5236C209.132 30.5236 206.614 26.6624 206.614 21.5743V7.2706C206.586 7.07178 206.608 6.86981 206.678 6.67974C206.749 6.48967 206.866 6.3164 207.021 6.17286C207.176 6.02933 207.365 5.91922 207.573 5.85076C207.782 5.78229 208.005 5.75723 208.226 5.77746H211.492C211.713 5.76492 211.934 5.79495 212.141 5.86555C212.348 5.93615 212.536 6.04571 212.693 6.18694C212.849 6.32817 212.971 6.49785 213.049 6.68469C213.127 6.87153 213.16 7.07126 213.146 7.2706V9.95254H217.951C218.174 9.92984 218.4 9.95284 218.613 10.0199C218.825 10.0869 219.017 10.1962 219.176 10.3396C219.335 10.4831 219.456 10.657 219.531 10.8485C219.605 11.04 219.63 11.2441 219.605 11.4457V13.5475C219.63 13.7491 219.605 13.9532 219.531 14.1447C219.456 14.3362 219.335 14.5101 219.176 14.6536C219.017 14.797 218.825 14.9063 218.613 14.9733C218.4 15.0403 218.174 15.0633 217.951 15.0406H213.199V21.5077Z" fill="#98A2B3"/>
</g>
<defs>
<clipPath id="clip0_539_9916">
<rect width="226" height="40" fill="white" transform="translate(0.630371)"/>
</clipPath>
</defs>
</svg>
