<svg width="121" height="40" viewBox="0 0 121 40" fill="none" xmlns="http://www.w3.org/2000/svg">
<g clip-path="url(#clip0_539_9913)">
<path fill-rule="evenodd" clip-rule="evenodd" d="M119.292 14.633C118.185 15.7401 116.837 16.3177 115.297 16.3177C113.42 16.3177 112.072 15.4994 111.687 14.4404V20.4091H108.992V4.71721H111.687V6.35379C112.072 5.24669 113.468 4.47653 115.297 4.47653C116.886 4.47653 118.233 5.05415 119.292 6.16125C120.399 7.26835 120.929 8.71239 120.929 10.349C120.929 12.0818 120.351 13.4777 119.292 14.633ZM117.319 7.8941C116.693 7.26835 115.923 6.88327 114.96 6.88327C113.998 6.88327 113.179 7.22022 112.505 7.8941C111.88 8.51986 111.495 9.33815 111.495 10.349C111.495 11.3598 111.831 12.1781 112.505 12.8039C113.179 13.4296 113.998 13.8147 114.96 13.8147C115.923 13.8147 116.741 13.4777 117.319 12.8039C117.945 12.1781 118.282 11.3598 118.282 10.349C118.233 9.38628 117.945 8.56799 117.319 7.8941ZM100.905 16.3658C99.172 16.3658 97.728 15.7882 96.5246 14.633C95.3212 13.4777 94.7436 12.0337 94.7436 10.349C94.7436 8.66426 95.3694 7.26835 96.5246 6.06498C97.728 4.90975 99.172 4.33213 100.905 4.33213C102.638 4.33213 104.082 4.90975 105.285 6.06498C106.489 7.22022 107.066 8.66426 107.066 10.349C107.066 12.0337 106.44 13.4296 105.285 14.633C104.082 15.8363 102.638 16.3658 100.905 16.3658ZM103.408 7.8941C102.734 7.17208 101.916 6.88327 100.905 6.88327C99.894 6.88327 99.0757 7.22022 98.3537 7.8941C97.728 8.56799 97.3429 9.38628 97.3429 10.4452C97.3429 11.4561 97.6798 12.3225 98.3537 12.9964C99.0276 13.6703 99.8459 14.0072 100.905 14.0072C101.916 14.0072 102.734 13.6703 103.408 12.9964C104.082 12.2744 104.419 11.4561 104.419 10.4452C104.419 9.38628 104.082 8.56799 103.408 7.8941ZM89.9783 13.1889V9.43442C89.9783 7.84597 89.16 6.88327 87.7159 6.88327C86.2719 6.88327 85.2129 7.99037 85.2129 9.53069V16.077H82.5655V0.385078H85.2129V6.30566C85.7424 5.19856 86.9939 4.52467 88.5342 4.52467C91.1335 4.52467 92.6738 6.25752 92.6738 9.04934V12.6113C92.6738 13.4777 92.8182 13.8147 93.444 13.8147C93.5884 13.8147 93.7328 13.7665 93.8291 13.7665V16.0289C93.5402 16.077 93.1552 16.1252 92.6738 16.1252C90.8447 16.1733 89.9783 15.1625 89.9783 13.1889ZM82.6136 30.4212C82.9987 29.7954 83.5763 29.4103 84.3946 29.4103H84.9241V30.8063H84.2984C83.3357 30.8063 82.6136 31.5764 82.6136 32.7316V37.0156H81.1215V29.4585H82.6136V30.4212ZM76.4043 8.90493C76.7412 9.0012 77.367 9.24188 77.8002 9.38628C79.87 10.1083 80.8327 11.1673 80.8327 12.7557C80.8327 14.8736 79.2442 16.3177 76.2117 16.3177C73.9494 16.3177 72.2647 15.4513 71.5426 14.0072L73.2755 12.5632C73.805 13.3815 74.8639 13.9591 76.2599 13.9591C77.6558 13.9591 78.2815 13.4296 78.2815 12.7076C78.2815 12.3225 77.9927 11.9856 77.6558 11.793C77.4151 11.6486 76.9337 11.4561 76.5968 11.3598C76.2599 11.2154 75.586 11.0229 75.2009 10.8785C73.3718 10.2527 72.4091 9.29001 72.4091 7.65343C72.4091 6.59446 72.7942 5.77617 73.5643 5.19856C74.3826 4.5728 75.2972 4.28399 76.4043 4.28399C77.9927 4.28399 79.1961 4.86161 80.0625 5.96871L78.5703 7.55716C78.089 6.93141 77.3188 6.6426 76.3561 6.6426C75.5378 6.6426 75.0084 7.02768 75.0084 7.65343C75.0084 8.03851 75.2009 8.23105 75.5378 8.47172C75.6341 8.61613 76.1155 8.80866 76.4043 8.90493ZM66.8254 10.1083V16.077H64.1299V4.76534H66.7773V6.45006C67.3068 5.24669 68.5583 4.5728 70.1467 4.5728C70.4837 4.5728 70.7244 4.62094 70.965 4.62094V7.22022C70.6281 7.17208 70.243 7.12395 69.8098 7.12395C67.9807 7.07581 66.8254 8.23105 66.8254 10.1083ZM65.4295 30.4693C66.1034 29.7954 67.0661 29.3622 68.1251 29.3622C70.3393 29.3622 72.0721 31.1432 72.0721 33.3093C72.0721 35.4753 70.3393 37.2563 68.1251 37.2563C67.0661 37.2563 66.1034 36.8231 65.4295 36.1492V37.1119H63.9374V26.7629H65.4295V30.4693ZM67.9807 35.9085C69.3766 35.9085 70.58 34.7533 70.58 33.3093C70.58 31.8652 69.4247 30.71 67.9807 30.71C66.5366 30.71 65.3814 31.8652 65.3814 33.3093C65.3814 34.7052 66.5366 35.9085 67.9807 35.9085ZM61.2418 36.0529C60.5679 36.775 59.6052 37.2082 58.4981 37.2082C56.2839 37.2082 54.5992 35.6197 54.5992 33.1649V26.7148H56.1395V33.1167C56.1395 34.8014 57.2466 35.8604 58.6907 35.8604C60.1347 35.8604 61.2418 34.7533 61.2418 33.1167V26.7148H62.7821V37.0638H61.2418V36.0529ZM53.5402 11.071C53.6365 12.852 54.9361 14.0554 56.9578 14.0554C58.113 14.0554 59.1239 13.6221 59.9903 12.7557L61.5788 14.3442C60.2791 15.6919 58.7388 16.3658 56.8615 16.3658C55.0806 16.3658 53.6365 15.8363 52.5294 14.7774C51.4223 13.7184 50.8447 12.3225 50.8447 10.5415V10.4452C50.8447 8.66426 51.4223 7.22022 52.5294 6.11312C53.6365 5.00602 55.0806 4.47653 56.7653 4.47653C58.4019 4.47653 59.7496 5.00602 60.7605 6.11312C61.8194 7.22022 62.3489 8.56799 62.3489 10.2046C62.3489 10.5415 62.3008 10.8303 62.3008 11.1191L53.5402 11.071ZM58.7388 7.46089C58.1612 6.97954 57.5354 6.73887 56.7171 6.73887C55.8988 6.73887 55.1287 6.97954 54.5511 7.46089C53.9253 7.94224 53.6365 8.51986 53.5402 9.24188H59.5571C59.6052 8.51986 59.3164 7.8941 58.7388 7.46089ZM47.9566 38.4116C47.7159 38.9892 47.4271 39.3742 47.0902 39.6149C46.7532 39.8556 46.32 40 45.7905 40H44.7797V38.7485H45.4536C45.7424 38.7485 45.9831 38.7004 46.1275 38.556C46.32 38.4597 46.4644 38.219 46.5607 37.9302L46.9939 36.9194L43.8651 29.5548H45.4536L47.7641 35.1384L49.9783 29.5548H51.5186L47.9566 38.4116ZM46.0312 13.1889V9.43442C46.0312 7.84597 45.1648 6.88327 43.6726 6.88327C42.1804 6.88327 41.1215 7.99037 41.1215 9.53069V16.077H38.4741V4.76534H41.1215V6.35379C41.651 5.24669 42.9025 4.47653 44.539 4.47653C47.1865 4.47653 48.7749 6.20939 48.7749 9.0012V12.5632C48.7749 13.4296 48.9193 13.7665 49.5451 13.7665C49.6895 13.7665 49.8339 13.7184 49.9301 13.7184V15.9807C49.5451 16.077 49.16 16.1252 48.6786 16.1252C46.8976 16.1733 46.0312 15.1625 46.0312 13.1889ZM40.3032 29.3141C40.8327 29.3141 41.3621 29.4103 41.8435 29.6029C42.3248 29.7954 42.7581 30.0842 43.095 30.4693C43.4319 30.8063 43.7207 31.2395 43.9614 31.7208C44.154 32.2022 44.2502 32.7316 44.2502 33.2611C44.2502 33.7906 44.154 34.3201 43.9614 34.8014C43.7689 35.2828 43.4801 35.6679 43.095 36.0529C42.7581 36.3899 42.3248 36.6787 41.8435 36.8712C41.3621 37.0638 40.8327 37.16 40.3032 37.16C39.7737 37.16 39.2923 37.0638 38.811 36.8712C38.3778 36.6787 37.9446 36.3899 37.6076 36.0529V37.0156H36.1155V26.6667H37.6076V30.4212C37.9446 30.0842 38.3297 29.7954 38.811 29.6029C39.2442 29.4585 39.7737 29.3141 40.3032 29.3141ZM37.8002 32.2503C37.6558 32.5872 37.6076 32.9242 37.6076 33.2611C37.6076 33.6462 37.6558 33.9832 37.8002 34.272C37.9446 34.6089 38.1371 34.8496 38.3778 35.0903C38.6185 35.3309 38.9073 35.5235 39.1961 35.6679C39.533 35.8123 39.87 35.8604 40.2069 35.8604C40.5439 35.8604 40.8808 35.8123 41.2177 35.6679C41.5547 35.5235 41.7954 35.3309 42.036 35.0903C42.2767 34.8496 42.4692 34.5608 42.6136 34.272C42.7581 33.935 42.8062 33.5981 42.8062 33.2611C42.8062 32.8761 42.7581 32.5391 42.6136 32.2503C42.4692 31.9134 42.2767 31.6245 42.036 31.3839C41.7954 31.1432 41.5547 30.9507 41.2177 30.8544C40.8808 30.71 40.592 30.6619 40.2069 30.6619C39.87 30.6619 39.533 30.71 39.1961 30.8544C38.8591 30.9988 38.6185 31.1432 38.3778 31.3839C38.1371 31.6727 37.9446 31.9134 37.8002 32.2503ZM32.3609 10.1083V16.077H29.7135V4.76534H32.3609V6.45006C32.8904 5.24669 34.1419 4.5728 35.7304 4.5728C36.0673 4.5728 36.308 4.62094 36.5487 4.62094V7.22022C36.2117 7.17208 35.8266 7.12395 35.3934 7.12395C33.5162 7.07581 32.3609 8.23105 32.3609 10.1083ZM21.6269 16.3658C19.894 16.3658 18.45 15.7882 17.2466 14.633C16.0432 13.4777 15.4656 12.0337 15.4656 10.349C15.4656 8.66426 16.0914 7.26835 17.2466 6.06498C18.45 4.90975 19.894 4.33213 21.6269 4.33213C23.3597 4.33213 24.8038 4.90975 26.0071 6.06498C27.2105 7.22022 27.7881 8.66426 27.7881 10.349C27.7881 12.0337 27.1624 13.4296 26.0071 14.633C24.8038 15.8363 23.3597 16.3658 21.6269 16.3658ZM24.0818 7.8941C23.4079 7.17208 22.5896 6.88327 21.5787 6.88327C20.5679 6.88327 19.7496 7.22022 19.0276 7.8941C18.4019 8.56799 18.0168 9.38628 18.0168 10.4452C18.0168 11.4561 18.3537 12.3225 19.0276 12.9964C19.7015 13.6703 20.5198 14.0072 21.5787 14.0072C22.5896 14.0072 23.4079 13.6703 24.0818 12.9964C24.7556 12.2744 25.0926 11.4561 25.0926 10.4452C25.0926 9.38628 24.8038 8.56799 24.0818 7.8941ZM8.38982 13.7665C10.1708 13.7665 11.6148 13.1408 12.7219 11.793L14.5992 13.4296C13.0589 15.2106 10.8447 16.2696 8.38982 16.2696C6.07935 16.2696 4.10582 15.4994 2.46924 13.9591C0.880791 12.3706 0.0625 10.4934 0.0625 8.13478C0.0625 5.82431 0.880791 3.89892 2.46924 2.31047C4.05769 0.722022 6.03121 0 8.38982 0C10.8928 0 12.9145 0.914561 14.5992 2.79182L12.6738 4.47653C11.5667 3.1769 10.1227 2.59928 8.38982 2.59928C6.80137 2.59928 5.50173 3.12876 4.44277 4.18773C3.3838 5.24669 2.85432 6.54633 2.85432 8.13478C2.85432 9.72322 3.3838 11.0229 4.44277 12.0818C5.54987 13.2852 6.8495 13.7665 8.38982 13.7665ZM76.5487 29.3622C78.7147 29.3622 80.3032 31.0469 80.3032 33.2611V33.7425H74.1901C74.3826 34.9458 75.3934 35.9085 76.6931 35.9085C77.5595 35.9085 78.2815 35.5716 78.8591 34.8014L79.9181 35.6197C79.1479 36.6306 78.0408 37.2082 76.6449 37.2082C74.3826 37.2082 72.6497 35.5235 72.6497 33.2611C72.6497 31.1432 74.3345 29.3622 76.5487 29.3622ZM78.7629 32.5872C78.5222 31.432 77.5595 30.6619 76.4524 30.6619C75.3453 30.6619 74.4307 31.432 74.1419 32.5872H78.7629Z" fill="#98A2B3"/>
</g>
<defs>
<clipPath id="clip0_539_9913">
<rect width="120.866" height="40" fill="white" transform="translate(0.0625)"/>
</clipPath>
</defs>
</svg>
