<svg width="82" height="40" viewBox="0 0 82 40" fill="none" xmlns="http://www.w3.org/2000/svg">
<g clip-path="url(#clip0_539_9811)">
<path d="M48.3779 19.9967H43.1502V4.10904H48.3779V9.40492L51.5676 4.10904H57.4155L52.1879 12.0977L57.4155 20.0864H51.5676L48.3779 14.7906V19.9967ZM78.3261 8.23803H81.25V4.10904H70.1745V8.23803H73.0984V19.9967H78.3261V8.23803ZM69.0226 15.8677H63.1748V14.0725H67.7822V10.0332H63.1748V8.23803H69.0226V4.10904H57.9471V19.9967H69.0226V15.8677ZM11.0755 33.012H5.22765V21.1636H0V37.0512H11.0755V33.012ZM23.3029 33.012H17.455V31.2168H22.0624V27.0878H17.455V25.2926H23.3029V21.1636H12.2274V37.0512H23.3029V33.012ZM81.25 33.012H75.4021V31.2168H80.0095V27.0878H75.4021V25.2926H81.25V21.1636H70.1745V37.0512H81.25V33.012ZM30.3026 12.0977C30.3026 16.6755 26.6698 20.3557 22.151 20.3557C17.6322 20.3557 13.9995 16.6755 13.9995 12.0977C13.9995 7.51995 17.6322 3.83976 22.151 3.83976C26.6698 3.83976 30.3026 7.51995 30.3026 12.0977ZM25.075 12.0977C25.075 10.482 23.7459 9.13564 22.151 9.13564C20.5562 9.13564 19.2271 10.482 19.2271 12.0977C19.2271 13.7134 20.5562 15.0598 22.151 15.0598C23.7459 15.0598 25.075 13.7134 25.075 12.0977ZM63.795 30.3192C63.795 31.3065 62.9975 32.1144 62.0229 32.1144C61.0483 32.1144 60.2508 31.3065 60.2508 30.3192V21.1636H55.0232V30.3192C55.0232 34.1789 58.1243 37.4102 62.0229 37.4102C65.8329 37.4102 69.0226 34.2686 69.0226 30.3192V21.1636H63.795V30.3192ZM41.9984 13.8032C41.4667 14.5213 40.0491 14.9701 39.0744 14.9701C37.4796 14.9701 36.1505 13.6237 36.1505 12.008C36.1505 10.3923 37.4796 9.04588 39.0744 9.04588C40.0491 9.04588 41.4667 9.49468 41.9984 10.2128V4.10904C41.2895 3.92952 39.8719 3.75 39.0744 3.75C34.5556 3.75 30.9229 7.43019 30.9229 12.008C30.9229 16.5858 34.5556 20.266 39.0744 20.266C39.8719 20.266 41.2009 20.1762 41.9984 19.9069V13.8032ZM13.3792 9.13564C13.3792 11.3797 12.2274 13.3544 10.2781 13.7134L14.2653 19.9967H8.41739L5.22765 14.7008V19.9967H0V4.10904H8.15158C11.0755 4.10904 13.3792 6.17354 13.3792 9.13564ZM8.15158 10.0332C8.15158 9.04588 7.35414 8.23803 6.3795 8.23803H5.22765V11.7387H6.3795C7.35414 11.7387 8.15158 11.0206 8.15158 10.0332ZM33.7582 34.7174H29.6824L29.1508 37.0512H23.9231L29.1508 21.1636H34.3784L39.6061 37.0512H34.3784L33.7582 34.7174ZM32.7835 30.5884L31.7203 26.1004L30.657 30.5884H32.7835ZM54.0485 27.7161H46.5172V31.5758H48.9095C48.6437 32.1144 48.1121 33.012 46.5172 33.012C44.7451 33.012 43.3274 31.486 43.3274 29.5113C43.3274 27.357 44.9223 26.1004 46.5172 26.0106C48.2893 25.9209 48.9981 26.639 49.5297 27.1775L53.1625 23.6769C51.3904 21.8816 49.3525 20.984 46.5172 20.984C41.9984 20.984 38.3656 24.6642 38.3656 29.242C38.3656 33.8198 41.9984 37.5 46.5172 37.5C51.2132 37.5 54.0485 34.0891 54.0485 29.8703V27.7161Z" fill="#98A2B3"/>
</g>
<defs>
<clipPath id="clip0_539_9811">
<rect width="81.25" height="40" fill="white"/>
</clipPath>
</defs>
</svg>
