<svg width="128" height="40" viewBox="0 0 128 40" fill="none" xmlns="http://www.w3.org/2000/svg">
<g clip-path="url(#clip0_539_9813)">
<path d="M57.3143 18.4742C55.0931 17.7323 53.047 17.1194 53.047 15.2484C53.047 13.7415 54.3235 12.5756 56.2728 12.5756C57.047 12.544 57.8155 12.7195 58.4992 13.084C59.1829 13.4486 59.757 13.9889 60.1622 14.6493L62.5216 12.9074C61.7769 11.9743 60.8235 11.2293 59.7381 10.7322C58.6527 10.2351 57.4657 9.99995 56.2728 10.0456C52.706 10.0456 50.07 12.3774 50.07 15.3221C50.07 18.8751 52.8995 19.9304 55.5216 20.7876C57.7428 21.5064 59.8627 22.1424 59.8627 24.124C59.8627 25.8475 58.5124 27.23 56.3696 27.23C54.411 27.23 52.8765 26.253 51.7613 24.4143L49.2129 26.3866C50.0357 27.5152 51.1213 28.426 52.3756 29.0403C53.6299 29.6546 55.015 29.9538 56.411 29.912C60.4018 29.912 62.8627 27.0779 62.8627 24.1055C62.8396 20.5249 59.964 19.3774 57.3143 18.4742Z" fill="#98A2B3"/>
<path d="M75.2086 16.2302C70.3054 16.1702 68.9598 20.1703 69.0566 22.3961C69.0566 22.6357 69.0566 29.4836 69.0566 29.4836H71.9091V22.7371C71.9091 20.4329 73.2178 18.9168 75.2777 18.9168C77.5819 18.9168 78.5036 20.903 78.5036 22.7371V29.479H81.3607V21.9813C81.31 18.4007 78.5404 16.2716 75.2086 16.2302Z" fill="#98A2B3"/>
<path d="M97.5957 10.5762H100.361V29.4932H97.5957V10.5762Z" fill="#98A2B3"/>
<path d="M105.033 13.608C105.033 13.2041 104.873 12.8167 104.587 12.531C104.302 12.2454 103.914 12.085 103.51 12.085C103.106 12.085 102.719 12.2454 102.433 12.531C102.148 12.8167 101.987 13.2041 101.987 13.608C101.977 13.8111 102.009 14.0141 102.081 14.2041C102.154 14.3941 102.265 14.5669 102.409 14.7113C102.552 14.8558 102.723 14.9687 102.913 15.043C103.102 15.1173 103.305 15.1512 103.508 15.1426C103.711 15.1497 103.913 15.1148 104.102 15.0401C104.291 14.9654 104.463 14.8525 104.606 14.7084C104.749 14.5643 104.861 14.3922 104.935 14.2029C105.008 14.0135 105.042 13.811 105.033 13.608ZM104.914 16.5297H102.149V29.479H104.914V16.5297Z" fill="#98A2B3"/>
<path d="M67.4206 13.608C67.4206 13.2041 67.2601 12.8167 66.9745 12.531C66.6889 12.2454 66.3015 12.085 65.8975 12.085C65.4936 12.085 65.1062 12.2454 64.8206 12.531C64.535 12.8167 64.3745 13.2041 64.3745 13.608C64.364 13.8111 64.3961 14.0141 64.4687 14.2041C64.5412 14.3941 64.6526 14.5669 64.7958 14.7113C64.9389 14.8558 65.1106 14.9687 65.3 15.043C65.4893 15.1173 65.692 15.1512 65.8952 15.1426C66.0983 15.1497 66.3006 15.1148 66.4895 15.0401C66.6784 14.9654 66.8498 14.8525 66.9931 14.7084C67.1363 14.5643 67.2482 14.3922 67.3217 14.2029C67.3953 14.0135 67.429 13.811 67.4206 13.608ZM67.2869 16.5297H64.522V29.479H67.2869V16.5297Z" fill="#98A2B3"/>
<path d="M106.513 16.5302H108.697V15.8528C108.697 11.8114 109.932 10.5625 113.974 10.5625H114.209V13.1247C111.762 13.1247 111.48 13.5395 111.48 15.8897V16.5395H114.209V19.0279H111.48V29.4934H108.715V19.0187H106.531L106.513 16.5302Z" fill="#98A2B3"/>
<path d="M121.287 16.2767C120.399 16.2704 119.518 16.4422 118.698 16.7821C117.877 17.1219 117.133 17.6229 116.51 18.2554C115.887 18.8879 115.396 19.639 115.068 20.4643C114.74 21.2896 114.581 22.1723 114.6 23.0602C114.6 26.8205 117.328 29.7422 121.393 29.756C122.628 29.8016 123.851 29.4942 124.917 28.8698C125.984 28.2455 126.851 27.33 127.416 26.2307L125.144 24.9634C124.813 25.6756 124.281 26.2756 123.614 26.6898C122.947 27.1041 122.173 27.3145 121.388 27.2952C119.153 27.2952 117.605 25.9726 117.241 23.9772H127.9V22.885C127.927 22.0094 127.775 21.1374 127.452 20.3229C127.13 19.5083 126.644 18.7686 126.024 18.1493C125.404 17.5301 124.664 17.0444 123.849 16.7223C123.035 16.4002 122.162 16.2486 121.287 16.2767ZM125.112 21.6039H117.384C117.625 20.756 118.14 20.0116 118.849 19.4865C119.557 18.9615 120.419 18.6852 121.301 18.7007C123.287 18.7053 124.702 19.7376 125.112 21.6039Z" fill="#98A2B3"/>
<path d="M82.7202 23.0741C82.6993 21.2749 83.3931 19.5409 84.6493 18.2527C85.9056 16.9646 87.6216 16.2274 89.4207 16.2031C93.029 16.2031 95.8447 19.1663 95.9138 22.9681L95.8723 29.9497C95.8723 34.2354 93.1903 36.4796 89.3193 36.4796C86.0382 36.4796 83.8216 34.899 82.8216 32.7607L85.4161 31.5211C86.0751 32.9635 87.3193 33.8944 89.3193 33.8944C91.499 33.8944 93.2087 32.4197 93.2087 30.1755V28.6824C92.1154 29.5117 90.7791 29.9571 89.4069 29.9497C87.6093 29.9217 85.8962 29.1824 84.6428 27.8936C83.3894 26.6048 82.6981 24.8717 82.7202 23.0741ZM85.4023 23.0741C85.3887 24.1559 85.8036 25.1992 86.5565 25.9762C87.3093 26.7533 88.339 27.201 89.4207 27.2216C91.5958 27.2216 93.2226 25.4243 93.2226 23.0741C93.2226 20.7239 91.5912 18.9266 89.4207 18.9266C88.3398 18.9496 87.3115 19.398 86.5592 20.1745C85.8068 20.951 85.3911 21.993 85.4023 23.0741Z" fill="#98A2B3"/>
<path d="M10.4711 5.11563H9.30518V3.13867H10.4711C12.9227 3.14008 15.3432 3.68756 17.5568 4.74135C19.7704 5.79514 21.7215 7.32877 23.2683 9.23084L21.743 10.4843C20.3817 8.80745 18.6634 7.4554 16.7135 6.52666C14.7635 5.59791 12.6309 5.11587 10.4711 5.11563Z" fill="#98A2B3"/>
<path d="M30.0286 34.8897H31.1899V36.8759H30.0194C27.5678 36.8745 25.1472 36.327 22.9337 35.2732C20.7201 34.2194 18.769 32.6858 17.2222 30.7837L18.7475 29.5303C20.1125 31.2046 21.8329 32.5543 23.7841 33.4813C25.7353 34.4082 27.8684 34.8894 30.0286 34.8897Z" fill="#98A2B3"/>
<path d="M16.0243 2.66347L14.9321 2.26715L15.6003 0.423828L16.6925 0.820149C19.0048 1.65619 21.1024 2.99578 22.8335 4.74199C24.5646 6.48821 25.8859 8.59739 26.7017 10.9169L24.8584 11.5805C24.1429 9.53013 22.9784 7.66544 21.45 6.1227C19.9216 4.57995 18.0679 3.3981 16.0243 2.66347Z" fill="#98A2B3"/>
<path d="M24.4665 37.3409L25.5587 37.7372L24.8904 39.5805L23.7983 39.1842C21.4859 38.3482 19.3883 37.0086 17.6573 35.2624C15.9262 33.5161 14.6049 31.407 13.7891 29.0874L15.6324 28.4238C16.3499 30.4731 17.5151 32.3367 19.0432 33.8792C20.5713 35.4217 22.424 36.6042 24.4665 37.3409Z" fill="#98A2B3"/>
<path d="M22.3008 2.26727L21.416 1.51613L22.6833 0L23.5681 0.751154C25.446 2.3425 26.9474 4.33063 27.9642 6.57225C28.981 8.81387 29.4879 11.2531 29.4483 13.7143L27.4759 13.6866C27.5124 11.5188 27.0671 9.36997 26.1721 7.39518C25.2772 5.4204 23.9549 3.66894 22.3008 2.26727Z" fill="#98A2B3"/>
<path d="M18.1994 37.7331L19.0842 38.4843L17.8169 40.0004L16.9322 39.2493C15.0543 37.6579 13.5528 35.6698 12.536 33.4282C11.5192 31.1865 11.0123 28.7473 11.052 26.2861L13.0243 26.3138C12.9872 28.4817 13.4322 30.6307 14.3272 32.6056C15.2222 34.5805 16.5448 36.3319 18.1994 37.7331Z" fill="#98A2B3"/>
<path d="M27.9412 3.90807L27.3467 2.90808L29.0518 1.88965L29.6462 2.88964C30.9082 5.00578 31.6865 7.37481 31.9255 9.82703C32.1645 12.2793 31.8583 14.754 31.0287 17.074L29.1854 16.3966C29.9094 14.3516 30.1732 12.172 29.9581 10.0133C29.7431 7.85467 29.0544 5.77003 27.9412 3.90807Z" fill="#98A2B3"/>
<path d="M12.5587 36.0921L13.1532 37.0921L11.4573 38.1105L10.8628 37.1105C9.60315 34.9915 8.82836 32.6197 8.5941 30.1657C8.35985 27.7116 8.67195 25.2361 9.508 22.917L11.3513 23.5944C10.6176 25.6375 10.3453 27.8178 10.5541 29.9786C10.7628 32.1394 11.4474 34.2272 12.5587 36.0921Z" fill="#98A2B3"/>
<path d="M33.0287 7.6082L32.8167 6.46074L34.7568 6.09668L34.9687 7.24415C35.4159 9.66647 35.3214 12.1577 34.692 14.5392C34.0625 16.9207 32.9138 19.1333 31.3282 21.0183L29.8213 19.7372C31.2182 18.0777 32.2302 16.1294 32.7848 14.0323C33.3394 11.9352 33.4226 9.74131 33.0287 7.6082Z" fill="#98A2B3"/>
<path d="M7.47132 32.3916L7.6833 33.539L5.74321 33.9031L5.53122 32.7556C5.08407 30.3333 5.17861 27.8421 5.80803 25.4606C6.43746 23.0791 7.58617 20.8665 9.17177 18.9814L10.6787 20.2626C9.28039 21.9213 8.26743 23.8695 7.71281 25.9668C7.15818 28.0642 7.07572 30.2585 7.47132 32.3916Z" fill="#98A2B3"/>
<path d="M36.4895 12.7695L36.683 11.6221L38.6323 11.9493L38.4388 13.0967C38.033 15.523 37.0943 17.8292 35.6902 19.8492C34.2862 21.8692 32.4518 23.5528 30.319 24.7787L29.3374 23.0552C31.2161 21.9765 32.832 20.4944 34.0688 18.7157C35.3055 16.9371 36.1323 14.9062 36.4895 12.7695Z" fill="#98A2B3"/>
<path d="M4.01032 27.2309L3.81677 28.3784L1.87207 28.0512L2.06562 26.9037C2.47089 24.476 3.41038 22.1687 4.81621 20.1484C6.22204 18.1281 8.0591 16.4453 10.1946 15.2217L11.167 16.9452C9.28747 18.0234 7.67062 19.5053 6.43305 21.284C5.19547 23.0626 4.36801 25.0938 4.01032 27.2309Z" fill="#98A2B3"/>
<path d="M37.9642 18.7277L38.531 17.7139L40.2499 18.6862L39.6831 19.7C38.4873 21.8416 36.8305 23.6907 34.8324 25.1133C32.8344 26.5359 30.545 27.4966 28.1301 27.9258L27.7891 25.9765C29.9156 25.5958 31.9311 24.7482 33.6906 23.4947C35.4501 22.2412 36.9097 20.6131 37.9642 18.7277Z" fill="#98A2B3"/>
<path d="M2.53572 21.2668L1.96889 22.2806L0.25 21.3175L0.816818 20.3037C2.01411 18.1574 3.6748 16.3049 5.67808 14.8812C7.68135 13.4575 9.97681 12.4982 12.3975 12.0732L12.7385 14.0226C10.6071 14.398 8.58595 15.2428 6.82133 16.4958C5.05672 17.7487 3.59284 19.3784 2.53572 21.2668Z" fill="#98A2B3"/>
<path d="M37.2638 25.1111L38.1486 24.3691L39.4159 25.8899L38.5311 26.6318C36.6532 28.2102 34.4469 29.3499 32.0728 29.9677C29.6987 30.5856 27.2167 30.666 24.8076 30.2032L25.1809 28.2585C27.3022 28.665 29.4875 28.5934 31.5777 28.0489C33.6679 27.5044 35.6104 26.5008 37.2638 25.1111Z" fill="#98A2B3"/>
<path d="M3.24558 14.8892L2.32392 15.6312L1.05664 14.1104L1.94143 13.3685C3.8199 11.7831 6.02985 10.6389 8.40876 10.02C10.7877 9.40115 13.2751 9.3234 15.688 9.79247L15.3147 11.7372C13.1951 11.3342 11.0125 11.4079 8.92493 11.9531C6.83741 12.4983 4.89739 13.5013 3.24558 14.8892Z" fill="#98A2B3"/>
<path d="M34.5171 30.6264L35.6047 30.2301L36.2775 32.0734L35.1899 32.4698C32.8867 33.3142 30.4238 33.6328 27.9815 33.4024C25.5392 33.172 23.1793 32.3983 21.0747 31.138L22.0793 29.4375C23.9334 30.5486 26.0121 31.232 28.1638 31.4376C30.3156 31.6433 32.4861 31.3662 34.5171 30.6264Z" fill="#98A2B3"/>
<path d="M5.97814 9.36825L4.89059 9.76457L4.21777 7.92125L5.30533 7.52493C7.60855 6.6805 10.0715 6.36184 12.5138 6.59228C14.9561 6.82271 17.3159 7.59642 19.4205 8.85674L18.4159 10.5572C16.5625 9.44452 14.4837 8.76028 12.3316 8.55457C10.1796 8.34886 8.00885 8.62687 5.97814 9.36825Z" fill="#98A2B3"/>
<path d="M10.4711 5.11563H9.30518V3.13867H10.4711C12.9227 3.14008 15.3432 3.68756 17.5568 4.74135C19.7704 5.79514 21.7215 7.32877 23.2683 9.23084L21.743 10.4843C20.3817 8.80745 18.6634 7.4554 16.7135 6.52666C14.7635 5.59791 12.6309 5.11587 10.4711 5.11563Z" fill="#98A2B3"/>
<path d="M30.0286 34.8897H31.1899V36.8759H30.0194C27.5678 36.8745 25.1472 36.327 22.9337 35.2732C20.7201 34.2194 18.769 32.6858 17.2222 30.7837L18.7475 29.5303C20.1125 31.2046 21.8329 32.5543 23.7841 33.4813C25.7353 34.4082 27.8684 34.8894 30.0286 34.8897Z" fill="#98A2B3"/>
</g>
<defs>
<clipPath id="clip0_539_9813">
<rect width="127.65" height="40" fill="white" transform="translate(0.25)"/>
</clipPath>
</defs>
</svg>
