<svg width="115" height="40" viewBox="0 0 115 40" fill="none" xmlns="http://www.w3.org/2000/svg">
<g clip-path="url(#clip0_539_9842)">
<path d="M41.3109 30C37.2046 30 33.3995 28.7727 30.8628 26.4841C29.9557 25.6662 29.2329 24.6635 28.7428 23.543C28.2526 22.4225 28.0063 21.21 28.0203 19.9864C28.0175 18.7678 28.269 17.5621 28.7585 16.4469C29.2481 15.3318 29.9649 14.3318 30.8628 13.5114C33.2183 11.3636 37.3858 10 41.3109 10C45.6528 10 49.1294 11.0977 51.7862 13.5159C52.6806 14.3361 53.3926 15.3362 53.8757 16.4511C54.3589 17.566 54.6023 18.7707 54.5901 19.9864C54.5841 21.2033 54.3325 22.4064 53.8506 23.5231C53.3687 24.6398 52.6665 25.647 51.7862 26.4841C49.3106 28.7864 45.424 30 41.3109 30V27.3682C43.4875 27.3682 45.5078 26.6136 46.9189 25.2045C48.3299 23.7955 48.9709 22.0864 48.9709 19.9773C48.9709 17.9636 48.2665 16.0818 46.9189 14.75C45.5259 13.375 43.4581 12.6 41.3109 12.6C39.1638 12.6 37.0868 13.3682 35.6939 14.75C34.3508 16.0841 33.6555 17.9727 33.6555 19.9773C33.6353 20.9404 33.805 21.898 34.1548 22.795C34.5047 23.6921 35.0277 24.511 35.6939 25.2045C37.0868 26.5977 39.1502 27.3682 41.3109 27.3682V30ZM11.3279 10C9.13315 10 6.63947 10.4136 4.53309 11.3636C2.56713 12.2455 0.965834 13.6614 0.965834 16.0091C0.962881 17.2385 1.42885 18.4225 2.26816 19.3182C2.83666 19.8455 3.75395 20.7409 6.15024 21.2682C7.22155 21.4955 9.51139 21.8614 11.7922 22.1023C14.0729 22.3432 16.2835 22.5568 17.1895 22.8C17.9097 22.9841 19.1215 23.2341 19.1215 24.5977C19.1215 25.9614 17.8463 26.3705 17.6243 26.4591C17.4024 26.5477 15.8713 27.2523 13.1217 27.2523C11.2999 27.2015 9.49465 26.89 7.7606 26.3273C6.73459 25.9591 5.65875 25.475 4.65539 24.2455C4.25047 23.6664 4.02583 22.9799 4.00989 22.2727H1.51848V29.2727H4.28621V28.325C4.28577 28.2547 4.30402 28.1856 4.33907 28.1247C4.37412 28.0638 4.4247 28.0134 4.48561 27.9787C4.54652 27.944 4.61556 27.9262 4.68561 27.9271C4.75566 27.9281 4.82419 27.9477 4.88415 27.9841C6.18812 28.5534 7.54447 28.9934 8.93383 29.2977C10.3879 29.6023 11.3279 29.8227 13.1353 29.8227C15.0425 29.8591 16.9432 29.5898 18.7659 29.025C19.9762 28.6921 21.1117 28.1297 22.1112 27.3682C22.6733 26.9349 23.1277 26.3767 23.4385 25.7375C23.7494 25.0982 23.9083 24.3954 23.9027 23.6841C23.9122 22.3328 23.3924 21.0319 22.4554 20.0614C21.9344 19.554 21.3308 19.1397 20.6707 18.8364C19.961 18.5146 19.2243 18.2568 18.4692 18.0659C17.0332 17.7136 13.8079 17.2727 12.2655 17.1182C10.6484 16.95 7.84214 16.7159 6.721 16.3682C6.38126 16.2614 5.6882 15.9318 5.6882 15.125C5.6882 14.55 6.00529 14.0636 6.63041 13.6705C7.62471 13.0455 9.63143 12.6568 11.7242 12.6568C13.7499 12.6323 15.759 13.026 17.6266 13.8136C18.1284 14.033 18.6002 14.3156 19.0309 14.6545C19.7328 15.2561 20.2189 16.072 20.4147 16.9773H22.6502V10.8841H20.1588V11.5909C20.1588 11.8182 19.9323 12.1182 19.4793 11.8705C18.3559 11.2841 15.1986 10.0159 11.3279 10ZM66.0235 11.1182L78.1997 22.1432L78.0751 14.7205C78.0615 13.7455 77.8849 13.3386 76.834 13.3386H74.5464V11.1182H84.965V13.3386H82.7295C81.6605 13.3386 81.5971 13.6841 81.579 14.7205L81.767 28.9045H78.1997L64.173 16.3455V25.2568C64.1844 26.2273 64.2297 26.6841 65.224 26.6841H67.7154V28.9045H57.5028V26.6841H59.8946C60.787 26.6841 60.7507 25.8295 60.7507 25.2068V14.8045C60.7507 14.1227 60.6556 13.3409 59.2559 13.3409H57.3171V11.1182H66.0235ZM96.8513 26.6795C97.0573 26.6796 97.263 26.6667 97.4674 26.6409C97.5735 26.6089 97.6715 26.5542 97.7544 26.4804C97.8373 26.4066 97.9032 26.3156 97.9476 26.2136C97.9789 26.0557 97.9948 25.8951 97.9951 25.7341V22.2227C97.9951 22.1045 97.9951 22.1023 97.8456 21.9159C97.6962 21.7295 91.4676 14.6432 91.1845 14.325C90.8312 13.9386 90.2106 13.3409 89.2661 13.3409H87.1031V11.1182H99.311V13.3364H97.8388C97.4991 13.3364 97.2726 13.6614 97.5625 14.0182C97.5625 14.0182 101.671 18.95 101.71 19.0023C101.748 19.0545 101.782 19.0659 101.834 19.0182C101.886 18.9705 106.045 14.0636 106.076 14.0182C106.126 13.9535 106.155 13.8759 106.162 13.7948C106.168 13.7137 106.151 13.6324 106.113 13.5606C106.075 13.4888 106.017 13.4295 105.946 13.3897C105.876 13.35 105.795 13.3315 105.714 13.3364H104.203V11.1182H114.212V13.3409H111.976C111.166 13.3409 110.844 13.4909 110.226 14.1818L103.488 21.8955C103.422 21.9909 103.393 22.1073 103.406 22.2227V25.7318C103.407 25.8929 103.424 26.0535 103.456 26.2114C103.499 26.3134 103.565 26.4046 103.647 26.4784C103.73 26.5522 103.828 26.6069 103.934 26.6386C104.136 26.6655 104.341 26.6784 104.545 26.6773H106.831V28.9H94.6861V26.6773L96.8513 26.6795Z" fill="#98A2B3"/>
</g>
<defs>
<clipPath id="clip0_539_9842">
<rect width="113.75" height="40" fill="white" transform="translate(0.899902)"/>
</clipPath>
</defs>
</svg>
