<svg width="136" height="40" viewBox="0 0 136 40" fill="none" xmlns="http://www.w3.org/2000/svg">
<path d="M31.7907 4.38729C33.2726 2.93463 34.7064 1.42798 36.2121 0C37.1252 2.03682 38.1337 4.0299 39.0574 6.06211C40.9297 5.23112 42.7867 4.358 44.6566 3.51759C44.1136 5.87749 43.5495 8.23278 43.0065 10.5941C45.1984 11.4379 47.3891 12.2852 49.574 13.1468C47.877 14.4785 46.1775 15.8053 44.4814 17.1358C45.4651 19.4758 46.3747 21.844 47.3444 24.1886C45.4745 24.3203 43.6022 24.4202 41.7324 24.5555C40.4619 28.4292 39.1351 32.2854 37.8845 36.165C37.7282 36.1074 37.6118 35.9864 37.492 35.8782C35.1907 33.6875 32.8777 31.5096 30.5706 29.3248C29.494 29.9206 28.4128 30.5082 27.3456 31.1195C27.3986 30.3744 27.5796 29.6445 27.6219 28.8994C23.7457 31.1207 19.8766 33.3559 15.9982 35.575C13.4549 37.0606 10.8772 38.4897 8.34809 40C8.6266 39.6603 8.99331 39.4146 9.33187 39.1409C12.9506 36.2201 16.5669 33.2961 20.1858 30.3754C21.4573 29.327 22.7691 28.3247 24.0184 27.2515C16.5528 31.345 9.08149 35.4269 1.61955 39.5274C1.3375 39.6709 1.07773 39.886 0.749756 39.9095C0.850955 39.8565 0.954262 39.8084 1.05068 39.7472C7.45135 35.1142 13.8496 30.4777 20.2468 25.84C20.7204 25.4922 21.2165 25.1735 21.6642 24.7929C15.038 28.3211 8.41511 31.8575 1.78878 35.3845C1.87344 35.3047 1.96037 35.226 2.04965 35.1508C8.00608 30.688 13.9413 26.1938 19.9049 21.7382C17.4097 22.9888 14.9509 24.3145 12.4688 25.5931C9.30365 27.2575 6.11389 28.8781 2.96287 30.5718C3.22852 30.2686 3.56818 30.0487 3.88785 29.8103C7.39843 27.1329 10.9137 24.4638 14.4233 21.7864C15.9053 20.6464 17.4109 19.5393 18.874 18.3768C13.9648 21.026 9.01454 23.5999 4.10881 26.2537C4.10293 26.2395 4.09001 26.2138 4.08413 26.2008C9.04033 22.3517 13.9989 18.5038 18.9398 14.6346C17.7729 14.5489 16.6104 14.3962 15.4411 14.3621C15.4576 14.3244 15.4893 14.2491 15.5057 14.2116C16.8691 13.5687 18.1959 12.8519 19.5557 12.2019C19.4853 12.116 19.4018 12.0468 19.3067 11.9928C17.9844 11.2087 16.6726 10.4085 15.3588 9.6116C17.7492 9.0744 20.1505 8.58676 22.5399 8.04374C22.9278 5.64611 23.2826 3.24266 23.6494 0.840214C26.2339 2.02137 28.837 3.16039 31.4214 4.34134C31.5332 4.36843 31.6905 4.50248 31.7907 4.38729Z" fill="#475467"/>
<path d="M26.3421 6.54359C28.165 5.47401 30.2981 4.99561 32.3996 5.03093C34.1603 5.82418 35.7985 6.95236 36.9925 8.4873C34.6551 8.20295 32.4736 7.23812 30.1653 6.8149C28.9079 6.56928 27.6222 6.47295 26.3421 6.54359Z" fill="#98A2B3"/>
<path d="M35.5695 5.65342C35.7822 5.66627 35.9985 5.69095 36.196 5.77784C37.4676 6.27631 38.6863 6.95438 39.6995 7.87707C39.3186 8.22143 38.831 8.39421 38.3361 8.49414C37.5427 7.42917 36.6226 6.46434 35.5695 5.65342Z" fill="#98A2B3"/>
<path d="M24.542 8.38048C26.8879 7.519 29.5217 7.41786 31.9123 8.16657C33.8151 8.7118 35.7215 9.35234 37.716 9.43703C38.1191 10.0703 38.501 10.7215 38.7914 11.4163C38.2941 11.3679 37.7946 11.3504 37.2952 11.3575C34.385 11.3868 31.4622 11.7076 28.659 12.5185C25.6257 13.4025 22.6804 14.8174 20.3825 17.0234C20.2158 14.1089 21.3417 11.1787 23.2585 8.99394C23.3761 8.89621 23.4502 8.7423 23.5947 8.68009C23.9308 8.65541 24.2306 8.49547 24.542 8.38048Z" fill="#98A2B3"/>
<path d="M40.4227 8.5559L40.4403 8.54165C41.3594 9.49605 42.1173 10.5997 42.6911 11.7939C41.7812 11.6129 40.8539 11.56 39.9338 11.46C39.6292 10.7314 39.2943 10.0132 38.8725 9.34574C39.4329 9.18119 39.9866 8.95664 40.4227 8.5559Z" fill="#98A2B3"/>
<path d="M25.5024 15.1139C28.9507 13.3144 32.8492 12.5059 36.7135 12.3426C37.5327 12.3039 38.3554 12.2685 39.1734 12.353C39.3931 13.0913 39.6024 13.8352 39.7282 14.5967C38.6739 14.6567 37.6244 14.9 36.6724 15.3619C35.0058 16.1423 33.6294 17.3915 32.2721 18.6068C31.0108 19.748 29.6992 20.8447 28.249 21.7391C26.6223 22.7816 24.8323 23.5549 22.9813 24.1002L22.9508 24.1084C21.7825 22.6911 20.9728 20.9797 20.5977 19.1817C20.8046 18.9852 20.9881 18.7679 21.1596 18.5409C22.3372 17.0977 23.8639 15.9802 25.5024 15.1139Z" fill="#98A2B3"/>
<path d="M40.2571 12.3872C41.1914 12.4436 42.1248 12.5471 43.0519 12.6776C43.3764 13.6097 43.6631 14.5791 43.6772 15.5723C42.8123 15.0094 41.8109 14.6614 40.7754 14.6191C40.6625 13.8623 40.4815 13.1182 40.2571 12.3872Z" fill="#98A2B3"/>
<path d="M36.6762 16.4199C37.6364 15.8744 38.7188 15.563 39.8189 15.4867C40.0657 17.6092 39.7202 19.7847 38.9574 21.7734C37.8597 24.5623 35.797 27.0127 33.1034 28.3691C33.0352 28.3867 32.8999 28.4243 32.8331 28.4419C29.6914 28.6771 26.4746 27.5522 24.1687 25.4096C25.1606 25.1475 26.061 24.5987 26.9436 24.0839C29.3823 22.6501 31.4378 20.6861 33.531 18.8069C34.5207 17.9395 35.5175 17.058 36.6762 16.4199Z" fill="#98A2B3"/>
<path d="M40.8819 15.5377C41.9585 15.6282 42.9809 16.1206 43.7437 16.8834C43.7391 16.4556 43.7284 16.0267 43.7226 15.5989C43.9765 16.3382 43.7296 17.1103 43.712 17.8625C43.4804 20.7806 42.0195 23.5309 39.8781 25.5007C38.8734 26.3951 37.7121 27.1108 36.4721 27.6316C36.3347 27.6868 36.1912 27.7139 36.0421 27.7139C37.3864 26.5443 38.4937 25.1059 39.307 23.5226C40.5799 21.078 41.084 18.2785 40.8819 15.5377Z" fill="#98A2B3"/>
<mask id="mask0_539_9539" style="mask-type:luminance" maskUnits="userSpaceOnUse" x="20" y="4" width="24" height="25">
<path d="M20.3277 16.6927C20.3277 23.1698 25.5813 28.4248 32.0628 28.4248C38.5413 28.4248 43.7981 23.1698 43.7981 16.6927C43.7981 10.2112 38.5417 4.95739 32.0628 4.95739C25.5813 4.95739 20.3277 10.211 20.3277 16.6927Z" fill="white"/>
</mask>
<g mask="url(#mask0_539_9539)">
<path d="M30.921 26.502C37.2245 27.8453 43.4341 23.8256 44.7772 17.5135C46.1255 11.2032 42.1026 5.00038 35.7923 3.65387C29.4868 2.30555 23.2812 6.33003 21.9341 12.6388C20.5873 18.9477 24.6084 25.1569 30.921 26.502Z" fill="#98A2B3"/>
</g>
<path d="M32.3623 5.0125C33.36 5.07952 34.3601 5.19451 35.3182 5.49431C35.4087 5.53666 35.4921 5.58963 35.5696 5.65304C36.6227 6.46396 37.5428 7.42879 38.3363 8.49376C38.8311 8.39383 39.3188 8.22105 39.6996 7.87669C39.9722 8.06713 40.2015 8.30914 40.4225 8.55597C39.9864 8.95671 39.4327 9.18126 38.8723 9.34581C39.2941 10.0133 39.629 10.7315 39.9336 11.4601C40.8537 11.56 41.781 11.613 42.6909 11.794C42.8177 12.0854 42.9493 12.3768 43.0515 12.6778C42.1244 12.5473 41.191 12.4438 40.2567 12.3874C40.4811 13.1185 40.6621 13.8625 40.775 14.6193C41.8105 14.6616 42.8119 15.0096 43.6768 15.5725L43.7227 15.5996C43.7285 16.0274 43.7392 16.4562 43.7438 16.8841C42.981 16.1213 41.9586 15.6289 40.882 15.5384C41.0841 18.2791 40.58 21.0787 39.3071 23.5233C38.4938 25.1066 37.3865 26.545 36.0422 27.7145C35.1313 28.1293 34.1029 28.3304 33.1039 28.3691C35.7976 27.0128 37.8603 24.5624 38.958 21.7734C39.7207 19.7848 40.0663 17.6093 39.8194 15.4868C38.7194 15.563 37.6369 15.8745 36.6767 16.4199C35.518 17.0581 34.5213 17.9396 33.5316 18.8069C31.4384 20.6862 29.3829 22.6502 26.9441 24.084C26.0615 24.5987 25.1611 25.1475 24.1692 25.4096C23.7532 24.9914 23.3266 24.58 22.981 24.1004C24.832 23.5552 26.622 22.7818 28.2487 21.7393C29.6989 20.8449 31.0105 19.7483 32.2718 18.607C33.6291 17.3918 35.0055 16.1426 36.6721 15.3622C37.6241 14.9002 38.6736 14.657 39.7279 14.597C39.6021 13.8355 39.3928 13.0916 39.1731 12.3533C38.3551 12.2688 37.5324 12.3041 36.7132 12.3429C32.8489 12.5062 28.9504 13.3147 25.5021 15.1141C23.8636 15.9804 22.3369 17.098 21.1593 18.5412C20.9878 18.7682 20.8043 18.9855 20.5974 19.182C20.4835 18.4672 20.3871 17.7492 20.3823 17.0239C22.6802 14.8179 25.6255 13.403 28.6589 12.519C31.462 11.7081 34.3848 11.3873 37.295 11.358C37.7945 11.3509 38.2939 11.3684 38.7912 11.4167C38.5008 10.722 38.1189 10.0708 37.7158 9.43752C35.7213 9.35284 33.8149 8.71229 31.9121 8.16706C29.5215 7.41836 26.8877 7.5195 24.5419 8.38098C24.2304 8.49597 23.9306 8.6559 23.5945 8.68058C24.3819 7.82492 25.3175 7.09387 26.3423 6.54403C27.6224 6.47339 28.9081 6.56971 30.1655 6.81533C32.4738 7.23855 34.6553 8.20339 36.9928 8.48774C35.7988 6.9528 34.1605 5.82462 32.3998 5.03136L32.3623 5.0125Z" fill="black"/>
<path d="M65.3552 4.7075C65.6654 4.69108 65.9775 4.68395 66.2879 4.6728C67.2587 4.71276 68.2296 4.69479 69.2002 4.65669C69.5813 4.78557 69.7193 5.22085 69.9643 5.50774C69.6866 6.32936 69.6104 7.21139 69.2802 8.01504C68.2948 8.27497 67.3277 8.60492 66.3659 8.94076C66.2752 9.41229 66.1754 9.88444 66.0103 10.338C66.1899 10.5756 66.3696 10.8129 66.542 11.0565C65.8124 11.1054 65.0811 11.0853 64.3516 11.0744C64.8942 9.31253 65.2299 7.49084 65.7236 5.71252C65.9086 5.31349 65.3715 5.09011 65.3552 4.7075Z" fill="#98A2B3"/>
<path d="M76.4851 4.79977C77.131 4.46208 77.8804 4.79234 78.5682 4.63619C78.4738 5.54363 78.1308 6.40366 77.9803 7.30366C78.3959 7.19306 78.8132 7.08773 79.2414 7.04404C79.5789 6.30019 79.6116 5.46215 79.8892 4.70528C80.3555 4.68514 80.8237 4.69443 81.2883 4.63991C80.9544 6.48545 80.4318 8.29971 79.9998 10.1269C79.8311 10.439 80.1488 10.6441 80.3319 10.8401C80.3466 10.8999 80.3756 11.018 80.39 11.0759C79.6878 11.0886 78.9875 11.0868 78.2869 11.0778C78.5481 10.1506 78.7914 9.21613 78.9528 8.26718C78.5174 8.37406 78.0819 8.4794 77.6463 8.58473C77.63 8.69719 77.5955 8.91871 77.5775 9.03117C77.3651 9.70439 77.22 10.3956 77.0566 11.0814C76.5612 11.0849 76.0639 11.0849 75.5687 11.0796C76.0639 9.19258 76.5376 7.2984 76.9676 5.39647C76.8044 5.19881 76.6429 4.99898 76.4851 4.79977Z" fill="#98A2B3"/>
<path d="M88.1933 5.43802C88.5127 5.19141 88.8285 4.94263 89.1442 4.6923C89.9408 4.67588 90.7376 4.70686 91.5324 4.66504C91.9423 4.69044 92.0876 5.17127 92.3599 5.41261C91.9949 7.01465 91.5959 8.61141 91.2039 10.2067C90.9734 10.5784 90.5415 10.791 90.2184 11.0812C89.3313 11.0812 88.4437 11.0974 87.5563 11.07C87.3732 10.8053 87.1826 10.5477 86.9958 10.2881C87.4113 8.67524 87.7868 7.05275 88.1933 5.43802Z" fill="#98A2B3"/>
<path d="M99.1274 4.68503C100.497 4.67233 101.877 4.73058 103.25 4.64321C103.141 5.23495 103 5.82111 102.805 6.39086C102.638 6.23843 102.499 6.06245 102.403 5.86294C101.851 5.78115 101.29 5.78672 100.739 5.86108C100.659 6.35461 100.532 6.84101 100.421 7.32896C100.873 7.33237 101.325 7.33237 101.778 7.33082C101.691 7.69919 101.602 8.06569 101.526 8.43747C101.067 8.43933 100.606 8.43933 100.147 8.43747C100.014 8.97282 99.8623 9.5026 99.748 10.0414C100.287 10.0414 100.827 10.0398 101.367 10.0414C101.615 9.81823 101.844 9.55527 102.167 9.44095C102.118 10.0017 101.929 10.5371 101.809 11.0848C100.55 11.0795 99.2888 11.0922 98.0275 11.0777C98.5431 9.19434 98.9746 7.289 99.423 5.38923C99.2668 5.20242 99.111 5.01715 98.9567 4.83219L99.1274 4.68503Z" fill="#98A2B3"/>
<path d="M110.306 4.68141C111.419 4.71053 112.532 4.67243 113.645 4.69814C113.959 4.81773 114.097 5.18609 114.329 5.41659C114.008 6.98764 113.567 8.53205 113.217 10.0963C113.048 10.4262 113.327 10.6459 113.547 10.842C113.549 10.9018 113.556 11.0214 113.56 11.0814C112.874 11.0849 112.19 11.0886 111.506 11.0778C111.968 9.3357 112.351 7.5704 112.829 5.83205C112.368 5.80664 111.905 5.80324 111.444 5.83205C111.09 7.59023 110.551 9.31061 110.223 11.0741C109.722 11.0868 109.221 11.0849 108.72 11.0778C109.299 8.95835 109.746 6.80455 110.306 4.68141Z" fill="#98A2B3"/>
<path d="M121.102 4.69657C121.793 4.6913 122.485 4.70215 123.174 4.64235C122.712 6.54026 122.283 8.44931 121.759 10.3327C121.929 10.5722 122.107 10.8079 122.267 11.0585C121.548 11.1038 120.828 11.0874 120.109 11.0709C120.465 10.1041 120.612 9.06987 120.875 8.07351C121.073 7.30053 121.256 6.52229 121.459 5.74931C121.67 5.32084 121.133 5.09251 121.102 4.69657Z" fill="#98A2B3"/>
<path d="M129.69 4.74961C130.399 4.63189 131.123 4.70624 131.84 4.70067C131.965 5.34662 132.148 5.98174 132.317 6.61871C132.78 6.00156 133.23 5.37575 133.696 4.76418C134.135 4.50487 134.689 4.75705 135.173 4.70253C134.315 5.78934 133.475 6.88917 132.624 7.97971C132.892 8.77065 133.123 9.57462 133.377 10.3711C133.6 10.6506 134.017 10.7194 134.179 11.0623C133.48 11.0986 132.782 11.0805 132.081 11.0805C131.941 10.4672 131.749 9.86491 131.637 9.24591C131.17 9.85221 130.718 10.4706 130.261 11.0859C129.764 11.0732 129.263 11.1202 128.771 11.037C129.666 10.1133 130.375 9.02811 131.181 8.03021C131.141 7.26095 130.771 6.54249 130.629 5.78407C130.58 5.25616 129.983 5.11457 129.69 4.74961Z" fill="#98A2B3"/>
<path d="M89.5572 5.81001C89.9798 5.81187 90.4008 5.81342 90.8238 5.81342C90.4681 7.22709 90.1486 8.64943 89.7675 10.0557C89.3465 10.0412 88.9257 10.0376 88.5065 10.0412C88.8783 8.63704 89.1761 7.21253 89.5572 5.81001Z" fill="black"/>
<path d="M67.1383 5.84489C67.563 5.84489 67.9894 5.84489 68.414 5.84675C68.2706 6.32757 68.1873 6.82482 68.0003 7.29295C67.5684 7.37815 67.1528 7.52531 66.741 7.67773C66.8009 7.05501 67.0041 6.4546 67.1383 5.84489Z" fill="black"/>
<path d="M62.5315 16.2187C63.5641 15.3714 64.553 14.4351 65.6708 13.713C69.2745 13.7003 72.8802 13.7204 76.484 13.704C77.141 14.5278 77.7416 15.3949 78.3404 16.2606C77.7832 17.9227 77.4694 19.6663 77.0103 21.3613C75.3427 20.7225 73.7313 19.9241 72.1144 19.1619C73.0962 18.915 74.0597 18.5993 75.0233 18.2873C75.1721 17.7393 75.3137 17.1897 75.4497 16.6397C75.1195 16.1627 74.7748 15.6964 74.4118 15.2444C72.0654 15.237 69.7173 15.2519 67.3693 15.237C66.4348 15.1266 65.9612 16.1426 65.1682 16.4332C64.2845 16.4332 63.4171 16.206 62.5315 16.2187Z" fill="#98A2B3"/>
<path d="M79.8207 13.8245C82.1434 13.8209 84.4662 13.8189 86.7869 13.8264C85.261 19.8395 83.7784 25.8675 82.2268 31.8751C82.1778 32.035 82.1307 32.1947 82.0818 32.3561C83.753 32.4503 85.4369 32.2453 87.0992 32.4324C87.8412 32.8278 88.5126 33.3432 89.2221 33.793C86.3153 33.8095 83.4045 33.8222 80.4975 33.7878C80.0512 33.4214 79.768 32.8987 79.4177 32.4451C80.8351 26.7112 82.334 20.9972 83.7168 15.2561C82.285 14.9132 80.8713 14.4887 79.4141 14.2582C79.5503 14.113 79.6846 13.968 79.8207 13.8245Z" fill="#98A2B3"/>
<path d="M91.5955 13.8465L91.6119 13.8519C92.4392 14.2837 93.2451 14.7571 94.0308 15.2599C92.4717 21.4419 90.8879 27.6182 89.3418 33.8021C90.0058 34.2432 90.6936 34.6442 91.3433 35.1105C86.9447 35.1377 82.546 35.1089 78.1474 35.125C77.6231 34.3576 77.0404 33.6335 76.5432 32.8497C77.9805 27.2701 79.3632 21.6742 80.7804 16.0875C80.3303 15.474 79.8785 14.8606 79.4139 14.2583C80.8711 14.4888 82.2848 14.9132 83.7166 15.2562C82.3338 20.9972 80.8349 26.7112 79.4175 32.4451C79.7678 32.8987 80.051 33.4214 80.4973 33.7879C83.4042 33.8222 86.3151 33.8095 89.2219 33.7931C88.5124 33.3432 87.841 32.8278 87.099 32.4324C85.4367 32.2453 83.7528 32.4503 82.0816 32.3562C82.1305 32.1947 82.1776 32.035 82.2266 31.8751C82.2102 31.9751 82.1795 32.178 82.1649 32.2781C83.7745 32.2307 85.3949 32.3708 87.0008 32.2199C88.478 26.0831 90.0984 19.9776 91.5955 13.8465Z" fill="#98A2B3"/>
<path d="M91.6129 13.8513C93.4474 13.7844 95.2837 13.8386 97.1182 13.824C95.3562 20.9859 93.4926 28.1239 91.7343 35.2861C87.4863 35.2406 83.2366 35.275 78.9886 35.2694C78.7144 35.2297 78.3551 35.3586 78.1483 35.1244C82.5469 35.1083 86.9456 35.1371 91.3443 35.1099C90.6945 34.6436 90.0067 34.2427 89.3428 33.8016C90.8888 27.6177 92.4727 21.4413 94.0317 15.2594C93.246 14.7565 92.4401 14.2831 91.6129 13.8513Z" fill="#98A2B3"/>
<path d="M99.3849 14.6781C99.4738 14.3317 99.5156 13.9596 99.7406 13.6708C100.437 14.2862 101.249 14.7651 102.058 15.2186C104.994 15.2931 107.937 15.197 110.875 15.2623C111.336 15.6196 111.606 16.1713 111.967 16.6249C110.525 22.3463 109.061 28.0619 107.656 33.7922C109.048 34.1203 110.425 34.5215 111.838 34.7538C111.871 34.7684 111.939 34.7971 111.973 34.8118C111.753 34.9661 111.583 35.2817 111.278 35.2582C109.03 35.2489 106.779 35.2743 104.531 35.2455C106.115 29.096 107.612 22.925 109.211 16.781C107.717 16.7774 106.224 16.7829 104.731 16.7754C104.58 16.7627 104.446 16.8027 104.326 16.8972C103.646 16.2658 102.815 15.8337 102.043 15.3296C100.443 21.4772 98.9204 27.6464 97.3453 33.8012C98.14 34.2764 98.9384 34.7465 99.7152 35.2507C97.8878 35.2634 96.0604 35.2561 94.2333 35.2561C95.8717 28.3795 97.6864 21.5425 99.3849 14.6781Z" fill="#98A2B3"/>
<path d="M99.7401 13.6699C99.9052 13.7028 100.237 13.77 100.404 13.8044C101.081 13.643 101.9 13.6486 102.58 13.8026C102.845 13.6266 103.186 13.7338 103.484 13.7062C104.89 13.7263 106.3 13.6792 107.706 13.7263L107.842 13.8007C108.349 13.5938 108.936 13.7573 109.477 13.7102C109.955 13.7517 110.483 13.5974 110.927 13.8026C111.6 13.5811 112.361 13.7517 113.059 13.8097C113.653 14.6099 114.242 15.4154 114.798 16.2429C114.028 18.9049 113.444 21.6176 112.742 24.2978C111.99 27.179 111.319 30.0841 110.512 32.9492C110.953 33.5496 111.414 34.1377 111.838 34.7529C110.425 34.5206 109.047 34.1194 107.656 33.7913C109.06 28.061 110.524 22.3454 111.967 16.624C111.606 16.1704 111.335 15.6187 110.874 15.2614C107.937 15.1961 104.994 15.2922 102.057 15.2178C101.248 14.7642 100.437 14.2853 99.7401 13.6699Z" fill="#98A2B3"/>
<path d="M119.998 13.945C120.322 13.6274 120.881 13.6256 121.27 13.8034C122.017 13.5875 122.848 13.7686 123.63 13.7088C124.409 13.7672 125.24 13.5875 125.987 13.8015C126.251 13.6274 126.592 13.7346 126.889 13.707C128.296 13.7182 129.702 13.6981 131.108 13.7126C131.511 13.8994 131.658 14.3678 131.938 14.6869C132.272 15.2168 132.741 15.6777 132.999 16.2437C132.546 17.9749 132.15 19.7205 131.667 21.4424C130.105 20.5914 128.419 19.9761 126.829 19.1742C127.799 18.8638 128.829 18.6751 129.742 18.2235C129.931 17.7135 130.025 17.1747 130.163 16.6484C129.795 16.2004 129.548 15.5687 129.058 15.2656C126.704 15.2059 124.346 15.2656 121.99 15.2366C121.079 15.1733 120.631 16.2419 119.814 16.4306C119.018 16.3509 118.159 16.398 117.415 16.0733C118.254 15.3385 119.139 14.6581 119.998 13.945Z" fill="#98A2B3"/>
<path d="M65.1674 16.4315C65.9604 16.141 66.434 15.125 67.3685 15.2354C69.7165 15.2503 72.0646 15.2354 74.411 15.2428C74.774 15.6947 75.1188 16.161 75.4489 16.6381C75.3129 17.188 75.1713 17.7377 75.0226 18.2857C74.0589 18.5977 73.0954 18.9134 72.1137 19.1603C72.3152 18.3657 72.5093 17.5689 72.7179 16.7761C71.1048 16.8071 69.488 16.7199 67.8784 16.825C66.9911 16.7308 66.1109 16.5854 65.2199 16.544C64.7609 18.5525 64.1494 20.5248 63.7611 22.5481C66.8568 23.8617 69.9615 25.1502 73.059 26.4508C72.5765 28.4906 72.003 30.5085 71.5403 32.5531C72.3949 32.6857 73.2569 32.762 74.117 32.8543C73.1445 33.6765 72.1554 34.482 71.1611 35.2786C69.1179 35.4456 67.0599 35.304 65.0113 35.3604C63.429 35.3002 61.8485 35.3693 60.2642 35.3529C59.9811 35.3147 59.8742 35.0137 59.7144 34.8212C59.2808 34.166 58.7781 33.5621 58.3535 32.9014C58.7545 31.2085 59.1446 29.4974 59.6619 27.8409C60.3968 28.7192 60.9902 29.7082 61.6017 30.6732C61.6125 31.2703 61.3457 31.8399 61.2315 32.4227C61.5599 32.8778 61.8412 33.3825 62.2712 33.7543C64.7609 33.7853 67.256 33.7744 69.7457 33.7599C70.4026 33.5712 70.8689 32.9794 71.4205 32.5931C70.515 32.5206 69.6149 32.3862 68.7077 32.3137C69.1432 30.6552 69.5424 28.9875 69.9797 27.3291C66.8948 26.0118 63.7865 24.7508 60.7089 23.4172C61.3239 21.0183 61.9482 18.6234 62.5307 16.2171C63.4163 16.2044 64.2837 16.4315 65.1674 16.4315Z" fill="#98A2B3"/>
<path d="M119.815 16.4293C120.632 16.2406 121.08 15.172 121.991 15.2353C124.346 15.2644 126.705 15.2046 129.058 15.2644C129.549 15.5674 129.795 16.1991 130.164 16.6472C130.026 17.1735 129.932 17.7122 129.743 18.2222C128.83 18.6739 127.799 18.8625 126.83 19.173C127.012 18.3728 127.255 17.5908 127.425 16.7905C125.827 16.7596 124.23 16.7886 122.631 16.776C121.735 16.758 120.849 16.6037 119.958 16.5272C119.448 18.518 118.955 20.5139 118.434 22.5006C121.519 23.871 124.653 25.1282 127.763 26.438C127.296 28.4816 126.774 30.5136 126.226 32.5367C127.071 32.7073 127.941 32.7073 128.783 32.9032C127.805 33.7146 126.828 34.5291 125.828 35.3129C123.704 35.3801 121.58 35.3274 119.454 35.3604C117.897 35.2639 116.334 35.4455 114.777 35.295C114.199 34.473 113.583 33.6765 113.034 32.8362C113.515 31.1432 113.915 29.4287 114.344 27.7229C114.656 27.7901 114.948 27.9227 115.209 28.1114C115.015 28.0516 114.629 27.9298 114.434 27.8701C115.101 28.7846 115.761 29.7135 116.327 30.6933C116.309 31.2866 116.075 31.8492 115.946 32.4243C116.26 32.8777 116.587 33.3228 116.924 33.7599C119.281 33.7889 121.64 33.7543 124 33.7778C124.898 33.8887 125.466 33.0559 126.124 32.5931C125.228 32.5187 124.339 32.3917 123.444 32.3117C123.847 30.6443 124.281 28.9841 124.684 27.3164C121.6 26.0065 118.49 24.7579 115.429 23.4044C116.109 20.9565 116.641 18.4691 117.336 16.0266L117.416 16.0721C118.16 16.3968 119.018 16.3497 119.815 16.4293Z" fill="#98A2B3"/>
<path d="M102.042 15.3289C102.814 15.833 103.645 16.2651 104.325 16.8965C102.821 23.0222 101.24 29.1296 99.714 35.25C98.9373 34.7457 98.1388 34.2757 97.3441 33.8004C98.9193 27.6457 100.442 21.4765 102.042 15.3289Z" fill="#98A2B3"/>
<path d="M65.2198 16.5451C66.1108 16.5866 66.9909 16.732 67.8783 16.8261C67.528 18.4775 67.0272 20.0959 66.6842 21.7509C69.4388 22.9139 72.1898 24.0844 74.9498 25.231C75.2783 25.3652 75.6248 25.4705 75.9169 25.6808C75.3035 28.0689 74.6703 30.4547 74.1169 32.8555C73.2567 32.7631 72.3948 32.6869 71.5402 32.5543C72.0029 30.5096 72.5763 28.4917 73.0589 26.452C69.9614 25.1514 66.8567 23.8629 63.7609 22.5493C64.1492 20.526 64.7607 18.5537 65.2198 16.5451Z" fill="#98A2B3"/>
<path d="M119.959 16.5273C120.85 16.6038 121.735 16.7582 122.632 16.7762C122.231 18.4365 121.78 20.0858 121.379 21.7461C124.47 23.0489 127.564 24.3426 130.649 25.6547C130.005 28.0641 129.433 30.4939 128.783 32.9033C127.941 32.7075 127.072 32.7075 126.226 32.5368C126.775 30.5138 127.297 28.4817 127.764 26.4382C124.653 25.1284 121.519 23.8711 118.435 22.5008C118.955 20.514 119.449 18.5181 119.959 16.5273Z" fill="#98A2B3"/>
<path d="M59.5779 27.7386C60.663 28.0868 61.6521 28.6879 62.7135 29.1048C63.3161 29.4281 63.9929 29.6219 64.5445 30.0358C64.2343 30.7543 64.1253 31.5471 63.9402 32.3058C65.5298 32.3149 67.1195 32.2931 68.7091 32.3149C69.6163 32.3874 70.5164 32.5218 71.4219 32.5943C70.8702 32.9806 70.4039 33.5724 69.747 33.7611C67.2573 33.7756 64.7622 33.7865 62.2726 33.7555C61.8426 33.3837 61.5613 32.8789 61.2328 32.4239C61.3471 31.8411 61.6138 31.2714 61.6031 30.6743C60.9915 29.7093 60.3981 28.7203 59.6632 27.8421L59.5779 27.7386Z" fill="#98A2B3"/>
<path d="M114.435 27.8703C114.629 27.9301 115.016 28.0518 115.21 28.1116C116.557 28.6667 117.849 29.3489 119.199 29.8952C119.088 30.7137 118.796 31.4953 118.649 32.3086C120.248 32.3086 121.846 32.2959 123.445 32.312C124.34 32.392 125.228 32.5189 126.125 32.5934C125.466 33.0561 124.898 33.889 124 33.778C121.641 33.7545 119.282 33.7891 116.925 33.7601C116.588 33.323 116.261 32.878 115.947 32.4245C116.076 31.8494 116.31 31.2868 116.328 30.6936C115.762 29.7137 115.101 28.7848 114.435 27.8703Z" fill="#98A2B3"/>
</svg>
