<svg width="146" height="40" viewBox="0 0 146 40" fill="none" xmlns="http://www.w3.org/2000/svg">
<path d="M107.758 34.507C113.647 34.507 114.469 27.2848 118.491 20.8403C118.336 23.1514 118.469 25.1737 118.913 26.5959C120.669 32.1292 126.691 32.5514 129.424 26.9292C133.291 19.0181 134.402 17.1514 138.291 11.4403C140.869 7.68477 137.891 5.24032 134.424 6.99588C132.647 7.88477 129.78 10.1514 126.18 14.907C126.802 11.2848 126.647 5.15143 121.402 5.50699C118.647 5.68477 115.069 8.79588 110.18 16.7959C110.58 12.307 110.736 9.12921 108.78 7.46255C107.447 6.32921 104.291 5.88477 102.402 8.32921C100.491 10.7959 100.047 15.6181 100.247 20.6848C100.669 31.307 104.424 34.507 107.758 34.507ZM10.8466 27.5292C11.4022 27.5292 11.9133 27.1514 12.0689 26.5959L14.2689 18.7737L16.5133 26.5959C16.6689 27.1292 17.18 27.5292 17.7355 27.5292H18.3133C18.8689 27.5292 19.38 27.1514 19.5355 26.5959L22.6022 16.1292C22.7355 15.6625 22.4022 15.2181 21.9133 15.2181H21.3133C20.7578 15.2181 20.2466 15.5959 20.1133 16.1514L18.0022 24.1959L15.9133 16.1514C15.78 15.6181 15.2689 15.2181 14.7133 15.2181H13.8911C13.3355 15.2181 12.8244 15.5959 12.6911 16.1514L10.6022 24.1959L8.49109 16.1514C8.35776 15.6181 7.84665 15.2181 7.29109 15.2181H6.69109C6.20221 15.2181 5.86887 15.6848 6.00221 16.1514L9.04665 26.6181C9.20221 27.1514 9.71332 27.5514 10.2689 27.5514H10.8466V27.5292ZM65.5355 21.3959C65.4689 17.6848 63.4911 14.9514 60.2911 14.9514C58.8244 14.9514 57.7578 15.507 56.98 16.2403V16.1737C56.98 15.6403 56.5578 15.2181 56.0244 15.2181H55.6689C55.1355 15.2181 54.7133 15.6625 54.7133 16.1737V30.7514C54.7133 31.2848 55.1578 31.707 55.6689 31.707H56.0911C56.6244 31.707 57.0466 31.2625 57.0466 30.7514V26.5737C57.8466 27.2625 58.8689 27.7959 60.2911 27.7959C63.5355 27.7959 65.4689 25.0403 65.5355 21.3959ZM78.7578 27.5292C79.2022 27.5292 79.58 27.1514 79.58 26.707V25.907C79.58 25.5959 79.3133 25.3514 79.0244 25.3514H78.4022C78.1133 25.3514 77.8911 25.1514 77.8911 24.8625V19.5292C77.8911 16.6848 76.0244 14.9514 73.0244 14.9514C71.0022 14.9514 69.0911 15.8848 68.3578 17.6625C68.18 18.0625 68.4911 18.707 68.9133 18.8403L69.38 18.9959C70.0022 19.1959 70.4244 18.9959 70.6911 18.3959C71.0911 17.4848 71.8911 17.107 73.0466 17.107C74.7578 17.107 75.6022 18.0848 75.58 19.5292C75.0689 20.2403 73.6022 20.2625 72.0689 20.2625C69.58 20.2625 67.8022 21.507 67.8022 23.9514C67.8022 26.4403 69.7578 27.7959 72.4466 27.7959C73.8244 27.7959 75.2689 27.4181 75.98 26.4181C76.4022 27.107 77.1355 27.5292 77.8689 27.5292H78.7578ZM35.2022 27.5292C35.6466 27.5292 36.0244 27.1514 36.0244 26.707V25.907C36.0244 25.5959 35.7578 25.3514 35.4689 25.3514H34.8466C34.5578 25.3514 34.3355 25.1514 34.3355 24.8625V19.5292C34.3355 16.6848 32.4466 14.9514 29.4689 14.9514C27.4689 14.9514 25.5355 15.8848 24.8022 17.6625C24.6244 18.0625 24.9355 18.707 25.3578 18.8403L25.8244 18.9959C26.4466 19.1959 26.8689 18.9959 27.1355 18.4181C27.5355 17.507 28.3578 17.1292 29.4911 17.1292C31.18 17.1292 32.0466 18.107 32.0244 19.5514C31.5133 20.2625 30.0022 20.2848 28.4689 20.2848C26.0689 20.2848 24.2689 21.5292 24.2689 23.9737C24.2689 26.4625 26.2466 27.8181 28.9133 27.8181C30.2689 27.8181 31.7355 27.4403 32.4466 26.4403C32.8689 27.1292 33.6022 27.5514 34.3355 27.5514H35.2022V27.5292ZM92.7578 27.5292C93.2022 27.5292 93.58 27.1514 93.58 26.707V25.907C93.58 25.5959 93.3133 25.3514 93.0244 25.3514H92.4022C92.1133 25.3514 91.8911 25.1514 91.8911 24.8625V11.9959C91.8911 11.4625 91.4466 11.0403 90.9355 11.0403H90.5133C89.98 11.0403 89.5578 11.4848 89.5578 11.9959V16.1737C88.7578 15.4848 87.7355 14.9514 86.3133 14.9514C83.1133 14.9514 81.1355 17.6848 81.0689 21.3959C81.1355 25.0403 83.0911 27.7959 86.3133 27.7959C87.9578 27.7959 89.0689 27.107 89.8911 26.2625C90.2911 27.0625 91.0689 27.5292 91.8911 27.5292H92.7578ZM70.2022 23.9292C70.2022 22.9514 70.8911 22.3514 72.0022 22.3514C73.3578 22.3514 74.8911 22.3292 75.5578 21.7514V23.9959C75.4244 25.0848 74.3355 25.6181 72.8022 25.6181C71.4022 25.5737 70.2022 25.0403 70.2022 23.9292ZM26.6466 23.9292C26.6466 22.9514 27.4022 22.3514 28.4022 22.3514C29.7578 22.3514 31.3355 22.3292 32.0022 21.7514V23.9959C31.8466 25.0848 30.7578 25.6181 29.2466 25.6181C27.8689 25.5737 26.6466 25.0403 26.6466 23.9292ZM83.4466 21.3737C83.4911 18.9737 84.6022 17.1959 86.5578 17.1959C87.9355 17.1959 88.98 18.0848 89.5355 18.9292V23.7959C88.98 24.6403 87.9355 25.5292 86.5578 25.5292C84.6022 25.5292 83.5133 23.7514 83.4466 21.3737ZM57.0689 23.7959V18.9292C57.6244 18.0848 58.6689 17.1959 60.0466 17.1959C62.0022 17.1959 63.0911 18.9737 63.1578 21.3737C63.1133 23.7514 62.0022 25.5292 60.0466 25.5292C58.6689 25.5292 57.6022 24.6403 57.0689 23.7959ZM44.38 26.307C44.38 25.7737 43.9355 25.3514 43.4244 25.3514H42.2022C41.7578 25.3514 41.4911 25.0403 41.4911 24.6403V17.4848H46.6244V24.8181C46.6244 26.3959 47.8911 27.5514 49.38 27.5514H51.0911C51.6244 27.5514 52.0466 27.107 52.0466 26.5959V26.3292C52.0466 25.7959 51.6022 25.3737 51.0911 25.3737H49.6911C49.2689 25.3737 48.98 25.0625 48.98 24.6625V17.507H51.1133C51.6466 17.507 52.0689 17.0625 52.0689 16.5514V16.2403C52.0689 15.707 51.6244 15.2848 51.1133 15.2848H48.98V12.0625C48.98 11.5292 48.5355 11.107 48.0244 11.107H47.58C47.0466 11.107 46.6244 11.5514 46.6244 12.0625V15.2848H41.4689V12.0625C41.4689 11.5292 41.0244 11.107 40.5133 11.107H40.0911C39.5578 11.107 39.1355 11.5514 39.1355 12.0625V15.2848H37.4022C36.8689 15.2848 36.4466 15.7292 36.4466 16.2403V16.5514C36.4466 17.0848 36.8911 17.507 37.4022 17.507H39.1133V24.8403C39.1133 26.4181 40.38 27.5737 41.8689 27.5737H43.4022C43.9355 27.5737 44.3578 27.1292 44.3578 26.6181V26.307H44.38Z" fill="#98A2B3"/>
</svg>
