<svg width="559" height="315" viewBox="0 0 559 315" fill="none" xmlns="http://www.w3.org/2000/svg">
<rect width="503.551" height="312.954" rx="20" fill="#1B202C"/>
<rect x="11.7695" y="9.41211" width="482.374" height="294.13" rx="17" fill="white"/>
<path d="M343.201 51.6172H284.388C279.633 51.6172 275.777 55.4659 275.777 60.2135V118.932C275.777 123.68 279.633 127.529 284.388 127.529H343.201C347.957 127.529 351.812 123.68 351.812 118.932V60.2135C351.812 55.4659 347.957 51.6172 343.201 51.6172Z" fill="#FF5D0A"/>
<path d="M340.997 71.9551C338.957 72.8592 336.792 73.4523 334.576 73.7147C336.91 72.3178 338.657 70.1197 339.491 67.5301C337.297 68.8328 334.895 69.7501 332.391 70.2423C331.345 69.1265 330.081 68.2373 328.677 67.63C327.273 67.0228 325.76 66.7103 324.23 66.7119C318.055 66.7119 313.048 71.7173 313.048 77.8934C313.048 78.7689 313.148 79.6232 313.339 80.4421C304.045 79.9757 295.807 75.5238 290.292 68.7581C289.298 70.4646 288.775 72.4049 288.778 74.38C288.777 76.2209 289.23 78.0337 290.098 79.6573C290.965 81.2809 292.221 82.665 293.752 83.6866C291.977 83.6302 290.241 83.1507 288.688 82.288C288.687 82.3347 288.687 82.3807 288.687 82.4289C288.687 87.8448 292.541 92.364 297.655 93.3924C296.008 93.8382 294.281 93.9035 292.606 93.5835C294.028 98.0248 298.157 101.259 303.05 101.349C299.09 104.457 294.199 106.143 289.164 106.136C288.261 106.136 287.372 106.084 286.496 105.98C291.609 109.264 297.559 111.008 303.636 111.002C324.202 111.002 335.449 93.965 335.449 79.1908C335.449 78.7067 335.438 78.2232 335.416 77.7427C337.607 76.1614 339.497 74.2014 340.997 71.9551V71.9551Z" fill="white"/>
<path d="M343.201 183.389H284.388C279.633 183.389 275.777 187.237 275.777 191.985V250.704C275.777 255.451 279.633 259.3 284.388 259.3H343.201C347.957 259.3 351.812 255.451 351.812 250.704V191.985C351.812 187.237 347.957 183.389 343.201 183.389Z" fill="#FF5D0A"/>
<path d="M335.826 199H291.536C288.491 199 286.028 201.491 286.028 204.536L286 237.754C286 240.799 288.491 243.29 291.536 243.29H335.826C338.871 243.29 341.363 240.799 341.363 237.754V204.536C341.363 201.491 338.871 199 335.826 199ZM335.826 210.073L313.681 223.913L291.536 210.073V204.536L313.681 218.377L335.826 204.536V210.073Z" fill="white"/>
<path d="M460.818 51.6172H402.006C397.25 51.6172 393.395 55.4659 393.395 60.2135V118.932C393.395 123.68 397.25 127.529 402.006 127.529H460.818C465.574 127.529 469.429 123.68 469.429 118.932V60.2135C469.429 55.4659 465.574 51.6172 460.818 51.6172Z" fill="#FF5D0A"/>
<path d="M450.78 97.5093C451.682 96.3161 452.182 94.8543 452.182 93.3334C452.182 90.9203 450.833 88.6362 448.662 87.3625C448.103 87.0346 447.467 86.8621 446.819 86.8627H433.931L434.253 80.2576C434.329 78.6614 433.764 77.1459 432.668 75.9904C432.13 75.4209 431.481 74.9677 430.761 74.659C430.041 74.3502 429.265 74.1924 428.481 74.1954C425.687 74.1954 423.215 76.0764 422.473 78.7689L417.856 95.4831H417.84V118.485H443.223C443.718 118.485 444.201 118.389 444.647 118.195C447.206 117.104 448.856 114.605 448.856 111.832C448.856 111.155 448.759 110.488 448.565 109.843C449.468 108.65 449.968 107.188 449.968 105.668C449.968 104.99 449.871 104.324 449.678 103.679C450.581 102.486 451.081 101.024 451.081 99.5031C451.07 98.826 450.973 98.1542 450.78 97.5093V97.5093ZM409.188 97.2029V116.766C409.188 117.717 409.956 118.485 410.907 118.485H414.401V95.4831H410.907C409.956 95.4831 409.188 96.2517 409.188 97.2029Z" fill="white"/>
<path d="M460.818 183.389H402.006C397.25 183.389 393.395 187.237 393.395 191.985V250.704C393.395 255.451 397.25 259.3 402.006 259.3H460.818C465.574 259.3 469.429 255.451 469.429 250.704V191.985C469.429 187.237 465.574 183.389 460.818 183.389Z" fill="#FF5D0A"/>
<path d="M452.536 222.891C449.28 222.178 445.845 222.235 442.668 221.165C439.938 220.243 437.638 217.673 435.351 216.007C435.251 215.935 435.064 215.896 434.851 215.883C434.88 215.289 434.936 214.694 435.063 214.092C435.125 213.794 434.32 213.63 433.753 213.73C433.138 213.635 432.238 213.839 432.453 214.101C432.5 214.16 432.53 214.238 432.566 214.307C432.479 214.527 432.391 214.748 432.298 214.966C432.127 215.373 431.9 215.659 431.576 215.429C431.47 215.355 431.39 215.073 431.365 214.867C431.296 214.327 431.552 214.074 431.814 213.858C431.868 213.816 431.945 213.851 432.007 213.816C432.389 213.59 432.457 213.157 432.184 212.678C431.977 212.317 431.752 211.98 431.469 211.522C431.247 212.064 431.084 212.581 430.849 213.004C430.709 213.254 430.46 213.48 430.256 213.483C430.119 213.487 429.842 213.036 429.868 212.875C429.922 212.53 430.114 211.999 430.277 211.977C430.745 211.918 430.856 211.422 430.981 210.965L429.911 209.626C429.724 210.135 429.552 210.688 429.323 211.18C429.228 211.38 429.012 211.507 428.845 211.542C428.756 211.562 428.56 211.309 428.558 211.174C428.552 210.856 428.576 210.448 428.7 210.233C428.877 209.931 429.163 209.78 429.395 209.542C429.628 209.303 429.655 209.065 429.381 208.819C429.264 208.715 429.182 208.522 429.078 208.379C428.6 207.727 428.355 207.822 428.094 208.732C427.954 209.22 427.798 209.773 427.364 209.546C427.213 209.47 427.023 209.014 427.056 208.812C427.107 208.499 427.329 208.24 427.495 207.982C427.668 207.707 428.042 207.325 428.012 207.226C427.879 206.813 427.658 206.429 427.411 206.167C427.329 206.082 427.053 206.359 426.894 206.534C425.722 207.819 424.568 209.144 423.386 210.407C422.762 211.071 422.126 211.738 421.438 212.224C420.666 212.774 419.827 213.098 419.025 213.563C417.664 214.353 416.246 214.421 414.826 214.266C414.114 214.189 413.402 213.86 412.699 213.599C412.02 213.349 411.355 213.061 410.709 212.737C410.104 212.432 409.525 212.035 408.931 211.687C408.455 211.409 407.98 211.103 407.492 210.875C406.789 210.55 406.074 210.251 405.349 209.979C404.979 209.839 404.727 209.958 404.699 210.695C404.678 211.223 404.606 211.838 404.407 212.237C404.19 212.676 403.43 213.668 403.537 213.884C403.462 213.856 403.471 213.914 403.52 214.016C403.409 215.063 403.35 215.95 403.203 216.786C402.738 219.39 403.016 222.041 402.941 224.667C402.923 225.322 403.072 225.528 403.506 225.53C404.588 225.532 405.673 225.605 406.756 225.679C408.166 225.773 409.573 225.885 410.98 226.016C411.477 226.063 411.976 226.186 412.477 226.265L412.482 226.277C412.633 226.607 417.388 226.783 419.074 227.004C419.188 227.018 419.598 227.016 420.005 226.983C419.908 227.103 419.806 227.237 419.669 227.41C420.03 227.553 420.301 227.692 420.573 227.762C421.6 228.015 422.629 228.252 423.658 228.491C424.266 228.631 424.934 230.276 425.531 230.482C426.368 230.77 427.17 231.296 428.001 231.631C428.356 231.771 429.712 232.523 430.069 232.666C431.022 233.048 431.193 232.65 432.138 233.067C432.841 233.376 433.444 233.625 434.148 233.929C434.55 234.102 434.816 232.754 435.235 232.838C436.018 232.992 436.805 233.204 437.594 233.234C439.188 233.296 440.789 233.339 442.382 233.228C443.686 233.136 444.986 232.811 446.289 232.591C446.305 232.587 446.321 232.584 446.336 232.59C447.291 232.443 448.253 232.328 449.204 232.143C450.066 231.977 450.92 231.738 451.78 231.529C451.845 231.512 451.912 231.495 451.977 231.485C452.913 231.353 453.852 231.252 454.787 231.082C455.959 230.867 457.134 230.599 458.306 230.343C458.358 230.33 458.406 230.305 458.446 230.271C458.487 230.236 458.519 230.193 458.541 230.145C458.568 230.072 458.59 229.976 458.602 229.866C458.92 229.814 459.164 229.697 459.135 229.529C458.548 226.058 456.01 223.659 452.533 222.898" fill="white"/>
<path d="M428.065 230.117C418.944 226.364 412.128 220.155 410.192 212.444C409.767 212.198 409.353 211.936 408.93 211.688C408.455 211.41 407.98 211.104 407.492 210.876C406.789 210.551 406.074 210.252 405.349 209.98C404.979 209.84 404.727 209.959 404.699 210.696C404.678 211.224 404.606 211.839 404.407 212.239C404.19 212.677 403.43 213.669 403.537 213.885C403.462 213.858 403.471 213.915 403.52 214.018C403.409 215.064 403.35 215.951 403.203 216.787C402.738 219.391 403.016 222.042 402.941 224.668C402.923 225.323 403.072 225.529 403.506 225.531C404.588 225.533 405.673 225.606 406.756 225.68C408.166 225.774 409.573 225.886 410.98 226.017C411.477 226.064 411.976 226.187 412.477 226.266L412.482 226.278C412.633 226.608 417.388 226.784 419.074 227.005C419.188 227.019 419.598 227.017 420.005 226.984C419.908 227.104 419.806 227.238 419.669 227.411C420.03 227.554 420.301 227.693 420.573 227.763C421.6 228.016 422.629 228.253 423.658 228.492C424.266 228.632 424.934 230.277 425.531 230.483C426.368 230.771 427.17 231.297 428.001 231.632C428.356 231.772 429.712 232.524 430.069 232.667C431.022 233.049 431.193 232.652 432.138 233.068C432.841 233.377 433.444 233.626 434.148 233.93C434.55 234.103 434.816 232.756 435.235 232.839C436.018 232.993 436.805 233.205 437.594 233.235C437.903 233.247 438.21 233.249 438.519 233.257C434.943 232.52 431.443 231.51 428.062 230.117H428.065ZM428.094 208.734C427.954 209.222 427.798 209.775 427.364 209.548C427.213 209.472 427.023 209.016 427.056 208.814C427.107 208.501 427.329 208.242 427.495 207.984C427.668 207.709 428.042 207.326 428.012 207.228C427.879 206.815 427.658 206.431 427.411 206.169C427.329 206.084 427.053 206.361 426.894 206.536L426.357 207.128C425.838 209.526 427.005 211.099 429.898 212.739C429.975 212.406 430.135 211.996 430.279 211.978C430.746 211.919 430.858 211.423 430.982 210.966L429.913 209.627C429.726 210.136 429.554 210.689 429.324 211.181C429.23 211.381 429.014 211.508 428.847 211.543C428.758 211.563 428.562 211.31 428.56 211.175C428.554 210.857 428.578 210.449 428.702 210.234C428.879 209.932 429.164 209.781 429.397 209.543C429.63 209.304 429.657 209.066 429.382 208.82C429.266 208.716 429.183 208.523 429.08 208.38C428.6 207.729 428.355 207.824 428.094 208.734" fill="white"/>
<path fill-rule="evenodd" clip-rule="evenodd" d="M460.07 230.592C459.992 230.056 459.699 229.689 459.209 229.488C459.205 229.483 459.202 229.478 459.201 229.472L459.182 229.477C456.769 228.529 450.524 230.965 450.524 230.965C450.524 230.965 442.969 232.085 438.129 232.725C431.483 233.607 422.838 227.448 420.652 227.032C420.584 227.012 420.513 226.996 420.449 226.978C420.334 226.946 420.222 226.905 420.113 226.856C419.567 226.781 419.023 226.696 418.481 226.601C418.48 226.601 418.463 226.604 418.452 226.604C417.931 226.562 417.411 226.508 416.892 226.441C415.988 226.361 415.084 226.284 414.171 226.203C414.06 226.192 413.947 226.184 413.832 226.175C413.669 226.194 413.536 226.222 413.403 226.201C413.157 226.167 412.911 226.117 412.662 226.069L412.244 226.029C406.741 224.957 404.414 224.997 403.434 225.209C403.278 225.216 403.126 225.263 402.994 225.345C402.741 225.462 402.719 225.574 402.719 225.574V225.576C402.347 225.982 402.102 226.683 402.102 227.479V232.23C402.102 233.484 402.708 234.502 403.453 234.502H417.913C418.445 234.502 418.893 233.974 419.115 233.226C425.243 233.735 431.253 235.956 437.384 236.234C437.724 236.271 438.098 236.304 438.531 236.324L438.534 236.341C439.219 236.341 439.907 236.376 440.591 236.34C440.641 236.335 440.692 236.334 440.742 236.339C441.493 236.3 442.242 236.237 442.989 236.148C443.233 236.199 443.49 236.216 443.654 236.171C444.111 236.049 444.567 235.945 445.021 235.846C445.477 235.768 445.934 235.703 446.387 235.608C446.543 235.575 446.7 235.533 446.858 235.5C450.107 234.987 453.375 234.904 456.684 234.577C458.365 234.412 459.092 233.618 459.603 232.465C459.719 232.364 459.816 232.198 459.876 231.965C459.966 231.721 459.998 231.52 460.036 231.315C460.092 231.148 460.145 230.983 460.201 230.806C460.224 230.733 460.161 230.666 460.066 230.609L460.07 230.592ZM430.477 206.713C431.399 207.401 431.782 208.444 431.332 209.05L427.881 213.69C427.432 214.291 426.321 214.228 425.395 213.54C424.469 212.855 424.088 211.807 424.538 211.205L427.991 206.565C428.438 205.959 429.551 206.028 430.477 206.713V206.713ZM434.155 209.756C435.079 210.444 435.462 211.487 435.009 212.094L431.561 216.734C431.113 217.335 430.001 217.273 429.077 216.585C428.153 215.9 427.768 214.851 428.219 214.25L431.669 209.61C432.117 209.003 433.231 209.071 434.155 209.756ZM437.743 213.204C438.665 213.891 439.047 214.934 438.595 215.541L435.147 220.181C434.696 220.782 433.587 220.72 432.663 220.032C431.74 219.346 431.354 218.298 431.805 217.697L435.257 213.057C435.703 212.45 436.817 212.518 437.743 213.204" fill="white"/>
<path d="M166.764 51.6172H225.591C230.344 51.6172 234.202 55.469 234.202 60.2135V118.932C234.202 123.677 230.344 127.529 225.591 127.529H166.771C162.019 127.529 158.16 123.677 158.16 118.932V60.2135C158.16 55.469 162.019 51.6172 166.771 51.6172H166.764Z" fill="#FF5D0A"/>
<path d="M217.826 74H173.536C170.491 74 168.028 76.4913 168.028 79.5363L168 112.754C168 115.799 170.491 118.29 173.536 118.29H217.826C220.871 118.29 223.363 115.799 223.363 112.754V79.5363C223.363 76.4913 220.871 74 217.826 74ZM217.826 85.0725L195.681 98.9131L173.536 85.0725V79.5363L195.681 93.3769L217.826 79.5363V85.0725Z" fill="white"/>
<path d="M166.764 183.389H225.591C230.344 183.389 234.202 187.24 234.202 191.985V250.704C234.202 255.448 230.344 259.3 225.591 259.3H166.771C162.019 259.3 158.16 255.448 158.16 250.704V191.985C158.16 187.24 162.019 183.389 166.771 183.389H166.764Z" fill="#FF5D0A"/>
<path d="M215.78 225.509C216.682 224.316 217.182 222.854 217.182 221.333C217.182 218.92 215.833 216.636 213.662 215.362C213.103 215.035 212.467 214.862 211.819 214.863H198.931L199.253 208.258C199.329 206.661 198.764 205.146 197.668 203.99C197.13 203.421 196.481 202.968 195.761 202.659C195.041 202.35 194.265 202.192 193.481 202.195C190.687 202.195 188.215 204.076 187.473 206.769L182.856 223.483H182.84V246.485H208.223C208.718 246.485 209.201 246.389 209.647 246.195C212.206 245.104 213.856 242.605 213.856 239.832C213.856 239.155 213.759 238.488 213.565 237.843C214.468 236.65 214.968 235.188 214.968 233.668C214.968 232.99 214.871 232.324 214.678 231.679C215.581 230.486 216.081 229.024 216.081 227.503C216.07 226.826 215.973 226.154 215.78 225.509V225.509ZM174.188 225.203V244.766C174.188 245.717 174.956 246.485 175.907 246.485H179.401V223.483H175.907C174.956 223.483 174.188 224.252 174.188 225.203Z" fill="white"/>
<path d="M49.1423 51.6172H107.962C112.715 51.6172 116.573 55.469 116.573 60.2135V118.932C116.573 123.677 112.715 127.529 107.962 127.529H49.1423C44.3897 127.529 40.5312 123.677 40.5312 118.932V60.2135C40.5312 55.469 44.3897 51.6172 49.1423 51.6172Z" fill="#FF5D0A"/>
<path d="M98.7795 90.5093C99.6824 89.3161 100.182 87.8543 100.182 86.3334C100.182 83.9203 98.8333 81.6362 96.662 80.3625C96.1031 80.0346 95.4667 79.8621 94.8186 79.8627H81.931L82.2534 73.2576C82.3287 71.6614 81.7644 70.1459 80.668 68.9904C80.13 68.4209 79.4808 67.9677 78.7607 67.659C78.0406 67.3502 77.2649 67.1924 76.4814 67.1954C73.6867 67.1954 71.2145 69.0764 70.4729 71.7689L65.8563 88.4831H65.8402V111.485H91.2232C91.7177 111.485 92.2013 111.389 92.6474 111.195C95.2056 110.104 96.8555 107.605 96.8555 104.832C96.8555 104.155 96.7588 103.488 96.5653 102.843C97.4682 101.65 97.968 100.188 97.968 98.6675C97.968 97.9903 97.8713 97.3239 97.6778 96.679C98.5807 95.4859 99.0805 94.0241 99.0805 92.5031C99.0698 91.826 98.973 91.1542 98.7795 90.5093V90.5093ZM57.1875 90.2029V109.766C57.1875 110.717 57.956 111.485 58.9073 111.485H62.4006V88.4831H58.9073C57.956 88.4831 57.1875 89.2517 57.1875 90.2029Z" fill="white"/>
<path d="M49.1423 183.389H107.962C112.715 183.389 116.573 187.24 116.573 191.985V250.704C116.573 255.448 112.715 259.3 107.962 259.3H49.1423C44.3897 259.3 40.5312 255.448 40.5312 250.704V191.985C40.5312 187.24 44.3897 183.389 49.1423 183.389Z" fill="#FF5D0A"/>
<path d="M98.8454 199H59.4446C58.7962 199 58.1744 199.258 57.716 199.716C57.2576 200.174 57 200.796 57 201.445V240.846C57.0002 241.494 57.2578 242.116 57.7162 242.574C58.1746 243.033 58.7963 243.29 59.4446 243.29H80.6564V226.139H74.8845V219.455H80.6564V214.525C80.6564 208.804 84.1504 205.69 89.2536 205.69C91.6981 205.69 93.7988 205.871 94.4115 205.953V211.931L90.872 211.933C88.0965 211.933 87.5595 213.252 87.5595 215.187V219.455H94.1784L93.3166 226.139H87.5595V243.29H98.8461C99.4943 243.29 100.116 243.032 100.574 242.574C101.033 242.115 101.29 241.494 101.29 240.845V201.445C101.29 200.796 101.032 200.174 100.574 199.716C100.116 199.258 99.4938 199 98.8454 199V199Z" fill="white"/>
<path d="M541.905 49H437.478C428.378 49 421 56.3776 421 65.4783V297.919C421 307.019 428.378 314.397 437.478 314.397H541.905C551.006 314.397 558.383 307.019 558.383 297.919V65.4783C558.383 56.3776 551.006 49 541.905 49Z" fill="#1B202C"/>
<path d="M541.369 51.3232H437.999C430.028 51.3232 423.566 57.7851 423.566 65.7562V296.19C423.566 304.161 430.028 310.623 437.999 310.623H541.369C549.34 310.623 555.802 304.161 555.802 296.19V65.7562C555.802 57.7851 549.34 51.3232 541.369 51.3232Z" fill="#1B202C"/>
<path d="M550.025 65.3015V295.473C550.025 300.868 545.649 305.244 540.254 305.244H439.138C433.743 305.244 429.367 300.868 429.367 295.473V65.3015C429.367 59.9065 433.743 55.5303 439.138 55.5303H456.003C456.936 55.5303 457.793 56.0551 458.21 56.8964L460.001 60.4699C460.819 62.1216 462.501 63.1558 464.33 63.1558H515.054C516.883 63.1558 518.566 62.1216 519.384 60.4699L521.175 56.8964C521.592 56.0628 522.448 55.5303 523.382 55.5303H540.246C545.641 55.5303 550.018 59.9065 550.018 65.3015H550.025Z" fill="white"/>
<g opacity="0.8">
<path d="M513.613 202.921H468.483C464.833 202.921 461.875 205.874 461.875 209.517V254.576C461.875 258.219 464.833 261.172 468.483 261.172H513.613C517.263 261.172 520.221 258.219 520.221 254.576V209.517C520.221 205.874 517.263 202.921 513.613 202.921Z" fill="#FF5D0A"/>
<path d="M507.858 233.95C508.593 232.98 509 231.792 509 230.556C509 228.594 507.902 226.738 506.134 225.703C505.679 225.436 505.161 225.296 504.634 225.296H494.143L494.405 219.928C494.466 218.63 494.007 217.398 493.114 216.459C492.676 215.996 492.148 215.628 491.562 215.377C490.976 215.126 490.344 214.998 489.706 215C487.431 215 485.419 216.529 484.815 218.718L481.057 232.303H481.044V251H501.707C502.109 251 502.503 250.921 502.866 250.764C504.949 249.877 506.292 247.846 506.292 245.592C506.292 245.042 506.213 244.5 506.056 243.976C506.791 243.006 507.197 241.818 507.197 240.581C507.197 240.031 507.119 239.489 506.961 238.965C507.696 237.995 508.103 236.807 508.103 235.571C508.094 235.02 508.016 234.474 507.858 233.95V233.95ZM474 233.701V249.602C474 250.375 474.626 251 475.4 251H478.244V232.303H475.4C474.626 232.303 474 232.928 474 233.701Z" fill="white"/>
</g>
<g opacity="0.8">
<path d="M513.53 98.6113H468.544C464.906 98.6113 461.957 101.555 461.957 105.187V150.101C461.957 153.732 464.906 156.676 468.544 156.676H513.53C517.168 156.676 520.116 153.732 520.116 150.101V105.187C520.116 101.555 517.168 98.6113 513.53 98.6113Z" fill="#FF5D0A"/>
<path d="M505.4 116H476.6C474.62 116 473.018 117.631 473.018 119.625L473 141.375C473 143.369 474.62 145 476.6 145H505.4C507.38 145 509 143.369 509 141.375V119.625C509 117.631 507.38 116 505.4 116ZM505.4 123.25L491 132.312L476.6 123.25V119.625L491 128.688L505.4 119.625V123.25Z" fill="white"/>
</g>
<path d="M510.98 58.9726H470.127C469.178 58.9726 468.406 58.2008 468.406 57.2514C468.406 56.3021 469.178 55.5303 470.127 55.5303H510.98C511.929 55.5303 512.701 56.3021 512.701 57.2514C512.701 58.2008 511.929 58.9726 510.98 58.9726Z" fill="#DEE3FC"/>
<path d="M489.733 83.3658C489.701 83.3515 489.476 83.2059 489.276 83.0631C489.088 82.9289 488.925 82.7976 488.923 82.7947C488.811 82.709 488.737 82.7176 488.712 82.7176C488.423 82.7176 486.917 82.7062 486.706 82.7062H482.576C482.576 82.7062 482.561 82.6948 482.567 82.6862L487.639 75.7448C487.693 75.6535 487.739 75.5307 487.739 75.425C487.739 75.1224 487.508 74.9082 487.222 74.9082H481.686C481.529 74.9082 481.38 75.0053 481.315 75.1566C481.195 75.425 481.412 75.7448 481.709 75.7448H486.478C486.478 75.7448 486.492 75.7562 486.487 75.7648L481.466 82.7062C481.4 82.789 481.366 82.8689 481.36 82.9803C481.346 83.2801 481.592 83.5257 481.891 83.5257H489.701C489.79 83.5257 489.815 83.4058 489.736 83.3658H489.733Z" fill="black"/>
<path d="M514.665 74.7061C514.474 74.7061 514.342 74.8517 514.285 75.003L511.804 80.0342L509.442 75.1486C509.379 75.0144 509.282 74.8917 509.134 74.866C509.134 74.866 509.122 74.866 509.142 74.866H499.563C498.682 74.866 497.937 75.0944 497.407 75.5313C496.907 75.9424 496.634 76.5192 496.634 77.1531C496.634 78.7492 498.145 79.1204 499.478 79.4517L499.518 79.4631C500.619 79.7515 501.757 80.0484 501.757 81.0735C501.757 82.0015 500.972 82.6097 499.749 82.6468C497.789 82.6411 492.894 82.6325 492.167 82.6325C490.421 82.6325 489.137 81.3391 489.032 79.4802H495.259C495.61 79.4802 495.818 79.2832 495.818 78.9548C495.818 77.8726 495.464 76.8676 494.819 76.1223C494.109 75.3 493.116 74.8631 491.95 74.8631C490.86 74.8631 489.853 75.3085 489.12 76.1195C488.395 76.919 487.996 77.9983 487.996 79.1576C487.996 80.3768 488.407 81.479 489.151 82.2613C489.896 83.0409 490.943 83.4692 492.101 83.4692L499.115 83.4606C499.115 83.4606 500.074 83.452 500.57 83.3778C501.064 83.3064 501.569 83.058 501.922 82.7582C502.427 82.327 502.695 81.7331 502.695 81.0421C502.695 79.2889 501.121 78.8892 499.732 78.5379L499.666 78.5208C498.542 78.2353 497.569 77.9897 497.569 77.1046C497.569 76.2194 498.371 75.6797 499.563 75.6797H505.109V82.978C505.109 83.2436 505.325 83.4549 505.591 83.452C505.85 83.4492 506.056 83.2379 506.056 82.978V75.6769H508.76L511.341 80.9907L510.814 82.0186C510.54 82.5869 510.24 82.7011 509.841 82.7011C509.733 82.7011 509.656 82.6868 509.596 82.6782C509.553 82.6725 509.519 82.6639 509.484 82.6639C509.245 82.6639 509.048 82.8324 509.048 83.0409C509.048 83.2322 509.213 83.3864 509.45 83.4149C509.579 83.4263 509.713 83.4406 509.844 83.4406C510.705 83.4406 511.273 83.0094 511.638 82.2442L515.064 75.3171V75.3114C515.095 75.2343 515.115 75.1858 515.115 75.1229C515.115 74.8888 514.93 74.7146 514.665 74.7146V74.7061ZM491.938 75.6912C494.032 75.6912 494.825 77.4815 494.856 78.7093H489.037C489.126 77.2016 490.144 75.6912 491.938 75.6912V75.6912Z" fill="black"/>
<path d="M514.705 82.2842V81.3904H514.419C514.388 81.3904 514.359 81.3619 514.359 81.3305C514.359 81.2991 514.388 81.2705 514.419 81.2705H515.127C515.158 81.2705 515.187 81.2991 515.187 81.3305C515.187 81.3619 515.158 81.3904 515.127 81.3904H514.839V82.2842C514.839 82.3184 514.81 82.3498 514.773 82.3498C514.736 82.3498 514.705 82.3184 514.705 82.2842Z" fill="#B3B3B3"/>
<path d="M516.274 82.284V81.4502L515.917 82.3211C515.912 82.3383 515.897 82.3497 515.88 82.3497C515.863 82.3497 515.849 82.3411 515.843 82.3211L515.49 81.4502V82.284C515.49 82.3183 515.458 82.3497 515.424 82.3497C515.384 82.3497 515.355 82.3183 515.355 82.284V81.376C515.355 81.316 515.404 81.2646 515.467 81.2646C515.515 81.2646 515.555 81.2932 515.572 81.336L515.88 82.0927L516.188 81.336C516.206 81.2932 516.245 81.2646 516.294 81.2646C516.357 81.2646 516.405 81.316 516.405 81.376V82.284C516.405 82.3183 516.377 82.3497 516.337 82.3497C516.303 82.3497 516.271 82.3183 516.271 82.284H516.274Z" fill="#B3B3B3"/>
<path d="M470.862 84.8196C469.838 85.1051 468.951 84.9309 469.199 83.943C469.445 82.955 470.041 80.1254 470.2 79.4372C470.215 79.3715 470.28 79.3287 470.349 79.3401L472.04 79.5514C472.109 79.5629 472.154 79.6314 472.14 79.6999L471.53 82.4867L478.282 77.4071C477.617 74.703 475.418 72.5101 472.5 72.0047C469.601 71.5022 466.806 72.8042 465.268 75.1028C466.766 74.6345 470.44 73.7465 471.667 73.4267C472.776 73.1383 473.535 73.3753 473.33 74.2719C473.104 75.2655 472.488 78.0895 472.328 78.7776C472.314 78.8433 472.249 78.8861 472.18 78.8747L470.489 78.6948C470.42 78.6834 470.374 78.6149 470.389 78.5463L470.999 75.7595L464.25 80.8392C464.912 83.5432 467.114 85.7361 470.029 86.2415C472.927 86.7441 475.72 85.442 477.261 83.1463C475.809 83.606 472.097 84.4769 470.862 84.8224V84.8196Z" fill="#FF5D0A"/>
</svg>
