<svg width="583" height="423" viewBox="0 0 583 423" fill="none" xmlns="http://www.w3.org/2000/svg">
<g filter="url(#filter0_d_223_3372)">
<rect x="17" y="10" width="552.245" height="393" rx="10" fill="#FDFDFD"/>
<path d="M65.9615 36.2325C65.9238 36.2153 65.6523 36.0399 65.4118 35.868C65.185 35.7063 64.9891 35.5481 64.9857 35.5447C64.8517 35.4415 64.7624 35.4518 64.7314 35.4518C64.3844 35.4518 62.5702 35.438 62.3159 35.438H57.3405C57.3405 35.438 57.3233 35.4243 57.3302 35.414L63.4395 27.0527C63.5048 26.9426 63.5597 26.7947 63.5597 26.6675C63.5597 26.3029 63.2814 26.0449 62.9378 26.0449H56.2684C56.0794 26.0449 55.9008 26.1619 55.8217 26.3442C55.6774 26.6675 55.9385 27.0527 56.2959 27.0527H62.041C62.041 27.0527 62.0582 27.0664 62.0513 27.0768L56.0038 35.438C55.9248 35.5378 55.8836 35.6341 55.8767 35.7682C55.8595 36.1294 56.155 36.4252 56.5158 36.4252H65.9238C66.0303 36.4252 66.0612 36.2807 65.965 36.2325H65.9615Z" fill="black"/>
<path d="M95.991 25.8008C95.7607 25.8008 95.6027 25.9762 95.534 26.1585L92.5446 32.2188L89.6995 26.3339C89.6239 26.1722 89.5071 26.0243 89.3284 25.9934C89.3284 25.9934 89.3147 25.9934 89.3387 25.9934H77.8004C76.7387 25.9934 75.8419 26.2685 75.2028 26.7948C74.6014 27.2901 74.2716 27.9848 74.2716 28.7484C74.2716 30.671 76.0927 31.1182 77.6973 31.5171L77.7455 31.5309C79.0718 31.8783 80.4428 32.236 80.4428 33.4707C80.4428 34.5885 79.4978 35.3212 78.0238 35.3659C75.6632 35.359 69.7669 35.3487 68.8907 35.3487C66.7878 35.3487 65.2416 33.7906 65.1145 31.5515H72.6154C73.038 31.5515 73.2889 31.3142 73.2889 30.9187C73.2889 29.6151 72.8628 28.4044 72.0863 27.5067C71.2307 26.5162 70.0349 25.99 68.6296 25.99C67.317 25.99 66.1041 26.5265 65.221 27.5033C64.3482 28.4663 63.8672 29.7665 63.8672 31.1629C63.8672 32.6315 64.362 33.9591 65.2588 34.9015C66.1556 35.8405 67.4166 36.3564 68.8117 36.3564L77.261 36.3461C77.261 36.3461 78.4155 36.3358 79.0134 36.2464C79.6078 36.1604 80.216 35.8611 80.6421 35.5C81.2502 34.9806 81.5732 34.2652 81.5732 33.4329C81.5732 31.3211 79.6765 30.8396 78.0032 30.4165L77.9241 30.3959C76.5703 30.0519 75.3986 29.7561 75.3986 28.6899C75.3986 27.6237 76.3641 26.9736 77.8004 26.9736H84.4801V35.7648C84.4801 36.0847 84.7413 36.3392 85.0608 36.3358C85.3735 36.3323 85.6209 36.0778 85.6209 35.7648V26.9702H88.8783L91.9879 33.371L91.3523 34.6092C91.0224 35.2936 90.6616 35.4312 90.1806 35.4312C90.05 35.4312 89.9572 35.414 89.8851 35.4037C89.8335 35.3968 89.7923 35.3865 89.7511 35.3865C89.4624 35.3865 89.2253 35.5894 89.2253 35.8405C89.2253 36.0709 89.4246 36.2567 89.7098 36.2911C89.8644 36.3048 90.0259 36.322 90.184 36.322C91.2217 36.322 91.9055 35.8027 92.3453 34.8809L96.472 26.5368V26.5299C96.5098 26.4371 96.5339 26.3786 96.5339 26.3029C96.5339 26.0209 96.3105 25.8111 95.991 25.8111V25.8008ZM68.6158 26.9874C71.1379 26.9874 72.0931 29.1439 72.1309 30.6229H65.1213C65.2279 28.8069 66.4545 26.9874 68.6158 26.9874V26.9874Z" fill="black"/>
<path d="M96.0369 34.929V33.8525H95.6932C95.6555 33.8525 95.6211 33.8181 95.6211 33.7802C95.6211 33.7424 95.6555 33.708 95.6932 33.708H96.5454C96.5832 33.708 96.6176 33.7424 96.6176 33.7802C96.6176 33.8181 96.5832 33.8525 96.5454 33.8525H96.1984V34.929C96.1984 34.9703 96.164 35.0081 96.1193 35.0081C96.0746 35.0081 96.0369 34.9703 96.0369 34.929Z" fill="#B3B3B3"/>
<path d="M97.9267 34.9291V33.9247L97.4972 34.9738C97.4903 34.9944 97.4732 35.0082 97.4525 35.0082C97.4319 35.0082 97.4147 34.9978 97.4079 34.9738L96.9818 33.9247V34.9291C96.9818 34.9703 96.944 35.0082 96.9028 35.0082C96.8547 35.0082 96.8203 34.9703 96.8203 34.9291V33.8353C96.8203 33.7631 96.8787 33.7012 96.9543 33.7012C97.0127 33.7012 97.0608 33.7356 97.0815 33.7872L97.4525 34.6986L97.8236 33.7872C97.8443 33.7356 97.8924 33.7012 97.9508 33.7012C98.0264 33.7012 98.0848 33.7631 98.0848 33.8353V34.9291C98.0848 34.9703 98.0504 35.0082 98.0023 35.0082C97.9611 35.0082 97.9233 34.9703 97.9233 34.9291H97.9267Z" fill="#B3B3B3"/>
<path d="M43.2265 37.9834C41.993 38.3273 40.9244 38.1175 41.2233 36.9275C41.5188 35.7374 42.2369 32.3289 42.4293 31.5C42.4465 31.4209 42.5256 31.3693 42.608 31.3831L44.6456 31.6376C44.7281 31.6514 44.7831 31.7339 44.7659 31.8165L44.0306 35.1733L52.1637 29.0546C51.3631 25.7974 48.7139 23.1559 45.1988 22.5472C41.7078 21.9418 38.3404 23.5102 36.4884 26.279C38.2923 25.7149 42.718 24.6452 44.1955 24.26C45.5321 23.9126 46.4461 24.1981 46.1987 25.2781C45.9273 26.475 45.1851 29.8766 44.9927 30.7055C44.9755 30.7846 44.8964 30.8362 44.814 30.8225L42.7764 30.6058C42.6939 30.592 42.639 30.5095 42.6561 30.4269L43.3914 27.07L35.2617 33.1888C36.0589 36.4459 38.7115 39.0874 42.2232 39.6962C45.7142 40.3015 49.0781 38.7332 50.9336 35.9679C49.1847 36.5216 44.7143 37.5706 43.2265 37.9868V37.9834Z" fill="#FF5D0A"/>
<g filter="url(#filter1_d_223_3372)">
<path d="M17 20C17 14.4772 21.4772 10 27 10H559.245C564.768 10 569.245 14.4772 569.245 20V53.0985H17V20Z" fill="white"/>
</g>
<rect x="361.789" y="21.6875" width="48.2119" height="19.723" rx="3" fill="#5B667D"/>
<rect x="414.383" y="21.6875" width="48.2119" height="19.723" rx="3" fill="#5B667D"/>
<rect x="468.438" y="21.6875" width="81.0836" height="19.723" rx="3" fill="#FF5D0A"/>
<path d="M78.9554 39.1602C78.9016 39.1357 78.5152 38.886 78.1729 38.6412C77.8501 38.4111 77.5713 38.1859 77.5664 38.181C77.3757 38.0342 77.2485 38.0489 77.2045 38.0489C76.7105 38.0489 74.1281 38.0293 73.7662 38.0293H66.6842C66.6842 38.0293 66.6598 38.0097 66.6695 37.995L75.3655 26.0936C75.4584 25.937 75.5367 25.7264 75.5367 25.5453C75.5367 25.0264 75.1405 24.6592 74.6514 24.6592H65.1583C64.8893 24.6592 64.6349 24.8256 64.5225 25.0851C64.317 25.5453 64.6887 26.0936 65.1974 26.0936H73.3749C73.3749 26.0936 73.3994 26.1132 73.3896 26.1279L64.7817 38.0293C64.6692 38.1712 64.6105 38.3083 64.6007 38.4993C64.5762 39.0133 64.9969 39.4343 65.5104 39.4343H78.9016C79.0532 39.4343 79.0972 39.2287 78.9603 39.1602H78.9554Z" fill="black"/>
<path d="M121.701 24.3115C121.374 24.3115 121.149 24.5612 121.051 24.8207L116.796 33.4469L112.746 25.0704C112.639 24.8403 112.472 24.6297 112.218 24.5857C112.218 24.5857 112.198 24.5857 112.233 24.5857H95.809C94.2978 24.5857 93.0212 24.9773 92.1115 25.7264C91.2556 26.4314 90.7861 27.4203 90.7861 28.5071C90.7861 31.2438 93.3783 31.8802 95.6623 32.4481L95.7308 32.4677C97.6187 32.9622 99.5701 33.4713 99.5701 35.2289C99.5701 36.82 98.2251 37.8628 96.127 37.9264C92.7669 37.9166 84.3742 37.9019 83.127 37.9019C80.1338 37.9019 77.9329 35.6842 77.7519 32.4971H88.4287C89.0303 32.4971 89.3873 32.1593 89.3873 31.5963C89.3873 29.7408 88.7809 28.0175 87.6755 26.7398C86.4577 25.3298 84.7557 24.5808 82.7553 24.5808C80.887 24.5808 79.1605 25.3445 77.9036 26.7349C76.6613 28.1057 75.9766 29.9562 75.9766 31.9439C75.9766 34.0343 76.6808 35.9241 77.9574 37.2655C79.2339 38.602 81.0288 39.3364 83.0145 39.3364L95.0412 39.3217C95.0412 39.3217 96.6845 39.307 97.5355 39.1797C98.3816 39.0573 99.2473 38.6314 99.8538 38.1173C100.719 37.3781 101.179 36.3598 101.179 35.175C101.179 32.1691 98.4795 31.4837 96.0976 30.8815L95.9851 30.8521C94.0581 30.3626 92.3903 29.9416 92.3903 28.4239C92.3903 26.9062 93.7647 25.9809 95.809 25.9809H105.317V38.4943C105.317 38.9496 105.689 39.3119 106.143 39.307C106.589 39.3021 106.941 38.9398 106.941 38.4943V25.9761H111.577L116.003 35.0869L115.099 36.8494C114.629 37.8236 114.116 38.0194 113.431 38.0194C113.245 38.0194 113.113 37.9949 113.01 37.9803C112.937 37.9705 112.878 37.9558 112.819 37.9558C112.409 37.9558 112.071 38.2446 112.071 38.602C112.071 38.93 112.355 39.1944 112.761 39.2433C112.981 39.2629 113.211 39.2874 113.436 39.2874C114.913 39.2874 115.886 38.5481 116.512 37.2361L122.386 25.3592V25.3494C122.44 25.2172 122.474 25.134 122.474 25.0263C122.474 24.6248 122.156 24.3262 121.701 24.3262V24.3115ZM82.7357 26.0005C86.3256 26.0005 87.6853 29.0701 87.7391 31.1753H77.7617C77.9133 28.5903 79.6594 26.0005 82.7357 26.0005V26.0005Z" fill="black"/>
<path d="M121.768 37.3044V35.772H121.278C121.225 35.772 121.176 35.7231 121.176 35.6692C121.176 35.6154 121.225 35.5664 121.278 35.5664H122.491C122.545 35.5664 122.594 35.6154 122.594 35.6692C122.594 35.7231 122.545 35.772 122.491 35.772H121.997V37.3044C121.997 37.3631 121.949 37.417 121.885 37.417C121.821 37.417 121.768 37.3631 121.768 37.3044Z" fill="#B3B3B3"/>
<path d="M124.458 37.3044V35.8749L123.846 37.368C123.837 37.3974 123.812 37.417 123.783 37.417C123.753 37.417 123.729 37.4023 123.719 37.368L123.113 35.8749V37.3044C123.113 37.3631 123.059 37.417 123 37.417C122.932 37.417 122.883 37.3631 122.883 37.3044V35.7476C122.883 35.6448 122.966 35.5566 123.074 35.5566C123.157 35.5566 123.225 35.6056 123.255 35.679L123.783 36.9764L124.311 35.679C124.34 35.6056 124.409 35.5566 124.492 35.5566C124.6 35.5566 124.683 35.6448 124.683 35.7476V37.3044C124.683 37.3631 124.634 37.417 124.565 37.417C124.507 37.417 124.453 37.3631 124.453 37.3044H124.458Z" fill="#B3B3B3"/>
<path d="M46.5988 41.6518C44.8429 42.1413 43.3219 41.8427 43.7474 40.1488C44.168 38.4549 45.1902 33.6033 45.4641 32.4234C45.4885 32.3108 45.601 32.2374 45.7184 32.257L48.6187 32.6193C48.7361 32.6388 48.8143 32.7563 48.7899 32.8738L47.7432 37.652L59.3199 28.9426C58.1803 24.3064 54.4095 20.5465 49.4061 19.68C44.437 18.8183 39.6439 21.0508 37.0078 24.9918C39.5755 24.1889 45.8749 22.6663 47.978 22.118C49.8805 21.6236 51.1815 22.0299 50.8294 23.5671C50.443 25.2708 49.3866 30.1127 49.1127 31.2925C49.0882 31.4051 48.9757 31.4786 48.8583 31.459L45.9581 31.1506C45.8407 31.131 45.7624 31.0135 45.7869 30.896L46.8335 26.1178L35.2617 34.8272C36.3964 39.4634 40.1722 43.2233 45.1706 44.0898C50.1398 44.9515 54.9279 42.719 57.569 38.7829C55.0795 39.5711 48.7165 41.0643 46.5988 41.6567V41.6518Z" fill="#FF5D0A"/>
<path d="M214.885 139H157V143.292H214.885V139Z" fill="#C3CDDF"/>
<path d="M248 149.093H157V153.385H248V149.093Z" fill="#C3CDDF"/>
<path d="M248 157.839H157V162.131H248V157.839Z" fill="#C3CDDF"/>
<path d="M215.885 245H158V249.292H215.885V245Z" fill="#C3CDDF"/>
<path d="M249 255.093H158V259.385H249V255.093Z" fill="#C3CDDF"/>
<path d="M249 263.839H158V268.131H249V263.839Z" fill="#C3CDDF"/>
<path d="M217.885 351H160V355.292H217.885V351Z" fill="#C3CDDF"/>
<path d="M251 361.093H160V365.385H251V361.093Z" fill="#C3CDDF"/>
<path d="M251 369.839H160V374.131H251V369.839Z" fill="#C3CDDF"/>
<path d="M412.549 119.522H328.691V203.462H412.549V119.522Z" fill="#D6E8F5"/>
<path d="M370.619 190.953C378.095 190.953 385.004 188.531 390.609 184.43C389.752 178.898 387.767 173.964 384.998 170.122C384.726 169.742 384.394 169.404 384.002 169.114C380.34 166.372 375.688 164.717 370.613 164.717C365.539 164.717 360.893 166.366 357.224 169.114C356.838 169.404 356.506 169.742 356.229 170.122C353.459 173.964 351.48 178.898 350.617 184.43C356.229 188.531 363.131 190.953 370.607 190.953H370.619Z" fill="white"/>
<path d="M370.62 190.953C377.142 190.953 383.236 189.105 388.413 185.91C387.798 179.701 385.958 174.151 383.291 169.923C383.049 169.543 382.76 169.198 382.416 168.908C379.188 166.148 375.091 164.487 370.626 164.487C366.161 164.487 362.064 166.148 358.83 168.908C358.486 169.198 358.196 169.543 357.955 169.923C355.288 174.151 353.447 179.701 352.832 185.91C358.009 189.105 364.097 190.953 370.626 190.953H370.62Z" fill="white"/>
<path d="M365.871 156.135V165.635C365.871 166.62 367.995 167.411 370.62 167.411C373.244 167.411 375.368 166.614 375.368 165.635V156.135H365.877H365.871Z" fill="white"/>
<path d="M384.154 146.224C383.967 145.976 383.719 145.801 383.394 145.753C382.452 145.608 381.644 146.779 381.318 147.516C381.288 147.577 381.3 147.631 381.306 147.679C380.516 149.002 380.075 150.306 380.274 151.901C380.31 152.203 380.54 152.348 380.775 152.372C381.24 153.036 382.133 153.526 382.917 153.121C383.472 152.837 383.593 152.251 383.665 151.696C383.87 149.962 385.415 147.909 384.154 146.23V146.224Z" fill="white"/>
<path d="M357.574 151.696C357.641 152.257 357.761 152.837 358.322 153.121C359.113 153.526 360 153.036 360.464 152.372C360.7 152.348 360.929 152.197 360.965 151.901C361.158 150.306 360.718 149.002 359.933 147.679C359.939 147.631 359.952 147.577 359.921 147.516C359.596 146.779 358.787 145.608 357.846 145.753C357.52 145.801 357.267 145.976 357.086 146.224C355.83 147.909 357.369 149.956 357.574 151.69V151.696Z" fill="white"/>
<path d="M383.575 139.544C383.563 139.254 383.532 138.97 383.496 138.68C383.4 137.991 383.213 137.321 382.814 136.741C382.718 136.602 381.553 135.352 381.469 135.455C381.813 135.02 382 134.464 381.964 133.776C381.855 131.771 379.81 131.112 378.15 130.75C373.607 129.747 368.919 130.273 364.803 132.175C364.472 132.326 363.941 132.332 363.567 132.423C363.09 132.544 362.625 132.683 362.167 132.852C361.213 133.202 360.296 133.661 359.482 134.271C358.727 134.839 358.058 135.545 357.635 136.403C357.116 137.454 357.141 138.571 357.177 139.719C357.255 142.479 358.003 145.299 358.643 147.975C358.758 148.47 358.824 149.992 359.313 150.246C361.678 151.478 364.81 151.394 367.404 151.339C371.417 151.255 375.417 150.566 379.429 150.675C379.906 150.687 380.389 150.693 380.859 150.747C381.179 150.784 381.577 150.898 381.861 150.687C381.982 150.602 382.012 150.439 382.036 150.294C382.615 146.737 383.575 143.174 383.575 139.544V139.544Z" fill="white"/>
<path d="M380.127 139.018H379.729C378.969 139.018 378.233 139.199 377.515 139.452C376.38 139.851 373.719 140.129 370.624 140.129C367.529 140.129 364.868 139.851 363.733 139.452C363.015 139.199 362.279 139.018 361.519 139.018H361.121C360.005 139.018 359.105 139.924 359.105 141.035V153.452C359.105 160.151 364.264 165.58 370.63 165.58C376.996 165.58 382.155 160.151 382.155 153.452V141.035C382.155 139.917 381.249 139.018 380.139 139.018H380.127Z" fill="white"/>
<path d="M408.791 199.7H332.445V123.279H408.791V199.7ZM332.91 199.235H408.326V123.744H332.91V199.235Z" fill="#4AACFF"/>
<path d="M322.858 145H248V219.931H322.858V145Z" fill="#FF5D0A"/>
<path d="M285.43 208.764C292.103 208.764 298.27 206.602 303.274 202.942C302.509 198.003 300.737 193.598 298.265 190.169C298.022 189.829 297.726 189.528 297.376 189.269C294.107 186.821 289.954 185.344 285.424 185.344C280.894 185.344 276.747 186.816 273.472 189.269C273.127 189.528 272.831 189.829 272.583 190.169C270.111 193.598 268.344 198.003 267.574 202.942C272.583 206.602 278.745 208.764 285.419 208.764H285.43Z" fill="white"/>
<path d="M285.429 208.765C291.252 208.765 296.692 207.115 301.313 204.263C300.764 198.721 299.121 193.766 296.74 189.992C296.525 189.652 296.266 189.345 295.959 189.086C293.078 186.622 289.421 185.14 285.435 185.14C281.449 185.14 277.792 186.622 274.905 189.086C274.598 189.345 274.339 189.652 274.124 189.992C271.743 193.766 270.1 198.721 269.551 204.263C274.172 207.115 279.607 208.765 285.435 208.765H285.429Z" fill="white"/>
<path d="M281.188 177.683V186.163C281.188 187.042 283.083 187.749 285.426 187.749C287.769 187.749 289.665 187.037 289.665 186.163V177.683H281.193H281.188Z" fill="white"/>
<path d="M297.51 168.835C297.343 168.614 297.122 168.457 296.831 168.414C295.991 168.285 295.269 169.331 294.978 169.989C294.951 170.043 294.962 170.091 294.967 170.134C294.262 171.315 293.869 172.479 294.046 173.903C294.079 174.172 294.283 174.302 294.494 174.323C294.908 174.916 295.705 175.353 296.406 174.992C296.901 174.739 297.009 174.216 297.073 173.72C297.257 172.172 298.635 170.339 297.51 168.84V168.835Z" fill="white"/>
<path d="M273.786 173.72C273.845 174.221 273.953 174.739 274.454 174.992C275.159 175.353 275.951 174.916 276.366 174.323C276.576 174.302 276.781 174.167 276.813 173.903C276.985 172.479 276.592 171.315 275.892 170.134C275.897 170.091 275.908 170.043 275.881 169.989C275.59 169.331 274.868 168.285 274.028 168.414C273.737 168.457 273.511 168.614 273.35 168.835C272.229 170.339 273.603 172.167 273.786 173.714V173.72Z" fill="white"/>
<path d="M296.997 162.872C296.987 162.614 296.96 162.36 296.927 162.101C296.841 161.487 296.674 160.888 296.319 160.371C296.233 160.247 295.193 159.131 295.118 159.222C295.425 158.834 295.592 158.338 295.559 157.724C295.462 155.934 293.636 155.346 292.155 155.022C288.099 154.127 283.914 154.597 280.241 156.295C279.945 156.43 279.471 156.435 279.137 156.516C278.711 156.624 278.297 156.748 277.887 156.899C277.036 157.211 276.217 157.621 275.49 158.166C274.817 158.672 274.219 159.303 273.842 160.069C273.379 161.007 273.401 162.004 273.433 163.029C273.503 165.493 274.171 168.011 274.742 170.399C274.844 170.841 274.903 172.2 275.34 172.426C277.451 173.526 280.246 173.451 282.562 173.402C286.144 173.327 289.715 172.712 293.297 172.809C293.723 172.82 294.154 172.825 294.574 172.874C294.859 172.906 295.215 173.008 295.468 172.82C295.576 172.744 295.602 172.599 295.624 172.469C296.141 169.294 296.997 166.113 296.997 162.872V162.872Z" fill="white"/>
<path d="M293.918 162.403H293.562C292.884 162.403 292.227 162.565 291.586 162.792C290.573 163.147 288.198 163.395 285.435 163.395C282.672 163.395 280.296 163.147 279.284 162.792C278.643 162.565 277.985 162.403 277.307 162.403H276.951C275.955 162.403 275.152 163.212 275.152 164.204V175.289C275.152 181.268 279.758 186.115 285.44 186.115C291.122 186.115 295.728 181.268 295.728 175.289V164.204C295.728 163.207 294.92 162.403 293.929 162.403H293.918Z" fill="white"/>
<path d="M319.503 216.572H251.352V148.354H319.503V216.572ZM251.766 216.157H319.089V148.769H251.766V216.157Z" fill="#4AACFF"/>
<path d="M514.674 119.522H430.816V203.462H514.674V119.522Z" fill="#C3CDDF"/>
<path d="M473.158 137.823H442.175C440.588 137.823 439.297 139.11 439.297 140.704C439.297 142.293 440.582 143.585 442.175 143.585H473.158C474.745 143.585 476.037 142.299 476.037 140.704C476.037 139.116 474.751 137.823 473.158 137.823Z" fill="#5B667D"/>
<path d="M461.056 151.878H439.799C439.526 151.878 439.305 152.1 439.305 152.373V154.813C439.305 155.087 439.526 155.308 439.799 155.308H461.056C461.33 155.308 461.551 155.087 461.551 154.813V152.373C461.551 152.1 461.33 151.878 461.056 151.878Z" fill="#5B667D"/>
<path d="M461.056 176.762H439.799C439.526 176.762 439.305 176.983 439.305 177.257V179.697C439.305 179.971 439.526 180.192 439.799 180.192H461.056C461.33 180.192 461.551 179.971 461.551 179.697V177.257C461.551 176.983 461.33 176.762 461.056 176.762Z" fill="#5B667D"/>
<path d="M450.419 160.171H439.799C439.526 160.171 439.305 160.393 439.305 160.666V163.106C439.305 163.38 439.526 163.601 439.799 163.601H450.419C450.692 163.601 450.914 163.38 450.914 163.106V160.666C450.914 160.393 450.692 160.171 450.419 160.171Z" fill="#5B667D"/>
<path d="M489.571 168.469H478.952C478.679 168.469 478.457 168.69 478.457 168.964V171.404C478.457 171.678 478.679 171.899 478.952 171.899H489.571C489.845 171.899 490.066 171.678 490.066 171.404V168.964C490.066 168.69 489.845 168.469 489.571 168.469Z" fill="#5B667D"/>
<path d="M473.899 176.762H463.28C463.007 176.762 462.785 176.983 462.785 177.257V179.697C462.785 179.971 463.007 180.192 463.28 180.192H473.899C474.173 180.192 474.394 179.971 474.394 179.697V177.257C474.394 176.983 474.173 176.762 473.899 176.762Z" fill="#5B667D"/>
<path d="M500.719 151.878H464.1C463.827 151.878 463.605 152.1 463.605 152.373V154.813C463.605 155.087 463.827 155.308 464.1 155.308H500.719C500.993 155.308 501.214 155.087 501.214 154.813V152.373C501.214 152.1 500.993 151.878 500.719 151.878Z" fill="#5B667D"/>
<path d="M476.418 168.469H439.799C439.526 168.469 439.305 168.69 439.305 168.964V171.404C439.305 171.678 439.526 171.899 439.799 171.899H476.418C476.692 171.899 476.913 171.678 476.913 171.404V168.964C476.913 168.69 476.692 168.469 476.418 168.469Z" fill="#5B667D"/>
<path d="M489.571 160.171H452.952C452.679 160.171 452.457 160.393 452.457 160.666V163.106C452.457 163.38 452.679 163.601 452.952 163.601H489.571C489.844 163.601 490.066 163.38 490.066 163.106V160.666C490.066 160.393 489.844 160.171 489.571 160.171Z" fill="#5B667D"/>
<path d="M507.616 151.878H503.839C503.565 151.878 503.344 152.1 503.344 152.373V154.813C503.344 155.087 503.565 155.308 503.839 155.308H507.616C507.889 155.308 508.11 155.087 508.11 154.813V152.373C508.11 152.1 507.889 151.878 507.616 151.878Z" fill="#5B667D"/>
<path d="M495.959 168.469H492.182C491.909 168.469 491.688 168.69 491.688 168.964V171.404C491.688 171.678 491.909 171.899 492.182 171.899H495.959C496.233 171.899 496.454 171.678 496.454 171.404V168.964C496.454 168.69 496.233 168.469 495.959 168.469Z" fill="#5B667D"/>
<path d="M480.307 176.762H476.53C476.257 176.762 476.035 176.983 476.035 177.257V179.697C476.035 179.971 476.257 180.192 476.53 180.192H480.307C480.58 180.192 480.802 179.971 480.802 179.697V177.257C480.802 176.983 480.58 176.762 480.307 176.762Z" fill="#5B667D"/>
<path d="M450.419 185.054H439.799C439.526 185.054 439.305 185.275 439.305 185.549V187.989C439.305 188.263 439.526 188.484 439.799 188.484H450.419C450.692 188.484 450.914 188.263 450.914 187.989V185.549C450.914 185.275 450.692 185.054 450.419 185.054Z" fill="#5B667D"/>
<path d="M456.834 185.054H453.057C452.784 185.054 452.562 185.275 452.562 185.549V187.989C452.562 188.263 452.784 188.484 453.057 188.484H456.834C457.108 188.484 457.329 188.263 457.329 187.989V185.549C457.329 185.275 457.108 185.054 456.834 185.054Z" fill="#5B667D"/>
<path d="M495.935 137.823H483.577C481.99 137.823 480.699 139.11 480.699 140.704C480.699 142.293 481.984 143.585 483.577 143.585H495.935C497.521 143.585 498.813 142.299 498.813 140.704C498.813 139.116 497.527 137.823 495.935 137.823Z" fill="#5B667D"/>
<path d="M412.549 220.229H328.691V304.169H412.549V220.229Z" fill="#C3CDDF"/>
<path d="M382.871 288.032L388.778 284.305L385.327 275.511C386.485 274.249 387.463 272.86 388.247 271.38L397.684 271.725L399.235 264.906L390.582 261.131C390.516 259.458 390.232 257.779 389.731 256.142L396.64 249.71L392.923 243.797L384.138 247.252C382.877 246.092 381.489 245.114 380.011 244.328L380.355 234.882L373.543 233.33L369.772 241.991C368.1 242.057 366.423 242.341 364.788 242.843L358.362 235.921L352.449 239.642L355.9 248.435C354.742 249.698 353.764 251.087 352.98 252.567L343.543 252.222L341.992 259.041L350.645 262.816C350.711 264.489 350.995 266.168 351.495 267.805L344.587 274.237L348.304 280.156L357.089 276.701C358.35 277.861 359.738 278.839 361.216 279.624L360.872 289.071L367.684 290.623L371.455 281.962C373.127 281.895 374.804 281.612 376.439 281.11L382.865 288.032H382.871ZM357.306 270.372C352.678 263.015 354.886 253.291 362.242 248.665C369.591 244.032 379.305 246.243 383.927 253.605C388.555 260.962 386.347 270.686 378.991 275.312C371.642 279.945 361.928 277.734 357.306 270.372V270.372Z" fill="#5B667D"/>
<path d="M534.292 111.792V99H521.513V104.701H323.78V99H311V111.792H316.696V309.72H311V322.512H323.78V316.81H521.513V322.512H534.292V309.72H528.596V111.792H534.292ZM522.901 100.389H532.899V110.397H522.901V100.389ZM312.388 100.389H322.386V110.397H312.388V100.389ZM322.386 321.116H312.388V311.109H322.386V321.116ZM532.899 321.116H522.901V311.109H532.899V321.116ZM527.203 309.713H521.507V315.415H323.78V309.713H318.084V111.792H323.78V106.091H521.513V111.792H527.209V309.72L527.203 309.713Z" fill="#A7AFBF"/>
<path d="M514.674 220.229H430.816V304.169H514.674V220.229Z" fill="#D6E8F5"/>
<path d="M510.916 300.195H434.57V223.774H510.916V300.195ZM435.035 299.73H510.451V224.239H435.035V299.73Z" fill="#C4D0E7"/>
<path d="M455.651 267.176C454.951 267.134 454.275 266.783 453.84 266.167C453.08 265.086 453.334 263.588 454.414 262.827L485.005 241.205C486.085 240.444 487.575 240.698 488.342 241.779C489.102 242.86 488.848 244.358 487.768 245.119L457.177 266.741C456.712 267.067 456.175 267.206 455.651 267.176Z" fill="white"/>
<path d="M484.471 283.574C484.115 283.549 483.766 283.453 483.434 283.266L454.61 266.874C453.458 266.221 453.06 264.76 453.711 263.606C454.363 262.459 455.829 262.054 456.976 262.706L485.799 279.098C486.951 279.75 487.35 281.212 486.698 282.366C486.233 283.187 485.352 283.628 484.471 283.574V283.574Z" fill="white"/>
<path d="M463.84 265.273C464.111 260.822 460.727 256.999 456.28 256.727C451.833 256.455 448.013 259.844 447.742 264.295C447.47 268.746 450.855 272.569 455.302 272.841C459.749 273.113 463.568 269.725 463.84 265.273Z" fill="#C3CDDF"/>
<path d="M494.43 243.651C494.701 239.2 491.316 235.377 486.869 235.105C482.423 234.833 478.603 238.222 478.332 242.673C478.06 247.124 481.445 250.947 485.892 251.219C490.339 251.491 494.158 248.103 494.43 243.651Z" fill="#C3CDDF"/>
<path d="M492.668 281.665C492.94 277.214 489.555 273.391 485.108 273.119C480.661 272.847 476.841 276.235 476.57 280.687C476.298 285.138 479.683 288.961 484.13 289.233C488.577 289.505 492.397 286.116 492.668 281.665Z" fill="#C3CDDF"/>
<path d="M506.341 340.619H336.092C329.485 340.619 324.133 345.976 324.133 352.59C324.133 359.203 329.485 364.561 336.092 364.561H506.347C512.954 364.561 518.306 359.203 518.306 352.59C518.306 345.976 512.954 340.619 506.347 340.619H506.341Z" fill="#C3CDDF"/>
<path d="M351.343 347.209C349.883 345.046 346.95 344.473 344.784 345.934C342.751 347.305 342.129 349.981 343.27 352.095L342.129 352.862C341.815 352.711 341.435 352.723 341.122 352.934L332.548 358.726C332.083 359.04 331.962 359.669 332.276 360.134C332.59 360.599 333.217 360.719 333.682 360.405L342.256 354.613C342.564 354.402 342.721 354.052 342.696 353.707L343.843 352.934C345.381 354.734 348.06 355.127 350.064 353.774C352.224 352.312 352.797 349.377 351.337 347.209H351.343ZM344.265 351.986C343.089 350.241 343.547 347.867 345.291 346.689C347.035 345.511 349.406 345.97 350.583 347.716C351.759 349.461 351.301 351.835 349.557 353.013C347.813 354.19 345.442 353.731 344.265 351.986Z" fill="#96A2B9"/>
<path d="M522.115 368.758H320.441V369.652H522.115V368.758Z" fill="#C3CDDF"/>
<path d="M318.213 338.65H317.32V366.53H318.213V338.65Z" fill="#C3CDDF"/>
<path d="M522.115 335.527H320.441V336.421H522.115V335.527Z" fill="#C3CDDF"/>
<path d="M525.229 338.65H524.336V366.614H525.229V338.65Z" fill="#C3CDDF"/>
<path d="M527.903 339.091H521.664V332.846H527.903V339.091ZM522.557 338.197H527.01V333.74H522.557V338.197Z" fill="#C3CDDF"/>
<path d="M320.88 339.091H314.641V332.846H320.88V339.091ZM315.534 338.197H319.987V333.74H315.534V338.197Z" fill="#C3CDDF"/>
<path d="M527.903 372.327H521.664V366.082H527.903V372.327ZM522.557 371.433H527.01V366.976H522.557V371.433Z" fill="#C3CDDF"/>
<path d="M320.88 372.327H314.641V366.082H320.88V372.327ZM315.534 371.433H319.987V366.976H315.534V371.433Z" fill="#C3CDDF"/>
<rect x="52.5" y="77.5" width="95" height="95" stroke="#C3CDDF" stroke-dasharray="10 10"/>
<rect x="53.5" y="188.5" width="95" height="95" stroke="#C3CDDF" stroke-dasharray="10 10"/>
<rect x="53.5" y="292.5" width="95" height="95" stroke="#C3CDDF" stroke-dasharray="10 10"/>
<path d="M301.692 195.496C302.022 195.496 302.338 195.63 302.572 195.867C302.805 196.105 302.936 196.427 302.936 196.762V201.828C302.936 202.164 302.805 202.486 302.572 202.724C302.338 202.961 302.022 203.094 301.692 203.094C301.362 203.094 301.045 202.961 300.812 202.724C300.578 202.486 300.447 202.164 300.447 201.828V196.762C300.447 196.427 300.578 196.105 300.812 195.867C301.045 195.63 301.362 195.496 301.692 195.496V195.496ZM292.008 199.574C292.124 199.456 292.261 199.362 292.412 199.299C292.563 199.235 292.725 199.202 292.889 199.202C293.053 199.202 293.215 199.235 293.366 199.299C293.517 199.362 293.655 199.456 293.77 199.574L297.29 203.158C297.409 203.275 297.504 203.414 297.569 203.569C297.635 203.723 297.669 203.89 297.67 204.058C297.672 204.226 297.64 204.393 297.578 204.548C297.515 204.704 297.423 204.845 297.306 204.964C297.189 205.083 297.05 205.177 296.897 205.241C296.744 205.304 296.58 205.336 296.415 205.335C296.25 205.334 296.086 205.299 295.934 205.232C295.783 205.166 295.645 205.069 295.53 204.948L292.01 201.367C291.777 201.13 291.646 200.808 291.646 200.472C291.646 200.136 291.777 199.814 292.01 199.576L292.008 199.574ZM311.375 199.574C311.491 199.692 311.583 199.831 311.646 199.985C311.709 200.139 311.741 200.304 311.741 200.47C311.741 200.637 311.709 200.802 311.646 200.956C311.583 201.11 311.491 201.249 311.375 201.367L307.85 204.948C307.736 205.069 307.598 205.166 307.446 205.232C307.295 205.299 307.131 205.334 306.966 205.335C306.801 205.336 306.637 205.304 306.484 205.241C306.331 205.177 306.192 205.083 306.075 204.964C305.958 204.845 305.866 204.704 305.803 204.548C305.741 204.393 305.709 204.226 305.711 204.058C305.712 203.89 305.746 203.723 305.812 203.569C305.877 203.414 305.972 203.275 306.09 203.158L309.61 199.576C309.844 199.339 310.16 199.206 310.49 199.206C310.821 199.206 311.137 199.339 311.37 199.576L311.375 199.574ZM288 209.426C288 209.091 288.131 208.768 288.365 208.531C288.598 208.293 288.915 208.16 289.245 208.16H294.223C294.554 208.16 294.87 208.293 295.104 208.531C295.337 208.768 295.468 209.091 295.468 209.426C295.468 209.762 295.337 210.084 295.104 210.322C294.87 210.559 294.554 210.693 294.223 210.693H289.245C288.915 210.693 288.598 210.559 288.365 210.322C288.131 210.084 288 209.762 288 209.426ZM301.692 210.774V234.227C301.691 234.478 301.764 234.724 301.901 234.932C302.037 235.141 302.232 235.304 302.46 235.4C302.687 235.496 302.938 235.521 303.18 235.472C303.422 235.423 303.644 235.302 303.818 235.124L310.19 228.64C311.124 227.69 312.39 227.156 313.711 227.156H321.756C322.015 227.156 322.267 227.074 322.477 226.921C322.688 226.769 322.846 226.554 322.931 226.305C323.016 226.057 323.023 225.788 322.95 225.536C322.878 225.283 322.731 225.06 322.528 224.897L303.708 209.778C303.525 209.631 303.304 209.539 303.071 209.513C302.839 209.487 302.604 209.529 302.393 209.633C302.183 209.737 302.005 209.899 301.881 210.101C301.757 210.302 301.691 210.536 301.692 210.774Z" fill="black"/>
</g>
<defs>
<filter id="filter0_d_223_3372" x="0" y="0" width="582.246" height="423" filterUnits="userSpaceOnUse" color-interpolation-filters="sRGB">
<feFlood flood-opacity="0" result="BackgroundImageFix"/>
<feColorMatrix in="SourceAlpha" type="matrix" values="0 0 0 0 0 0 0 0 0 0 0 0 0 0 0 0 0 0 127 0" result="hardAlpha"/>
<feOffset dx="-2" dy="5"/>
<feGaussianBlur stdDeviation="7.5"/>
<feComposite in2="hardAlpha" operator="out"/>
<feColorMatrix type="matrix" values="0 0 0 0 0.220898 0 0 0 0 0.220898 0 0 0 0 0.220898 0 0 0 0.09 0"/>
<feBlend mode="normal" in2="BackgroundImageFix" result="effect1_dropShadow_223_3372"/>
<feBlend mode="normal" in="SourceGraphic" in2="effect1_dropShadow_223_3372" result="shape"/>
</filter>
<filter id="filter1_d_223_3372" x="15" y="10" width="556.246" height="48.0986" filterUnits="userSpaceOnUse" color-interpolation-filters="sRGB">
<feFlood flood-opacity="0" result="BackgroundImageFix"/>
<feColorMatrix in="SourceAlpha" type="matrix" values="0 0 0 0 0 0 0 0 0 0 0 0 0 0 0 0 0 0 127 0" result="hardAlpha"/>
<feOffset dy="3"/>
<feGaussianBlur stdDeviation="1"/>
<feComposite in2="hardAlpha" operator="out"/>
<feColorMatrix type="matrix" values="0 0 0 0 0.54902 0 0 0 0 0.596078 0 0 0 0 0.643137 0 0 0 0.04 0"/>
<feBlend mode="normal" in2="BackgroundImageFix" result="effect1_dropShadow_223_3372"/>
<feBlend mode="normal" in="SourceGraphic" in2="effect1_dropShadow_223_3372" result="shape"/>
</filter>
</defs>
</svg>
